G04 #@! TF.GenerationSoftware,KiCad,Pcbnew,7.0.10*
G04 #@! TF.CreationDate,2024-02-18T10:04:44+01:00*
G04 #@! TF.ProjectId,multicartridge-w27c512,6d756c74-6963-4617-9274-72696467652d,rev?*
G04 #@! TF.SameCoordinates,Original*
G04 #@! TF.FileFunction,Copper,L1,Top*
G04 #@! TF.FilePolarity,Positive*
%FSLAX46Y46*%
G04 Gerber Fmt 4.6, Leading zero omitted, Abs format (unit mm)*
G04 Created by KiCad (PCBNEW 7.0.10) date 2024-02-18 10:04:44*
%MOMM*%
%LPD*%
G01*
G04 APERTURE LIST*
G04 #@! TA.AperFunction,ComponentPad*
%ADD10R,1.600000X1.600000*%
G04 #@! TD*
G04 #@! TA.AperFunction,ComponentPad*
%ADD11O,1.600000X1.600000*%
G04 #@! TD*
G04 #@! TA.AperFunction,ComponentPad*
%ADD12C,1.600000*%
G04 #@! TD*
G04 #@! TA.AperFunction,SMDPad,CuDef*
%ADD13R,2.000000X10.000000*%
G04 #@! TD*
G04 #@! TA.AperFunction,ViaPad*
%ADD14C,0.800000*%
G04 #@! TD*
G04 #@! TA.AperFunction,Conductor*
%ADD15C,0.250000*%
G04 #@! TD*
G04 APERTURE END LIST*
D10*
X114607000Y-56145000D03*
D11*
X117147000Y-56145000D03*
X117147000Y-48525000D03*
X114607000Y-48525000D03*
D10*
X106147000Y-82477000D03*
D11*
X106147000Y-85017000D03*
X106147000Y-87557000D03*
X106147000Y-90097000D03*
X106147000Y-92637000D03*
X106147000Y-95177000D03*
X106147000Y-97717000D03*
X98527000Y-97717000D03*
X98527000Y-95177000D03*
X98527000Y-92637000D03*
X98527000Y-90097000D03*
X98527000Y-87557000D03*
X98527000Y-85017000D03*
X98527000Y-82477000D03*
D12*
X99647000Y-77143000D03*
X104647000Y-77143000D03*
X85685000Y-74785000D03*
X80685000Y-74785000D03*
D13*
X55465000Y-139192000D03*
X59425000Y-139192000D03*
X63385000Y-139192000D03*
X67345000Y-139192000D03*
X71305000Y-139192000D03*
X75265000Y-139192000D03*
X79225000Y-139192000D03*
X83185000Y-139192000D03*
X87145000Y-139192000D03*
X91105000Y-139192000D03*
X95065000Y-139192000D03*
X99025000Y-139192000D03*
X110905000Y-139192000D03*
D12*
X100457000Y-65955000D03*
D11*
X100457000Y-58335000D03*
D12*
X104507000Y-65955000D03*
D11*
X104507000Y-58335000D03*
D10*
X90747000Y-79745000D03*
D11*
X90747000Y-82285000D03*
X90747000Y-84825000D03*
X90747000Y-87365000D03*
X90747000Y-89905000D03*
X90747000Y-92445000D03*
X90747000Y-94985000D03*
X90747000Y-97525000D03*
X90747000Y-100065000D03*
X90747000Y-102605000D03*
X90747000Y-105145000D03*
X90747000Y-107685000D03*
X90747000Y-110225000D03*
X90747000Y-112765000D03*
X75507000Y-112765000D03*
X75507000Y-110225000D03*
X75507000Y-107685000D03*
X75507000Y-105145000D03*
X75507000Y-102605000D03*
X75507000Y-100065000D03*
X75507000Y-97525000D03*
X75507000Y-94985000D03*
X75507000Y-92445000D03*
X75507000Y-89905000D03*
X75507000Y-87365000D03*
X75507000Y-84825000D03*
X75507000Y-82285000D03*
X75507000Y-79745000D03*
D14*
X73055100Y-118064800D03*
X92088300Y-114982500D03*
X90189300Y-122797100D03*
X92057000Y-123771800D03*
X95866500Y-95064800D03*
X94876100Y-93696300D03*
X68336500Y-122252200D03*
X56147000Y-123145000D03*
X110905000Y-123145000D03*
D15*
X98527000Y-90097000D02*
X98527000Y-92637000D01*
X98527000Y-92637000D02*
X98527000Y-95177000D01*
X75788400Y-98939700D02*
X75507000Y-98939700D01*
X76632300Y-98095800D02*
X75788400Y-98939700D01*
X76632300Y-96998500D02*
X76632300Y-98095800D01*
X75744100Y-96110300D02*
X76632300Y-96998500D01*
X75507000Y-96110300D02*
X75744100Y-96110300D01*
X75507000Y-94985000D02*
X75507000Y-96110300D01*
X75507000Y-100065000D02*
X75507000Y-98939700D01*
X110267000Y-48525000D02*
X114607000Y-48525000D01*
X100457000Y-58335000D02*
X110267000Y-48525000D01*
X107337000Y-58335000D02*
X117147000Y-48525000D01*
X104507000Y-58335000D02*
X107337000Y-58335000D01*
X75788400Y-81159700D02*
X75507000Y-81159700D01*
X76632300Y-80315800D02*
X75788400Y-81159700D01*
X76632300Y-77244700D02*
X76632300Y-80315800D01*
X94416700Y-59460300D02*
X76632300Y-77244700D01*
X102256400Y-59460300D02*
X94416700Y-59460300D01*
X103381700Y-58335000D02*
X102256400Y-59460300D01*
X104507000Y-58335000D02*
X103381700Y-58335000D01*
X75507000Y-82285000D02*
X75507000Y-81159700D01*
X106147000Y-85017000D02*
X106147000Y-82477000D01*
X106147000Y-92637000D02*
X106147000Y-90097000D01*
X106428400Y-93762300D02*
X106147000Y-93762300D01*
X107272300Y-94606200D02*
X106428400Y-93762300D01*
X107272300Y-125619400D02*
X107272300Y-94606200D01*
X99025000Y-133866700D02*
X107272300Y-125619400D01*
X99025000Y-139192000D02*
X99025000Y-133866700D01*
X106147000Y-92637000D02*
X106147000Y-93762300D01*
X73055100Y-108440900D02*
X73055100Y-118064800D01*
X75225700Y-106270300D02*
X73055100Y-108440900D01*
X75507000Y-106270300D02*
X75225700Y-106270300D01*
X75507000Y-105145000D02*
X75507000Y-106270300D01*
X90747000Y-97525000D02*
X90747000Y-98650300D01*
X92335800Y-114735000D02*
X92088300Y-114982500D01*
X92335800Y-99957800D02*
X92335800Y-114735000D01*
X91028300Y-98650300D02*
X92335800Y-99957800D01*
X90747000Y-98650300D02*
X91028300Y-98650300D01*
X90747000Y-92445000D02*
X90747000Y-93570300D01*
X93272800Y-119713600D02*
X90189300Y-122797100D01*
X93272800Y-95859400D02*
X93272800Y-119713600D01*
X90983700Y-93570300D02*
X93272800Y-95859400D01*
X90747000Y-93570300D02*
X90983700Y-93570300D01*
X90747000Y-87365000D02*
X90747000Y-88490300D01*
X94192800Y-121636000D02*
X92057000Y-123771800D01*
X94192800Y-94795500D02*
X94192800Y-121636000D01*
X93700500Y-94303200D02*
X94192800Y-94795500D01*
X93700500Y-91247400D02*
X93700500Y-94303200D01*
X90943400Y-88490300D02*
X93700500Y-91247400D01*
X90747000Y-88490300D02*
X90943400Y-88490300D01*
X95866500Y-133065200D02*
X95065000Y-133866700D01*
X95866500Y-95064800D02*
X95866500Y-133065200D01*
X95065000Y-139192000D02*
X95065000Y-133866700D01*
X91105000Y-128127000D02*
X91105000Y-139192000D01*
X95093500Y-124138500D02*
X91105000Y-128127000D01*
X95093500Y-93913700D02*
X95093500Y-124138500D01*
X94876100Y-93696300D02*
X95093500Y-93913700D01*
X90747000Y-84825000D02*
X90747000Y-85950300D01*
X87145000Y-130201300D02*
X87145000Y-139192000D01*
X94643100Y-122703200D02*
X87145000Y-130201300D01*
X94643100Y-94489000D02*
X94643100Y-122703200D01*
X94150800Y-93996700D02*
X94643100Y-94489000D01*
X94150800Y-89171400D02*
X94150800Y-93996700D01*
X90929700Y-85950300D02*
X94150800Y-89171400D01*
X90747000Y-85950300D02*
X90929700Y-85950300D01*
X90747000Y-89905000D02*
X90747000Y-91030300D01*
X83185000Y-131015400D02*
X83185000Y-139192000D01*
X93742400Y-120458000D02*
X83185000Y-131015400D01*
X93742400Y-95111700D02*
X93742400Y-120458000D01*
X91872300Y-93241600D02*
X93742400Y-95111700D01*
X91872300Y-91874200D02*
X91872300Y-93241600D01*
X91028400Y-91030300D02*
X91872300Y-91874200D01*
X90747000Y-91030300D02*
X91028400Y-91030300D01*
X90747000Y-94985000D02*
X90747000Y-96110300D01*
X79225000Y-131549400D02*
X79225000Y-139192000D01*
X92818100Y-117956300D02*
X79225000Y-131549400D01*
X92818100Y-97900100D02*
X92818100Y-117956300D01*
X91028300Y-96110300D02*
X92818100Y-97900100D01*
X90747000Y-96110300D02*
X91028300Y-96110300D01*
X90747000Y-100065000D02*
X90747000Y-101190300D01*
X75265000Y-139192000D02*
X75265000Y-133866700D01*
X77899600Y-131232100D02*
X75265000Y-133866700D01*
X77899600Y-127901100D02*
X77899600Y-131232100D01*
X91885500Y-113915200D02*
X77899600Y-127901100D01*
X91885500Y-102047500D02*
X91885500Y-113915200D01*
X91028300Y-101190300D02*
X91885500Y-102047500D01*
X90747000Y-101190300D02*
X91028300Y-101190300D01*
X75507000Y-102605000D02*
X75507000Y-103730300D01*
X71305000Y-139192000D02*
X71305000Y-133866700D01*
X77096800Y-128074900D02*
X71305000Y-133866700D01*
X77096800Y-105038700D02*
X77096800Y-128074900D01*
X75788400Y-103730300D02*
X77096800Y-105038700D01*
X75507000Y-103730300D02*
X75788400Y-103730300D01*
X75507000Y-107685000D02*
X75507000Y-108810300D01*
X75699800Y-108810300D02*
X75507000Y-108810300D01*
X76632300Y-109742800D02*
X75699800Y-108810300D01*
X76632300Y-116150300D02*
X76632300Y-109742800D01*
X67345000Y-125437600D02*
X76632300Y-116150300D01*
X67345000Y-139192000D02*
X67345000Y-125437600D01*
X75507000Y-112765000D02*
X75507000Y-113890300D01*
X75507000Y-116638700D02*
X75507000Y-113890300D01*
X63385000Y-128760700D02*
X75507000Y-116638700D01*
X63385000Y-139192000D02*
X63385000Y-128760700D01*
X59425000Y-131163700D02*
X59425000Y-139192000D01*
X68336500Y-122252200D02*
X59425000Y-131163700D01*
X97289000Y-74785000D02*
X99647000Y-77143000D01*
X85685000Y-74785000D02*
X97289000Y-74785000D01*
X99647000Y-81357000D02*
X98527000Y-82477000D01*
X99647000Y-77143000D02*
X99647000Y-81357000D01*
X55465000Y-123827000D02*
X56147000Y-123145000D01*
X55465000Y-139192000D02*
X55465000Y-123827000D01*
X100457000Y-65955000D02*
X104507000Y-65955000D01*
X104507000Y-65955000D02*
X104507000Y-77003000D01*
X83147000Y-72323000D02*
X80685000Y-74785000D01*
X83147000Y-72145000D02*
X83147000Y-72323000D01*
X99649000Y-72145000D02*
X83147000Y-72145000D01*
X104507000Y-77003000D02*
X99649000Y-72145000D01*
X109145000Y-77143000D02*
X104647000Y-77143000D01*
X110905000Y-78903000D02*
X109145000Y-77143000D01*
X110905000Y-123145000D02*
X110905000Y-78903000D01*
X110905000Y-139192000D02*
X110905000Y-123145000D01*
X103719000Y-97717000D02*
X106147000Y-97717000D01*
X102147000Y-96145000D02*
X103719000Y-97717000D01*
X102147000Y-79643000D02*
X102147000Y-96145000D01*
X104647000Y-77143000D02*
X102147000Y-79643000D01*
X104507000Y-77003000D02*
X104647000Y-77143000D01*
X80685000Y-111683000D02*
X80685000Y-74785000D01*
X81767000Y-112765000D02*
X80685000Y-111683000D01*
X90747000Y-112765000D02*
X81767000Y-112765000D01*
X104647000Y-77143000D02*
X104507000Y-77003000D01*
M02*
