G04 #@! TF.GenerationSoftware,KiCad,Pcbnew,7.0.10*
G04 #@! TF.CreationDate,2024-02-18T10:04:44+01:00*
G04 #@! TF.ProjectId,multicartridge-w27c512,6d756c74-6963-4617-9274-72696467652d,rev?*
G04 #@! TF.SameCoordinates,Original*
G04 #@! TF.FileFunction,Copper,L2,Bot*
G04 #@! TF.FilePolarity,Positive*
%FSLAX46Y46*%
G04 Gerber Fmt 4.6, Leading zero omitted, Abs format (unit mm)*
G04 Created by KiCad (PCBNEW 7.0.10) date 2024-02-18 10:04:44*
%MOMM*%
%LPD*%
G01*
G04 APERTURE LIST*
G04 #@! TA.AperFunction,ComponentPad*
%ADD10R,1.600000X1.600000*%
G04 #@! TD*
G04 #@! TA.AperFunction,ComponentPad*
%ADD11O,1.600000X1.600000*%
G04 #@! TD*
G04 #@! TA.AperFunction,ComponentPad*
%ADD12C,1.600000*%
G04 #@! TD*
G04 #@! TA.AperFunction,SMDPad,CuDef*
%ADD13R,2.000000X10.000000*%
G04 #@! TD*
G04 #@! TA.AperFunction,ViaPad*
%ADD14C,0.800000*%
G04 #@! TD*
G04 #@! TA.AperFunction,Conductor*
%ADD15C,0.250000*%
G04 #@! TD*
G04 APERTURE END LIST*
D10*
X114607000Y-56145000D03*
D11*
X117147000Y-56145000D03*
X117147000Y-48525000D03*
X114607000Y-48525000D03*
D10*
X106147000Y-82477000D03*
D11*
X106147000Y-85017000D03*
X106147000Y-87557000D03*
X106147000Y-90097000D03*
X106147000Y-92637000D03*
X106147000Y-95177000D03*
X106147000Y-97717000D03*
X98527000Y-97717000D03*
X98527000Y-95177000D03*
X98527000Y-92637000D03*
X98527000Y-90097000D03*
X98527000Y-87557000D03*
X98527000Y-85017000D03*
X98527000Y-82477000D03*
D12*
X99647000Y-77143000D03*
X104647000Y-77143000D03*
X85685000Y-74785000D03*
X80685000Y-74785000D03*
D13*
X55465000Y-139192000D03*
X59425000Y-139192000D03*
X63385000Y-139192000D03*
X67345000Y-139192000D03*
X71305000Y-139192000D03*
X75265000Y-139192000D03*
X79225000Y-139192000D03*
X83185000Y-139192000D03*
X87145000Y-139192000D03*
X91105000Y-139192000D03*
X95065000Y-139192000D03*
X99025000Y-139192000D03*
X102985000Y-139192000D03*
X110905000Y-139192000D03*
D12*
X100457000Y-65955000D03*
D11*
X100457000Y-58335000D03*
D12*
X104507000Y-65955000D03*
D11*
X104507000Y-58335000D03*
D10*
X90747000Y-79745000D03*
D11*
X90747000Y-82285000D03*
X90747000Y-84825000D03*
X90747000Y-87365000D03*
X90747000Y-89905000D03*
X90747000Y-92445000D03*
X90747000Y-94985000D03*
X90747000Y-97525000D03*
X90747000Y-100065000D03*
X90747000Y-102605000D03*
X90747000Y-105145000D03*
X90747000Y-107685000D03*
X90747000Y-110225000D03*
X90747000Y-112765000D03*
X75507000Y-112765000D03*
X75507000Y-110225000D03*
X75507000Y-107685000D03*
X75507000Y-105145000D03*
X75507000Y-102605000D03*
X75507000Y-100065000D03*
X75507000Y-97525000D03*
X75507000Y-94985000D03*
X75507000Y-92445000D03*
X75507000Y-89905000D03*
X75507000Y-87365000D03*
X75507000Y-84825000D03*
X75507000Y-82285000D03*
X75507000Y-79745000D03*
D14*
X73055100Y-118064800D03*
X92088300Y-114982500D03*
X90189300Y-122797100D03*
X92057000Y-123771800D03*
X95866500Y-95064800D03*
X94876100Y-93696300D03*
X68336500Y-122252200D03*
X56147000Y-123145000D03*
X110905000Y-123145000D03*
D15*
X95795000Y-96110300D02*
X97401700Y-97717000D01*
X77757600Y-96110300D02*
X95795000Y-96110300D01*
X76632300Y-94985000D02*
X77757600Y-96110300D01*
X75507000Y-94985000D02*
X76632300Y-94985000D01*
X98527000Y-97717000D02*
X97401700Y-97717000D01*
X101211700Y-91367000D02*
X105021700Y-95177000D01*
X96388000Y-91367000D02*
X101211700Y-91367000D01*
X90971300Y-85950300D02*
X96388000Y-91367000D01*
X77757600Y-85950300D02*
X90971300Y-85950300D01*
X76632300Y-84825000D02*
X77757600Y-85950300D01*
X75507000Y-84825000D02*
X76632300Y-84825000D01*
X106147000Y-95177000D02*
X105021700Y-95177000D01*
X90747000Y-69170300D02*
X90747000Y-79745000D01*
X100457000Y-59460300D02*
X90747000Y-69170300D01*
X100457000Y-58335000D02*
X100457000Y-59460300D01*
X106428400Y-86142300D02*
X106147000Y-86142300D01*
X107272300Y-86986200D02*
X106428400Y-86142300D01*
X107272300Y-125619400D02*
X107272300Y-86986200D01*
X99025000Y-133866700D02*
X107272300Y-125619400D01*
X99025000Y-139192000D02*
X99025000Y-133866700D01*
X106147000Y-85017000D02*
X106147000Y-86142300D01*
X99941700Y-85017000D02*
X105021700Y-90097000D01*
X98527000Y-85017000D02*
X99941700Y-85017000D01*
X106147000Y-90097000D02*
X105021700Y-90097000D01*
X95288800Y-87557000D02*
X98527000Y-87557000D01*
X91286800Y-83555000D02*
X95288800Y-87557000D01*
X90390400Y-83555000D02*
X91286800Y-83555000D01*
X89580500Y-82745100D02*
X90390400Y-83555000D01*
X89580500Y-81857300D02*
X89580500Y-82745100D01*
X90331600Y-81106200D02*
X89580500Y-81857300D01*
X102525400Y-81106200D02*
X90331600Y-81106200D01*
X105021600Y-83602400D02*
X102525400Y-81106200D01*
X106368200Y-83602400D02*
X105021600Y-83602400D01*
X107740100Y-84974300D02*
X106368200Y-83602400D01*
X107740100Y-129111600D02*
X107740100Y-84974300D01*
X102985000Y-133866700D02*
X107740100Y-129111600D01*
X102985000Y-139192000D02*
X102985000Y-133866700D01*
X90747000Y-105145000D02*
X89621700Y-105145000D01*
X59425000Y-122109600D02*
X59425000Y-139192000D01*
X75264300Y-106270300D02*
X59425000Y-122109600D01*
X87859600Y-106270300D02*
X75264300Y-106270300D01*
X88984900Y-105145000D02*
X87859600Y-106270300D01*
X89621700Y-105145000D02*
X88984900Y-105145000D01*
X63385000Y-120698600D02*
X63385000Y-139192000D01*
X75128600Y-108955000D02*
X63385000Y-120698600D01*
X77580500Y-108955000D02*
X75128600Y-108955000D01*
X79717200Y-106818300D02*
X77580500Y-108955000D01*
X88266700Y-106818300D02*
X79717200Y-106818300D01*
X88533300Y-106551700D02*
X88266700Y-106818300D01*
X91242400Y-106551700D02*
X88533300Y-106551700D01*
X91913800Y-107223100D02*
X91242400Y-106551700D01*
X91913800Y-108177400D02*
X91913800Y-107223100D01*
X90991500Y-109099700D02*
X91913800Y-108177400D01*
X90747000Y-109099700D02*
X90991500Y-109099700D01*
X90747000Y-110225000D02*
X90747000Y-109099700D01*
X67345000Y-119231000D02*
X67345000Y-139192000D01*
X75225700Y-111350300D02*
X67345000Y-119231000D01*
X75507000Y-111350300D02*
X75225700Y-111350300D01*
X75507000Y-110225000D02*
X75507000Y-111350300D01*
X73055100Y-132116600D02*
X71305000Y-133866700D01*
X73055100Y-118064800D02*
X73055100Y-132116600D01*
X71305000Y-139192000D02*
X71305000Y-133866700D01*
X75265000Y-130612500D02*
X75265000Y-139192000D01*
X92364100Y-113513400D02*
X75265000Y-130612500D01*
X92364100Y-105066100D02*
X92364100Y-113513400D01*
X91028300Y-103730300D02*
X92364100Y-105066100D01*
X90747000Y-103730300D02*
X91028300Y-103730300D01*
X90747000Y-102605000D02*
X90747000Y-103730300D01*
X79225000Y-127845800D02*
X92088300Y-114982500D01*
X79225000Y-139192000D02*
X79225000Y-127845800D01*
X83185000Y-129801400D02*
X83185000Y-139192000D01*
X90189300Y-122797100D02*
X83185000Y-129801400D01*
X87145000Y-128683800D02*
X92057000Y-123771800D01*
X87145000Y-139192000D02*
X87145000Y-128683800D01*
X75507000Y-87365000D02*
X75507000Y-88490300D01*
X91105000Y-139192000D02*
X91105000Y-133866700D01*
X75225700Y-88490300D02*
X75507000Y-88490300D01*
X74353400Y-89362600D02*
X75225700Y-88490300D01*
X74353400Y-97998400D02*
X74353400Y-89362600D01*
X75150000Y-98795000D02*
X74353400Y-97998400D01*
X85593600Y-98795000D02*
X75150000Y-98795000D01*
X88133600Y-101335000D02*
X85593600Y-98795000D01*
X91084800Y-101335000D02*
X88133600Y-101335000D01*
X92823200Y-103073400D02*
X91084800Y-101335000D01*
X92823200Y-132148500D02*
X92823200Y-103073400D01*
X91105000Y-133866700D02*
X92823200Y-132148500D01*
X95065000Y-102759000D02*
X95065000Y-133866700D01*
X91101000Y-98795000D02*
X95065000Y-102759000D01*
X86307300Y-98795000D02*
X91101000Y-98795000D01*
X85037300Y-97525000D02*
X86307300Y-98795000D01*
X75507000Y-97525000D02*
X85037300Y-97525000D01*
X95065000Y-139192000D02*
X95065000Y-133866700D01*
X93286900Y-83699600D02*
X91872300Y-82285000D01*
X101164300Y-83699600D02*
X93286900Y-83699600D01*
X105021700Y-87557000D02*
X101164300Y-83699600D01*
X106147000Y-87557000D02*
X105021700Y-87557000D01*
X90747000Y-82285000D02*
X91872300Y-82285000D01*
X95067900Y-95064800D02*
X95866500Y-95064800D01*
X93573400Y-93570300D02*
X95067900Y-95064800D01*
X77757600Y-93570300D02*
X93573400Y-93570300D01*
X76632300Y-92445000D02*
X77757600Y-93570300D01*
X75507000Y-92445000D02*
X76632300Y-92445000D01*
X92210100Y-91030300D02*
X94876100Y-93696300D01*
X77757600Y-91030300D02*
X92210100Y-91030300D01*
X76632300Y-89905000D02*
X77757600Y-91030300D01*
X75507000Y-89905000D02*
X76632300Y-89905000D01*
X90747000Y-107685000D02*
X89621700Y-107685000D01*
X82408700Y-107685000D02*
X89621700Y-107685000D01*
X68336500Y-121757200D02*
X82408700Y-107685000D01*
X68336500Y-122252200D02*
X68336500Y-121757200D01*
X83547000Y-79745000D02*
X75507000Y-79745000D01*
X85685000Y-77607000D02*
X83547000Y-79745000D01*
X85685000Y-74785000D02*
X85685000Y-77607000D01*
X114607000Y-68685000D02*
X114607000Y-56145000D01*
X112147000Y-71145000D02*
X114607000Y-68685000D01*
X105645000Y-71145000D02*
X112147000Y-71145000D01*
X99647000Y-77143000D02*
X105645000Y-71145000D01*
X114607000Y-56145000D02*
X117147000Y-56145000D01*
X85685000Y-73683000D02*
X85685000Y-74785000D01*
X84147000Y-72145000D02*
X85685000Y-73683000D01*
X63147000Y-72145000D02*
X84147000Y-72145000D01*
X61147000Y-74145000D02*
X63147000Y-72145000D01*
X61147000Y-118145000D02*
X61147000Y-74145000D01*
X56147000Y-123145000D02*
X61147000Y-118145000D01*
X110905000Y-139192000D02*
X110905000Y-123145000D01*
M02*
