M48
; DRILL file {KiCad 7.0.10} date Fri Mar  1 16:35:16 2024
; FORMAT={-:-/ absolute / inch / decimal}
; #@! TF.CreationDate,2024-03-01T16:35:16+01:00
; #@! TF.GenerationSoftware,Kicad,Pcbnew,7.0.10
; #@! TF.FileFunction,Plated,1,2,PTH
FMAT,2
INCH
; #@! TA.AperFunction,Plated,PTH,ViaDrill
T1C0.0157
; #@! TA.AperFunction,Plated,PTH,ComponentDrill
T2C0.0315
%
G90
G05
T1
X2.2105Y-4.8482
X2.6904Y-4.8131
X2.8762Y-4.6482
X3.5508Y-4.8345
X3.6243Y-4.8729
X3.6255Y-4.5269
X3.7353Y-3.6888
X3.7743Y-3.7427
X4.3663Y-4.8482
T2
X2.9727Y-3.1396
X2.9727Y-3.2396
X2.9727Y-3.3396
X2.9727Y-3.4396
X2.9727Y-3.5396
X2.9727Y-3.6396
X2.9727Y-3.7396
X2.9727Y-3.8396
X2.9727Y-3.9396
X2.9727Y-4.0396
X2.9727Y-4.1396
X2.9727Y-4.2396
X2.9727Y-4.3396
X2.9727Y-4.4396
X3.1766Y-2.9443
X3.3734Y-2.9443
X3.5727Y-3.1396
X3.5727Y-3.2396
X3.5727Y-3.3396
X3.5727Y-3.4396
X3.5727Y-3.5396
X3.5727Y-3.6396
X3.5727Y-3.7396
X3.5727Y-3.8396
X3.5727Y-3.9396
X3.5727Y-4.0396
X3.5727Y-4.1396
X3.5727Y-4.2396
X3.5727Y-4.3396
X3.5727Y-4.4396
X3.879Y-3.2471
X3.879Y-3.3471
X3.879Y-3.4471
X3.879Y-3.5471
X3.879Y-3.6471
X3.879Y-3.7471
X3.879Y-3.8471
X3.9231Y-3.0371
X3.955Y-2.2967
X3.955Y-2.5967
X4.1144Y-2.2967
X4.1144Y-2.5967
X4.12Y-3.0371
X4.179Y-3.2471
X4.179Y-3.3471
X4.179Y-3.4471
X4.179Y-3.5471
X4.179Y-3.6471
X4.179Y-3.7471
X4.179Y-3.8471
X4.5121Y-1.9104
X4.5121Y-2.2104
X4.6121Y-1.9104
X4.6121Y-2.2104
M30
