G04 #@! TF.GenerationSoftware,KiCad,Pcbnew,8.0.2*
G04 #@! TF.CreationDate,2025-01-06T21:48:35+01:00*
G04 #@! TF.ProjectId,multicartridge-smd-top-dipswitch,6d756c74-6963-4617-9274-72696467652d,rev?*
G04 #@! TF.SameCoordinates,Original*
G04 #@! TF.FileFunction,Copper,L2,Bot*
G04 #@! TF.FilePolarity,Positive*
%FSLAX46Y46*%
G04 Gerber Fmt 4.6, Leading zero omitted, Abs format (unit mm)*
G04 Created by KiCad (PCBNEW 8.0.2) date 2025-01-06 21:48:35*
%MOMM*%
%LPD*%
G01*
G04 APERTURE LIST*
G04 Aperture macros list*
%AMRoundRect*
0 Rectangle with rounded corners*
0 $1 Rounding radius*
0 $2 $3 $4 $5 $6 $7 $8 $9 X,Y pos of 4 corners*
0 Add a 4 corners polygon primitive as box body*
4,1,4,$2,$3,$4,$5,$6,$7,$8,$9,$2,$3,0*
0 Add four circle primitives for the rounded corners*
1,1,$1+$1,$2,$3*
1,1,$1+$1,$4,$5*
1,1,$1+$1,$6,$7*
1,1,$1+$1,$8,$9*
0 Add four rect primitives between the rounded corners*
20,1,$1+$1,$2,$3,$4,$5,0*
20,1,$1+$1,$4,$5,$6,$7,0*
20,1,$1+$1,$6,$7,$8,$9,0*
20,1,$1+$1,$8,$9,$2,$3,0*%
G04 Aperture macros list end*
G04 #@! TA.AperFunction,SMDPad,CuDef*
%ADD10RoundRect,0.250000X-0.650000X0.412500X-0.650000X-0.412500X0.650000X-0.412500X0.650000X0.412500X0*%
G04 #@! TD*
G04 #@! TA.AperFunction,SMDPad,CuDef*
%ADD11RoundRect,0.250000X-0.475000X0.337500X-0.475000X-0.337500X0.475000X-0.337500X0.475000X0.337500X0*%
G04 #@! TD*
G04 #@! TA.AperFunction,SMDPad,CuDef*
%ADD12RoundRect,0.150000X0.825000X0.150000X-0.825000X0.150000X-0.825000X-0.150000X0.825000X-0.150000X0*%
G04 #@! TD*
G04 #@! TA.AperFunction,SMDPad,CuDef*
%ADD13RoundRect,0.250000X0.450000X-0.350000X0.450000X0.350000X-0.450000X0.350000X-0.450000X-0.350000X0*%
G04 #@! TD*
G04 #@! TA.AperFunction,SMDPad,CuDef*
%ADD14RoundRect,0.250000X-0.450000X0.350000X-0.450000X-0.350000X0.450000X-0.350000X0.450000X0.350000X0*%
G04 #@! TD*
G04 #@! TA.AperFunction,SMDPad,CuDef*
%ADD15RoundRect,0.250000X-0.337500X-0.475000X0.337500X-0.475000X0.337500X0.475000X-0.337500X0.475000X0*%
G04 #@! TD*
G04 #@! TA.AperFunction,SMDPad,CuDef*
%ADD16RoundRect,0.250000X0.337500X0.475000X-0.337500X0.475000X-0.337500X-0.475000X0.337500X-0.475000X0*%
G04 #@! TD*
G04 #@! TA.AperFunction,ComponentPad*
%ADD17C,2.000000*%
G04 #@! TD*
G04 #@! TA.AperFunction,ComponentPad*
%ADD18C,1.500000*%
G04 #@! TD*
G04 #@! TA.AperFunction,ComponentPad*
%ADD19R,1.700000X1.700000*%
G04 #@! TD*
G04 #@! TA.AperFunction,ComponentPad*
%ADD20O,1.700000X1.700000*%
G04 #@! TD*
G04 #@! TA.AperFunction,ComponentPad*
%ADD21R,1.422400X1.422400*%
G04 #@! TD*
G04 #@! TA.AperFunction,ComponentPad*
%ADD22C,1.422400*%
G04 #@! TD*
G04 #@! TA.AperFunction,SMDPad,CuDef*
%ADD23R,2.000000X10.000000*%
G04 #@! TD*
G04 #@! TA.AperFunction,ViaPad*
%ADD24C,0.800000*%
G04 #@! TD*
G04 #@! TA.AperFunction,Conductor*
%ADD25C,0.250000*%
G04 #@! TD*
G04 APERTURE END LIST*
D10*
X106934000Y-84709000D03*
X106934000Y-87834000D03*
D11*
X117856000Y-89894500D03*
X117856000Y-91969500D03*
D12*
X102108000Y-85090000D03*
X102108000Y-86360000D03*
X102108000Y-87630000D03*
X102108000Y-88900000D03*
X102108000Y-90170000D03*
X102108000Y-91440000D03*
X102108000Y-92710000D03*
X97158000Y-92710000D03*
X97158000Y-91440000D03*
X97158000Y-90170000D03*
X97158000Y-88900000D03*
X97158000Y-87630000D03*
X97158000Y-86360000D03*
X97158000Y-85090000D03*
X114935000Y-83820000D03*
X114935000Y-85090000D03*
X114935000Y-86360000D03*
X114935000Y-87630000D03*
X114935000Y-88900000D03*
X114935000Y-90170000D03*
X114935000Y-91440000D03*
X114935000Y-92710000D03*
X109985000Y-92710000D03*
X109985000Y-91440000D03*
X109985000Y-90170000D03*
X109985000Y-88900000D03*
X109985000Y-87630000D03*
X109985000Y-86360000D03*
X109985000Y-85090000D03*
X109985000Y-83820000D03*
D13*
X101092000Y-73009000D03*
X101092000Y-71009000D03*
X103632000Y-73009000D03*
X103632000Y-71009000D03*
X106172000Y-73009000D03*
X106172000Y-71009000D03*
X108712000Y-73009000D03*
X108712000Y-71009000D03*
X111252000Y-73009000D03*
X111252000Y-71009000D03*
D14*
X117856000Y-95504000D03*
X117856000Y-97504000D03*
X106934000Y-80772000D03*
X106934000Y-82772000D03*
D13*
X117856000Y-85598000D03*
X117856000Y-83598000D03*
D15*
X98636000Y-81407000D03*
X100711000Y-81407000D03*
X111336000Y-80137000D03*
X113411000Y-80137000D03*
D16*
X84074000Y-80772000D03*
X81999000Y-80772000D03*
D17*
X48747000Y-52345000D03*
X55247000Y-52345000D03*
X48747000Y-56845000D03*
X55247000Y-56845000D03*
D18*
X47498000Y-81661000D03*
X47498000Y-88370000D03*
X53445000Y-88370000D03*
X53467000Y-81407000D03*
D19*
X113792000Y-61849000D03*
D20*
X111252000Y-61849000D03*
X108712000Y-61849000D03*
X106172000Y-61849000D03*
X103632000Y-61849000D03*
X101092000Y-61849000D03*
D21*
X81915000Y-90170000D03*
D22*
X84455000Y-87630000D03*
X84455000Y-90170000D03*
X86995000Y-87630000D03*
X89535000Y-90170000D03*
X86995000Y-90170000D03*
X89535000Y-92710000D03*
X86995000Y-92710000D03*
X89535000Y-95250000D03*
X86995000Y-95250000D03*
X89535000Y-97790000D03*
X86995000Y-97790000D03*
X89535000Y-100330000D03*
X86995000Y-102870000D03*
X86995000Y-100330000D03*
X84455000Y-102870000D03*
X84455000Y-100330000D03*
X81915000Y-102870000D03*
X81915000Y-100330000D03*
X79375000Y-102870000D03*
X76835000Y-100330000D03*
X79375000Y-100330000D03*
X76835000Y-97790000D03*
X79375000Y-97790000D03*
X76835000Y-95250000D03*
X79375000Y-95250000D03*
X76835000Y-92710000D03*
X79375000Y-92710000D03*
X76835000Y-90170000D03*
X79375000Y-87630000D03*
X79375000Y-90170000D03*
X81915000Y-87630000D03*
D23*
X55465000Y-139192000D03*
X59425000Y-139192000D03*
X63385000Y-139192000D03*
X67345000Y-139192000D03*
X71305000Y-139192000D03*
X75265000Y-139192000D03*
X79225000Y-139192000D03*
X83185000Y-139192000D03*
X87145000Y-139192000D03*
X91105000Y-139192000D03*
X95065000Y-139192000D03*
X99025000Y-139192000D03*
X102985000Y-139192000D03*
X110905000Y-139192000D03*
D24*
X105664000Y-90678000D03*
X105664000Y-89191000D03*
X104013000Y-87630000D03*
X93790300Y-93746400D03*
X91341200Y-81228500D03*
X99985700Y-85484400D03*
X99985700Y-125847100D03*
X98701100Y-92065800D03*
X73277600Y-120014300D03*
X74010500Y-116935100D03*
X92175800Y-92956300D03*
X94060800Y-125810200D03*
X87904600Y-113840500D03*
X85668100Y-111660400D03*
X80780200Y-112956100D03*
X67345000Y-111953400D03*
X53721000Y-123698000D03*
X115951000Y-97536000D03*
X113284000Y-90170000D03*
X111760000Y-90170000D03*
X116586000Y-80137000D03*
X112268000Y-123317000D03*
X104902000Y-80645000D03*
X106172000Y-75946000D03*
X103886000Y-92710000D03*
X108458000Y-92710000D03*
X100711000Y-82931000D03*
X100711000Y-92710000D03*
D25*
X106934000Y-82772000D02*
X106934000Y-84709000D01*
X107950000Y-80772000D02*
X106934000Y-80772000D01*
X108331000Y-80899000D02*
X108077000Y-80899000D01*
X108077000Y-80899000D02*
X107950000Y-80772000D01*
X108458000Y-81026000D02*
X108331000Y-80899000D01*
X108712000Y-83820000D02*
X108458000Y-83566000D01*
X108458000Y-83566000D02*
X108458000Y-81026000D01*
X109985000Y-83820000D02*
X108712000Y-83820000D01*
X108458000Y-84709000D02*
X106934000Y-84709000D01*
X108839000Y-85090000D02*
X108458000Y-84709000D01*
X109985000Y-85090000D02*
X108839000Y-85090000D01*
X99187000Y-79756000D02*
X98636000Y-80307000D01*
X98636000Y-80307000D02*
X98636000Y-81407000D01*
X105791000Y-79756000D02*
X99187000Y-79756000D01*
X106934000Y-80899000D02*
X105791000Y-79756000D01*
X106934000Y-81847000D02*
X106934000Y-80899000D01*
X106426000Y-91440000D02*
X109985000Y-91440000D01*
X105664000Y-90678000D02*
X106426000Y-91440000D01*
X107659000Y-89191000D02*
X105664000Y-89191000D01*
X109220000Y-87630000D02*
X107659000Y-89191000D01*
X109985000Y-87630000D02*
X109220000Y-87630000D01*
X48747000Y-80412000D02*
X47498000Y-81661000D01*
X48747000Y-56845000D02*
X48747000Y-80412000D01*
X48747000Y-56845000D02*
X55247000Y-56845000D01*
X117856000Y-60325000D02*
X117856000Y-83598000D01*
X116078000Y-58547000D02*
X117856000Y-60325000D01*
X96520000Y-58547000D02*
X116078000Y-58547000D01*
X94818000Y-56845000D02*
X96520000Y-58547000D01*
X55247000Y-56845000D02*
X94818000Y-56845000D01*
X117634000Y-83820000D02*
X117856000Y-83598000D01*
X114935000Y-83820000D02*
X117634000Y-83820000D01*
X116988000Y-91969500D02*
X117856000Y-91969500D01*
X116459000Y-91440000D02*
X116988000Y-91969500D01*
X114935000Y-91440000D02*
X116459000Y-91440000D01*
X117856000Y-95504000D02*
X117856000Y-91969500D01*
X116608000Y-89894500D02*
X117856000Y-89894500D01*
X116332000Y-90170000D02*
X116608000Y-89894500D01*
X114935000Y-90170000D02*
X116332000Y-90170000D01*
X97158000Y-91440000D02*
X97158000Y-90170000D01*
X97158000Y-90170000D02*
X97158000Y-88900000D01*
X104013000Y-89027000D02*
X104013000Y-87630000D01*
X104902000Y-89916000D02*
X104013000Y-89027000D01*
X107892000Y-89916000D02*
X104902000Y-89916000D01*
X108908000Y-88900000D02*
X107892000Y-89916000D01*
X109985000Y-88900000D02*
X108908000Y-88900000D01*
X55465000Y-128118000D02*
X55465000Y-139192000D01*
X49700100Y-122353100D02*
X55465000Y-128118000D01*
X49700100Y-92114900D02*
X49700100Y-122353100D01*
X53445000Y-88370000D02*
X49700100Y-92114900D01*
X108458000Y-86360000D02*
X109985000Y-86360000D01*
X108204000Y-86614000D02*
X108458000Y-86360000D01*
X108204000Y-87757000D02*
X108204000Y-86614000D01*
X108024000Y-87937500D02*
X108204000Y-87757000D01*
X106934000Y-87937500D02*
X108024000Y-87937500D01*
X93779500Y-92710000D02*
X97158000Y-92710000D01*
X90166000Y-89096500D02*
X93779500Y-92710000D01*
X86548100Y-89096500D02*
X90166000Y-89096500D01*
X85958600Y-89686000D02*
X86548100Y-89096500D01*
X85958600Y-102881200D02*
X85958600Y-89686000D01*
X84932100Y-103907700D02*
X85958600Y-102881200D01*
X84002100Y-103907700D02*
X84932100Y-103907700D01*
X83185000Y-103090600D02*
X84002100Y-103907700D01*
X83185000Y-102664100D02*
X83185000Y-103090600D01*
X82120900Y-101600000D02*
X83185000Y-102664100D01*
X81281700Y-101600000D02*
X82120900Y-101600000D01*
X80011700Y-100330000D02*
X81281700Y-101600000D01*
X79375000Y-100330000D02*
X80011700Y-100330000D01*
X98051000Y-93746400D02*
X93790300Y-93746400D01*
X100357400Y-91440000D02*
X98051000Y-93746400D01*
X102108000Y-91440000D02*
X100357400Y-91440000D01*
X101092000Y-61849000D02*
X101092000Y-71009000D01*
X103632000Y-71009000D02*
X103632000Y-61849000D01*
X102684400Y-71956600D02*
X103632000Y-71009000D01*
X84359600Y-71956600D02*
X102684400Y-71956600D01*
X79375000Y-76941200D02*
X84359600Y-71956600D01*
X79375000Y-87630000D02*
X79375000Y-76941200D01*
X106172000Y-61849000D02*
X106172000Y-71009000D01*
X84455000Y-87035200D02*
X84455000Y-87630000D01*
X94819000Y-76671200D02*
X84455000Y-87035200D01*
X109206500Y-76671200D02*
X94819000Y-76671200D01*
X112303700Y-73574000D02*
X109206500Y-76671200D01*
X112303700Y-72415400D02*
X112303700Y-73574000D01*
X111897300Y-72009000D02*
X112303700Y-72415400D01*
X107172000Y-72009000D02*
X111897300Y-72009000D01*
X106172000Y-71009000D02*
X107172000Y-72009000D01*
X108712000Y-71009000D02*
X108712000Y-61849000D01*
X111252000Y-69005700D02*
X111252000Y-71009000D01*
X111252000Y-61849000D02*
X111252000Y-69005700D01*
X95448300Y-77121400D02*
X91341200Y-81228500D01*
X109393000Y-77121400D02*
X95448300Y-77121400D01*
X112779400Y-73735000D02*
X109393000Y-77121400D01*
X112779400Y-70533100D02*
X112779400Y-73735000D01*
X111252000Y-69005700D02*
X112779400Y-70533100D01*
X102108000Y-85090000D02*
X102108000Y-85392600D01*
X102108000Y-85392600D02*
X102108000Y-86360000D01*
X100077500Y-85392600D02*
X99985700Y-85484400D01*
X102108000Y-85392600D02*
X100077500Y-85392600D01*
X99025000Y-126807800D02*
X99985700Y-125847100D01*
X99025000Y-139192000D02*
X99025000Y-126807800D01*
X102108000Y-88900000D02*
X102108000Y-90170000D01*
X99949000Y-88900000D02*
X102108000Y-88900000D01*
X99568000Y-88519000D02*
X99949000Y-88900000D01*
X99568000Y-87249000D02*
X99568000Y-88519000D01*
X98679000Y-86360000D02*
X99568000Y-87249000D01*
X97158000Y-86360000D02*
X98679000Y-86360000D01*
X96079800Y-92065800D02*
X98701100Y-92065800D01*
X95854700Y-91840700D02*
X96079800Y-92065800D01*
X95854700Y-87206400D02*
X95854700Y-91840700D01*
X96701100Y-86360000D02*
X95854700Y-87206400D01*
X97158000Y-86360000D02*
X96701100Y-86360000D01*
X97892300Y-87630000D02*
X97158000Y-87630000D01*
X101067300Y-90805000D02*
X97892300Y-87630000D01*
X103123000Y-90805000D02*
X101067300Y-90805000D01*
X104652100Y-92334100D02*
X103123000Y-90805000D01*
X104652100Y-132199800D02*
X104652100Y-92334100D01*
X102985000Y-133866900D02*
X104652100Y-132199800D01*
X102985000Y-139192000D02*
X102985000Y-133866900D01*
X59425000Y-139192000D02*
X59425000Y-133866900D01*
X59425000Y-133866900D02*
X73277600Y-120014300D01*
X63385000Y-139192000D02*
X63385000Y-133866900D01*
X74010500Y-123241400D02*
X63385000Y-133866900D01*
X74010500Y-116935100D02*
X74010500Y-123241400D01*
X67345000Y-139192000D02*
X67345000Y-133866900D01*
X80861600Y-101816600D02*
X81915000Y-102870000D01*
X78962800Y-101816600D02*
X80861600Y-101816600D01*
X74735600Y-106043800D02*
X78962800Y-101816600D01*
X74735600Y-126476300D02*
X74735600Y-106043800D01*
X67345000Y-133866900D02*
X74735600Y-126476300D01*
X71305000Y-139192000D02*
X71305000Y-133866900D01*
X75185700Y-107059300D02*
X79375000Y-102870000D01*
X75185700Y-129986200D02*
X75185700Y-107059300D01*
X71305000Y-133866900D02*
X75185700Y-129986200D01*
X76590100Y-132541800D02*
X75265000Y-133866900D01*
X76590100Y-114740600D02*
X76590100Y-132541800D01*
X88036700Y-103294000D02*
X76590100Y-114740600D01*
X88036700Y-98831700D02*
X88036700Y-103294000D01*
X86995000Y-97790000D02*
X88036700Y-98831700D01*
X75265000Y-139192000D02*
X75265000Y-133866900D01*
X79225000Y-139192000D02*
X79225000Y-133866900D01*
X88486900Y-96741900D02*
X86995000Y-95250000D01*
X88486900Y-103850600D02*
X88486900Y-96741900D01*
X79225000Y-113112500D02*
X88486900Y-103850600D01*
X79225000Y-133866900D02*
X79225000Y-113112500D01*
X83185000Y-139192000D02*
X83185000Y-133866900D01*
X83185000Y-113063200D02*
X83185000Y-133866900D01*
X91096200Y-105152000D02*
X83185000Y-113063200D01*
X91096200Y-95305100D02*
X91096200Y-105152000D01*
X89771100Y-93980000D02*
X91096200Y-95305100D01*
X88265000Y-93980000D02*
X89771100Y-93980000D01*
X86995000Y-92710000D02*
X88265000Y-93980000D01*
X87145000Y-139192000D02*
X87145000Y-133866900D01*
X87145000Y-112131000D02*
X87145000Y-133866900D01*
X92105700Y-107170300D02*
X87145000Y-112131000D01*
X92105700Y-94913600D02*
X92105700Y-107170300D01*
X91000600Y-93808500D02*
X92105700Y-94913600D01*
X91000600Y-92668600D02*
X91000600Y-93808500D01*
X89612700Y-91280700D02*
X91000600Y-92668600D01*
X88105700Y-91280700D02*
X89612700Y-91280700D01*
X86995000Y-90170000D02*
X88105700Y-91280700D01*
X93056500Y-131915400D02*
X91105000Y-133866900D01*
X93056500Y-93837000D02*
X93056500Y-131915400D01*
X92175800Y-92956300D02*
X93056500Y-93837000D01*
X91105000Y-139192000D02*
X91105000Y-133866900D01*
X95065000Y-126814400D02*
X95065000Y-139192000D01*
X94060800Y-125810200D02*
X95065000Y-126814400D01*
X101080900Y-87630000D02*
X102108000Y-87630000D01*
X99176000Y-85725100D02*
X101080900Y-87630000D01*
X88899900Y-85725100D02*
X99176000Y-85725100D01*
X86995000Y-87630000D02*
X88899900Y-85725100D01*
X92595200Y-109149900D02*
X87904600Y-113840500D01*
X92595200Y-94766500D02*
X92595200Y-109149900D01*
X91450700Y-93622000D02*
X92595200Y-94766500D01*
X91450700Y-92085700D02*
X91450700Y-93622000D01*
X89535000Y-90170000D02*
X91450700Y-92085700D01*
X91604800Y-105723700D02*
X85668100Y-111660400D01*
X91604800Y-95049300D02*
X91604800Y-105723700D01*
X89535000Y-92979500D02*
X91604800Y-95049300D01*
X89535000Y-92710000D02*
X89535000Y-92979500D01*
X90571400Y-103164900D02*
X80780200Y-112956100D01*
X90571400Y-96286400D02*
X90571400Y-103164900D01*
X89535000Y-95250000D02*
X90571400Y-96286400D01*
X78105000Y-101193400D02*
X67345000Y-111953400D01*
X78105000Y-100079500D02*
X78105000Y-101193400D01*
X78890900Y-99293600D02*
X78105000Y-100079500D01*
X80878600Y-99293600D02*
X78890900Y-99293600D01*
X81915000Y-100330000D02*
X80878600Y-99293600D01*
X77724000Y-88519000D02*
X79375000Y-90170000D01*
X60198000Y-88519000D02*
X77724000Y-88519000D01*
X50165000Y-98552000D02*
X60198000Y-88519000D01*
X50165000Y-120142000D02*
X50165000Y-98552000D01*
X53721000Y-123698000D02*
X50165000Y-120142000D01*
X117824000Y-97536000D02*
X117856000Y-97504000D01*
X115951000Y-97536000D02*
X117824000Y-97536000D01*
X110960000Y-83820000D02*
X109985000Y-83820000D01*
X111760000Y-84620000D02*
X110960000Y-83820000D01*
X111760000Y-90170000D02*
X111760000Y-84620000D01*
X113665000Y-86360000D02*
X114935000Y-86360000D01*
X113284000Y-86741000D02*
X113665000Y-86360000D01*
X113284000Y-90170000D02*
X113284000Y-86741000D01*
X109985000Y-90170000D02*
X111760000Y-90170000D01*
X114935000Y-86360000D02*
X114935000Y-85090000D01*
X117348000Y-85090000D02*
X117856000Y-85598000D01*
X114935000Y-85090000D02*
X117348000Y-85090000D01*
X111336000Y-79545000D02*
X111336000Y-80137000D01*
X113792000Y-77089000D02*
X111336000Y-79545000D01*
X113792000Y-61849000D02*
X113792000Y-77089000D01*
X111125000Y-83820000D02*
X110960000Y-83820000D01*
X111336000Y-83609000D02*
X111125000Y-83820000D01*
X111336000Y-80137000D02*
X111336000Y-83609000D01*
X110960000Y-83820000D02*
X109985000Y-83820000D01*
X98636000Y-84666000D02*
X98636000Y-81407000D01*
X98679000Y-84709000D02*
X98636000Y-84666000D01*
X98298000Y-85090000D02*
X98679000Y-84709000D01*
X97158000Y-85090000D02*
X98298000Y-85090000D01*
X84074000Y-85471000D02*
X82263200Y-87281800D01*
X84074000Y-80772000D02*
X84074000Y-85471000D01*
X82263200Y-87281800D02*
X81915000Y-87630000D01*
X88032900Y-85090000D02*
X97158000Y-85090000D01*
X85725000Y-87397900D02*
X88032900Y-85090000D01*
X85725000Y-87880500D02*
X85725000Y-87397900D01*
X84939100Y-88666400D02*
X85725000Y-87880500D01*
X83647800Y-88666400D02*
X84939100Y-88666400D01*
X82263200Y-87281800D02*
X83647800Y-88666400D01*
X83963000Y-73009000D02*
X101092000Y-73009000D01*
X81999000Y-74973000D02*
X83963000Y-73009000D01*
X81999000Y-80772000D02*
X81999000Y-74973000D01*
X113411000Y-80137000D02*
X116586000Y-80137000D01*
X110905000Y-124680000D02*
X112268000Y-123317000D01*
X110905000Y-139192000D02*
X110905000Y-124680000D01*
X106172000Y-75946000D02*
X106172000Y-73009000D01*
X104140000Y-81407000D02*
X104902000Y-80645000D01*
X100711000Y-81407000D02*
X104140000Y-81407000D01*
X108458000Y-92710000D02*
X109985000Y-92710000D01*
X102108000Y-92710000D02*
X103886000Y-92710000D01*
X100711000Y-92710000D02*
X102108000Y-92710000D01*
X100711000Y-81407000D02*
X100711000Y-82931000D01*
X83418800Y-101834000D02*
X84455000Y-102870000D01*
X83418800Y-98826200D02*
X83418800Y-101834000D01*
X80878800Y-96286200D02*
X83418800Y-98826200D01*
X80878800Y-96286200D02*
X79375000Y-97790000D01*
X48747000Y-52345000D02*
X55247000Y-52345000D01*
X114935000Y-92710000D02*
X112903000Y-92710000D01*
X112903000Y-92710000D02*
X109985000Y-92710000D01*
X112522000Y-92329000D02*
X112903000Y-92710000D01*
X112522000Y-83312000D02*
X112522000Y-92329000D01*
X113411000Y-82423000D02*
X112522000Y-83312000D01*
X113411000Y-80137000D02*
X113411000Y-82423000D01*
X112903000Y-92710000D02*
X114935000Y-92710000D01*
X101092000Y-73009000D02*
X103632000Y-73009000D01*
X103632000Y-73009000D02*
X106172000Y-73009000D01*
X106172000Y-73009000D02*
X108712000Y-73009000D01*
X108712000Y-73009000D02*
X111252000Y-73009000D01*
X80878800Y-81892200D02*
X80878800Y-88900000D01*
X81999000Y-80772000D02*
X80878800Y-81892200D01*
X80878800Y-88900000D02*
X80878800Y-96286200D01*
X78741700Y-88900000D02*
X80878800Y-88900000D01*
X77618200Y-87776500D02*
X78741700Y-88900000D01*
X77340200Y-87776500D02*
X77618200Y-87776500D01*
X76857500Y-87293800D02*
X77340200Y-87776500D01*
X48574200Y-87293800D02*
X76857500Y-87293800D01*
X47498000Y-88370000D02*
X48574200Y-87293800D01*
G04 #@! TA.AperFunction,Conductor*
G36*
X97063621Y-44190502D02*
G01*
X97110114Y-44244158D01*
X97121500Y-44296500D01*
X97121500Y-56155563D01*
X97136436Y-56170499D01*
X97136438Y-56170500D01*
X97157562Y-56170500D01*
X122995500Y-56170500D01*
X123063621Y-56190502D01*
X123110114Y-56244158D01*
X123121500Y-56296500D01*
X123121500Y-65493500D01*
X123101498Y-65561621D01*
X123047842Y-65608114D01*
X122995500Y-65619500D01*
X122937774Y-65619500D01*
X122521106Y-65658110D01*
X122521102Y-65658110D01*
X122521099Y-65658111D01*
X122109778Y-65734999D01*
X122109770Y-65735001D01*
X121707299Y-65849516D01*
X121317106Y-66000676D01*
X120942511Y-66187203D01*
X120586760Y-66407474D01*
X120586745Y-66407484D01*
X120252815Y-66659656D01*
X120252808Y-66659661D01*
X119943569Y-66941569D01*
X119661661Y-67250808D01*
X119661656Y-67250815D01*
X119409484Y-67584745D01*
X119409474Y-67584760D01*
X119189203Y-67940511D01*
X119002676Y-68315106D01*
X118851516Y-68705299D01*
X118736690Y-69108866D01*
X118698809Y-69168912D01*
X118634478Y-69198947D01*
X118564122Y-69189433D01*
X118510078Y-69143392D01*
X118489504Y-69075442D01*
X118489500Y-69074384D01*
X118489500Y-60262607D01*
X118489499Y-60262603D01*
X118465155Y-60140215D01*
X118451168Y-60106447D01*
X118417401Y-60024925D01*
X118348072Y-59921167D01*
X116481833Y-58054929D01*
X116378075Y-57985600D01*
X116262785Y-57937845D01*
X116189086Y-57923185D01*
X116140396Y-57913500D01*
X116140394Y-57913500D01*
X96834594Y-57913500D01*
X96766473Y-57893498D01*
X96745499Y-57876595D01*
X95221835Y-56352931D01*
X95221833Y-56352929D01*
X95118075Y-56283600D01*
X95002785Y-56235845D01*
X94929086Y-56221185D01*
X94880396Y-56211500D01*
X94880394Y-56211500D01*
X56698565Y-56211500D01*
X56630444Y-56191498D01*
X56591134Y-56151337D01*
X56471176Y-55955584D01*
X56471173Y-55955580D01*
X56316969Y-55775030D01*
X56136419Y-55620826D01*
X56136417Y-55620825D01*
X56136416Y-55620824D01*
X55933963Y-55496760D01*
X55714594Y-55405895D01*
X55714592Y-55405894D01*
X55556651Y-55367976D01*
X55483711Y-55350465D01*
X55247000Y-55331835D01*
X55010289Y-55350465D01*
X54779407Y-55405894D01*
X54560038Y-55496759D01*
X54357582Y-55620825D01*
X54357580Y-55620826D01*
X54177030Y-55775030D01*
X54022826Y-55955580D01*
X54022825Y-55955582D01*
X54022824Y-55955584D01*
X53902865Y-56151337D01*
X53850220Y-56198966D01*
X53795435Y-56211500D01*
X50198565Y-56211500D01*
X50130444Y-56191498D01*
X50091134Y-56151337D01*
X49971176Y-55955584D01*
X49971173Y-55955580D01*
X49816969Y-55775030D01*
X49636419Y-55620826D01*
X49636417Y-55620825D01*
X49636416Y-55620824D01*
X49433963Y-55496760D01*
X49214594Y-55405895D01*
X49214592Y-55405894D01*
X49056651Y-55367976D01*
X48983711Y-55350465D01*
X48747000Y-55331835D01*
X48510289Y-55350465D01*
X48279407Y-55405894D01*
X48060038Y-55496759D01*
X47857582Y-55620825D01*
X47857580Y-55620826D01*
X47677030Y-55775030D01*
X47522826Y-55955580D01*
X47522825Y-55955582D01*
X47398759Y-56158038D01*
X47307894Y-56377407D01*
X47252465Y-56608289D01*
X47233835Y-56845000D01*
X47252465Y-57081710D01*
X47307894Y-57312592D01*
X47398759Y-57531961D01*
X47522825Y-57734417D01*
X47522826Y-57734419D01*
X47677030Y-57914969D01*
X47857580Y-58069173D01*
X47857584Y-58069176D01*
X48053337Y-58189134D01*
X48100966Y-58241780D01*
X48113500Y-58296565D01*
X48113500Y-80097405D01*
X48093498Y-80165526D01*
X48076599Y-80186495D01*
X47950153Y-80312942D01*
X47870422Y-80392673D01*
X47808110Y-80426698D01*
X47748718Y-80425284D01*
X47717372Y-80416885D01*
X47498000Y-80397693D01*
X47278629Y-80416885D01*
X47065926Y-80473879D01*
X47065920Y-80473881D01*
X46866346Y-80566944D01*
X46685965Y-80693248D01*
X46685959Y-80693253D01*
X46530253Y-80848959D01*
X46530248Y-80848965D01*
X46403944Y-81029346D01*
X46310881Y-81228920D01*
X46310879Y-81228926D01*
X46263164Y-81407000D01*
X46253885Y-81441629D01*
X46234693Y-81661000D01*
X46253885Y-81880371D01*
X46272100Y-81948348D01*
X46310879Y-82093073D01*
X46310881Y-82093079D01*
X46369618Y-82219042D01*
X46403944Y-82292654D01*
X46461428Y-82374749D01*
X46530251Y-82473038D01*
X46530254Y-82473042D01*
X46685957Y-82628745D01*
X46685961Y-82628748D01*
X46685962Y-82628749D01*
X46866346Y-82755056D01*
X47065924Y-82848120D01*
X47278629Y-82905115D01*
X47498000Y-82924307D01*
X47717371Y-82905115D01*
X47930076Y-82848120D01*
X48129654Y-82755056D01*
X48310038Y-82628749D01*
X48465749Y-82473038D01*
X48592056Y-82292654D01*
X48685120Y-82093076D01*
X48742115Y-81880371D01*
X48761307Y-81661000D01*
X48742115Y-81441629D01*
X48733715Y-81410281D01*
X48733793Y-81407000D01*
X52203693Y-81407000D01*
X52222885Y-81626371D01*
X52246781Y-81715550D01*
X52279879Y-81839073D01*
X52279881Y-81839079D01*
X52364067Y-82019617D01*
X52372944Y-82038654D01*
X52454134Y-82154604D01*
X52499251Y-82219038D01*
X52499254Y-82219042D01*
X52654957Y-82374745D01*
X52654961Y-82374748D01*
X52654962Y-82374749D01*
X52835346Y-82501056D01*
X53034924Y-82594120D01*
X53247629Y-82651115D01*
X53467000Y-82670307D01*
X53686371Y-82651115D01*
X53899076Y-82594120D01*
X54098654Y-82501056D01*
X54279038Y-82374749D01*
X54434749Y-82219038D01*
X54561056Y-82038654D01*
X54654120Y-81839076D01*
X54711115Y-81626371D01*
X54730307Y-81407000D01*
X54711115Y-81187629D01*
X54654120Y-80974924D01*
X54561056Y-80775347D01*
X54434749Y-80594962D01*
X54279038Y-80439251D01*
X54098654Y-80312944D01*
X54098650Y-80312942D01*
X53899079Y-80219881D01*
X53899073Y-80219879D01*
X53809178Y-80195791D01*
X53686371Y-80162885D01*
X53467000Y-80143693D01*
X53247629Y-80162885D01*
X53034926Y-80219879D01*
X53034920Y-80219881D01*
X52835346Y-80312944D01*
X52654965Y-80439248D01*
X52654959Y-80439253D01*
X52499253Y-80594959D01*
X52499248Y-80594965D01*
X52372944Y-80775346D01*
X52279881Y-80974920D01*
X52279879Y-80974926D01*
X52251684Y-81080150D01*
X52222885Y-81187629D01*
X52203693Y-81407000D01*
X48733793Y-81407000D01*
X48735403Y-81339311D01*
X48766324Y-81288579D01*
X49239072Y-80815833D01*
X49308401Y-80712075D01*
X49356155Y-80596784D01*
X49356518Y-80594962D01*
X49380500Y-80474394D01*
X49380500Y-58296565D01*
X49400502Y-58228444D01*
X49440662Y-58189134D01*
X49636416Y-58069176D01*
X49816969Y-57914969D01*
X49971176Y-57734416D01*
X50091134Y-57538662D01*
X50143780Y-57491034D01*
X50198565Y-57478500D01*
X53795435Y-57478500D01*
X53863556Y-57498502D01*
X53902865Y-57538662D01*
X54022824Y-57734416D01*
X54022825Y-57734417D01*
X54022826Y-57734419D01*
X54177030Y-57914969D01*
X54357580Y-58069173D01*
X54357584Y-58069176D01*
X54560037Y-58193240D01*
X54779406Y-58284105D01*
X55010289Y-58339535D01*
X55247000Y-58358165D01*
X55483711Y-58339535D01*
X55714594Y-58284105D01*
X55933963Y-58193240D01*
X56136416Y-58069176D01*
X56316969Y-57914969D01*
X56471176Y-57734416D01*
X56591134Y-57538662D01*
X56643780Y-57491034D01*
X56698565Y-57478500D01*
X94503406Y-57478500D01*
X94571527Y-57498502D01*
X94592501Y-57515405D01*
X96027929Y-58950833D01*
X96116167Y-59039071D01*
X96219925Y-59108400D01*
X96335215Y-59156155D01*
X96457606Y-59180500D01*
X115763406Y-59180500D01*
X115831527Y-59200502D01*
X115852501Y-59217405D01*
X117185595Y-60550499D01*
X117219621Y-60612811D01*
X117222500Y-60639594D01*
X117222500Y-79231888D01*
X117202498Y-79300009D01*
X117148842Y-79346502D01*
X117078568Y-79356606D01*
X117045251Y-79346995D01*
X117042753Y-79345882D01*
X117042752Y-79345882D01*
X116868288Y-79268206D01*
X116681487Y-79228500D01*
X116490513Y-79228500D01*
X116303711Y-79268206D01*
X116129247Y-79345882D01*
X115974747Y-79458133D01*
X115971437Y-79461810D01*
X115910991Y-79499050D01*
X115877800Y-79503500D01*
X114586023Y-79503500D01*
X114517902Y-79483498D01*
X114471409Y-79429842D01*
X114466418Y-79417133D01*
X114443177Y-79346995D01*
X114440615Y-79339262D01*
X114347530Y-79188348D01*
X114347527Y-79188345D01*
X114347524Y-79188341D01*
X114222158Y-79062975D01*
X114222152Y-79062970D01*
X114071238Y-78969885D01*
X113987082Y-78941999D01*
X113902927Y-78914113D01*
X113902920Y-78914112D01*
X113799053Y-78903500D01*
X113022955Y-78903500D01*
X112919074Y-78914112D01*
X112750761Y-78969885D01*
X112599847Y-79062970D01*
X112599841Y-79062975D01*
X112474471Y-79188345D01*
X112472011Y-79191457D01*
X112469781Y-79193035D01*
X112469280Y-79193537D01*
X112469194Y-79193451D01*
X112414068Y-79232483D01*
X112343143Y-79235671D01*
X112281754Y-79200008D01*
X112274337Y-79191446D01*
X112272132Y-79188657D01*
X112146845Y-79063370D01*
X112146839Y-79063365D01*
X111996025Y-78970342D01*
X111827821Y-78914606D01*
X111827818Y-78914605D01*
X111724016Y-78904000D01*
X111590000Y-78904000D01*
X111590000Y-81370000D01*
X111724017Y-81370000D01*
X111724016Y-81369999D01*
X111827818Y-81359394D01*
X111827821Y-81359393D01*
X111996025Y-81303657D01*
X112146839Y-81210634D01*
X112146845Y-81210629D01*
X112272124Y-81085350D01*
X112274332Y-81082558D01*
X112276337Y-81081137D01*
X112277325Y-81080150D01*
X112277493Y-81080318D01*
X112332268Y-81041522D01*
X112403193Y-81038323D01*
X112464588Y-81073976D01*
X112472015Y-81082547D01*
X112474474Y-81085657D01*
X112599841Y-81211024D01*
X112599847Y-81211029D01*
X112599848Y-81211030D01*
X112717647Y-81283689D01*
X112765125Y-81336475D01*
X112777500Y-81390930D01*
X112777500Y-82108406D01*
X112757498Y-82176527D01*
X112740595Y-82197501D01*
X112029931Y-82908164D01*
X112029926Y-82908171D01*
X112019145Y-82924307D01*
X111960600Y-83011925D01*
X111959559Y-83014438D01*
X111915450Y-83120927D01*
X111912845Y-83127215D01*
X111905031Y-83166498D01*
X111888500Y-83249603D01*
X111888500Y-91950500D01*
X111868498Y-92018621D01*
X111814842Y-92065114D01*
X111762500Y-92076500D01*
X111508225Y-92076500D01*
X111440104Y-92056498D01*
X111393611Y-92002842D01*
X111383507Y-91932568D01*
X111399771Y-91886361D01*
X111407260Y-91873696D01*
X111419145Y-91853601D01*
X111465562Y-91693831D01*
X111468499Y-91656511D01*
X111468500Y-91656511D01*
X111468500Y-91223489D01*
X111468499Y-91223488D01*
X111467826Y-91214941D01*
X111465562Y-91186169D01*
X111419145Y-91026399D01*
X111419143Y-91026395D01*
X111419143Y-91026394D01*
X111334455Y-90883196D01*
X111333385Y-90881816D01*
X111332882Y-90880536D01*
X111330418Y-90876369D01*
X111331090Y-90875971D01*
X111307437Y-90815732D01*
X111321336Y-90746109D01*
X111333390Y-90727353D01*
X111334056Y-90726493D01*
X111418681Y-90583401D01*
X111464993Y-90424000D01*
X109857000Y-90424000D01*
X109788879Y-90403998D01*
X109742386Y-90350342D01*
X109731000Y-90298000D01*
X109731000Y-90042000D01*
X109751002Y-89973879D01*
X109804658Y-89927386D01*
X109857000Y-89916000D01*
X111464992Y-89916000D01*
X111418681Y-89756598D01*
X111334053Y-89613500D01*
X111333385Y-89612639D01*
X111333071Y-89611840D01*
X111330019Y-89606679D01*
X111330851Y-89606186D01*
X111307437Y-89546554D01*
X111321336Y-89476931D01*
X111333390Y-89458176D01*
X111334444Y-89456815D01*
X111334453Y-89456807D01*
X111378106Y-89382994D01*
X111419143Y-89313605D01*
X111419143Y-89313603D01*
X111419145Y-89313601D01*
X111465562Y-89153831D01*
X111468499Y-89116511D01*
X111468500Y-89116511D01*
X111468500Y-88683489D01*
X111468499Y-88683488D01*
X111467132Y-88666124D01*
X111465562Y-88646169D01*
X111419145Y-88486399D01*
X111419143Y-88486397D01*
X111419143Y-88486394D01*
X111334456Y-88343198D01*
X111334455Y-88343197D01*
X111334453Y-88343193D01*
X111334449Y-88343189D01*
X111333708Y-88342233D01*
X111333356Y-88341337D01*
X111330418Y-88336369D01*
X111331219Y-88335895D01*
X111307756Y-88276150D01*
X111321652Y-88206526D01*
X111333708Y-88187767D01*
X111334445Y-88186814D01*
X111334453Y-88186807D01*
X111416098Y-88048753D01*
X111419143Y-88043605D01*
X111419143Y-88043603D01*
X111419145Y-88043601D01*
X111465562Y-87883831D01*
X111468499Y-87846511D01*
X111468500Y-87846511D01*
X111468500Y-87413489D01*
X111468499Y-87413488D01*
X111467614Y-87402248D01*
X111465562Y-87376169D01*
X111419145Y-87216399D01*
X111419143Y-87216397D01*
X111419143Y-87216394D01*
X111334456Y-87073198D01*
X111334455Y-87073197D01*
X111334453Y-87073193D01*
X111334449Y-87073189D01*
X111333708Y-87072233D01*
X111333356Y-87071337D01*
X111330418Y-87066369D01*
X111331219Y-87065895D01*
X111307756Y-87006150D01*
X111321652Y-86936526D01*
X111333708Y-86917767D01*
X111334445Y-86916814D01*
X111334453Y-86916807D01*
X111402512Y-86801726D01*
X111419143Y-86773605D01*
X111419143Y-86773603D01*
X111419145Y-86773601D01*
X111465562Y-86613831D01*
X111468499Y-86576511D01*
X111468500Y-86576511D01*
X111468500Y-86143489D01*
X111468499Y-86143488D01*
X111465562Y-86106171D01*
X111465562Y-86106170D01*
X111462899Y-86097003D01*
X111419145Y-85946399D01*
X111419143Y-85946397D01*
X111419143Y-85946394D01*
X111334456Y-85803198D01*
X111334455Y-85803197D01*
X111334453Y-85803193D01*
X111334449Y-85803189D01*
X111333708Y-85802233D01*
X111333356Y-85801337D01*
X111330418Y-85796369D01*
X111331219Y-85795895D01*
X111307756Y-85736150D01*
X111321652Y-85666526D01*
X111333708Y-85647767D01*
X111334445Y-85646814D01*
X111334453Y-85646807D01*
X111419145Y-85503601D01*
X111465562Y-85343831D01*
X111468499Y-85306511D01*
X111468500Y-85306511D01*
X111468500Y-84873489D01*
X111468499Y-84873488D01*
X111465562Y-84836171D01*
X111465562Y-84836170D01*
X111456662Y-84805535D01*
X111419145Y-84676399D01*
X111419143Y-84676397D01*
X111419143Y-84676394D01*
X111334455Y-84533196D01*
X111333385Y-84531816D01*
X111332882Y-84530536D01*
X111330418Y-84526369D01*
X111331090Y-84525971D01*
X111307437Y-84465732D01*
X111321336Y-84396109D01*
X111333390Y-84377353D01*
X111334056Y-84376493D01*
X111418681Y-84233401D01*
X111464993Y-84074000D01*
X108449263Y-84074000D01*
X108440917Y-84075500D01*
X108400813Y-84075500D01*
X108332692Y-84055498D01*
X108286199Y-84001842D01*
X108281209Y-83989134D01*
X108279551Y-83984134D01*
X108276115Y-83973762D01*
X108183030Y-83822848D01*
X108183029Y-83822847D01*
X108183024Y-83822841D01*
X108057653Y-83697470D01*
X108053234Y-83693976D01*
X108012206Y-83636035D01*
X108009056Y-83566000D01*
X108505007Y-83566000D01*
X109731000Y-83566000D01*
X110239000Y-83566000D01*
X111464992Y-83566000D01*
X111418681Y-83406598D01*
X111334051Y-83263498D01*
X111334050Y-83263496D01*
X111216503Y-83145949D01*
X111216501Y-83145948D01*
X111073401Y-83061318D01*
X110913748Y-83014934D01*
X110913750Y-83014934D01*
X110876456Y-83012000D01*
X110239000Y-83012000D01*
X110239000Y-83566000D01*
X109731000Y-83566000D01*
X109731000Y-83012000D01*
X109093544Y-83012000D01*
X109056249Y-83014934D01*
X108896599Y-83061318D01*
X108753498Y-83145948D01*
X108753496Y-83145949D01*
X108635949Y-83263496D01*
X108635948Y-83263498D01*
X108551318Y-83406598D01*
X108505007Y-83566000D01*
X108009056Y-83566000D01*
X108009016Y-83565110D01*
X108024145Y-83528994D01*
X108076115Y-83444738D01*
X108131887Y-83276426D01*
X108142500Y-83172545D01*
X108142499Y-82371456D01*
X108140568Y-82352558D01*
X108131887Y-82267574D01*
X108111747Y-82206794D01*
X108076115Y-82099262D01*
X107983030Y-81948348D01*
X107983029Y-81948347D01*
X107983024Y-81948341D01*
X107895424Y-81860741D01*
X107861398Y-81798429D01*
X107866463Y-81727614D01*
X107895424Y-81682551D01*
X107982629Y-81595345D01*
X107982634Y-81595339D01*
X108075657Y-81444525D01*
X108131393Y-81276321D01*
X108131394Y-81276318D01*
X108141999Y-81172516D01*
X108142000Y-81172516D01*
X108142000Y-81026000D01*
X106806000Y-81026000D01*
X106737879Y-81005998D01*
X106691386Y-80952342D01*
X106680000Y-80900000D01*
X106680000Y-80662516D01*
X110240500Y-80662516D01*
X110251105Y-80766318D01*
X110251106Y-80766321D01*
X110306842Y-80934525D01*
X110399865Y-81085339D01*
X110399870Y-81085345D01*
X110525154Y-81210629D01*
X110525160Y-81210634D01*
X110675974Y-81303657D01*
X110844178Y-81359393D01*
X110844181Y-81359394D01*
X110947983Y-81369999D01*
X110947983Y-81370000D01*
X111082000Y-81370000D01*
X111082000Y-80391000D01*
X110240500Y-80391000D01*
X110240500Y-80662516D01*
X106680000Y-80662516D01*
X106680000Y-80518000D01*
X107188000Y-80518000D01*
X108142000Y-80518000D01*
X108142000Y-80371483D01*
X108131394Y-80267681D01*
X108131393Y-80267678D01*
X108075657Y-80099474D01*
X107982634Y-79948660D01*
X107982629Y-79948654D01*
X107857345Y-79823370D01*
X107857339Y-79823365D01*
X107706525Y-79730342D01*
X107538321Y-79674606D01*
X107538318Y-79674605D01*
X107434516Y-79664000D01*
X107188000Y-79664000D01*
X107188000Y-80518000D01*
X106680000Y-80518000D01*
X106680000Y-79664000D01*
X106433483Y-79664000D01*
X106329681Y-79674605D01*
X106329678Y-79674606D01*
X106161474Y-79730342D01*
X106010660Y-79823365D01*
X106010654Y-79823370D01*
X105885370Y-79948654D01*
X105885365Y-79948660D01*
X105816004Y-80061113D01*
X105763218Y-80108591D01*
X105693143Y-80119994D01*
X105628027Y-80091701D01*
X105615126Y-80079276D01*
X105513252Y-79966133D01*
X105358752Y-79853882D01*
X105184288Y-79776206D01*
X104997487Y-79736500D01*
X104806513Y-79736500D01*
X104619711Y-79776206D01*
X104445247Y-79853882D01*
X104290744Y-79966135D01*
X104162965Y-80108048D01*
X104162958Y-80108058D01*
X104067476Y-80273438D01*
X104067473Y-80273445D01*
X104008457Y-80455072D01*
X103991092Y-80620291D01*
X103964078Y-80685948D01*
X103954880Y-80696213D01*
X103914502Y-80736593D01*
X103852190Y-80770620D01*
X103825404Y-80773500D01*
X101886023Y-80773500D01*
X101817902Y-80753498D01*
X101771409Y-80699842D01*
X101766418Y-80687133D01*
X101740615Y-80609262D01*
X101647530Y-80458348D01*
X101647527Y-80458345D01*
X101647524Y-80458341D01*
X101522158Y-80332975D01*
X101522152Y-80332970D01*
X101489685Y-80312944D01*
X101371238Y-80239885D01*
X101287082Y-80211999D01*
X101202927Y-80184113D01*
X101202920Y-80184112D01*
X101099053Y-80173500D01*
X100322955Y-80173500D01*
X100219074Y-80184112D01*
X100050761Y-80239885D01*
X99899847Y-80332970D01*
X99899841Y-80332975D01*
X99774471Y-80458345D01*
X99772011Y-80461457D01*
X99769781Y-80463035D01*
X99769280Y-80463537D01*
X99769194Y-80463451D01*
X99714068Y-80502483D01*
X99643143Y-80505671D01*
X99581754Y-80470008D01*
X99574337Y-80461446D01*
X99572132Y-80458657D01*
X99446845Y-80333370D01*
X99446839Y-80333365D01*
X99296025Y-80240342D01*
X99127821Y-80184606D01*
X99127818Y-80184605D01*
X99024016Y-80174000D01*
X98890000Y-80174000D01*
X98890000Y-82640000D01*
X99024017Y-82640000D01*
X99024016Y-82639999D01*
X99127818Y-82629394D01*
X99127821Y-82629393D01*
X99296025Y-82573657D01*
X99446839Y-82480634D01*
X99446845Y-82480629D01*
X99572124Y-82355350D01*
X99574332Y-82352558D01*
X99576337Y-82351137D01*
X99577325Y-82350150D01*
X99577493Y-82350318D01*
X99632268Y-82311522D01*
X99703193Y-82308323D01*
X99764588Y-82343976D01*
X99772015Y-82352547D01*
X99774474Y-82355657D01*
X99846836Y-82428019D01*
X99880862Y-82490331D01*
X99877574Y-82556050D01*
X99817457Y-82741070D01*
X99797496Y-82931000D01*
X99817457Y-83120927D01*
X99834232Y-83172553D01*
X99876473Y-83302556D01*
X99876476Y-83302561D01*
X99971958Y-83467941D01*
X99971965Y-83467951D01*
X100099744Y-83609864D01*
X100099747Y-83609866D01*
X100254248Y-83722118D01*
X100428712Y-83799794D01*
X100615513Y-83839500D01*
X100806487Y-83839500D01*
X100993288Y-83799794D01*
X101167752Y-83722118D01*
X101322253Y-83609866D01*
X101333411Y-83597474D01*
X101450034Y-83467951D01*
X101450035Y-83467949D01*
X101450040Y-83467944D01*
X101545527Y-83302556D01*
X101604542Y-83120928D01*
X101624504Y-82931000D01*
X101604542Y-82741072D01*
X101545527Y-82559444D01*
X101545525Y-82559440D01*
X101544424Y-82556052D01*
X101542396Y-82485084D01*
X101575160Y-82428021D01*
X101647530Y-82355652D01*
X101740615Y-82204738D01*
X101766418Y-82126865D01*
X101806832Y-82068496D01*
X101872389Y-82041240D01*
X101886023Y-82040500D01*
X104202393Y-82040500D01*
X104202394Y-82040500D01*
X104324785Y-82016155D01*
X104440075Y-81968400D01*
X104543833Y-81899071D01*
X104852499Y-81590405D01*
X104914811Y-81556379D01*
X104941594Y-81553500D01*
X104997487Y-81553500D01*
X105184288Y-81513794D01*
X105358752Y-81436118D01*
X105513253Y-81323866D01*
X105531037Y-81304115D01*
X105542982Y-81290849D01*
X105603428Y-81253608D01*
X105674411Y-81254959D01*
X105733396Y-81294472D01*
X105756224Y-81335525D01*
X105792342Y-81444525D01*
X105885365Y-81595339D01*
X105885370Y-81595345D01*
X105972576Y-81682551D01*
X106006602Y-81744863D01*
X106001537Y-81815678D01*
X105972576Y-81860741D01*
X105884975Y-81948341D01*
X105884970Y-81948347D01*
X105791885Y-82099262D01*
X105736113Y-82267572D01*
X105736112Y-82267579D01*
X105725500Y-82371446D01*
X105725500Y-83172544D01*
X105736112Y-83276425D01*
X105791885Y-83444738D01*
X105843855Y-83528994D01*
X105862592Y-83597474D01*
X105841333Y-83665212D01*
X105814770Y-83693973D01*
X105810343Y-83697473D01*
X105684975Y-83822841D01*
X105684970Y-83822847D01*
X105591885Y-83973762D01*
X105536113Y-84142072D01*
X105536112Y-84142079D01*
X105525500Y-84245946D01*
X105525500Y-85172044D01*
X105536112Y-85275925D01*
X105591885Y-85444238D01*
X105684970Y-85595152D01*
X105684975Y-85595158D01*
X105810341Y-85720524D01*
X105810347Y-85720529D01*
X105810348Y-85720530D01*
X105961262Y-85813615D01*
X106129574Y-85869387D01*
X106233455Y-85880000D01*
X107634544Y-85879999D01*
X107736132Y-85869621D01*
X107805931Y-85882597D01*
X107857637Y-85931250D01*
X107874830Y-86000133D01*
X107852053Y-86067377D01*
X107838033Y-86084063D01*
X107800167Y-86121929D01*
X107711931Y-86210164D01*
X107711929Y-86210167D01*
X107642600Y-86313925D01*
X107624095Y-86358600D01*
X107595827Y-86426845D01*
X107594845Y-86429215D01*
X107584847Y-86479478D01*
X107569292Y-86557678D01*
X107567505Y-86557322D01*
X107544129Y-86615195D01*
X107486169Y-86656197D01*
X107445328Y-86663000D01*
X106233455Y-86663000D01*
X106129574Y-86673612D01*
X105961261Y-86729385D01*
X105810347Y-86822470D01*
X105810341Y-86822475D01*
X105684975Y-86947841D01*
X105684970Y-86947847D01*
X105591885Y-87098762D01*
X105536113Y-87267072D01*
X105536112Y-87267079D01*
X105525500Y-87370946D01*
X105525500Y-88189609D01*
X105505498Y-88257730D01*
X105451842Y-88304223D01*
X105425699Y-88312855D01*
X105381714Y-88322204D01*
X105207247Y-88399882D01*
X105052744Y-88512135D01*
X104924965Y-88654048D01*
X104924961Y-88654054D01*
X104924960Y-88654056D01*
X104903640Y-88690983D01*
X104881619Y-88729125D01*
X104830236Y-88778118D01*
X104760522Y-88791553D01*
X104694611Y-88765166D01*
X104653430Y-88707334D01*
X104646500Y-88666124D01*
X104646500Y-88332524D01*
X104666502Y-88264403D01*
X104678858Y-88248220D01*
X104752040Y-88166944D01*
X104847527Y-88001556D01*
X104906542Y-87819928D01*
X104926504Y-87630000D01*
X104906542Y-87440072D01*
X104847527Y-87258444D01*
X104752040Y-87093056D01*
X104752038Y-87093054D01*
X104752034Y-87093048D01*
X104624255Y-86951135D01*
X104469752Y-86838882D01*
X104295288Y-86761206D01*
X104108487Y-86721500D01*
X103917513Y-86721500D01*
X103917512Y-86721500D01*
X103738748Y-86759497D01*
X103667957Y-86754095D01*
X103611324Y-86711278D01*
X103586831Y-86644640D01*
X103588222Y-86620260D01*
X103588057Y-86620247D01*
X103591499Y-86576511D01*
X103591500Y-86576511D01*
X103591500Y-86143489D01*
X103591499Y-86143488D01*
X103588562Y-86106171D01*
X103588562Y-86106170D01*
X103585899Y-86097003D01*
X103542145Y-85946399D01*
X103542143Y-85946397D01*
X103542143Y-85946394D01*
X103457456Y-85803198D01*
X103457455Y-85803197D01*
X103457453Y-85803193D01*
X103457449Y-85803189D01*
X103456708Y-85802233D01*
X103456356Y-85801337D01*
X103453418Y-85796369D01*
X103454219Y-85795895D01*
X103430756Y-85736150D01*
X103444652Y-85666526D01*
X103456708Y-85647767D01*
X103457445Y-85646814D01*
X103457453Y-85646807D01*
X103542145Y-85503601D01*
X103588562Y-85343831D01*
X103591499Y-85306511D01*
X103591500Y-85306511D01*
X103591500Y-84873489D01*
X103591499Y-84873488D01*
X103588562Y-84836171D01*
X103588562Y-84836170D01*
X103579662Y-84805535D01*
X103542145Y-84676399D01*
X103542143Y-84676397D01*
X103542143Y-84676394D01*
X103457455Y-84533196D01*
X103457450Y-84533189D01*
X103339810Y-84415549D01*
X103339803Y-84415544D01*
X103196605Y-84330856D01*
X103036829Y-84284437D01*
X102999511Y-84281500D01*
X102999502Y-84281500D01*
X101216498Y-84281500D01*
X101216489Y-84281500D01*
X101179171Y-84284437D01*
X101179170Y-84284437D01*
X101019394Y-84330856D01*
X100876196Y-84415544D01*
X100876189Y-84415549D01*
X100758549Y-84533189D01*
X100758544Y-84533196D01*
X100669819Y-84683222D01*
X100667763Y-84682006D01*
X100629966Y-84727407D01*
X100562252Y-84748749D01*
X100493751Y-84730094D01*
X100485707Y-84724709D01*
X100442452Y-84693282D01*
X100267988Y-84615606D01*
X100081187Y-84575900D01*
X99890213Y-84575900D01*
X99703411Y-84615606D01*
X99528947Y-84693282D01*
X99374444Y-84805535D01*
X99246665Y-84947448D01*
X99246661Y-84947455D01*
X99199811Y-85028601D01*
X99148428Y-85077594D01*
X99090692Y-85091600D01*
X98766999Y-85091600D01*
X98698878Y-85071598D01*
X98652385Y-85017942D01*
X98640999Y-84965600D01*
X98640999Y-84873543D01*
X98638065Y-84836249D01*
X98591681Y-84676599D01*
X98507051Y-84533498D01*
X98507050Y-84533496D01*
X98389503Y-84415949D01*
X98389501Y-84415948D01*
X98246401Y-84331318D01*
X98086748Y-84284934D01*
X98086750Y-84284934D01*
X98049456Y-84282000D01*
X97412000Y-84282000D01*
X97412000Y-84965600D01*
X97391998Y-85033721D01*
X97338342Y-85080214D01*
X97286000Y-85091600D01*
X97030000Y-85091600D01*
X96961879Y-85071598D01*
X96915386Y-85017942D01*
X96904000Y-84965600D01*
X96904000Y-84282000D01*
X96266544Y-84282000D01*
X96229249Y-84284934D01*
X96069599Y-84331318D01*
X95926498Y-84415948D01*
X95926496Y-84415949D01*
X95808949Y-84533496D01*
X95808948Y-84533498D01*
X95724318Y-84676598D01*
X95677934Y-84836250D01*
X95675000Y-84873543D01*
X95675000Y-84965600D01*
X95654998Y-85033721D01*
X95601342Y-85080214D01*
X95549000Y-85091600D01*
X88837503Y-85091600D01*
X88764468Y-85106128D01*
X88715115Y-85115945D01*
X88715113Y-85115945D01*
X88715112Y-85115946D01*
X88599823Y-85163701D01*
X88496071Y-85233026D01*
X88496069Y-85233027D01*
X87335742Y-86393353D01*
X87273430Y-86427378D01*
X87214038Y-86425964D01*
X87207615Y-86424243D01*
X87207610Y-86424242D01*
X87207608Y-86424242D01*
X86995000Y-86405641D01*
X86782392Y-86424242D01*
X86763844Y-86429212D01*
X86576246Y-86479478D01*
X86576241Y-86479480D01*
X86382820Y-86569674D01*
X86208000Y-86692084D01*
X86207997Y-86692087D01*
X86057089Y-86842994D01*
X86057084Y-86843000D01*
X85934674Y-87017820D01*
X85844476Y-87211249D01*
X85843400Y-87214208D01*
X85842574Y-87215328D01*
X85842154Y-87216231D01*
X85841972Y-87216146D01*
X85801304Y-87271378D01*
X85734982Y-87296714D01*
X85665490Y-87282171D01*
X85614893Y-87232367D01*
X85606600Y-87214208D01*
X85605523Y-87211249D01*
X85574167Y-87144006D01*
X85515326Y-87017821D01*
X85515323Y-87017818D01*
X85515323Y-87017816D01*
X85512576Y-87013057D01*
X85513567Y-87012484D01*
X85492722Y-86950656D01*
X85510012Y-86881797D01*
X85529524Y-86856578D01*
X90517039Y-81869063D01*
X90579349Y-81835039D01*
X90650164Y-81840104D01*
X90699768Y-81873850D01*
X90729944Y-81907364D01*
X90729947Y-81907366D01*
X90884448Y-82019618D01*
X91058912Y-82097294D01*
X91245713Y-82137000D01*
X91436687Y-82137000D01*
X91623488Y-82097294D01*
X91797952Y-82019618D01*
X91917837Y-81932516D01*
X97540500Y-81932516D01*
X97551105Y-82036318D01*
X97551106Y-82036321D01*
X97606842Y-82204525D01*
X97699865Y-82355339D01*
X97699870Y-82355345D01*
X97825154Y-82480629D01*
X97825160Y-82480634D01*
X97975974Y-82573657D01*
X98144178Y-82629393D01*
X98144181Y-82629394D01*
X98247983Y-82639999D01*
X98247983Y-82640000D01*
X98382000Y-82640000D01*
X98382000Y-81661000D01*
X97540500Y-81661000D01*
X97540500Y-81932516D01*
X91917837Y-81932516D01*
X91952453Y-81907366D01*
X91959925Y-81899068D01*
X92080234Y-81765451D01*
X92080235Y-81765449D01*
X92080240Y-81765444D01*
X92175727Y-81600056D01*
X92234742Y-81418428D01*
X92252107Y-81253203D01*
X92279120Y-81187548D01*
X92288313Y-81177289D01*
X92584119Y-80881483D01*
X97540500Y-80881483D01*
X97540500Y-81153000D01*
X98382000Y-81153000D01*
X98382000Y-80174000D01*
X98247983Y-80174000D01*
X98144181Y-80184605D01*
X98144178Y-80184606D01*
X97975974Y-80240342D01*
X97825160Y-80333365D01*
X97825154Y-80333370D01*
X97699870Y-80458654D01*
X97699865Y-80458660D01*
X97606842Y-80609474D01*
X97551106Y-80777678D01*
X97551105Y-80777681D01*
X97540500Y-80881483D01*
X92584119Y-80881483D01*
X93854120Y-79611483D01*
X110240500Y-79611483D01*
X110240500Y-79883000D01*
X111082000Y-79883000D01*
X111082000Y-78904000D01*
X110947983Y-78904000D01*
X110844181Y-78914605D01*
X110844178Y-78914606D01*
X110675974Y-78970342D01*
X110525160Y-79063365D01*
X110525154Y-79063370D01*
X110399870Y-79188654D01*
X110399865Y-79188660D01*
X110306842Y-79339474D01*
X110251106Y-79507678D01*
X110251105Y-79507681D01*
X110240500Y-79611483D01*
X93854120Y-79611483D01*
X95673800Y-77791805D01*
X95736112Y-77757779D01*
X95762895Y-77754900D01*
X109455393Y-77754900D01*
X109455394Y-77754900D01*
X109577785Y-77730555D01*
X109693075Y-77682800D01*
X109796833Y-77613471D01*
X113271472Y-74138833D01*
X113340800Y-74035075D01*
X113388555Y-73919785D01*
X113412900Y-73797394D01*
X113412900Y-73672606D01*
X113412900Y-70470706D01*
X113388555Y-70348315D01*
X113340801Y-70233025D01*
X113271472Y-70129267D01*
X111922405Y-68780200D01*
X111888379Y-68717888D01*
X111885500Y-68691105D01*
X111885500Y-63125920D01*
X111905502Y-63057799D01*
X111951527Y-63015108D01*
X111997576Y-62990189D01*
X112175240Y-62851906D01*
X112236626Y-62785222D01*
X112297476Y-62748654D01*
X112368441Y-62750787D01*
X112426986Y-62790949D01*
X112447380Y-62826529D01*
X112491553Y-62944961D01*
X112491555Y-62944965D01*
X112579095Y-63061904D01*
X112696034Y-63149444D01*
X112832906Y-63200494D01*
X112893402Y-63206999D01*
X112893415Y-63207000D01*
X113538000Y-63207000D01*
X113538000Y-62279702D01*
X113599007Y-62314925D01*
X113726174Y-62349000D01*
X113857826Y-62349000D01*
X113984993Y-62314925D01*
X114046000Y-62279702D01*
X114046000Y-63207000D01*
X114690585Y-63207000D01*
X114690597Y-63206999D01*
X114751093Y-63200494D01*
X114887964Y-63149444D01*
X114887965Y-63149444D01*
X115004904Y-63061904D01*
X115092444Y-62944965D01*
X115092444Y-62944964D01*
X115143494Y-62808093D01*
X115149999Y-62747597D01*
X115150000Y-62747585D01*
X115150000Y-62103000D01*
X114222703Y-62103000D01*
X114257925Y-62041993D01*
X114292000Y-61914826D01*
X114292000Y-61783174D01*
X114257925Y-61656007D01*
X114222703Y-61595000D01*
X115150000Y-61595000D01*
X115150000Y-60950414D01*
X115149999Y-60950402D01*
X115143494Y-60889906D01*
X115092444Y-60753035D01*
X115092444Y-60753034D01*
X115004904Y-60636095D01*
X114887965Y-60548555D01*
X114751093Y-60497505D01*
X114690597Y-60491000D01*
X114046000Y-60491000D01*
X114046000Y-61418297D01*
X113984993Y-61383075D01*
X113857826Y-61349000D01*
X113726174Y-61349000D01*
X113599007Y-61383075D01*
X113538000Y-61418297D01*
X113538000Y-60491000D01*
X112893402Y-60491000D01*
X112832906Y-60497505D01*
X112696035Y-60548555D01*
X112696034Y-60548555D01*
X112579095Y-60636095D01*
X112491555Y-60753034D01*
X112491553Y-60753039D01*
X112447380Y-60871470D01*
X112404833Y-60928306D01*
X112338313Y-60953116D01*
X112268939Y-60938024D01*
X112236626Y-60912777D01*
X112175240Y-60846094D01*
X112175239Y-60846093D01*
X112175237Y-60846091D01*
X112055679Y-60753035D01*
X111997576Y-60707811D01*
X111799574Y-60600658D01*
X111799572Y-60600657D01*
X111799571Y-60600656D01*
X111586639Y-60527557D01*
X111586630Y-60527555D01*
X111542476Y-60520187D01*
X111364569Y-60490500D01*
X111139431Y-60490500D01*
X110991211Y-60515233D01*
X110917369Y-60527555D01*
X110917360Y-60527557D01*
X110704428Y-60600656D01*
X110704426Y-60600658D01*
X110506426Y-60707810D01*
X110506424Y-60707811D01*
X110328762Y-60846091D01*
X110176279Y-61011729D01*
X110087483Y-61147643D01*
X110033479Y-61193731D01*
X109963131Y-61203306D01*
X109898774Y-61173329D01*
X109876517Y-61147643D01*
X109787720Y-61011729D01*
X109635237Y-60846091D01*
X109515679Y-60753035D01*
X109457576Y-60707811D01*
X109259574Y-60600658D01*
X109259572Y-60600657D01*
X109259571Y-60600656D01*
X109046639Y-60527557D01*
X109046630Y-60527555D01*
X109002476Y-60520187D01*
X108824569Y-60490500D01*
X108599431Y-60490500D01*
X108451211Y-60515233D01*
X108377369Y-60527555D01*
X108377360Y-60527557D01*
X108164428Y-60600656D01*
X108164426Y-60600658D01*
X107966426Y-60707810D01*
X107966424Y-60707811D01*
X107788762Y-60846091D01*
X107636279Y-61011729D01*
X107547483Y-61147643D01*
X107493479Y-61193731D01*
X107423131Y-61203306D01*
X107358774Y-61173329D01*
X107336517Y-61147643D01*
X107247720Y-61011729D01*
X107095237Y-60846091D01*
X106975679Y-60753035D01*
X106917576Y-60707811D01*
X106719574Y-60600658D01*
X106719572Y-60600657D01*
X106719571Y-60600656D01*
X106506639Y-60527557D01*
X106506630Y-60527555D01*
X106462476Y-60520187D01*
X106284569Y-60490500D01*
X106059431Y-60490500D01*
X105911211Y-60515233D01*
X105837369Y-60527555D01*
X105837360Y-60527557D01*
X105624428Y-60600656D01*
X105624426Y-60600658D01*
X105426426Y-60707810D01*
X105426424Y-60707811D01*
X105248762Y-60846091D01*
X105096279Y-61011729D01*
X105007483Y-61147643D01*
X104953479Y-61193731D01*
X104883131Y-61203306D01*
X104818774Y-61173329D01*
X104796517Y-61147643D01*
X104707720Y-61011729D01*
X104555237Y-60846091D01*
X104435679Y-60753035D01*
X104377576Y-60707811D01*
X104179574Y-60600658D01*
X104179572Y-60600657D01*
X104179571Y-60600656D01*
X103966639Y-60527557D01*
X103966630Y-60527555D01*
X103922476Y-60520187D01*
X103744569Y-60490500D01*
X103519431Y-60490500D01*
X103371211Y-60515233D01*
X103297369Y-60527555D01*
X103297360Y-60527557D01*
X103084428Y-60600656D01*
X103084426Y-60600658D01*
X102886426Y-60707810D01*
X102886424Y-60707811D01*
X102708762Y-60846091D01*
X102556279Y-61011729D01*
X102467483Y-61147643D01*
X102413479Y-61193731D01*
X102343131Y-61203306D01*
X102278774Y-61173329D01*
X102256517Y-61147643D01*
X102167720Y-61011729D01*
X102015237Y-60846091D01*
X101895679Y-60753035D01*
X101837576Y-60707811D01*
X101639574Y-60600658D01*
X101639572Y-60600657D01*
X101639571Y-60600656D01*
X101426639Y-60527557D01*
X101426630Y-60527555D01*
X101382476Y-60520187D01*
X101204569Y-60490500D01*
X100979431Y-60490500D01*
X100831211Y-60515233D01*
X100757369Y-60527555D01*
X100757360Y-60527557D01*
X100544428Y-60600656D01*
X100544426Y-60600658D01*
X100346426Y-60707810D01*
X100346424Y-60707811D01*
X100168762Y-60846091D01*
X100016279Y-61011729D01*
X100016275Y-61011734D01*
X99893141Y-61200206D01*
X99802703Y-61406386D01*
X99802702Y-61406387D01*
X99747437Y-61624624D01*
X99747436Y-61624630D01*
X99747436Y-61624632D01*
X99728844Y-61849000D01*
X99744836Y-62041993D01*
X99747437Y-62073375D01*
X99802702Y-62291612D01*
X99802703Y-62291613D01*
X99893141Y-62497793D01*
X100016275Y-62686265D01*
X100016279Y-62686270D01*
X100168762Y-62851908D01*
X100257592Y-62921047D01*
X100346424Y-62990189D01*
X100392471Y-63015108D01*
X100442859Y-63065118D01*
X100458500Y-63125920D01*
X100458500Y-69829761D01*
X100438498Y-69897882D01*
X100384842Y-69944375D01*
X100372133Y-69949365D01*
X100319265Y-69966883D01*
X100168347Y-70059970D01*
X100168341Y-70059975D01*
X100042975Y-70185341D01*
X100042970Y-70185347D01*
X99949885Y-70336262D01*
X99894113Y-70504572D01*
X99894112Y-70504579D01*
X99883500Y-70608446D01*
X99883501Y-71197100D01*
X99863499Y-71265221D01*
X99809843Y-71311714D01*
X99757501Y-71323100D01*
X84297203Y-71323100D01*
X84224168Y-71337628D01*
X84174815Y-71347445D01*
X84174813Y-71347445D01*
X84174812Y-71347446D01*
X84059523Y-71395201D01*
X83955771Y-71464526D01*
X83955764Y-71464531D01*
X78882931Y-76537364D01*
X78882926Y-76537371D01*
X78813601Y-76641123D01*
X78765846Y-76756412D01*
X78741500Y-76878803D01*
X78741500Y-86519011D01*
X78721498Y-86587132D01*
X78687771Y-86622224D01*
X78588000Y-86692084D01*
X78587997Y-86692087D01*
X78437089Y-86842994D01*
X78437084Y-86843000D01*
X78314674Y-87017820D01*
X78224480Y-87211241D01*
X78224477Y-87211249D01*
X78222487Y-87218677D01*
X78185531Y-87279297D01*
X78121669Y-87310315D01*
X78051175Y-87301882D01*
X78027448Y-87287465D01*
X78027180Y-87287868D01*
X77920219Y-87216399D01*
X77918275Y-87215100D01*
X77802985Y-87167345D01*
X77729286Y-87152685D01*
X77680596Y-87143000D01*
X77680594Y-87143000D01*
X77654794Y-87143000D01*
X77586673Y-87122998D01*
X77565699Y-87106095D01*
X77261335Y-86801731D01*
X77261333Y-86801729D01*
X77157575Y-86732400D01*
X77042285Y-86684645D01*
X76968586Y-86669985D01*
X76919896Y-86660300D01*
X76919894Y-86660300D01*
X48511806Y-86660300D01*
X48511803Y-86660300D01*
X48389417Y-86684644D01*
X48386335Y-86685920D01*
X48371449Y-86692087D01*
X48274124Y-86732399D01*
X48170371Y-86801725D01*
X48170369Y-86801726D01*
X47870422Y-87101673D01*
X47808110Y-87135698D01*
X47748718Y-87134284D01*
X47717372Y-87125885D01*
X47498000Y-87106693D01*
X47278629Y-87125885D01*
X47065926Y-87182879D01*
X47065920Y-87182881D01*
X46866346Y-87275944D01*
X46685965Y-87402248D01*
X46685959Y-87402253D01*
X46530253Y-87557959D01*
X46530248Y-87557965D01*
X46403944Y-87738346D01*
X46310881Y-87937920D01*
X46310879Y-87937926D01*
X46275160Y-88071232D01*
X46253885Y-88150629D01*
X46234693Y-88370000D01*
X46253885Y-88589371D01*
X46271217Y-88654055D01*
X46310879Y-88802073D01*
X46310881Y-88802079D01*
X46392125Y-88976308D01*
X46403944Y-89001654D01*
X46490345Y-89125046D01*
X46530251Y-89182038D01*
X46530254Y-89182042D01*
X46685957Y-89337745D01*
X46685961Y-89337748D01*
X46685962Y-89337749D01*
X46866346Y-89464056D01*
X47065924Y-89557120D01*
X47278629Y-89614115D01*
X47498000Y-89633307D01*
X47717371Y-89614115D01*
X47930076Y-89557120D01*
X48129654Y-89464056D01*
X48310038Y-89337749D01*
X48465749Y-89182038D01*
X48592056Y-89001654D01*
X48685120Y-88802076D01*
X48742115Y-88589371D01*
X48761307Y-88370000D01*
X48742115Y-88150629D01*
X48733716Y-88119284D01*
X48735405Y-88048307D01*
X48766326Y-87997577D01*
X48799701Y-87964202D01*
X48862014Y-87930179D01*
X48888795Y-87927300D01*
X52096520Y-87927300D01*
X52164641Y-87947302D01*
X52211134Y-88000958D01*
X52221238Y-88071232D01*
X52218229Y-88085898D01*
X52200885Y-88150629D01*
X52184501Y-88337900D01*
X52181693Y-88370000D01*
X52200885Y-88589371D01*
X52200885Y-88589373D01*
X52209284Y-88620718D01*
X52207593Y-88691695D01*
X52176672Y-88742422D01*
X49296267Y-91622829D01*
X49208031Y-91711064D01*
X49208026Y-91711071D01*
X49138701Y-91814823D01*
X49093895Y-91922994D01*
X49090945Y-91930115D01*
X49090457Y-91932568D01*
X49066600Y-92052503D01*
X49066600Y-92052506D01*
X49066600Y-122290706D01*
X49066600Y-122415494D01*
X49090945Y-122537885D01*
X49138700Y-122653175D01*
X49208029Y-122756933D01*
X49208031Y-122756935D01*
X54794595Y-128343499D01*
X54828621Y-128405811D01*
X54831500Y-128432594D01*
X54831500Y-132019000D01*
X54811498Y-132087121D01*
X54757842Y-132133614D01*
X54705500Y-132145000D01*
X43298500Y-132145000D01*
X43230379Y-132124998D01*
X43183886Y-132071342D01*
X43172500Y-132019000D01*
X43172500Y-124796500D01*
X43192502Y-124728379D01*
X43246158Y-124681886D01*
X43298500Y-124670500D01*
X43356219Y-124670500D01*
X43356226Y-124670500D01*
X43772894Y-124631890D01*
X44184222Y-124555000D01*
X44586701Y-124440484D01*
X44976897Y-124289322D01*
X45351481Y-124102801D01*
X45707257Y-123882514D01*
X46041189Y-123630340D01*
X46350430Y-123348430D01*
X46632340Y-123039189D01*
X46884514Y-122705257D01*
X47104801Y-122349481D01*
X47291322Y-121974897D01*
X47442484Y-121584701D01*
X47557000Y-121182222D01*
X47633890Y-120770894D01*
X47672500Y-120354226D01*
X47672500Y-119935774D01*
X47633890Y-119519106D01*
X47557000Y-119107778D01*
X47442484Y-118705299D01*
X47291322Y-118315103D01*
X47104801Y-117940519D01*
X46884514Y-117584743D01*
X46632340Y-117250811D01*
X46632338Y-117250808D01*
X46350430Y-116941569D01*
X46041191Y-116659661D01*
X46041184Y-116659656D01*
X45707254Y-116407484D01*
X45707239Y-116407474D01*
X45351488Y-116187203D01*
X45351485Y-116187201D01*
X45351481Y-116187199D01*
X44976897Y-116000678D01*
X44976893Y-116000676D01*
X44767126Y-115919412D01*
X44586701Y-115849516D01*
X44496970Y-115823985D01*
X44184229Y-115735001D01*
X44184221Y-115734999D01*
X43772900Y-115658111D01*
X43772898Y-115658110D01*
X43772894Y-115658110D01*
X43356226Y-115619500D01*
X43356219Y-115619500D01*
X43298500Y-115619500D01*
X43230379Y-115599498D01*
X43183886Y-115545842D01*
X43172500Y-115493500D01*
X43172500Y-74796500D01*
X43192502Y-74728379D01*
X43246158Y-74681886D01*
X43298500Y-74670500D01*
X43356219Y-74670500D01*
X43356226Y-74670500D01*
X43772894Y-74631890D01*
X44184222Y-74555000D01*
X44586701Y-74440484D01*
X44976897Y-74289322D01*
X45351481Y-74102801D01*
X45707257Y-73882514D01*
X46041189Y-73630340D01*
X46350430Y-73348430D01*
X46632340Y-73039189D01*
X46884514Y-72705257D01*
X47104801Y-72349481D01*
X47291322Y-71974897D01*
X47442484Y-71584701D01*
X47557000Y-71182222D01*
X47633890Y-70770894D01*
X47672500Y-70354226D01*
X47672500Y-69935774D01*
X47633890Y-69519106D01*
X47557000Y-69107778D01*
X47442484Y-68705299D01*
X47291322Y-68315103D01*
X47104801Y-67940519D01*
X46884514Y-67584743D01*
X46632340Y-67250811D01*
X46632338Y-67250808D01*
X46350430Y-66941569D01*
X46041191Y-66659661D01*
X46041184Y-66659656D01*
X45707254Y-66407484D01*
X45707239Y-66407474D01*
X45351488Y-66187203D01*
X45351485Y-66187201D01*
X45351481Y-66187199D01*
X44976897Y-66000678D01*
X44976893Y-66000676D01*
X44767126Y-65919412D01*
X44586701Y-65849516D01*
X44496970Y-65823985D01*
X44184229Y-65735001D01*
X44184221Y-65734999D01*
X43772900Y-65658111D01*
X43772898Y-65658110D01*
X43772894Y-65658110D01*
X43356226Y-65619500D01*
X43356219Y-65619500D01*
X43298500Y-65619500D01*
X43230379Y-65599498D01*
X43183886Y-65545842D01*
X43172500Y-65493500D01*
X43172500Y-52345000D01*
X47233835Y-52345000D01*
X47252465Y-52581710D01*
X47307894Y-52812592D01*
X47398759Y-53031961D01*
X47522825Y-53234417D01*
X47522826Y-53234419D01*
X47677030Y-53414969D01*
X47857580Y-53569173D01*
X47857584Y-53569176D01*
X48060037Y-53693240D01*
X48279406Y-53784105D01*
X48510289Y-53839535D01*
X48747000Y-53858165D01*
X48983711Y-53839535D01*
X49214594Y-53784105D01*
X49433963Y-53693240D01*
X49636416Y-53569176D01*
X49816969Y-53414969D01*
X49971176Y-53234416D01*
X50091134Y-53038662D01*
X50143780Y-52991034D01*
X50198565Y-52978500D01*
X53795435Y-52978500D01*
X53863556Y-52998502D01*
X53902865Y-53038662D01*
X54022824Y-53234416D01*
X54022825Y-53234417D01*
X54022826Y-53234419D01*
X54177030Y-53414969D01*
X54357580Y-53569173D01*
X54357584Y-53569176D01*
X54560037Y-53693240D01*
X54779406Y-53784105D01*
X55010289Y-53839535D01*
X55247000Y-53858165D01*
X55483711Y-53839535D01*
X55714594Y-53784105D01*
X55933963Y-53693240D01*
X56136416Y-53569176D01*
X56316969Y-53414969D01*
X56471176Y-53234416D01*
X56595240Y-53031963D01*
X56686105Y-52812594D01*
X56741535Y-52581711D01*
X56760165Y-52345000D01*
X56741535Y-52108289D01*
X56686105Y-51877406D01*
X56595240Y-51658037D01*
X56471176Y-51455584D01*
X56471173Y-51455580D01*
X56316969Y-51275030D01*
X56136419Y-51120826D01*
X56136417Y-51120825D01*
X56136416Y-51120824D01*
X55933963Y-50996760D01*
X55714594Y-50905895D01*
X55714592Y-50905894D01*
X55556651Y-50867976D01*
X55483711Y-50850465D01*
X55247000Y-50831835D01*
X55010289Y-50850465D01*
X54779407Y-50905894D01*
X54560038Y-50996759D01*
X54357582Y-51120825D01*
X54357580Y-51120826D01*
X54177030Y-51275030D01*
X54022826Y-51455580D01*
X54022825Y-51455582D01*
X54022824Y-51455584D01*
X53902865Y-51651337D01*
X53850220Y-51698966D01*
X53795435Y-51711500D01*
X50198565Y-51711500D01*
X50130444Y-51691498D01*
X50091134Y-51651337D01*
X49971176Y-51455584D01*
X49971173Y-51455580D01*
X49816969Y-51275030D01*
X49636419Y-51120826D01*
X49636417Y-51120825D01*
X49636416Y-51120824D01*
X49433963Y-50996760D01*
X49214594Y-50905895D01*
X49214592Y-50905894D01*
X49056651Y-50867976D01*
X48983711Y-50850465D01*
X48747000Y-50831835D01*
X48510289Y-50850465D01*
X48279407Y-50905894D01*
X48060038Y-50996759D01*
X47857582Y-51120825D01*
X47857580Y-51120826D01*
X47677030Y-51275030D01*
X47522826Y-51455580D01*
X47522825Y-51455582D01*
X47398759Y-51658038D01*
X47307894Y-51877407D01*
X47252465Y-52108289D01*
X47233835Y-52345000D01*
X43172500Y-52345000D01*
X43172500Y-44296500D01*
X43192502Y-44228379D01*
X43246158Y-44181886D01*
X43298500Y-44170500D01*
X83136438Y-44170500D01*
X96995500Y-44170500D01*
X97063621Y-44190502D01*
G37*
G04 #@! TD.AperFunction*
G04 #@! TA.AperFunction,Conductor*
G36*
X76611027Y-87947302D02*
G01*
X76631999Y-87964203D01*
X76936367Y-88268571D01*
X77040125Y-88337900D01*
X77155415Y-88385655D01*
X77277806Y-88410000D01*
X77303606Y-88410000D01*
X77371727Y-88430002D01*
X77392701Y-88446905D01*
X78318086Y-89372290D01*
X78352112Y-89434602D01*
X78347047Y-89505417D01*
X78332206Y-89533653D01*
X78315109Y-89558070D01*
X78224950Y-89751417D01*
X78223667Y-89754943D01*
X78222683Y-89756278D01*
X78222626Y-89756402D01*
X78222601Y-89756390D01*
X78181570Y-89812113D01*
X78115248Y-89837448D01*
X78045757Y-89822905D01*
X77995160Y-89773101D01*
X77986866Y-89754940D01*
X77985521Y-89751245D01*
X77939448Y-89652441D01*
X77895326Y-89557821D01*
X77772913Y-89382997D01*
X77622003Y-89232087D01*
X77622002Y-89232086D01*
X77622001Y-89232085D01*
X77621998Y-89232083D01*
X77447180Y-89109674D01*
X77447178Y-89109673D01*
X77253758Y-89019480D01*
X77253753Y-89019478D01*
X77158080Y-88993842D01*
X77047608Y-88964242D01*
X76835000Y-88945641D01*
X76622392Y-88964242D01*
X76577361Y-88976308D01*
X76416246Y-89019478D01*
X76416241Y-89019480D01*
X76222820Y-89109674D01*
X76048000Y-89232084D01*
X76047994Y-89232089D01*
X75897089Y-89382994D01*
X75897084Y-89383000D01*
X75774674Y-89557820D01*
X75684480Y-89751241D01*
X75684478Y-89751246D01*
X75661381Y-89837448D01*
X75629242Y-89957392D01*
X75610641Y-90170000D01*
X75629242Y-90382608D01*
X75658039Y-90490080D01*
X75684478Y-90588753D01*
X75684480Y-90588758D01*
X75774673Y-90782178D01*
X75774674Y-90782180D01*
X75897083Y-90956998D01*
X75897090Y-90957007D01*
X76047992Y-91107909D01*
X76047996Y-91107912D01*
X76047997Y-91107913D01*
X76222820Y-91230326D01*
X76352982Y-91291021D01*
X76416249Y-91320523D01*
X76419208Y-91321600D01*
X76420328Y-91322425D01*
X76421231Y-91322846D01*
X76421146Y-91323027D01*
X76476378Y-91363696D01*
X76501714Y-91430018D01*
X76487171Y-91499510D01*
X76437367Y-91550107D01*
X76419208Y-91558400D01*
X76416249Y-91559476D01*
X76222820Y-91649674D01*
X76048000Y-91772084D01*
X76047994Y-91772089D01*
X75897089Y-91922994D01*
X75897084Y-91923000D01*
X75774674Y-92097820D01*
X75684480Y-92291241D01*
X75684478Y-92291246D01*
X75644042Y-92442156D01*
X75629242Y-92497392D01*
X75610641Y-92710000D01*
X75629242Y-92922608D01*
X75656656Y-93024917D01*
X75684478Y-93128753D01*
X75684480Y-93128758D01*
X75774673Y-93322178D01*
X75774674Y-93322180D01*
X75897083Y-93496998D01*
X75897090Y-93497007D01*
X76047992Y-93647909D01*
X76047996Y-93647912D01*
X76047997Y-93647913D01*
X76222820Y-93770326D01*
X76354290Y-93831631D01*
X76416249Y-93860523D01*
X76419208Y-93861600D01*
X76420328Y-93862425D01*
X76421231Y-93862846D01*
X76421146Y-93863027D01*
X76476378Y-93903696D01*
X76501714Y-93970018D01*
X76487171Y-94039510D01*
X76437367Y-94090107D01*
X76419208Y-94098400D01*
X76416249Y-94099476D01*
X76222820Y-94189674D01*
X76048000Y-94312084D01*
X76047994Y-94312089D01*
X75897089Y-94462994D01*
X75897084Y-94463000D01*
X75774674Y-94637820D01*
X75684480Y-94831241D01*
X75684478Y-94831246D01*
X75644042Y-94982156D01*
X75629242Y-95037392D01*
X75610641Y-95250000D01*
X75629242Y-95462608D01*
X75658842Y-95573080D01*
X75684478Y-95668753D01*
X75684480Y-95668758D01*
X75774673Y-95862178D01*
X75774674Y-95862180D01*
X75897083Y-96036998D01*
X75897090Y-96037007D01*
X76047992Y-96187909D01*
X76047996Y-96187912D01*
X76047997Y-96187913D01*
X76222820Y-96310326D01*
X76372876Y-96380298D01*
X76416249Y-96400523D01*
X76419208Y-96401600D01*
X76420328Y-96402425D01*
X76421231Y-96402846D01*
X76421146Y-96403027D01*
X76476378Y-96443696D01*
X76501714Y-96510018D01*
X76487171Y-96579510D01*
X76437367Y-96630107D01*
X76419208Y-96638400D01*
X76416249Y-96639476D01*
X76222820Y-96729674D01*
X76048000Y-96852084D01*
X76047994Y-96852089D01*
X75897089Y-97002994D01*
X75897084Y-97003000D01*
X75774674Y-97177820D01*
X75684480Y-97371241D01*
X75684478Y-97371246D01*
X75649981Y-97499994D01*
X75629242Y-97577392D01*
X75610641Y-97790000D01*
X75629242Y-98002608D01*
X75630773Y-98008321D01*
X75684478Y-98208753D01*
X75684480Y-98208758D01*
X75774673Y-98402178D01*
X75774674Y-98402180D01*
X75897083Y-98576998D01*
X75897090Y-98577007D01*
X76047992Y-98727909D01*
X76047996Y-98727912D01*
X76047997Y-98727913D01*
X76222820Y-98850326D01*
X76372876Y-98920298D01*
X76416249Y-98940523D01*
X76419208Y-98941600D01*
X76420328Y-98942425D01*
X76421231Y-98942846D01*
X76421146Y-98943027D01*
X76476378Y-98983696D01*
X76501714Y-99050018D01*
X76487171Y-99119510D01*
X76437367Y-99170107D01*
X76419208Y-99178400D01*
X76416249Y-99179476D01*
X76222820Y-99269674D01*
X76048000Y-99392084D01*
X76047994Y-99392089D01*
X75897089Y-99542994D01*
X75897084Y-99543000D01*
X75774674Y-99717820D01*
X75684480Y-99911241D01*
X75684478Y-99911246D01*
X75671056Y-99961339D01*
X75629242Y-100117392D01*
X75610641Y-100330000D01*
X75629242Y-100542608D01*
X75658842Y-100653080D01*
X75684478Y-100748753D01*
X75684480Y-100748758D01*
X75774673Y-100942178D01*
X75774674Y-100942180D01*
X75897083Y-101116998D01*
X75897090Y-101117007D01*
X76047992Y-101267909D01*
X76048001Y-101267916D01*
X76117780Y-101316776D01*
X76222820Y-101390326D01*
X76416245Y-101480521D01*
X76604301Y-101530910D01*
X76664922Y-101567860D01*
X76695943Y-101631721D01*
X76687515Y-101702215D01*
X76660783Y-101741711D01*
X67394501Y-111007995D01*
X67332189Y-111042021D01*
X67305406Y-111044900D01*
X67249513Y-111044900D01*
X67062711Y-111084606D01*
X66888247Y-111162282D01*
X66733744Y-111274535D01*
X66605965Y-111416448D01*
X66605958Y-111416458D01*
X66510476Y-111581838D01*
X66510473Y-111581845D01*
X66451457Y-111763472D01*
X66431496Y-111953400D01*
X66451457Y-112143327D01*
X66469009Y-112197344D01*
X66510473Y-112324956D01*
X66518734Y-112339264D01*
X66605958Y-112490341D01*
X66605965Y-112490351D01*
X66733744Y-112632264D01*
X66733747Y-112632266D01*
X66888248Y-112744518D01*
X67062712Y-112822194D01*
X67249513Y-112861900D01*
X67440487Y-112861900D01*
X67627288Y-112822194D01*
X67801752Y-112744518D01*
X67956253Y-112632266D01*
X68013308Y-112568900D01*
X68084034Y-112490351D01*
X68084035Y-112490349D01*
X68084040Y-112490344D01*
X68179527Y-112324956D01*
X68238542Y-112143328D01*
X68255907Y-111978103D01*
X68282920Y-111912448D01*
X68292113Y-111902189D01*
X73887007Y-106307296D01*
X73949317Y-106273272D01*
X74020132Y-106278337D01*
X74076968Y-106320884D01*
X74101779Y-106387404D01*
X74102100Y-106396393D01*
X74102100Y-115900600D01*
X74082098Y-115968721D01*
X74028442Y-116015214D01*
X73976100Y-116026600D01*
X73915013Y-116026600D01*
X73728211Y-116066306D01*
X73553747Y-116143982D01*
X73399244Y-116256235D01*
X73271465Y-116398148D01*
X73271458Y-116398158D01*
X73175976Y-116563538D01*
X73175973Y-116563545D01*
X73116957Y-116745172D01*
X73096996Y-116935100D01*
X73116957Y-117125027D01*
X73147026Y-117217570D01*
X73175973Y-117306656D01*
X73271460Y-117472044D01*
X73344637Y-117553315D01*
X73375353Y-117617320D01*
X73377000Y-117637624D01*
X73377000Y-118979800D01*
X73356998Y-119047921D01*
X73303342Y-119094414D01*
X73251000Y-119105800D01*
X73182113Y-119105800D01*
X72995311Y-119145506D01*
X72820847Y-119223182D01*
X72666344Y-119335435D01*
X72538565Y-119477348D01*
X72538558Y-119477358D01*
X72443076Y-119642738D01*
X72443073Y-119642745D01*
X72384057Y-119824372D01*
X72366692Y-119989592D01*
X72339679Y-120055249D01*
X72330477Y-120065516D01*
X60287901Y-132108095D01*
X60225589Y-132142121D01*
X60198806Y-132145000D01*
X56224500Y-132145000D01*
X56156379Y-132124998D01*
X56109886Y-132071342D01*
X56098500Y-132019000D01*
X56098500Y-128055607D01*
X56098499Y-128055603D01*
X56074155Y-127933215D01*
X56026401Y-127817925D01*
X55957072Y-127714167D01*
X50370505Y-122127600D01*
X50336479Y-122065288D01*
X50333600Y-122038505D01*
X50333600Y-92429493D01*
X50353602Y-92361372D01*
X50370500Y-92340403D01*
X53072578Y-89638324D01*
X53134888Y-89604300D01*
X53194280Y-89605714D01*
X53225629Y-89614115D01*
X53445000Y-89633307D01*
X53664371Y-89614115D01*
X53877076Y-89557120D01*
X54076654Y-89464056D01*
X54257038Y-89337749D01*
X54412749Y-89182038D01*
X54539056Y-89001654D01*
X54632120Y-88802076D01*
X54689115Y-88589371D01*
X54708307Y-88370000D01*
X54689115Y-88150629D01*
X54671773Y-88085909D01*
X54673463Y-88014935D01*
X54713257Y-87956139D01*
X54778521Y-87928191D01*
X54793480Y-87927300D01*
X76542906Y-87927300D01*
X76611027Y-87947302D01*
G37*
G04 #@! TD.AperFunction*
G04 #@! TA.AperFunction,Conductor*
G36*
X118698012Y-71120391D02*
G01*
X118736396Y-71180117D01*
X118736690Y-71181133D01*
X118737000Y-71182221D01*
X118737000Y-71182222D01*
X118831236Y-71513426D01*
X118851516Y-71584700D01*
X118998831Y-71964968D01*
X119002678Y-71974897D01*
X119189199Y-72349481D01*
X119189201Y-72349485D01*
X119189203Y-72349488D01*
X119409474Y-72705239D01*
X119409484Y-72705254D01*
X119661656Y-73039184D01*
X119661661Y-73039191D01*
X119943569Y-73348430D01*
X120252808Y-73630338D01*
X120252811Y-73630340D01*
X120586743Y-73882514D01*
X120586745Y-73882515D01*
X120586760Y-73882525D01*
X120859043Y-74051115D01*
X120942519Y-74102801D01*
X121317103Y-74289322D01*
X121707299Y-74440484D01*
X122022662Y-74530213D01*
X122109770Y-74554998D01*
X122109778Y-74555000D01*
X122521106Y-74631890D01*
X122937774Y-74670500D01*
X122995500Y-74670500D01*
X123063621Y-74690502D01*
X123110114Y-74744158D01*
X123121500Y-74796500D01*
X123121500Y-77834438D01*
X123121501Y-83434439D01*
X123121501Y-94834438D01*
X123121500Y-100446437D01*
X123121500Y-115493500D01*
X123101498Y-115561621D01*
X123047842Y-115608114D01*
X122995500Y-115619500D01*
X122937774Y-115619500D01*
X122521106Y-115658110D01*
X122521102Y-115658110D01*
X122521099Y-115658111D01*
X122109778Y-115734999D01*
X122109770Y-115735001D01*
X121707299Y-115849516D01*
X121317106Y-116000676D01*
X120942511Y-116187203D01*
X120586760Y-116407474D01*
X120586745Y-116407484D01*
X120252815Y-116659656D01*
X120252808Y-116659661D01*
X119943569Y-116941569D01*
X119661661Y-117250808D01*
X119661656Y-117250815D01*
X119409484Y-117584745D01*
X119409474Y-117584760D01*
X119189203Y-117940511D01*
X119002676Y-118315106D01*
X118851516Y-118705299D01*
X118737001Y-119107770D01*
X118736999Y-119107778D01*
X118667914Y-119477356D01*
X118660110Y-119519106D01*
X118621500Y-119935774D01*
X118621500Y-120354226D01*
X118660110Y-120770894D01*
X118660111Y-120770900D01*
X118736999Y-121182221D01*
X118737001Y-121182229D01*
X118790287Y-121369505D01*
X118851516Y-121584701D01*
X119002678Y-121974897D01*
X119189199Y-122349481D01*
X119189201Y-122349485D01*
X119189203Y-122349488D01*
X119409474Y-122705239D01*
X119409484Y-122705254D01*
X119409486Y-122705257D01*
X119465966Y-122780048D01*
X119661656Y-123039184D01*
X119661661Y-123039191D01*
X119943569Y-123348430D01*
X120252808Y-123630338D01*
X120252811Y-123630340D01*
X120586743Y-123882514D01*
X120586745Y-123882515D01*
X120586760Y-123882525D01*
X120769813Y-123995866D01*
X120942519Y-124102801D01*
X121317103Y-124289322D01*
X121707299Y-124440484D01*
X122022662Y-124530213D01*
X122109770Y-124554998D01*
X122109778Y-124555000D01*
X122521106Y-124631890D01*
X122937774Y-124670500D01*
X122995500Y-124670500D01*
X123063621Y-124690502D01*
X123110114Y-124744158D01*
X123121500Y-124796500D01*
X123121500Y-132019000D01*
X123101498Y-132087121D01*
X123047842Y-132133614D01*
X122995500Y-132145000D01*
X111664500Y-132145000D01*
X111596379Y-132124998D01*
X111549886Y-132071342D01*
X111538500Y-132019000D01*
X111538500Y-124994594D01*
X111558502Y-124926473D01*
X111575405Y-124905499D01*
X112218499Y-124262405D01*
X112280811Y-124228379D01*
X112307594Y-124225500D01*
X112363487Y-124225500D01*
X112550288Y-124185794D01*
X112724752Y-124108118D01*
X112879253Y-123995866D01*
X112981315Y-123882515D01*
X113007034Y-123853951D01*
X113007035Y-123853949D01*
X113007040Y-123853944D01*
X113102527Y-123688556D01*
X113161542Y-123506928D01*
X113181504Y-123317000D01*
X113161542Y-123127072D01*
X113102527Y-122945444D01*
X113007040Y-122780056D01*
X113007038Y-122780054D01*
X113007034Y-122780048D01*
X112879255Y-122638135D01*
X112724752Y-122525882D01*
X112550288Y-122448206D01*
X112363487Y-122408500D01*
X112172513Y-122408500D01*
X111985711Y-122448206D01*
X111811247Y-122525882D01*
X111656744Y-122638135D01*
X111528965Y-122780048D01*
X111528958Y-122780058D01*
X111433476Y-122945438D01*
X111433473Y-122945445D01*
X111374457Y-123127072D01*
X111357092Y-123292292D01*
X111330079Y-123357949D01*
X111320878Y-123368216D01*
X110501167Y-124187929D01*
X110412927Y-124276169D01*
X110412926Y-124276171D01*
X110343601Y-124379923D01*
X110295846Y-124495212D01*
X110271500Y-124617603D01*
X110271500Y-132019000D01*
X110251498Y-132087121D01*
X110197842Y-132133614D01*
X110145500Y-132145000D01*
X105411600Y-132145000D01*
X105343479Y-132124998D01*
X105296986Y-132071342D01*
X105285600Y-132019000D01*
X105285600Y-97904516D01*
X116648000Y-97904516D01*
X116658605Y-98008318D01*
X116658606Y-98008321D01*
X116714342Y-98176525D01*
X116807365Y-98327339D01*
X116807370Y-98327345D01*
X116932654Y-98452629D01*
X116932660Y-98452634D01*
X117083474Y-98545657D01*
X117251678Y-98601393D01*
X117251681Y-98601394D01*
X117355483Y-98611999D01*
X117355483Y-98612000D01*
X117602000Y-98612000D01*
X118110000Y-98612000D01*
X118356517Y-98612000D01*
X118356516Y-98611999D01*
X118460318Y-98601394D01*
X118460321Y-98601393D01*
X118628525Y-98545657D01*
X118779339Y-98452634D01*
X118779345Y-98452629D01*
X118904629Y-98327345D01*
X118904634Y-98327339D01*
X118997657Y-98176525D01*
X119053393Y-98008321D01*
X119053394Y-98008318D01*
X119063999Y-97904516D01*
X119064000Y-97904516D01*
X119064000Y-97758000D01*
X118110000Y-97758000D01*
X118110000Y-98612000D01*
X117602000Y-98612000D01*
X117602000Y-97758000D01*
X116648000Y-97758000D01*
X116648000Y-97904516D01*
X105285600Y-97904516D01*
X105285600Y-92271707D01*
X105285599Y-92271703D01*
X105261255Y-92149315D01*
X105213500Y-92034025D01*
X105144171Y-91930267D01*
X105055933Y-91842029D01*
X103628405Y-90414501D01*
X103594379Y-90352189D01*
X103591500Y-90325406D01*
X103591500Y-89953489D01*
X103591499Y-89953488D01*
X103588562Y-89916171D01*
X103588562Y-89916170D01*
X103575417Y-89870924D01*
X103554425Y-89798667D01*
X103554628Y-89727672D01*
X103593182Y-89668056D01*
X103657847Y-89638748D01*
X103728092Y-89649052D01*
X103764517Y-89674421D01*
X104409929Y-90319833D01*
X104498167Y-90408071D01*
X104601925Y-90477400D01*
X104662647Y-90502552D01*
X104677574Y-90508735D01*
X104732855Y-90553284D01*
X104755276Y-90620647D01*
X104754666Y-90638311D01*
X104750496Y-90677997D01*
X104750496Y-90677999D01*
X104770457Y-90867927D01*
X104791276Y-90932000D01*
X104829473Y-91049556D01*
X104829476Y-91049561D01*
X104924958Y-91214941D01*
X104924965Y-91214951D01*
X105052744Y-91356864D01*
X105084887Y-91380217D01*
X105207248Y-91469118D01*
X105381712Y-91546794D01*
X105568513Y-91586500D01*
X105624405Y-91586500D01*
X105692526Y-91606502D01*
X105713500Y-91623405D01*
X106022167Y-91932072D01*
X106125925Y-92001401D01*
X106200265Y-92032193D01*
X106241215Y-92049155D01*
X106363606Y-92073500D01*
X106488394Y-92073500D01*
X107558200Y-92073500D01*
X107626321Y-92093502D01*
X107672814Y-92147158D01*
X107682918Y-92217432D01*
X107667319Y-92262500D01*
X107638529Y-92312367D01*
X107623473Y-92338444D01*
X107617267Y-92357545D01*
X107564457Y-92520072D01*
X107544496Y-92710000D01*
X107564457Y-92899927D01*
X107587949Y-92972226D01*
X107623473Y-93081556D01*
X107623476Y-93081561D01*
X107718958Y-93246941D01*
X107718965Y-93246951D01*
X107846744Y-93388864D01*
X107906551Y-93432316D01*
X108001248Y-93501118D01*
X108175712Y-93578794D01*
X108362513Y-93618500D01*
X108553487Y-93618500D01*
X108740288Y-93578794D01*
X108740288Y-93578793D01*
X108740292Y-93578793D01*
X108875713Y-93518499D01*
X108908838Y-93503750D01*
X108979204Y-93494316D01*
X108995238Y-93497859D01*
X109056169Y-93515562D01*
X109093488Y-93518499D01*
X109093489Y-93518500D01*
X109093498Y-93518500D01*
X110876511Y-93518500D01*
X110876511Y-93518499D01*
X110913831Y-93515562D01*
X111073601Y-93469145D01*
X111073603Y-93469143D01*
X111073605Y-93469143D01*
X111177593Y-93407644D01*
X111216807Y-93384453D01*
X111216810Y-93384450D01*
X111220856Y-93380405D01*
X111283168Y-93346379D01*
X111309951Y-93343500D01*
X112840606Y-93343500D01*
X113610049Y-93343500D01*
X113678170Y-93363502D01*
X113699144Y-93380405D01*
X113703189Y-93384450D01*
X113703196Y-93384455D01*
X113846394Y-93469143D01*
X113846397Y-93469143D01*
X113846399Y-93469145D01*
X114006169Y-93515562D01*
X114043488Y-93518499D01*
X114043489Y-93518500D01*
X114043498Y-93518500D01*
X115826511Y-93518500D01*
X115826511Y-93518499D01*
X115863831Y-93515562D01*
X116023601Y-93469145D01*
X116023603Y-93469143D01*
X116023605Y-93469143D01*
X116127593Y-93407644D01*
X116166807Y-93384453D01*
X116284453Y-93266807D01*
X116326799Y-93195204D01*
X116369143Y-93123605D01*
X116369143Y-93123603D01*
X116369145Y-93123601D01*
X116415562Y-92963831D01*
X116418499Y-92926511D01*
X116418500Y-92926511D01*
X116418500Y-92594586D01*
X116438502Y-92526465D01*
X116492158Y-92479972D01*
X116562432Y-92469868D01*
X116627012Y-92499362D01*
X116664103Y-92554950D01*
X116688885Y-92629738D01*
X116688886Y-92629739D01*
X116781970Y-92780652D01*
X116781975Y-92780658D01*
X116907341Y-92906024D01*
X116907347Y-92906029D01*
X116907348Y-92906030D01*
X117058262Y-92999115D01*
X117136132Y-93024918D01*
X117194503Y-93065330D01*
X117221760Y-93130886D01*
X117222500Y-93144522D01*
X117222500Y-94324761D01*
X117202498Y-94392882D01*
X117148842Y-94439375D01*
X117136133Y-94444365D01*
X117083265Y-94461883D01*
X116932347Y-94554970D01*
X116932341Y-94554975D01*
X116806975Y-94680341D01*
X116806970Y-94680347D01*
X116713885Y-94831262D01*
X116658113Y-94999572D01*
X116658112Y-94999579D01*
X116647500Y-95103446D01*
X116647500Y-95904544D01*
X116658112Y-96008425D01*
X116713885Y-96176738D01*
X116806970Y-96327652D01*
X116806975Y-96327658D01*
X116894576Y-96415259D01*
X116928602Y-96477571D01*
X116923537Y-96548386D01*
X116894576Y-96593449D01*
X116807370Y-96680654D01*
X116807365Y-96680660D01*
X116714342Y-96831474D01*
X116658606Y-96999678D01*
X116658605Y-96999681D01*
X116648000Y-97103483D01*
X116648000Y-97250000D01*
X119064000Y-97250000D01*
X119064000Y-97103483D01*
X119053394Y-96999681D01*
X119053393Y-96999678D01*
X118997657Y-96831474D01*
X118904634Y-96680660D01*
X118904629Y-96680654D01*
X118817424Y-96593449D01*
X118783398Y-96531137D01*
X118788463Y-96460322D01*
X118817424Y-96415259D01*
X118905024Y-96327658D01*
X118905030Y-96327652D01*
X118998115Y-96176738D01*
X119053887Y-96008426D01*
X119064500Y-95904545D01*
X119064499Y-95103456D01*
X119053887Y-94999574D01*
X118998115Y-94831262D01*
X118905030Y-94680348D01*
X118905029Y-94680347D01*
X118905024Y-94680341D01*
X118779658Y-94554975D01*
X118779652Y-94554970D01*
X118751356Y-94537517D01*
X118628738Y-94461885D01*
X118628736Y-94461884D01*
X118628734Y-94461883D01*
X118575867Y-94444365D01*
X118517496Y-94403951D01*
X118490240Y-94338395D01*
X118489500Y-94324761D01*
X118489500Y-93144522D01*
X118509502Y-93076401D01*
X118563158Y-93029908D01*
X118575857Y-93024921D01*
X118653738Y-92999115D01*
X118804652Y-92906030D01*
X118930030Y-92780652D01*
X119023115Y-92629738D01*
X119078887Y-92461426D01*
X119089500Y-92357545D01*
X119089499Y-91581456D01*
X119087016Y-91557154D01*
X119078887Y-91477574D01*
X119053542Y-91401086D01*
X119023115Y-91309262D01*
X118930030Y-91158348D01*
X118930029Y-91158347D01*
X118930024Y-91158341D01*
X118804654Y-91032971D01*
X118801956Y-91030838D01*
X118800584Y-91028901D01*
X118799463Y-91027780D01*
X118799654Y-91027588D01*
X118760925Y-90972899D01*
X118757733Y-90901974D01*
X118793392Y-90840582D01*
X118801956Y-90833162D01*
X118804649Y-90831031D01*
X118804652Y-90831030D01*
X118930030Y-90705652D01*
X119023115Y-90554738D01*
X119078887Y-90386426D01*
X119089500Y-90282545D01*
X119089499Y-89506456D01*
X119085172Y-89464103D01*
X119078887Y-89402574D01*
X119061332Y-89349595D01*
X119023115Y-89234262D01*
X118930030Y-89083348D01*
X118930029Y-89083347D01*
X118930024Y-89083341D01*
X118804658Y-88957975D01*
X118804652Y-88957970D01*
X118792217Y-88950300D01*
X118653738Y-88864885D01*
X118565837Y-88835758D01*
X118485427Y-88809113D01*
X118485420Y-88809112D01*
X118381553Y-88798500D01*
X117330455Y-88798500D01*
X117226574Y-88809112D01*
X117058261Y-88864885D01*
X116907347Y-88957970D01*
X116907341Y-88957975D01*
X116781975Y-89083341D01*
X116781966Y-89083353D01*
X116709313Y-89201141D01*
X116656527Y-89248619D01*
X116601959Y-89260994D01*
X116543324Y-89260941D01*
X116475221Y-89240877D01*
X116428777Y-89187180D01*
X116417827Y-89125048D01*
X116418500Y-89116502D01*
X116418500Y-88683498D01*
X116418500Y-88683489D01*
X116418499Y-88683488D01*
X116417132Y-88666124D01*
X116415562Y-88646169D01*
X116369145Y-88486399D01*
X116369143Y-88486397D01*
X116369143Y-88486394D01*
X116284456Y-88343198D01*
X116284455Y-88343197D01*
X116284453Y-88343193D01*
X116284449Y-88343189D01*
X116283708Y-88342233D01*
X116283356Y-88341337D01*
X116280418Y-88336369D01*
X116281219Y-88335895D01*
X116257756Y-88276150D01*
X116271652Y-88206526D01*
X116283708Y-88187767D01*
X116284445Y-88186814D01*
X116284453Y-88186807D01*
X116366098Y-88048753D01*
X116369143Y-88043605D01*
X116369143Y-88043603D01*
X116369145Y-88043601D01*
X116415562Y-87883831D01*
X116418499Y-87846511D01*
X116418500Y-87846511D01*
X116418500Y-87413489D01*
X116418499Y-87413488D01*
X116417614Y-87402248D01*
X116415562Y-87376169D01*
X116369145Y-87216399D01*
X116369143Y-87216397D01*
X116369143Y-87216394D01*
X116284455Y-87073196D01*
X116283385Y-87071816D01*
X116282882Y-87070536D01*
X116280418Y-87066369D01*
X116281090Y-87065971D01*
X116257437Y-87005732D01*
X116271336Y-86936109D01*
X116283390Y-86917353D01*
X116284056Y-86916493D01*
X116368681Y-86773401D01*
X116414993Y-86614000D01*
X113455007Y-86614000D01*
X113501318Y-86773401D01*
X113585946Y-86916498D01*
X113586616Y-86917362D01*
X113586930Y-86918162D01*
X113589981Y-86923321D01*
X113589148Y-86923813D01*
X113612563Y-86983448D01*
X113598662Y-87053070D01*
X113586625Y-87071802D01*
X113585551Y-87073186D01*
X113500856Y-87216396D01*
X113454437Y-87376170D01*
X113454437Y-87376171D01*
X113451500Y-87413488D01*
X113451500Y-87846511D01*
X113454437Y-87883828D01*
X113454437Y-87883829D01*
X113500856Y-88043605D01*
X113585543Y-88186802D01*
X113586298Y-88187775D01*
X113586652Y-88188676D01*
X113589582Y-88193631D01*
X113588782Y-88194103D01*
X113612244Y-88253861D01*
X113598342Y-88323483D01*
X113586298Y-88342225D01*
X113585543Y-88343197D01*
X113500856Y-88486394D01*
X113454437Y-88646170D01*
X113454437Y-88646171D01*
X113451500Y-88683488D01*
X113451500Y-89116511D01*
X113454437Y-89153828D01*
X113454437Y-89153829D01*
X113500856Y-89313605D01*
X113585543Y-89456802D01*
X113586298Y-89457775D01*
X113586652Y-89458676D01*
X113589582Y-89463631D01*
X113588782Y-89464103D01*
X113612244Y-89523861D01*
X113598342Y-89593483D01*
X113586298Y-89612225D01*
X113585543Y-89613197D01*
X113500856Y-89756394D01*
X113454437Y-89916170D01*
X113454437Y-89916171D01*
X113451500Y-89953488D01*
X113451500Y-90386511D01*
X113454437Y-90423828D01*
X113454437Y-90423829D01*
X113500856Y-90583605D01*
X113585543Y-90726802D01*
X113586298Y-90727775D01*
X113586652Y-90728676D01*
X113589582Y-90733631D01*
X113588782Y-90734103D01*
X113612244Y-90793861D01*
X113598342Y-90863483D01*
X113586298Y-90882225D01*
X113585543Y-90883197D01*
X113500856Y-91026394D01*
X113454437Y-91186170D01*
X113454437Y-91186171D01*
X113451500Y-91223488D01*
X113451500Y-91656511D01*
X113454437Y-91693828D01*
X113454437Y-91693829D01*
X113500855Y-91853602D01*
X113520229Y-91886361D01*
X113537688Y-91955178D01*
X113515171Y-92022509D01*
X113459826Y-92066978D01*
X113411775Y-92076500D01*
X113281500Y-92076500D01*
X113213379Y-92056498D01*
X113166886Y-92002842D01*
X113155500Y-91950500D01*
X113155500Y-86106000D01*
X113455007Y-86106000D01*
X114681000Y-86106000D01*
X115189000Y-86106000D01*
X116414992Y-86106000D01*
X116421747Y-86097003D01*
X116408137Y-86079930D01*
X116406323Y-86074722D01*
X116639885Y-86074722D01*
X116660614Y-86108381D01*
X116714342Y-86270525D01*
X116807365Y-86421339D01*
X116807370Y-86421345D01*
X116932654Y-86546629D01*
X116932660Y-86546634D01*
X117083474Y-86639657D01*
X117251678Y-86695393D01*
X117251681Y-86695394D01*
X117355483Y-86705999D01*
X117355483Y-86706000D01*
X117602000Y-86706000D01*
X118110000Y-86706000D01*
X118356517Y-86706000D01*
X118356516Y-86705999D01*
X118460318Y-86695394D01*
X118460321Y-86695393D01*
X118628525Y-86639657D01*
X118779339Y-86546634D01*
X118779345Y-86546629D01*
X118904629Y-86421345D01*
X118904634Y-86421339D01*
X118997657Y-86270525D01*
X119053393Y-86102321D01*
X119053394Y-86102318D01*
X119063999Y-85998516D01*
X119064000Y-85998516D01*
X119064000Y-85852000D01*
X118110000Y-85852000D01*
X118110000Y-86706000D01*
X117602000Y-86706000D01*
X117602000Y-85852000D01*
X116648000Y-85852000D01*
X116648000Y-85998516D01*
X116650146Y-86019521D01*
X116639885Y-86074722D01*
X116406323Y-86074722D01*
X116403802Y-86067482D01*
X116368681Y-85946598D01*
X116284052Y-85803499D01*
X116283067Y-85802229D01*
X116282604Y-85801050D01*
X116280019Y-85796679D01*
X116280723Y-85796262D01*
X116257118Y-85736145D01*
X116271016Y-85666522D01*
X116283067Y-85647771D01*
X116284052Y-85646500D01*
X116368681Y-85503400D01*
X116408007Y-85368042D01*
X116419514Y-85350022D01*
X116414993Y-85344000D01*
X115189000Y-85344000D01*
X115189000Y-86106000D01*
X114681000Y-86106000D01*
X114681000Y-85344000D01*
X113455007Y-85344000D01*
X113501318Y-85503401D01*
X113585947Y-85646500D01*
X113586939Y-85647779D01*
X113587403Y-85648963D01*
X113589981Y-85653321D01*
X113589277Y-85653736D01*
X113612882Y-85713866D01*
X113598978Y-85783487D01*
X113586939Y-85802221D01*
X113585947Y-85803499D01*
X113501318Y-85946598D01*
X113455007Y-86106000D01*
X113155500Y-86106000D01*
X113155500Y-83626594D01*
X113175502Y-83558473D01*
X113192404Y-83537500D01*
X113200911Y-83528993D01*
X113237768Y-83492135D01*
X113300077Y-83458111D01*
X113370893Y-83463175D01*
X113427729Y-83505721D01*
X113452541Y-83572241D01*
X113452474Y-83591113D01*
X113451500Y-83603493D01*
X113451500Y-84036511D01*
X113454437Y-84073828D01*
X113454437Y-84073829D01*
X113500856Y-84233605D01*
X113585544Y-84376803D01*
X113586615Y-84378184D01*
X113587117Y-84379463D01*
X113589582Y-84383631D01*
X113588909Y-84384028D01*
X113612562Y-84444270D01*
X113598662Y-84513892D01*
X113586614Y-84532639D01*
X113585946Y-84533499D01*
X113501318Y-84676598D01*
X113455007Y-84836000D01*
X116414992Y-84836000D01*
X116368681Y-84676598D01*
X116349189Y-84643639D01*
X116331730Y-84574823D01*
X116354247Y-84507491D01*
X116409592Y-84463022D01*
X116457643Y-84453500D01*
X116786628Y-84453500D01*
X116854749Y-84473502D01*
X116875723Y-84490405D01*
X116894576Y-84509258D01*
X116928602Y-84571570D01*
X116923537Y-84642385D01*
X116894577Y-84687448D01*
X116807365Y-84774660D01*
X116714342Y-84925474D01*
X116658606Y-85093678D01*
X116658605Y-85093681D01*
X116648000Y-85197483D01*
X116648000Y-85276667D01*
X116632716Y-85328717D01*
X116647999Y-85344000D01*
X119064000Y-85344000D01*
X119064000Y-85197483D01*
X119053394Y-85093681D01*
X119053393Y-85093678D01*
X118997657Y-84925474D01*
X118904634Y-84774660D01*
X118904629Y-84774654D01*
X118817424Y-84687449D01*
X118783398Y-84625137D01*
X118788463Y-84554322D01*
X118817424Y-84509259D01*
X118905024Y-84421658D01*
X118905030Y-84421652D01*
X118998115Y-84270738D01*
X119053887Y-84102426D01*
X119064500Y-83998545D01*
X119064499Y-83197456D01*
X119059196Y-83145549D01*
X119053887Y-83093574D01*
X118998115Y-82925262D01*
X118905030Y-82774348D01*
X118905029Y-82774347D01*
X118905024Y-82774341D01*
X118779658Y-82648975D01*
X118779652Y-82648970D01*
X118690723Y-82594118D01*
X118628738Y-82555885D01*
X118628736Y-82555884D01*
X118628734Y-82555883D01*
X118575867Y-82538365D01*
X118517496Y-82497951D01*
X118490240Y-82432395D01*
X118489500Y-82418761D01*
X118489500Y-71215615D01*
X118509502Y-71147494D01*
X118563158Y-71101001D01*
X118633432Y-71090897D01*
X118698012Y-71120391D01*
G37*
G04 #@! TD.AperFunction*
G04 #@! TA.AperFunction,Conductor*
G36*
X78975000Y-90222661D02*
G01*
X79002259Y-90324394D01*
X79054920Y-90415606D01*
X79129394Y-90490080D01*
X79220606Y-90542741D01*
X79322339Y-90570000D01*
X79334208Y-90570000D01*
X78710870Y-91193337D01*
X78710870Y-91193339D01*
X78763072Y-91229891D01*
X78763071Y-91229891D01*
X78956415Y-91320048D01*
X78959931Y-91321328D01*
X78961265Y-91322310D01*
X78961402Y-91322374D01*
X78961389Y-91322401D01*
X79017105Y-91363419D01*
X79042447Y-91429738D01*
X79027911Y-91499231D01*
X78978112Y-91549833D01*
X78959952Y-91558128D01*
X78956257Y-91559473D01*
X78762820Y-91649674D01*
X78588000Y-91772084D01*
X78587994Y-91772089D01*
X78437089Y-91922994D01*
X78437084Y-91923000D01*
X78314674Y-92097820D01*
X78224476Y-92291249D01*
X78223400Y-92294208D01*
X78222574Y-92295328D01*
X78222154Y-92296231D01*
X78221972Y-92296146D01*
X78181304Y-92351378D01*
X78114982Y-92376714D01*
X78045490Y-92362171D01*
X77994893Y-92312367D01*
X77986600Y-92294208D01*
X77985523Y-92291249D01*
X77930771Y-92173834D01*
X77895326Y-92097821D01*
X77772913Y-91922997D01*
X77622003Y-91772087D01*
X77622002Y-91772086D01*
X77622001Y-91772085D01*
X77621998Y-91772083D01*
X77447180Y-91649674D01*
X77447178Y-91649673D01*
X77253758Y-91559480D01*
X77250795Y-91558402D01*
X77249671Y-91557574D01*
X77248769Y-91557154D01*
X77248853Y-91556972D01*
X77193624Y-91516308D01*
X77168285Y-91449987D01*
X77182825Y-91380495D01*
X77232627Y-91329895D01*
X77250795Y-91321598D01*
X77253745Y-91320523D01*
X77253755Y-91320521D01*
X77447180Y-91230326D01*
X77622003Y-91107913D01*
X77772913Y-90957003D01*
X77895326Y-90782180D01*
X77985521Y-90588755D01*
X77985522Y-90588750D01*
X77986865Y-90585063D01*
X78028958Y-90527891D01*
X78095279Y-90502552D01*
X78164771Y-90517091D01*
X78215371Y-90566892D01*
X78223668Y-90585060D01*
X78224949Y-90588580D01*
X78315106Y-90781924D01*
X78351660Y-90834128D01*
X78351661Y-90834128D01*
X78975000Y-90210789D01*
X78975000Y-90222661D01*
G37*
G04 #@! TD.AperFunction*
G04 #@! TA.AperFunction,Conductor*
G36*
X82938337Y-88294128D02*
G01*
X82938339Y-88294128D01*
X82974890Y-88241929D01*
X82974891Y-88241928D01*
X83065045Y-88048592D01*
X83066326Y-88045072D01*
X83067309Y-88043735D01*
X83067374Y-88043598D01*
X83067401Y-88043610D01*
X83108415Y-87987897D01*
X83174734Y-87962552D01*
X83244227Y-87977086D01*
X83294831Y-88026883D01*
X83303130Y-88045051D01*
X83304476Y-88048749D01*
X83394673Y-88242178D01*
X83394674Y-88242180D01*
X83517083Y-88416998D01*
X83517090Y-88417007D01*
X83667992Y-88567909D01*
X83668001Y-88567916D01*
X83698642Y-88589371D01*
X83842820Y-88690326D01*
X83954541Y-88742422D01*
X84036249Y-88780523D01*
X84039208Y-88781600D01*
X84040328Y-88782425D01*
X84041231Y-88782846D01*
X84041146Y-88783027D01*
X84096378Y-88823696D01*
X84121714Y-88890018D01*
X84107171Y-88959510D01*
X84057367Y-89010107D01*
X84039208Y-89018400D01*
X84036249Y-89019476D01*
X83842820Y-89109674D01*
X83668000Y-89232084D01*
X83667994Y-89232089D01*
X83517089Y-89382994D01*
X83517084Y-89383000D01*
X83394674Y-89557820D01*
X83374895Y-89600237D01*
X83327978Y-89653522D01*
X83259700Y-89672983D01*
X83191740Y-89652441D01*
X83145675Y-89598418D01*
X83134700Y-89546987D01*
X83134700Y-89410167D01*
X83134699Y-89410150D01*
X83128190Y-89349603D01*
X83128188Y-89349595D01*
X83085170Y-89234262D01*
X83077089Y-89212596D01*
X83077088Y-89212594D01*
X83077087Y-89212592D01*
X82989461Y-89095538D01*
X82872407Y-89007912D01*
X82872402Y-89007910D01*
X82735404Y-88956811D01*
X82735396Y-88956809D01*
X82674849Y-88950300D01*
X82674838Y-88950300D01*
X82536830Y-88950300D01*
X82468709Y-88930298D01*
X82422216Y-88876642D01*
X82412112Y-88806368D01*
X82441606Y-88741788D01*
X82483580Y-88710105D01*
X82526928Y-88689891D01*
X82526929Y-88689890D01*
X82579128Y-88653339D01*
X82579128Y-88653337D01*
X81955791Y-88030000D01*
X81967661Y-88030000D01*
X82069394Y-88002741D01*
X82160606Y-87950080D01*
X82235080Y-87875606D01*
X82287741Y-87784394D01*
X82315000Y-87682661D01*
X82315000Y-87670791D01*
X82938337Y-88294128D01*
G37*
G04 #@! TD.AperFunction*
G04 #@! TA.AperFunction,Conductor*
G36*
X85784505Y-87977825D02*
G01*
X85835105Y-88027627D01*
X85843402Y-88045795D01*
X85844480Y-88048758D01*
X85934673Y-88242178D01*
X85934674Y-88242180D01*
X86057083Y-88416998D01*
X86057085Y-88417001D01*
X86057086Y-88417002D01*
X86057087Y-88417003D01*
X86105295Y-88465211D01*
X86139319Y-88527521D01*
X86134255Y-88598336D01*
X86105295Y-88643400D01*
X85967098Y-88781598D01*
X85554767Y-89193929D01*
X85507819Y-89240877D01*
X85468401Y-89280295D01*
X85406089Y-89314320D01*
X85335273Y-89309254D01*
X85290211Y-89280294D01*
X85242007Y-89232090D01*
X85241998Y-89232083D01*
X85067180Y-89109674D01*
X85067178Y-89109673D01*
X84873758Y-89019480D01*
X84870795Y-89018402D01*
X84869671Y-89017574D01*
X84868769Y-89017154D01*
X84868853Y-89016972D01*
X84813624Y-88976308D01*
X84788285Y-88909987D01*
X84802825Y-88840495D01*
X84852627Y-88789895D01*
X84870795Y-88781598D01*
X84873745Y-88780523D01*
X84873755Y-88780521D01*
X85067180Y-88690326D01*
X85242003Y-88567913D01*
X85392913Y-88417003D01*
X85515326Y-88242180D01*
X85605521Y-88048755D01*
X85605523Y-88048745D01*
X85606598Y-88045795D01*
X85607425Y-88044671D01*
X85607846Y-88043769D01*
X85608027Y-88043853D01*
X85648692Y-87988624D01*
X85715013Y-87963285D01*
X85784505Y-87977825D01*
G37*
G04 #@! TD.AperFunction*
G04 #@! TA.AperFunction,Conductor*
G36*
X99923481Y-73662502D02*
G01*
X99962599Y-73702351D01*
X100021221Y-73797392D01*
X100042970Y-73832652D01*
X100042975Y-73832658D01*
X100168341Y-73958024D01*
X100168347Y-73958029D01*
X100168348Y-73958030D01*
X100319262Y-74051115D01*
X100487574Y-74106887D01*
X100591455Y-74117500D01*
X101592544Y-74117499D01*
X101696426Y-74106887D01*
X101864738Y-74051115D01*
X102015652Y-73958030D01*
X102141030Y-73832652D01*
X102221400Y-73702351D01*
X102274185Y-73654875D01*
X102328640Y-73642500D01*
X102395360Y-73642500D01*
X102463481Y-73662502D01*
X102502599Y-73702351D01*
X102561221Y-73797392D01*
X102582970Y-73832652D01*
X102582975Y-73832658D01*
X102708341Y-73958024D01*
X102708347Y-73958029D01*
X102708348Y-73958030D01*
X102859262Y-74051115D01*
X103027574Y-74106887D01*
X103131455Y-74117500D01*
X104132544Y-74117499D01*
X104236426Y-74106887D01*
X104404738Y-74051115D01*
X104555652Y-73958030D01*
X104681030Y-73832652D01*
X104761400Y-73702351D01*
X104814185Y-73654875D01*
X104868640Y-73642500D01*
X104935360Y-73642500D01*
X105003481Y-73662502D01*
X105042599Y-73702351D01*
X105101221Y-73797392D01*
X105122970Y-73832652D01*
X105122975Y-73832658D01*
X105248341Y-73958024D01*
X105248347Y-73958029D01*
X105248348Y-73958030D01*
X105399262Y-74051115D01*
X105452132Y-74068634D01*
X105510503Y-74109046D01*
X105537760Y-74174602D01*
X105538500Y-74188238D01*
X105538500Y-75243474D01*
X105518498Y-75311595D01*
X105506137Y-75327784D01*
X105432957Y-75409059D01*
X105337476Y-75574438D01*
X105337473Y-75574445D01*
X105278457Y-75756072D01*
X105260717Y-75924870D01*
X105233704Y-75990527D01*
X105175483Y-76031157D01*
X105135407Y-76037700D01*
X94756603Y-76037700D01*
X94683568Y-76052228D01*
X94634215Y-76062045D01*
X94634213Y-76062045D01*
X94634212Y-76062046D01*
X94518923Y-76109801D01*
X94415171Y-76179126D01*
X94415164Y-76179131D01*
X84167449Y-86426845D01*
X84110966Y-86459456D01*
X84036249Y-86479476D01*
X83842820Y-86569674D01*
X83668000Y-86692084D01*
X83667997Y-86692087D01*
X83517089Y-86842994D01*
X83517084Y-86843000D01*
X83394674Y-87017820D01*
X83304473Y-87211257D01*
X83303128Y-87214952D01*
X83261028Y-87272119D01*
X83194703Y-87297449D01*
X83125213Y-87282900D01*
X83074620Y-87233092D01*
X83066328Y-87214931D01*
X83065048Y-87211415D01*
X82974889Y-87018068D01*
X82938340Y-86965870D01*
X82938338Y-86965870D01*
X82315000Y-87589208D01*
X82315000Y-87577339D01*
X82287741Y-87475606D01*
X82235080Y-87384394D01*
X82160606Y-87309920D01*
X82069394Y-87257259D01*
X81967661Y-87230000D01*
X81955789Y-87230000D01*
X82579128Y-86606661D01*
X82579128Y-86606660D01*
X82526924Y-86570106D01*
X82333587Y-86479952D01*
X82333581Y-86479950D01*
X82127520Y-86424736D01*
X81915000Y-86406143D01*
X81702473Y-86424737D01*
X81670910Y-86433194D01*
X81599933Y-86431504D01*
X81541138Y-86391709D01*
X81513191Y-86326444D01*
X81512300Y-86311487D01*
X81512300Y-82206794D01*
X81532302Y-82138673D01*
X81549205Y-82117699D01*
X81624500Y-82042404D01*
X81686812Y-82008378D01*
X81713595Y-82005499D01*
X82387044Y-82005499D01*
X82490926Y-81994887D01*
X82659238Y-81939115D01*
X82810152Y-81846030D01*
X82935530Y-81720652D01*
X82935537Y-81720639D01*
X82937978Y-81717554D01*
X82940209Y-81715973D01*
X82940720Y-81715463D01*
X82940807Y-81715550D01*
X82995916Y-81676521D01*
X83066840Y-81673324D01*
X83128234Y-81708980D01*
X83135661Y-81717551D01*
X83137869Y-81720344D01*
X83263154Y-81845629D01*
X83263160Y-81845634D01*
X83413974Y-81938657D01*
X83582178Y-81994393D01*
X83582181Y-81994394D01*
X83685983Y-82004999D01*
X83685983Y-82005000D01*
X83820000Y-82005000D01*
X84328000Y-82005000D01*
X84462017Y-82005000D01*
X84462016Y-82004999D01*
X84565818Y-81994394D01*
X84565821Y-81994393D01*
X84734025Y-81938657D01*
X84884839Y-81845634D01*
X84884845Y-81845629D01*
X85010129Y-81720345D01*
X85010134Y-81720339D01*
X85103157Y-81569525D01*
X85158893Y-81401321D01*
X85158894Y-81401318D01*
X85169499Y-81297516D01*
X85169500Y-81297516D01*
X85169500Y-81026000D01*
X84328000Y-81026000D01*
X84328000Y-82005000D01*
X83820000Y-82005000D01*
X83820000Y-80518000D01*
X84328000Y-80518000D01*
X85169500Y-80518000D01*
X85169500Y-80246483D01*
X85158894Y-80142681D01*
X85158893Y-80142678D01*
X85103157Y-79974474D01*
X85010134Y-79823660D01*
X85010129Y-79823654D01*
X84884845Y-79698370D01*
X84884839Y-79698365D01*
X84734025Y-79605342D01*
X84565821Y-79549606D01*
X84565818Y-79549605D01*
X84462016Y-79539000D01*
X84328000Y-79539000D01*
X84328000Y-80518000D01*
X83820000Y-80518000D01*
X83820000Y-79539000D01*
X83685983Y-79539000D01*
X83582181Y-79549605D01*
X83582178Y-79549606D01*
X83413974Y-79605342D01*
X83263160Y-79698365D01*
X83263154Y-79698370D01*
X83137870Y-79823654D01*
X83135657Y-79826454D01*
X83133649Y-79827875D01*
X83132675Y-79828850D01*
X83132508Y-79828683D01*
X83077716Y-79867482D01*
X83006791Y-79870672D01*
X82945400Y-79835011D01*
X82937983Y-79826450D01*
X82935528Y-79823345D01*
X82810158Y-79697975D01*
X82810152Y-79697970D01*
X82772273Y-79674606D01*
X82692352Y-79625310D01*
X82644875Y-79572525D01*
X82632500Y-79518070D01*
X82632500Y-75287594D01*
X82652502Y-75219473D01*
X82669405Y-75198499D01*
X84188499Y-73679405D01*
X84250811Y-73645379D01*
X84277594Y-73642500D01*
X99855360Y-73642500D01*
X99923481Y-73662502D01*
G37*
G04 #@! TD.AperFunction*
M02*
