G04 #@! TF.GenerationSoftware,KiCad,Pcbnew,8.0.2*
G04 #@! TF.CreationDate,2025-01-06T21:48:35+01:00*
G04 #@! TF.ProjectId,multicartridge-smd-top-dipswitch,6d756c74-6963-4617-9274-72696467652d,rev?*
G04 #@! TF.SameCoordinates,Original*
G04 #@! TF.FileFunction,Copper,L1,Top*
G04 #@! TF.FilePolarity,Positive*
%FSLAX46Y46*%
G04 Gerber Fmt 4.6, Leading zero omitted, Abs format (unit mm)*
G04 Created by KiCad (PCBNEW 8.0.2) date 2025-01-06 21:48:35*
%MOMM*%
%LPD*%
G01*
G04 APERTURE LIST*
G04 #@! TA.AperFunction,ComponentPad*
%ADD10C,2.000000*%
G04 #@! TD*
G04 #@! TA.AperFunction,ComponentPad*
%ADD11C,1.500000*%
G04 #@! TD*
G04 #@! TA.AperFunction,ComponentPad*
%ADD12R,1.700000X1.700000*%
G04 #@! TD*
G04 #@! TA.AperFunction,ComponentPad*
%ADD13O,1.700000X1.700000*%
G04 #@! TD*
G04 #@! TA.AperFunction,ComponentPad*
%ADD14R,1.422400X1.422400*%
G04 #@! TD*
G04 #@! TA.AperFunction,ComponentPad*
%ADD15C,1.422400*%
G04 #@! TD*
G04 #@! TA.AperFunction,SMDPad,CuDef*
%ADD16R,2.000000X10.000000*%
G04 #@! TD*
G04 #@! TA.AperFunction,ViaPad*
%ADD17C,0.800000*%
G04 #@! TD*
G04 #@! TA.AperFunction,Conductor*
%ADD18C,0.250000*%
G04 #@! TD*
G04 APERTURE END LIST*
D10*
X48747000Y-52345000D03*
X55247000Y-52345000D03*
X48747000Y-56845000D03*
X55247000Y-56845000D03*
D11*
X47498000Y-81661000D03*
X47498000Y-88370000D03*
X53445000Y-88370000D03*
X53467000Y-81407000D03*
D12*
X113792000Y-61849000D03*
D13*
X111252000Y-61849000D03*
X108712000Y-61849000D03*
X106172000Y-61849000D03*
X103632000Y-61849000D03*
X101092000Y-61849000D03*
D14*
X81915000Y-90170000D03*
D15*
X84455000Y-87630000D03*
X84455000Y-90170000D03*
X86995000Y-87630000D03*
X89535000Y-90170000D03*
X86995000Y-90170000D03*
X89535000Y-92710000D03*
X86995000Y-92710000D03*
X89535000Y-95250000D03*
X86995000Y-95250000D03*
X89535000Y-97790000D03*
X86995000Y-97790000D03*
X89535000Y-100330000D03*
X86995000Y-102870000D03*
X86995000Y-100330000D03*
X84455000Y-102870000D03*
X84455000Y-100330000D03*
X81915000Y-102870000D03*
X81915000Y-100330000D03*
X79375000Y-102870000D03*
X76835000Y-100330000D03*
X79375000Y-100330000D03*
X76835000Y-97790000D03*
X79375000Y-97790000D03*
X76835000Y-95250000D03*
X79375000Y-95250000D03*
X76835000Y-92710000D03*
X79375000Y-92710000D03*
X76835000Y-90170000D03*
X79375000Y-87630000D03*
X79375000Y-90170000D03*
X81915000Y-87630000D03*
D16*
X55465000Y-139192000D03*
X59425000Y-139192000D03*
X63385000Y-139192000D03*
X67345000Y-139192000D03*
X71305000Y-139192000D03*
X75265000Y-139192000D03*
X79225000Y-139192000D03*
X83185000Y-139192000D03*
X87145000Y-139192000D03*
X91105000Y-139192000D03*
X95065000Y-139192000D03*
X99025000Y-139192000D03*
X110905000Y-139192000D03*
D17*
X105664000Y-90678000D03*
X105664000Y-89191000D03*
X104013000Y-87630000D03*
X93790300Y-93746400D03*
X91341200Y-81228500D03*
X99985700Y-85484400D03*
X99985700Y-125847100D03*
X98701100Y-92065800D03*
X73277600Y-120014300D03*
X74010500Y-116935100D03*
X92175800Y-92956300D03*
X94060800Y-125810200D03*
X87904600Y-113840500D03*
X85668100Y-111660400D03*
X80780200Y-112956100D03*
X67345000Y-111953400D03*
X53721000Y-123698000D03*
X115951000Y-97536000D03*
X113284000Y-90170000D03*
X111760000Y-90170000D03*
X116586000Y-80137000D03*
X112268000Y-123317000D03*
X104902000Y-80645000D03*
X106172000Y-75946000D03*
X103886000Y-92710000D03*
X108458000Y-92710000D03*
X100711000Y-82931000D03*
X100711000Y-92710000D03*
D18*
X59654600Y-75219400D02*
X53467000Y-81407000D01*
X106917500Y-85741500D02*
X106917500Y-75663600D01*
X105664000Y-86995000D02*
X106917500Y-85741500D01*
X105664000Y-89191000D02*
X105664000Y-86995000D01*
X106917500Y-75663600D02*
X106473300Y-75219400D01*
X106473300Y-75219400D02*
X59654600Y-75219400D01*
X105664000Y-89191000D02*
X105664000Y-90678000D01*
X63075000Y-78740000D02*
X53445000Y-88370000D01*
X103632000Y-78740000D02*
X63075000Y-78740000D01*
X104013000Y-79121000D02*
X103632000Y-78740000D01*
X104013000Y-87630000D02*
X104013000Y-79121000D01*
X84197100Y-93746400D02*
X93790300Y-93746400D01*
X83160700Y-92710000D02*
X84197100Y-93746400D01*
X79375000Y-92710000D02*
X83160700Y-92710000D01*
X82951300Y-88097400D02*
X81915000Y-89133700D01*
X82951300Y-87660700D02*
X82951300Y-88097400D01*
X84382200Y-86229800D02*
X82951300Y-87660700D01*
X92767500Y-86229800D02*
X84382200Y-86229800D01*
X97298000Y-81699300D02*
X92767500Y-86229800D01*
X101224800Y-81699300D02*
X97298000Y-81699300D01*
X102469000Y-82943500D02*
X101224800Y-81699300D01*
X102469000Y-88524900D02*
X102469000Y-82943500D01*
X105374100Y-91430000D02*
X102469000Y-88524900D01*
X105943800Y-91430000D02*
X105374100Y-91430000D01*
X107406600Y-89967200D02*
X105943800Y-91430000D01*
X107406600Y-69338700D02*
X107406600Y-89967200D01*
X101092000Y-63024100D02*
X107406600Y-69338700D01*
X101092000Y-61849000D02*
X101092000Y-63024100D01*
X81915000Y-90170000D02*
X81915000Y-89133700D01*
X108712000Y-89298400D02*
X108712000Y-61849000D01*
X106130300Y-91880100D02*
X108712000Y-89298400D01*
X105187600Y-91880100D02*
X106130300Y-91880100D01*
X101541100Y-88233600D02*
X105187600Y-91880100D01*
X101541100Y-82677300D02*
X101541100Y-88233600D01*
X101056700Y-82192900D02*
X101541100Y-82677300D01*
X100412100Y-82192900D02*
X101056700Y-82192900D01*
X93705000Y-88900000D02*
X100412100Y-82192900D01*
X85725000Y-88900000D02*
X93705000Y-88900000D01*
X84455000Y-90170000D02*
X85725000Y-88900000D01*
X78105000Y-88900000D02*
X76835000Y-90170000D01*
X79581000Y-88900000D02*
X78105000Y-88900000D01*
X80645000Y-87836000D02*
X79581000Y-88900000D01*
X80645000Y-87353200D02*
X80645000Y-87836000D01*
X86769700Y-81228500D02*
X80645000Y-87353200D01*
X91341200Y-81228500D02*
X86769700Y-81228500D01*
X99985700Y-85484400D02*
X99985700Y-125847100D01*
X99025000Y-139192000D02*
X99025000Y-133866900D01*
X98701100Y-133543000D02*
X98701100Y-92065800D01*
X99025000Y-133866900D02*
X98701100Y-133543000D01*
X73277600Y-118731200D02*
X73277600Y-120014300D01*
X89535000Y-102473800D02*
X73277600Y-118731200D01*
X89535000Y-100330000D02*
X89535000Y-102473800D01*
X74437100Y-116935100D02*
X74010500Y-116935100D01*
X88053500Y-103318700D02*
X74437100Y-116935100D01*
X88053500Y-101388500D02*
X88053500Y-103318700D01*
X86995000Y-100330000D02*
X88053500Y-101388500D01*
X90885200Y-91665700D02*
X92175800Y-92956300D01*
X77879300Y-91665700D02*
X90885200Y-91665700D01*
X76835000Y-92710000D02*
X77879300Y-91665700D01*
X94060800Y-100204100D02*
X94060800Y-125810200D01*
X90146000Y-96289300D02*
X94060800Y-100204100D01*
X82037000Y-96289300D02*
X90146000Y-96289300D01*
X79961400Y-94213700D02*
X82037000Y-96289300D01*
X78881200Y-94213700D02*
X79961400Y-94213700D01*
X78105000Y-94989900D02*
X78881200Y-94213700D01*
X78105000Y-96520000D02*
X78105000Y-94989900D01*
X76835000Y-97790000D02*
X78105000Y-96520000D01*
X78321500Y-93763500D02*
X76835000Y-95250000D01*
X80372900Y-93763500D02*
X78321500Y-93763500D01*
X80823000Y-94213600D02*
X80372900Y-93763500D01*
X90033900Y-94213600D02*
X80823000Y-94213600D01*
X95065000Y-99244700D02*
X90033900Y-94213600D01*
X95065000Y-139192000D02*
X95065000Y-99244700D01*
X91105000Y-97886200D02*
X91105000Y-139192000D01*
X89961200Y-96742400D02*
X91105000Y-97886200D01*
X80867400Y-96742400D02*
X89961200Y-96742400D01*
X79375000Y-95250000D02*
X80867400Y-96742400D01*
X87145000Y-139192000D02*
X87145000Y-133866900D01*
X87904600Y-133107300D02*
X87904600Y-113840500D01*
X87145000Y-133866900D02*
X87904600Y-133107300D01*
X83185000Y-139192000D02*
X83185000Y-133866900D01*
X85668100Y-131383800D02*
X85668100Y-111660400D01*
X83185000Y-133866900D02*
X85668100Y-131383800D01*
X79225000Y-139192000D02*
X79225000Y-133866900D01*
X80780200Y-132311700D02*
X80780200Y-112956100D01*
X79225000Y-133866900D02*
X80780200Y-132311700D01*
X75265000Y-117380400D02*
X75265000Y-139192000D01*
X90595200Y-102050200D02*
X75265000Y-117380400D01*
X90595200Y-98850200D02*
X90595200Y-102050200D01*
X89535000Y-97790000D02*
X90595200Y-98850200D01*
X71305000Y-139192000D02*
X71305000Y-133866900D01*
X71305000Y-105860000D02*
X76835000Y-100330000D01*
X71305000Y-133866900D02*
X71305000Y-105860000D01*
X67345000Y-139192000D02*
X67345000Y-111953400D01*
X83401600Y-99276600D02*
X84455000Y-100330000D01*
X76414700Y-99276600D02*
X83401600Y-99276600D01*
X63385000Y-112306300D02*
X76414700Y-99276600D01*
X63385000Y-139192000D02*
X63385000Y-112306300D01*
X59425000Y-115540300D02*
X59425000Y-139192000D01*
X76138900Y-98826400D02*
X59425000Y-115540300D01*
X84417400Y-98826400D02*
X76138900Y-98826400D01*
X85725000Y-100134000D02*
X84417400Y-98826400D01*
X85725000Y-101600000D02*
X85725000Y-100134000D01*
X86995000Y-102870000D02*
X85725000Y-101600000D01*
X79375000Y-90170000D02*
X81915000Y-87630000D01*
X55465000Y-125442000D02*
X53721000Y-123698000D01*
X55465000Y-139192000D02*
X55465000Y-125442000D01*
X114427000Y-97536000D02*
X115951000Y-97536000D01*
X113284000Y-96393000D02*
X114427000Y-97536000D01*
X113284000Y-90170000D02*
X113284000Y-96393000D01*
X111760000Y-90170000D02*
X113284000Y-90170000D01*
X121031000Y-114554000D02*
X112268000Y-123317000D01*
X121031000Y-81534000D02*
X121031000Y-114554000D01*
X119634000Y-80137000D02*
X121031000Y-81534000D01*
X116586000Y-80137000D02*
X119634000Y-80137000D01*
X110905000Y-124680000D02*
X112268000Y-123317000D01*
X110905000Y-139192000D02*
X110905000Y-124680000D01*
X104902000Y-77216000D02*
X106172000Y-75946000D01*
X104902000Y-80645000D02*
X104902000Y-77216000D01*
X103886000Y-92710000D02*
X108458000Y-92710000D01*
X100711000Y-82931000D02*
X100711000Y-92710000D01*
X49022000Y-86846000D02*
X47498000Y-88370000D01*
X49022000Y-83947000D02*
X49022000Y-86846000D01*
X50673000Y-82296000D02*
X49022000Y-83947000D01*
X50673000Y-54271000D02*
X50673000Y-82296000D01*
X48747000Y-52345000D02*
X50673000Y-54271000D01*
G04 #@! TA.AperFunction,Conductor*
G36*
X97063621Y-44190502D02*
G01*
X97110114Y-44244158D01*
X97121500Y-44296500D01*
X97121500Y-56155563D01*
X97136436Y-56170499D01*
X97136438Y-56170500D01*
X97157562Y-56170500D01*
X122995500Y-56170500D01*
X123063621Y-56190502D01*
X123110114Y-56244158D01*
X123121500Y-56296500D01*
X123121500Y-65493500D01*
X123101498Y-65561621D01*
X123047842Y-65608114D01*
X122995500Y-65619500D01*
X122937774Y-65619500D01*
X122521106Y-65658110D01*
X122521102Y-65658110D01*
X122521099Y-65658111D01*
X122109778Y-65734999D01*
X122109770Y-65735001D01*
X121707299Y-65849516D01*
X121317106Y-66000676D01*
X120942511Y-66187203D01*
X120586760Y-66407474D01*
X120586745Y-66407484D01*
X120252815Y-66659656D01*
X120252808Y-66659661D01*
X119943569Y-66941569D01*
X119661661Y-67250808D01*
X119661656Y-67250815D01*
X119409484Y-67584745D01*
X119409474Y-67584760D01*
X119189203Y-67940511D01*
X119002676Y-68315106D01*
X118851516Y-68705299D01*
X118737001Y-69107770D01*
X118736999Y-69107778D01*
X118696803Y-69322813D01*
X118660110Y-69519106D01*
X118621500Y-69935774D01*
X118621500Y-70354226D01*
X118660110Y-70770894D01*
X118660111Y-70770900D01*
X118736999Y-71182221D01*
X118737001Y-71182229D01*
X118790287Y-71369505D01*
X118851516Y-71584701D01*
X119002678Y-71974897D01*
X119189199Y-72349481D01*
X119189201Y-72349485D01*
X119189203Y-72349488D01*
X119409474Y-72705239D01*
X119409484Y-72705254D01*
X119661656Y-73039184D01*
X119661661Y-73039191D01*
X119943569Y-73348430D01*
X120252808Y-73630338D01*
X120252811Y-73630340D01*
X120586743Y-73882514D01*
X120586745Y-73882515D01*
X120586760Y-73882525D01*
X120694601Y-73949297D01*
X120942519Y-74102801D01*
X121317103Y-74289322D01*
X121707299Y-74440484D01*
X122022662Y-74530213D01*
X122109770Y-74554998D01*
X122109778Y-74555000D01*
X122521106Y-74631890D01*
X122937774Y-74670500D01*
X122995500Y-74670500D01*
X123063621Y-74690502D01*
X123110114Y-74744158D01*
X123121500Y-74796500D01*
X123121500Y-77834438D01*
X123121501Y-83434439D01*
X123121501Y-94834438D01*
X123121500Y-100446437D01*
X123121500Y-115493500D01*
X123101498Y-115561621D01*
X123047842Y-115608114D01*
X122995500Y-115619500D01*
X122937774Y-115619500D01*
X122521106Y-115658110D01*
X122521102Y-115658110D01*
X122521099Y-115658111D01*
X122109778Y-115734999D01*
X122109770Y-115735001D01*
X121707299Y-115849516D01*
X121317106Y-116000676D01*
X120942511Y-116187203D01*
X120586760Y-116407474D01*
X120586745Y-116407484D01*
X120252815Y-116659656D01*
X120252808Y-116659661D01*
X119943569Y-116941569D01*
X119661661Y-117250808D01*
X119661656Y-117250815D01*
X119409484Y-117584745D01*
X119409474Y-117584760D01*
X119189203Y-117940511D01*
X119002676Y-118315106D01*
X118851516Y-118705299D01*
X118737001Y-119107770D01*
X118736999Y-119107778D01*
X118660111Y-119519099D01*
X118660110Y-119519106D01*
X118621500Y-119935774D01*
X118621500Y-120354226D01*
X118660110Y-120770894D01*
X118660111Y-120770900D01*
X118736999Y-121182221D01*
X118737001Y-121182229D01*
X118790287Y-121369505D01*
X118851516Y-121584701D01*
X119002678Y-121974897D01*
X119189199Y-122349481D01*
X119189201Y-122349485D01*
X119189203Y-122349488D01*
X119409474Y-122705239D01*
X119409484Y-122705254D01*
X119409486Y-122705257D01*
X119503088Y-122829206D01*
X119661656Y-123039184D01*
X119661661Y-123039191D01*
X119943569Y-123348430D01*
X120252808Y-123630338D01*
X120252811Y-123630340D01*
X120586743Y-123882514D01*
X120586745Y-123882515D01*
X120586760Y-123882525D01*
X120910661Y-124083075D01*
X120942519Y-124102801D01*
X121317103Y-124289322D01*
X121707299Y-124440484D01*
X122022662Y-124530213D01*
X122109770Y-124554998D01*
X122109778Y-124555000D01*
X122521106Y-124631890D01*
X122937774Y-124670500D01*
X122995500Y-124670500D01*
X123063621Y-124690502D01*
X123110114Y-124744158D01*
X123121500Y-124796500D01*
X123121500Y-132019000D01*
X123101498Y-132087121D01*
X123047842Y-132133614D01*
X122995500Y-132145000D01*
X99460600Y-132145000D01*
X99392479Y-132124998D01*
X99345986Y-132071342D01*
X99334600Y-132019000D01*
X99334600Y-126744249D01*
X99354602Y-126676128D01*
X99408258Y-126629635D01*
X99478532Y-126619531D01*
X99523603Y-126635132D01*
X99528943Y-126638215D01*
X99528945Y-126638216D01*
X99528948Y-126638218D01*
X99703412Y-126715894D01*
X99890213Y-126755600D01*
X100081187Y-126755600D01*
X100267988Y-126715894D01*
X100442452Y-126638218D01*
X100596953Y-126525966D01*
X100630180Y-126489064D01*
X100724734Y-126384051D01*
X100724735Y-126384049D01*
X100724740Y-126384044D01*
X100820227Y-126218656D01*
X100879242Y-126037028D01*
X100899204Y-125847100D01*
X100879242Y-125657172D01*
X100820227Y-125475544D01*
X100724740Y-125310156D01*
X100651563Y-125228884D01*
X100620846Y-125164876D01*
X100619200Y-125144574D01*
X100619200Y-86186924D01*
X100639202Y-86118803D01*
X100651558Y-86102620D01*
X100687965Y-86062185D01*
X100748410Y-86024948D01*
X100819394Y-86026300D01*
X100878378Y-86065814D01*
X100906636Y-86130945D01*
X100907600Y-86146498D01*
X100907600Y-88171206D01*
X100907600Y-88295994D01*
X100931945Y-88418385D01*
X100979700Y-88533675D01*
X101049029Y-88637433D01*
X101049031Y-88637435D01*
X104783761Y-92372167D01*
X104783766Y-92372171D01*
X104783767Y-92372172D01*
X104887525Y-92441501D01*
X105002815Y-92489255D01*
X105125206Y-92513600D01*
X105125207Y-92513600D01*
X106192693Y-92513600D01*
X106192694Y-92513600D01*
X106315085Y-92489255D01*
X106430375Y-92441500D01*
X106534133Y-92372171D01*
X108736304Y-90170000D01*
X110846496Y-90170000D01*
X110866457Y-90359927D01*
X110873827Y-90382608D01*
X110925473Y-90541556D01*
X110925476Y-90541561D01*
X111020958Y-90706941D01*
X111020965Y-90706951D01*
X111148744Y-90848864D01*
X111148747Y-90848866D01*
X111303248Y-90961118D01*
X111477712Y-91038794D01*
X111664513Y-91078500D01*
X111855487Y-91078500D01*
X112042288Y-91038794D01*
X112216752Y-90961118D01*
X112371253Y-90848866D01*
X112374563Y-90845190D01*
X112435009Y-90807950D01*
X112468200Y-90803500D01*
X112524500Y-90803500D01*
X112592621Y-90823502D01*
X112639114Y-90877158D01*
X112650500Y-90929500D01*
X112650500Y-96330606D01*
X112650500Y-96455394D01*
X112674845Y-96577785D01*
X112722600Y-96693075D01*
X112791929Y-96796833D01*
X114023167Y-98028071D01*
X114126925Y-98097400D01*
X114242215Y-98145155D01*
X114364606Y-98169500D01*
X114489394Y-98169500D01*
X115242800Y-98169500D01*
X115310921Y-98189502D01*
X115336437Y-98211190D01*
X115339747Y-98214866D01*
X115494248Y-98327118D01*
X115668712Y-98404794D01*
X115855513Y-98444500D01*
X116046487Y-98444500D01*
X116233288Y-98404794D01*
X116407752Y-98327118D01*
X116562253Y-98214866D01*
X116567754Y-98208757D01*
X116690034Y-98072951D01*
X116690035Y-98072949D01*
X116690040Y-98072944D01*
X116785527Y-97907556D01*
X116844542Y-97725928D01*
X116864504Y-97536000D01*
X116844542Y-97346072D01*
X116785527Y-97164444D01*
X116690040Y-96999056D01*
X116690038Y-96999054D01*
X116690034Y-96999048D01*
X116562255Y-96857135D01*
X116407752Y-96744882D01*
X116233288Y-96667206D01*
X116046487Y-96627500D01*
X115855513Y-96627500D01*
X115668711Y-96667206D01*
X115494247Y-96744882D01*
X115339747Y-96857133D01*
X115336437Y-96860810D01*
X115275991Y-96898050D01*
X115242800Y-96902500D01*
X114741594Y-96902500D01*
X114673473Y-96882498D01*
X114652499Y-96865595D01*
X113954405Y-96167501D01*
X113920379Y-96105189D01*
X113917500Y-96078406D01*
X113917500Y-90872524D01*
X113937502Y-90804403D01*
X113949858Y-90788220D01*
X114023040Y-90706944D01*
X114118527Y-90541556D01*
X114177542Y-90359928D01*
X114197504Y-90170000D01*
X114177542Y-89980072D01*
X114118527Y-89798444D01*
X114023040Y-89633056D01*
X114023038Y-89633054D01*
X114023034Y-89633048D01*
X113895255Y-89491135D01*
X113740752Y-89378882D01*
X113566288Y-89301206D01*
X113379487Y-89261500D01*
X113188513Y-89261500D01*
X113001711Y-89301206D01*
X112827247Y-89378882D01*
X112672747Y-89491133D01*
X112669437Y-89494810D01*
X112608991Y-89532050D01*
X112575800Y-89536500D01*
X112468200Y-89536500D01*
X112400079Y-89516498D01*
X112374563Y-89494810D01*
X112371252Y-89491133D01*
X112216752Y-89378882D01*
X112042288Y-89301206D01*
X111855487Y-89261500D01*
X111664513Y-89261500D01*
X111477711Y-89301206D01*
X111303247Y-89378882D01*
X111148744Y-89491135D01*
X111020965Y-89633048D01*
X111020958Y-89633058D01*
X110925476Y-89798438D01*
X110925473Y-89798445D01*
X110866457Y-89980072D01*
X110846496Y-90170000D01*
X108736304Y-90170000D01*
X109204071Y-89702233D01*
X109273400Y-89598475D01*
X109321155Y-89483185D01*
X109345500Y-89360794D01*
X109345500Y-89236006D01*
X109345500Y-63125920D01*
X109365502Y-63057799D01*
X109411527Y-63015108D01*
X109457576Y-62990189D01*
X109635240Y-62851906D01*
X109787722Y-62686268D01*
X109876518Y-62550354D01*
X109930520Y-62504268D01*
X110000868Y-62494692D01*
X110065225Y-62524669D01*
X110087480Y-62550353D01*
X110120607Y-62601058D01*
X110176275Y-62686265D01*
X110176279Y-62686270D01*
X110328762Y-62851908D01*
X110383331Y-62894381D01*
X110506424Y-62990189D01*
X110704426Y-63097342D01*
X110704427Y-63097342D01*
X110704428Y-63097343D01*
X110787671Y-63125920D01*
X110917365Y-63170444D01*
X111139431Y-63207500D01*
X111139435Y-63207500D01*
X111364565Y-63207500D01*
X111364569Y-63207500D01*
X111586635Y-63170444D01*
X111799574Y-63097342D01*
X111997576Y-62990189D01*
X112175240Y-62851906D01*
X112236245Y-62785637D01*
X112297096Y-62749067D01*
X112368061Y-62751200D01*
X112426606Y-62791362D01*
X112447000Y-62826941D01*
X112491111Y-62945204D01*
X112491112Y-62945207D01*
X112578738Y-63062261D01*
X112695792Y-63149887D01*
X112695794Y-63149888D01*
X112695796Y-63149889D01*
X112750900Y-63170442D01*
X112832795Y-63200988D01*
X112832803Y-63200990D01*
X112893350Y-63207499D01*
X112893355Y-63207499D01*
X112893362Y-63207500D01*
X112893368Y-63207500D01*
X114690632Y-63207500D01*
X114690638Y-63207500D01*
X114690645Y-63207499D01*
X114690649Y-63207499D01*
X114751196Y-63200990D01*
X114751199Y-63200989D01*
X114751201Y-63200989D01*
X114888204Y-63149889D01*
X114958399Y-63097342D01*
X115005261Y-63062261D01*
X115092887Y-62945207D01*
X115092887Y-62945206D01*
X115092889Y-62945204D01*
X115143989Y-62808201D01*
X115145800Y-62791362D01*
X115150499Y-62747649D01*
X115150500Y-62747632D01*
X115150500Y-60950367D01*
X115150499Y-60950350D01*
X115143990Y-60889803D01*
X115143988Y-60889795D01*
X115092889Y-60752797D01*
X115092887Y-60752792D01*
X115005261Y-60635738D01*
X114888207Y-60548112D01*
X114888202Y-60548110D01*
X114751204Y-60497011D01*
X114751196Y-60497009D01*
X114690649Y-60490500D01*
X114690638Y-60490500D01*
X112893362Y-60490500D01*
X112893350Y-60490500D01*
X112832803Y-60497009D01*
X112832795Y-60497011D01*
X112695797Y-60548110D01*
X112695792Y-60548112D01*
X112578738Y-60635738D01*
X112491112Y-60752792D01*
X112491111Y-60752795D01*
X112447000Y-60871058D01*
X112404453Y-60927893D01*
X112337932Y-60952703D01*
X112268558Y-60937611D01*
X112236246Y-60912363D01*
X112175240Y-60846094D01*
X112175239Y-60846093D01*
X112175237Y-60846091D01*
X112055372Y-60752796D01*
X111997576Y-60707811D01*
X111799574Y-60600658D01*
X111799572Y-60600657D01*
X111799571Y-60600656D01*
X111586639Y-60527557D01*
X111586630Y-60527555D01*
X111542476Y-60520187D01*
X111364569Y-60490500D01*
X111139431Y-60490500D01*
X110991211Y-60515233D01*
X110917369Y-60527555D01*
X110917360Y-60527557D01*
X110704428Y-60600656D01*
X110704426Y-60600658D01*
X110506426Y-60707810D01*
X110506424Y-60707811D01*
X110328762Y-60846091D01*
X110176279Y-61011729D01*
X110087483Y-61147643D01*
X110033479Y-61193731D01*
X109963131Y-61203306D01*
X109898774Y-61173329D01*
X109876517Y-61147643D01*
X109787720Y-61011729D01*
X109635237Y-60846091D01*
X109515372Y-60752796D01*
X109457576Y-60707811D01*
X109259574Y-60600658D01*
X109259572Y-60600657D01*
X109259571Y-60600656D01*
X109046639Y-60527557D01*
X109046630Y-60527555D01*
X109002476Y-60520187D01*
X108824569Y-60490500D01*
X108599431Y-60490500D01*
X108451211Y-60515233D01*
X108377369Y-60527555D01*
X108377360Y-60527557D01*
X108164428Y-60600656D01*
X108164426Y-60600658D01*
X107966426Y-60707810D01*
X107966424Y-60707811D01*
X107788762Y-60846091D01*
X107636279Y-61011729D01*
X107547483Y-61147643D01*
X107493479Y-61193731D01*
X107423131Y-61203306D01*
X107358774Y-61173329D01*
X107336517Y-61147643D01*
X107247720Y-61011729D01*
X107095237Y-60846091D01*
X106975372Y-60752796D01*
X106917576Y-60707811D01*
X106719574Y-60600658D01*
X106719572Y-60600657D01*
X106719571Y-60600656D01*
X106506639Y-60527557D01*
X106506630Y-60527555D01*
X106462476Y-60520187D01*
X106284569Y-60490500D01*
X106059431Y-60490500D01*
X105911211Y-60515233D01*
X105837369Y-60527555D01*
X105837360Y-60527557D01*
X105624428Y-60600656D01*
X105624426Y-60600658D01*
X105426426Y-60707810D01*
X105426424Y-60707811D01*
X105248762Y-60846091D01*
X105096279Y-61011729D01*
X105007483Y-61147643D01*
X104953479Y-61193731D01*
X104883131Y-61203306D01*
X104818774Y-61173329D01*
X104796517Y-61147643D01*
X104707720Y-61011729D01*
X104555237Y-60846091D01*
X104435372Y-60752796D01*
X104377576Y-60707811D01*
X104179574Y-60600658D01*
X104179572Y-60600657D01*
X104179571Y-60600656D01*
X103966639Y-60527557D01*
X103966630Y-60527555D01*
X103922476Y-60520187D01*
X103744569Y-60490500D01*
X103519431Y-60490500D01*
X103371211Y-60515233D01*
X103297369Y-60527555D01*
X103297360Y-60527557D01*
X103084428Y-60600656D01*
X103084426Y-60600658D01*
X102886426Y-60707810D01*
X102886424Y-60707811D01*
X102708762Y-60846091D01*
X102556279Y-61011729D01*
X102467483Y-61147643D01*
X102413479Y-61193731D01*
X102343131Y-61203306D01*
X102278774Y-61173329D01*
X102256517Y-61147643D01*
X102167720Y-61011729D01*
X102015237Y-60846091D01*
X101895372Y-60752796D01*
X101837576Y-60707811D01*
X101639574Y-60600658D01*
X101639572Y-60600657D01*
X101639571Y-60600656D01*
X101426639Y-60527557D01*
X101426630Y-60527555D01*
X101382476Y-60520187D01*
X101204569Y-60490500D01*
X100979431Y-60490500D01*
X100831211Y-60515233D01*
X100757369Y-60527555D01*
X100757360Y-60527557D01*
X100544428Y-60600656D01*
X100544426Y-60600658D01*
X100346426Y-60707810D01*
X100346424Y-60707811D01*
X100168762Y-60846091D01*
X100016279Y-61011729D01*
X100016275Y-61011734D01*
X99893141Y-61200206D01*
X99802703Y-61406386D01*
X99802702Y-61406387D01*
X99747437Y-61624624D01*
X99728844Y-61849000D01*
X99747437Y-62073375D01*
X99802702Y-62291612D01*
X99802703Y-62291613D01*
X99893141Y-62497793D01*
X100016275Y-62686265D01*
X100016279Y-62686270D01*
X100168762Y-62851908D01*
X100239541Y-62906998D01*
X100346424Y-62990189D01*
X100398493Y-63018367D01*
X100448881Y-63068377D01*
X100462100Y-63104596D01*
X100482845Y-63208885D01*
X100530600Y-63324175D01*
X100599929Y-63427933D01*
X100599931Y-63427935D01*
X106736195Y-69564199D01*
X106770221Y-69626511D01*
X106773100Y-69653294D01*
X106773100Y-74479591D01*
X106753098Y-74547712D01*
X106699442Y-74594205D01*
X106629168Y-74604309D01*
X106622519Y-74603170D01*
X106535699Y-74585900D01*
X106535694Y-74585900D01*
X59716994Y-74585900D01*
X59592206Y-74585900D01*
X59592203Y-74585900D01*
X59519244Y-74600413D01*
X59469815Y-74610245D01*
X59469813Y-74610245D01*
X59469812Y-74610246D01*
X59417560Y-74631890D01*
X59354801Y-74657886D01*
X59354523Y-74658001D01*
X59250771Y-74727326D01*
X59250764Y-74727331D01*
X53839422Y-80138672D01*
X53777110Y-80172698D01*
X53717718Y-80171284D01*
X53686372Y-80162885D01*
X53467000Y-80143693D01*
X53247629Y-80162885D01*
X53034926Y-80219879D01*
X53034920Y-80219881D01*
X52835346Y-80312944D01*
X52654965Y-80439248D01*
X52654959Y-80439253D01*
X52499253Y-80594959D01*
X52499248Y-80594965D01*
X52372944Y-80775346D01*
X52279881Y-80974920D01*
X52279879Y-80974926D01*
X52222885Y-81187629D01*
X52203693Y-81407000D01*
X52222885Y-81626370D01*
X52279879Y-81839073D01*
X52279881Y-81839079D01*
X52311723Y-81907364D01*
X52372944Y-82038654D01*
X52441807Y-82137000D01*
X52499251Y-82219038D01*
X52499254Y-82219042D01*
X52654957Y-82374745D01*
X52654961Y-82374748D01*
X52654962Y-82374749D01*
X52835346Y-82501056D01*
X53034924Y-82594120D01*
X53247629Y-82651115D01*
X53467000Y-82670307D01*
X53686371Y-82651115D01*
X53899076Y-82594120D01*
X54098654Y-82501056D01*
X54279038Y-82374749D01*
X54434749Y-82219038D01*
X54561056Y-82038654D01*
X54654120Y-81839076D01*
X54711115Y-81626371D01*
X54730307Y-81407000D01*
X54711115Y-81187629D01*
X54702715Y-81156281D01*
X54704403Y-81085309D01*
X54735324Y-81034578D01*
X59880099Y-75889805D01*
X59942411Y-75855779D01*
X59969194Y-75852900D01*
X106158000Y-75852900D01*
X106226121Y-75872902D01*
X106272614Y-75926558D01*
X106284000Y-75978900D01*
X106284000Y-85426905D01*
X106263998Y-85495026D01*
X106247095Y-85516000D01*
X105260167Y-86502929D01*
X105171931Y-86591164D01*
X105171929Y-86591167D01*
X105102600Y-86694925D01*
X105082821Y-86742675D01*
X105054846Y-86810212D01*
X105030500Y-86932603D01*
X105030500Y-87105123D01*
X105010498Y-87173244D01*
X104956842Y-87219737D01*
X104886568Y-87229841D01*
X104821988Y-87200347D01*
X104795381Y-87168123D01*
X104752042Y-87093059D01*
X104752041Y-87093058D01*
X104752040Y-87093056D01*
X104678863Y-87011784D01*
X104648146Y-86947776D01*
X104646500Y-86927474D01*
X104646500Y-79058607D01*
X104646499Y-79058603D01*
X104622155Y-78936215D01*
X104574400Y-78820925D01*
X104505071Y-78717167D01*
X104416833Y-78628929D01*
X104035833Y-78247929D01*
X103932075Y-78178600D01*
X103816785Y-78130845D01*
X103743086Y-78116185D01*
X103694396Y-78106500D01*
X103694394Y-78106500D01*
X63012606Y-78106500D01*
X63012600Y-78106500D01*
X62890217Y-78130844D01*
X62890209Y-78130846D01*
X62856447Y-78144830D01*
X62856447Y-78144831D01*
X62774925Y-78178599D01*
X62671171Y-78247925D01*
X62671164Y-78247930D01*
X53817422Y-87101672D01*
X53755110Y-87135698D01*
X53695718Y-87134284D01*
X53664372Y-87125885D01*
X53445000Y-87106693D01*
X53225629Y-87125885D01*
X53012926Y-87182879D01*
X53012920Y-87182881D01*
X52813346Y-87275944D01*
X52632965Y-87402248D01*
X52632959Y-87402253D01*
X52477253Y-87557959D01*
X52477248Y-87557965D01*
X52350944Y-87738346D01*
X52257881Y-87937920D01*
X52257879Y-87937926D01*
X52226286Y-88055832D01*
X52200885Y-88150629D01*
X52181693Y-88370000D01*
X52200885Y-88589371D01*
X52218218Y-88654056D01*
X52257879Y-88802073D01*
X52257881Y-88802079D01*
X52350825Y-89001399D01*
X52350944Y-89001654D01*
X52421663Y-89102650D01*
X52477251Y-89182038D01*
X52477254Y-89182042D01*
X52632957Y-89337745D01*
X52632961Y-89337748D01*
X52632962Y-89337749D01*
X52813346Y-89464056D01*
X53012924Y-89557120D01*
X53225629Y-89614115D01*
X53445000Y-89633307D01*
X53664371Y-89614115D01*
X53877076Y-89557120D01*
X54076654Y-89464056D01*
X54257038Y-89337749D01*
X54412749Y-89182038D01*
X54539056Y-89001654D01*
X54632120Y-88802076D01*
X54689115Y-88589371D01*
X54708307Y-88370000D01*
X54689115Y-88150629D01*
X54680715Y-88119281D01*
X54682403Y-88048309D01*
X54713324Y-87997578D01*
X63300500Y-79410405D01*
X63362812Y-79376379D01*
X63389595Y-79373500D01*
X103253500Y-79373500D01*
X103321621Y-79393502D01*
X103368114Y-79447158D01*
X103379500Y-79499500D01*
X103379500Y-86927474D01*
X103359498Y-86995595D01*
X103347136Y-87011785D01*
X103322136Y-87039550D01*
X103261689Y-87076789D01*
X103190706Y-87075437D01*
X103131721Y-87035923D01*
X103103464Y-86970792D01*
X103102500Y-86955239D01*
X103102500Y-82881107D01*
X103102499Y-82881103D01*
X103098959Y-82863305D01*
X103078155Y-82758715D01*
X103064168Y-82724947D01*
X103030401Y-82643425D01*
X102961072Y-82539667D01*
X101628633Y-81207229D01*
X101524875Y-81137900D01*
X101409585Y-81090145D01*
X101335886Y-81075485D01*
X101287196Y-81065800D01*
X101287194Y-81065800D01*
X97235606Y-81065800D01*
X97235600Y-81065800D01*
X97113217Y-81090144D01*
X97113209Y-81090146D01*
X97079447Y-81104130D01*
X97079447Y-81104131D01*
X96997925Y-81137899D01*
X96894167Y-81207227D01*
X96894161Y-81207232D01*
X92542001Y-85559395D01*
X92479689Y-85593420D01*
X92452906Y-85596300D01*
X84319803Y-85596300D01*
X84246768Y-85610828D01*
X84197415Y-85620645D01*
X84197413Y-85620645D01*
X84197412Y-85620646D01*
X84082123Y-85668401D01*
X83978371Y-85737726D01*
X83978364Y-85737731D01*
X82952101Y-86763994D01*
X82889789Y-86798020D01*
X82818973Y-86792955D01*
X82773911Y-86763994D01*
X82702007Y-86692090D01*
X82701998Y-86692083D01*
X82530933Y-86572302D01*
X82486604Y-86516845D01*
X82479295Y-86446226D01*
X82511325Y-86382865D01*
X82514074Y-86380028D01*
X86995200Y-81898905D01*
X87057512Y-81864879D01*
X87084295Y-81862000D01*
X90633000Y-81862000D01*
X90701121Y-81882002D01*
X90726637Y-81903690D01*
X90729947Y-81907366D01*
X90884448Y-82019618D01*
X91058912Y-82097294D01*
X91245713Y-82137000D01*
X91436687Y-82137000D01*
X91623488Y-82097294D01*
X91797952Y-82019618D01*
X91952453Y-81907366D01*
X91955763Y-81903690D01*
X92080234Y-81765451D01*
X92080235Y-81765449D01*
X92080240Y-81765444D01*
X92175727Y-81600056D01*
X92234742Y-81418428D01*
X92254704Y-81228500D01*
X92234742Y-81038572D01*
X92175727Y-80856944D01*
X92080240Y-80691556D01*
X92080238Y-80691554D01*
X92080234Y-80691548D01*
X91952455Y-80549635D01*
X91797952Y-80437382D01*
X91623488Y-80359706D01*
X91436687Y-80320000D01*
X91245713Y-80320000D01*
X91058911Y-80359706D01*
X90884447Y-80437382D01*
X90729947Y-80549633D01*
X90726637Y-80553310D01*
X90666191Y-80590550D01*
X90633000Y-80595000D01*
X86707303Y-80595000D01*
X86634268Y-80609528D01*
X86584915Y-80619345D01*
X86584913Y-80619345D01*
X86584912Y-80619346D01*
X86469624Y-80667100D01*
X86365866Y-80736428D01*
X86365862Y-80736431D01*
X80375200Y-86727093D01*
X80312888Y-86761119D01*
X80242073Y-86756054D01*
X80197010Y-86727093D01*
X80162007Y-86692090D01*
X80161998Y-86692083D01*
X79987180Y-86569674D01*
X79987178Y-86569673D01*
X79793758Y-86479480D01*
X79793753Y-86479478D01*
X79669653Y-86446226D01*
X79587608Y-86424242D01*
X79375000Y-86405641D01*
X79162392Y-86424242D01*
X79107156Y-86439042D01*
X78956246Y-86479478D01*
X78956241Y-86479480D01*
X78762820Y-86569674D01*
X78588000Y-86692084D01*
X78587994Y-86692089D01*
X78437089Y-86842994D01*
X78437084Y-86843000D01*
X78314674Y-87017820D01*
X78224480Y-87211241D01*
X78224478Y-87211246D01*
X78195659Y-87318801D01*
X78169242Y-87417392D01*
X78150641Y-87630000D01*
X78169242Y-87842608D01*
X78194781Y-87937920D01*
X78224478Y-88048753D01*
X78224482Y-88048763D01*
X78242429Y-88087251D01*
X78253090Y-88157443D01*
X78224109Y-88222255D01*
X78164689Y-88261111D01*
X78128234Y-88266500D01*
X78042603Y-88266500D01*
X77969568Y-88281028D01*
X77920215Y-88290845D01*
X77920213Y-88290845D01*
X77920212Y-88290846D01*
X77804923Y-88338601D01*
X77701171Y-88407926D01*
X77701169Y-88407927D01*
X77175741Y-88933353D01*
X77113429Y-88967378D01*
X77054035Y-88965964D01*
X77047611Y-88964242D01*
X76835000Y-88945641D01*
X76622392Y-88964242D01*
X76567156Y-88979042D01*
X76416246Y-89019478D01*
X76416241Y-89019480D01*
X76222820Y-89109674D01*
X76048000Y-89232084D01*
X76047994Y-89232089D01*
X75897089Y-89382994D01*
X75897084Y-89383000D01*
X75774674Y-89557820D01*
X75684480Y-89751241D01*
X75684478Y-89751246D01*
X75659315Y-89845158D01*
X75629242Y-89957392D01*
X75610641Y-90170000D01*
X75629242Y-90382608D01*
X75658842Y-90493080D01*
X75684478Y-90588753D01*
X75684480Y-90588758D01*
X75774673Y-90782178D01*
X75774674Y-90782180D01*
X75897083Y-90956998D01*
X75897090Y-90957007D01*
X76047992Y-91107909D01*
X76047996Y-91107912D01*
X76047997Y-91107913D01*
X76222820Y-91230326D01*
X76317951Y-91274686D01*
X76416249Y-91320523D01*
X76419208Y-91321600D01*
X76420328Y-91322425D01*
X76421231Y-91322846D01*
X76421146Y-91323027D01*
X76476378Y-91363696D01*
X76501714Y-91430018D01*
X76487171Y-91499510D01*
X76437367Y-91550107D01*
X76419208Y-91558400D01*
X76416249Y-91559476D01*
X76222820Y-91649674D01*
X76048000Y-91772084D01*
X76047994Y-91772089D01*
X75897089Y-91922994D01*
X75897084Y-91923000D01*
X75774674Y-92097820D01*
X75684480Y-92291241D01*
X75684478Y-92291246D01*
X75660384Y-92381168D01*
X75629242Y-92497392D01*
X75610641Y-92710000D01*
X75629242Y-92922608D01*
X75637997Y-92955282D01*
X75684478Y-93128753D01*
X75684480Y-93128758D01*
X75774673Y-93322178D01*
X75774674Y-93322180D01*
X75897083Y-93496998D01*
X75897090Y-93497007D01*
X76047992Y-93647909D01*
X76047996Y-93647912D01*
X76047997Y-93647913D01*
X76222820Y-93770326D01*
X76372876Y-93840298D01*
X76416249Y-93860523D01*
X76419208Y-93861600D01*
X76420328Y-93862425D01*
X76421231Y-93862846D01*
X76421146Y-93863027D01*
X76476378Y-93903696D01*
X76501714Y-93970018D01*
X76487171Y-94039510D01*
X76437367Y-94090107D01*
X76419208Y-94098400D01*
X76416249Y-94099476D01*
X76222820Y-94189674D01*
X76048000Y-94312084D01*
X76047994Y-94312089D01*
X75897089Y-94462994D01*
X75897084Y-94463000D01*
X75774674Y-94637820D01*
X75684480Y-94831241D01*
X75684478Y-94831246D01*
X75660494Y-94920758D01*
X75629242Y-95037392D01*
X75610641Y-95250000D01*
X75629242Y-95462608D01*
X75629243Y-95462611D01*
X75684478Y-95668753D01*
X75684480Y-95668758D01*
X75774673Y-95862178D01*
X75774674Y-95862180D01*
X75897083Y-96036998D01*
X75897090Y-96037007D01*
X76047992Y-96187909D01*
X76047996Y-96187912D01*
X76047997Y-96187913D01*
X76222820Y-96310326D01*
X76372876Y-96380298D01*
X76416249Y-96400523D01*
X76419208Y-96401600D01*
X76420328Y-96402425D01*
X76421231Y-96402846D01*
X76421146Y-96403027D01*
X76476378Y-96443696D01*
X76501714Y-96510018D01*
X76487171Y-96579510D01*
X76437367Y-96630107D01*
X76419208Y-96638400D01*
X76416249Y-96639476D01*
X76222820Y-96729674D01*
X76048000Y-96852084D01*
X76047994Y-96852089D01*
X75897089Y-97002994D01*
X75897084Y-97003000D01*
X75774674Y-97177820D01*
X75684480Y-97371241D01*
X75684478Y-97371246D01*
X75665500Y-97442075D01*
X75629242Y-97577392D01*
X75610641Y-97790000D01*
X75629242Y-98002608D01*
X75658039Y-98110080D01*
X75683685Y-98205795D01*
X75684479Y-98208755D01*
X75703215Y-98248935D01*
X75713876Y-98319125D01*
X75684896Y-98383938D01*
X75678115Y-98391279D01*
X59021167Y-115048229D01*
X58932931Y-115136464D01*
X58932926Y-115136471D01*
X58863601Y-115240223D01*
X58815846Y-115355512D01*
X58791500Y-115477903D01*
X58791500Y-132019000D01*
X58771498Y-132087121D01*
X58717842Y-132133614D01*
X58665500Y-132145000D01*
X56224500Y-132145000D01*
X56156379Y-132124998D01*
X56109886Y-132071342D01*
X56098500Y-132019000D01*
X56098500Y-125379607D01*
X56098499Y-125379603D01*
X56074155Y-125257215D01*
X56026400Y-125141925D01*
X55957071Y-125038167D01*
X55868833Y-124949929D01*
X54668122Y-123749218D01*
X54634096Y-123686906D01*
X54631907Y-123673293D01*
X54627392Y-123630338D01*
X54614542Y-123508072D01*
X54555527Y-123326444D01*
X54460040Y-123161056D01*
X54460038Y-123161054D01*
X54460034Y-123161048D01*
X54332255Y-123019135D01*
X54177752Y-122906882D01*
X54003288Y-122829206D01*
X53816487Y-122789500D01*
X53625513Y-122789500D01*
X53438711Y-122829206D01*
X53264247Y-122906882D01*
X53109744Y-123019135D01*
X52981965Y-123161048D01*
X52981958Y-123161058D01*
X52886476Y-123326438D01*
X52886473Y-123326445D01*
X52827457Y-123508072D01*
X52807496Y-123698000D01*
X52827457Y-123887927D01*
X52847398Y-123949297D01*
X52886473Y-124069556D01*
X52886476Y-124069561D01*
X52981958Y-124234941D01*
X52981965Y-124234951D01*
X53109744Y-124376864D01*
X53109747Y-124376866D01*
X53264248Y-124489118D01*
X53438712Y-124566794D01*
X53625513Y-124606500D01*
X53681406Y-124606500D01*
X53749527Y-124626502D01*
X53770501Y-124643405D01*
X54794595Y-125667499D01*
X54828621Y-125729811D01*
X54831500Y-125756594D01*
X54831500Y-132019000D01*
X54811498Y-132087121D01*
X54757842Y-132133614D01*
X54705500Y-132145000D01*
X43298500Y-132145000D01*
X43230379Y-132124998D01*
X43183886Y-132071342D01*
X43172500Y-132019000D01*
X43172500Y-124796500D01*
X43192502Y-124728379D01*
X43246158Y-124681886D01*
X43298500Y-124670500D01*
X43356219Y-124670500D01*
X43356226Y-124670500D01*
X43772894Y-124631890D01*
X44184222Y-124555000D01*
X44586701Y-124440484D01*
X44976897Y-124289322D01*
X45351481Y-124102801D01*
X45707257Y-123882514D01*
X46041189Y-123630340D01*
X46350430Y-123348430D01*
X46632340Y-123039189D01*
X46884514Y-122705257D01*
X47104801Y-122349481D01*
X47291322Y-121974897D01*
X47442484Y-121584701D01*
X47557000Y-121182222D01*
X47633890Y-120770894D01*
X47672500Y-120354226D01*
X47672500Y-119935774D01*
X47633890Y-119519106D01*
X47557000Y-119107778D01*
X47442484Y-118705299D01*
X47291322Y-118315103D01*
X47104801Y-117940519D01*
X47011281Y-117789479D01*
X46884525Y-117584760D01*
X46884515Y-117584745D01*
X46884514Y-117584743D01*
X46632340Y-117250811D01*
X46632338Y-117250808D01*
X46350430Y-116941569D01*
X46041191Y-116659661D01*
X46041184Y-116659656D01*
X45707254Y-116407484D01*
X45707239Y-116407474D01*
X45351488Y-116187203D01*
X45351485Y-116187201D01*
X45351481Y-116187199D01*
X44976897Y-116000678D01*
X44976893Y-116000676D01*
X44767126Y-115919412D01*
X44586701Y-115849516D01*
X44496970Y-115823985D01*
X44184229Y-115735001D01*
X44184221Y-115734999D01*
X43772900Y-115658111D01*
X43772898Y-115658110D01*
X43772894Y-115658110D01*
X43356226Y-115619500D01*
X43356219Y-115619500D01*
X43298500Y-115619500D01*
X43230379Y-115599498D01*
X43183886Y-115545842D01*
X43172500Y-115493500D01*
X43172500Y-89421197D01*
X46806011Y-89421197D01*
X46806011Y-89421198D01*
X46866597Y-89463621D01*
X47066092Y-89556647D01*
X47066096Y-89556649D01*
X47278712Y-89613619D01*
X47498000Y-89632804D01*
X47717287Y-89613619D01*
X47929903Y-89556649D01*
X47929907Y-89556647D01*
X48129399Y-89463622D01*
X48189987Y-89421197D01*
X48189987Y-89421196D01*
X47498001Y-88729210D01*
X47498000Y-88729210D01*
X46806011Y-89421197D01*
X43172500Y-89421197D01*
X43172500Y-88370000D01*
X46235195Y-88370000D01*
X46254380Y-88589287D01*
X46311350Y-88801903D01*
X46311352Y-88801907D01*
X46404379Y-89001403D01*
X46446800Y-89061987D01*
X47138790Y-88369999D01*
X47092713Y-88323922D01*
X47148000Y-88323922D01*
X47148000Y-88416078D01*
X47171852Y-88505095D01*
X47217930Y-88584905D01*
X47283095Y-88650070D01*
X47362905Y-88696148D01*
X47451922Y-88720000D01*
X47544078Y-88720000D01*
X47633095Y-88696148D01*
X47712905Y-88650070D01*
X47778070Y-88584905D01*
X47824148Y-88505095D01*
X47848000Y-88416078D01*
X47848000Y-88369999D01*
X47857210Y-88369999D01*
X47857210Y-88370001D01*
X48549196Y-89061987D01*
X48549197Y-89061987D01*
X48591622Y-89001399D01*
X48684647Y-88801907D01*
X48684649Y-88801903D01*
X48741619Y-88589287D01*
X48760804Y-88370000D01*
X48741619Y-88150712D01*
X48684649Y-87938096D01*
X48684647Y-87938092D01*
X48591619Y-87738594D01*
X48549199Y-87678011D01*
X48549197Y-87678011D01*
X47857210Y-88369999D01*
X47848000Y-88369999D01*
X47848000Y-88323922D01*
X47824148Y-88234905D01*
X47778070Y-88155095D01*
X47712905Y-88089930D01*
X47633095Y-88043852D01*
X47544078Y-88020000D01*
X47451922Y-88020000D01*
X47362905Y-88043852D01*
X47283095Y-88089930D01*
X47217930Y-88155095D01*
X47171852Y-88234905D01*
X47148000Y-88323922D01*
X47092713Y-88323922D01*
X46446801Y-87678010D01*
X46404378Y-87738598D01*
X46311352Y-87938092D01*
X46311350Y-87938096D01*
X46254380Y-88150712D01*
X46235195Y-88370000D01*
X43172500Y-88370000D01*
X43172500Y-87318801D01*
X46806010Y-87318801D01*
X47497999Y-88010790D01*
X47498000Y-88010790D01*
X48189987Y-87318800D01*
X48129403Y-87276379D01*
X47929907Y-87183352D01*
X47929903Y-87183350D01*
X47717287Y-87126380D01*
X47498000Y-87107195D01*
X47278712Y-87126380D01*
X47066096Y-87183350D01*
X47066092Y-87183352D01*
X46866598Y-87276378D01*
X46806010Y-87318801D01*
X43172500Y-87318801D01*
X43172500Y-81661000D01*
X46234693Y-81661000D01*
X46253885Y-81880371D01*
X46286791Y-82003178D01*
X46310879Y-82093073D01*
X46310881Y-82093079D01*
X46369618Y-82219042D01*
X46403944Y-82292654D01*
X46461428Y-82374749D01*
X46530251Y-82473038D01*
X46530254Y-82473042D01*
X46685957Y-82628745D01*
X46685961Y-82628748D01*
X46685962Y-82628749D01*
X46866346Y-82755056D01*
X47065924Y-82848120D01*
X47278629Y-82905115D01*
X47498000Y-82924307D01*
X47717371Y-82905115D01*
X47930076Y-82848120D01*
X48129654Y-82755056D01*
X48310038Y-82628749D01*
X48465749Y-82473038D01*
X48592056Y-82292654D01*
X48685120Y-82093076D01*
X48742115Y-81880371D01*
X48761307Y-81661000D01*
X48742115Y-81441629D01*
X48685120Y-81228924D01*
X48592056Y-81029347D01*
X48465749Y-80848962D01*
X48310038Y-80693251D01*
X48307620Y-80691558D01*
X48204491Y-80619346D01*
X48129654Y-80566944D01*
X48100416Y-80553310D01*
X47930079Y-80473881D01*
X47930073Y-80473879D01*
X47800848Y-80439253D01*
X47717371Y-80416885D01*
X47498000Y-80397693D01*
X47278629Y-80416885D01*
X47065926Y-80473879D01*
X47065920Y-80473881D01*
X46866346Y-80566944D01*
X46685965Y-80693248D01*
X46685959Y-80693253D01*
X46530253Y-80848959D01*
X46530248Y-80848965D01*
X46403944Y-81029346D01*
X46310881Y-81228920D01*
X46310880Y-81228924D01*
X46253885Y-81441629D01*
X46234693Y-81661000D01*
X43172500Y-81661000D01*
X43172500Y-74796500D01*
X43192502Y-74728379D01*
X43246158Y-74681886D01*
X43298500Y-74670500D01*
X43356219Y-74670500D01*
X43356226Y-74670500D01*
X43772894Y-74631890D01*
X44184222Y-74555000D01*
X44586701Y-74440484D01*
X44976897Y-74289322D01*
X45351481Y-74102801D01*
X45707257Y-73882514D01*
X46041189Y-73630340D01*
X46350430Y-73348430D01*
X46632340Y-73039189D01*
X46884514Y-72705257D01*
X47104801Y-72349481D01*
X47291322Y-71974897D01*
X47442484Y-71584701D01*
X47557000Y-71182222D01*
X47633890Y-70770894D01*
X47672500Y-70354226D01*
X47672500Y-69935774D01*
X47633890Y-69519106D01*
X47557000Y-69107778D01*
X47442484Y-68705299D01*
X47291322Y-68315103D01*
X47104801Y-67940519D01*
X46884514Y-67584743D01*
X46632340Y-67250811D01*
X46632338Y-67250808D01*
X46350430Y-66941569D01*
X46041191Y-66659661D01*
X46041184Y-66659656D01*
X45707254Y-66407484D01*
X45707239Y-66407474D01*
X45351488Y-66187203D01*
X45351485Y-66187201D01*
X45351481Y-66187199D01*
X44976897Y-66000678D01*
X44976893Y-66000676D01*
X44767126Y-65919412D01*
X44586701Y-65849516D01*
X44496970Y-65823985D01*
X44184229Y-65735001D01*
X44184221Y-65734999D01*
X43772900Y-65658111D01*
X43772898Y-65658110D01*
X43772894Y-65658110D01*
X43356226Y-65619500D01*
X43356219Y-65619500D01*
X43298500Y-65619500D01*
X43230379Y-65599498D01*
X43183886Y-65545842D01*
X43172500Y-65493500D01*
X43172500Y-56845000D01*
X47233835Y-56845000D01*
X47252465Y-57081710D01*
X47307894Y-57312592D01*
X47398759Y-57531961D01*
X47522825Y-57734417D01*
X47522826Y-57734419D01*
X47677030Y-57914969D01*
X47857580Y-58069173D01*
X47857584Y-58069176D01*
X48060037Y-58193240D01*
X48279406Y-58284105D01*
X48510289Y-58339535D01*
X48747000Y-58358165D01*
X48983711Y-58339535D01*
X49214594Y-58284105D01*
X49433963Y-58193240D01*
X49636416Y-58069176D01*
X49816969Y-57914969D01*
X49971176Y-57734416D01*
X50095240Y-57531963D01*
X50186105Y-57312594D01*
X50241535Y-57081711D01*
X50260165Y-56845000D01*
X53733835Y-56845000D01*
X53752465Y-57081710D01*
X53807894Y-57312592D01*
X53898759Y-57531961D01*
X54022825Y-57734417D01*
X54022826Y-57734419D01*
X54177030Y-57914969D01*
X54357580Y-58069173D01*
X54357584Y-58069176D01*
X54560037Y-58193240D01*
X54779406Y-58284105D01*
X55010289Y-58339535D01*
X55247000Y-58358165D01*
X55483711Y-58339535D01*
X55714594Y-58284105D01*
X55933963Y-58193240D01*
X56136416Y-58069176D01*
X56316969Y-57914969D01*
X56471176Y-57734416D01*
X56595240Y-57531963D01*
X56686105Y-57312594D01*
X56741535Y-57081711D01*
X56760165Y-56845000D01*
X56741535Y-56608289D01*
X56686105Y-56377406D01*
X56595240Y-56158037D01*
X56471176Y-55955584D01*
X56471173Y-55955580D01*
X56316969Y-55775030D01*
X56136419Y-55620826D01*
X56136417Y-55620825D01*
X56136416Y-55620824D01*
X55933963Y-55496760D01*
X55714594Y-55405895D01*
X55714592Y-55405894D01*
X55556651Y-55367976D01*
X55483711Y-55350465D01*
X55247000Y-55331835D01*
X55010289Y-55350465D01*
X54779407Y-55405894D01*
X54560038Y-55496759D01*
X54357582Y-55620825D01*
X54357580Y-55620826D01*
X54177030Y-55775030D01*
X54022826Y-55955580D01*
X54022825Y-55955582D01*
X53898759Y-56158038D01*
X53807894Y-56377407D01*
X53752465Y-56608289D01*
X53733835Y-56845000D01*
X50260165Y-56845000D01*
X50241535Y-56608289D01*
X50186105Y-56377406D01*
X50095240Y-56158037D01*
X49971176Y-55955584D01*
X49971173Y-55955580D01*
X49816969Y-55775030D01*
X49636419Y-55620826D01*
X49636417Y-55620825D01*
X49636416Y-55620824D01*
X49433963Y-55496760D01*
X49214594Y-55405895D01*
X49214592Y-55405894D01*
X49056651Y-55367976D01*
X48983711Y-55350465D01*
X48747000Y-55331835D01*
X48510289Y-55350465D01*
X48279407Y-55405894D01*
X48060038Y-55496759D01*
X47857582Y-55620825D01*
X47857580Y-55620826D01*
X47677030Y-55775030D01*
X47522826Y-55955580D01*
X47522825Y-55955582D01*
X47398759Y-56158038D01*
X47307894Y-56377407D01*
X47252465Y-56608289D01*
X47233835Y-56845000D01*
X43172500Y-56845000D01*
X43172500Y-52345000D01*
X47234337Y-52345000D01*
X47252960Y-52581632D01*
X47308371Y-52812437D01*
X47399208Y-53031738D01*
X47513896Y-53218890D01*
X47513897Y-53218890D01*
X48222016Y-52510771D01*
X48234482Y-52557292D01*
X48306890Y-52682708D01*
X48409292Y-52785110D01*
X48534708Y-52857518D01*
X48581226Y-52869982D01*
X47873107Y-53578101D01*
X47873108Y-53578102D01*
X48060261Y-53692791D01*
X48279562Y-53783628D01*
X48510367Y-53839039D01*
X48747000Y-53857662D01*
X48983632Y-53839039D01*
X49214437Y-53783628D01*
X49433738Y-53692791D01*
X49620890Y-53578102D01*
X49620891Y-53578102D01*
X48912772Y-52869982D01*
X48959292Y-52857518D01*
X49084708Y-52785110D01*
X49187110Y-52682708D01*
X49259518Y-52557292D01*
X49271983Y-52510772D01*
X49980102Y-53218891D01*
X49980102Y-53218890D01*
X50094791Y-53031738D01*
X50185628Y-52812437D01*
X50241039Y-52581632D01*
X50259662Y-52345000D01*
X53734337Y-52345000D01*
X53752960Y-52581632D01*
X53808371Y-52812437D01*
X53899208Y-53031738D01*
X54013896Y-53218890D01*
X54013897Y-53218890D01*
X54722016Y-52510771D01*
X54734482Y-52557292D01*
X54806890Y-52682708D01*
X54909292Y-52785110D01*
X55034708Y-52857518D01*
X55081226Y-52869982D01*
X54373107Y-53578101D01*
X54373108Y-53578102D01*
X54560261Y-53692791D01*
X54779562Y-53783628D01*
X55010367Y-53839039D01*
X55247000Y-53857662D01*
X55483632Y-53839039D01*
X55714437Y-53783628D01*
X55933738Y-53692791D01*
X56120890Y-53578102D01*
X56120891Y-53578102D01*
X55412772Y-52869982D01*
X55459292Y-52857518D01*
X55584708Y-52785110D01*
X55687110Y-52682708D01*
X55759518Y-52557292D01*
X55771983Y-52510772D01*
X56480102Y-53218891D01*
X56480102Y-53218890D01*
X56594791Y-53031738D01*
X56685628Y-52812437D01*
X56741039Y-52581632D01*
X56759662Y-52345000D01*
X56741039Y-52108367D01*
X56685628Y-51877562D01*
X56594791Y-51658261D01*
X56480102Y-51471108D01*
X56480101Y-51471107D01*
X55771982Y-52179226D01*
X55759518Y-52132708D01*
X55687110Y-52007292D01*
X55584708Y-51904890D01*
X55459292Y-51832482D01*
X55412771Y-51820016D01*
X56120890Y-51111897D01*
X56120890Y-51111896D01*
X55933738Y-50997208D01*
X55714437Y-50906371D01*
X55483632Y-50850960D01*
X55247000Y-50832337D01*
X55010367Y-50850960D01*
X54779562Y-50906371D01*
X54560266Y-50997206D01*
X54373108Y-51111897D01*
X54373108Y-51111898D01*
X55081227Y-51820017D01*
X55034708Y-51832482D01*
X54909292Y-51904890D01*
X54806890Y-52007292D01*
X54734482Y-52132708D01*
X54722017Y-52179227D01*
X54013898Y-51471108D01*
X54013897Y-51471108D01*
X53899206Y-51658266D01*
X53808371Y-51877562D01*
X53752960Y-52108367D01*
X53734337Y-52345000D01*
X50259662Y-52345000D01*
X50241039Y-52108367D01*
X50185628Y-51877562D01*
X50094791Y-51658261D01*
X49980102Y-51471108D01*
X49980101Y-51471107D01*
X49271982Y-52179226D01*
X49259518Y-52132708D01*
X49187110Y-52007292D01*
X49084708Y-51904890D01*
X48959292Y-51832482D01*
X48912771Y-51820016D01*
X49620890Y-51111897D01*
X49620890Y-51111896D01*
X49433738Y-50997208D01*
X49214437Y-50906371D01*
X48983632Y-50850960D01*
X48747000Y-50832337D01*
X48510367Y-50850960D01*
X48279562Y-50906371D01*
X48060266Y-50997206D01*
X47873108Y-51111897D01*
X47873108Y-51111898D01*
X48581227Y-51820017D01*
X48534708Y-51832482D01*
X48409292Y-51904890D01*
X48306890Y-52007292D01*
X48234482Y-52132708D01*
X48222017Y-52179227D01*
X47513898Y-51471108D01*
X47513897Y-51471108D01*
X47399206Y-51658266D01*
X47308371Y-51877562D01*
X47252960Y-52108367D01*
X47234337Y-52345000D01*
X43172500Y-52345000D01*
X43172500Y-44296500D01*
X43192502Y-44228379D01*
X43246158Y-44181886D01*
X43298500Y-44170500D01*
X83136438Y-44170500D01*
X96995500Y-44170500D01*
X97063621Y-44190502D01*
G37*
G04 #@! TD.AperFunction*
G04 #@! TA.AperFunction,Conductor*
G36*
X78164505Y-100677825D02*
G01*
X78215105Y-100727627D01*
X78223402Y-100745795D01*
X78224480Y-100748758D01*
X78314673Y-100942178D01*
X78314674Y-100942180D01*
X78437083Y-101116998D01*
X78437090Y-101117007D01*
X78587992Y-101267909D01*
X78587996Y-101267912D01*
X78587997Y-101267913D01*
X78762820Y-101390326D01*
X78912876Y-101460298D01*
X78956249Y-101480523D01*
X78959208Y-101481600D01*
X78960328Y-101482425D01*
X78961231Y-101482846D01*
X78961146Y-101483027D01*
X79016378Y-101523696D01*
X79041714Y-101590018D01*
X79027171Y-101659510D01*
X78977367Y-101710107D01*
X78959208Y-101718400D01*
X78956249Y-101719476D01*
X78762820Y-101809674D01*
X78588000Y-101932084D01*
X78587994Y-101932089D01*
X78437089Y-102082994D01*
X78437084Y-102083000D01*
X78314674Y-102257820D01*
X78224480Y-102451241D01*
X78224478Y-102451246D01*
X78201381Y-102537448D01*
X78169242Y-102657392D01*
X78150641Y-102870000D01*
X78169242Y-103082608D01*
X78178084Y-103115606D01*
X78224478Y-103288753D01*
X78224480Y-103288758D01*
X78314673Y-103482178D01*
X78314674Y-103482180D01*
X78437083Y-103656998D01*
X78437090Y-103657007D01*
X78587992Y-103807909D01*
X78587996Y-103807912D01*
X78587997Y-103807913D01*
X78762820Y-103930326D01*
X78956245Y-104020521D01*
X79162392Y-104075758D01*
X79375000Y-104094359D01*
X79587608Y-104075758D01*
X79793755Y-104020521D01*
X79987180Y-103930326D01*
X80162003Y-103807913D01*
X80312913Y-103657003D01*
X80435326Y-103482180D01*
X80525521Y-103288755D01*
X80525523Y-103288745D01*
X80526598Y-103285795D01*
X80527425Y-103284671D01*
X80527846Y-103283769D01*
X80528027Y-103283853D01*
X80568692Y-103228624D01*
X80635013Y-103203285D01*
X80704505Y-103217825D01*
X80755105Y-103267627D01*
X80763402Y-103285795D01*
X80764480Y-103288758D01*
X80854673Y-103482178D01*
X80854674Y-103482180D01*
X80977083Y-103656998D01*
X80977090Y-103657007D01*
X81127992Y-103807909D01*
X81127996Y-103807912D01*
X81127997Y-103807913D01*
X81302820Y-103930326D01*
X81496245Y-104020521D01*
X81702392Y-104075758D01*
X81915000Y-104094359D01*
X82127608Y-104075758D01*
X82333755Y-104020521D01*
X82527180Y-103930326D01*
X82702003Y-103807913D01*
X82852913Y-103657003D01*
X82975326Y-103482180D01*
X83065521Y-103288755D01*
X83065523Y-103288749D01*
X83066865Y-103285063D01*
X83108958Y-103227891D01*
X83175279Y-103202552D01*
X83244771Y-103217091D01*
X83295371Y-103266892D01*
X83303668Y-103285060D01*
X83304949Y-103288580D01*
X83395106Y-103481924D01*
X83431660Y-103534128D01*
X84055000Y-102910788D01*
X84055000Y-102922661D01*
X84082259Y-103024394D01*
X84134920Y-103115606D01*
X84209394Y-103190080D01*
X84300606Y-103242741D01*
X84402339Y-103270000D01*
X84414210Y-103270000D01*
X83790870Y-103893338D01*
X83790870Y-103893339D01*
X83843072Y-103929891D01*
X83843071Y-103929891D01*
X84036412Y-104020047D01*
X84036418Y-104020049D01*
X84242479Y-104075263D01*
X84455000Y-104093856D01*
X84667520Y-104075263D01*
X84873581Y-104020049D01*
X84873587Y-104020047D01*
X85066928Y-103929891D01*
X85066929Y-103929890D01*
X85119128Y-103893339D01*
X85119128Y-103893337D01*
X84495791Y-103270000D01*
X84507661Y-103270000D01*
X84609394Y-103242741D01*
X84700606Y-103190080D01*
X84775080Y-103115606D01*
X84827741Y-103024394D01*
X84855000Y-102922661D01*
X84855000Y-102910790D01*
X85478337Y-103534128D01*
X85478339Y-103534128D01*
X85514890Y-103481929D01*
X85514891Y-103481928D01*
X85605045Y-103288592D01*
X85606326Y-103285072D01*
X85607309Y-103283735D01*
X85607374Y-103283598D01*
X85607401Y-103283610D01*
X85648415Y-103227897D01*
X85714734Y-103202552D01*
X85784227Y-103217086D01*
X85834831Y-103266883D01*
X85843130Y-103285051D01*
X85844476Y-103288749D01*
X85934673Y-103482178D01*
X85934674Y-103482180D01*
X86057083Y-103656998D01*
X86057090Y-103657007D01*
X86207992Y-103807909D01*
X86207996Y-103807912D01*
X86207997Y-103807913D01*
X86256753Y-103842052D01*
X86355773Y-103911388D01*
X86400101Y-103966846D01*
X86407410Y-104037465D01*
X86375379Y-104100825D01*
X86372597Y-104103696D01*
X74435116Y-116041178D01*
X74372804Y-116075204D01*
X74301989Y-116070139D01*
X74294772Y-116067189D01*
X74292789Y-116066306D01*
X74292790Y-116066306D01*
X74105987Y-116026600D01*
X73915013Y-116026600D01*
X73728211Y-116066306D01*
X73553747Y-116143982D01*
X73399244Y-116256235D01*
X73271465Y-116398148D01*
X73271458Y-116398158D01*
X73175976Y-116563538D01*
X73175973Y-116563545D01*
X73116957Y-116745172D01*
X73096996Y-116935100D01*
X73116957Y-117125027D01*
X73147026Y-117217570D01*
X73175973Y-117306656D01*
X73175976Y-117306661D01*
X73271458Y-117472041D01*
X73271461Y-117472045D01*
X73366468Y-117577562D01*
X73397185Y-117641570D01*
X73388420Y-117712023D01*
X73361927Y-117750967D01*
X72873767Y-118239129D01*
X72785527Y-118327369D01*
X72785526Y-118327371D01*
X72716201Y-118431123D01*
X72668446Y-118546412D01*
X72644100Y-118668803D01*
X72644100Y-119311774D01*
X72624098Y-119379895D01*
X72611737Y-119396084D01*
X72538557Y-119477359D01*
X72443076Y-119642738D01*
X72443073Y-119642745D01*
X72384057Y-119824372D01*
X72364096Y-120014300D01*
X72384057Y-120204227D01*
X72414126Y-120296770D01*
X72443073Y-120385856D01*
X72443076Y-120385861D01*
X72538558Y-120551241D01*
X72538565Y-120551251D01*
X72666344Y-120693164D01*
X72666347Y-120693166D01*
X72820848Y-120805418D01*
X72995312Y-120883094D01*
X73182113Y-120922800D01*
X73373087Y-120922800D01*
X73559888Y-120883094D01*
X73734352Y-120805418D01*
X73888853Y-120693166D01*
X73888855Y-120693164D01*
X74016634Y-120551251D01*
X74016635Y-120551249D01*
X74016640Y-120551244D01*
X74112127Y-120385856D01*
X74171142Y-120204228D01*
X74191104Y-120014300D01*
X74171142Y-119824372D01*
X74112127Y-119642744D01*
X74016640Y-119477356D01*
X73943463Y-119396084D01*
X73912746Y-119332076D01*
X73911100Y-119311774D01*
X73911100Y-119045794D01*
X73931102Y-118977673D01*
X73948005Y-118956699D01*
X74416405Y-118488299D01*
X74478717Y-118454273D01*
X74549532Y-118459338D01*
X74606368Y-118501885D01*
X74631179Y-118568405D01*
X74631500Y-118577394D01*
X74631500Y-132019000D01*
X74611498Y-132087121D01*
X74557842Y-132133614D01*
X74505500Y-132145000D01*
X72064500Y-132145000D01*
X71996379Y-132124998D01*
X71949886Y-132071342D01*
X71938500Y-132019000D01*
X71938500Y-106174593D01*
X71958502Y-106106472D01*
X71975400Y-106085503D01*
X76494258Y-101566644D01*
X76556568Y-101532620D01*
X76615965Y-101534035D01*
X76622392Y-101535758D01*
X76835000Y-101554359D01*
X77047608Y-101535758D01*
X77253755Y-101480521D01*
X77447180Y-101390326D01*
X77622003Y-101267913D01*
X77772913Y-101117003D01*
X77895326Y-100942180D01*
X77985521Y-100748755D01*
X77985523Y-100748745D01*
X77986598Y-100745795D01*
X77987425Y-100744671D01*
X77987846Y-100743769D01*
X77988027Y-100743853D01*
X78028692Y-100688624D01*
X78095013Y-100663285D01*
X78164505Y-100677825D01*
G37*
G04 #@! TD.AperFunction*
G04 #@! TA.AperFunction,Conductor*
G36*
X100810227Y-82846402D02*
G01*
X100831201Y-82863305D01*
X100870695Y-82902799D01*
X100904721Y-82965111D01*
X100907600Y-82991894D01*
X100907600Y-84822301D01*
X100887598Y-84890422D01*
X100833942Y-84936915D01*
X100763668Y-84947019D01*
X100699088Y-84917525D01*
X100687964Y-84906611D01*
X100596955Y-84805535D01*
X100442452Y-84693282D01*
X100267988Y-84615606D01*
X100081187Y-84575900D01*
X99890213Y-84575900D01*
X99703411Y-84615606D01*
X99528947Y-84693282D01*
X99374444Y-84805535D01*
X99246665Y-84947448D01*
X99246658Y-84947458D01*
X99151176Y-85112838D01*
X99151173Y-85112845D01*
X99092157Y-85294472D01*
X99072196Y-85484400D01*
X99092157Y-85674327D01*
X99112757Y-85737726D01*
X99151173Y-85855956D01*
X99246660Y-86021344D01*
X99319837Y-86102615D01*
X99350553Y-86166620D01*
X99352200Y-86186924D01*
X99352200Y-91168650D01*
X99332198Y-91236771D01*
X99278542Y-91283264D01*
X99208268Y-91293368D01*
X99163204Y-91277771D01*
X99157860Y-91274686D01*
X99157853Y-91274683D01*
X99157852Y-91274682D01*
X98983388Y-91197006D01*
X98796587Y-91157300D01*
X98605613Y-91157300D01*
X98418811Y-91197006D01*
X98244347Y-91274682D01*
X98089844Y-91386935D01*
X97962065Y-91528848D01*
X97962058Y-91528858D01*
X97866576Y-91694238D01*
X97866573Y-91694245D01*
X97807557Y-91875872D01*
X97787596Y-92065800D01*
X97807557Y-92255727D01*
X97821683Y-92299200D01*
X97866573Y-92437356D01*
X97866576Y-92437361D01*
X97951667Y-92584744D01*
X97962060Y-92602744D01*
X98035237Y-92684015D01*
X98065953Y-92748020D01*
X98067600Y-92768324D01*
X98067600Y-132019000D01*
X98047598Y-132087121D01*
X97993942Y-132133614D01*
X97941600Y-132145000D01*
X95824500Y-132145000D01*
X95756379Y-132124998D01*
X95709886Y-132071342D01*
X95698500Y-132019000D01*
X95698500Y-99182307D01*
X95698499Y-99182303D01*
X95674155Y-99059915D01*
X95626400Y-98944625D01*
X95557071Y-98840867D01*
X95468833Y-98752629D01*
X91311199Y-94594995D01*
X91277173Y-94532683D01*
X91282238Y-94461868D01*
X91324785Y-94405032D01*
X91391305Y-94380221D01*
X91400294Y-94379900D01*
X93082100Y-94379900D01*
X93150221Y-94399902D01*
X93175737Y-94421590D01*
X93179047Y-94425266D01*
X93333548Y-94537518D01*
X93508012Y-94615194D01*
X93694813Y-94654900D01*
X93885787Y-94654900D01*
X94072588Y-94615194D01*
X94247052Y-94537518D01*
X94401553Y-94425266D01*
X94503460Y-94312087D01*
X94529334Y-94283351D01*
X94529335Y-94283349D01*
X94529340Y-94283344D01*
X94624827Y-94117956D01*
X94683842Y-93936328D01*
X94703804Y-93746400D01*
X94683842Y-93556472D01*
X94624827Y-93374844D01*
X94529340Y-93209456D01*
X94529338Y-93209454D01*
X94529334Y-93209448D01*
X94401555Y-93067535D01*
X94247052Y-92955282D01*
X94072588Y-92877606D01*
X93885787Y-92837900D01*
X93694813Y-92837900D01*
X93508011Y-92877606D01*
X93333547Y-92955282D01*
X93283091Y-92991941D01*
X93216223Y-93015800D01*
X93147071Y-92999719D01*
X93097591Y-92948805D01*
X93083720Y-92903175D01*
X93069342Y-92766372D01*
X93051025Y-92710000D01*
X93010327Y-92584744D01*
X92914840Y-92419356D01*
X92914838Y-92419354D01*
X92914834Y-92419348D01*
X92787055Y-92277435D01*
X92632552Y-92165182D01*
X92458088Y-92087506D01*
X92271287Y-92047800D01*
X92215394Y-92047800D01*
X92147273Y-92027798D01*
X92126299Y-92010895D01*
X91289035Y-91173631D01*
X91289033Y-91173629D01*
X91185275Y-91104300D01*
X91069985Y-91056545D01*
X90996286Y-91041885D01*
X90947596Y-91032200D01*
X90947594Y-91032200D01*
X90662303Y-91032200D01*
X90594182Y-91012198D01*
X90547689Y-90958542D01*
X90537585Y-90888268D01*
X90559088Y-90833931D01*
X90595326Y-90782180D01*
X90685521Y-90588755D01*
X90740758Y-90382608D01*
X90759359Y-90170000D01*
X90740758Y-89957392D01*
X90685521Y-89751245D01*
X90682891Y-89745604D01*
X90667571Y-89712749D01*
X90656910Y-89642557D01*
X90685891Y-89577745D01*
X90745311Y-89538889D01*
X90781766Y-89533500D01*
X93767393Y-89533500D01*
X93767394Y-89533500D01*
X93889785Y-89509155D01*
X94005075Y-89461400D01*
X94108833Y-89392071D01*
X100637600Y-82863305D01*
X100699912Y-82829279D01*
X100726695Y-82826400D01*
X100742106Y-82826400D01*
X100810227Y-82846402D01*
G37*
G04 #@! TD.AperFunction*
G04 #@! TA.AperFunction,Conductor*
G36*
X83244505Y-100677825D02*
G01*
X83295105Y-100727627D01*
X83303402Y-100745795D01*
X83304480Y-100748758D01*
X83394673Y-100942178D01*
X83394674Y-100942180D01*
X83517083Y-101116998D01*
X83517090Y-101117007D01*
X83667992Y-101267909D01*
X83667996Y-101267912D01*
X83667997Y-101267913D01*
X83842820Y-101390326D01*
X84036241Y-101480519D01*
X84036245Y-101480521D01*
X84039940Y-101481866D01*
X84097111Y-101523961D01*
X84122448Y-101590283D01*
X84107906Y-101659775D01*
X84058103Y-101710373D01*
X84039943Y-101718667D01*
X84036417Y-101719950D01*
X83843070Y-101810110D01*
X83790870Y-101846660D01*
X84414211Y-102470000D01*
X84402339Y-102470000D01*
X84300606Y-102497259D01*
X84209394Y-102549920D01*
X84134920Y-102624394D01*
X84082259Y-102715606D01*
X84055000Y-102817339D01*
X84055000Y-102829209D01*
X83431660Y-102205869D01*
X83395110Y-102258070D01*
X83304950Y-102451417D01*
X83303667Y-102454943D01*
X83302683Y-102456278D01*
X83302626Y-102456402D01*
X83302601Y-102456390D01*
X83261570Y-102512113D01*
X83195248Y-102537448D01*
X83125757Y-102522905D01*
X83075160Y-102473101D01*
X83066866Y-102454940D01*
X83065521Y-102451245D01*
X82975442Y-102258070D01*
X82975326Y-102257821D01*
X82852913Y-102082997D01*
X82702003Y-101932087D01*
X82702002Y-101932086D01*
X82702001Y-101932085D01*
X82701998Y-101932083D01*
X82527180Y-101809674D01*
X82527178Y-101809673D01*
X82333758Y-101719480D01*
X82330795Y-101718402D01*
X82329671Y-101717574D01*
X82328769Y-101717154D01*
X82328853Y-101716972D01*
X82273624Y-101676308D01*
X82248285Y-101609987D01*
X82262825Y-101540495D01*
X82312627Y-101489895D01*
X82330795Y-101481598D01*
X82333745Y-101480523D01*
X82333755Y-101480521D01*
X82527180Y-101390326D01*
X82702003Y-101267913D01*
X82852913Y-101117003D01*
X82975326Y-100942180D01*
X83065521Y-100748755D01*
X83065523Y-100748745D01*
X83066598Y-100745795D01*
X83067425Y-100744671D01*
X83067846Y-100743769D01*
X83068027Y-100743853D01*
X83108692Y-100688624D01*
X83175013Y-100663285D01*
X83244505Y-100677825D01*
G37*
G04 #@! TD.AperFunction*
M02*
