M48
; DRILL file {KiCad 8.0.2} date 2025-01-06T21:48:37+0100
; FORMAT={-:-/ absolute / inch / decimal}
; #@! TF.CreationDate,2025-01-06T21:48:37+01:00
; #@! TF.GenerationSoftware,Kicad,Pcbnew,8.0.2
; #@! TF.FileFunction,Plated,1,2,PTH
FMAT,2
INCH
; #@! TA.AperFunction,Plated,PTH,ViaDrill
T1C0.0157
; #@! TA.AperFunction,Plated,PTH,ComponentDrill
T2C0.0276
; #@! TA.AperFunction,Plated,PTH,ComponentDrill
T3C0.0315
; #@! TA.AperFunction,Plated,PTH,ComponentDrill
T4C0.0394
; #@! TA.AperFunction,Plated,PTH,ComponentDrill
T5C0.0433
%
G90
G05
T1
X2.115Y-4.87
X2.6514Y-4.4076
X2.8849Y-4.725
X2.9138Y-4.6037
X3.1803Y-4.4471
X3.3728Y-4.3961
X3.4608Y-4.4819
X3.5961Y-3.198
X3.629Y-3.6597
X3.6925Y-3.6908
X3.7032Y-4.9532
X3.8859Y-3.6246
X3.9364Y-3.3655
X3.9364Y-4.9546
X3.965Y-3.265
X3.965Y-3.65
X4.09Y-3.65
X4.095Y-3.45
X4.13Y-3.175
X4.16Y-3.5115
X4.16Y-3.57
X4.18Y-2.99
X4.27Y-3.65
X4.4Y-3.55
X4.42Y-4.855
X4.46Y-3.55
X4.565Y-3.84
X4.59Y-3.155
T2
X1.87Y-3.215
X1.87Y-3.4791
X2.1041Y-3.4791
X2.105Y-3.205
T3
X3.025Y-3.55
X3.025Y-3.65
X3.025Y-3.75
X3.025Y-3.85
X3.025Y-3.95
X3.125Y-3.45
X3.125Y-3.55
X3.125Y-3.65
X3.125Y-3.75
X3.125Y-3.85
X3.125Y-3.95
X3.125Y-4.05
X3.225Y-3.45
X3.225Y-3.55
X3.225Y-3.95
X3.225Y-4.05
X3.325Y-3.45
X3.325Y-3.55
X3.325Y-3.95
X3.325Y-4.05
X3.425Y-3.45
X3.425Y-3.55
X3.425Y-3.65
X3.425Y-3.75
X3.425Y-3.85
X3.425Y-3.95
X3.425Y-4.05
X3.525Y-3.55
X3.525Y-3.65
X3.525Y-3.75
X3.525Y-3.85
X3.525Y-3.95
T4
X3.98Y-2.435
X4.08Y-2.435
X4.18Y-2.435
X4.28Y-2.435
X4.38Y-2.435
X4.48Y-2.435
T5
X1.9192Y-2.0608
X1.9192Y-2.238
X2.1751Y-2.0608
X2.1751Y-2.238
M30
