G04 #@! TF.GenerationSoftware,KiCad,Pcbnew,(6.0.9)*
G04 #@! TF.CreationDate,2023-09-15T10:25:23+02:00*
G04 #@! TF.ProjectId,p2000t-multicartridge-smd,70323030-3074-42d6-9d75-6c7469636172,rev?*
G04 #@! TF.SameCoordinates,Original*
G04 #@! TF.FileFunction,Copper,L2,Bot*
G04 #@! TF.FilePolarity,Positive*
%FSLAX46Y46*%
G04 Gerber Fmt 4.6, Leading zero omitted, Abs format (unit mm)*
G04 Created by KiCad (PCBNEW (6.0.9)) date 2023-09-15 10:25:23*
%MOMM*%
%LPD*%
G01*
G04 APERTURE LIST*
G04 Aperture macros list*
%AMRoundRect*
0 Rectangle with rounded corners*
0 $1 Rounding radius*
0 $2 $3 $4 $5 $6 $7 $8 $9 X,Y pos of 4 corners*
0 Add a 4 corners polygon primitive as box body*
4,1,4,$2,$3,$4,$5,$6,$7,$8,$9,$2,$3,0*
0 Add four circle primitives for the rounded corners*
1,1,$1+$1,$2,$3*
1,1,$1+$1,$4,$5*
1,1,$1+$1,$6,$7*
1,1,$1+$1,$8,$9*
0 Add four rect primitives between the rounded corners*
20,1,$1+$1,$2,$3,$4,$5,0*
20,1,$1+$1,$4,$5,$6,$7,0*
20,1,$1+$1,$6,$7,$8,$9,0*
20,1,$1+$1,$8,$9,$2,$3,0*%
%AMFreePoly0*
4,1,6,0.500000,-0.750000,-0.650000,-0.750000,-0.150000,0.000000,-0.650000,0.750000,0.500000,0.750000,0.500000,-0.750000,0.500000,-0.750000,$1*%
%AMFreePoly1*
4,1,6,1.000000,0.000000,0.500000,-0.750000,-0.500000,-0.750000,-0.500000,0.750000,0.500000,0.750000,1.000000,0.000000,1.000000,0.000000,$1*%
G04 Aperture macros list end*
G04 #@! TA.AperFunction,ComponentPad*
%ADD10C,2.000000*%
G04 #@! TD*
G04 #@! TA.AperFunction,ComponentPad*
%ADD11C,1.500000*%
G04 #@! TD*
G04 #@! TA.AperFunction,ComponentPad*
%ADD12R,1.600000X1.600000*%
G04 #@! TD*
G04 #@! TA.AperFunction,ComponentPad*
%ADD13O,1.600000X1.600000*%
G04 #@! TD*
G04 #@! TA.AperFunction,SMDPad,CuDef*
%ADD14RoundRect,0.150000X0.825000X0.150000X-0.825000X0.150000X-0.825000X-0.150000X0.825000X-0.150000X0*%
G04 #@! TD*
G04 #@! TA.AperFunction,SMDPad,CuDef*
%ADD15RoundRect,0.250000X-0.250000X-0.475000X0.250000X-0.475000X0.250000X0.475000X-0.250000X0.475000X0*%
G04 #@! TD*
G04 #@! TA.AperFunction,SMDPad,CuDef*
%ADD16RoundRect,0.250000X-0.475000X0.250000X-0.475000X-0.250000X0.475000X-0.250000X0.475000X0.250000X0*%
G04 #@! TD*
G04 #@! TA.AperFunction,SMDPad,CuDef*
%ADD17FreePoly0,180.000000*%
G04 #@! TD*
G04 #@! TA.AperFunction,SMDPad,CuDef*
%ADD18FreePoly1,180.000000*%
G04 #@! TD*
G04 #@! TA.AperFunction,SMDPad,CuDef*
%ADD19RoundRect,0.250000X-0.925000X0.412500X-0.925000X-0.412500X0.925000X-0.412500X0.925000X0.412500X0*%
G04 #@! TD*
G04 #@! TA.AperFunction,SMDPad,CuDef*
%ADD20RoundRect,0.250000X-0.262500X-0.450000X0.262500X-0.450000X0.262500X0.450000X-0.262500X0.450000X0*%
G04 #@! TD*
G04 #@! TA.AperFunction,SMDPad,CuDef*
%ADD21RoundRect,0.250000X-0.450000X0.262500X-0.450000X-0.262500X0.450000X-0.262500X0.450000X0.262500X0*%
G04 #@! TD*
G04 #@! TA.AperFunction,SMDPad,CuDef*
%ADD22R,2.000000X10.000000*%
G04 #@! TD*
G04 #@! TA.AperFunction,SMDPad,CuDef*
%ADD23RoundRect,0.250000X0.475000X-0.250000X0.475000X0.250000X-0.475000X0.250000X-0.475000X-0.250000X0*%
G04 #@! TD*
G04 #@! TA.AperFunction,ComponentPad*
%ADD24R,1.422400X1.422400*%
G04 #@! TD*
G04 #@! TA.AperFunction,ComponentPad*
%ADD25C,1.422400*%
G04 #@! TD*
G04 #@! TA.AperFunction,SMDPad,CuDef*
%ADD26RoundRect,0.250000X0.450000X-0.262500X0.450000X0.262500X-0.450000X0.262500X-0.450000X-0.262500X0*%
G04 #@! TD*
G04 #@! TA.AperFunction,ViaPad*
%ADD27C,0.800000*%
G04 #@! TD*
G04 #@! TA.AperFunction,Conductor*
%ADD28C,0.250000*%
G04 #@! TD*
G04 APERTURE END LIST*
D10*
X55247000Y-52345000D03*
X48747000Y-52345000D03*
X55247000Y-56845000D03*
X48747000Y-56845000D03*
D11*
X47498000Y-81661000D03*
X47498000Y-88370000D03*
X53445000Y-88370000D03*
X53467000Y-81407000D03*
D12*
X116459000Y-49149000D03*
D13*
X113919000Y-49149000D03*
X111379000Y-49149000D03*
X108839000Y-49149000D03*
X106299000Y-49149000D03*
X106299000Y-56769000D03*
X108839000Y-56769000D03*
X111379000Y-56769000D03*
X113919000Y-56769000D03*
X116459000Y-56769000D03*
D14*
X77532000Y-70485000D03*
X77532000Y-71755000D03*
X77532000Y-73025000D03*
X77532000Y-74295000D03*
X77532000Y-75565000D03*
X77532000Y-76835000D03*
X77532000Y-78105000D03*
X72582000Y-78105000D03*
X72582000Y-76835000D03*
X72582000Y-75565000D03*
X72582000Y-74295000D03*
X72582000Y-73025000D03*
X72582000Y-71755000D03*
X72582000Y-70485000D03*
D15*
X74107000Y-66929000D03*
X76007000Y-66929000D03*
D16*
X73533000Y-93919000D03*
X73533000Y-95819000D03*
D17*
X98753000Y-89789000D03*
D18*
X100203000Y-89789000D03*
D14*
X92772000Y-69723000D03*
X92772000Y-70993000D03*
X92772000Y-72263000D03*
X92772000Y-73533000D03*
X92772000Y-74803000D03*
X92772000Y-76073000D03*
X92772000Y-77343000D03*
X92772000Y-78613000D03*
X87822000Y-78613000D03*
X87822000Y-77343000D03*
X87822000Y-76073000D03*
X87822000Y-74803000D03*
X87822000Y-73533000D03*
X87822000Y-72263000D03*
X87822000Y-70993000D03*
X87822000Y-69723000D03*
D19*
X82677000Y-70485000D03*
X82677000Y-73560000D03*
D15*
X89347000Y-66421000D03*
X91247000Y-66421000D03*
D20*
X51134000Y-63881000D03*
X52959000Y-63881000D03*
D21*
X82677000Y-66501000D03*
X82677000Y-68326000D03*
X96647000Y-79709000D03*
X96647000Y-81534000D03*
D22*
X55465000Y-139192000D03*
X59425000Y-139192000D03*
X63385000Y-139192000D03*
X67345000Y-139192000D03*
X71305000Y-139192000D03*
X75265000Y-139192000D03*
X79225000Y-139192000D03*
X83185000Y-139192000D03*
X87145000Y-139192000D03*
X91105000Y-139192000D03*
X95065000Y-139192000D03*
X99025000Y-139192000D03*
X102985000Y-139192000D03*
X110905000Y-139192000D03*
D23*
X96647000Y-77785000D03*
X96647000Y-75885000D03*
D24*
X83147000Y-90145000D03*
D25*
X85687000Y-87605000D03*
X85687000Y-90145000D03*
X88227000Y-87605000D03*
X90767000Y-90145000D03*
X88227000Y-90145000D03*
X90767000Y-92685000D03*
X88227000Y-92685000D03*
X90767000Y-95225000D03*
X88227000Y-95225000D03*
X90767000Y-97765000D03*
X88227000Y-97765000D03*
X90767000Y-100305000D03*
X88227000Y-102845000D03*
X88227000Y-100305000D03*
X85687000Y-102845000D03*
X85687000Y-100305000D03*
X83147000Y-102845000D03*
X83147000Y-100305000D03*
X80607000Y-102845000D03*
X78067000Y-100305000D03*
X80607000Y-100305000D03*
X78067000Y-97765000D03*
X80607000Y-97765000D03*
X78067000Y-95225000D03*
X80607000Y-95225000D03*
X78067000Y-92685000D03*
X80607000Y-92685000D03*
X78067000Y-90145000D03*
X80607000Y-87605000D03*
X80607000Y-90145000D03*
X83147000Y-87605000D03*
D26*
X113919000Y-63928000D03*
X113919000Y-62103000D03*
X106299000Y-63928000D03*
X106299000Y-62103000D03*
X116459000Y-63928000D03*
X116459000Y-62103000D03*
X111379000Y-63928000D03*
X111379000Y-62103000D03*
X108839000Y-63928000D03*
X108839000Y-62103000D03*
D27*
X82681200Y-75283600D03*
X89409300Y-69599900D03*
X83621300Y-76208800D03*
X73042400Y-101494900D03*
X78577900Y-81798800D03*
X77003100Y-82268800D03*
X117585900Y-119264200D03*
X75272100Y-73025000D03*
X79194200Y-115215400D03*
X77665700Y-117499800D03*
X78933100Y-110948600D03*
X75774700Y-119799600D03*
X78892700Y-107100900D03*
X73193900Y-123698700D03*
X72392300Y-126390000D03*
X81120600Y-112207300D03*
X78392600Y-125529400D03*
X80316400Y-118066600D03*
X80316400Y-127135200D03*
X83136600Y-109772700D03*
X83140100Y-127147500D03*
X85350200Y-116974600D03*
X85350200Y-127138600D03*
X79963400Y-88873800D03*
X78400000Y-105042000D03*
X90083300Y-119349900D03*
X94604900Y-126368700D03*
X87248700Y-120106300D03*
X84496400Y-121035000D03*
X81735300Y-118314300D03*
X80193200Y-117040300D03*
X75390300Y-95977100D03*
X79961300Y-111110700D03*
X76751600Y-116510400D03*
X61937300Y-127154300D03*
X89027000Y-63119000D03*
X90551000Y-81534000D03*
X86228800Y-76066800D03*
X110843600Y-127149300D03*
X90696500Y-88354500D03*
D28*
X99025000Y-121029800D02*
X117977000Y-102077800D01*
X88232100Y-73533000D02*
X87822000Y-73533000D01*
X89124500Y-74425400D02*
X88232100Y-73533000D01*
X89124500Y-76420900D02*
X89124500Y-74425400D01*
X88202400Y-77343000D02*
X89124500Y-76420900D01*
X87822000Y-77343000D02*
X88202400Y-77343000D01*
X84036900Y-75283600D02*
X82681200Y-75283600D01*
X85787500Y-73533000D02*
X84036900Y-75283600D01*
X87822000Y-73533000D02*
X85787500Y-73533000D01*
X55247000Y-56845000D02*
X48747000Y-56845000D01*
X55247000Y-61593000D02*
X55247000Y-56845000D01*
X52959000Y-63881000D02*
X55247000Y-61593000D01*
X92648900Y-69599900D02*
X89409300Y-69599900D01*
X92772000Y-69723000D02*
X92648900Y-69599900D01*
X96205000Y-77343000D02*
X96647000Y-77785000D01*
X92772000Y-77343000D02*
X96205000Y-77343000D01*
X96647000Y-79709000D02*
X96647000Y-77785000D01*
X96459000Y-76073000D02*
X96647000Y-75885000D01*
X92772000Y-76073000D02*
X96459000Y-76073000D01*
X82677000Y-68326000D02*
X82677000Y-70485000D01*
X83185000Y-70993000D02*
X82677000Y-70485000D01*
X87822000Y-70993000D02*
X83185000Y-70993000D01*
X83974000Y-72263000D02*
X82677000Y-73560000D01*
X87822000Y-72263000D02*
X83974000Y-72263000D01*
X72582000Y-74295000D02*
X72582000Y-75565000D01*
X72582000Y-75565000D02*
X72582000Y-76835000D01*
X53445000Y-131845100D02*
X53445000Y-88370000D01*
X55465000Y-133865100D02*
X53445000Y-131845100D01*
X55465000Y-139192000D02*
X55465000Y-133865100D01*
X83750800Y-76208800D02*
X83621300Y-76208800D01*
X85156600Y-74803000D02*
X83750800Y-76208800D01*
X87822000Y-74803000D02*
X85156600Y-74803000D01*
X98072800Y-89108800D02*
X98753000Y-89789000D01*
X84183200Y-89108800D02*
X98072800Y-89108800D01*
X83147000Y-90145000D02*
X84183200Y-89108800D01*
X71494200Y-79192800D02*
X72582000Y-78105000D01*
X71494200Y-99946700D02*
X71494200Y-79192800D01*
X73042400Y-101494900D02*
X71494200Y-99946700D01*
X78834500Y-81542200D02*
X78577900Y-81798800D01*
X78834500Y-77648600D02*
X78834500Y-81542200D01*
X78020900Y-76835000D02*
X78834500Y-77648600D01*
X77532000Y-76835000D02*
X78020900Y-76835000D01*
X106299000Y-56769000D02*
X106299000Y-62103000D01*
X117490600Y-72501400D02*
X100203000Y-89789000D01*
X117490600Y-63425400D02*
X117490600Y-72501400D01*
X117147200Y-63082000D02*
X117490600Y-63425400D01*
X107278000Y-63082000D02*
X117147200Y-63082000D01*
X106299000Y-62103000D02*
X107278000Y-63082000D01*
X108839000Y-56769000D02*
X108839000Y-62103000D01*
X111379000Y-56769000D02*
X111379000Y-62103000D01*
X113919000Y-56769000D02*
X113919000Y-62103000D01*
X116459000Y-56769000D02*
X116459000Y-62103000D01*
X77659000Y-70612000D02*
X77532000Y-70485000D01*
X77659000Y-71628000D02*
X77659000Y-70612000D01*
X90288000Y-71628000D02*
X77659000Y-71628000D01*
X91558000Y-72898000D02*
X90288000Y-71628000D01*
X93843400Y-72898000D02*
X91558000Y-72898000D01*
X94096400Y-72645000D02*
X93843400Y-72898000D01*
X94096400Y-69389500D02*
X94096400Y-72645000D01*
X93156300Y-68449400D02*
X94096400Y-69389500D01*
X91730900Y-68449400D02*
X93156300Y-68449400D01*
X90363600Y-67082100D02*
X91730900Y-68449400D01*
X90363600Y-65754600D02*
X90363600Y-67082100D01*
X100495900Y-55622300D02*
X90363600Y-65754600D01*
X116919600Y-55622300D02*
X100495900Y-55622300D01*
X117977000Y-56679700D02*
X116919600Y-55622300D01*
X117977000Y-102077800D02*
X117977000Y-56679700D01*
X99025000Y-139192000D02*
X99025000Y-121029800D01*
X77659000Y-71628000D02*
X77532000Y-71755000D01*
X77003100Y-80815100D02*
X77003100Y-82268800D01*
X73658000Y-77470000D02*
X77003100Y-80815100D01*
X71485800Y-77470000D02*
X73658000Y-77470000D01*
X71272500Y-77256700D02*
X71485800Y-77470000D01*
X71272500Y-72624800D02*
X71272500Y-77256700D01*
X72142300Y-71755000D02*
X71272500Y-72624800D01*
X72582000Y-71755000D02*
X72142300Y-71755000D01*
X77532000Y-75565000D02*
X77532000Y-74295000D01*
X78025700Y-75565000D02*
X77532000Y-75565000D01*
X79320200Y-76859500D02*
X78025700Y-75565000D01*
X79320200Y-82163200D02*
X79320200Y-76859500D01*
X78957700Y-82525700D02*
X79320200Y-82163200D01*
X77260000Y-82525700D02*
X78957700Y-82525700D01*
X77003100Y-82268800D02*
X77260000Y-82525700D01*
X102985000Y-139192000D02*
X102985000Y-133865100D01*
X117585900Y-119264200D02*
X102985000Y-133865100D01*
X72582000Y-73025000D02*
X75272100Y-73025000D01*
X60650600Y-133865100D02*
X59425000Y-133865100D01*
X77015900Y-117499800D02*
X60650600Y-133865100D01*
X77665700Y-117499800D02*
X77015900Y-117499800D01*
X59425000Y-139192000D02*
X59425000Y-133865100D01*
X79361000Y-115215400D02*
X79194200Y-115215400D01*
X90767000Y-103809400D02*
X79361000Y-115215400D01*
X90767000Y-100305000D02*
X90767000Y-103809400D01*
X63385000Y-132189300D02*
X75774700Y-119799600D01*
X63385000Y-139192000D02*
X63385000Y-132189300D01*
X79062900Y-110948600D02*
X78933100Y-110948600D01*
X86950400Y-103061100D02*
X79062900Y-110948600D01*
X86950400Y-101581600D02*
X86950400Y-103061100D01*
X88227000Y-100305000D02*
X86950400Y-101581600D01*
X67345000Y-129547600D02*
X67345000Y-139192000D01*
X73193900Y-123698700D02*
X67345000Y-129547600D01*
X78892700Y-107099300D02*
X78892700Y-107100900D01*
X83147000Y-102845000D02*
X78892700Y-107099300D01*
X71305000Y-127477300D02*
X72392300Y-126390000D01*
X71305000Y-139192000D02*
X71305000Y-127477300D01*
X75265000Y-139192000D02*
X75265000Y-133865100D01*
X81730000Y-112207300D02*
X81120600Y-112207300D01*
X89723600Y-104213700D02*
X81730000Y-112207300D01*
X89723600Y-99261600D02*
X89723600Y-104213700D01*
X88227000Y-97765000D02*
X89723600Y-99261600D01*
X78392600Y-130737500D02*
X78392600Y-125529400D01*
X75265000Y-133865100D02*
X78392600Y-130737500D01*
X79225000Y-139192000D02*
X79225000Y-133865100D01*
X92265900Y-106117100D02*
X80316400Y-118066600D01*
X92265900Y-97711700D02*
X92265900Y-106117100D01*
X91201200Y-96647000D02*
X92265900Y-97711700D01*
X89649000Y-96647000D02*
X91201200Y-96647000D01*
X88227000Y-95225000D02*
X89649000Y-96647000D01*
X80316400Y-132773700D02*
X79225000Y-133865100D01*
X80316400Y-127135200D02*
X80316400Y-132773700D01*
X83185000Y-139192000D02*
X83185000Y-133865100D01*
X83140100Y-133820200D02*
X83185000Y-133865100D01*
X83140100Y-127147500D02*
X83140100Y-133820200D01*
X89271700Y-103637600D02*
X83136600Y-109772700D01*
X89271700Y-99783900D02*
X89271700Y-103637600D01*
X88522800Y-99035000D02*
X89271700Y-99783900D01*
X87960600Y-99035000D02*
X88522800Y-99035000D01*
X87168100Y-98242500D02*
X87960600Y-99035000D01*
X87168100Y-93743900D02*
X87168100Y-98242500D01*
X88227000Y-92685000D02*
X87168100Y-93743900D01*
X87145000Y-139192000D02*
X87145000Y-133865100D01*
X89497000Y-91415000D02*
X88227000Y-90145000D01*
X89497000Y-92935300D02*
X89497000Y-91415000D01*
X90516700Y-93955000D02*
X89497000Y-92935300D01*
X91068800Y-93955000D02*
X90516700Y-93955000D01*
X93169700Y-96055900D02*
X91068800Y-93955000D01*
X93169700Y-109155100D02*
X93169700Y-96055900D01*
X85350200Y-116974600D02*
X93169700Y-109155100D01*
X85350200Y-132070300D02*
X85350200Y-127138600D01*
X87145000Y-133865100D02*
X85350200Y-132070300D01*
X73213000Y-92685000D02*
X78067000Y-92685000D01*
X72002500Y-93895500D02*
X73213000Y-92685000D01*
X72002500Y-99427000D02*
X72002500Y-93895500D01*
X73769300Y-101193800D02*
X72002500Y-99427000D01*
X73769300Y-111733900D02*
X73769300Y-101193800D01*
X78716800Y-116681400D02*
X73769300Y-111733900D01*
X78716800Y-118591200D02*
X78716800Y-116681400D01*
X91105000Y-130979400D02*
X78716800Y-118591200D01*
X91105000Y-139192000D02*
X91105000Y-130979400D01*
X95065000Y-139192000D02*
X95065000Y-133865100D01*
X79126900Y-98824900D02*
X78067000Y-97765000D01*
X79126900Y-105343100D02*
X79126900Y-98824900D01*
X78163500Y-106306500D02*
X79126900Y-105343100D01*
X78163500Y-115264100D02*
X78163500Y-106306500D01*
X79393800Y-116494400D02*
X78163500Y-115264100D01*
X79393800Y-118193900D02*
X79393800Y-116494400D01*
X95065000Y-133865100D02*
X79393800Y-118193900D01*
X79566300Y-88476700D02*
X79963400Y-88873800D01*
X79566300Y-85821000D02*
X79566300Y-88476700D01*
X79776300Y-85611000D02*
X79566300Y-85821000D01*
X79776300Y-74888900D02*
X79776300Y-85611000D01*
X77912400Y-73025000D02*
X79776300Y-74888900D01*
X77532000Y-73025000D02*
X77912400Y-73025000D01*
X72467300Y-99109300D02*
X78400000Y-105042000D01*
X72467300Y-95292500D02*
X72467300Y-99109300D01*
X72791100Y-94968700D02*
X72467300Y-95292500D01*
X77810700Y-94968700D02*
X72791100Y-94968700D01*
X78067000Y-95225000D02*
X77810700Y-94968700D01*
X94604900Y-123871500D02*
X94604900Y-126368700D01*
X90083300Y-119349900D02*
X94604900Y-123871500D01*
X94073500Y-113281500D02*
X87248700Y-120106300D01*
X94073500Y-93451500D02*
X94073500Y-113281500D01*
X90767000Y-90145000D02*
X94073500Y-93451500D01*
X93621600Y-95539600D02*
X90767000Y-92685000D01*
X93621600Y-111909800D02*
X93621600Y-95539600D01*
X84496400Y-121035000D02*
X93621600Y-111909800D01*
X92717800Y-97175800D02*
X90767000Y-95225000D01*
X92717800Y-107331800D02*
X92717800Y-97175800D01*
X81735300Y-118314300D02*
X92717800Y-107331800D01*
X91806000Y-105427500D02*
X80193200Y-117040300D01*
X91806000Y-98804000D02*
X91806000Y-105427500D01*
X90767000Y-97765000D02*
X91806000Y-98804000D01*
X75678700Y-96265500D02*
X75390300Y-95977100D01*
X81647500Y-96265500D02*
X75678700Y-96265500D01*
X85687000Y-100305000D02*
X81647500Y-96265500D01*
X66107700Y-127154300D02*
X61937300Y-127154300D01*
X76751600Y-116510400D02*
X66107700Y-127154300D01*
X88227000Y-102845000D02*
X79961300Y-111110700D01*
X89027000Y-66101000D02*
X89347000Y-66421000D01*
X89027000Y-63119000D02*
X89027000Y-66101000D01*
X96647000Y-81534000D02*
X90551000Y-81534000D01*
X79375000Y-91377000D02*
X80607000Y-90145000D01*
X79375000Y-93310000D02*
X79375000Y-91377000D01*
X78766000Y-93919000D02*
X79375000Y-93310000D01*
X73533000Y-93919000D02*
X78766000Y-93919000D01*
X95377000Y-49149000D02*
X106299000Y-49149000D01*
X91247000Y-53279000D02*
X95377000Y-49149000D01*
X91247000Y-60899000D02*
X91247000Y-53279000D01*
X89027000Y-63119000D02*
X91247000Y-60899000D01*
X106299000Y-49149000D02*
X108839000Y-49149000D01*
X108839000Y-49149000D02*
X111379000Y-49149000D01*
X111379000Y-49149000D02*
X113919000Y-49149000D01*
X113919000Y-49149000D02*
X116459000Y-49149000D01*
X80607000Y-90145000D02*
X83147000Y-87605000D01*
X92772000Y-72263000D02*
X92772000Y-70993000D01*
X87822000Y-67946000D02*
X87822000Y-69294000D01*
X89347000Y-66421000D02*
X87822000Y-67946000D01*
X87822000Y-69294000D02*
X87822000Y-69723000D01*
X89521000Y-70993000D02*
X92772000Y-70993000D01*
X87822000Y-69294000D02*
X89521000Y-70993000D01*
X72582000Y-70485000D02*
X72582000Y-69025700D01*
X73279000Y-66929000D02*
X74107000Y-66929000D01*
X72582000Y-67626000D02*
X73279000Y-66929000D01*
X72582000Y-69025700D02*
X72582000Y-67626000D01*
X56278700Y-69025700D02*
X51134000Y-63881000D01*
X72582000Y-69025700D02*
X56278700Y-69025700D01*
X87815800Y-76066800D02*
X86228800Y-76066800D01*
X87822000Y-76073000D02*
X87815800Y-76066800D01*
X89218000Y-81534000D02*
X83147000Y-87605000D01*
X90551000Y-81534000D02*
X89218000Y-81534000D01*
X82677000Y-66501000D02*
X82717000Y-66461000D01*
X82757000Y-66421000D02*
X89347000Y-66421000D01*
X82717000Y-66461000D02*
X82757000Y-66421000D01*
X75189200Y-65846800D02*
X74107000Y-66929000D01*
X82102800Y-65846800D02*
X75189200Y-65846800D01*
X82717000Y-66461000D02*
X82102800Y-65846800D01*
X108839000Y-63928000D02*
X106299000Y-63928000D01*
X111379000Y-63928000D02*
X108839000Y-63928000D01*
X116459000Y-63928000D02*
X113919000Y-63928000D01*
X113919000Y-63928000D02*
X111379000Y-63928000D01*
X79570800Y-96728800D02*
X80607000Y-97765000D01*
X74442800Y-96728800D02*
X79570800Y-96728800D01*
X73533000Y-95819000D02*
X74442800Y-96728800D01*
X100965000Y-66421000D02*
X94401000Y-66421000D01*
X103458000Y-63928000D02*
X100965000Y-66421000D01*
X106299000Y-63928000D02*
X103458000Y-63928000D01*
X94401000Y-66421000D02*
X91247000Y-66421000D01*
X88580800Y-78613000D02*
X87822000Y-78613000D01*
X90480200Y-76713600D02*
X88580800Y-78613000D01*
X94401000Y-67664700D02*
X94401000Y-66421000D01*
X94588100Y-67851800D02*
X94401000Y-67664700D01*
X94588100Y-73115900D02*
X94588100Y-67851800D01*
X94401000Y-73303000D02*
X94588100Y-73115900D01*
X94401000Y-74844200D02*
X94401000Y-73303000D01*
X93807200Y-75438000D02*
X94401000Y-74844200D01*
X91755800Y-75438000D02*
X93807200Y-75438000D01*
X90480200Y-76713600D02*
X91755800Y-75438000D01*
X76007000Y-77531000D02*
X76007000Y-72390000D01*
X76581000Y-78105000D02*
X76007000Y-77531000D01*
X77532000Y-78105000D02*
X76581000Y-78105000D01*
X110905000Y-127210700D02*
X110843600Y-127149300D01*
X110905000Y-139192000D02*
X110905000Y-127210700D01*
X92379500Y-78613000D02*
X92772000Y-78613000D01*
X90480200Y-76713600D02*
X92379500Y-78613000D01*
X48747000Y-52345000D02*
X55247000Y-52345000D01*
X82081400Y-97765000D02*
X80607000Y-97765000D01*
X84417000Y-100100600D02*
X82081400Y-97765000D01*
X84417000Y-101575000D02*
X84417000Y-100100600D01*
X85687000Y-102845000D02*
X84417000Y-101575000D01*
X91400700Y-88354500D02*
X90696500Y-88354500D01*
X97688800Y-82066400D02*
X91400700Y-88354500D01*
X97688800Y-81036300D02*
X97688800Y-82066400D01*
X97274000Y-80621500D02*
X97688800Y-81036300D01*
X94780500Y-80621500D02*
X97274000Y-80621500D01*
X92772000Y-78613000D02*
X94780500Y-80621500D01*
X76007000Y-72390000D02*
X76007000Y-71120000D01*
X76007000Y-71120000D02*
X76007000Y-66929000D01*
X48101400Y-88370000D02*
X47498000Y-88370000D01*
X61088300Y-75383100D02*
X48101400Y-88370000D01*
X61088300Y-75383200D02*
X61088300Y-75383100D01*
X61863900Y-75383200D02*
X61088300Y-75383200D01*
X66127100Y-71120000D02*
X61863900Y-75383200D01*
X76007000Y-71120000D02*
X66127100Y-71120000D01*
X47366400Y-53725600D02*
X48747000Y-52345000D01*
X47366400Y-61661300D02*
X47366400Y-53725600D01*
X61088300Y-75383100D02*
X47366400Y-61661300D01*
X84982700Y-78613000D02*
X87822000Y-78613000D01*
X78759700Y-72390000D02*
X84982700Y-78613000D01*
X76007000Y-72390000D02*
X78759700Y-72390000D01*
M02*
