G04 #@! TF.GenerationSoftware,KiCad,Pcbnew,(6.0.9)*
G04 #@! TF.CreationDate,2023-09-15T10:25:23+02:00*
G04 #@! TF.ProjectId,p2000t-multicartridge-smd,70323030-3074-42d6-9d75-6c7469636172,rev?*
G04 #@! TF.SameCoordinates,Original*
G04 #@! TF.FileFunction,Soldermask,Bot*
G04 #@! TF.FilePolarity,Negative*
%FSLAX46Y46*%
G04 Gerber Fmt 4.6, Leading zero omitted, Abs format (unit mm)*
G04 Created by KiCad (PCBNEW (6.0.9)) date 2023-09-15 10:25:23*
%MOMM*%
%LPD*%
G01*
G04 APERTURE LIST*
G04 Aperture macros list*
%AMRoundRect*
0 Rectangle with rounded corners*
0 $1 Rounding radius*
0 $2 $3 $4 $5 $6 $7 $8 $9 X,Y pos of 4 corners*
0 Add a 4 corners polygon primitive as box body*
4,1,4,$2,$3,$4,$5,$6,$7,$8,$9,$2,$3,0*
0 Add four circle primitives for the rounded corners*
1,1,$1+$1,$2,$3*
1,1,$1+$1,$4,$5*
1,1,$1+$1,$6,$7*
1,1,$1+$1,$8,$9*
0 Add four rect primitives between the rounded corners*
20,1,$1+$1,$2,$3,$4,$5,0*
20,1,$1+$1,$4,$5,$6,$7,0*
20,1,$1+$1,$6,$7,$8,$9,0*
20,1,$1+$1,$8,$9,$2,$3,0*%
%AMFreePoly0*
4,1,6,0.500000,-0.750000,-0.650000,-0.750000,-0.150000,0.000000,-0.650000,0.750000,0.500000,0.750000,0.500000,-0.750000,0.500000,-0.750000,$1*%
%AMFreePoly1*
4,1,6,1.000000,0.000000,0.500000,-0.750000,-0.500000,-0.750000,-0.500000,0.750000,0.500000,0.750000,1.000000,0.000000,1.000000,0.000000,$1*%
G04 Aperture macros list end*
%ADD10C,2.000000*%
%ADD11C,1.500000*%
%ADD12R,1.600000X1.600000*%
%ADD13O,1.600000X1.600000*%
%ADD14RoundRect,0.150000X0.825000X0.150000X-0.825000X0.150000X-0.825000X-0.150000X0.825000X-0.150000X0*%
%ADD15RoundRect,0.250000X-0.250000X-0.475000X0.250000X-0.475000X0.250000X0.475000X-0.250000X0.475000X0*%
%ADD16RoundRect,0.250000X-0.475000X0.250000X-0.475000X-0.250000X0.475000X-0.250000X0.475000X0.250000X0*%
%ADD17FreePoly0,180.000000*%
%ADD18FreePoly1,180.000000*%
%ADD19RoundRect,0.250000X-0.925000X0.412500X-0.925000X-0.412500X0.925000X-0.412500X0.925000X0.412500X0*%
%ADD20RoundRect,0.250000X-0.262500X-0.450000X0.262500X-0.450000X0.262500X0.450000X-0.262500X0.450000X0*%
%ADD21RoundRect,0.250000X-0.450000X0.262500X-0.450000X-0.262500X0.450000X-0.262500X0.450000X0.262500X0*%
%ADD22R,2.000000X10.000000*%
%ADD23RoundRect,0.250000X0.475000X-0.250000X0.475000X0.250000X-0.475000X0.250000X-0.475000X-0.250000X0*%
%ADD24R,1.422400X1.422400*%
%ADD25C,1.422400*%
%ADD26RoundRect,0.250000X0.450000X-0.262500X0.450000X0.262500X-0.450000X0.262500X-0.450000X-0.262500X0*%
G04 APERTURE END LIST*
D10*
X55247000Y-52345000D03*
X48747000Y-52345000D03*
X55247000Y-56845000D03*
X48747000Y-56845000D03*
D11*
X47498000Y-81661000D03*
X47498000Y-88370000D03*
X53445000Y-88370000D03*
X53467000Y-81407000D03*
D12*
X116459000Y-49149000D03*
D13*
X113919000Y-49149000D03*
X111379000Y-49149000D03*
X108839000Y-49149000D03*
X106299000Y-49149000D03*
X106299000Y-56769000D03*
X108839000Y-56769000D03*
X111379000Y-56769000D03*
X113919000Y-56769000D03*
X116459000Y-56769000D03*
D14*
X77532000Y-70485000D03*
X77532000Y-71755000D03*
X77532000Y-73025000D03*
X77532000Y-74295000D03*
X77532000Y-75565000D03*
X77532000Y-76835000D03*
X77532000Y-78105000D03*
X72582000Y-78105000D03*
X72582000Y-76835000D03*
X72582000Y-75565000D03*
X72582000Y-74295000D03*
X72582000Y-73025000D03*
X72582000Y-71755000D03*
X72582000Y-70485000D03*
D15*
X74107000Y-66929000D03*
X76007000Y-66929000D03*
D16*
X73533000Y-93919000D03*
X73533000Y-95819000D03*
D17*
X98753000Y-89789000D03*
D18*
X100203000Y-89789000D03*
D14*
X92772000Y-69723000D03*
X92772000Y-70993000D03*
X92772000Y-72263000D03*
X92772000Y-73533000D03*
X92772000Y-74803000D03*
X92772000Y-76073000D03*
X92772000Y-77343000D03*
X92772000Y-78613000D03*
X87822000Y-78613000D03*
X87822000Y-77343000D03*
X87822000Y-76073000D03*
X87822000Y-74803000D03*
X87822000Y-73533000D03*
X87822000Y-72263000D03*
X87822000Y-70993000D03*
X87822000Y-69723000D03*
D19*
X82677000Y-70485000D03*
X82677000Y-73560000D03*
D15*
X89347000Y-66421000D03*
X91247000Y-66421000D03*
D20*
X51134000Y-63881000D03*
X52959000Y-63881000D03*
D21*
X82677000Y-66501000D03*
X82677000Y-68326000D03*
X96647000Y-79709000D03*
X96647000Y-81534000D03*
D22*
X55465000Y-139192000D03*
X59425000Y-139192000D03*
X63385000Y-139192000D03*
X67345000Y-139192000D03*
X71305000Y-139192000D03*
X75265000Y-139192000D03*
X79225000Y-139192000D03*
X83185000Y-139192000D03*
X87145000Y-139192000D03*
X91105000Y-139192000D03*
X95065000Y-139192000D03*
X99025000Y-139192000D03*
X102985000Y-139192000D03*
X110905000Y-139192000D03*
D23*
X96647000Y-77785000D03*
X96647000Y-75885000D03*
D24*
X83147000Y-90145000D03*
D25*
X85687000Y-87605000D03*
X85687000Y-90145000D03*
X88227000Y-87605000D03*
X90767000Y-90145000D03*
X88227000Y-90145000D03*
X90767000Y-92685000D03*
X88227000Y-92685000D03*
X90767000Y-95225000D03*
X88227000Y-95225000D03*
X90767000Y-97765000D03*
X88227000Y-97765000D03*
X90767000Y-100305000D03*
X88227000Y-102845000D03*
X88227000Y-100305000D03*
X85687000Y-102845000D03*
X85687000Y-100305000D03*
X83147000Y-102845000D03*
X83147000Y-100305000D03*
X80607000Y-102845000D03*
X78067000Y-100305000D03*
X80607000Y-100305000D03*
X78067000Y-97765000D03*
X80607000Y-97765000D03*
X78067000Y-95225000D03*
X80607000Y-95225000D03*
X78067000Y-92685000D03*
X80607000Y-92685000D03*
X78067000Y-90145000D03*
X80607000Y-87605000D03*
X80607000Y-90145000D03*
X83147000Y-87605000D03*
D26*
X113919000Y-63928000D03*
X113919000Y-62103000D03*
X106299000Y-63928000D03*
X106299000Y-62103000D03*
X116459000Y-63928000D03*
X116459000Y-62103000D03*
X111379000Y-63928000D03*
X111379000Y-62103000D03*
X108839000Y-63928000D03*
X108839000Y-62103000D03*
M02*
