M48
; DRILL file {KiCad (6.0.9)} date Fri Sep 15 10:25:25 2023
; FORMAT={-:-/ absolute / inch / decimal}
; #@! TF.CreationDate,2023-09-15T10:25:25+02:00
; #@! TF.GenerationSoftware,Kicad,Pcbnew,(6.0.9)
; #@! TF.FileFunction,Plated,1,2,PTH
FMAT,2
INCH
; #@! TA.AperFunction,Plated,PTH,ViaDrill
T1C0.0157
; #@! TA.AperFunction,Plated,PTH,ComponentDrill
T2C0.0276
; #@! TA.AperFunction,Plated,PTH,ComponentDrill
T3C0.0315
; #@! TA.AperFunction,Plated,PTH,ComponentDrill
T4C0.0433
%
G90
G05
T1
X2.4385Y-5.0061
X2.8501Y-4.976
X2.8757Y-3.9959
X2.8816Y-4.87
X2.9635Y-2.875
X2.9681Y-3.7786
X2.9833Y-4.7165
X3.0217Y-4.587
X3.0316Y-3.2389
X3.0577Y-4.626
X3.0863Y-4.9421
X3.0866Y-4.1355
X3.0936Y-3.2204
X3.106Y-4.2166
X3.1076Y-4.3681
X3.1179Y-4.536
X3.1481Y-4.3744
X3.1482Y-3.499
X3.1572Y-4.6079
X3.1621Y-4.6483
X3.1621Y-5.0053
X3.1937Y-4.4176
X3.2179Y-4.658
X3.2552Y-2.9639
X3.2731Y-4.3218
X3.2732Y-5.0058
X3.2922Y-3.0003
X3.3266Y-4.7652
X3.3602Y-4.6053
X3.3602Y-5.0055
X3.3948Y-2.9948
X3.435Y-4.7286
X3.505Y-2.485
X3.5201Y-2.7402
X3.5466Y-4.6988
X3.565Y-3.21
X3.5707Y-3.4785
X3.7246Y-4.9751
X4.3639Y-5.0059
X4.6294Y-4.6954
T2
X1.87Y-3.215
X1.87Y-3.4791
X2.1041Y-3.4791
X2.105Y-3.205
T3
X3.0735Y-3.549
X3.0735Y-3.649
X3.0735Y-3.749
X3.0735Y-3.849
X3.0735Y-3.949
X3.1735Y-3.449
X3.1735Y-3.549
X3.1735Y-3.649
X3.1735Y-3.749
X3.1735Y-3.849
X3.1735Y-3.949
X3.1735Y-4.049
X3.2735Y-3.449
X3.2735Y-3.549
X3.2735Y-3.949
X3.2735Y-4.049
X3.3735Y-3.449
X3.3735Y-3.549
X3.3735Y-3.949
X3.3735Y-4.049
X3.4735Y-3.449
X3.4735Y-3.549
X3.4735Y-3.649
X3.4735Y-3.749
X3.4735Y-3.849
X3.4735Y-3.949
X3.4735Y-4.049
X3.5735Y-3.549
X3.5735Y-3.649
X3.5735Y-3.749
X3.5735Y-3.849
X3.5735Y-3.949
X4.185Y-1.935
X4.185Y-2.235
X4.285Y-1.935
X4.285Y-2.235
X4.385Y-1.935
X4.385Y-2.235
X4.485Y-1.935
X4.485Y-2.235
X4.585Y-1.935
X4.585Y-2.235
T4
X1.9192Y-2.0608
X1.9192Y-2.238
X2.1751Y-2.0608
X2.1751Y-2.238
T0
M30
