G04 #@! TF.GenerationSoftware,KiCad,Pcbnew,(6.0.9)*
G04 #@! TF.CreationDate,2023-09-15T10:25:23+02:00*
G04 #@! TF.ProjectId,p2000t-multicartridge-smd,70323030-3074-42d6-9d75-6c7469636172,rev?*
G04 #@! TF.SameCoordinates,Original*
G04 #@! TF.FileFunction,Legend,Top*
G04 #@! TF.FilePolarity,Positive*
%FSLAX46Y46*%
G04 Gerber Fmt 4.6, Leading zero omitted, Abs format (unit mm)*
G04 Created by KiCad (PCBNEW (6.0.9)) date 2023-09-15 10:25:23*
%MOMM*%
%LPD*%
G01*
G04 APERTURE LIST*
%ADD10C,0.120000*%
%ADD11C,0.150000*%
%ADD12C,0.300000*%
%ADD13C,0.200000*%
%ADD14C,2.000000*%
%ADD15C,1.500000*%
%ADD16R,1.600000X1.600000*%
%ADD17O,1.600000X1.600000*%
%ADD18R,2.000000X10.000000*%
%ADD19R,1.422400X1.422400*%
%ADD20C,1.422400*%
G04 APERTURE END LIST*
D10*
X54214000Y-128905000D02*
X54214000Y-131445000D01*
X109586000Y-131445000D02*
X111999000Y-131445000D01*
X109586000Y-127889000D02*
X109586000Y-131445000D01*
X44323000Y-78105000D02*
X44450000Y-78105000D01*
X74153000Y-131445000D02*
X96251000Y-131445000D01*
X45847000Y-92202000D02*
X44323000Y-92202000D01*
X56769000Y-78105000D02*
X56769000Y-92202000D01*
X44323000Y-92202000D02*
X44323000Y-78105000D01*
X58278000Y-131445000D02*
X72375000Y-131445000D01*
X111999000Y-131445000D02*
X111999000Y-127889000D01*
X56627000Y-131445000D02*
X56627000Y-128905000D01*
X65913000Y-52197000D02*
X70993000Y-52197000D01*
X70993000Y-52197000D02*
X70993000Y-57277000D01*
X70993000Y-57277000D02*
X65913000Y-57277000D01*
X65913000Y-57277000D02*
X65913000Y-52197000D01*
G36*
X65913000Y-52197000D02*
G01*
X70993000Y-52197000D01*
X70993000Y-57277000D01*
X65913000Y-57277000D01*
X65913000Y-52197000D01*
G37*
X56769000Y-92202000D02*
X45847000Y-92202000D01*
X111999000Y-127889000D02*
X109586000Y-127889000D01*
X44450000Y-78105000D02*
X56769000Y-78105000D01*
X54214000Y-131445000D02*
X56627000Y-131445000D01*
X59563000Y-52197000D02*
X64643000Y-52197000D01*
X64643000Y-52197000D02*
X64643000Y-57277000D01*
X64643000Y-57277000D02*
X59563000Y-57277000D01*
X59563000Y-57277000D02*
X59563000Y-52197000D01*
G36*
X59563000Y-52197000D02*
G01*
X64643000Y-52197000D01*
X64643000Y-57277000D01*
X59563000Y-57277000D01*
X59563000Y-52197000D01*
G37*
X56627000Y-128905000D02*
X54214000Y-128905000D01*
D11*
X86464142Y-133040380D02*
X86654619Y-133040380D01*
X86749857Y-132992761D01*
X86797476Y-132945142D01*
X86892714Y-132802285D01*
X86940333Y-132611809D01*
X86940333Y-132230857D01*
X86892714Y-132135619D01*
X86845095Y-132088000D01*
X86749857Y-132040380D01*
X86559380Y-132040380D01*
X86464142Y-132088000D01*
X86416523Y-132135619D01*
X86368904Y-132230857D01*
X86368904Y-132468952D01*
X86416523Y-132564190D01*
X86464142Y-132611809D01*
X86559380Y-132659428D01*
X86749857Y-132659428D01*
X86845095Y-132611809D01*
X86892714Y-132564190D01*
X86940333Y-132468952D01*
X87368904Y-133040380D02*
X87368904Y-132040380D01*
X87368904Y-132421333D02*
X87464142Y-132373714D01*
X87654619Y-132373714D01*
X87749857Y-132421333D01*
X87797476Y-132468952D01*
X87845095Y-132564190D01*
X87845095Y-132849904D01*
X87797476Y-132945142D01*
X87749857Y-132992761D01*
X87654619Y-133040380D01*
X87464142Y-133040380D01*
X87368904Y-132992761D01*
X74907095Y-132040380D02*
X74716619Y-132040380D01*
X74621380Y-132088000D01*
X74573761Y-132135619D01*
X74478523Y-132278476D01*
X74430904Y-132468952D01*
X74430904Y-132849904D01*
X74478523Y-132945142D01*
X74526142Y-132992761D01*
X74621380Y-133040380D01*
X74811857Y-133040380D01*
X74907095Y-132992761D01*
X74954714Y-132945142D01*
X75002333Y-132849904D01*
X75002333Y-132611809D01*
X74954714Y-132516571D01*
X74907095Y-132468952D01*
X74811857Y-132421333D01*
X74621380Y-132421333D01*
X74526142Y-132468952D01*
X74478523Y-132516571D01*
X74430904Y-132611809D01*
X75430904Y-133040380D02*
X75430904Y-132040380D01*
X75430904Y-132421333D02*
X75526142Y-132373714D01*
X75716619Y-132373714D01*
X75811857Y-132421333D01*
X75859476Y-132468952D01*
X75907095Y-132564190D01*
X75907095Y-132849904D01*
X75859476Y-132945142D01*
X75811857Y-132992761D01*
X75716619Y-133040380D01*
X75526142Y-133040380D01*
X75430904Y-132992761D01*
X82622380Y-132468952D02*
X82527142Y-132421333D01*
X82479523Y-132373714D01*
X82431904Y-132278476D01*
X82431904Y-132230857D01*
X82479523Y-132135619D01*
X82527142Y-132088000D01*
X82622380Y-132040380D01*
X82812857Y-132040380D01*
X82908095Y-132088000D01*
X82955714Y-132135619D01*
X83003333Y-132230857D01*
X83003333Y-132278476D01*
X82955714Y-132373714D01*
X82908095Y-132421333D01*
X82812857Y-132468952D01*
X82622380Y-132468952D01*
X82527142Y-132516571D01*
X82479523Y-132564190D01*
X82431904Y-132659428D01*
X82431904Y-132849904D01*
X82479523Y-132945142D01*
X82527142Y-132992761D01*
X82622380Y-133040380D01*
X82812857Y-133040380D01*
X82908095Y-132992761D01*
X82955714Y-132945142D01*
X83003333Y-132849904D01*
X83003333Y-132659428D01*
X82955714Y-132564190D01*
X82908095Y-132516571D01*
X82812857Y-132468952D01*
X83431904Y-133040380D02*
X83431904Y-132040380D01*
X83431904Y-132421333D02*
X83527142Y-132373714D01*
X83717619Y-132373714D01*
X83812857Y-132421333D01*
X83860476Y-132468952D01*
X83908095Y-132564190D01*
X83908095Y-132849904D01*
X83860476Y-132945142D01*
X83812857Y-132992761D01*
X83717619Y-133040380D01*
X83527142Y-133040380D01*
X83431904Y-132992761D01*
X67033095Y-132373714D02*
X67033095Y-133040380D01*
X66795000Y-131992761D02*
X66556904Y-132707047D01*
X67175952Y-132707047D01*
X67556904Y-133040380D02*
X67556904Y-132040380D01*
X67556904Y-132421333D02*
X67652142Y-132373714D01*
X67842619Y-132373714D01*
X67937857Y-132421333D01*
X67985476Y-132468952D01*
X68033095Y-132564190D01*
X68033095Y-132849904D01*
X67985476Y-132945142D01*
X67937857Y-132992761D01*
X67842619Y-133040380D01*
X67652142Y-133040380D01*
X67556904Y-132992761D01*
X55190333Y-133040380D02*
X54618904Y-133040380D01*
X54904619Y-133040380D02*
X54904619Y-132040380D01*
X54809380Y-132183238D01*
X54714142Y-132278476D01*
X54618904Y-132326095D01*
X55618904Y-133040380D02*
X55618904Y-132040380D01*
X55618904Y-132421333D02*
X55714142Y-132373714D01*
X55904619Y-132373714D01*
X55999857Y-132421333D01*
X56047476Y-132468952D01*
X56095095Y-132564190D01*
X56095095Y-132849904D01*
X56047476Y-132945142D01*
X55999857Y-132992761D01*
X55904619Y-133040380D01*
X55714142Y-133040380D01*
X55618904Y-132992761D01*
X58555904Y-132135619D02*
X58603523Y-132088000D01*
X58698761Y-132040380D01*
X58936857Y-132040380D01*
X59032095Y-132088000D01*
X59079714Y-132135619D01*
X59127333Y-132230857D01*
X59127333Y-132326095D01*
X59079714Y-132468952D01*
X58508285Y-133040380D01*
X59127333Y-133040380D01*
X59555904Y-133040380D02*
X59555904Y-132040380D01*
X59555904Y-132421333D02*
X59651142Y-132373714D01*
X59841619Y-132373714D01*
X59936857Y-132421333D01*
X59984476Y-132468952D01*
X60032095Y-132564190D01*
X60032095Y-132849904D01*
X59984476Y-132945142D01*
X59936857Y-132992761D01*
X59841619Y-133040380D01*
X59651142Y-133040380D01*
X59555904Y-132992761D01*
X71017714Y-132040380D02*
X70541523Y-132040380D01*
X70493904Y-132516571D01*
X70541523Y-132468952D01*
X70636761Y-132421333D01*
X70874857Y-132421333D01*
X70970095Y-132468952D01*
X71017714Y-132516571D01*
X71065333Y-132611809D01*
X71065333Y-132849904D01*
X71017714Y-132945142D01*
X70970095Y-132992761D01*
X70874857Y-133040380D01*
X70636761Y-133040380D01*
X70541523Y-132992761D01*
X70493904Y-132945142D01*
X71493904Y-133040380D02*
X71493904Y-132040380D01*
X71493904Y-132421333D02*
X71589142Y-132373714D01*
X71779619Y-132373714D01*
X71874857Y-132421333D01*
X71922476Y-132468952D01*
X71970095Y-132564190D01*
X71970095Y-132849904D01*
X71922476Y-132945142D01*
X71874857Y-132992761D01*
X71779619Y-133040380D01*
X71589142Y-133040380D01*
X71493904Y-132992761D01*
X78320285Y-132040380D02*
X78986952Y-132040380D01*
X78558380Y-133040380D01*
X79367904Y-133040380D02*
X79367904Y-132040380D01*
X79367904Y-132421333D02*
X79463142Y-132373714D01*
X79653619Y-132373714D01*
X79748857Y-132421333D01*
X79796476Y-132468952D01*
X79844095Y-132564190D01*
X79844095Y-132849904D01*
X79796476Y-132945142D01*
X79748857Y-132992761D01*
X79653619Y-133040380D01*
X79463142Y-133040380D01*
X79367904Y-132992761D01*
X94465142Y-133040380D02*
X93893714Y-133040380D01*
X94179428Y-133040380D02*
X94179428Y-132040380D01*
X94084190Y-132183238D01*
X93988952Y-132278476D01*
X93893714Y-132326095D01*
X95417523Y-133040380D02*
X94846095Y-133040380D01*
X95131809Y-133040380D02*
X95131809Y-132040380D01*
X95036571Y-132183238D01*
X94941333Y-132278476D01*
X94846095Y-132326095D01*
X95846095Y-133040380D02*
X95846095Y-132040380D01*
X95846095Y-132421333D02*
X95941333Y-132373714D01*
X96131809Y-132373714D01*
X96227047Y-132421333D01*
X96274666Y-132468952D01*
X96322285Y-132564190D01*
X96322285Y-132849904D01*
X96274666Y-132945142D01*
X96227047Y-132992761D01*
X96131809Y-133040380D01*
X95941333Y-133040380D01*
X95846095Y-132992761D01*
X98402142Y-133040380D02*
X97830714Y-133040380D01*
X98116428Y-133040380D02*
X98116428Y-132040380D01*
X98021190Y-132183238D01*
X97925952Y-132278476D01*
X97830714Y-132326095D01*
X98783095Y-132135619D02*
X98830714Y-132088000D01*
X98925952Y-132040380D01*
X99164047Y-132040380D01*
X99259285Y-132088000D01*
X99306904Y-132135619D01*
X99354523Y-132230857D01*
X99354523Y-132326095D01*
X99306904Y-132468952D01*
X98735476Y-133040380D01*
X99354523Y-133040380D01*
X99783095Y-133040380D02*
X99783095Y-132040380D01*
X99783095Y-132421333D02*
X99878333Y-132373714D01*
X100068809Y-132373714D01*
X100164047Y-132421333D01*
X100211666Y-132468952D01*
X100259285Y-132564190D01*
X100259285Y-132849904D01*
X100211666Y-132945142D01*
X100164047Y-132992761D01*
X100068809Y-133040380D01*
X99878333Y-133040380D01*
X99783095Y-132992761D01*
X110213142Y-133040380D02*
X109641714Y-133040380D01*
X109927428Y-133040380D02*
X109927428Y-132040380D01*
X109832190Y-132183238D01*
X109736952Y-132278476D01*
X109641714Y-132326095D01*
X111117904Y-132040380D02*
X110641714Y-132040380D01*
X110594095Y-132516571D01*
X110641714Y-132468952D01*
X110736952Y-132421333D01*
X110975047Y-132421333D01*
X111070285Y-132468952D01*
X111117904Y-132516571D01*
X111165523Y-132611809D01*
X111165523Y-132849904D01*
X111117904Y-132945142D01*
X111070285Y-132992761D01*
X110975047Y-133040380D01*
X110736952Y-133040380D01*
X110641714Y-132992761D01*
X110594095Y-132945142D01*
X111594095Y-133040380D02*
X111594095Y-132040380D01*
X111594095Y-132421333D02*
X111689333Y-132373714D01*
X111879809Y-132373714D01*
X111975047Y-132421333D01*
X112022666Y-132468952D01*
X112070285Y-132564190D01*
X112070285Y-132849904D01*
X112022666Y-132945142D01*
X111975047Y-132992761D01*
X111879809Y-133040380D01*
X111689333Y-133040380D01*
X111594095Y-132992761D01*
X62572285Y-132040380D02*
X63191333Y-132040380D01*
X62858000Y-132421333D01*
X63000857Y-132421333D01*
X63096095Y-132468952D01*
X63143714Y-132516571D01*
X63191333Y-132611809D01*
X63191333Y-132849904D01*
X63143714Y-132945142D01*
X63096095Y-132992761D01*
X63000857Y-133040380D01*
X62715142Y-133040380D01*
X62619904Y-132992761D01*
X62572285Y-132945142D01*
X63619904Y-133040380D02*
X63619904Y-132040380D01*
X63619904Y-132421333D02*
X63715142Y-132373714D01*
X63905619Y-132373714D01*
X64000857Y-132421333D01*
X64048476Y-132468952D01*
X64096095Y-132564190D01*
X64096095Y-132849904D01*
X64048476Y-132945142D01*
X64000857Y-132992761D01*
X63905619Y-133040380D01*
X63715142Y-133040380D01*
X63619904Y-132992761D01*
X90401142Y-133040380D02*
X89829714Y-133040380D01*
X90115428Y-133040380D02*
X90115428Y-132040380D01*
X90020190Y-132183238D01*
X89924952Y-132278476D01*
X89829714Y-132326095D01*
X91020190Y-132040380D02*
X91115428Y-132040380D01*
X91210666Y-132088000D01*
X91258285Y-132135619D01*
X91305904Y-132230857D01*
X91353523Y-132421333D01*
X91353523Y-132659428D01*
X91305904Y-132849904D01*
X91258285Y-132945142D01*
X91210666Y-132992761D01*
X91115428Y-133040380D01*
X91020190Y-133040380D01*
X90924952Y-132992761D01*
X90877333Y-132945142D01*
X90829714Y-132849904D01*
X90782095Y-132659428D01*
X90782095Y-132421333D01*
X90829714Y-132230857D01*
X90877333Y-132135619D01*
X90924952Y-132088000D01*
X91020190Y-132040380D01*
X91782095Y-133040380D02*
X91782095Y-132040380D01*
X91782095Y-132421333D02*
X91877333Y-132373714D01*
X92067809Y-132373714D01*
X92163047Y-132421333D01*
X92210666Y-132468952D01*
X92258285Y-132564190D01*
X92258285Y-132849904D01*
X92210666Y-132945142D01*
X92163047Y-132992761D01*
X92067809Y-133040380D01*
X91877333Y-133040380D01*
X91782095Y-132992761D01*
X110356000Y-130428904D02*
X110308380Y-130524142D01*
X110308380Y-130667000D01*
X110356000Y-130809857D01*
X110451238Y-130905095D01*
X110546476Y-130952714D01*
X110736952Y-131000333D01*
X110879809Y-131000333D01*
X111070285Y-130952714D01*
X111165523Y-130905095D01*
X111260761Y-130809857D01*
X111308380Y-130667000D01*
X111308380Y-130571761D01*
X111260761Y-130428904D01*
X111213142Y-130381285D01*
X110879809Y-130381285D01*
X110879809Y-130571761D01*
X111308380Y-129952714D02*
X110308380Y-129952714D01*
X111308380Y-129381285D01*
X110308380Y-129381285D01*
X111308380Y-128905095D02*
X110308380Y-128905095D01*
X110308380Y-128667000D01*
X110356000Y-128524142D01*
X110451238Y-128428904D01*
X110546476Y-128381285D01*
X110736952Y-128333666D01*
X110879809Y-128333666D01*
X111070285Y-128381285D01*
X111165523Y-128428904D01*
X111260761Y-128524142D01*
X111308380Y-128667000D01*
X111308380Y-128905095D01*
X74468580Y-57363047D02*
X73468580Y-57363047D01*
X73468580Y-56982095D01*
X73516200Y-56886857D01*
X73563819Y-56839238D01*
X73659057Y-56791619D01*
X73801914Y-56791619D01*
X73897152Y-56839238D01*
X73944771Y-56886857D01*
X73992390Y-56982095D01*
X73992390Y-57363047D01*
X74468580Y-55886857D02*
X74468580Y-56363047D01*
X73468580Y-56363047D01*
X74373342Y-54982095D02*
X74420961Y-55029714D01*
X74468580Y-55172571D01*
X74468580Y-55267809D01*
X74420961Y-55410666D01*
X74325723Y-55505904D01*
X74230485Y-55553523D01*
X74040009Y-55601142D01*
X73897152Y-55601142D01*
X73706676Y-55553523D01*
X73611438Y-55505904D01*
X73516200Y-55410666D01*
X73468580Y-55267809D01*
X73468580Y-55172571D01*
X73516200Y-55029714D01*
X73563819Y-54982095D01*
X74373342Y-53982095D02*
X74420961Y-54029714D01*
X74468580Y-54172571D01*
X74468580Y-54267809D01*
X74420961Y-54410666D01*
X74325723Y-54505904D01*
X74230485Y-54553523D01*
X74040009Y-54601142D01*
X73897152Y-54601142D01*
X73706676Y-54553523D01*
X73611438Y-54505904D01*
X73516200Y-54410666D01*
X73468580Y-54267809D01*
X73468580Y-54172571D01*
X73516200Y-54029714D01*
X73563819Y-53982095D01*
X73468580Y-53648761D02*
X73468580Y-53029714D01*
X73849533Y-53363047D01*
X73849533Y-53220190D01*
X73897152Y-53124952D01*
X73944771Y-53077333D01*
X74040009Y-53029714D01*
X74278104Y-53029714D01*
X74373342Y-53077333D01*
X74420961Y-53124952D01*
X74468580Y-53220190D01*
X74468580Y-53505904D01*
X74420961Y-53601142D01*
X74373342Y-53648761D01*
X73563819Y-52648761D02*
X73516200Y-52601142D01*
X73468580Y-52505904D01*
X73468580Y-52267809D01*
X73516200Y-52172571D01*
X73563819Y-52124952D01*
X73659057Y-52077333D01*
X73754295Y-52077333D01*
X73897152Y-52124952D01*
X74468580Y-52696380D01*
X74468580Y-52077333D01*
X75176523Y-55570380D02*
X75176523Y-54570380D01*
X75509857Y-55284666D01*
X75843190Y-54570380D01*
X75843190Y-55570380D01*
X76319380Y-54570380D02*
X76319380Y-55379904D01*
X76367000Y-55475142D01*
X76414619Y-55522761D01*
X76509857Y-55570380D01*
X76700333Y-55570380D01*
X76795571Y-55522761D01*
X76843190Y-55475142D01*
X76890809Y-55379904D01*
X76890809Y-54570380D01*
X77843190Y-55570380D02*
X77367000Y-55570380D01*
X77367000Y-54570380D01*
X78033666Y-54570380D02*
X78605095Y-54570380D01*
X78319380Y-55570380D02*
X78319380Y-54570380D01*
X78938428Y-55570380D02*
X78938428Y-54570380D01*
X79986047Y-55475142D02*
X79938428Y-55522761D01*
X79795571Y-55570380D01*
X79700333Y-55570380D01*
X79557476Y-55522761D01*
X79462238Y-55427523D01*
X79414619Y-55332285D01*
X79367000Y-55141809D01*
X79367000Y-54998952D01*
X79414619Y-54808476D01*
X79462238Y-54713238D01*
X79557476Y-54618000D01*
X79700333Y-54570380D01*
X79795571Y-54570380D01*
X79938428Y-54618000D01*
X79986047Y-54665619D01*
X80367000Y-55284666D02*
X80843190Y-55284666D01*
X80271761Y-55570380D02*
X80605095Y-54570380D01*
X80938428Y-55570380D01*
X81843190Y-55570380D02*
X81509857Y-55094190D01*
X81271761Y-55570380D02*
X81271761Y-54570380D01*
X81652714Y-54570380D01*
X81747952Y-54618000D01*
X81795571Y-54665619D01*
X81843190Y-54760857D01*
X81843190Y-54903714D01*
X81795571Y-54998952D01*
X81747952Y-55046571D01*
X81652714Y-55094190D01*
X81271761Y-55094190D01*
X82128904Y-54570380D02*
X82700333Y-54570380D01*
X82414619Y-55570380D02*
X82414619Y-54570380D01*
D12*
X75353990Y-53897761D02*
X75353990Y-51897761D01*
X76115895Y-51897761D01*
X76306371Y-51993000D01*
X76401609Y-52088238D01*
X76496847Y-52278714D01*
X76496847Y-52564428D01*
X76401609Y-52754904D01*
X76306371Y-52850142D01*
X76115895Y-52945380D01*
X75353990Y-52945380D01*
X77258752Y-52088238D02*
X77353990Y-51993000D01*
X77544466Y-51897761D01*
X78020657Y-51897761D01*
X78211133Y-51993000D01*
X78306371Y-52088238D01*
X78401609Y-52278714D01*
X78401609Y-52469190D01*
X78306371Y-52754904D01*
X77163514Y-53897761D01*
X78401609Y-53897761D01*
X79639704Y-51897761D02*
X79830180Y-51897761D01*
X80020657Y-51993000D01*
X80115895Y-52088238D01*
X80211133Y-52278714D01*
X80306371Y-52659666D01*
X80306371Y-53135857D01*
X80211133Y-53516809D01*
X80115895Y-53707285D01*
X80020657Y-53802523D01*
X79830180Y-53897761D01*
X79639704Y-53897761D01*
X79449228Y-53802523D01*
X79353990Y-53707285D01*
X79258752Y-53516809D01*
X79163514Y-53135857D01*
X79163514Y-52659666D01*
X79258752Y-52278714D01*
X79353990Y-52088238D01*
X79449228Y-51993000D01*
X79639704Y-51897761D01*
X81544466Y-51897761D02*
X81734942Y-51897761D01*
X81925419Y-51993000D01*
X82020657Y-52088238D01*
X82115895Y-52278714D01*
X82211133Y-52659666D01*
X82211133Y-53135857D01*
X82115895Y-53516809D01*
X82020657Y-53707285D01*
X81925419Y-53802523D01*
X81734942Y-53897761D01*
X81544466Y-53897761D01*
X81353990Y-53802523D01*
X81258752Y-53707285D01*
X81163514Y-53516809D01*
X81068276Y-53135857D01*
X81068276Y-52659666D01*
X81163514Y-52278714D01*
X81258752Y-52088238D01*
X81353990Y-51993000D01*
X81544466Y-51897761D01*
X83449228Y-51897761D02*
X83639704Y-51897761D01*
X83830180Y-51993000D01*
X83925419Y-52088238D01*
X84020657Y-52278714D01*
X84115895Y-52659666D01*
X84115895Y-53135857D01*
X84020657Y-53516809D01*
X83925419Y-53707285D01*
X83830180Y-53802523D01*
X83639704Y-53897761D01*
X83449228Y-53897761D01*
X83258752Y-53802523D01*
X83163514Y-53707285D01*
X83068276Y-53516809D01*
X82973038Y-53135857D01*
X82973038Y-52659666D01*
X83068276Y-52278714D01*
X83163514Y-52088238D01*
X83258752Y-51993000D01*
X83449228Y-51897761D01*
D11*
X75131990Y-56246780D02*
X75751038Y-56246780D01*
X75417704Y-56627733D01*
X75560561Y-56627733D01*
X75655800Y-56675352D01*
X75703419Y-56722971D01*
X75751038Y-56818209D01*
X75751038Y-57056304D01*
X75703419Y-57151542D01*
X75655800Y-57199161D01*
X75560561Y-57246780D01*
X75274847Y-57246780D01*
X75179609Y-57199161D01*
X75131990Y-57151542D01*
X76131990Y-56342019D02*
X76179609Y-56294400D01*
X76274847Y-56246780D01*
X76512942Y-56246780D01*
X76608180Y-56294400D01*
X76655800Y-56342019D01*
X76703419Y-56437257D01*
X76703419Y-56532495D01*
X76655800Y-56675352D01*
X76084371Y-57246780D01*
X76703419Y-57246780D01*
X77036752Y-57246780D02*
X77560561Y-56580114D01*
X77036752Y-56580114D02*
X77560561Y-57246780D01*
X78465323Y-57246780D02*
X77893895Y-57246780D01*
X78179609Y-57246780D02*
X78179609Y-56246780D01*
X78084371Y-56389638D01*
X77989133Y-56484876D01*
X77893895Y-56532495D01*
X79322466Y-56246780D02*
X79131990Y-56246780D01*
X79036752Y-56294400D01*
X78989133Y-56342019D01*
X78893895Y-56484876D01*
X78846276Y-56675352D01*
X78846276Y-57056304D01*
X78893895Y-57151542D01*
X78941514Y-57199161D01*
X79036752Y-57246780D01*
X79227228Y-57246780D01*
X79322466Y-57199161D01*
X79370085Y-57151542D01*
X79417704Y-57056304D01*
X79417704Y-56818209D01*
X79370085Y-56722971D01*
X79322466Y-56675352D01*
X79227228Y-56627733D01*
X79036752Y-56627733D01*
X78941514Y-56675352D01*
X78893895Y-56722971D01*
X78846276Y-56818209D01*
X79846276Y-57246780D02*
X79846276Y-56246780D01*
X79941514Y-56865828D02*
X80227228Y-57246780D01*
X80227228Y-56580114D02*
X79846276Y-56961066D01*
X80655800Y-57246780D02*
X80655800Y-56246780D01*
X80655800Y-56627733D02*
X80751038Y-56580114D01*
X80941514Y-56580114D01*
X81036752Y-56627733D01*
X81084371Y-56675352D01*
X81131990Y-56770590D01*
X81131990Y-57056304D01*
X81084371Y-57151542D01*
X81036752Y-57199161D01*
X80941514Y-57246780D01*
X80751038Y-57246780D01*
X80655800Y-57199161D01*
X78630428Y-130468666D02*
X79106619Y-130468666D01*
X78535190Y-130754380D02*
X78868523Y-129754380D01*
X79201857Y-130754380D01*
X79820904Y-131087714D02*
X79582809Y-131087714D01*
X79582809Y-129659142D01*
X79820904Y-129659142D01*
X80725666Y-130754380D02*
X80154238Y-130754380D01*
X80439952Y-130754380D02*
X80439952Y-129754380D01*
X80344714Y-129897238D01*
X80249476Y-129992476D01*
X80154238Y-130040095D01*
X81201857Y-130706761D02*
X81201857Y-130754380D01*
X81154238Y-130849619D01*
X81106619Y-130897238D01*
X81535190Y-129754380D02*
X82154238Y-129754380D01*
X81820904Y-130135333D01*
X81963761Y-130135333D01*
X82059000Y-130182952D01*
X82106619Y-130230571D01*
X82154238Y-130325809D01*
X82154238Y-130563904D01*
X82106619Y-130659142D01*
X82059000Y-130706761D01*
X81963761Y-130754380D01*
X81678047Y-130754380D01*
X81582809Y-130706761D01*
X81535190Y-130659142D01*
X82630428Y-130706761D02*
X82630428Y-130754380D01*
X82582809Y-130849619D01*
X82535190Y-130897238D01*
X83535190Y-129754380D02*
X83059000Y-129754380D01*
X83011380Y-130230571D01*
X83059000Y-130182952D01*
X83154238Y-130135333D01*
X83392333Y-130135333D01*
X83487571Y-130182952D01*
X83535190Y-130230571D01*
X83582809Y-130325809D01*
X83582809Y-130563904D01*
X83535190Y-130659142D01*
X83487571Y-130706761D01*
X83392333Y-130754380D01*
X83154238Y-130754380D01*
X83059000Y-130706761D01*
X83011380Y-130659142D01*
X84059000Y-130706761D02*
X84059000Y-130754380D01*
X84011380Y-130849619D01*
X83963761Y-130897238D01*
X84392333Y-129754380D02*
X85059000Y-129754380D01*
X84630428Y-130754380D01*
X85487571Y-130706761D02*
X85487571Y-130754380D01*
X85439952Y-130849619D01*
X85392333Y-130897238D01*
X85963761Y-130754380D02*
X86154238Y-130754380D01*
X86249476Y-130706761D01*
X86297095Y-130659142D01*
X86392333Y-130516285D01*
X86439952Y-130325809D01*
X86439952Y-129944857D01*
X86392333Y-129849619D01*
X86344714Y-129802000D01*
X86249476Y-129754380D01*
X86059000Y-129754380D01*
X85963761Y-129802000D01*
X85916142Y-129849619D01*
X85868523Y-129944857D01*
X85868523Y-130182952D01*
X85916142Y-130278190D01*
X85963761Y-130325809D01*
X86059000Y-130373428D01*
X86249476Y-130373428D01*
X86344714Y-130325809D01*
X86392333Y-130278190D01*
X86439952Y-130182952D01*
X86916142Y-130706761D02*
X86916142Y-130754380D01*
X86868523Y-130849619D01*
X86820904Y-130897238D01*
X87868523Y-130754380D02*
X87297095Y-130754380D01*
X87582809Y-130754380D02*
X87582809Y-129754380D01*
X87487571Y-129897238D01*
X87392333Y-129992476D01*
X87297095Y-130040095D01*
X88820904Y-130754380D02*
X88249476Y-130754380D01*
X88535190Y-130754380D02*
X88535190Y-129754380D01*
X88439952Y-129897238D01*
X88344714Y-129992476D01*
X88249476Y-130040095D01*
X89154238Y-131087714D02*
X89392333Y-131087714D01*
X89392333Y-129659142D01*
X89154238Y-129659142D01*
X46242238Y-93930714D02*
X46242238Y-94787857D01*
X46194619Y-94883095D01*
X46099380Y-94930714D01*
X46051761Y-94930714D01*
X46242238Y-93597380D02*
X46194619Y-93645000D01*
X46242238Y-93692619D01*
X46289857Y-93645000D01*
X46242238Y-93597380D01*
X46242238Y-93692619D01*
X46861285Y-94597380D02*
X46766047Y-94549761D01*
X46718428Y-94454523D01*
X46718428Y-93597380D01*
X47670809Y-94549761D02*
X47575571Y-94597380D01*
X47385095Y-94597380D01*
X47289857Y-94549761D01*
X47242238Y-94502142D01*
X47194619Y-94406904D01*
X47194619Y-94121190D01*
X47242238Y-94025952D01*
X47289857Y-93978333D01*
X47385095Y-93930714D01*
X47575571Y-93930714D01*
X47670809Y-93978333D01*
X48099380Y-93930714D02*
X48099380Y-94787857D01*
X48051761Y-94883095D01*
X47956523Y-94930714D01*
X47908904Y-94930714D01*
X48099380Y-93597380D02*
X48051761Y-93645000D01*
X48099380Y-93692619D01*
X48147000Y-93645000D01*
X48099380Y-93597380D01*
X48099380Y-93692619D01*
X48718428Y-94597380D02*
X48623190Y-94549761D01*
X48575571Y-94454523D01*
X48575571Y-93597380D01*
X49527952Y-94549761D02*
X49432714Y-94597380D01*
X49242238Y-94597380D01*
X49147000Y-94549761D01*
X49099380Y-94502142D01*
X49051761Y-94406904D01*
X49051761Y-94121190D01*
X49099380Y-94025952D01*
X49147000Y-93978333D01*
X49242238Y-93930714D01*
X49432714Y-93930714D01*
X49527952Y-93978333D01*
X49956523Y-93930714D02*
X49956523Y-94787857D01*
X49908904Y-94883095D01*
X49813666Y-94930714D01*
X49766047Y-94930714D01*
X49956523Y-93597380D02*
X49908904Y-93645000D01*
X49956523Y-93692619D01*
X50004142Y-93645000D01*
X49956523Y-93597380D01*
X49956523Y-93692619D01*
X50575571Y-94597380D02*
X50480333Y-94549761D01*
X50432714Y-94454523D01*
X50432714Y-93597380D01*
X51385095Y-94549761D02*
X51289857Y-94597380D01*
X51099380Y-94597380D01*
X51004142Y-94549761D01*
X50956523Y-94502142D01*
X50908904Y-94406904D01*
X50908904Y-94121190D01*
X50956523Y-94025952D01*
X51004142Y-93978333D01*
X51099380Y-93930714D01*
X51289857Y-93930714D01*
X51385095Y-93978333D01*
X51813666Y-93930714D02*
X51813666Y-94787857D01*
X51766047Y-94883095D01*
X51670809Y-94930714D01*
X51623190Y-94930714D01*
X51813666Y-93597380D02*
X51766047Y-93645000D01*
X51813666Y-93692619D01*
X51861285Y-93645000D01*
X51813666Y-93597380D01*
X51813666Y-93692619D01*
X52432714Y-94597380D02*
X52337476Y-94549761D01*
X52289857Y-94454523D01*
X52289857Y-93597380D01*
X53242238Y-94549761D02*
X53147000Y-94597380D01*
X52956523Y-94597380D01*
X52861285Y-94549761D01*
X52813666Y-94502142D01*
X52766047Y-94406904D01*
X52766047Y-94121190D01*
X52813666Y-94025952D01*
X52861285Y-93978333D01*
X52956523Y-93930714D01*
X53147000Y-93930714D01*
X53242238Y-93978333D01*
X53670809Y-93930714D02*
X53670809Y-94787857D01*
X53623190Y-94883095D01*
X53527952Y-94930714D01*
X53480333Y-94930714D01*
X53670809Y-93597380D02*
X53623190Y-93645000D01*
X53670809Y-93692619D01*
X53718428Y-93645000D01*
X53670809Y-93597380D01*
X53670809Y-93692619D01*
X54289857Y-94597380D02*
X54194619Y-94549761D01*
X54147000Y-94454523D01*
X54147000Y-93597380D01*
X55099380Y-94549761D02*
X55004142Y-94597380D01*
X54813666Y-94597380D01*
X54718428Y-94549761D01*
X54670809Y-94502142D01*
X54623190Y-94406904D01*
X54623190Y-94121190D01*
X54670809Y-94025952D01*
X54718428Y-93978333D01*
X54813666Y-93930714D01*
X55004142Y-93930714D01*
X55099380Y-93978333D01*
D12*
X97927000Y-131464571D02*
X97927000Y-129964571D01*
X99707714Y-130250285D02*
X99779142Y-130321714D01*
X99850571Y-130536000D01*
X99850571Y-130678857D01*
X99779142Y-130893142D01*
X99636285Y-131036000D01*
X99493428Y-131107428D01*
X99207714Y-131178857D01*
X98993428Y-131178857D01*
X98707714Y-131107428D01*
X98564857Y-131036000D01*
X98422000Y-130893142D01*
X98350571Y-130678857D01*
X98350571Y-130536000D01*
X98422000Y-130321714D01*
X98493428Y-130250285D01*
X97927000Y-129964571D02*
X97927000Y-128536000D01*
X99779142Y-129678857D02*
X99850571Y-129464571D01*
X99850571Y-129107428D01*
X99779142Y-128964571D01*
X99707714Y-128893142D01*
X99564857Y-128821714D01*
X99422000Y-128821714D01*
X99279142Y-128893142D01*
X99207714Y-128964571D01*
X99136285Y-129107428D01*
X99064857Y-129393142D01*
X98993428Y-129536000D01*
X98922000Y-129607428D01*
X98779142Y-129678857D01*
X98636285Y-129678857D01*
X98493428Y-129607428D01*
X98422000Y-129536000D01*
X98350571Y-129393142D01*
X98350571Y-129036000D01*
X98422000Y-128821714D01*
X97927000Y-128536000D02*
X97927000Y-127107428D01*
X98493428Y-128250285D02*
X98422000Y-128178857D01*
X98350571Y-128036000D01*
X98350571Y-127678857D01*
X98422000Y-127536000D01*
X98493428Y-127464571D01*
X98636285Y-127393142D01*
X98779142Y-127393142D01*
X98993428Y-127464571D01*
X99850571Y-128321714D01*
X99850571Y-127393142D01*
D13*
X53318857Y-120811857D02*
X53318857Y-119611857D01*
X53776000Y-119611857D01*
X53890285Y-119669000D01*
X53947428Y-119726142D01*
X54004571Y-119840428D01*
X54004571Y-120011857D01*
X53947428Y-120126142D01*
X53890285Y-120183285D01*
X53776000Y-120240428D01*
X53318857Y-120240428D01*
X54518857Y-120811857D02*
X54518857Y-119611857D01*
X54518857Y-120183285D02*
X55204571Y-120183285D01*
X55204571Y-120811857D02*
X55204571Y-119611857D01*
X55776000Y-120811857D02*
X55776000Y-119611857D01*
X56918857Y-120811857D02*
X56347428Y-120811857D01*
X56347428Y-119611857D01*
X57318857Y-120811857D02*
X57318857Y-119611857D01*
X57890285Y-120811857D02*
X57890285Y-119611857D01*
X58347428Y-119611857D01*
X58461714Y-119669000D01*
X58518857Y-119726142D01*
X58576000Y-119840428D01*
X58576000Y-120011857D01*
X58518857Y-120126142D01*
X58461714Y-120183285D01*
X58347428Y-120240428D01*
X57890285Y-120240428D01*
X59033142Y-120754714D02*
X59204571Y-120811857D01*
X59490285Y-120811857D01*
X59604571Y-120754714D01*
X59661714Y-120697571D01*
X59718857Y-120583285D01*
X59718857Y-120469000D01*
X59661714Y-120354714D01*
X59604571Y-120297571D01*
X59490285Y-120240428D01*
X59261714Y-120183285D01*
X59147428Y-120126142D01*
X59090285Y-120069000D01*
X59033142Y-119954714D01*
X59033142Y-119840428D01*
X59090285Y-119726142D01*
X59147428Y-119669000D01*
X59261714Y-119611857D01*
X59547428Y-119611857D01*
X59718857Y-119669000D01*
X60233142Y-120354714D02*
X61147428Y-120354714D01*
X61718857Y-120811857D02*
X61718857Y-119611857D01*
X62176000Y-119611857D01*
X62290285Y-119669000D01*
X62347428Y-119726142D01*
X62404571Y-119840428D01*
X62404571Y-120011857D01*
X62347428Y-120126142D01*
X62290285Y-120183285D01*
X62176000Y-120240428D01*
X61718857Y-120240428D01*
X62861714Y-119726142D02*
X62918857Y-119669000D01*
X63033142Y-119611857D01*
X63318857Y-119611857D01*
X63433142Y-119669000D01*
X63490285Y-119726142D01*
X63547428Y-119840428D01*
X63547428Y-119954714D01*
X63490285Y-120126142D01*
X62804571Y-120811857D01*
X63547428Y-120811857D01*
X64290285Y-119611857D02*
X64404571Y-119611857D01*
X64518857Y-119669000D01*
X64576000Y-119726142D01*
X64633142Y-119840428D01*
X64690285Y-120069000D01*
X64690285Y-120354714D01*
X64633142Y-120583285D01*
X64576000Y-120697571D01*
X64518857Y-120754714D01*
X64404571Y-120811857D01*
X64290285Y-120811857D01*
X64176000Y-120754714D01*
X64118857Y-120697571D01*
X64061714Y-120583285D01*
X64004571Y-120354714D01*
X64004571Y-120069000D01*
X64061714Y-119840428D01*
X64118857Y-119726142D01*
X64176000Y-119669000D01*
X64290285Y-119611857D01*
X65433142Y-119611857D02*
X65547428Y-119611857D01*
X65661714Y-119669000D01*
X65718857Y-119726142D01*
X65776000Y-119840428D01*
X65833142Y-120069000D01*
X65833142Y-120354714D01*
X65776000Y-120583285D01*
X65718857Y-120697571D01*
X65661714Y-120754714D01*
X65547428Y-120811857D01*
X65433142Y-120811857D01*
X65318857Y-120754714D01*
X65261714Y-120697571D01*
X65204571Y-120583285D01*
X65147428Y-120354714D01*
X65147428Y-120069000D01*
X65204571Y-119840428D01*
X65261714Y-119726142D01*
X65318857Y-119669000D01*
X65433142Y-119611857D01*
X66576000Y-119611857D02*
X66690285Y-119611857D01*
X66804571Y-119669000D01*
X66861714Y-119726142D01*
X66918857Y-119840428D01*
X66976000Y-120069000D01*
X66976000Y-120354714D01*
X66918857Y-120583285D01*
X66861714Y-120697571D01*
X66804571Y-120754714D01*
X66690285Y-120811857D01*
X66576000Y-120811857D01*
X66461714Y-120754714D01*
X66404571Y-120697571D01*
X66347428Y-120583285D01*
X66290285Y-120354714D01*
X66290285Y-120069000D01*
X66347428Y-119840428D01*
X66404571Y-119726142D01*
X66461714Y-119669000D01*
X66576000Y-119611857D01*
X67318857Y-119611857D02*
X68004571Y-119611857D01*
X67661714Y-120811857D02*
X67661714Y-119611857D01*
X68404571Y-120697571D02*
X68461714Y-120754714D01*
X68404571Y-120811857D01*
X68347428Y-120754714D01*
X68404571Y-120697571D01*
X68404571Y-120811857D01*
X68976000Y-120811857D02*
X68976000Y-119611857D01*
X69661714Y-120811857D01*
X69661714Y-119611857D01*
X70804571Y-120811857D02*
X70233142Y-120811857D01*
X70233142Y-119611857D01*
D11*
X54936380Y-130365476D02*
X54936380Y-130841666D01*
X55412571Y-130889285D01*
X55364952Y-130841666D01*
X55317333Y-130746428D01*
X55317333Y-130508333D01*
X55364952Y-130413095D01*
X55412571Y-130365476D01*
X55507809Y-130317857D01*
X55745904Y-130317857D01*
X55841142Y-130365476D01*
X55888761Y-130413095D01*
X55936380Y-130508333D01*
X55936380Y-130746428D01*
X55888761Y-130841666D01*
X55841142Y-130889285D01*
X54936380Y-130032142D02*
X55936380Y-129698809D01*
X54936380Y-129365476D01*
X61715380Y-130754380D02*
X61715380Y-129754380D01*
X61953476Y-129754380D01*
X62096333Y-129802000D01*
X62191571Y-129897238D01*
X62239190Y-129992476D01*
X62286809Y-130182952D01*
X62286809Y-130325809D01*
X62239190Y-130516285D01*
X62191571Y-130611523D01*
X62096333Y-130706761D01*
X61953476Y-130754380D01*
X61715380Y-130754380D01*
X63001095Y-131087714D02*
X62763000Y-131087714D01*
X62763000Y-129659142D01*
X63001095Y-129659142D01*
X63905857Y-130754380D02*
X63334428Y-130754380D01*
X63620142Y-130754380D02*
X63620142Y-129754380D01*
X63524904Y-129897238D01*
X63429666Y-129992476D01*
X63334428Y-130040095D01*
X64382047Y-130706761D02*
X64382047Y-130754380D01*
X64334428Y-130849619D01*
X64286809Y-130897238D01*
X64715380Y-129754380D02*
X65334428Y-129754380D01*
X65001095Y-130135333D01*
X65143952Y-130135333D01*
X65239190Y-130182952D01*
X65286809Y-130230571D01*
X65334428Y-130325809D01*
X65334428Y-130563904D01*
X65286809Y-130659142D01*
X65239190Y-130706761D01*
X65143952Y-130754380D01*
X64858238Y-130754380D01*
X64763000Y-130706761D01*
X64715380Y-130659142D01*
X65810619Y-130706761D02*
X65810619Y-130754380D01*
X65763000Y-130849619D01*
X65715380Y-130897238D01*
X66715380Y-129754380D02*
X66239190Y-129754380D01*
X66191571Y-130230571D01*
X66239190Y-130182952D01*
X66334428Y-130135333D01*
X66572523Y-130135333D01*
X66667761Y-130182952D01*
X66715380Y-130230571D01*
X66763000Y-130325809D01*
X66763000Y-130563904D01*
X66715380Y-130659142D01*
X66667761Y-130706761D01*
X66572523Y-130754380D01*
X66334428Y-130754380D01*
X66239190Y-130706761D01*
X66191571Y-130659142D01*
X67239190Y-130706761D02*
X67239190Y-130754380D01*
X67191571Y-130849619D01*
X67143952Y-130897238D01*
X67572523Y-129754380D02*
X68239190Y-129754380D01*
X67810619Y-130754380D01*
X68524904Y-131087714D02*
X68763000Y-131087714D01*
X68763000Y-129659142D01*
X68524904Y-129659142D01*
X50813666Y-50049761D02*
X50956523Y-50097380D01*
X51194619Y-50097380D01*
X51289857Y-50049761D01*
X51337476Y-50002142D01*
X51385095Y-49906904D01*
X51385095Y-49811666D01*
X51337476Y-49716428D01*
X51289857Y-49668809D01*
X51194619Y-49621190D01*
X51004142Y-49573571D01*
X50908904Y-49525952D01*
X50861285Y-49478333D01*
X50813666Y-49383095D01*
X50813666Y-49287857D01*
X50861285Y-49192619D01*
X50908904Y-49145000D01*
X51004142Y-49097380D01*
X51242238Y-49097380D01*
X51385095Y-49145000D01*
X51718428Y-49097380D02*
X51956523Y-50097380D01*
X52147000Y-49383095D01*
X52337476Y-50097380D01*
X52575571Y-49097380D01*
X53480333Y-50097380D02*
X52908904Y-50097380D01*
X53194619Y-50097380D02*
X53194619Y-49097380D01*
X53099380Y-49240238D01*
X53004142Y-49335476D01*
X52908904Y-49383095D01*
X46236095Y-78703380D02*
X46807523Y-78703380D01*
X46521809Y-79703380D02*
X46521809Y-78703380D01*
X47140857Y-79703380D02*
X47140857Y-78703380D01*
X47521809Y-78703380D01*
X47617047Y-78751000D01*
X47664666Y-78798619D01*
X47712285Y-78893857D01*
X47712285Y-79036714D01*
X47664666Y-79131952D01*
X47617047Y-79179571D01*
X47521809Y-79227190D01*
X47140857Y-79227190D01*
X48664666Y-79703380D02*
X48093238Y-79703380D01*
X48378952Y-79703380D02*
X48378952Y-78703380D01*
X48283714Y-78846238D01*
X48188476Y-78941476D01*
X48093238Y-78989095D01*
X46109095Y-85666380D02*
X46680523Y-85666380D01*
X46394809Y-86666380D02*
X46394809Y-85666380D01*
X47013857Y-86666380D02*
X47013857Y-85666380D01*
X47394809Y-85666380D01*
X47490047Y-85714000D01*
X47537666Y-85761619D01*
X47585285Y-85856857D01*
X47585285Y-85999714D01*
X47537666Y-86094952D01*
X47490047Y-86142571D01*
X47394809Y-86190190D01*
X47013857Y-86190190D01*
X47918619Y-85666380D02*
X48537666Y-85666380D01*
X48204333Y-86047333D01*
X48347190Y-86047333D01*
X48442428Y-86094952D01*
X48490047Y-86142571D01*
X48537666Y-86237809D01*
X48537666Y-86475904D01*
X48490047Y-86571142D01*
X48442428Y-86618761D01*
X48347190Y-86666380D01*
X48061476Y-86666380D01*
X47966238Y-86618761D01*
X47918619Y-86571142D01*
X52056095Y-85666380D02*
X52627523Y-85666380D01*
X52341809Y-86666380D02*
X52341809Y-85666380D01*
X52960857Y-86666380D02*
X52960857Y-85666380D01*
X53341809Y-85666380D01*
X53437047Y-85714000D01*
X53484666Y-85761619D01*
X53532285Y-85856857D01*
X53532285Y-85999714D01*
X53484666Y-86094952D01*
X53437047Y-86142571D01*
X53341809Y-86190190D01*
X52960857Y-86190190D01*
X54389428Y-85999714D02*
X54389428Y-86666380D01*
X54151333Y-85618761D02*
X53913238Y-86333047D01*
X54532285Y-86333047D01*
X52205095Y-78827380D02*
X52776523Y-78827380D01*
X52490809Y-79827380D02*
X52490809Y-78827380D01*
X53109857Y-79827380D02*
X53109857Y-78827380D01*
X53490809Y-78827380D01*
X53586047Y-78875000D01*
X53633666Y-78922619D01*
X53681285Y-79017857D01*
X53681285Y-79160714D01*
X53633666Y-79255952D01*
X53586047Y-79303571D01*
X53490809Y-79351190D01*
X53109857Y-79351190D01*
X54062238Y-78922619D02*
X54109857Y-78875000D01*
X54205095Y-78827380D01*
X54443190Y-78827380D01*
X54538428Y-78875000D01*
X54586047Y-78922619D01*
X54633666Y-79017857D01*
X54633666Y-79113095D01*
X54586047Y-79255952D01*
X54014619Y-79827380D01*
X54633666Y-79827380D01*
X120283761Y-54292333D02*
X120331380Y-54149476D01*
X120331380Y-53911380D01*
X120283761Y-53816142D01*
X120236142Y-53768523D01*
X120140904Y-53720904D01*
X120045666Y-53720904D01*
X119950428Y-53768523D01*
X119902809Y-53816142D01*
X119855190Y-53911380D01*
X119807571Y-54101857D01*
X119759952Y-54197095D01*
X119712333Y-54244714D01*
X119617095Y-54292333D01*
X119521857Y-54292333D01*
X119426619Y-54244714D01*
X119379000Y-54197095D01*
X119331380Y-54101857D01*
X119331380Y-53863761D01*
X119379000Y-53720904D01*
X119331380Y-53387571D02*
X120331380Y-53149476D01*
X119617095Y-52959000D01*
X120331380Y-52768523D01*
X119331380Y-52530428D01*
X119426619Y-52197095D02*
X119379000Y-52149476D01*
X119331380Y-52054238D01*
X119331380Y-51816142D01*
X119379000Y-51720904D01*
X119426619Y-51673285D01*
X119521857Y-51625666D01*
X119617095Y-51625666D01*
X119759952Y-51673285D01*
X120331380Y-52244714D01*
X120331380Y-51625666D01*
D10*
X54247000Y-51345000D02*
X49747000Y-51345000D01*
X49747000Y-57845000D02*
X54247000Y-57845000D01*
X48497000Y-53845000D02*
X48497000Y-55345000D01*
X55497000Y-55345000D02*
X55497000Y-53845000D01*
X48448000Y-81661000D02*
G75*
G03*
X48448000Y-81661000I-950000J0D01*
G01*
X48448000Y-88370000D02*
G75*
G03*
X48448000Y-88370000I-950000J0D01*
G01*
X54395000Y-88370000D02*
G75*
G03*
X54395000Y-88370000I-950000J0D01*
G01*
X54417000Y-81407000D02*
G75*
G03*
X54417000Y-81407000I-950000J0D01*
G01*
X112014000Y-52282333D02*
X110744000Y-52282333D01*
X106214000Y-50929000D02*
X106214000Y-52282333D01*
X110814000Y-50929000D02*
X110814000Y-52282333D01*
X109114000Y-50929000D02*
X109114000Y-52282333D01*
X111414000Y-50929000D02*
X111414000Y-52282333D01*
X108204000Y-54989000D02*
X109474000Y-54989000D01*
X108874000Y-50929000D02*
X108874000Y-52282333D01*
X116614000Y-50929000D02*
X116614000Y-52282333D01*
X113354000Y-50929000D02*
X113354000Y-52282333D01*
X106934000Y-54989000D02*
X106934000Y-50929000D01*
X117094000Y-50929000D02*
X115824000Y-50929000D01*
X115824000Y-54989000D02*
X117094000Y-54989000D01*
X115894000Y-50929000D02*
X115894000Y-52282333D01*
X108394000Y-50929000D02*
X108394000Y-52282333D01*
X118879000Y-48009000D02*
X118879000Y-57909000D01*
X116374000Y-50929000D02*
X116374000Y-52282333D01*
X119119000Y-47769000D02*
X117736000Y-47769000D01*
X119119000Y-47769000D02*
X119119000Y-49153000D01*
X108274000Y-50929000D02*
X108274000Y-52282333D01*
X114314000Y-50929000D02*
X114314000Y-52282333D01*
X114554000Y-52282333D02*
X113284000Y-52282333D01*
X116854000Y-50929000D02*
X116854000Y-52282333D01*
X110744000Y-50929000D02*
X110744000Y-54989000D01*
X105664000Y-54989000D02*
X106934000Y-54989000D01*
X106574000Y-50929000D02*
X106574000Y-52282333D01*
X111294000Y-50929000D02*
X111294000Y-52282333D01*
X108634000Y-50929000D02*
X108634000Y-52282333D01*
X106094000Y-50929000D02*
X106094000Y-52282333D01*
X105854000Y-50929000D02*
X105854000Y-52282333D01*
X111654000Y-50929000D02*
X111654000Y-52282333D01*
X115824000Y-50929000D02*
X115824000Y-54989000D01*
X113714000Y-50929000D02*
X113714000Y-52282333D01*
X105974000Y-50929000D02*
X105974000Y-52282333D01*
X114194000Y-50929000D02*
X114194000Y-52282333D01*
X111774000Y-50929000D02*
X111774000Y-52282333D01*
X108754000Y-50929000D02*
X108754000Y-52282333D01*
X116254000Y-50929000D02*
X116254000Y-52282333D01*
X108204000Y-50929000D02*
X108204000Y-54989000D01*
X106454000Y-50929000D02*
X106454000Y-52282333D01*
X117094000Y-52282333D02*
X115824000Y-52282333D01*
X106334000Y-50929000D02*
X106334000Y-52282333D01*
X117094000Y-54989000D02*
X117094000Y-50929000D01*
X118879000Y-48009000D02*
X103879000Y-48009000D01*
X111054000Y-50929000D02*
X111054000Y-52282333D01*
X111894000Y-50929000D02*
X111894000Y-52282333D01*
X114554000Y-50929000D02*
X113284000Y-50929000D01*
X103879000Y-48009000D02*
X103879000Y-57909000D01*
X110744000Y-54989000D02*
X112014000Y-54989000D01*
X109474000Y-54989000D02*
X109474000Y-50929000D01*
X114434000Y-50929000D02*
X114434000Y-52282333D01*
X113954000Y-50929000D02*
X113954000Y-52282333D01*
X105664000Y-50929000D02*
X105664000Y-54989000D01*
X109354000Y-50929000D02*
X109354000Y-52282333D01*
X116734000Y-50929000D02*
X116734000Y-52282333D01*
X113834000Y-50929000D02*
X113834000Y-52282333D01*
X113474000Y-50929000D02*
X113474000Y-52282333D01*
X106934000Y-52282333D02*
X105664000Y-52282333D01*
X113284000Y-54989000D02*
X114554000Y-54989000D01*
X114554000Y-54989000D02*
X114554000Y-50929000D01*
X114074000Y-50929000D02*
X114074000Y-52282333D01*
X112014000Y-50929000D02*
X110744000Y-50929000D01*
X111534000Y-50929000D02*
X111534000Y-52282333D01*
X118879000Y-57909000D02*
X103879000Y-57909000D01*
X110934000Y-50929000D02*
X110934000Y-52282333D01*
X113594000Y-50929000D02*
X113594000Y-52282333D01*
X108514000Y-50929000D02*
X108514000Y-52282333D01*
X109474000Y-52282333D02*
X108204000Y-52282333D01*
X116134000Y-50929000D02*
X116134000Y-52282333D01*
X111174000Y-50929000D02*
X111174000Y-52282333D01*
X116014000Y-50929000D02*
X116014000Y-52282333D01*
X112014000Y-54989000D02*
X112014000Y-50929000D01*
X106934000Y-50929000D02*
X105664000Y-50929000D01*
X105734000Y-50929000D02*
X105734000Y-52282333D01*
X109234000Y-50929000D02*
X109234000Y-52282333D01*
X106814000Y-50929000D02*
X106814000Y-52282333D01*
X116494000Y-50929000D02*
X116494000Y-52282333D01*
X116974000Y-50929000D02*
X116974000Y-52282333D01*
X113284000Y-50929000D02*
X113284000Y-54989000D01*
X108994000Y-50929000D02*
X108994000Y-52282333D01*
X109474000Y-50929000D02*
X108204000Y-50929000D01*
X106694000Y-50929000D02*
X106694000Y-52282333D01*
G36*
X64234105Y-116230989D02*
G01*
X63627693Y-116230989D01*
X63627693Y-115624577D01*
X64234105Y-115624577D01*
X64234105Y-116230989D01*
G37*
G36*
X63627693Y-118050225D02*
G01*
X63021281Y-118050225D01*
X63021281Y-117443813D01*
X63627693Y-117443813D01*
X63627693Y-118050225D01*
G37*
G36*
X64234105Y-102283513D02*
G01*
X63627693Y-102283513D01*
X63627693Y-102889925D01*
X63021281Y-102889925D01*
X63021281Y-103496337D01*
X62414869Y-103496337D01*
X62414869Y-104102749D01*
X61808457Y-104102749D01*
X61808457Y-104709161D01*
X61202045Y-104709161D01*
X61202045Y-105921985D01*
X60595633Y-105921985D01*
X60595633Y-104709161D01*
X61202045Y-104709161D01*
X61202045Y-104102749D01*
X61808457Y-104102749D01*
X61808457Y-102889925D01*
X63021281Y-102889925D01*
X63021281Y-101677101D01*
X64234105Y-101677101D01*
X64234105Y-102283513D01*
G37*
G36*
X64840517Y-103496337D02*
G01*
X65446929Y-103496337D01*
X65446929Y-102889925D01*
X66053341Y-102889925D01*
X66053341Y-104102749D01*
X65446929Y-104102749D01*
X65446929Y-104709161D01*
X64840517Y-104709161D01*
X64840517Y-105315573D01*
X64234105Y-105315573D01*
X64234105Y-106528397D01*
X63627693Y-106528397D01*
X63627693Y-105921985D01*
X63021281Y-105921985D01*
X63021281Y-107134809D01*
X61808457Y-107134809D01*
X61808457Y-107741221D01*
X61202045Y-107741221D01*
X61202045Y-105921985D01*
X61808457Y-105921985D01*
X61808457Y-106528397D01*
X62414869Y-106528397D01*
X62414869Y-105315573D01*
X63021281Y-105315573D01*
X63627693Y-105315573D01*
X64234105Y-105315573D01*
X64234105Y-104709161D01*
X64840517Y-104709161D01*
X64840517Y-104102749D01*
X63627693Y-104102749D01*
X63627693Y-105315573D01*
X63021281Y-105315573D01*
X63021281Y-104709161D01*
X62414869Y-104709161D01*
X62414869Y-104102749D01*
X63021281Y-104102749D01*
X63021281Y-103496337D01*
X63627693Y-103496337D01*
X63627693Y-102889925D01*
X64840517Y-102889925D01*
X64840517Y-103496337D01*
G37*
G36*
X56350749Y-117443813D02*
G01*
X54531513Y-117443813D01*
X54531513Y-115624577D01*
X56350749Y-115624577D01*
X56350749Y-117443813D01*
G37*
G36*
X57563573Y-114411753D02*
G01*
X57563573Y-118656637D01*
X53318689Y-118656637D01*
X53318689Y-117154515D01*
X53945503Y-117154515D01*
X53945540Y-117340666D01*
X53945770Y-117509341D01*
X53946187Y-117657976D01*
X53946784Y-117784004D01*
X53947554Y-117884860D01*
X53948491Y-117957977D01*
X53949588Y-118000791D01*
X53950441Y-118011338D01*
X53958350Y-118015286D01*
X53980091Y-118018711D01*
X54017507Y-118021635D01*
X54072444Y-118024078D01*
X54146747Y-118026062D01*
X54242260Y-118027609D01*
X54360828Y-118028739D01*
X54504296Y-118029475D01*
X54674509Y-118029837D01*
X54873311Y-118029847D01*
X55102548Y-118029527D01*
X55364064Y-118028898D01*
X55444955Y-118028664D01*
X56931171Y-118024236D01*
X56931171Y-115044154D01*
X53951090Y-115044154D01*
X53946616Y-116516869D01*
X53946035Y-116740051D01*
X53945666Y-116953454D01*
X53945503Y-117154515D01*
X53318689Y-117154515D01*
X53318689Y-114411753D01*
X57563573Y-114411753D01*
G37*
G36*
X56350749Y-104102749D02*
G01*
X54531513Y-104102749D01*
X54531513Y-102283513D01*
X56350749Y-102283513D01*
X56350749Y-104102749D01*
G37*
G36*
X57563573Y-101070689D02*
G01*
X57563573Y-105315573D01*
X53318689Y-105315573D01*
X53318689Y-103813451D01*
X53945503Y-103813451D01*
X53945540Y-103999601D01*
X53945770Y-104168277D01*
X53946187Y-104316912D01*
X53946784Y-104442940D01*
X53947554Y-104543796D01*
X53948491Y-104616913D01*
X53949588Y-104659727D01*
X53950441Y-104670274D01*
X53958350Y-104674222D01*
X53980091Y-104677647D01*
X54017507Y-104680571D01*
X54072444Y-104683014D01*
X54146747Y-104684998D01*
X54242260Y-104686545D01*
X54360828Y-104687675D01*
X54504296Y-104688411D01*
X54674509Y-104688773D01*
X54873311Y-104688783D01*
X55102548Y-104688463D01*
X55364064Y-104687833D01*
X55444955Y-104687600D01*
X56931171Y-104683171D01*
X56931171Y-101703090D01*
X53951090Y-101703090D01*
X53946616Y-103175804D01*
X53946035Y-103398986D01*
X53945666Y-103612390D01*
X53945503Y-103813451D01*
X53318689Y-103813451D01*
X53318689Y-101070689D01*
X57563573Y-101070689D01*
G37*
G36*
X56957161Y-108347633D02*
G01*
X56350749Y-108347633D01*
X56350749Y-107741221D01*
X56957161Y-107741221D01*
X56957161Y-108347633D01*
G37*
G36*
X57563573Y-113805341D02*
G01*
X56957161Y-113805341D01*
X56957161Y-113198929D01*
X57563573Y-113198929D01*
X57563573Y-113805341D01*
G37*
G36*
X53925101Y-106528397D02*
G01*
X53318689Y-106528397D01*
X53318689Y-105921985D01*
X53925101Y-105921985D01*
X53925101Y-106528397D01*
G37*
G36*
X59989221Y-101677101D02*
G01*
X59382809Y-101677101D01*
X59382809Y-102283513D01*
X58169985Y-102283513D01*
X58169985Y-101070689D01*
X59989221Y-101070689D01*
X59989221Y-101677101D01*
G37*
G36*
X70298225Y-116837401D02*
G01*
X69691813Y-116837401D01*
X69691813Y-116230989D01*
X70298225Y-116230989D01*
X70298225Y-116837401D01*
G37*
G36*
X56350749Y-113198929D02*
G01*
X54531513Y-113198929D01*
X54531513Y-112592517D01*
X55744337Y-112592517D01*
X55744337Y-111986105D01*
X56350749Y-111986105D01*
X56350749Y-113198929D01*
G37*
G36*
X58776397Y-103496337D02*
G01*
X58169985Y-103496337D01*
X58169985Y-102889925D01*
X58776397Y-102889925D01*
X58776397Y-103496337D01*
G37*
G36*
X69691813Y-116230989D02*
G01*
X69085401Y-116230989D01*
X69085401Y-115624577D01*
X69691813Y-115624577D01*
X69691813Y-116230989D01*
G37*
G36*
X57563573Y-112592517D02*
G01*
X56957161Y-112592517D01*
X56957161Y-111986105D01*
X57563573Y-111986105D01*
X57563573Y-112592517D01*
G37*
G36*
X63021281Y-118656637D02*
G01*
X62414869Y-118656637D01*
X62414869Y-118050225D01*
X63021281Y-118050225D01*
X63021281Y-118656637D01*
G37*
G36*
X70298225Y-118656637D02*
G01*
X69691813Y-118656637D01*
X69691813Y-117443813D01*
X70298225Y-117443813D01*
X70298225Y-118656637D01*
G37*
G36*
X67872577Y-118050225D02*
G01*
X66659753Y-118050225D01*
X66659753Y-117443813D01*
X67266165Y-117443813D01*
X67266165Y-116837401D01*
X67872577Y-116837401D01*
X67872577Y-118050225D01*
G37*
G36*
X70904637Y-117443813D02*
G01*
X70298225Y-117443813D01*
X70298225Y-116837401D01*
X70904637Y-116837401D01*
X70904637Y-117443813D01*
G37*
G36*
X53925101Y-107134809D02*
G01*
X53925101Y-106528397D01*
X54531513Y-106528397D01*
X54531513Y-105921985D01*
X55744337Y-105921985D01*
X55744337Y-107134809D01*
X56350749Y-107134809D01*
X56350749Y-105921985D01*
X58169985Y-105921985D01*
X58169985Y-104709161D01*
X58776397Y-104709161D01*
X58776397Y-105315573D01*
X59382809Y-105315573D01*
X59382809Y-107134809D01*
X60595633Y-107134809D01*
X60595633Y-108347633D01*
X59382809Y-108347633D01*
X59382809Y-108954045D01*
X60595633Y-108954045D01*
X60595633Y-108347633D01*
X61202045Y-108347633D01*
X61202045Y-108954045D01*
X60595633Y-108954045D01*
X60595633Y-109560457D01*
X58776397Y-109560457D01*
X58776397Y-110166869D01*
X56957161Y-110166869D01*
X56957161Y-110773281D01*
X54531513Y-110773281D01*
X54531513Y-111379693D01*
X53318689Y-111379693D01*
X53318689Y-110166869D01*
X53925101Y-110166869D01*
X55137925Y-110166869D01*
X55744337Y-110166869D01*
X56957161Y-110166869D01*
X56957161Y-109560457D01*
X55744337Y-109560457D01*
X55744337Y-110166869D01*
X55137925Y-110166869D01*
X55137925Y-109560457D01*
X55744337Y-109560457D01*
X55744337Y-108954045D01*
X54531513Y-108954045D01*
X54531513Y-109560457D01*
X53925101Y-109560457D01*
X53925101Y-110166869D01*
X53318689Y-110166869D01*
X53318689Y-109560457D01*
X53925101Y-109560457D01*
X53925101Y-108954045D01*
X54531513Y-108954045D01*
X54531513Y-108347633D01*
X55137925Y-108347633D01*
X55744337Y-108347633D01*
X56350749Y-108347633D01*
X56350749Y-108954045D01*
X56957161Y-108954045D01*
X56957161Y-109560457D01*
X58169985Y-109560457D01*
X58169985Y-108954045D01*
X58776397Y-108954045D01*
X58776397Y-107741221D01*
X59382809Y-107741221D01*
X59382809Y-107134809D01*
X58776397Y-107134809D01*
X58776397Y-105921985D01*
X58169985Y-105921985D01*
X58169985Y-107134809D01*
X57563573Y-107134809D01*
X57563573Y-106528397D01*
X56957161Y-106528397D01*
X56957161Y-107134809D01*
X56350749Y-107134809D01*
X56350749Y-107741221D01*
X55744337Y-107741221D01*
X55744337Y-108347633D01*
X55137925Y-108347633D01*
X55137925Y-107134809D01*
X53925101Y-107134809D01*
X53925101Y-107741221D01*
X54531513Y-107741221D01*
X54531513Y-108347633D01*
X53925101Y-108347633D01*
X53925101Y-108954045D01*
X53318689Y-108954045D01*
X53318689Y-107134809D01*
X53925101Y-107134809D01*
G37*
G36*
X59382809Y-104102749D02*
G01*
X58776397Y-104102749D01*
X58776397Y-103496337D01*
X59382809Y-103496337D01*
X59382809Y-104102749D01*
G37*
G36*
X66659753Y-111379693D02*
G01*
X66053341Y-111379693D01*
X66053341Y-110166869D01*
X66659753Y-110166869D01*
X66659753Y-111379693D01*
G37*
G36*
X59989221Y-105315573D02*
G01*
X59382809Y-105315573D01*
X59382809Y-104709161D01*
X59989221Y-104709161D01*
X59989221Y-105315573D01*
G37*
G36*
X70904637Y-107134809D02*
G01*
X70298225Y-107134809D01*
X70298225Y-106528397D01*
X69691813Y-106528397D01*
X69691813Y-105921985D01*
X70904637Y-105921985D01*
X70904637Y-107134809D01*
G37*
G36*
X69691813Y-117443813D02*
G01*
X69085401Y-117443813D01*
X69085401Y-116837401D01*
X69691813Y-116837401D01*
X69691813Y-117443813D01*
G37*
G36*
X66053341Y-107134809D02*
G01*
X64840517Y-107134809D01*
X64840517Y-105921985D01*
X65446929Y-105921985D01*
X65446929Y-104709161D01*
X66053341Y-104709161D01*
X66053341Y-107134809D01*
G37*
G36*
X53925101Y-112592517D02*
G01*
X53318689Y-112592517D01*
X53318689Y-111986105D01*
X53925101Y-111986105D01*
X53925101Y-112592517D01*
G37*
G36*
X70904637Y-108347633D02*
G01*
X70298225Y-108347633D01*
X70298225Y-107741221D01*
X70904637Y-107741221D01*
X70904637Y-108347633D01*
G37*
G36*
X55744337Y-111986105D02*
G01*
X54531513Y-111986105D01*
X54531513Y-111379693D01*
X55744337Y-111379693D01*
X55744337Y-111986105D01*
G37*
G36*
X58776397Y-113805341D02*
G01*
X59382809Y-113805341D01*
X59382809Y-114411753D01*
X58776397Y-114411753D01*
X58776397Y-115624577D01*
X58169985Y-115624577D01*
X58169985Y-112592517D01*
X58776397Y-112592517D01*
X58776397Y-113805341D01*
G37*
G36*
X70904637Y-101070689D02*
G01*
X70904637Y-105315573D01*
X66659753Y-105315573D01*
X66659753Y-103813451D01*
X67286567Y-103813451D01*
X67286604Y-103999601D01*
X67286835Y-104168277D01*
X67287251Y-104316912D01*
X67287848Y-104442940D01*
X67288618Y-104543796D01*
X67289555Y-104616913D01*
X67290652Y-104659727D01*
X67291505Y-104670274D01*
X67299414Y-104674222D01*
X67321155Y-104677647D01*
X67358571Y-104680571D01*
X67413508Y-104683014D01*
X67487811Y-104684998D01*
X67583324Y-104686545D01*
X67701892Y-104687675D01*
X67845360Y-104688411D01*
X68015573Y-104688773D01*
X68214376Y-104688783D01*
X68443612Y-104688463D01*
X68705129Y-104687833D01*
X68786020Y-104687600D01*
X70272236Y-104683171D01*
X70272236Y-101703090D01*
X67292154Y-101703090D01*
X67287680Y-103175804D01*
X67287099Y-103398986D01*
X67286730Y-103612390D01*
X67286567Y-103813451D01*
X66659753Y-103813451D01*
X66659753Y-101070689D01*
X70904637Y-101070689D01*
G37*
G36*
X63021281Y-101677101D02*
G01*
X61808457Y-101677101D01*
X61808457Y-102283513D01*
X60595633Y-102283513D01*
X60595633Y-101677101D01*
X61202045Y-101677101D01*
X61202045Y-101070689D01*
X63021281Y-101070689D01*
X63021281Y-101677101D01*
G37*
G36*
X58169985Y-108954045D02*
G01*
X56957161Y-108954045D01*
X56957161Y-108347633D01*
X58169985Y-108347633D01*
X58169985Y-108954045D01*
G37*
G36*
X66053341Y-111986105D02*
G01*
X65446929Y-111986105D01*
X65446929Y-111379693D01*
X66053341Y-111379693D01*
X66053341Y-111986105D01*
G37*
G36*
X69085401Y-118656637D02*
G01*
X68478989Y-118656637D01*
X68478989Y-117443813D01*
X69085401Y-117443813D01*
X69085401Y-118656637D01*
G37*
G36*
X69085401Y-106528397D02*
G01*
X68478989Y-106528397D01*
X68478989Y-105921985D01*
X69085401Y-105921985D01*
X69085401Y-106528397D01*
G37*
G36*
X64234105Y-107741221D02*
G01*
X63627693Y-107741221D01*
X63627693Y-108347633D01*
X63021281Y-108347633D01*
X63021281Y-108954045D01*
X62414869Y-108954045D01*
X62414869Y-109560457D01*
X61808457Y-109560457D01*
X61808457Y-110166869D01*
X61202045Y-110166869D01*
X61202045Y-110773281D01*
X60595633Y-110773281D01*
X60595633Y-111379693D01*
X59989221Y-111379693D01*
X59989221Y-111986105D01*
X59382809Y-111986105D01*
X59382809Y-111379693D01*
X58776397Y-111379693D01*
X58776397Y-110773281D01*
X60595633Y-110773281D01*
X60595633Y-110166869D01*
X61202045Y-110166869D01*
X61202045Y-109560457D01*
X61808457Y-109560457D01*
X61808457Y-108347633D01*
X63021281Y-108347633D01*
X63021281Y-107134809D01*
X64234105Y-107134809D01*
X64234105Y-107741221D01*
G37*
G36*
X64234105Y-108954045D02*
G01*
X64840517Y-108954045D01*
X64840517Y-107741221D01*
X66053341Y-107741221D01*
X66053341Y-108347633D01*
X65446929Y-108347633D01*
X65446929Y-108954045D01*
X66053341Y-108954045D01*
X66053341Y-110166869D01*
X65446929Y-110166869D01*
X65446929Y-110773281D01*
X64234105Y-110773281D01*
X64234105Y-109560457D01*
X63627693Y-109560457D01*
X63627693Y-111379693D01*
X64234105Y-111379693D01*
X64234105Y-113198929D01*
X65446929Y-113198929D01*
X66659753Y-113198929D01*
X69085401Y-113198929D01*
X69085401Y-111986105D01*
X68478989Y-111986105D01*
X68478989Y-111379693D01*
X67872577Y-111379693D01*
X67872577Y-112592517D01*
X66659753Y-112592517D01*
X66659753Y-113198929D01*
X65446929Y-113198929D01*
X65446929Y-112592517D01*
X66053341Y-112592517D01*
X66053341Y-111986105D01*
X67266165Y-111986105D01*
X67266165Y-111379693D01*
X67872577Y-111379693D01*
X67872577Y-110773281D01*
X67266165Y-110773281D01*
X67266165Y-109560457D01*
X66659753Y-109560457D01*
X66659753Y-108954045D01*
X67872577Y-108954045D01*
X67872577Y-109560457D01*
X68478989Y-109560457D01*
X68478989Y-110773281D01*
X69085401Y-110773281D01*
X69085401Y-111379693D01*
X69691813Y-111379693D01*
X69691813Y-110166869D01*
X69085401Y-110166869D01*
X69085401Y-108954045D01*
X68478989Y-108954045D01*
X68478989Y-108347633D01*
X69691813Y-108347633D01*
X69691813Y-108954045D01*
X70904637Y-108954045D01*
X70904637Y-110166869D01*
X70298225Y-110166869D01*
X70298225Y-111986105D01*
X69691813Y-111986105D01*
X69691813Y-113805341D01*
X70904637Y-113805341D01*
X70904637Y-114411753D01*
X70298225Y-114411753D01*
X70298225Y-115018165D01*
X69691813Y-115018165D01*
X69691813Y-114411753D01*
X69085401Y-114411753D01*
X69085401Y-115624577D01*
X68478989Y-115624577D01*
X68478989Y-116230989D01*
X69085401Y-116230989D01*
X69085401Y-116837401D01*
X67872577Y-116837401D01*
X67872577Y-116230989D01*
X66659753Y-116230989D01*
X66659753Y-116837401D01*
X66053341Y-116837401D01*
X66053341Y-118656637D01*
X64840517Y-118656637D01*
X64840517Y-118050225D01*
X65446929Y-118050225D01*
X65446929Y-117443813D01*
X64840517Y-117443813D01*
X64840517Y-118050225D01*
X64234105Y-118050225D01*
X64234105Y-116837401D01*
X64840517Y-116837401D01*
X64840517Y-116230989D01*
X65446929Y-116230989D01*
X65446929Y-115624577D01*
X66053341Y-115624577D01*
X67872577Y-115624577D01*
X67872577Y-113805341D01*
X66053341Y-113805341D01*
X66053341Y-115624577D01*
X65446929Y-115624577D01*
X65446929Y-115018165D01*
X64234105Y-115018165D01*
X64234105Y-114411753D01*
X63021281Y-114411753D01*
X63021281Y-115624577D01*
X61202045Y-115624577D01*
X61202045Y-116230989D01*
X61808457Y-116230989D01*
X61808457Y-116837401D01*
X62414869Y-116837401D01*
X62414869Y-118050225D01*
X61808457Y-118050225D01*
X61808457Y-118656637D01*
X58169985Y-118656637D01*
X58169985Y-118050225D01*
X58776397Y-118050225D01*
X59382809Y-118050225D01*
X60595633Y-118050225D01*
X60595633Y-117443813D01*
X61202045Y-117443813D01*
X61202045Y-116837401D01*
X60595633Y-116837401D01*
X60595633Y-117443813D01*
X59382809Y-117443813D01*
X59382809Y-118050225D01*
X58776397Y-118050225D01*
X58776397Y-117443813D01*
X59382809Y-117443813D01*
X59382809Y-116837401D01*
X58776397Y-116837401D01*
X58776397Y-117443813D01*
X58169985Y-117443813D01*
X58169985Y-116230989D01*
X58776397Y-116230989D01*
X58776397Y-115624577D01*
X59382809Y-115624577D01*
X59382809Y-116837401D01*
X60595633Y-116837401D01*
X60595633Y-116230989D01*
X59989221Y-116230989D01*
X59989221Y-115624577D01*
X60595633Y-115624577D01*
X60595633Y-115018165D01*
X61202045Y-115018165D01*
X61808457Y-115018165D01*
X61808457Y-114411753D01*
X62414869Y-114411753D01*
X62414869Y-113805341D01*
X63021281Y-113805341D01*
X63021281Y-113198929D01*
X63627693Y-113198929D01*
X63627693Y-112592517D01*
X62414869Y-112592517D01*
X62414869Y-113805341D01*
X61202045Y-113805341D01*
X61202045Y-115018165D01*
X60595633Y-115018165D01*
X59989221Y-115018165D01*
X59989221Y-113805341D01*
X60595633Y-113805341D01*
X60595633Y-112592517D01*
X59989221Y-112592517D01*
X59989221Y-111986105D01*
X60595633Y-111986105D01*
X60595633Y-111379693D01*
X61202045Y-111379693D01*
X61202045Y-111986105D01*
X61808457Y-111986105D01*
X62414869Y-111986105D01*
X63021281Y-111986105D01*
X63021281Y-111379693D01*
X62414869Y-111379693D01*
X62414869Y-111986105D01*
X61808457Y-111986105D01*
X61808457Y-110773281D01*
X62414869Y-110773281D01*
X63021281Y-110773281D01*
X63021281Y-110166869D01*
X62414869Y-110166869D01*
X62414869Y-110773281D01*
X61808457Y-110773281D01*
X61808457Y-110166869D01*
X62414869Y-110166869D01*
X62414869Y-109560457D01*
X63021281Y-109560457D01*
X63021281Y-108954045D01*
X63627693Y-108954045D01*
X63627693Y-108347633D01*
X64234105Y-108347633D01*
X64234105Y-108954045D01*
G37*
G36*
X67266165Y-106528397D02*
G01*
X68478989Y-106528397D01*
X68478989Y-108347633D01*
X66659753Y-108347633D01*
X66659753Y-107741221D01*
X67266165Y-107741221D01*
X67266165Y-107134809D01*
X66659753Y-107134809D01*
X66659753Y-105921985D01*
X67266165Y-105921985D01*
X67266165Y-106528397D01*
G37*
G36*
X65446929Y-101677101D02*
G01*
X64840517Y-101677101D01*
X64840517Y-101070689D01*
X65446929Y-101070689D01*
X65446929Y-101677101D01*
G37*
G36*
X54531513Y-113805341D02*
G01*
X53925101Y-113805341D01*
X53925101Y-113198929D01*
X54531513Y-113198929D01*
X54531513Y-113805341D01*
G37*
G36*
X59989221Y-102889925D02*
G01*
X60595633Y-102889925D01*
X60595633Y-103496337D01*
X59382809Y-103496337D01*
X59382809Y-102283513D01*
X59989221Y-102283513D01*
X59989221Y-102889925D01*
G37*
G36*
X69691813Y-104102749D02*
G01*
X67872577Y-104102749D01*
X67872577Y-102283513D01*
X69691813Y-102283513D01*
X69691813Y-104102749D01*
G37*
G36*
X62414869Y-105315573D02*
G01*
X61808457Y-105315573D01*
X61808457Y-104709161D01*
X62414869Y-104709161D01*
X62414869Y-105315573D01*
G37*
G36*
X57563573Y-111379693D02*
G01*
X56957161Y-111379693D01*
X56957161Y-110773281D01*
X57563573Y-110773281D01*
X57563573Y-111379693D01*
G37*
G36*
X56957161Y-111986105D02*
G01*
X56350749Y-111986105D01*
X56350749Y-111379693D01*
X56957161Y-111379693D01*
X56957161Y-111986105D01*
G37*
G36*
X66053341Y-102283513D02*
G01*
X65446929Y-102283513D01*
X65446929Y-101677101D01*
X66053341Y-101677101D01*
X66053341Y-102283513D01*
G37*
G36*
X70904637Y-116230989D02*
G01*
X70298225Y-116230989D01*
X70298225Y-115624577D01*
X70904637Y-115624577D01*
X70904637Y-116230989D01*
G37*
G36*
X70298225Y-107741221D02*
G01*
X69085401Y-107741221D01*
X69085401Y-107134809D01*
X70298225Y-107134809D01*
X70298225Y-107741221D01*
G37*
G36*
X67266165Y-115018165D02*
G01*
X66659753Y-115018165D01*
X66659753Y-114411753D01*
X67266165Y-114411753D01*
X67266165Y-115018165D01*
G37*
G36*
X57563573Y-107741221D02*
G01*
X56957161Y-107741221D01*
X56957161Y-107134809D01*
X57563573Y-107134809D01*
X57563573Y-107741221D01*
G37*
%LPC*%
D14*
X55247000Y-52345000D03*
X48747000Y-52345000D03*
X55247000Y-56845000D03*
X48747000Y-56845000D03*
D15*
X47498000Y-81661000D03*
X47498000Y-88370000D03*
X53445000Y-88370000D03*
X53467000Y-81407000D03*
D16*
X116459000Y-49149000D03*
D17*
X113919000Y-49149000D03*
X111379000Y-49149000D03*
X108839000Y-49149000D03*
X106299000Y-49149000D03*
X106299000Y-56769000D03*
X108839000Y-56769000D03*
X111379000Y-56769000D03*
X113919000Y-56769000D03*
X116459000Y-56769000D03*
D18*
X55465000Y-139192000D03*
X59425000Y-139192000D03*
X63385000Y-139192000D03*
X67345000Y-139192000D03*
X71305000Y-139192000D03*
X75265000Y-139192000D03*
X79225000Y-139192000D03*
X83185000Y-139192000D03*
X87145000Y-139192000D03*
X91105000Y-139192000D03*
X95065000Y-139192000D03*
X99025000Y-139192000D03*
X110905000Y-139192000D03*
D19*
X83147000Y-90145000D03*
D20*
X85687000Y-87605000D03*
X85687000Y-90145000D03*
X88227000Y-87605000D03*
X90767000Y-90145000D03*
X88227000Y-90145000D03*
X90767000Y-92685000D03*
X88227000Y-92685000D03*
X90767000Y-95225000D03*
X88227000Y-95225000D03*
X90767000Y-97765000D03*
X88227000Y-97765000D03*
X90767000Y-100305000D03*
X88227000Y-102845000D03*
X88227000Y-100305000D03*
X85687000Y-102845000D03*
X85687000Y-100305000D03*
X83147000Y-102845000D03*
X83147000Y-100305000D03*
X80607000Y-102845000D03*
X78067000Y-100305000D03*
X80607000Y-100305000D03*
X78067000Y-97765000D03*
X80607000Y-97765000D03*
X78067000Y-95225000D03*
X80607000Y-95225000D03*
X78067000Y-92685000D03*
X80607000Y-92685000D03*
X78067000Y-90145000D03*
X80607000Y-87605000D03*
X80607000Y-90145000D03*
X83147000Y-87605000D03*
M02*
