G04 #@! TF.GenerationSoftware,KiCad,Pcbnew,(6.0.9)*
G04 #@! TF.CreationDate,2023-09-15T10:25:23+02:00*
G04 #@! TF.ProjectId,p2000t-multicartridge-smd,70323030-3074-42d6-9d75-6c7469636172,rev?*
G04 #@! TF.SameCoordinates,Original*
G04 #@! TF.FileFunction,Copper,L1,Top*
G04 #@! TF.FilePolarity,Positive*
%FSLAX46Y46*%
G04 Gerber Fmt 4.6, Leading zero omitted, Abs format (unit mm)*
G04 Created by KiCad (PCBNEW (6.0.9)) date 2023-09-15 10:25:23*
%MOMM*%
%LPD*%
G01*
G04 APERTURE LIST*
G04 #@! TA.AperFunction,ComponentPad*
%ADD10C,2.000000*%
G04 #@! TD*
G04 #@! TA.AperFunction,ComponentPad*
%ADD11C,1.500000*%
G04 #@! TD*
G04 #@! TA.AperFunction,ComponentPad*
%ADD12R,1.600000X1.600000*%
G04 #@! TD*
G04 #@! TA.AperFunction,ComponentPad*
%ADD13O,1.600000X1.600000*%
G04 #@! TD*
G04 #@! TA.AperFunction,SMDPad,CuDef*
%ADD14R,2.000000X10.000000*%
G04 #@! TD*
G04 #@! TA.AperFunction,ComponentPad*
%ADD15R,1.422400X1.422400*%
G04 #@! TD*
G04 #@! TA.AperFunction,ComponentPad*
%ADD16C,1.422400*%
G04 #@! TD*
G04 #@! TA.AperFunction,ViaPad*
%ADD17C,0.800000*%
G04 #@! TD*
G04 #@! TA.AperFunction,Conductor*
%ADD18C,0.250000*%
G04 #@! TD*
G04 APERTURE END LIST*
D10*
X55247000Y-52345000D03*
X48747000Y-52345000D03*
X55247000Y-56845000D03*
X48747000Y-56845000D03*
D11*
X47498000Y-81661000D03*
X47498000Y-88370000D03*
X53445000Y-88370000D03*
X53467000Y-81407000D03*
D12*
X116459000Y-49149000D03*
D13*
X113919000Y-49149000D03*
X111379000Y-49149000D03*
X108839000Y-49149000D03*
X106299000Y-49149000D03*
X106299000Y-56769000D03*
X108839000Y-56769000D03*
X111379000Y-56769000D03*
X113919000Y-56769000D03*
X116459000Y-56769000D03*
D14*
X55465000Y-139192000D03*
X59425000Y-139192000D03*
X63385000Y-139192000D03*
X67345000Y-139192000D03*
X71305000Y-139192000D03*
X75265000Y-139192000D03*
X79225000Y-139192000D03*
X83185000Y-139192000D03*
X87145000Y-139192000D03*
X91105000Y-139192000D03*
X95065000Y-139192000D03*
X99025000Y-139192000D03*
X110905000Y-139192000D03*
D15*
X83147000Y-90145000D03*
D16*
X85687000Y-87605000D03*
X85687000Y-90145000D03*
X88227000Y-87605000D03*
X90767000Y-90145000D03*
X88227000Y-90145000D03*
X90767000Y-92685000D03*
X88227000Y-92685000D03*
X90767000Y-95225000D03*
X88227000Y-95225000D03*
X90767000Y-97765000D03*
X88227000Y-97765000D03*
X90767000Y-100305000D03*
X88227000Y-102845000D03*
X88227000Y-100305000D03*
X85687000Y-102845000D03*
X85687000Y-100305000D03*
X83147000Y-102845000D03*
X83147000Y-100305000D03*
X80607000Y-102845000D03*
X78067000Y-100305000D03*
X80607000Y-100305000D03*
X78067000Y-97765000D03*
X80607000Y-97765000D03*
X78067000Y-95225000D03*
X80607000Y-95225000D03*
X78067000Y-92685000D03*
X80607000Y-92685000D03*
X78067000Y-90145000D03*
X80607000Y-87605000D03*
X80607000Y-90145000D03*
X83147000Y-87605000D03*
D17*
X82681200Y-75283600D03*
X89409300Y-69599900D03*
X83621300Y-76208800D03*
X73042400Y-101494900D03*
X78577900Y-81798800D03*
X77003100Y-82268800D03*
X117585900Y-119264200D03*
X75272100Y-73025000D03*
X79194200Y-115215400D03*
X77665700Y-117499800D03*
X78933100Y-110948600D03*
X75774700Y-119799600D03*
X78892700Y-107100900D03*
X73193900Y-123698700D03*
X72392300Y-126390000D03*
X81120600Y-112207300D03*
X78392600Y-125529400D03*
X80316400Y-118066600D03*
X80316400Y-127135200D03*
X83136600Y-109772700D03*
X83140100Y-127147500D03*
X85350200Y-116974600D03*
X85350200Y-127138600D03*
X79963400Y-88873800D03*
X78400000Y-105042000D03*
X90083300Y-119349900D03*
X94604900Y-126368700D03*
X87248700Y-120106300D03*
X84496400Y-121035000D03*
X81735300Y-118314300D03*
X80193200Y-117040300D03*
X75390300Y-95977100D03*
X79961300Y-111110700D03*
X76751600Y-116510400D03*
X61937300Y-127154300D03*
X89027000Y-63119000D03*
X90551000Y-81534000D03*
X86228800Y-76066800D03*
X110843600Y-127149300D03*
X90696500Y-88354500D03*
D18*
X85687000Y-102845000D02*
X109991300Y-127149300D01*
X59590400Y-75283600D02*
X53467000Y-81407000D01*
X82681200Y-75283600D02*
X59590400Y-75283600D01*
X85255100Y-73754100D02*
X55247000Y-73754100D01*
X89409300Y-69599900D02*
X85255100Y-73754100D01*
X55247000Y-56845000D02*
X55247000Y-73754100D01*
X55247000Y-73912000D02*
X47498000Y-81661000D01*
X55247000Y-73754100D02*
X55247000Y-73912000D01*
X65606200Y-76208800D02*
X83621300Y-76208800D01*
X53445000Y-88370000D02*
X65606200Y-76208800D01*
X75270400Y-99266900D02*
X73042400Y-101494900D01*
X79568900Y-99266900D02*
X75270400Y-99266900D01*
X80607000Y-100305000D02*
X79568900Y-99266900D01*
X79214300Y-91292300D02*
X80607000Y-92685000D01*
X79214300Y-82435200D02*
X79214300Y-91292300D01*
X78577900Y-81798800D02*
X79214300Y-82435200D01*
X85430400Y-82781600D02*
X80607000Y-87605000D01*
X90979300Y-82781600D02*
X85430400Y-82781600D01*
X108839000Y-64921900D02*
X90979300Y-82781600D01*
X108839000Y-57895900D02*
X108839000Y-64921900D01*
X108839000Y-56769000D02*
X108839000Y-57895900D01*
X111379000Y-63026400D02*
X111379000Y-56769000D01*
X91112300Y-83293100D02*
X111379000Y-63026400D01*
X89998900Y-83293100D02*
X91112300Y-83293100D01*
X85687000Y-87605000D02*
X89998900Y-83293100D01*
X113919000Y-63395000D02*
X113919000Y-56769000D01*
X88437500Y-88876500D02*
X113919000Y-63395000D01*
X87594500Y-88876500D02*
X88437500Y-88876500D01*
X86326000Y-90145000D02*
X87594500Y-88876500D01*
X85687000Y-90145000D02*
X86326000Y-90145000D01*
X116459000Y-56769000D02*
X115332100Y-56769000D01*
X77851000Y-89929000D02*
X78067000Y-90145000D01*
X77851000Y-81497800D02*
X77851000Y-89929000D01*
X78294600Y-81054200D02*
X77851000Y-81497800D01*
X79482400Y-81054200D02*
X78294600Y-81054200D01*
X80700000Y-82271800D02*
X79482400Y-81054200D01*
X90841200Y-82271800D02*
X80700000Y-82271800D01*
X107569000Y-65544000D02*
X90841200Y-82271800D01*
X107569000Y-56406100D02*
X107569000Y-65544000D01*
X108344300Y-55630800D02*
X107569000Y-56406100D01*
X114475600Y-55630800D02*
X108344300Y-55630800D01*
X115332100Y-56487300D02*
X114475600Y-55630800D01*
X115332100Y-56769000D02*
X115332100Y-56487300D01*
X77003100Y-90565500D02*
X77003100Y-82268800D01*
X77620700Y-91183100D02*
X77003100Y-90565500D01*
X78034800Y-91183100D02*
X77620700Y-91183100D01*
X79214500Y-92362800D02*
X78034800Y-91183100D01*
X79214500Y-92772100D02*
X79214500Y-92362800D01*
X80174200Y-93731800D02*
X79214500Y-92772100D01*
X81240800Y-93731800D02*
X80174200Y-93731800D01*
X84417000Y-96908000D02*
X81240800Y-93731800D01*
X84417000Y-104590200D02*
X84417000Y-96908000D01*
X99025000Y-119198200D02*
X84417000Y-104590200D01*
X99025000Y-139192000D02*
X99025000Y-119198200D01*
X93130900Y-55166200D02*
X75272100Y-73025000D01*
X116499600Y-55166200D02*
X93130900Y-55166200D01*
X117585900Y-56252500D02*
X116499600Y-55166200D01*
X117585900Y-119264200D02*
X117585900Y-56252500D01*
X77665700Y-116743900D02*
X77665700Y-117499800D01*
X79194200Y-115215400D02*
X77665700Y-116743900D01*
X75774700Y-114107000D02*
X78933100Y-110948600D01*
X75774700Y-119799600D02*
X75774700Y-114107000D01*
X73193900Y-112799700D02*
X78892700Y-107100900D01*
X73193900Y-123698700D02*
X73193900Y-112799700D01*
X72392300Y-110021800D02*
X72392300Y-126390000D01*
X79569100Y-102845000D02*
X72392300Y-110021800D01*
X80607000Y-102845000D02*
X79569100Y-102845000D01*
X78392600Y-117392000D02*
X78392600Y-125529400D01*
X81120600Y-114664000D02*
X78392600Y-117392000D01*
X81120600Y-112207300D02*
X81120600Y-114664000D01*
X80316400Y-118066600D02*
X80316400Y-127135200D01*
X83140100Y-109776200D02*
X83136600Y-109772700D01*
X83140100Y-127147500D02*
X83140100Y-109776200D01*
X85350200Y-116974600D02*
X85350200Y-127138600D01*
X86639900Y-88873800D02*
X79963400Y-88873800D01*
X87908700Y-87605000D02*
X86639900Y-88873800D01*
X88227000Y-87605000D02*
X87908700Y-87605000D01*
X90083300Y-115691100D02*
X90083300Y-119349900D01*
X79434200Y-105042000D02*
X90083300Y-115691100D01*
X78400000Y-105042000D02*
X79434200Y-105042000D01*
X95065000Y-126828800D02*
X95065000Y-139192000D01*
X94604900Y-126368700D02*
X95065000Y-126828800D01*
X91105000Y-139192000D02*
X91105000Y-133865100D01*
X91105000Y-112659600D02*
X91105000Y-133865100D01*
X81810100Y-103364700D02*
X91105000Y-112659600D01*
X81810100Y-96428100D02*
X81810100Y-103364700D01*
X80607000Y-95225000D02*
X81810100Y-96428100D01*
X87248700Y-133761400D02*
X87145000Y-133865100D01*
X87248700Y-120106300D02*
X87248700Y-133761400D01*
X87145000Y-139192000D02*
X87145000Y-133865100D01*
X83185000Y-139192000D02*
X83185000Y-133865100D01*
X84496400Y-132553700D02*
X84496400Y-121035000D01*
X83185000Y-133865100D02*
X84496400Y-132553700D01*
X79225000Y-139192000D02*
X79225000Y-133865100D01*
X81735300Y-131354800D02*
X81735300Y-118314300D01*
X79225000Y-133865100D02*
X81735300Y-131354800D01*
X75265000Y-129750000D02*
X75265000Y-139192000D01*
X79269800Y-125745200D02*
X75265000Y-129750000D01*
X79269800Y-117963700D02*
X79269800Y-125745200D01*
X80193200Y-117040300D02*
X79269800Y-117963700D01*
X71305000Y-139192000D02*
X71305000Y-133865100D01*
X71305000Y-107067000D02*
X78067000Y-100305000D01*
X71305000Y-133865100D02*
X71305000Y-107067000D01*
X67345000Y-106164400D02*
X67345000Y-139192000D01*
X76855300Y-96654100D02*
X67345000Y-106164400D01*
X78158300Y-96654100D02*
X76855300Y-96654100D01*
X79336800Y-95475600D02*
X78158300Y-96654100D01*
X79336800Y-95023000D02*
X79336800Y-95475600D01*
X80176100Y-94183700D02*
X79336800Y-95023000D01*
X81053500Y-94183700D02*
X80176100Y-94183700D01*
X83147000Y-96277200D02*
X81053500Y-94183700D01*
X83147000Y-100305000D02*
X83147000Y-96277200D01*
X63385000Y-107982400D02*
X75390300Y-95977100D01*
X63385000Y-139192000D02*
X63385000Y-107982400D01*
X59425000Y-129666600D02*
X59425000Y-139192000D01*
X61937300Y-127154300D02*
X59425000Y-129666600D01*
X76751600Y-114320400D02*
X79961300Y-111110700D01*
X76751600Y-116510400D02*
X76751600Y-114320400D01*
X90551000Y-81534000D02*
X90551000Y-77118900D01*
X90551000Y-64643000D02*
X89027000Y-63119000D01*
X90551000Y-77118900D02*
X90551000Y-64643000D01*
X87280900Y-77118900D02*
X86228800Y-76066800D01*
X90551000Y-77118900D02*
X87280900Y-77118900D01*
X83958300Y-78337300D02*
X86228800Y-76066800D01*
X79901900Y-78337300D02*
X83958300Y-78337300D01*
X55465000Y-102774200D02*
X79901900Y-78337300D01*
X55465000Y-139192000D02*
X55465000Y-102774200D01*
X110905000Y-139192000D02*
X110905000Y-133865100D01*
X110905000Y-127210700D02*
X110843600Y-127149300D01*
X110905000Y-133865100D02*
X110905000Y-127210700D01*
X109991300Y-127149300D02*
X110843600Y-127149300D01*
X89722500Y-89328500D02*
X90696500Y-88354500D01*
X89722500Y-90153700D02*
X89722500Y-89328500D01*
X88693100Y-91183100D02*
X89722500Y-90153700D01*
X88222900Y-91183100D02*
X88693100Y-91183100D01*
X87188900Y-92217100D02*
X88222900Y-91183100D01*
X87188900Y-101343100D02*
X87188900Y-92217100D01*
X85687000Y-102845000D02*
X87188900Y-101343100D01*
M02*
