G04 #@! TF.GenerationSoftware,KiCad,Pcbnew,7.0.10*
G04 #@! TF.CreationDate,2024-04-03T18:47:56+02:00*
G04 #@! TF.ProjectId,p2000t-multicartridge,70323030-3074-42d6-9d75-6c7469636172,rev?*
G04 #@! TF.SameCoordinates,Original*
G04 #@! TF.FileFunction,Copper,L2,Bot*
G04 #@! TF.FilePolarity,Positive*
%FSLAX46Y46*%
G04 Gerber Fmt 4.6, Leading zero omitted, Abs format (unit mm)*
G04 Created by KiCad (PCBNEW 7.0.10) date 2024-04-03 18:47:56*
%MOMM*%
%LPD*%
G01*
G04 APERTURE LIST*
G04 Aperture macros list*
%AMFreePoly0*
4,1,6,1.000000,0.000000,0.500000,-0.750000,-0.500000,-0.750000,-0.500000,0.750000,0.500000,0.750000,1.000000,0.000000,1.000000,0.000000,$1*%
%AMFreePoly1*
4,1,6,0.500000,-0.750000,-0.650000,-0.750000,-0.150000,0.000000,-0.650000,0.750000,0.500000,0.750000,0.500000,-0.750000,0.500000,-0.750000,$1*%
G04 Aperture macros list end*
G04 #@! TA.AperFunction,ComponentPad*
%ADD10C,2.000000*%
G04 #@! TD*
G04 #@! TA.AperFunction,ComponentPad*
%ADD11C,1.500000*%
G04 #@! TD*
G04 #@! TA.AperFunction,ComponentPad*
%ADD12R,1.600000X1.600000*%
G04 #@! TD*
G04 #@! TA.AperFunction,ComponentPad*
%ADD13O,1.600000X1.600000*%
G04 #@! TD*
G04 #@! TA.AperFunction,ComponentPad*
%ADD14C,1.600000*%
G04 #@! TD*
G04 #@! TA.AperFunction,ComponentPad*
%ADD15R,1.700000X1.700000*%
G04 #@! TD*
G04 #@! TA.AperFunction,ComponentPad*
%ADD16O,1.700000X1.700000*%
G04 #@! TD*
G04 #@! TA.AperFunction,SMDPad,CuDef*
%ADD17FreePoly0,0.000000*%
G04 #@! TD*
G04 #@! TA.AperFunction,SMDPad,CuDef*
%ADD18FreePoly1,0.000000*%
G04 #@! TD*
G04 #@! TA.AperFunction,SMDPad,CuDef*
%ADD19R,2.000000X10.000000*%
G04 #@! TD*
G04 #@! TA.AperFunction,ComponentPad*
%ADD20R,1.422400X1.422400*%
G04 #@! TD*
G04 #@! TA.AperFunction,ComponentPad*
%ADD21C,1.422400*%
G04 #@! TD*
G04 #@! TA.AperFunction,ViaPad*
%ADD22C,0.800000*%
G04 #@! TD*
G04 #@! TA.AperFunction,Conductor*
%ADD23C,0.250000*%
G04 #@! TD*
G04 APERTURE END LIST*
D10*
X55247000Y-52345000D03*
X48747000Y-52345000D03*
X55247000Y-56845000D03*
X48747000Y-56845000D03*
D11*
X47498000Y-81661000D03*
X47498000Y-88370000D03*
X53445000Y-88370000D03*
X53467000Y-81407000D03*
D12*
X105821000Y-88337000D03*
D13*
X105821000Y-90877000D03*
X105821000Y-93417000D03*
X105821000Y-95957000D03*
X105821000Y-98497000D03*
X105821000Y-101037000D03*
X105821000Y-103577000D03*
X98201000Y-103577000D03*
X98201000Y-101037000D03*
X98201000Y-98497000D03*
X98201000Y-95957000D03*
X98201000Y-93417000D03*
X98201000Y-90877000D03*
X98201000Y-88337000D03*
D14*
X99471000Y-83003000D03*
X104471000Y-83003000D03*
X86647000Y-80645000D03*
X81647000Y-80645000D03*
D15*
X113792000Y-61849000D03*
D16*
X111252000Y-61849000D03*
X108712000Y-61849000D03*
X106172000Y-61849000D03*
X103632000Y-61849000D03*
X101092000Y-61849000D03*
D17*
X62954000Y-68557000D03*
D18*
X64404000Y-68557000D03*
D12*
X118347000Y-88345000D03*
D13*
X118347000Y-90885000D03*
X118347000Y-93425000D03*
X118347000Y-95965000D03*
X118347000Y-98505000D03*
X118347000Y-101045000D03*
X118347000Y-103585000D03*
X118347000Y-106125000D03*
X110727000Y-106125000D03*
X110727000Y-103585000D03*
X110727000Y-101045000D03*
X110727000Y-98505000D03*
X110727000Y-95965000D03*
X110727000Y-93425000D03*
X110727000Y-90885000D03*
X110727000Y-88345000D03*
D12*
X105797000Y-112945000D03*
D14*
X103297000Y-112945000D03*
X116997000Y-83045000D03*
X111997000Y-83045000D03*
X70165000Y-81383000D03*
D13*
X70165000Y-89003000D03*
D14*
X66915000Y-81383000D03*
D13*
X66915000Y-89003000D03*
D14*
X63615000Y-88973000D03*
D13*
X63615000Y-81353000D03*
D19*
X55465000Y-139192000D03*
X59425000Y-139192000D03*
X63385000Y-139192000D03*
X67345000Y-139192000D03*
X71305000Y-139192000D03*
X75265000Y-139192000D03*
X79225000Y-139192000D03*
X83185000Y-139192000D03*
X87145000Y-139192000D03*
X91105000Y-139192000D03*
X95065000Y-139192000D03*
X99025000Y-139192000D03*
X102985000Y-139192000D03*
X110905000Y-139192000D03*
D12*
X115443000Y-112903000D03*
D14*
X112943000Y-112903000D03*
D12*
X97663000Y-76581000D03*
D13*
X100203000Y-76581000D03*
X102743000Y-76581000D03*
X105283000Y-76581000D03*
X107823000Y-76581000D03*
X110363000Y-76581000D03*
X112903000Y-76581000D03*
X115443000Y-76581000D03*
X117983000Y-76581000D03*
D20*
X83147000Y-90145000D03*
D21*
X85687000Y-87605000D03*
X85687000Y-90145000D03*
X88227000Y-87605000D03*
X90767000Y-90145000D03*
X88227000Y-90145000D03*
X90767000Y-92685000D03*
X88227000Y-92685000D03*
X90767000Y-95225000D03*
X88227000Y-95225000D03*
X90767000Y-97765000D03*
X88227000Y-97765000D03*
X90767000Y-100305000D03*
X88227000Y-102845000D03*
X88227000Y-100305000D03*
X85687000Y-102845000D03*
X85687000Y-100305000D03*
X83147000Y-102845000D03*
X83147000Y-100305000D03*
X80607000Y-102845000D03*
X78067000Y-100305000D03*
X80607000Y-100305000D03*
X78067000Y-97765000D03*
X80607000Y-97765000D03*
X78067000Y-95225000D03*
X80607000Y-95225000D03*
X78067000Y-92685000D03*
X80607000Y-92685000D03*
X78067000Y-90145000D03*
X80607000Y-87605000D03*
X80607000Y-90145000D03*
X83147000Y-87605000D03*
D22*
X110905000Y-125387000D03*
X72647000Y-72145000D03*
X70147000Y-74645000D03*
X84647000Y-58645000D03*
X70147000Y-77145000D03*
X118809900Y-80874100D03*
X84647000Y-64145000D03*
X55147000Y-126145000D03*
X65361300Y-125810200D03*
X66120900Y-124022200D03*
X89214900Y-96281300D03*
X94083400Y-97122800D03*
X86447600Y-111994700D03*
X86897600Y-119974300D03*
X86375400Y-121682600D03*
X103803300Y-102563600D03*
X96251500Y-79064100D03*
X95294200Y-78523400D03*
X84183500Y-77412000D03*
X95998400Y-81559300D03*
X101940700Y-84448000D03*
X78702300Y-76682500D03*
D23*
X81877000Y-99035000D02*
X81877000Y-100510800D01*
X80607000Y-97765000D02*
X81877000Y-99035000D01*
X82941200Y-101575000D02*
X84417000Y-101575000D01*
X84417000Y-101575000D02*
X85687000Y-102845000D01*
X81877000Y-100510800D02*
X82941200Y-101575000D01*
X110905000Y-139192000D02*
X110905000Y-125387000D01*
X48747000Y-52345000D02*
X55247000Y-52345000D01*
X113792000Y-60290000D02*
X112147000Y-58645000D01*
X99471000Y-87067000D02*
X98201000Y-88337000D01*
X86647000Y-84105000D02*
X86647000Y-80645000D01*
X58647000Y-83145000D02*
X58647000Y-99145000D01*
X70165000Y-81383000D02*
X66915000Y-81383000D01*
X60439000Y-81353000D02*
X58647000Y-83145000D01*
X85522000Y-79520000D02*
X74272000Y-79520000D01*
X101329000Y-81145000D02*
X115097000Y-81145000D01*
X113792000Y-61849000D02*
X113792000Y-60290000D01*
X115647000Y-100145000D02*
X114747000Y-101045000D01*
X116387000Y-90885000D02*
X118347000Y-90885000D01*
X99471000Y-83003000D02*
X99471000Y-87067000D01*
X83147000Y-87605000D02*
X86647000Y-84105000D01*
X70147000Y-74645000D02*
X70147000Y-77145000D01*
X66915000Y-81383000D02*
X63645000Y-81383000D01*
X72409000Y-81383000D02*
X70165000Y-81383000D01*
X115647000Y-90145000D02*
X115647000Y-92145000D01*
X116147000Y-86645000D02*
X115647000Y-87145000D01*
X84647000Y-64145000D02*
X80647000Y-64145000D01*
X113792000Y-61849000D02*
X113792000Y-63024300D01*
X115647000Y-92145000D02*
X116927000Y-93425000D01*
X58647000Y-99145000D02*
X55147000Y-102645000D01*
X96005000Y-83003000D02*
X99471000Y-83003000D01*
X115647000Y-90145000D02*
X116387000Y-90885000D01*
X74272000Y-79520000D02*
X72409000Y-81383000D01*
X99471000Y-83003000D02*
X101329000Y-81145000D01*
X55147000Y-102645000D02*
X55147000Y-126145000D01*
X80647000Y-64145000D02*
X72647000Y-72145000D01*
X112147000Y-58645000D02*
X84647000Y-58645000D01*
X116713000Y-78777200D02*
X116713000Y-65945300D01*
X86647000Y-80645000D02*
X93647000Y-80645000D01*
X114447000Y-88345000D02*
X115647000Y-87145000D01*
X116997000Y-85795000D02*
X116147000Y-86645000D01*
X93647000Y-80645000D02*
X96005000Y-83003000D01*
X115647000Y-89645000D02*
X115647000Y-90145000D01*
X63615000Y-81353000D02*
X60439000Y-81353000D01*
X114747000Y-101045000D02*
X110727000Y-101045000D01*
X116927000Y-93425000D02*
X118347000Y-93425000D01*
X116713000Y-65945300D02*
X113792000Y-63024300D01*
X115647000Y-89645000D02*
X115647000Y-90145000D01*
X115647000Y-92145000D02*
X115647000Y-100145000D01*
X86647000Y-80645000D02*
X85522000Y-79520000D01*
X110727000Y-88345000D02*
X114447000Y-88345000D01*
X115647000Y-87145000D02*
X116147000Y-86645000D01*
X63645000Y-81383000D02*
X63615000Y-81353000D01*
X116997000Y-83045000D02*
X116997000Y-85795000D01*
X115097000Y-81145000D02*
X116997000Y-83045000D01*
X115647000Y-87145000D02*
X115647000Y-89645000D01*
X118809900Y-80874100D02*
X116713000Y-78777200D01*
X80607000Y-90145000D02*
X83147000Y-87605000D01*
X88227000Y-102944500D02*
X88227000Y-102845000D01*
X65361300Y-125810200D02*
X88227000Y-102944500D01*
X85687000Y-100305000D02*
X86728300Y-101346300D01*
X86728300Y-101346300D02*
X86728300Y-103414800D01*
X86728300Y-103414800D02*
X66120900Y-124022200D01*
X80607000Y-95225000D02*
X86608700Y-95225000D01*
X87665000Y-96281300D02*
X89214900Y-96281300D01*
X86608700Y-95225000D02*
X87665000Y-96281300D01*
X91205500Y-94188400D02*
X79103600Y-94188400D01*
X79103600Y-94188400D02*
X78067000Y-95225000D01*
X94083400Y-97122800D02*
X94083400Y-97066300D01*
X94083400Y-97066300D02*
X91205500Y-94188400D01*
X104695700Y-93417000D02*
X100964300Y-89685600D01*
X97652800Y-89685600D02*
X95572200Y-87605000D01*
X95572200Y-87605000D02*
X88227000Y-87605000D01*
X100964300Y-89685600D02*
X97652800Y-89685600D01*
X105821000Y-93417000D02*
X104695700Y-93417000D01*
X95065000Y-139192000D02*
X95065000Y-120612100D01*
X95065000Y-120612100D02*
X86447600Y-111994700D01*
X94811200Y-102544600D02*
X94811200Y-96824800D01*
X94811200Y-96824800D02*
X91719500Y-93733100D01*
X91105000Y-139192000D02*
X91105000Y-118149600D01*
X85722100Y-112766700D02*
X85722100Y-111633700D01*
X91105000Y-118149600D02*
X85722100Y-112766700D01*
X79115100Y-93733100D02*
X78067000Y-92685000D01*
X91719500Y-93733100D02*
X79115100Y-93733100D01*
X85722100Y-111633700D02*
X94811200Y-102544600D01*
X87145000Y-139192000D02*
X87145000Y-133866700D01*
X87145000Y-120221700D02*
X86897600Y-119974300D01*
X87145000Y-133866700D02*
X87145000Y-120221700D01*
X83185000Y-133866700D02*
X86375400Y-130676300D01*
X83185000Y-139192000D02*
X83185000Y-133866700D01*
X86375400Y-130676300D02*
X86375400Y-121682600D01*
X79225000Y-115113000D02*
X92278100Y-102059900D01*
X91122200Y-96654300D02*
X90642600Y-96654300D01*
X79225000Y-139192000D02*
X79225000Y-115113000D01*
X89213300Y-95225000D02*
X88227000Y-95225000D01*
X92278100Y-102059900D02*
X92278100Y-97810200D01*
X92278100Y-97810200D02*
X91122200Y-96654300D01*
X90642600Y-96654300D02*
X89213300Y-95225000D01*
X91826000Y-101585300D02*
X75265000Y-118146300D01*
X88227000Y-97765000D02*
X89641100Y-99179100D01*
X75265000Y-118146300D02*
X75265000Y-133866700D01*
X75265000Y-139192000D02*
X75265000Y-133866700D01*
X91143300Y-99179100D02*
X91826000Y-99861800D01*
X89641100Y-99179100D02*
X91143300Y-99179100D01*
X91826000Y-99861800D02*
X91826000Y-101585300D01*
X64635900Y-127197600D02*
X64635900Y-118816100D01*
X64635900Y-118816100D02*
X80607000Y-102845000D01*
X71305000Y-133866700D02*
X64635900Y-127197600D01*
X71305000Y-139192000D02*
X71305000Y-133866700D01*
X64178700Y-117765700D02*
X80147600Y-101796800D01*
X67345000Y-139192000D02*
X67345000Y-132263200D01*
X82098800Y-101796800D02*
X83147000Y-102845000D01*
X64178700Y-129096900D02*
X64178700Y-117765700D01*
X80147600Y-101796800D02*
X82098800Y-101796800D01*
X67345000Y-132263200D02*
X64178700Y-129096900D01*
X79337000Y-97504100D02*
X80114300Y-96726800D01*
X63385000Y-117489800D02*
X79337000Y-101537800D01*
X79337000Y-101537800D02*
X79337000Y-97504100D01*
X80114300Y-96726800D02*
X84648800Y-96726800D01*
X63385000Y-133866700D02*
X63385000Y-117489800D01*
X63385000Y-139192000D02*
X63385000Y-133866700D01*
X84648800Y-96726800D02*
X88227000Y-100305000D01*
X88509700Y-98875600D02*
X89939100Y-100305000D01*
X78048500Y-96276400D02*
X85272600Y-96276400D01*
X89939100Y-100305000D02*
X90767000Y-100305000D01*
X85272600Y-96276400D02*
X87871800Y-98875600D01*
X87871800Y-98875600D02*
X88509700Y-98875600D01*
X59425000Y-114899900D02*
X78048500Y-96276400D01*
X59425000Y-139192000D02*
X59425000Y-114899900D01*
X106175000Y-99767000D02*
X106951600Y-100543600D01*
X105395000Y-99767000D02*
X106175000Y-99767000D01*
X104671600Y-132180100D02*
X102985000Y-133866700D01*
X106951600Y-104702400D02*
X104671600Y-106982400D01*
X98201000Y-93417000D02*
X99326300Y-93417000D01*
X99326300Y-93417000D02*
X99326300Y-93698300D01*
X99326300Y-93698300D02*
X105395000Y-99767000D01*
X102985000Y-139192000D02*
X102985000Y-133866700D01*
X106951600Y-100543600D02*
X106951600Y-104702400D01*
X104671600Y-106982400D02*
X104671600Y-132180100D01*
X98201000Y-90877000D02*
X99326300Y-90877000D01*
X104406300Y-95957000D02*
X99326300Y-90877000D01*
X105821000Y-95957000D02*
X104406300Y-95957000D01*
X99025000Y-107341900D02*
X99025000Y-139192000D01*
X103803300Y-102563600D02*
X99025000Y-107341900D01*
X114317700Y-68630000D02*
X114317700Y-76581000D01*
X112115900Y-79064100D02*
X96251500Y-79064100D01*
X114317700Y-76581000D02*
X114317700Y-76862300D01*
X115443000Y-76581000D02*
X114317700Y-76581000D01*
X108712000Y-61849000D02*
X108712000Y-63024300D01*
X114317700Y-76862300D02*
X112115900Y-79064100D01*
X108712000Y-63024300D02*
X114317700Y-68630000D01*
X112903000Y-76581000D02*
X111777700Y-76581000D01*
X111777700Y-76832400D02*
X111777700Y-76581000D01*
X95294200Y-78523400D02*
X95595100Y-78222500D01*
X95595100Y-78222500D02*
X110387600Y-78222500D01*
X110387600Y-78222500D02*
X111777700Y-76832400D01*
X69175000Y-61849000D02*
X62954000Y-68070000D01*
X101092000Y-61849000D02*
X69175000Y-61849000D01*
X62954000Y-68070000D02*
X62954000Y-68557000D01*
X98589900Y-94687000D02*
X94821900Y-94687000D01*
X91782300Y-91647400D02*
X81644600Y-91647400D01*
X94821900Y-94687000D02*
X91782300Y-91647400D01*
X104695700Y-101037000D02*
X104695700Y-100792800D01*
X104695700Y-100792800D02*
X98589900Y-94687000D01*
X81644600Y-91647400D02*
X80607000Y-92685000D01*
X105821000Y-101037000D02*
X104695700Y-101037000D01*
X65229300Y-68557000D02*
X74084300Y-77412000D01*
X74084300Y-77412000D02*
X84183500Y-77412000D01*
X64404000Y-68557000D02*
X65229300Y-68557000D01*
X95393300Y-81559300D02*
X92879500Y-79045500D01*
X53445000Y-87679400D02*
X53445000Y-88370000D01*
X55465000Y-139192000D02*
X55465000Y-133866700D01*
X62078900Y-79045500D02*
X53445000Y-87679400D01*
X110493300Y-89751600D02*
X105189700Y-84448000D01*
X53445000Y-88370000D02*
X53445000Y-131846700D01*
X53445000Y-131846700D02*
X55465000Y-133866700D01*
X92879500Y-79045500D02*
X62078900Y-79045500D01*
X111185900Y-89751600D02*
X110493300Y-89751600D01*
X95998400Y-81559300D02*
X95393300Y-81559300D01*
X110727000Y-98505000D02*
X111899600Y-97332400D01*
X111899600Y-97332400D02*
X111899600Y-90465300D01*
X105189700Y-84448000D02*
X101940700Y-84448000D01*
X111899600Y-90465300D02*
X111185900Y-89751600D01*
X93743800Y-91181700D02*
X70219000Y-91181700D01*
X109601700Y-92854200D02*
X110445600Y-92010300D01*
X105797000Y-112945000D02*
X105797000Y-111819700D01*
X110727000Y-90885000D02*
X110727000Y-92010300D01*
X107402000Y-110214700D02*
X107402000Y-98414900D01*
X94709100Y-92147000D02*
X93743800Y-91181700D01*
X106214100Y-97227000D02*
X104546300Y-97227000D01*
X107402000Y-98414900D02*
X106214100Y-97227000D01*
X66915000Y-89003000D02*
X68040300Y-89003000D01*
X99466300Y-92147000D02*
X94709100Y-92147000D01*
X109601700Y-93839400D02*
X109601700Y-92854200D01*
X104546300Y-97227000D02*
X99466300Y-92147000D01*
X70219000Y-91181700D02*
X68040300Y-89003000D01*
X110445600Y-92010300D02*
X110727000Y-92010300D01*
X105797000Y-111819700D02*
X107402000Y-110214700D01*
X106214100Y-97227000D02*
X109601700Y-93839400D01*
X112943000Y-107293000D02*
X112943000Y-112903000D01*
X118347000Y-102170300D02*
X118065700Y-102170300D01*
X118065700Y-102170300D02*
X112943000Y-107293000D01*
X118347000Y-101045000D02*
X118347000Y-102170300D01*
X116699400Y-79789500D02*
X95534200Y-79789500D01*
X118065700Y-104710300D02*
X115443000Y-107333000D01*
X118347000Y-104147600D02*
X118347000Y-104710300D01*
X118347000Y-104147600D02*
X118347000Y-104043200D01*
X95534200Y-79789500D02*
X92427200Y-76682500D01*
X92427200Y-76682500D02*
X78702300Y-76682500D01*
X119922600Y-83012700D02*
X116699400Y-79789500D01*
X118347000Y-103699500D02*
X118347000Y-104043200D01*
X118347000Y-104710300D02*
X118065700Y-104710300D01*
X118347000Y-103699500D02*
X119922600Y-102123900D01*
X115443000Y-107333000D02*
X115443000Y-112903000D01*
X118347000Y-103585000D02*
X118347000Y-103699500D01*
X119922600Y-102123900D02*
X119922600Y-83012700D01*
X54514900Y-56845000D02*
X54514900Y-78144800D01*
X118347000Y-88345000D02*
X118347000Y-87219700D01*
X118684700Y-82411700D02*
X116512800Y-80239800D01*
X95347600Y-80239800D02*
X93252600Y-78144800D01*
X93252600Y-78144800D02*
X54514900Y-78144800D01*
X48747000Y-56845000D02*
X54514900Y-56845000D01*
X54514900Y-78144800D02*
X51014200Y-78144800D01*
X118347000Y-87219700D02*
X118684700Y-86882000D01*
X54514900Y-56845000D02*
X55247000Y-56845000D01*
X118684700Y-86882000D02*
X118684700Y-82411700D01*
X116512800Y-80239800D02*
X95347600Y-80239800D01*
X51014200Y-78144800D02*
X47498000Y-81661000D01*
X117221600Y-86920500D02*
X118178300Y-85963800D01*
X110641100Y-102575700D02*
X110727000Y-102575700D01*
X119472300Y-90415300D02*
X118527400Y-89470400D01*
X110727000Y-97090300D02*
X110445600Y-97090300D01*
X110727000Y-95965000D02*
X110727000Y-97090300D01*
X110445600Y-97090300D02*
X109601700Y-97934200D01*
X119472300Y-98999000D02*
X119472300Y-90415300D01*
X118527400Y-89470400D02*
X117384800Y-89470400D01*
X118178300Y-82621800D02*
X116246600Y-80690100D01*
X95161000Y-80690100D02*
X93066000Y-78595100D01*
X109601700Y-101536300D02*
X110641100Y-102575700D01*
X118566000Y-99905300D02*
X119472300Y-98999000D01*
X110727000Y-103585000D02*
X110727000Y-102661600D01*
X93066000Y-78595100D02*
X56278900Y-78595100D01*
X113861300Y-102575700D02*
X116531700Y-99905300D01*
X110727000Y-102575700D02*
X110727000Y-102661600D01*
X109601700Y-97934200D02*
X109601700Y-101536300D01*
X56278900Y-78595100D02*
X53467000Y-81407000D01*
X116531700Y-99905300D02*
X118566000Y-99905300D01*
X116246600Y-80690100D02*
X95161000Y-80690100D01*
X118178300Y-85963800D02*
X118178300Y-82621800D01*
X110727000Y-102575700D02*
X113861300Y-102575700D01*
X117384800Y-89470400D02*
X117221600Y-89307200D01*
X117221600Y-89307200D02*
X117221600Y-86920500D01*
G04 #@! TA.AperFunction,Conductor*
G36*
X97063621Y-44190502D02*
G01*
X97110114Y-44244158D01*
X97121500Y-44296500D01*
X97121500Y-56114867D01*
X97119398Y-56125435D01*
X97119399Y-56144999D01*
X97121498Y-56150067D01*
X97121499Y-56150072D01*
X97121500Y-56150072D01*
X97127483Y-56164517D01*
X97147000Y-56172601D01*
X97166575Y-56172601D01*
X97177137Y-56170500D01*
X122995500Y-56170500D01*
X123063621Y-56190502D01*
X123110114Y-56244158D01*
X123121500Y-56296500D01*
X123121500Y-65493500D01*
X123101498Y-65561621D01*
X123047842Y-65608114D01*
X122995500Y-65619500D01*
X122937774Y-65619500D01*
X122521106Y-65658110D01*
X122521102Y-65658110D01*
X122521099Y-65658111D01*
X122109778Y-65734999D01*
X122109770Y-65735001D01*
X121707299Y-65849516D01*
X121317106Y-66000676D01*
X120942511Y-66187203D01*
X120586760Y-66407474D01*
X120586745Y-66407484D01*
X120252815Y-66659656D01*
X120252808Y-66659661D01*
X119943569Y-66941569D01*
X119661661Y-67250808D01*
X119661656Y-67250815D01*
X119409484Y-67584745D01*
X119409474Y-67584760D01*
X119189203Y-67940511D01*
X119002676Y-68315106D01*
X118851516Y-68705299D01*
X118737001Y-69107770D01*
X118736999Y-69107778D01*
X118660111Y-69519099D01*
X118660110Y-69519106D01*
X118621500Y-69935774D01*
X118621500Y-70354226D01*
X118660110Y-70770894D01*
X118660111Y-70770900D01*
X118736999Y-71182221D01*
X118737001Y-71182229D01*
X118790287Y-71369505D01*
X118851516Y-71584701D01*
X119002678Y-71974897D01*
X119189199Y-72349481D01*
X119189201Y-72349485D01*
X119189203Y-72349488D01*
X119409474Y-72705239D01*
X119409484Y-72705254D01*
X119661656Y-73039184D01*
X119661661Y-73039191D01*
X119943569Y-73348430D01*
X120252808Y-73630338D01*
X120252811Y-73630340D01*
X120586743Y-73882514D01*
X120586745Y-73882515D01*
X120586760Y-73882525D01*
X120694601Y-73949297D01*
X120942519Y-74102801D01*
X121317103Y-74289322D01*
X121707299Y-74440484D01*
X122022662Y-74530213D01*
X122109770Y-74554998D01*
X122109778Y-74555000D01*
X122521106Y-74631890D01*
X122937774Y-74670500D01*
X122995500Y-74670500D01*
X123063621Y-74690502D01*
X123110114Y-74744158D01*
X123121500Y-74796500D01*
X123121500Y-77839928D01*
X123121501Y-83439929D01*
X123121501Y-94839928D01*
X123121500Y-100451927D01*
X123121500Y-115493500D01*
X123101498Y-115561621D01*
X123047842Y-115608114D01*
X122995500Y-115619500D01*
X122937774Y-115619500D01*
X122521106Y-115658110D01*
X122521102Y-115658110D01*
X122521099Y-115658111D01*
X122109778Y-115734999D01*
X122109770Y-115735001D01*
X121707299Y-115849516D01*
X121317106Y-116000676D01*
X120942511Y-116187203D01*
X120586760Y-116407474D01*
X120586745Y-116407484D01*
X120252815Y-116659656D01*
X120252808Y-116659661D01*
X119943569Y-116941569D01*
X119661661Y-117250808D01*
X119661656Y-117250815D01*
X119409484Y-117584745D01*
X119409474Y-117584760D01*
X119189203Y-117940511D01*
X119002676Y-118315106D01*
X118851516Y-118705299D01*
X118737001Y-119107770D01*
X118736999Y-119107778D01*
X118675391Y-119437358D01*
X118660110Y-119519106D01*
X118621500Y-119935774D01*
X118621500Y-120354226D01*
X118651698Y-120680111D01*
X118660111Y-120770900D01*
X118736999Y-121182221D01*
X118737001Y-121182229D01*
X118790287Y-121369505D01*
X118851516Y-121584701D01*
X119002678Y-121974897D01*
X119189199Y-122349481D01*
X119189201Y-122349485D01*
X119189203Y-122349488D01*
X119409474Y-122705239D01*
X119409484Y-122705254D01*
X119661656Y-123039184D01*
X119661661Y-123039191D01*
X119943569Y-123348430D01*
X120252808Y-123630338D01*
X120252811Y-123630340D01*
X120586743Y-123882514D01*
X120586745Y-123882515D01*
X120586760Y-123882525D01*
X120694601Y-123949297D01*
X120942519Y-124102801D01*
X121317103Y-124289322D01*
X121707299Y-124440484D01*
X122022662Y-124530213D01*
X122109770Y-124554998D01*
X122109778Y-124555000D01*
X122521106Y-124631890D01*
X122937774Y-124670500D01*
X122995500Y-124670500D01*
X123063621Y-124690502D01*
X123110114Y-124744158D01*
X123121500Y-124796500D01*
X123121500Y-132019000D01*
X123101498Y-132087121D01*
X123047842Y-132133614D01*
X122995500Y-132145000D01*
X111664500Y-132145000D01*
X111596379Y-132124998D01*
X111549886Y-132071342D01*
X111538500Y-132019000D01*
X111538500Y-126089524D01*
X111558502Y-126021403D01*
X111570858Y-126005220D01*
X111644040Y-125923944D01*
X111739527Y-125758556D01*
X111798542Y-125576928D01*
X111818504Y-125387000D01*
X111798542Y-125197072D01*
X111739527Y-125015444D01*
X111644040Y-124850056D01*
X111644038Y-124850054D01*
X111644034Y-124850048D01*
X111516255Y-124708135D01*
X111361752Y-124595882D01*
X111187288Y-124518206D01*
X111000487Y-124478500D01*
X110809513Y-124478500D01*
X110622711Y-124518206D01*
X110448247Y-124595882D01*
X110293744Y-124708135D01*
X110165965Y-124850048D01*
X110165958Y-124850058D01*
X110070476Y-125015438D01*
X110070473Y-125015445D01*
X110011457Y-125197072D01*
X109991496Y-125387000D01*
X110011457Y-125576927D01*
X110041526Y-125669470D01*
X110070473Y-125758556D01*
X110165960Y-125923944D01*
X110239137Y-126005215D01*
X110269853Y-126069220D01*
X110271500Y-126089524D01*
X110271500Y-132019000D01*
X110251498Y-132087121D01*
X110197842Y-132133614D01*
X110145500Y-132145000D01*
X105431100Y-132145000D01*
X105362979Y-132124998D01*
X105316486Y-132071342D01*
X105305100Y-132019000D01*
X105305100Y-114379500D01*
X105325102Y-114311379D01*
X105378758Y-114264886D01*
X105431100Y-114253500D01*
X106645632Y-114253500D01*
X106645638Y-114253500D01*
X106645645Y-114253499D01*
X106645649Y-114253499D01*
X106706196Y-114246990D01*
X106706199Y-114246989D01*
X106706201Y-114246989D01*
X106843204Y-114195889D01*
X106865389Y-114179282D01*
X106960261Y-114108261D01*
X107047887Y-113991207D01*
X107047887Y-113991206D01*
X107047889Y-113991204D01*
X107098989Y-113854201D01*
X107103505Y-113812201D01*
X107105499Y-113793649D01*
X107105500Y-113793632D01*
X107105500Y-112096367D01*
X107105499Y-112096350D01*
X107098990Y-112035803D01*
X107098988Y-112035795D01*
X107062811Y-111938804D01*
X107047889Y-111898796D01*
X107047888Y-111898794D01*
X107047887Y-111898792D01*
X106960261Y-111781738D01*
X106945479Y-111770673D01*
X106902932Y-111713837D01*
X106897867Y-111643022D01*
X106931891Y-111580712D01*
X107790660Y-110721943D01*
X107803098Y-110711980D01*
X107802910Y-110711753D01*
X107809016Y-110706701D01*
X107809015Y-110706701D01*
X107809018Y-110706700D01*
X107855662Y-110657027D01*
X107858352Y-110654251D01*
X107878135Y-110634470D01*
X107880614Y-110631273D01*
X107888311Y-110622259D01*
X107918586Y-110590021D01*
X107928346Y-110572265D01*
X107939195Y-110555750D01*
X107951614Y-110539741D01*
X107969179Y-110499146D01*
X107974384Y-110488521D01*
X107995695Y-110449760D01*
X108000733Y-110430134D01*
X108007137Y-110411432D01*
X108015180Y-110392847D01*
X108015179Y-110392847D01*
X108015181Y-110392845D01*
X108022096Y-110349181D01*
X108024504Y-110337552D01*
X108035500Y-110294730D01*
X108035500Y-110274475D01*
X108037051Y-110254763D01*
X108040220Y-110234757D01*
X108036059Y-110190736D01*
X108035500Y-110178879D01*
X108035500Y-98498755D01*
X108037249Y-98482914D01*
X108036956Y-98482887D01*
X108037701Y-98474994D01*
X108037702Y-98474991D01*
X108035562Y-98406913D01*
X108035500Y-98402954D01*
X108035500Y-98375049D01*
X108035500Y-98375044D01*
X108034992Y-98371030D01*
X108034061Y-98359197D01*
X108033880Y-98353433D01*
X108032673Y-98315010D01*
X108027022Y-98295563D01*
X108023012Y-98276200D01*
X108022092Y-98268913D01*
X108020474Y-98256103D01*
X108004195Y-98214990D01*
X108000353Y-98203769D01*
X107988018Y-98161307D01*
X107977705Y-98143869D01*
X107969010Y-98126122D01*
X107961552Y-98107283D01*
X107935568Y-98071520D01*
X107929051Y-98061599D01*
X107906541Y-98023535D01*
X107892218Y-98009212D01*
X107879377Y-97994179D01*
X107877362Y-97991406D01*
X107867472Y-97977793D01*
X107867248Y-97977608D01*
X107833405Y-97949610D01*
X107824626Y-97941621D01*
X107199099Y-97316094D01*
X107165073Y-97253782D01*
X107170138Y-97182967D01*
X107199099Y-97137904D01*
X108499825Y-95837178D01*
X109821531Y-94515472D01*
X109883841Y-94481448D01*
X109954656Y-94486513D01*
X109982895Y-94501356D01*
X110003058Y-94515474D01*
X110070251Y-94562523D01*
X110092301Y-94572805D01*
X110109457Y-94580805D01*
X110162742Y-94627722D01*
X110182203Y-94695999D01*
X110161661Y-94763959D01*
X110109457Y-94809195D01*
X110070250Y-94827477D01*
X109882703Y-94958799D01*
X109882697Y-94958804D01*
X109720804Y-95120697D01*
X109720799Y-95120703D01*
X109589477Y-95308250D01*
X109492717Y-95515753D01*
X109492716Y-95515757D01*
X109433457Y-95736913D01*
X109413502Y-95965000D01*
X109432151Y-96178165D01*
X109433457Y-96193086D01*
X109492715Y-96414240D01*
X109492717Y-96414246D01*
X109589478Y-96621752D01*
X109705416Y-96787329D01*
X109728104Y-96854603D01*
X109710819Y-96923463D01*
X109691299Y-96948694D01*
X109213038Y-97426956D01*
X109200603Y-97436919D01*
X109200791Y-97437146D01*
X109194682Y-97442199D01*
X109148070Y-97491835D01*
X109145320Y-97494673D01*
X109125563Y-97514431D01*
X109123074Y-97517639D01*
X109115388Y-97526636D01*
X109085118Y-97558873D01*
X109085111Y-97558883D01*
X109075351Y-97576635D01*
X109064503Y-97593150D01*
X109052086Y-97609158D01*
X109034524Y-97649740D01*
X109029304Y-97660395D01*
X109008005Y-97699139D01*
X109008003Y-97699144D01*
X109002967Y-97718759D01*
X108996564Y-97737462D01*
X108988519Y-97756052D01*
X108981601Y-97799725D01*
X108979195Y-97811342D01*
X108968200Y-97854168D01*
X108968200Y-97874423D01*
X108966649Y-97894133D01*
X108963480Y-97914142D01*
X108963480Y-97914143D01*
X108966475Y-97945827D01*
X108967641Y-97958161D01*
X108968200Y-97970019D01*
X108968200Y-101452446D01*
X108966451Y-101468288D01*
X108966744Y-101468316D01*
X108965998Y-101476207D01*
X108968138Y-101544284D01*
X108968200Y-101548243D01*
X108968200Y-101576151D01*
X108968201Y-101576169D01*
X108968707Y-101580177D01*
X108969637Y-101591996D01*
X108971026Y-101636188D01*
X108971027Y-101636193D01*
X108976677Y-101655639D01*
X108980686Y-101674997D01*
X108983225Y-101695093D01*
X108983226Y-101695100D01*
X108999500Y-101736203D01*
X109003344Y-101747429D01*
X109015682Y-101789893D01*
X109025994Y-101807331D01*
X109034688Y-101825079D01*
X109042144Y-101843909D01*
X109042150Y-101843920D01*
X109068132Y-101879681D01*
X109074649Y-101889601D01*
X109097158Y-101927662D01*
X109097159Y-101927663D01*
X109097161Y-101927666D01*
X109111479Y-101941984D01*
X109124317Y-101957014D01*
X109136226Y-101973404D01*
X109136230Y-101973409D01*
X109170298Y-102001592D01*
X109179078Y-102009582D01*
X109726404Y-102556908D01*
X109760430Y-102619220D01*
X109755365Y-102690035D01*
X109726404Y-102735098D01*
X109720804Y-102740697D01*
X109720799Y-102740703D01*
X109589477Y-102928250D01*
X109492717Y-103135753D01*
X109492715Y-103135759D01*
X109433457Y-103356913D01*
X109413502Y-103585000D01*
X109433457Y-103813086D01*
X109492715Y-104034240D01*
X109492717Y-104034246D01*
X109589477Y-104241749D01*
X109715197Y-104421296D01*
X109720802Y-104429300D01*
X109882700Y-104591198D01*
X110070251Y-104722523D01*
X110090873Y-104732139D01*
X110109457Y-104740805D01*
X110162742Y-104787722D01*
X110182203Y-104855999D01*
X110161661Y-104923959D01*
X110109457Y-104969195D01*
X110070250Y-104987477D01*
X109882703Y-105118799D01*
X109882697Y-105118804D01*
X109720804Y-105280697D01*
X109720799Y-105280703D01*
X109589477Y-105468250D01*
X109492717Y-105675753D01*
X109492715Y-105675759D01*
X109433457Y-105896913D01*
X109413502Y-106125000D01*
X109433457Y-106353086D01*
X109492715Y-106574240D01*
X109492717Y-106574246D01*
X109589477Y-106781749D01*
X109718899Y-106966583D01*
X109720802Y-106969300D01*
X109882700Y-107131198D01*
X110070251Y-107262523D01*
X110277757Y-107359284D01*
X110498913Y-107418543D01*
X110727000Y-107438498D01*
X110955087Y-107418543D01*
X111176243Y-107359284D01*
X111383749Y-107262523D01*
X111571300Y-107131198D01*
X111733198Y-106969300D01*
X111864523Y-106781749D01*
X111961284Y-106574243D01*
X112020543Y-106353087D01*
X112040498Y-106125000D01*
X112020543Y-105896913D01*
X111961284Y-105675757D01*
X111864523Y-105468251D01*
X111733198Y-105280700D01*
X111571300Y-105118802D01*
X111523471Y-105085312D01*
X111393443Y-104994265D01*
X111383749Y-104987477D01*
X111344543Y-104969195D01*
X111291258Y-104922279D01*
X111271796Y-104854002D01*
X111292337Y-104786042D01*
X111344543Y-104740805D01*
X111346997Y-104739660D01*
X111383749Y-104722523D01*
X111571300Y-104591198D01*
X111733198Y-104429300D01*
X111864523Y-104241749D01*
X111961284Y-104034243D01*
X112020543Y-103813087D01*
X112040498Y-103585000D01*
X112020543Y-103356913D01*
X112020542Y-103356909D01*
X112020063Y-103351433D01*
X112021214Y-103351332D01*
X112028440Y-103286523D01*
X112073206Y-103231418D01*
X112140658Y-103209264D01*
X112144658Y-103209200D01*
X113777447Y-103209200D01*
X113793288Y-103210949D01*
X113793316Y-103210656D01*
X113801202Y-103211400D01*
X113801209Y-103211402D01*
X113869286Y-103209262D01*
X113873245Y-103209200D01*
X113901151Y-103209200D01*
X113901156Y-103209200D01*
X113905167Y-103208692D01*
X113916999Y-103207761D01*
X113961189Y-103206373D01*
X113980647Y-103200719D01*
X113999994Y-103196713D01*
X114020097Y-103194174D01*
X114061210Y-103177895D01*
X114072430Y-103174053D01*
X114097213Y-103166854D01*
X114114891Y-103161719D01*
X114114895Y-103161717D01*
X114132326Y-103151408D01*
X114150080Y-103142709D01*
X114168917Y-103135252D01*
X114204692Y-103109258D01*
X114214598Y-103102751D01*
X114252662Y-103080242D01*
X114266985Y-103065918D01*
X114282024Y-103053074D01*
X114283709Y-103051850D01*
X114298407Y-103041172D01*
X114326603Y-103007086D01*
X114334562Y-102998340D01*
X116757202Y-100575702D01*
X116819512Y-100541679D01*
X116846295Y-100538800D01*
X116963771Y-100538800D01*
X117031892Y-100558802D01*
X117078385Y-100612458D01*
X117088489Y-100682732D01*
X117085478Y-100697406D01*
X117053457Y-100816913D01*
X117033502Y-101045000D01*
X117053457Y-101273087D01*
X117072623Y-101344616D01*
X117112715Y-101494240D01*
X117112717Y-101494246D01*
X117209477Y-101701749D01*
X117325458Y-101867387D01*
X117348146Y-101934661D01*
X117330861Y-102003522D01*
X117311340Y-102028753D01*
X112554336Y-106785757D01*
X112541901Y-106795721D01*
X112542089Y-106795948D01*
X112535979Y-106801002D01*
X112489370Y-106850635D01*
X112486620Y-106853473D01*
X112466863Y-106873231D01*
X112464374Y-106876439D01*
X112456688Y-106885436D01*
X112426418Y-106917673D01*
X112426411Y-106917683D01*
X112416651Y-106935435D01*
X112405803Y-106951950D01*
X112393386Y-106967958D01*
X112375824Y-107008540D01*
X112370604Y-107019195D01*
X112349305Y-107057939D01*
X112349303Y-107057944D01*
X112344267Y-107077559D01*
X112337864Y-107096262D01*
X112329819Y-107114852D01*
X112322901Y-107158525D01*
X112320495Y-107170142D01*
X112309500Y-107212968D01*
X112309500Y-107233223D01*
X112307949Y-107252933D01*
X112306430Y-107262523D01*
X112304780Y-107272943D01*
X112305648Y-107282123D01*
X112308941Y-107316961D01*
X112309500Y-107328819D01*
X112309500Y-111683606D01*
X112289498Y-111751727D01*
X112255771Y-111786819D01*
X112098703Y-111896799D01*
X112098697Y-111896804D01*
X111936804Y-112058697D01*
X111936799Y-112058703D01*
X111805477Y-112246250D01*
X111708717Y-112453753D01*
X111708715Y-112453759D01*
X111649457Y-112674913D01*
X111629502Y-112903000D01*
X111649457Y-113131087D01*
X111668943Y-113203809D01*
X111708715Y-113352240D01*
X111708717Y-113352246D01*
X111728302Y-113394246D01*
X111805477Y-113559749D01*
X111936802Y-113747300D01*
X112098700Y-113909198D01*
X112286251Y-114040523D01*
X112493757Y-114137284D01*
X112714913Y-114196543D01*
X112943000Y-114216498D01*
X113171087Y-114196543D01*
X113392243Y-114137284D01*
X113599749Y-114040523D01*
X113787300Y-113909198D01*
X113932640Y-113763857D01*
X113994948Y-113729835D01*
X114065764Y-113734899D01*
X114122600Y-113777446D01*
X114139787Y-113808922D01*
X114192110Y-113949202D01*
X114192112Y-113949207D01*
X114279738Y-114066261D01*
X114396792Y-114153887D01*
X114396794Y-114153888D01*
X114396796Y-114153889D01*
X114455875Y-114175924D01*
X114533795Y-114204988D01*
X114533803Y-114204990D01*
X114594350Y-114211499D01*
X114594355Y-114211499D01*
X114594362Y-114211500D01*
X114594368Y-114211500D01*
X116291632Y-114211500D01*
X116291638Y-114211500D01*
X116291645Y-114211499D01*
X116291649Y-114211499D01*
X116352196Y-114204990D01*
X116352199Y-114204989D01*
X116352201Y-114204989D01*
X116489204Y-114153889D01*
X116511389Y-114137282D01*
X116606261Y-114066261D01*
X116693887Y-113949207D01*
X116693887Y-113949206D01*
X116693889Y-113949204D01*
X116744989Y-113812201D01*
X116746984Y-113793649D01*
X116751499Y-113751649D01*
X116751500Y-113751632D01*
X116751500Y-112054367D01*
X116751499Y-112054350D01*
X116744990Y-111993803D01*
X116744988Y-111993795D01*
X116708811Y-111896804D01*
X116693889Y-111856796D01*
X116693888Y-111856794D01*
X116693887Y-111856792D01*
X116606261Y-111739738D01*
X116489207Y-111652112D01*
X116489202Y-111652110D01*
X116352204Y-111601011D01*
X116352196Y-111601009D01*
X116291649Y-111594500D01*
X116291638Y-111594500D01*
X116202500Y-111594500D01*
X116134379Y-111574498D01*
X116087886Y-111520842D01*
X116076500Y-111468500D01*
X116076500Y-107647593D01*
X116096502Y-107579472D01*
X116113395Y-107558508D01*
X116980689Y-106691213D01*
X117042998Y-106657191D01*
X117113813Y-106662255D01*
X117170649Y-106704802D01*
X117183976Y-106727062D01*
X117209475Y-106781747D01*
X117339862Y-106967958D01*
X117340802Y-106969300D01*
X117502700Y-107131198D01*
X117690251Y-107262523D01*
X117897757Y-107359284D01*
X118118913Y-107418543D01*
X118347000Y-107438498D01*
X118575087Y-107418543D01*
X118796243Y-107359284D01*
X119003749Y-107262523D01*
X119191300Y-107131198D01*
X119353198Y-106969300D01*
X119484523Y-106781749D01*
X119581284Y-106574243D01*
X119640543Y-106353087D01*
X119660498Y-106125000D01*
X119640543Y-105896913D01*
X119581284Y-105675757D01*
X119484523Y-105468251D01*
X119353198Y-105280700D01*
X119191300Y-105118802D01*
X119143471Y-105085312D01*
X119013443Y-104994265D01*
X118969115Y-104938808D01*
X118961806Y-104868189D01*
X118961946Y-104867443D01*
X118964805Y-104852455D01*
X118966525Y-104844754D01*
X118980500Y-104790330D01*
X118980500Y-104790318D01*
X118980641Y-104789208D01*
X118980998Y-104788387D01*
X118982472Y-104782650D01*
X118983396Y-104782887D01*
X119009017Y-104724129D01*
X119033379Y-104701776D01*
X119191291Y-104591204D01*
X119191300Y-104591198D01*
X119353198Y-104429300D01*
X119484523Y-104241749D01*
X119581284Y-104034243D01*
X119640543Y-103813087D01*
X119660498Y-103585000D01*
X119641234Y-103364817D01*
X119655223Y-103295215D01*
X119677657Y-103264746D01*
X120311260Y-102631143D01*
X120323698Y-102621180D01*
X120323510Y-102620953D01*
X120329616Y-102615901D01*
X120329615Y-102615901D01*
X120329618Y-102615900D01*
X120376262Y-102566227D01*
X120378952Y-102563451D01*
X120398735Y-102543670D01*
X120401214Y-102540473D01*
X120408911Y-102531459D01*
X120439186Y-102499221D01*
X120448946Y-102481465D01*
X120459795Y-102464950D01*
X120472214Y-102448941D01*
X120489779Y-102408346D01*
X120494984Y-102397721D01*
X120516295Y-102358960D01*
X120521333Y-102339334D01*
X120527737Y-102320632D01*
X120535781Y-102302045D01*
X120542696Y-102258381D01*
X120545104Y-102246752D01*
X120556100Y-102203930D01*
X120556100Y-102183675D01*
X120557651Y-102163963D01*
X120560820Y-102143957D01*
X120557278Y-102106488D01*
X120556659Y-102099936D01*
X120556100Y-102088079D01*
X120556100Y-83096555D01*
X120557849Y-83080714D01*
X120557556Y-83080687D01*
X120558301Y-83072794D01*
X120558302Y-83072791D01*
X120556162Y-83004713D01*
X120556100Y-83000754D01*
X120556100Y-82972849D01*
X120556100Y-82972844D01*
X120555592Y-82968830D01*
X120554661Y-82956997D01*
X120554627Y-82955904D01*
X120553273Y-82912810D01*
X120547622Y-82893363D01*
X120543612Y-82874000D01*
X120541074Y-82853903D01*
X120538783Y-82848118D01*
X120524797Y-82812794D01*
X120520953Y-82801569D01*
X120508618Y-82759107D01*
X120498306Y-82741670D01*
X120489610Y-82723921D01*
X120482152Y-82705083D01*
X120456152Y-82669298D01*
X120449659Y-82659414D01*
X120427142Y-82621338D01*
X120412814Y-82607010D01*
X120399984Y-82591989D01*
X120388072Y-82575593D01*
X120388069Y-82575591D01*
X120388069Y-82575590D01*
X120353994Y-82547400D01*
X120345216Y-82539412D01*
X117206644Y-79400839D01*
X117196679Y-79388401D01*
X117196452Y-79388590D01*
X117191401Y-79382484D01*
X117191400Y-79382482D01*
X117141748Y-79335856D01*
X117138905Y-79333100D01*
X117119177Y-79313371D01*
X117119171Y-79313366D01*
X117115967Y-79310880D01*
X117106956Y-79303183D01*
X117074725Y-79272917D01*
X117074719Y-79272913D01*
X117056963Y-79263151D01*
X117040447Y-79252302D01*
X117024441Y-79239886D01*
X116983864Y-79222327D01*
X116973207Y-79217105D01*
X116934463Y-79195806D01*
X116934460Y-79195805D01*
X116914836Y-79190766D01*
X116896136Y-79184364D01*
X116877545Y-79176319D01*
X116877543Y-79176318D01*
X116877541Y-79176318D01*
X116833874Y-79169401D01*
X116822255Y-79166995D01*
X116779430Y-79156000D01*
X116759176Y-79156000D01*
X116739466Y-79154449D01*
X116719457Y-79151280D01*
X116675439Y-79155441D01*
X116663581Y-79156000D01*
X113224094Y-79156000D01*
X113155973Y-79135998D01*
X113109480Y-79082342D01*
X113099376Y-79012068D01*
X113128870Y-78947488D01*
X113134999Y-78940905D01*
X113789236Y-78286668D01*
X114459247Y-77616656D01*
X114521557Y-77582633D01*
X114592372Y-77587697D01*
X114620609Y-77602539D01*
X114786251Y-77718523D01*
X114993757Y-77815284D01*
X115214913Y-77874543D01*
X115443000Y-77894498D01*
X115671087Y-77874543D01*
X115892243Y-77815284D01*
X116099749Y-77718523D01*
X116287300Y-77587198D01*
X116449198Y-77425300D01*
X116580523Y-77237749D01*
X116598805Y-77198543D01*
X116645721Y-77145258D01*
X116713998Y-77125796D01*
X116781958Y-77146337D01*
X116827195Y-77198543D01*
X116845477Y-77237749D01*
X116976802Y-77425300D01*
X117138700Y-77587198D01*
X117326251Y-77718523D01*
X117533757Y-77815284D01*
X117754913Y-77874543D01*
X117983000Y-77894498D01*
X118211087Y-77874543D01*
X118432243Y-77815284D01*
X118639749Y-77718523D01*
X118827300Y-77587198D01*
X118989198Y-77425300D01*
X119120523Y-77237749D01*
X119217284Y-77030243D01*
X119276543Y-76809087D01*
X119296498Y-76581000D01*
X119276543Y-76352913D01*
X119217284Y-76131757D01*
X119120523Y-75924251D01*
X118989198Y-75736700D01*
X118827300Y-75574802D01*
X118639749Y-75443477D01*
X118584950Y-75417924D01*
X118432246Y-75346717D01*
X118432240Y-75346715D01*
X118271814Y-75303729D01*
X118211087Y-75287457D01*
X117983000Y-75267502D01*
X117754913Y-75287457D01*
X117533759Y-75346715D01*
X117533753Y-75346717D01*
X117326250Y-75443477D01*
X117138703Y-75574799D01*
X117138697Y-75574804D01*
X116976804Y-75736697D01*
X116976799Y-75736703D01*
X116845477Y-75924250D01*
X116827195Y-75963457D01*
X116780278Y-76016742D01*
X116712001Y-76036203D01*
X116644041Y-76015661D01*
X116598805Y-75963457D01*
X116589135Y-75942720D01*
X116580523Y-75924251D01*
X116449198Y-75736700D01*
X116287300Y-75574802D01*
X116099749Y-75443477D01*
X116044950Y-75417924D01*
X115892246Y-75346717D01*
X115892240Y-75346715D01*
X115731814Y-75303729D01*
X115671087Y-75287457D01*
X115443000Y-75267502D01*
X115214913Y-75287457D01*
X115109811Y-75315619D01*
X115038834Y-75313929D01*
X114980039Y-75274134D01*
X114952091Y-75208870D01*
X114951200Y-75193912D01*
X114951200Y-68713853D01*
X114952949Y-68698011D01*
X114952656Y-68697984D01*
X114953402Y-68690091D01*
X114951262Y-68622000D01*
X114951200Y-68618042D01*
X114951200Y-68590150D01*
X114951200Y-68590144D01*
X114950693Y-68586135D01*
X114949762Y-68574306D01*
X114948374Y-68530111D01*
X114942717Y-68510642D01*
X114938712Y-68491298D01*
X114936174Y-68471203D01*
X114919896Y-68430092D01*
X114916056Y-68418877D01*
X114903718Y-68376407D01*
X114893406Y-68358970D01*
X114884710Y-68341221D01*
X114877252Y-68322383D01*
X114851252Y-68286598D01*
X114844759Y-68276714D01*
X114822242Y-68238638D01*
X114807914Y-68224310D01*
X114795084Y-68209289D01*
X114783172Y-68192893D01*
X114783169Y-68192891D01*
X114783169Y-68192890D01*
X114749094Y-68164700D01*
X114740316Y-68156712D01*
X109623817Y-63040212D01*
X109589791Y-62977900D01*
X109594856Y-62907085D01*
X109632169Y-62856266D01*
X109631405Y-62855436D01*
X109635237Y-62851908D01*
X109635240Y-62851906D01*
X109787722Y-62686268D01*
X109876518Y-62550354D01*
X109930520Y-62504268D01*
X110000868Y-62494692D01*
X110065225Y-62524669D01*
X110087480Y-62550353D01*
X110120607Y-62601058D01*
X110176275Y-62686265D01*
X110176279Y-62686270D01*
X110328762Y-62851908D01*
X110383331Y-62894381D01*
X110506424Y-62990189D01*
X110704426Y-63097342D01*
X110704427Y-63097342D01*
X110704428Y-63097343D01*
X110782640Y-63124193D01*
X110917365Y-63170444D01*
X111139431Y-63207500D01*
X111139435Y-63207500D01*
X111364565Y-63207500D01*
X111364569Y-63207500D01*
X111586635Y-63170444D01*
X111799574Y-63097342D01*
X111997576Y-62990189D01*
X112175240Y-62851906D01*
X112236626Y-62785222D01*
X112297476Y-62748654D01*
X112368441Y-62750787D01*
X112426986Y-62790949D01*
X112447380Y-62826529D01*
X112491553Y-62944961D01*
X112491555Y-62944965D01*
X112579095Y-63061904D01*
X112696034Y-63149444D01*
X112832906Y-63200494D01*
X112893402Y-63206999D01*
X112893415Y-63207000D01*
X113538000Y-63207000D01*
X113538000Y-62282674D01*
X113649685Y-62333680D01*
X113756237Y-62349000D01*
X113827763Y-62349000D01*
X113934315Y-62333680D01*
X114046000Y-62282674D01*
X114046000Y-63207000D01*
X114690585Y-63207000D01*
X114690597Y-63206999D01*
X114751093Y-63200494D01*
X114887964Y-63149444D01*
X114887965Y-63149444D01*
X115004904Y-63061904D01*
X115092444Y-62944965D01*
X115092444Y-62944964D01*
X115143494Y-62808093D01*
X115149999Y-62747597D01*
X115150000Y-62747585D01*
X115150000Y-62103000D01*
X114223116Y-62103000D01*
X114251493Y-62058844D01*
X114292000Y-61920889D01*
X114292000Y-61777111D01*
X114251493Y-61639156D01*
X114223116Y-61595000D01*
X115150000Y-61595000D01*
X115150000Y-60950414D01*
X115149999Y-60950402D01*
X115143494Y-60889906D01*
X115092444Y-60753035D01*
X115092444Y-60753034D01*
X115004904Y-60636095D01*
X114887965Y-60548555D01*
X114751093Y-60497505D01*
X114690597Y-60491000D01*
X114046000Y-60491000D01*
X114046000Y-61415325D01*
X113934315Y-61364320D01*
X113827763Y-61349000D01*
X113756237Y-61349000D01*
X113649685Y-61364320D01*
X113538000Y-61415325D01*
X113538000Y-60491000D01*
X112893402Y-60491000D01*
X112832906Y-60497505D01*
X112696035Y-60548555D01*
X112696034Y-60548555D01*
X112579095Y-60636095D01*
X112491555Y-60753034D01*
X112491553Y-60753039D01*
X112447380Y-60871470D01*
X112404833Y-60928306D01*
X112338313Y-60953116D01*
X112268939Y-60938024D01*
X112236626Y-60912777D01*
X112175240Y-60846094D01*
X112175239Y-60846093D01*
X112175237Y-60846091D01*
X112055679Y-60753035D01*
X111997576Y-60707811D01*
X111799574Y-60600658D01*
X111799572Y-60600657D01*
X111799571Y-60600656D01*
X111586639Y-60527557D01*
X111586630Y-60527555D01*
X111542476Y-60520187D01*
X111364569Y-60490500D01*
X111139431Y-60490500D01*
X110991211Y-60515233D01*
X110917369Y-60527555D01*
X110917360Y-60527557D01*
X110704428Y-60600656D01*
X110704426Y-60600658D01*
X110506426Y-60707810D01*
X110506424Y-60707811D01*
X110328762Y-60846091D01*
X110176279Y-61011729D01*
X110087483Y-61147643D01*
X110033479Y-61193731D01*
X109963131Y-61203306D01*
X109898774Y-61173329D01*
X109876517Y-61147643D01*
X109787720Y-61011729D01*
X109635237Y-60846091D01*
X109515679Y-60753035D01*
X109457576Y-60707811D01*
X109259574Y-60600658D01*
X109259572Y-60600657D01*
X109259571Y-60600656D01*
X109046639Y-60527557D01*
X109046630Y-60527555D01*
X109002476Y-60520187D01*
X108824569Y-60490500D01*
X108599431Y-60490500D01*
X108451211Y-60515233D01*
X108377369Y-60527555D01*
X108377360Y-60527557D01*
X108164428Y-60600656D01*
X108164426Y-60600658D01*
X107966426Y-60707810D01*
X107966424Y-60707811D01*
X107788762Y-60846091D01*
X107636279Y-61011729D01*
X107547483Y-61147643D01*
X107493479Y-61193731D01*
X107423131Y-61203306D01*
X107358774Y-61173329D01*
X107336517Y-61147643D01*
X107247720Y-61011729D01*
X107095237Y-60846091D01*
X106975679Y-60753035D01*
X106917576Y-60707811D01*
X106719574Y-60600658D01*
X106719572Y-60600657D01*
X106719571Y-60600656D01*
X106506639Y-60527557D01*
X106506630Y-60527555D01*
X106462476Y-60520187D01*
X106284569Y-60490500D01*
X106059431Y-60490500D01*
X105911211Y-60515233D01*
X105837369Y-60527555D01*
X105837360Y-60527557D01*
X105624428Y-60600656D01*
X105624426Y-60600658D01*
X105426426Y-60707810D01*
X105426424Y-60707811D01*
X105248762Y-60846091D01*
X105096279Y-61011729D01*
X105007483Y-61147643D01*
X104953479Y-61193731D01*
X104883131Y-61203306D01*
X104818774Y-61173329D01*
X104796517Y-61147643D01*
X104707720Y-61011729D01*
X104555237Y-60846091D01*
X104435679Y-60753035D01*
X104377576Y-60707811D01*
X104179574Y-60600658D01*
X104179572Y-60600657D01*
X104179571Y-60600656D01*
X103966639Y-60527557D01*
X103966630Y-60527555D01*
X103922476Y-60520187D01*
X103744569Y-60490500D01*
X103519431Y-60490500D01*
X103371211Y-60515233D01*
X103297369Y-60527555D01*
X103297360Y-60527557D01*
X103084428Y-60600656D01*
X103084426Y-60600658D01*
X102886426Y-60707810D01*
X102886424Y-60707811D01*
X102708762Y-60846091D01*
X102556279Y-61011729D01*
X102467483Y-61147643D01*
X102413479Y-61193731D01*
X102343131Y-61203306D01*
X102278774Y-61173329D01*
X102256517Y-61147643D01*
X102167720Y-61011729D01*
X102015237Y-60846091D01*
X101895679Y-60753035D01*
X101837576Y-60707811D01*
X101639574Y-60600658D01*
X101639572Y-60600657D01*
X101639571Y-60600656D01*
X101426639Y-60527557D01*
X101426630Y-60527555D01*
X101382476Y-60520187D01*
X101204569Y-60490500D01*
X100979431Y-60490500D01*
X100831211Y-60515233D01*
X100757369Y-60527555D01*
X100757360Y-60527557D01*
X100544428Y-60600656D01*
X100544426Y-60600658D01*
X100346426Y-60707810D01*
X100346424Y-60707811D01*
X100168762Y-60846091D01*
X100016279Y-61011729D01*
X100016275Y-61011734D01*
X99920445Y-61158415D01*
X99866442Y-61204504D01*
X99814962Y-61215500D01*
X69258854Y-61215500D01*
X69243012Y-61213750D01*
X69242985Y-61214044D01*
X69235092Y-61213297D01*
X69167002Y-61215438D01*
X69163044Y-61215500D01*
X69135144Y-61215500D01*
X69135138Y-61215500D01*
X69135132Y-61215501D01*
X69131133Y-61216006D01*
X69119313Y-61216936D01*
X69075111Y-61218325D01*
X69055650Y-61223979D01*
X69036304Y-61227985D01*
X69016204Y-61230525D01*
X69016203Y-61230525D01*
X68975095Y-61246800D01*
X68963870Y-61250643D01*
X68921413Y-61262978D01*
X68921404Y-61262982D01*
X68903962Y-61273297D01*
X68886215Y-61281991D01*
X68867383Y-61289447D01*
X68867381Y-61289448D01*
X68831614Y-61315434D01*
X68821700Y-61321947D01*
X68783636Y-61344459D01*
X68783633Y-61344461D01*
X68769312Y-61358783D01*
X68754283Y-61371619D01*
X68737893Y-61383527D01*
X68709700Y-61417605D01*
X68701713Y-61426381D01*
X62871729Y-67256366D01*
X62809417Y-67290392D01*
X62782634Y-67293271D01*
X62454000Y-67293271D01*
X62428173Y-67295118D01*
X62380892Y-67298499D01*
X62380884Y-67298501D01*
X62240589Y-67339696D01*
X62240587Y-67339697D01*
X62117579Y-67418749D01*
X62021824Y-67529256D01*
X61961081Y-67662265D01*
X61961079Y-67662272D01*
X61940271Y-67806993D01*
X61940271Y-69306994D01*
X61945499Y-69380107D01*
X61945500Y-69380111D01*
X61986696Y-69520411D01*
X62065750Y-69643421D01*
X62176257Y-69739176D01*
X62309266Y-69799919D01*
X62309271Y-69799919D01*
X62309272Y-69799920D01*
X62453993Y-69820728D01*
X62453998Y-69820729D01*
X62454000Y-69820729D01*
X63454002Y-69820729D01*
X63518546Y-69816658D01*
X63518548Y-69816657D01*
X63518557Y-69816657D01*
X63564232Y-69804074D01*
X63615623Y-69800833D01*
X63753996Y-69820728D01*
X63753998Y-69820729D01*
X63754000Y-69820729D01*
X64903994Y-69820729D01*
X64904000Y-69820729D01*
X64977111Y-69815500D01*
X65117411Y-69774304D01*
X65240421Y-69695250D01*
X65259140Y-69673646D01*
X65318861Y-69635263D01*
X65389858Y-69635261D01*
X65443459Y-69667063D01*
X73072600Y-77296205D01*
X73106626Y-77358517D01*
X73101561Y-77429332D01*
X73059014Y-77486168D01*
X72992494Y-77510979D01*
X72983505Y-77511300D01*
X55274400Y-77511300D01*
X55206279Y-77491298D01*
X55159786Y-77437642D01*
X55148400Y-77385300D01*
X55148400Y-58482398D01*
X55168402Y-58414277D01*
X55222058Y-58367784D01*
X55264510Y-58356786D01*
X55483711Y-58339535D01*
X55714594Y-58284105D01*
X55933963Y-58193240D01*
X56136416Y-58069176D01*
X56316969Y-57914969D01*
X56471176Y-57734416D01*
X56595240Y-57531963D01*
X56686105Y-57312594D01*
X56741535Y-57081711D01*
X56760165Y-56845000D01*
X56741535Y-56608289D01*
X56686105Y-56377406D01*
X56595240Y-56158037D01*
X56471176Y-55955584D01*
X56471173Y-55955580D01*
X56316969Y-55775030D01*
X56136419Y-55620826D01*
X56136417Y-55620825D01*
X56136416Y-55620824D01*
X55933963Y-55496760D01*
X55714594Y-55405895D01*
X55714592Y-55405894D01*
X55556651Y-55367976D01*
X55483711Y-55350465D01*
X55247000Y-55331835D01*
X55010289Y-55350465D01*
X54779407Y-55405894D01*
X54560038Y-55496759D01*
X54357582Y-55620825D01*
X54357580Y-55620826D01*
X54177030Y-55775030D01*
X54022826Y-55955580D01*
X54022825Y-55955582D01*
X54022824Y-55955584D01*
X53902865Y-56151337D01*
X53850220Y-56198966D01*
X53795435Y-56211500D01*
X50198565Y-56211500D01*
X50130444Y-56191498D01*
X50091134Y-56151337D01*
X49971176Y-55955584D01*
X49971173Y-55955580D01*
X49816969Y-55775030D01*
X49636419Y-55620826D01*
X49636417Y-55620825D01*
X49636416Y-55620824D01*
X49433963Y-55496760D01*
X49214594Y-55405895D01*
X49214592Y-55405894D01*
X49056651Y-55367976D01*
X48983711Y-55350465D01*
X48747000Y-55331835D01*
X48510289Y-55350465D01*
X48279407Y-55405894D01*
X48060038Y-55496759D01*
X47857582Y-55620825D01*
X47857580Y-55620826D01*
X47677030Y-55775030D01*
X47522826Y-55955580D01*
X47522825Y-55955582D01*
X47398759Y-56158038D01*
X47307894Y-56377407D01*
X47252465Y-56608289D01*
X47233835Y-56845000D01*
X47252465Y-57081710D01*
X47307894Y-57312592D01*
X47398759Y-57531961D01*
X47522825Y-57734417D01*
X47522826Y-57734419D01*
X47677030Y-57914969D01*
X47857580Y-58069173D01*
X47857584Y-58069176D01*
X48060037Y-58193240D01*
X48279406Y-58284105D01*
X48510289Y-58339535D01*
X48747000Y-58358165D01*
X48983711Y-58339535D01*
X49214594Y-58284105D01*
X49433963Y-58193240D01*
X49636416Y-58069176D01*
X49816969Y-57914969D01*
X49971176Y-57734416D01*
X50091134Y-57538662D01*
X50143780Y-57491034D01*
X50198565Y-57478500D01*
X53755400Y-57478500D01*
X53823521Y-57498502D01*
X53870014Y-57552158D01*
X53881400Y-57604500D01*
X53881400Y-77385300D01*
X53861398Y-77453421D01*
X53807742Y-77499914D01*
X53755400Y-77511300D01*
X51098054Y-77511300D01*
X51082212Y-77509550D01*
X51082185Y-77509844D01*
X51074292Y-77509097D01*
X51006202Y-77511238D01*
X51002244Y-77511300D01*
X50974344Y-77511300D01*
X50974338Y-77511300D01*
X50974332Y-77511301D01*
X50970333Y-77511806D01*
X50958513Y-77512736D01*
X50914314Y-77514125D01*
X50914307Y-77514127D01*
X50894849Y-77519779D01*
X50875504Y-77523785D01*
X50855406Y-77526325D01*
X50855398Y-77526327D01*
X50814290Y-77542602D01*
X50803066Y-77546445D01*
X50760609Y-77558781D01*
X50743164Y-77569097D01*
X50725418Y-77577790D01*
X50706582Y-77585248D01*
X50670810Y-77611237D01*
X50660894Y-77617751D01*
X50622837Y-77640258D01*
X50608511Y-77654584D01*
X50593485Y-77667417D01*
X50577095Y-77679325D01*
X50577093Y-77679327D01*
X50548900Y-77713405D01*
X50540913Y-77722181D01*
X47870421Y-80392672D01*
X47808109Y-80426698D01*
X47748716Y-80425284D01*
X47717371Y-80416885D01*
X47498000Y-80397693D01*
X47278629Y-80416885D01*
X47065926Y-80473879D01*
X47065920Y-80473881D01*
X46866346Y-80566944D01*
X46685965Y-80693248D01*
X46685959Y-80693253D01*
X46530253Y-80848959D01*
X46530248Y-80848965D01*
X46403944Y-81029346D01*
X46310881Y-81228920D01*
X46310879Y-81228926D01*
X46263164Y-81407000D01*
X46253885Y-81441629D01*
X46234693Y-81661000D01*
X46253885Y-81880371D01*
X46271996Y-81947960D01*
X46310879Y-82093073D01*
X46310881Y-82093079D01*
X46369618Y-82219042D01*
X46403944Y-82292654D01*
X46498780Y-82428093D01*
X46530251Y-82473038D01*
X46530254Y-82473042D01*
X46685957Y-82628745D01*
X46685961Y-82628748D01*
X46685962Y-82628749D01*
X46866346Y-82755056D01*
X47065924Y-82848120D01*
X47278629Y-82905115D01*
X47498000Y-82924307D01*
X47717371Y-82905115D01*
X47930076Y-82848120D01*
X48129654Y-82755056D01*
X48310038Y-82628749D01*
X48465749Y-82473038D01*
X48592056Y-82292654D01*
X48685120Y-82093076D01*
X48742115Y-81880371D01*
X48761307Y-81661000D01*
X48742115Y-81441629D01*
X48733715Y-81410281D01*
X48735403Y-81339309D01*
X48766322Y-81288580D01*
X51239702Y-78815202D01*
X51302012Y-78781179D01*
X51328795Y-78778300D01*
X54434870Y-78778300D01*
X54443106Y-78778300D01*
X54466716Y-78780531D01*
X54474806Y-78782075D01*
X54530852Y-78778548D01*
X54538762Y-78778300D01*
X54895606Y-78778300D01*
X54963727Y-78798302D01*
X55010220Y-78851958D01*
X55020324Y-78922232D01*
X54990830Y-78986812D01*
X54984716Y-78993379D01*
X54100824Y-79877271D01*
X53839422Y-80138673D01*
X53777110Y-80172698D01*
X53717718Y-80171284D01*
X53686372Y-80162885D01*
X53467000Y-80143693D01*
X53247629Y-80162885D01*
X53034926Y-80219879D01*
X53034920Y-80219881D01*
X52835346Y-80312944D01*
X52654965Y-80439248D01*
X52654959Y-80439253D01*
X52499253Y-80594959D01*
X52499248Y-80594965D01*
X52372944Y-80775346D01*
X52279881Y-80974920D01*
X52279879Y-80974926D01*
X52247909Y-81094240D01*
X52222885Y-81187629D01*
X52203693Y-81407000D01*
X52222885Y-81626371D01*
X52251055Y-81731502D01*
X52279879Y-81839073D01*
X52279881Y-81839079D01*
X52371443Y-82035435D01*
X52372944Y-82038654D01*
X52473179Y-82181804D01*
X52499251Y-82219038D01*
X52499254Y-82219042D01*
X52654957Y-82374745D01*
X52654961Y-82374748D01*
X52654962Y-82374749D01*
X52835346Y-82501056D01*
X53034924Y-82594120D01*
X53247629Y-82651115D01*
X53467000Y-82670307D01*
X53686371Y-82651115D01*
X53899076Y-82594120D01*
X54098654Y-82501056D01*
X54279038Y-82374749D01*
X54434749Y-82219038D01*
X54561056Y-82038654D01*
X54654120Y-81839076D01*
X54711115Y-81626371D01*
X54730307Y-81407000D01*
X54711115Y-81187629D01*
X54702715Y-81156281D01*
X54704403Y-81085311D01*
X54735324Y-81034578D01*
X56504401Y-79265504D01*
X56566713Y-79231479D01*
X56593496Y-79228600D01*
X60695705Y-79228600D01*
X60763826Y-79248602D01*
X60810319Y-79302258D01*
X60820423Y-79372532D01*
X60790929Y-79437112D01*
X60784800Y-79443695D01*
X53081453Y-87147040D01*
X53024972Y-87179651D01*
X53012926Y-87182878D01*
X52813346Y-87275944D01*
X52632965Y-87402248D01*
X52632959Y-87402253D01*
X52477253Y-87557959D01*
X52477248Y-87557965D01*
X52350944Y-87738346D01*
X52257881Y-87937920D01*
X52257879Y-87937926D01*
X52206762Y-88128697D01*
X52200885Y-88150629D01*
X52181693Y-88370000D01*
X52200885Y-88589371D01*
X52226537Y-88685105D01*
X52257879Y-88802073D01*
X52257881Y-88802079D01*
X52347220Y-88993668D01*
X52350944Y-89001654D01*
X52414139Y-89091905D01*
X52468133Y-89169017D01*
X52477251Y-89182038D01*
X52632962Y-89337749D01*
X52632965Y-89337751D01*
X52632970Y-89337755D01*
X52757770Y-89425141D01*
X52802099Y-89480598D01*
X52811500Y-89528354D01*
X52811500Y-131762846D01*
X52809751Y-131778688D01*
X52810044Y-131778716D01*
X52809298Y-131786607D01*
X52811438Y-131854684D01*
X52811500Y-131858643D01*
X52811500Y-131886551D01*
X52811501Y-131886569D01*
X52812007Y-131890577D01*
X52812937Y-131902396D01*
X52814326Y-131946588D01*
X52814327Y-131946593D01*
X52819977Y-131966039D01*
X52823986Y-131985398D01*
X52826236Y-132003207D01*
X52814931Y-132073297D01*
X52767526Y-132126149D01*
X52701230Y-132145000D01*
X43298500Y-132145000D01*
X43230379Y-132124998D01*
X43183886Y-132071342D01*
X43172500Y-132019000D01*
X43172500Y-124796500D01*
X43192502Y-124728379D01*
X43246158Y-124681886D01*
X43298500Y-124670500D01*
X43356219Y-124670500D01*
X43356226Y-124670500D01*
X43772894Y-124631890D01*
X44184222Y-124555000D01*
X44586701Y-124440484D01*
X44976897Y-124289322D01*
X45351481Y-124102801D01*
X45707257Y-123882514D01*
X46041189Y-123630340D01*
X46350430Y-123348430D01*
X46632340Y-123039189D01*
X46884514Y-122705257D01*
X47104801Y-122349481D01*
X47291322Y-121974897D01*
X47442484Y-121584701D01*
X47557000Y-121182222D01*
X47633890Y-120770894D01*
X47672500Y-120354226D01*
X47672500Y-119935774D01*
X47633890Y-119519106D01*
X47557000Y-119107778D01*
X47442484Y-118705299D01*
X47291322Y-118315103D01*
X47104801Y-117940519D01*
X47056085Y-117861840D01*
X46884525Y-117584760D01*
X46884515Y-117584745D01*
X46884514Y-117584743D01*
X46632340Y-117250811D01*
X46632338Y-117250808D01*
X46350430Y-116941569D01*
X46041191Y-116659661D01*
X46041184Y-116659656D01*
X45707254Y-116407484D01*
X45707239Y-116407474D01*
X45351488Y-116187203D01*
X45351485Y-116187201D01*
X45351481Y-116187199D01*
X44976897Y-116000678D01*
X44976893Y-116000676D01*
X44708686Y-115896773D01*
X44586701Y-115849516D01*
X44496970Y-115823985D01*
X44184229Y-115735001D01*
X44184221Y-115734999D01*
X43772900Y-115658111D01*
X43772898Y-115658110D01*
X43772894Y-115658110D01*
X43356226Y-115619500D01*
X43356219Y-115619500D01*
X43298500Y-115619500D01*
X43230379Y-115599498D01*
X43183886Y-115545842D01*
X43172500Y-115493500D01*
X43172500Y-88370000D01*
X46234693Y-88370000D01*
X46253885Y-88589371D01*
X46279537Y-88685105D01*
X46310879Y-88802073D01*
X46310881Y-88802079D01*
X46400220Y-88993668D01*
X46403944Y-89001654D01*
X46510954Y-89154479D01*
X46530251Y-89182038D01*
X46530254Y-89182042D01*
X46685957Y-89337745D01*
X46685961Y-89337748D01*
X46685962Y-89337749D01*
X46866346Y-89464056D01*
X47065924Y-89557120D01*
X47278629Y-89614115D01*
X47498000Y-89633307D01*
X47717371Y-89614115D01*
X47930076Y-89557120D01*
X48129654Y-89464056D01*
X48310038Y-89337749D01*
X48465749Y-89182038D01*
X48592056Y-89001654D01*
X48685120Y-88802076D01*
X48742115Y-88589371D01*
X48761307Y-88370000D01*
X48742115Y-88150629D01*
X48685120Y-87937924D01*
X48592056Y-87738347D01*
X48465749Y-87557962D01*
X48310038Y-87402251D01*
X48295959Y-87392393D01*
X48259630Y-87366955D01*
X48129654Y-87275944D01*
X48090969Y-87257905D01*
X47930079Y-87182881D01*
X47930073Y-87182879D01*
X47840178Y-87158791D01*
X47717371Y-87125885D01*
X47498000Y-87106693D01*
X47278629Y-87125885D01*
X47065926Y-87182879D01*
X47065920Y-87182881D01*
X46866346Y-87275944D01*
X46685965Y-87402248D01*
X46685959Y-87402253D01*
X46530253Y-87557959D01*
X46530248Y-87557965D01*
X46403944Y-87738346D01*
X46310881Y-87937920D01*
X46310879Y-87937926D01*
X46259762Y-88128697D01*
X46253885Y-88150629D01*
X46234693Y-88370000D01*
X43172500Y-88370000D01*
X43172500Y-74796500D01*
X43192502Y-74728379D01*
X43246158Y-74681886D01*
X43298500Y-74670500D01*
X43356219Y-74670500D01*
X43356226Y-74670500D01*
X43772894Y-74631890D01*
X44184222Y-74555000D01*
X44586701Y-74440484D01*
X44976897Y-74289322D01*
X45351481Y-74102801D01*
X45707257Y-73882514D01*
X46041189Y-73630340D01*
X46350430Y-73348430D01*
X46632340Y-73039189D01*
X46884514Y-72705257D01*
X47104801Y-72349481D01*
X47291322Y-71974897D01*
X47442484Y-71584701D01*
X47557000Y-71182222D01*
X47633890Y-70770894D01*
X47672500Y-70354226D01*
X47672500Y-69935774D01*
X47633890Y-69519106D01*
X47557000Y-69107778D01*
X47442484Y-68705299D01*
X47291322Y-68315103D01*
X47104801Y-67940519D01*
X46932518Y-67662272D01*
X46884525Y-67584760D01*
X46884515Y-67584745D01*
X46884514Y-67584743D01*
X46632340Y-67250811D01*
X46632338Y-67250808D01*
X46350430Y-66941569D01*
X46041191Y-66659661D01*
X46041184Y-66659656D01*
X45707254Y-66407484D01*
X45707239Y-66407474D01*
X45351488Y-66187203D01*
X45351485Y-66187201D01*
X45351481Y-66187199D01*
X44976897Y-66000678D01*
X44976893Y-66000676D01*
X44767126Y-65919412D01*
X44586701Y-65849516D01*
X44496970Y-65823985D01*
X44184229Y-65735001D01*
X44184221Y-65734999D01*
X43772900Y-65658111D01*
X43772898Y-65658110D01*
X43772894Y-65658110D01*
X43356226Y-65619500D01*
X43356219Y-65619500D01*
X43298500Y-65619500D01*
X43230379Y-65599498D01*
X43183886Y-65545842D01*
X43172500Y-65493500D01*
X43172500Y-52345000D01*
X47233835Y-52345000D01*
X47252465Y-52581710D01*
X47307894Y-52812592D01*
X47398759Y-53031961D01*
X47522825Y-53234417D01*
X47522826Y-53234419D01*
X47677030Y-53414969D01*
X47857580Y-53569173D01*
X47857584Y-53569176D01*
X48060037Y-53693240D01*
X48279406Y-53784105D01*
X48510289Y-53839535D01*
X48747000Y-53858165D01*
X48983711Y-53839535D01*
X49214594Y-53784105D01*
X49433963Y-53693240D01*
X49636416Y-53569176D01*
X49816969Y-53414969D01*
X49971176Y-53234416D01*
X50091134Y-53038662D01*
X50143780Y-52991034D01*
X50198565Y-52978500D01*
X53795435Y-52978500D01*
X53863556Y-52998502D01*
X53902865Y-53038662D01*
X54022824Y-53234416D01*
X54022825Y-53234417D01*
X54022826Y-53234419D01*
X54177030Y-53414969D01*
X54357580Y-53569173D01*
X54357584Y-53569176D01*
X54560037Y-53693240D01*
X54779406Y-53784105D01*
X55010289Y-53839535D01*
X55247000Y-53858165D01*
X55483711Y-53839535D01*
X55714594Y-53784105D01*
X55933963Y-53693240D01*
X56136416Y-53569176D01*
X56316969Y-53414969D01*
X56471176Y-53234416D01*
X56595240Y-53031963D01*
X56686105Y-52812594D01*
X56741535Y-52581711D01*
X56760165Y-52345000D01*
X56741535Y-52108289D01*
X56686105Y-51877406D01*
X56595240Y-51658037D01*
X56471176Y-51455584D01*
X56471173Y-51455580D01*
X56316969Y-51275030D01*
X56136419Y-51120826D01*
X56136417Y-51120825D01*
X56136416Y-51120824D01*
X55933963Y-50996760D01*
X55714594Y-50905895D01*
X55714592Y-50905894D01*
X55556651Y-50867976D01*
X55483711Y-50850465D01*
X55247000Y-50831835D01*
X55010289Y-50850465D01*
X54779407Y-50905894D01*
X54560038Y-50996759D01*
X54357582Y-51120825D01*
X54357580Y-51120826D01*
X54177030Y-51275030D01*
X54022826Y-51455580D01*
X54022825Y-51455582D01*
X54022824Y-51455584D01*
X53902865Y-51651337D01*
X53850220Y-51698966D01*
X53795435Y-51711500D01*
X50198565Y-51711500D01*
X50130444Y-51691498D01*
X50091134Y-51651337D01*
X49971176Y-51455584D01*
X49971173Y-51455580D01*
X49816969Y-51275030D01*
X49636419Y-51120826D01*
X49636417Y-51120825D01*
X49636416Y-51120824D01*
X49433963Y-50996760D01*
X49214594Y-50905895D01*
X49214592Y-50905894D01*
X49056651Y-50867976D01*
X48983711Y-50850465D01*
X48747000Y-50831835D01*
X48510289Y-50850465D01*
X48279407Y-50905894D01*
X48060038Y-50996759D01*
X47857582Y-51120825D01*
X47857580Y-51120826D01*
X47677030Y-51275030D01*
X47522826Y-51455580D01*
X47522825Y-51455582D01*
X47398759Y-51658038D01*
X47307894Y-51877407D01*
X47252465Y-52108289D01*
X47233835Y-52345000D01*
X43172500Y-52345000D01*
X43172500Y-44296500D01*
X43192502Y-44228379D01*
X43246158Y-44181886D01*
X43298500Y-44170500D01*
X83141928Y-44170500D01*
X96995500Y-44170500D01*
X97063621Y-44190502D01*
G37*
G04 #@! TD.AperFunction*
G04 #@! TA.AperFunction,Conductor*
G36*
X80552094Y-79699002D02*
G01*
X80598587Y-79752658D01*
X80608691Y-79822932D01*
X80587186Y-79877271D01*
X80509477Y-79988250D01*
X80412717Y-80195753D01*
X80412715Y-80195759D01*
X80364718Y-80374885D01*
X80353457Y-80416913D01*
X80333502Y-80645000D01*
X80353457Y-80873087D01*
X80361722Y-80903931D01*
X80412715Y-81094240D01*
X80412717Y-81094246D01*
X80509477Y-81301749D01*
X80550618Y-81360505D01*
X80640802Y-81489300D01*
X80802700Y-81651198D01*
X80990251Y-81782523D01*
X81197757Y-81879284D01*
X81418913Y-81938543D01*
X81647000Y-81958498D01*
X81875087Y-81938543D01*
X82096243Y-81879284D01*
X82303749Y-81782523D01*
X82491300Y-81651198D01*
X82653198Y-81489300D01*
X82784523Y-81301749D01*
X82881284Y-81094243D01*
X82940543Y-80873087D01*
X82960498Y-80645000D01*
X82940543Y-80416913D01*
X82881284Y-80195757D01*
X82784523Y-79988251D01*
X82706814Y-79877271D01*
X82684126Y-79809997D01*
X82701411Y-79741136D01*
X82753181Y-79692552D01*
X82810027Y-79679000D01*
X85484584Y-79679000D01*
X85552705Y-79699002D01*
X85599198Y-79752658D01*
X85609302Y-79822932D01*
X85587797Y-79877271D01*
X85509912Y-79988501D01*
X85413188Y-80195926D01*
X85413186Y-80195931D01*
X85353951Y-80416997D01*
X85334004Y-80645000D01*
X85353951Y-80873002D01*
X85413186Y-81094068D01*
X85413188Y-81094073D01*
X85509913Y-81301501D01*
X85559898Y-81372888D01*
X85559900Y-81372888D01*
X86248272Y-80684516D01*
X86261835Y-80770148D01*
X86319359Y-80883045D01*
X86408955Y-80972641D01*
X86521852Y-81030165D01*
X86607482Y-81043727D01*
X85919110Y-81732098D01*
X85919110Y-81732100D01*
X85990498Y-81782086D01*
X86197926Y-81878811D01*
X86197931Y-81878813D01*
X86418999Y-81938048D01*
X86418995Y-81938048D01*
X86647000Y-81957995D01*
X86875002Y-81938048D01*
X87096068Y-81878813D01*
X87096073Y-81878811D01*
X87303497Y-81782088D01*
X87374888Y-81732099D01*
X87374888Y-81732097D01*
X86686518Y-81043727D01*
X86772148Y-81030165D01*
X86885045Y-80972641D01*
X86974641Y-80883045D01*
X87032165Y-80770148D01*
X87045727Y-80684518D01*
X87734097Y-81372888D01*
X87734099Y-81372888D01*
X87784088Y-81301497D01*
X87880811Y-81094073D01*
X87880813Y-81094068D01*
X87940048Y-80873002D01*
X87959995Y-80645000D01*
X87940048Y-80416997D01*
X87880813Y-80195931D01*
X87880811Y-80195926D01*
X87784087Y-79988501D01*
X87706203Y-79877271D01*
X87683515Y-79809997D01*
X87700800Y-79741137D01*
X87752569Y-79692552D01*
X87809416Y-79679000D01*
X92564906Y-79679000D01*
X92633027Y-79699002D01*
X92654001Y-79715905D01*
X94886055Y-81947960D01*
X94896020Y-81960397D01*
X94896247Y-81960210D01*
X94901299Y-81966317D01*
X94901300Y-81966318D01*
X94947282Y-82009498D01*
X94950949Y-82012941D01*
X94953793Y-82015698D01*
X94973523Y-82035429D01*
X94973524Y-82035430D01*
X94973528Y-82035433D01*
X94973530Y-82035435D01*
X94976735Y-82037921D01*
X94985742Y-82045614D01*
X95017979Y-82075886D01*
X95035728Y-82085643D01*
X95052253Y-82096498D01*
X95068259Y-82108914D01*
X95108842Y-82126475D01*
X95119493Y-82131693D01*
X95158240Y-82152995D01*
X95158248Y-82152997D01*
X95177858Y-82158032D01*
X95196567Y-82164437D01*
X95215155Y-82172481D01*
X95258830Y-82179398D01*
X95270425Y-82181798D01*
X95313270Y-82192800D01*
X95313273Y-82192800D01*
X95319387Y-82194370D01*
X95380392Y-82230686D01*
X95381686Y-82232101D01*
X95387147Y-82238166D01*
X95541648Y-82350418D01*
X95716112Y-82428094D01*
X95902913Y-82467800D01*
X96093887Y-82467800D01*
X96280688Y-82428094D01*
X96455152Y-82350418D01*
X96609653Y-82238166D01*
X96616388Y-82230686D01*
X96737434Y-82096251D01*
X96737435Y-82096249D01*
X96737440Y-82096244D01*
X96832927Y-81930856D01*
X96891942Y-81749228D01*
X96911904Y-81559300D01*
X96901758Y-81462769D01*
X96914530Y-81392932D01*
X96963032Y-81341086D01*
X97027068Y-81323600D01*
X115932006Y-81323600D01*
X116000127Y-81343602D01*
X116021101Y-81360505D01*
X116368940Y-81708344D01*
X116402966Y-81770656D01*
X116397901Y-81841471D01*
X116355354Y-81898307D01*
X116342861Y-81906549D01*
X116340507Y-81907908D01*
X116269109Y-81957899D01*
X116957483Y-82646272D01*
X116871852Y-82659835D01*
X116758955Y-82717359D01*
X116669359Y-82806955D01*
X116611835Y-82919852D01*
X116598272Y-83005481D01*
X115909900Y-82317109D01*
X115859913Y-82388500D01*
X115763188Y-82595926D01*
X115763186Y-82595931D01*
X115703951Y-82816997D01*
X115684004Y-83045000D01*
X115703951Y-83273002D01*
X115763186Y-83494068D01*
X115763188Y-83494073D01*
X115859913Y-83701501D01*
X115909899Y-83772888D01*
X116598272Y-83084516D01*
X116611835Y-83170148D01*
X116669359Y-83283045D01*
X116758955Y-83372641D01*
X116871852Y-83430165D01*
X116957480Y-83443726D01*
X116269110Y-84132097D01*
X116269110Y-84132100D01*
X116340498Y-84182086D01*
X116547926Y-84278811D01*
X116547931Y-84278813D01*
X116768999Y-84338048D01*
X116768995Y-84338048D01*
X116997000Y-84357995D01*
X117225002Y-84338048D01*
X117386189Y-84294858D01*
X117457165Y-84296548D01*
X117515961Y-84336342D01*
X117543909Y-84401606D01*
X117544800Y-84416565D01*
X117544800Y-85649205D01*
X117524798Y-85717326D01*
X117507899Y-85738295D01*
X116865554Y-86380641D01*
X116832940Y-86413255D01*
X116820503Y-86423219D01*
X116820691Y-86423446D01*
X116814582Y-86428499D01*
X116767970Y-86478135D01*
X116765220Y-86480973D01*
X116745463Y-86500731D01*
X116742974Y-86503939D01*
X116735288Y-86512936D01*
X116705018Y-86545173D01*
X116705011Y-86545183D01*
X116695251Y-86562935D01*
X116684403Y-86579450D01*
X116671986Y-86595458D01*
X116654424Y-86636040D01*
X116649204Y-86646695D01*
X116627905Y-86685439D01*
X116627903Y-86685444D01*
X116622867Y-86705059D01*
X116616464Y-86723762D01*
X116608419Y-86742352D01*
X116601501Y-86786025D01*
X116599095Y-86797642D01*
X116588100Y-86840468D01*
X116588100Y-86860723D01*
X116586549Y-86880433D01*
X116583380Y-86900442D01*
X116587541Y-86944461D01*
X116588100Y-86956319D01*
X116588100Y-89223346D01*
X116586351Y-89239188D01*
X116586644Y-89239216D01*
X116585898Y-89247107D01*
X116588038Y-89315184D01*
X116588100Y-89319143D01*
X116588100Y-89347051D01*
X116588101Y-89347069D01*
X116588607Y-89351077D01*
X116589537Y-89362896D01*
X116590926Y-89407088D01*
X116590927Y-89407093D01*
X116596577Y-89426539D01*
X116600586Y-89445897D01*
X116603125Y-89465993D01*
X116603126Y-89466000D01*
X116619400Y-89507103D01*
X116623244Y-89518329D01*
X116635582Y-89560793D01*
X116645894Y-89578231D01*
X116654588Y-89595979D01*
X116662044Y-89614809D01*
X116662050Y-89614820D01*
X116688032Y-89650581D01*
X116694549Y-89660501D01*
X116717058Y-89698562D01*
X116717059Y-89698563D01*
X116717061Y-89698566D01*
X116731379Y-89712884D01*
X116744217Y-89727914D01*
X116756126Y-89744304D01*
X116756130Y-89744309D01*
X116790198Y-89772492D01*
X116798978Y-89780482D01*
X116877553Y-89859057D01*
X116887520Y-89871497D01*
X116887747Y-89871310D01*
X116892799Y-89877417D01*
X116942466Y-89924057D01*
X116945310Y-89926814D01*
X116965030Y-89946534D01*
X116968216Y-89949005D01*
X116977246Y-89956717D01*
X117001182Y-89979195D01*
X117009478Y-89986985D01*
X117009482Y-89986988D01*
X117027230Y-89996745D01*
X117043757Y-90007601D01*
X117045818Y-90009200D01*
X117059760Y-90020014D01*
X117100339Y-90037574D01*
X117110987Y-90042791D01*
X117155330Y-90067169D01*
X117205389Y-90117514D01*
X117220282Y-90186931D01*
X117208824Y-90230833D01*
X117113188Y-90435925D01*
X117113186Y-90435931D01*
X117060917Y-90631000D01*
X118035314Y-90631000D01*
X118019359Y-90646955D01*
X117961835Y-90759852D01*
X117942014Y-90885000D01*
X117961835Y-91010148D01*
X118019359Y-91123045D01*
X118035314Y-91139000D01*
X117060918Y-91139000D01*
X117113186Y-91334068D01*
X117113188Y-91334073D01*
X117209912Y-91541498D01*
X117341184Y-91728974D01*
X117341189Y-91728980D01*
X117503019Y-91890810D01*
X117503025Y-91890815D01*
X117690503Y-92022089D01*
X117730641Y-92040806D01*
X117783925Y-92087723D01*
X117803386Y-92156000D01*
X117782844Y-92223960D01*
X117730641Y-92269194D01*
X117690503Y-92287910D01*
X117503025Y-92419184D01*
X117503019Y-92419189D01*
X117341189Y-92581019D01*
X117341184Y-92581025D01*
X117209912Y-92768501D01*
X117113188Y-92975926D01*
X117113186Y-92975931D01*
X117060917Y-93171000D01*
X118035314Y-93171000D01*
X118019359Y-93186955D01*
X117961835Y-93299852D01*
X117942014Y-93425000D01*
X117961835Y-93550148D01*
X118019359Y-93663045D01*
X118035314Y-93679000D01*
X117060918Y-93679000D01*
X117113186Y-93874068D01*
X117113188Y-93874073D01*
X117209912Y-94081498D01*
X117341184Y-94268974D01*
X117341189Y-94268980D01*
X117503019Y-94430810D01*
X117503025Y-94430815D01*
X117690503Y-94562089D01*
X117730049Y-94580530D01*
X117783334Y-94627447D01*
X117802794Y-94695724D01*
X117782252Y-94763684D01*
X117730049Y-94808918D01*
X117690252Y-94827475D01*
X117502703Y-94958799D01*
X117502697Y-94958804D01*
X117340804Y-95120697D01*
X117340799Y-95120703D01*
X117209477Y-95308250D01*
X117112717Y-95515753D01*
X117112716Y-95515757D01*
X117053457Y-95736913D01*
X117033502Y-95965000D01*
X117052151Y-96178165D01*
X117053457Y-96193086D01*
X117112715Y-96414240D01*
X117112717Y-96414246D01*
X117209477Y-96621749D01*
X117335197Y-96801296D01*
X117340802Y-96809300D01*
X117502700Y-96971198D01*
X117690251Y-97102523D01*
X117723976Y-97118249D01*
X117729457Y-97120805D01*
X117782742Y-97167722D01*
X117802203Y-97235999D01*
X117781661Y-97303959D01*
X117729457Y-97349195D01*
X117690250Y-97367477D01*
X117502703Y-97498799D01*
X117502697Y-97498804D01*
X117340804Y-97660697D01*
X117340799Y-97660703D01*
X117209477Y-97848250D01*
X117112717Y-98055753D01*
X117112715Y-98055759D01*
X117070048Y-98214994D01*
X117053457Y-98276913D01*
X117033502Y-98505000D01*
X117053457Y-98733087D01*
X117067232Y-98784495D01*
X117112715Y-98954240D01*
X117112719Y-98954250D01*
X117177209Y-99092551D01*
X117187870Y-99162742D01*
X117158890Y-99227555D01*
X117099470Y-99266411D01*
X117063014Y-99271800D01*
X116615553Y-99271800D01*
X116599711Y-99270050D01*
X116599684Y-99270344D01*
X116591791Y-99269597D01*
X116523701Y-99271738D01*
X116519743Y-99271800D01*
X116491844Y-99271800D01*
X116491838Y-99271800D01*
X116491832Y-99271801D01*
X116487833Y-99272306D01*
X116476013Y-99273236D01*
X116431814Y-99274625D01*
X116431807Y-99274627D01*
X116412349Y-99280279D01*
X116393004Y-99284285D01*
X116372906Y-99286825D01*
X116372898Y-99286827D01*
X116331790Y-99303102D01*
X116320566Y-99306945D01*
X116278109Y-99319281D01*
X116260664Y-99329597D01*
X116242918Y-99338290D01*
X116224082Y-99345748D01*
X116188310Y-99371737D01*
X116178394Y-99378251D01*
X116140337Y-99400758D01*
X116126011Y-99415084D01*
X116110985Y-99427917D01*
X116094595Y-99439825D01*
X116094593Y-99439827D01*
X116066400Y-99473905D01*
X116058413Y-99482681D01*
X113635800Y-101905295D01*
X113573488Y-101939320D01*
X113546705Y-101942200D01*
X111937591Y-101942200D01*
X111869470Y-101922198D01*
X111822977Y-101868542D01*
X111812873Y-101798268D01*
X111834377Y-101743930D01*
X111864088Y-101701497D01*
X111960811Y-101494073D01*
X111960813Y-101494068D01*
X112013082Y-101299000D01*
X111038686Y-101299000D01*
X111054641Y-101283045D01*
X111112165Y-101170148D01*
X111131986Y-101045000D01*
X111112165Y-100919852D01*
X111054641Y-100806955D01*
X111038686Y-100791000D01*
X112013082Y-100791000D01*
X111960813Y-100595931D01*
X111960811Y-100595926D01*
X111864087Y-100388501D01*
X111732815Y-100201025D01*
X111732810Y-100201019D01*
X111570980Y-100039189D01*
X111570974Y-100039184D01*
X111383497Y-99907911D01*
X111343949Y-99889469D01*
X111290665Y-99842551D01*
X111271205Y-99774273D01*
X111291748Y-99706314D01*
X111343950Y-99661081D01*
X111383749Y-99642523D01*
X111571300Y-99511198D01*
X111733198Y-99349300D01*
X111864523Y-99161749D01*
X111961284Y-98954243D01*
X112020543Y-98733087D01*
X112040498Y-98505000D01*
X112020543Y-98276913D01*
X112003540Y-98213458D01*
X112005229Y-98142483D01*
X112036149Y-98091754D01*
X112288260Y-97839643D01*
X112300698Y-97829680D01*
X112300510Y-97829453D01*
X112306616Y-97824401D01*
X112306615Y-97824401D01*
X112306618Y-97824400D01*
X112353262Y-97774727D01*
X112355952Y-97771951D01*
X112375735Y-97752170D01*
X112378214Y-97748973D01*
X112385911Y-97739959D01*
X112416186Y-97707721D01*
X112425946Y-97689965D01*
X112436795Y-97673450D01*
X112449214Y-97657441D01*
X112466779Y-97616846D01*
X112471984Y-97606221D01*
X112493295Y-97567460D01*
X112498333Y-97547834D01*
X112504737Y-97529132D01*
X112505817Y-97526636D01*
X112512781Y-97510545D01*
X112519696Y-97466881D01*
X112522104Y-97455252D01*
X112533100Y-97412430D01*
X112533100Y-97392175D01*
X112534651Y-97372463D01*
X112535441Y-97367477D01*
X112537820Y-97352457D01*
X112534065Y-97312728D01*
X112533659Y-97308436D01*
X112533100Y-97296579D01*
X112533100Y-90549155D01*
X112534849Y-90533314D01*
X112534556Y-90533287D01*
X112535301Y-90525394D01*
X112535302Y-90525391D01*
X112533162Y-90457313D01*
X112533100Y-90453354D01*
X112533100Y-90425449D01*
X112533100Y-90425444D01*
X112532592Y-90421430D01*
X112531661Y-90409597D01*
X112530273Y-90365410D01*
X112524622Y-90345963D01*
X112520612Y-90326600D01*
X112518074Y-90306503D01*
X112514130Y-90296543D01*
X112501797Y-90265394D01*
X112497953Y-90254169D01*
X112485618Y-90211707D01*
X112475305Y-90194269D01*
X112466610Y-90176522D01*
X112459152Y-90157683D01*
X112433168Y-90121920D01*
X112426651Y-90111999D01*
X112404141Y-90073935D01*
X112389818Y-90059612D01*
X112376977Y-90044579D01*
X112372957Y-90039046D01*
X112365072Y-90028193D01*
X112355185Y-90020014D01*
X112331005Y-90000010D01*
X112322226Y-89992021D01*
X111715093Y-89384888D01*
X111681067Y-89322576D01*
X111686132Y-89251761D01*
X111715093Y-89206698D01*
X111732810Y-89188980D01*
X111732815Y-89188974D01*
X111864087Y-89001498D01*
X111960811Y-88794073D01*
X111960813Y-88794068D01*
X112013082Y-88599000D01*
X111038686Y-88599000D01*
X111054641Y-88583045D01*
X111112165Y-88470148D01*
X111131986Y-88345000D01*
X111112165Y-88219852D01*
X111054641Y-88106955D01*
X111038686Y-88091000D01*
X112013082Y-88091000D01*
X111960813Y-87895931D01*
X111960811Y-87895926D01*
X111864087Y-87688501D01*
X111732815Y-87501025D01*
X111732810Y-87501019D01*
X111570980Y-87339189D01*
X111570974Y-87339184D01*
X111383498Y-87207912D01*
X111176073Y-87111188D01*
X111176071Y-87111187D01*
X110981000Y-87058917D01*
X110981000Y-88033314D01*
X110965045Y-88017359D01*
X110852148Y-87959835D01*
X110758481Y-87945000D01*
X110695519Y-87945000D01*
X110601852Y-87959835D01*
X110488955Y-88017359D01*
X110473000Y-88033314D01*
X110473000Y-87058917D01*
X110472999Y-87058917D01*
X110277928Y-87111187D01*
X110277926Y-87111188D01*
X110070501Y-87207912D01*
X109883025Y-87339184D01*
X109883019Y-87339189D01*
X109721189Y-87501019D01*
X109721180Y-87501030D01*
X109589912Y-87688501D01*
X109589907Y-87688509D01*
X109582065Y-87705328D01*
X109535147Y-87758613D01*
X109466870Y-87778073D01*
X109398910Y-87757530D01*
X109378776Y-87741172D01*
X108219264Y-86581660D01*
X105696944Y-84059339D01*
X105686979Y-84046901D01*
X105686752Y-84047090D01*
X105681701Y-84040984D01*
X105681700Y-84040982D01*
X105632048Y-83994356D01*
X105629205Y-83991600D01*
X105609477Y-83971871D01*
X105609471Y-83971866D01*
X105606267Y-83969380D01*
X105597256Y-83961683D01*
X105559243Y-83925988D01*
X105560823Y-83924305D01*
X105524587Y-83877304D01*
X105518519Y-83806567D01*
X105538792Y-83759333D01*
X105608523Y-83659749D01*
X105705284Y-83452243D01*
X105764543Y-83231087D01*
X105780823Y-83045000D01*
X110683502Y-83045000D01*
X110703457Y-83273087D01*
X110718879Y-83330641D01*
X110762715Y-83494240D01*
X110762717Y-83494246D01*
X110859477Y-83701749D01*
X110983216Y-83878467D01*
X110990802Y-83889300D01*
X111152700Y-84051198D01*
X111340251Y-84182523D01*
X111547757Y-84279284D01*
X111768913Y-84338543D01*
X111997000Y-84358498D01*
X112225087Y-84338543D01*
X112446243Y-84279284D01*
X112653749Y-84182523D01*
X112841300Y-84051198D01*
X113003198Y-83889300D01*
X113134523Y-83701749D01*
X113231284Y-83494243D01*
X113290543Y-83273087D01*
X113310498Y-83045000D01*
X113290543Y-82816913D01*
X113231284Y-82595757D01*
X113134523Y-82388251D01*
X113003198Y-82200700D01*
X112841300Y-82038802D01*
X112836491Y-82035435D01*
X112653749Y-81907477D01*
X112446246Y-81810717D01*
X112446240Y-81810715D01*
X112296738Y-81770656D01*
X112225087Y-81751457D01*
X111997000Y-81731502D01*
X111768913Y-81751457D01*
X111547759Y-81810715D01*
X111547753Y-81810717D01*
X111340250Y-81907477D01*
X111152703Y-82038799D01*
X111152697Y-82038804D01*
X110990804Y-82200697D01*
X110990799Y-82200703D01*
X110859477Y-82388250D01*
X110762717Y-82595753D01*
X110762715Y-82595759D01*
X110725905Y-82733136D01*
X110703457Y-82816913D01*
X110683502Y-83045000D01*
X105780823Y-83045000D01*
X105784498Y-83003000D01*
X105764543Y-82774913D01*
X105705284Y-82553757D01*
X105608523Y-82346251D01*
X105477198Y-82158700D01*
X105315300Y-81996802D01*
X105271764Y-81966318D01*
X105127749Y-81865477D01*
X104920246Y-81768717D01*
X104920240Y-81768715D01*
X104783587Y-81732099D01*
X104699087Y-81709457D01*
X104471000Y-81689502D01*
X104242913Y-81709457D01*
X104021759Y-81768715D01*
X104021753Y-81768717D01*
X103814250Y-81865477D01*
X103626703Y-81996799D01*
X103626697Y-81996804D01*
X103464804Y-82158697D01*
X103464799Y-82158703D01*
X103333477Y-82346250D01*
X103236717Y-82553753D01*
X103236715Y-82553759D01*
X103181692Y-82759107D01*
X103177457Y-82774913D01*
X103157502Y-83003000D01*
X103177457Y-83231087D01*
X103188688Y-83273002D01*
X103236715Y-83452240D01*
X103236717Y-83452246D01*
X103322053Y-83635250D01*
X103332714Y-83705442D01*
X103303734Y-83770255D01*
X103244314Y-83809111D01*
X103207858Y-83814500D01*
X102648900Y-83814500D01*
X102580779Y-83794498D01*
X102555263Y-83772810D01*
X102551952Y-83769133D01*
X102397452Y-83656882D01*
X102222988Y-83579206D01*
X102036187Y-83539500D01*
X101845213Y-83539500D01*
X101658411Y-83579206D01*
X101483947Y-83656882D01*
X101329444Y-83769135D01*
X101201665Y-83911048D01*
X101201658Y-83911058D01*
X101106176Y-84076438D01*
X101106173Y-84076445D01*
X101047157Y-84258072D01*
X101027196Y-84448000D01*
X101047157Y-84637927D01*
X101077226Y-84730470D01*
X101106173Y-84819556D01*
X101106176Y-84819561D01*
X101201658Y-84984941D01*
X101201665Y-84984951D01*
X101329444Y-85126864D01*
X101329447Y-85126866D01*
X101483948Y-85239118D01*
X101658412Y-85316794D01*
X101845213Y-85356500D01*
X102036187Y-85356500D01*
X102222988Y-85316794D01*
X102397452Y-85239118D01*
X102551953Y-85126866D01*
X102555263Y-85123190D01*
X102615709Y-85085950D01*
X102648900Y-85081500D01*
X104875106Y-85081500D01*
X104943227Y-85101502D01*
X104964201Y-85118405D01*
X106659201Y-86813405D01*
X106693227Y-86875717D01*
X106688162Y-86946532D01*
X106645615Y-87003368D01*
X106579095Y-87028179D01*
X106570106Y-87028500D01*
X104972350Y-87028500D01*
X104911803Y-87035009D01*
X104911795Y-87035011D01*
X104774797Y-87086110D01*
X104774792Y-87086112D01*
X104657738Y-87173738D01*
X104570112Y-87290792D01*
X104570110Y-87290797D01*
X104519011Y-87427795D01*
X104519009Y-87427803D01*
X104512500Y-87488350D01*
X104512500Y-89185649D01*
X104519009Y-89246196D01*
X104519011Y-89246204D01*
X104570110Y-89383202D01*
X104570112Y-89383207D01*
X104657738Y-89500261D01*
X104774792Y-89587887D01*
X104774794Y-89587888D01*
X104774796Y-89587889D01*
X104911799Y-89638989D01*
X104921191Y-89639998D01*
X104986784Y-89667163D01*
X105027279Y-89725479D01*
X105029817Y-89796430D01*
X104993593Y-89857490D01*
X104980010Y-89868483D01*
X104976708Y-89870795D01*
X104976697Y-89870804D01*
X104814804Y-90032697D01*
X104814799Y-90032703D01*
X104683477Y-90220250D01*
X104586717Y-90427753D01*
X104586715Y-90427759D01*
X104543777Y-90588005D01*
X104527457Y-90648913D01*
X104507502Y-90877000D01*
X104527457Y-91105087D01*
X104529601Y-91113087D01*
X104586715Y-91326240D01*
X104586717Y-91326246D01*
X104653402Y-91469253D01*
X104683477Y-91533749D01*
X104814802Y-91721300D01*
X104976700Y-91883198D01*
X105164251Y-92014523D01*
X105198074Y-92030295D01*
X105203457Y-92032805D01*
X105256742Y-92079722D01*
X105276203Y-92147999D01*
X105255661Y-92215959D01*
X105203457Y-92261195D01*
X105164250Y-92279477D01*
X104976703Y-92410799D01*
X104870148Y-92517354D01*
X104807836Y-92551379D01*
X104737020Y-92546313D01*
X104691958Y-92517353D01*
X101471544Y-89296939D01*
X101461579Y-89284501D01*
X101461352Y-89284690D01*
X101456301Y-89278584D01*
X101456300Y-89278582D01*
X101446462Y-89269344D01*
X101406649Y-89231957D01*
X101403805Y-89229200D01*
X101384077Y-89209471D01*
X101384071Y-89209466D01*
X101380867Y-89206980D01*
X101371856Y-89199283D01*
X101339625Y-89169017D01*
X101339619Y-89169013D01*
X101321863Y-89159251D01*
X101305347Y-89148402D01*
X101289341Y-89135986D01*
X101248764Y-89118427D01*
X101238107Y-89113205D01*
X101199363Y-89091906D01*
X101199360Y-89091905D01*
X101179736Y-89086866D01*
X101161036Y-89080464D01*
X101142445Y-89072419D01*
X101142443Y-89072418D01*
X101142441Y-89072418D01*
X101098774Y-89065501D01*
X101087155Y-89063095D01*
X101044330Y-89052100D01*
X101024076Y-89052100D01*
X101004366Y-89050549D01*
X100984357Y-89047380D01*
X100940339Y-89051541D01*
X100928481Y-89052100D01*
X99508542Y-89052100D01*
X99440421Y-89032098D01*
X99393928Y-88978442D01*
X99383824Y-88908168D01*
X99394347Y-88872850D01*
X99434811Y-88786073D01*
X99434813Y-88786068D01*
X99487082Y-88591000D01*
X98512686Y-88591000D01*
X98528641Y-88575045D01*
X98586165Y-88462148D01*
X98605986Y-88337000D01*
X98586165Y-88211852D01*
X98528641Y-88098955D01*
X98512686Y-88083000D01*
X99487082Y-88083000D01*
X99434813Y-87887931D01*
X99434811Y-87887926D01*
X99338087Y-87680501D01*
X99206815Y-87493025D01*
X99206810Y-87493019D01*
X99044980Y-87331189D01*
X99044974Y-87331184D01*
X98857498Y-87199912D01*
X98650073Y-87103188D01*
X98650071Y-87103187D01*
X98455000Y-87050917D01*
X98455000Y-88025314D01*
X98439045Y-88009359D01*
X98326148Y-87951835D01*
X98232481Y-87937000D01*
X98169519Y-87937000D01*
X98075852Y-87951835D01*
X97962955Y-88009359D01*
X97947000Y-88025314D01*
X97947000Y-87050917D01*
X97946999Y-87050917D01*
X97751928Y-87103187D01*
X97751926Y-87103188D01*
X97544501Y-87199912D01*
X97357025Y-87331184D01*
X97357019Y-87331189D01*
X97195189Y-87493019D01*
X97195184Y-87493025D01*
X97063912Y-87680501D01*
X96974495Y-87872255D01*
X96927577Y-87925540D01*
X96859300Y-87945001D01*
X96791340Y-87924459D01*
X96771205Y-87908100D01*
X96079444Y-87216339D01*
X96069479Y-87203901D01*
X96069252Y-87204090D01*
X96064201Y-87197984D01*
X96064200Y-87197982D01*
X96056920Y-87191146D01*
X96014548Y-87151356D01*
X96011704Y-87148599D01*
X95991977Y-87128871D01*
X95991971Y-87128866D01*
X95988767Y-87126380D01*
X95979756Y-87118683D01*
X95947525Y-87088417D01*
X95947519Y-87088413D01*
X95929763Y-87078651D01*
X95913247Y-87067802D01*
X95897241Y-87055386D01*
X95856664Y-87037827D01*
X95846007Y-87032605D01*
X95807263Y-87011306D01*
X95807260Y-87011305D01*
X95787636Y-87006266D01*
X95768936Y-86999864D01*
X95750345Y-86991819D01*
X95750343Y-86991818D01*
X95750341Y-86991818D01*
X95706674Y-86984901D01*
X95695055Y-86982495D01*
X95652230Y-86971500D01*
X95631976Y-86971500D01*
X95612266Y-86969949D01*
X95592257Y-86966780D01*
X95548239Y-86970941D01*
X95536381Y-86971500D01*
X89337989Y-86971500D01*
X89269868Y-86951498D01*
X89234776Y-86917771D01*
X89164915Y-86818000D01*
X89164913Y-86817997D01*
X89014003Y-86667087D01*
X89014002Y-86667086D01*
X89014001Y-86667085D01*
X89013998Y-86667083D01*
X88839180Y-86544674D01*
X88839178Y-86544673D01*
X88645758Y-86454480D01*
X88645753Y-86454478D01*
X88528621Y-86423093D01*
X88439608Y-86399242D01*
X88227000Y-86380641D01*
X88014392Y-86399242D01*
X87962095Y-86413255D01*
X87808246Y-86454478D01*
X87808241Y-86454480D01*
X87614820Y-86544674D01*
X87440000Y-86667084D01*
X87439994Y-86667089D01*
X87289089Y-86817994D01*
X87289084Y-86818000D01*
X87166674Y-86992820D01*
X87076476Y-87186249D01*
X87075400Y-87189208D01*
X87074574Y-87190328D01*
X87074154Y-87191231D01*
X87073972Y-87191146D01*
X87033304Y-87246378D01*
X86966982Y-87271714D01*
X86897490Y-87257171D01*
X86846893Y-87207367D01*
X86838600Y-87189208D01*
X86837523Y-87186249D01*
X86810764Y-87128865D01*
X86747326Y-86992821D01*
X86624913Y-86817997D01*
X86474003Y-86667087D01*
X86474002Y-86667086D01*
X86474001Y-86667085D01*
X86473998Y-86667083D01*
X86299180Y-86544674D01*
X86299178Y-86544673D01*
X86105758Y-86454480D01*
X86105753Y-86454478D01*
X85988621Y-86423093D01*
X85899608Y-86399242D01*
X85687000Y-86380641D01*
X85474392Y-86399242D01*
X85422095Y-86413255D01*
X85268246Y-86454478D01*
X85268241Y-86454480D01*
X85074820Y-86544674D01*
X84900000Y-86667084D01*
X84899994Y-86667089D01*
X84749089Y-86817994D01*
X84749084Y-86818000D01*
X84626674Y-86992820D01*
X84536473Y-87186257D01*
X84535128Y-87189952D01*
X84493028Y-87247119D01*
X84426703Y-87272449D01*
X84357213Y-87257900D01*
X84306620Y-87208092D01*
X84298328Y-87189931D01*
X84297048Y-87186415D01*
X84206889Y-86993068D01*
X84170340Y-86940870D01*
X84170338Y-86940870D01*
X83545727Y-87565481D01*
X83532165Y-87479852D01*
X83474641Y-87366955D01*
X83385045Y-87277359D01*
X83272148Y-87219835D01*
X83186517Y-87206272D01*
X83811128Y-86581660D01*
X83758924Y-86545106D01*
X83565587Y-86454952D01*
X83565581Y-86454950D01*
X83359520Y-86399736D01*
X83147000Y-86381143D01*
X82934479Y-86399736D01*
X82728418Y-86454950D01*
X82728413Y-86454952D01*
X82535070Y-86545110D01*
X82482869Y-86581660D01*
X83107481Y-87206272D01*
X83021852Y-87219835D01*
X82908955Y-87277359D01*
X82819359Y-87366955D01*
X82761835Y-87479852D01*
X82748272Y-87565481D01*
X82123660Y-86940869D01*
X82087110Y-86993070D01*
X81996950Y-87186417D01*
X81995667Y-87189943D01*
X81994683Y-87191278D01*
X81994626Y-87191402D01*
X81994601Y-87191390D01*
X81953570Y-87247113D01*
X81887248Y-87272448D01*
X81817757Y-87257905D01*
X81767160Y-87208101D01*
X81758866Y-87189940D01*
X81757521Y-87186245D01*
X81730764Y-87128865D01*
X81667326Y-86992821D01*
X81544913Y-86817997D01*
X81394003Y-86667087D01*
X81394002Y-86667086D01*
X81394001Y-86667085D01*
X81393998Y-86667083D01*
X81219180Y-86544674D01*
X81219178Y-86544673D01*
X81025758Y-86454480D01*
X81025753Y-86454478D01*
X80908621Y-86423093D01*
X80819608Y-86399242D01*
X80607000Y-86380641D01*
X80394392Y-86399242D01*
X80342095Y-86413255D01*
X80188246Y-86454478D01*
X80188241Y-86454480D01*
X79994820Y-86544674D01*
X79820000Y-86667084D01*
X79819994Y-86667089D01*
X79669089Y-86817994D01*
X79669084Y-86818000D01*
X79546674Y-86992820D01*
X79456480Y-87186241D01*
X79456478Y-87186246D01*
X79428464Y-87290797D01*
X79401242Y-87392392D01*
X79382641Y-87605000D01*
X79401242Y-87817608D01*
X79415885Y-87872255D01*
X79456478Y-88023753D01*
X79456480Y-88023758D01*
X79546673Y-88217178D01*
X79546674Y-88217180D01*
X79669083Y-88391998D01*
X79669090Y-88392007D01*
X79819992Y-88542909D01*
X79820001Y-88542916D01*
X79860106Y-88570998D01*
X79994820Y-88665326D01*
X80165496Y-88744913D01*
X80188245Y-88755521D01*
X80191940Y-88756866D01*
X80249111Y-88798961D01*
X80274448Y-88865283D01*
X80259906Y-88934775D01*
X80210103Y-88985373D01*
X80191943Y-88993667D01*
X80188417Y-88994950D01*
X79995070Y-89085110D01*
X79942869Y-89121660D01*
X80567481Y-89746272D01*
X80481852Y-89759835D01*
X80368955Y-89817359D01*
X80279359Y-89906955D01*
X80221835Y-90019852D01*
X80208272Y-90105483D01*
X79583660Y-89480870D01*
X79547110Y-89533070D01*
X79456950Y-89726417D01*
X79455667Y-89729943D01*
X79454683Y-89731278D01*
X79454626Y-89731402D01*
X79454601Y-89731390D01*
X79413570Y-89787113D01*
X79347248Y-89812448D01*
X79277757Y-89797905D01*
X79227160Y-89748101D01*
X79218866Y-89729940D01*
X79217521Y-89726245D01*
X79195513Y-89679049D01*
X79127326Y-89532821D01*
X79004913Y-89357997D01*
X78854003Y-89207087D01*
X78854002Y-89207086D01*
X78854001Y-89207085D01*
X78853998Y-89207083D01*
X78679180Y-89084674D01*
X78679178Y-89084673D01*
X78485758Y-88994480D01*
X78485753Y-88994478D01*
X78390080Y-88968842D01*
X78279608Y-88939242D01*
X78067000Y-88920641D01*
X77854392Y-88939242D01*
X77799156Y-88954042D01*
X77648246Y-88994478D01*
X77648241Y-88994480D01*
X77454820Y-89084674D01*
X77280000Y-89207084D01*
X77279994Y-89207089D01*
X77129089Y-89357994D01*
X77129084Y-89358000D01*
X77006674Y-89532820D01*
X76916480Y-89726241D01*
X76916478Y-89726246D01*
X76876042Y-89877156D01*
X76861242Y-89932392D01*
X76842641Y-90145000D01*
X76861242Y-90357608D01*
X76869811Y-90389591D01*
X76868122Y-90460566D01*
X76828328Y-90519361D01*
X76763063Y-90547309D01*
X76748105Y-90548200D01*
X70533594Y-90548200D01*
X70465473Y-90528198D01*
X70444499Y-90511295D01*
X70418582Y-90485378D01*
X70384556Y-90423066D01*
X70389621Y-90352251D01*
X70432168Y-90295415D01*
X70475063Y-90274577D01*
X70614243Y-90237284D01*
X70821749Y-90140523D01*
X71009300Y-90009198D01*
X71171198Y-89847300D01*
X71302523Y-89659749D01*
X71399284Y-89452243D01*
X71458543Y-89231087D01*
X71478498Y-89003000D01*
X71458543Y-88774913D01*
X71399284Y-88553757D01*
X71302523Y-88346251D01*
X71171198Y-88158700D01*
X71009300Y-87996802D01*
X70999821Y-87990165D01*
X70821749Y-87865477D01*
X70614246Y-87768717D01*
X70614240Y-87768715D01*
X70502282Y-87738716D01*
X70393087Y-87709457D01*
X70165000Y-87689502D01*
X69936913Y-87709457D01*
X69715759Y-87768715D01*
X69715753Y-87768717D01*
X69508250Y-87865477D01*
X69320703Y-87996799D01*
X69320697Y-87996804D01*
X69158804Y-88158697D01*
X69158799Y-88158703D01*
X69027477Y-88346250D01*
X68930717Y-88553753D01*
X68930715Y-88553759D01*
X68893424Y-88692933D01*
X68856472Y-88753556D01*
X68792612Y-88784577D01*
X68722117Y-88776149D01*
X68682622Y-88749417D01*
X68547545Y-88614340D01*
X68537583Y-88601904D01*
X68537356Y-88602093D01*
X68532302Y-88595984D01*
X68526994Y-88591000D01*
X68482662Y-88549371D01*
X68479819Y-88546614D01*
X68460081Y-88526875D01*
X68460073Y-88526868D01*
X68460070Y-88526865D01*
X68456866Y-88524380D01*
X68447854Y-88516681D01*
X68415625Y-88486417D01*
X68415619Y-88486413D01*
X68397863Y-88476651D01*
X68381347Y-88465802D01*
X68365341Y-88453386D01*
X68324764Y-88435827D01*
X68314107Y-88430605D01*
X68275363Y-88409306D01*
X68275360Y-88409305D01*
X68255736Y-88404266D01*
X68237036Y-88397864D01*
X68218445Y-88389819D01*
X68218443Y-88389818D01*
X68218441Y-88389818D01*
X68174774Y-88382901D01*
X68163155Y-88380495D01*
X68120329Y-88369499D01*
X68119191Y-88369356D01*
X68118363Y-88368995D01*
X68112653Y-88367529D01*
X68112889Y-88366607D01*
X68054116Y-88340971D01*
X68031776Y-88316621D01*
X67921200Y-88158703D01*
X67921195Y-88158697D01*
X67759302Y-87996804D01*
X67759296Y-87996799D01*
X67571749Y-87865477D01*
X67364246Y-87768717D01*
X67364240Y-87768715D01*
X67252282Y-87738716D01*
X67143087Y-87709457D01*
X66915000Y-87689502D01*
X66686913Y-87709457D01*
X66465759Y-87768715D01*
X66465753Y-87768717D01*
X66258250Y-87865477D01*
X66070703Y-87996799D01*
X66070697Y-87996804D01*
X65908804Y-88158697D01*
X65908799Y-88158703D01*
X65777477Y-88346250D01*
X65680717Y-88553753D01*
X65680715Y-88553759D01*
X65626364Y-88756600D01*
X65621457Y-88774913D01*
X65601502Y-89003000D01*
X65621457Y-89231087D01*
X65635769Y-89284501D01*
X65680715Y-89452240D01*
X65680717Y-89452246D01*
X65777477Y-89659749D01*
X65837170Y-89745000D01*
X65908802Y-89847300D01*
X66070700Y-90009198D01*
X66258251Y-90140523D01*
X66465757Y-90237284D01*
X66686913Y-90296543D01*
X66915000Y-90316498D01*
X67143087Y-90296543D01*
X67364243Y-90237284D01*
X67571749Y-90140523D01*
X67759300Y-90009198D01*
X67865852Y-89902646D01*
X67928164Y-89868620D01*
X67998979Y-89873685D01*
X68044041Y-89902645D01*
X68898395Y-90757000D01*
X69711755Y-91570360D01*
X69721723Y-91582802D01*
X69721951Y-91582614D01*
X69726998Y-91588715D01*
X69727000Y-91588718D01*
X69727002Y-91588720D01*
X69727003Y-91588721D01*
X69776633Y-91635325D01*
X69779479Y-91638084D01*
X69799224Y-91657830D01*
X69799228Y-91657833D01*
X69799230Y-91657835D01*
X69802435Y-91660321D01*
X69811442Y-91668014D01*
X69843679Y-91698286D01*
X69861428Y-91708043D01*
X69877954Y-91718899D01*
X69891362Y-91729300D01*
X69893959Y-91731314D01*
X69934542Y-91748875D01*
X69945193Y-91754093D01*
X69983940Y-91775395D01*
X69983948Y-91775397D01*
X70003558Y-91780432D01*
X70022267Y-91786837D01*
X70040855Y-91794881D01*
X70084530Y-91801798D01*
X70096141Y-91804202D01*
X70138970Y-91815200D01*
X70159224Y-91815200D01*
X70178934Y-91816751D01*
X70181141Y-91817100D01*
X70198943Y-91819920D01*
X70242961Y-91815758D01*
X70254819Y-91815200D01*
X76945018Y-91815200D01*
X77013139Y-91835202D01*
X77059632Y-91888858D01*
X77069736Y-91959132D01*
X77048231Y-92013470D01*
X77006675Y-92072817D01*
X76916480Y-92266241D01*
X76916478Y-92266246D01*
X76892183Y-92356919D01*
X76861242Y-92472392D01*
X76842641Y-92685000D01*
X76861242Y-92897608D01*
X76880039Y-92967759D01*
X76916478Y-93103753D01*
X76916480Y-93103758D01*
X77006673Y-93297178D01*
X77006674Y-93297180D01*
X77129083Y-93471998D01*
X77129090Y-93472007D01*
X77279992Y-93622909D01*
X77280001Y-93622916D01*
X77337311Y-93663045D01*
X77454820Y-93745326D01*
X77584201Y-93805657D01*
X77648249Y-93835523D01*
X77651208Y-93836600D01*
X77652328Y-93837425D01*
X77653231Y-93837846D01*
X77653146Y-93838027D01*
X77708378Y-93878696D01*
X77733714Y-93945018D01*
X77719171Y-94014510D01*
X77669367Y-94065107D01*
X77651208Y-94073400D01*
X77648249Y-94074476D01*
X77454820Y-94164674D01*
X77280000Y-94287084D01*
X77279994Y-94287089D01*
X77129089Y-94437994D01*
X77129084Y-94438000D01*
X77006674Y-94612820D01*
X76916480Y-94806241D01*
X76916478Y-94806246D01*
X76881792Y-94935697D01*
X76861242Y-95012392D01*
X76842641Y-95225000D01*
X76861242Y-95437608D01*
X76880039Y-95507759D01*
X76916478Y-95643753D01*
X76916480Y-95643758D01*
X77006673Y-95837178D01*
X77006674Y-95837180D01*
X77129083Y-96011998D01*
X77129090Y-96012007D01*
X77183943Y-96066860D01*
X77217969Y-96129172D01*
X77212904Y-96199987D01*
X77183943Y-96245050D01*
X59036336Y-114392657D01*
X59023901Y-114402621D01*
X59024089Y-114402848D01*
X59017979Y-114407902D01*
X58971370Y-114457535D01*
X58968620Y-114460373D01*
X58948863Y-114480131D01*
X58946374Y-114483339D01*
X58938688Y-114492336D01*
X58908418Y-114524573D01*
X58908411Y-114524583D01*
X58898651Y-114542335D01*
X58887803Y-114558850D01*
X58875386Y-114574858D01*
X58857824Y-114615440D01*
X58852604Y-114626095D01*
X58831305Y-114664839D01*
X58831303Y-114664844D01*
X58826267Y-114684459D01*
X58819864Y-114703162D01*
X58811819Y-114721752D01*
X58804901Y-114765425D01*
X58802495Y-114777042D01*
X58791500Y-114819868D01*
X58791500Y-114840123D01*
X58789949Y-114859833D01*
X58786780Y-114879842D01*
X58790941Y-114923861D01*
X58791500Y-114935719D01*
X58791500Y-132019000D01*
X58771498Y-132087121D01*
X58717842Y-132133614D01*
X58665500Y-132145000D01*
X54691395Y-132145000D01*
X54623274Y-132124998D01*
X54602300Y-132108095D01*
X54115405Y-131621200D01*
X54081379Y-131558888D01*
X54078500Y-131532105D01*
X54078500Y-89528354D01*
X54098502Y-89460233D01*
X54132230Y-89425141D01*
X54221124Y-89362896D01*
X54257038Y-89337749D01*
X54412749Y-89182038D01*
X54539056Y-89001654D01*
X54552417Y-88973000D01*
X62301502Y-88973000D01*
X62321457Y-89201087D01*
X62333546Y-89246204D01*
X62380715Y-89422240D01*
X62380717Y-89422246D01*
X62477477Y-89629749D01*
X62605404Y-89812448D01*
X62608802Y-89817300D01*
X62770700Y-89979198D01*
X62958251Y-90110523D01*
X63165757Y-90207284D01*
X63386913Y-90266543D01*
X63615000Y-90286498D01*
X63843087Y-90266543D01*
X64064243Y-90207284D01*
X64271749Y-90110523D01*
X64459300Y-89979198D01*
X64621198Y-89817300D01*
X64752523Y-89629749D01*
X64849284Y-89422243D01*
X64908543Y-89201087D01*
X64928498Y-88973000D01*
X64908543Y-88744913D01*
X64849284Y-88523757D01*
X64752523Y-88316251D01*
X64621198Y-88128700D01*
X64459300Y-87966802D01*
X64455598Y-87964210D01*
X64271749Y-87835477D01*
X64064246Y-87738717D01*
X64064240Y-87738715D01*
X63939638Y-87705328D01*
X63843087Y-87679457D01*
X63615000Y-87659502D01*
X63386913Y-87679457D01*
X63165759Y-87738715D01*
X63165753Y-87738717D01*
X62958250Y-87835477D01*
X62770703Y-87966799D01*
X62770697Y-87966804D01*
X62608804Y-88128697D01*
X62608799Y-88128703D01*
X62477477Y-88316250D01*
X62380717Y-88523753D01*
X62380715Y-88523759D01*
X62335385Y-88692933D01*
X62321457Y-88744913D01*
X62301502Y-88973000D01*
X54552417Y-88973000D01*
X54632120Y-88802076D01*
X54689115Y-88589371D01*
X54708307Y-88370000D01*
X54689115Y-88150629D01*
X54632120Y-87937924D01*
X54539056Y-87738347D01*
X54515936Y-87705328D01*
X54493814Y-87673734D01*
X54471127Y-87606460D01*
X54488412Y-87537600D01*
X54507929Y-87512373D01*
X59017303Y-83003000D01*
X98158004Y-83003000D01*
X98177951Y-83231002D01*
X98237186Y-83452068D01*
X98237188Y-83452073D01*
X98333913Y-83659501D01*
X98383899Y-83730888D01*
X99072272Y-83042516D01*
X99085835Y-83128148D01*
X99143359Y-83241045D01*
X99232955Y-83330641D01*
X99345852Y-83388165D01*
X99431482Y-83401727D01*
X98743110Y-84090098D01*
X98743110Y-84090100D01*
X98814498Y-84140086D01*
X99021926Y-84236811D01*
X99021931Y-84236813D01*
X99242999Y-84296048D01*
X99242995Y-84296048D01*
X99471000Y-84315995D01*
X99699002Y-84296048D01*
X99920068Y-84236813D01*
X99920073Y-84236811D01*
X100127497Y-84140088D01*
X100198888Y-84090099D01*
X100198888Y-84090097D01*
X99510518Y-83401727D01*
X99596148Y-83388165D01*
X99709045Y-83330641D01*
X99798641Y-83241045D01*
X99856165Y-83128148D01*
X99869727Y-83042518D01*
X100558097Y-83730888D01*
X100558099Y-83730888D01*
X100608088Y-83659497D01*
X100704811Y-83452073D01*
X100704813Y-83452068D01*
X100764048Y-83231002D01*
X100783995Y-83003000D01*
X100764048Y-82774997D01*
X100704813Y-82553931D01*
X100704811Y-82553926D01*
X100608086Y-82346498D01*
X100558100Y-82275110D01*
X100558098Y-82275110D01*
X99869727Y-82963481D01*
X99856165Y-82877852D01*
X99798641Y-82764955D01*
X99709045Y-82675359D01*
X99596148Y-82617835D01*
X99510517Y-82604272D01*
X100198888Y-81915899D01*
X100198888Y-81915898D01*
X100127501Y-81865913D01*
X99920073Y-81769188D01*
X99920068Y-81769186D01*
X99699000Y-81709951D01*
X99699004Y-81709951D01*
X99471000Y-81690004D01*
X99242997Y-81709951D01*
X99021931Y-81769186D01*
X99021926Y-81769188D01*
X98814500Y-81865913D01*
X98743109Y-81915900D01*
X99431481Y-82604272D01*
X99345852Y-82617835D01*
X99232955Y-82675359D01*
X99143359Y-82764955D01*
X99085835Y-82877852D01*
X99072272Y-82963481D01*
X98383900Y-82275109D01*
X98333913Y-82346500D01*
X98237188Y-82553926D01*
X98237186Y-82553931D01*
X98177951Y-82774997D01*
X98158004Y-83003000D01*
X59017303Y-83003000D01*
X60921304Y-81099000D01*
X62328917Y-81099000D01*
X63303314Y-81099000D01*
X63287359Y-81114955D01*
X63229835Y-81227852D01*
X63210014Y-81353000D01*
X63229835Y-81478148D01*
X63287359Y-81591045D01*
X63303314Y-81607000D01*
X62328918Y-81607000D01*
X62381186Y-81802068D01*
X62381188Y-81802073D01*
X62477912Y-82009498D01*
X62609184Y-82196974D01*
X62609189Y-82196980D01*
X62771019Y-82358810D01*
X62771025Y-82358815D01*
X62958501Y-82490087D01*
X63165926Y-82586811D01*
X63165931Y-82586813D01*
X63361000Y-82639081D01*
X63361000Y-81664686D01*
X63376955Y-81680641D01*
X63489852Y-81738165D01*
X63583519Y-81753000D01*
X63646481Y-81753000D01*
X63740148Y-81738165D01*
X63853045Y-81680641D01*
X63869000Y-81664686D01*
X63869000Y-82639081D01*
X64064068Y-82586813D01*
X64064073Y-82586811D01*
X64271498Y-82490087D01*
X64458974Y-82358815D01*
X64458980Y-82358810D01*
X64620810Y-82196980D01*
X64620815Y-82196974D01*
X64752087Y-82009498D01*
X64848811Y-81802073D01*
X64848813Y-81802068D01*
X64901082Y-81607000D01*
X63926686Y-81607000D01*
X63942641Y-81591045D01*
X64000165Y-81478148D01*
X64015235Y-81383000D01*
X65602004Y-81383000D01*
X65621951Y-81611002D01*
X65681186Y-81832068D01*
X65681188Y-81832073D01*
X65777913Y-82039501D01*
X65827899Y-82110888D01*
X66516272Y-81422516D01*
X66529835Y-81508148D01*
X66587359Y-81621045D01*
X66676955Y-81710641D01*
X66789852Y-81768165D01*
X66875482Y-81781727D01*
X66187110Y-82470098D01*
X66187110Y-82470100D01*
X66258498Y-82520086D01*
X66465926Y-82616811D01*
X66465931Y-82616813D01*
X66686999Y-82676048D01*
X66686995Y-82676048D01*
X66915000Y-82695995D01*
X67143002Y-82676048D01*
X67364068Y-82616813D01*
X67364073Y-82616811D01*
X67571497Y-82520088D01*
X67642888Y-82470099D01*
X67642888Y-82470097D01*
X66954518Y-81781727D01*
X67040148Y-81768165D01*
X67153045Y-81710641D01*
X67242641Y-81621045D01*
X67300165Y-81508148D01*
X67313727Y-81422518D01*
X68002097Y-82110888D01*
X68002099Y-82110888D01*
X68052088Y-82039497D01*
X68148811Y-81832073D01*
X68148813Y-81832068D01*
X68208048Y-81611002D01*
X68227995Y-81383000D01*
X68852004Y-81383000D01*
X68871951Y-81611002D01*
X68931186Y-81832068D01*
X68931188Y-81832073D01*
X69027913Y-82039501D01*
X69077899Y-82110888D01*
X69766272Y-81422516D01*
X69779835Y-81508148D01*
X69837359Y-81621045D01*
X69926955Y-81710641D01*
X70039852Y-81768165D01*
X70125482Y-81781727D01*
X69437110Y-82470098D01*
X69437110Y-82470100D01*
X69508498Y-82520086D01*
X69715926Y-82616811D01*
X69715931Y-82616813D01*
X69936999Y-82676048D01*
X69936995Y-82676048D01*
X70165000Y-82695995D01*
X70393002Y-82676048D01*
X70614068Y-82616813D01*
X70614073Y-82616811D01*
X70821497Y-82520088D01*
X70892888Y-82470099D01*
X70892888Y-82470097D01*
X70204518Y-81781727D01*
X70290148Y-81768165D01*
X70403045Y-81710641D01*
X70492641Y-81621045D01*
X70550165Y-81508148D01*
X70563727Y-81422518D01*
X71252097Y-82110888D01*
X71252099Y-82110888D01*
X71302088Y-82039497D01*
X71398811Y-81832073D01*
X71398813Y-81832068D01*
X71458048Y-81611002D01*
X71477995Y-81383000D01*
X71458048Y-81154997D01*
X71398813Y-80933931D01*
X71398811Y-80933926D01*
X71302086Y-80726498D01*
X71252100Y-80655110D01*
X71252098Y-80655110D01*
X70563727Y-81343481D01*
X70550165Y-81257852D01*
X70492641Y-81144955D01*
X70403045Y-81055359D01*
X70290148Y-80997835D01*
X70204517Y-80984272D01*
X70892888Y-80295899D01*
X70892888Y-80295898D01*
X70821501Y-80245913D01*
X70614073Y-80149188D01*
X70614068Y-80149186D01*
X70393000Y-80089951D01*
X70393004Y-80089951D01*
X70165000Y-80070004D01*
X69936997Y-80089951D01*
X69715931Y-80149186D01*
X69715926Y-80149188D01*
X69508500Y-80245913D01*
X69437109Y-80295900D01*
X70125481Y-80984272D01*
X70039852Y-80997835D01*
X69926955Y-81055359D01*
X69837359Y-81144955D01*
X69779835Y-81257852D01*
X69766272Y-81343481D01*
X69077900Y-80655109D01*
X69027913Y-80726500D01*
X68931188Y-80933926D01*
X68931186Y-80933931D01*
X68871951Y-81154997D01*
X68852004Y-81383000D01*
X68227995Y-81383000D01*
X68208048Y-81154997D01*
X68148813Y-80933931D01*
X68148811Y-80933926D01*
X68052086Y-80726498D01*
X68002100Y-80655110D01*
X68002098Y-80655110D01*
X67313727Y-81343481D01*
X67300165Y-81257852D01*
X67242641Y-81144955D01*
X67153045Y-81055359D01*
X67040148Y-80997835D01*
X66954517Y-80984272D01*
X67642888Y-80295899D01*
X67642888Y-80295898D01*
X67571501Y-80245913D01*
X67364073Y-80149188D01*
X67364068Y-80149186D01*
X67143000Y-80089951D01*
X67143004Y-80089951D01*
X66915000Y-80070004D01*
X66686997Y-80089951D01*
X66465931Y-80149186D01*
X66465926Y-80149188D01*
X66258500Y-80245913D01*
X66187109Y-80295900D01*
X66875481Y-80984272D01*
X66789852Y-80997835D01*
X66676955Y-81055359D01*
X66587359Y-81144955D01*
X66529835Y-81257852D01*
X66516272Y-81343481D01*
X65827900Y-80655109D01*
X65777913Y-80726500D01*
X65681188Y-80933926D01*
X65681186Y-80933931D01*
X65621951Y-81154997D01*
X65602004Y-81383000D01*
X64015235Y-81383000D01*
X64019986Y-81353000D01*
X64000165Y-81227852D01*
X63942641Y-81114955D01*
X63926686Y-81099000D01*
X64901082Y-81099000D01*
X64848813Y-80903931D01*
X64848811Y-80903926D01*
X64752087Y-80696501D01*
X64620815Y-80509025D01*
X64620810Y-80509019D01*
X64458980Y-80347189D01*
X64458974Y-80347184D01*
X64271498Y-80215912D01*
X64064073Y-80119188D01*
X64064071Y-80119187D01*
X63869000Y-80066917D01*
X63869000Y-81041314D01*
X63853045Y-81025359D01*
X63740148Y-80967835D01*
X63646481Y-80953000D01*
X63583519Y-80953000D01*
X63489852Y-80967835D01*
X63376955Y-81025359D01*
X63361000Y-81041314D01*
X63361000Y-80066917D01*
X63360999Y-80066917D01*
X63165928Y-80119187D01*
X63165926Y-80119188D01*
X62958501Y-80215912D01*
X62771025Y-80347184D01*
X62771019Y-80347189D01*
X62609189Y-80509019D01*
X62609184Y-80509025D01*
X62477912Y-80696501D01*
X62381188Y-80903926D01*
X62381186Y-80903931D01*
X62328917Y-81099000D01*
X60921304Y-81099000D01*
X62304399Y-79715905D01*
X62366711Y-79681879D01*
X62393494Y-79679000D01*
X80483973Y-79679000D01*
X80552094Y-79699002D01*
G37*
G04 #@! TD.AperFunction*
G04 #@! TA.AperFunction,Conductor*
G36*
X118601000Y-93113314D02*
G01*
X118585045Y-93097359D01*
X118472148Y-93039835D01*
X118378481Y-93025000D01*
X118315519Y-93025000D01*
X118221852Y-93039835D01*
X118108955Y-93097359D01*
X118093000Y-93113314D01*
X118093000Y-91196686D01*
X118108955Y-91212641D01*
X118221852Y-91270165D01*
X118315519Y-91285000D01*
X118378481Y-91285000D01*
X118472148Y-91270165D01*
X118585045Y-91212641D01*
X118601000Y-91196686D01*
X118601000Y-93113314D01*
G37*
G04 #@! TD.AperFunction*
G04 #@! TA.AperFunction,Conductor*
G36*
X82761835Y-87730148D02*
G01*
X82819359Y-87843045D01*
X82908955Y-87932641D01*
X83021852Y-87990165D01*
X83107482Y-88003727D01*
X82482870Y-88628338D01*
X82482870Y-88628339D01*
X82535072Y-88664891D01*
X82535071Y-88664891D01*
X82578420Y-88685105D01*
X82631705Y-88732022D01*
X82651166Y-88800300D01*
X82630624Y-88868260D01*
X82576601Y-88914325D01*
X82525170Y-88925300D01*
X82387150Y-88925300D01*
X82326603Y-88931809D01*
X82326595Y-88931811D01*
X82189597Y-88982910D01*
X82189592Y-88982912D01*
X82072538Y-89070538D01*
X81984912Y-89187592D01*
X81984910Y-89187597D01*
X81933811Y-89324595D01*
X81933809Y-89324603D01*
X81927300Y-89385150D01*
X81927300Y-89523170D01*
X81907298Y-89591291D01*
X81853642Y-89637784D01*
X81783368Y-89647888D01*
X81718788Y-89618394D01*
X81687106Y-89576421D01*
X81666891Y-89533072D01*
X81666889Y-89533068D01*
X81630340Y-89480870D01*
X81630337Y-89480870D01*
X81005726Y-90105480D01*
X80992165Y-90019852D01*
X80934641Y-89906955D01*
X80845045Y-89817359D01*
X80732148Y-89759835D01*
X80646517Y-89746272D01*
X81271128Y-89121660D01*
X81218924Y-89085106D01*
X81025580Y-88994949D01*
X81022060Y-88993668D01*
X81020725Y-88992685D01*
X81020598Y-88992626D01*
X81020609Y-88992600D01*
X80964889Y-88951574D01*
X80939551Y-88885252D01*
X80954092Y-88815761D01*
X81003894Y-88765162D01*
X81022063Y-88756865D01*
X81025751Y-88755522D01*
X81025750Y-88755522D01*
X81025755Y-88755521D01*
X81219180Y-88665326D01*
X81394003Y-88542913D01*
X81544913Y-88392003D01*
X81667326Y-88217180D01*
X81757521Y-88023755D01*
X81757523Y-88023749D01*
X81758865Y-88020063D01*
X81800958Y-87962891D01*
X81867279Y-87937552D01*
X81936771Y-87952091D01*
X81987371Y-88001892D01*
X81995668Y-88020060D01*
X81996949Y-88023580D01*
X82087106Y-88216924D01*
X82123660Y-88269128D01*
X82748272Y-87644516D01*
X82761835Y-87730148D01*
G37*
G04 #@! TD.AperFunction*
G04 #@! TA.AperFunction,Conductor*
G36*
X84170337Y-88269128D02*
G01*
X84170339Y-88269128D01*
X84206890Y-88216929D01*
X84206891Y-88216928D01*
X84297045Y-88023592D01*
X84298326Y-88020072D01*
X84299309Y-88018735D01*
X84299374Y-88018598D01*
X84299401Y-88018610D01*
X84340415Y-87962897D01*
X84406734Y-87937552D01*
X84476227Y-87952086D01*
X84526831Y-88001883D01*
X84535130Y-88020051D01*
X84536476Y-88023749D01*
X84626673Y-88217178D01*
X84626674Y-88217180D01*
X84749083Y-88391998D01*
X84749090Y-88392007D01*
X84899992Y-88542909D01*
X84900001Y-88542916D01*
X84940106Y-88570998D01*
X85074820Y-88665326D01*
X85213869Y-88730165D01*
X85268249Y-88755523D01*
X85271208Y-88756600D01*
X85272328Y-88757425D01*
X85273231Y-88757846D01*
X85273146Y-88758027D01*
X85328378Y-88798696D01*
X85353714Y-88865018D01*
X85339171Y-88934510D01*
X85289367Y-88985107D01*
X85271208Y-88993400D01*
X85268249Y-88994476D01*
X85074820Y-89084674D01*
X84900000Y-89207084D01*
X84899994Y-89207089D01*
X84749089Y-89357994D01*
X84749084Y-89358000D01*
X84626674Y-89532820D01*
X84606895Y-89575237D01*
X84559978Y-89628522D01*
X84491700Y-89647983D01*
X84423740Y-89627441D01*
X84377675Y-89573418D01*
X84366700Y-89521987D01*
X84366700Y-89385167D01*
X84366699Y-89385150D01*
X84360190Y-89324603D01*
X84360188Y-89324595D01*
X84317246Y-89209465D01*
X84309089Y-89187596D01*
X84309088Y-89187594D01*
X84309087Y-89187592D01*
X84221461Y-89070538D01*
X84104407Y-88982912D01*
X84104402Y-88982910D01*
X83967404Y-88931811D01*
X83967396Y-88931809D01*
X83906849Y-88925300D01*
X83906838Y-88925300D01*
X83768830Y-88925300D01*
X83700709Y-88905298D01*
X83654216Y-88851642D01*
X83644112Y-88781368D01*
X83673606Y-88716788D01*
X83715580Y-88685105D01*
X83758928Y-88664891D01*
X83758929Y-88664890D01*
X83811128Y-88628339D01*
X83811128Y-88628337D01*
X83186518Y-88003727D01*
X83272148Y-87990165D01*
X83385045Y-87932641D01*
X83474641Y-87843045D01*
X83532165Y-87730148D01*
X83545727Y-87644518D01*
X84170337Y-88269128D01*
G37*
G04 #@! TD.AperFunction*
G04 #@! TA.AperFunction,Conductor*
G36*
X99883083Y-62502502D02*
G01*
X99920445Y-62539585D01*
X100016275Y-62686265D01*
X100016279Y-62686270D01*
X100168762Y-62851908D01*
X100223331Y-62894381D01*
X100346424Y-62990189D01*
X100544426Y-63097342D01*
X100544427Y-63097342D01*
X100544428Y-63097343D01*
X100622640Y-63124193D01*
X100757365Y-63170444D01*
X100979431Y-63207500D01*
X100979435Y-63207500D01*
X101204565Y-63207500D01*
X101204569Y-63207500D01*
X101426635Y-63170444D01*
X101639574Y-63097342D01*
X101837576Y-62990189D01*
X102015240Y-62851906D01*
X102167722Y-62686268D01*
X102256518Y-62550354D01*
X102310520Y-62504268D01*
X102380868Y-62494692D01*
X102445225Y-62524669D01*
X102467480Y-62550353D01*
X102500607Y-62601058D01*
X102556275Y-62686265D01*
X102556279Y-62686270D01*
X102708762Y-62851908D01*
X102763331Y-62894381D01*
X102886424Y-62990189D01*
X103084426Y-63097342D01*
X103084427Y-63097342D01*
X103084428Y-63097343D01*
X103162640Y-63124193D01*
X103297365Y-63170444D01*
X103519431Y-63207500D01*
X103519435Y-63207500D01*
X103744565Y-63207500D01*
X103744569Y-63207500D01*
X103966635Y-63170444D01*
X104179574Y-63097342D01*
X104377576Y-62990189D01*
X104555240Y-62851906D01*
X104707722Y-62686268D01*
X104796518Y-62550354D01*
X104850520Y-62504268D01*
X104920868Y-62494692D01*
X104985225Y-62524669D01*
X105007480Y-62550353D01*
X105040607Y-62601058D01*
X105096275Y-62686265D01*
X105096279Y-62686270D01*
X105248762Y-62851908D01*
X105303331Y-62894381D01*
X105426424Y-62990189D01*
X105624426Y-63097342D01*
X105624427Y-63097342D01*
X105624428Y-63097343D01*
X105702640Y-63124193D01*
X105837365Y-63170444D01*
X106059431Y-63207500D01*
X106059435Y-63207500D01*
X106284565Y-63207500D01*
X106284569Y-63207500D01*
X106506635Y-63170444D01*
X106719574Y-63097342D01*
X106917576Y-62990189D01*
X107095240Y-62851906D01*
X107247722Y-62686268D01*
X107336518Y-62550354D01*
X107390520Y-62504268D01*
X107460868Y-62494692D01*
X107525225Y-62524669D01*
X107547480Y-62550353D01*
X107580607Y-62601058D01*
X107636275Y-62686265D01*
X107636279Y-62686270D01*
X107788762Y-62851908D01*
X107843331Y-62894381D01*
X107966424Y-62990189D01*
X107966430Y-62990192D01*
X108015335Y-63016658D01*
X108065726Y-63066671D01*
X108079376Y-63116472D01*
X108080087Y-63116360D01*
X108081101Y-63122762D01*
X108081304Y-63123503D01*
X108081325Y-63124178D01*
X108081327Y-63124193D01*
X108086977Y-63143639D01*
X108090986Y-63162997D01*
X108093525Y-63183093D01*
X108093526Y-63183100D01*
X108109800Y-63224203D01*
X108113644Y-63235429D01*
X108125982Y-63277893D01*
X108136294Y-63295331D01*
X108144988Y-63313079D01*
X108152444Y-63331909D01*
X108152450Y-63331920D01*
X108178432Y-63367681D01*
X108184949Y-63377601D01*
X108207458Y-63415662D01*
X108207459Y-63415663D01*
X108207461Y-63415666D01*
X108221779Y-63429984D01*
X108234617Y-63445014D01*
X108246526Y-63461404D01*
X108246530Y-63461409D01*
X108280598Y-63489592D01*
X108289378Y-63497582D01*
X113647295Y-68855499D01*
X113681321Y-68917811D01*
X113684200Y-68944594D01*
X113684200Y-75303729D01*
X113664198Y-75371850D01*
X113610542Y-75418343D01*
X113540268Y-75428447D01*
X113504950Y-75417924D01*
X113352246Y-75346717D01*
X113352240Y-75346715D01*
X113191814Y-75303729D01*
X113131087Y-75287457D01*
X112903000Y-75267502D01*
X112674913Y-75287457D01*
X112453759Y-75346715D01*
X112453753Y-75346717D01*
X112246250Y-75443477D01*
X112058703Y-75574799D01*
X112058697Y-75574804D01*
X111896804Y-75736697D01*
X111896799Y-75736703D01*
X111783583Y-75898392D01*
X111728126Y-75942720D01*
X111688285Y-75951872D01*
X111658054Y-75953774D01*
X111658040Y-75953777D01*
X111650208Y-75956322D01*
X111627074Y-75961493D01*
X111611040Y-75963519D01*
X111610626Y-75960247D01*
X111554776Y-75958308D01*
X111496418Y-75917874D01*
X111491236Y-75910988D01*
X111369200Y-75736703D01*
X111369195Y-75736697D01*
X111207302Y-75574804D01*
X111207296Y-75574799D01*
X111019749Y-75443477D01*
X110812246Y-75346717D01*
X110812240Y-75346715D01*
X110651814Y-75303729D01*
X110591087Y-75287457D01*
X110363000Y-75267502D01*
X110134913Y-75287457D01*
X109913759Y-75346715D01*
X109913753Y-75346717D01*
X109706250Y-75443477D01*
X109518703Y-75574799D01*
X109518697Y-75574804D01*
X109356804Y-75736697D01*
X109356799Y-75736703D01*
X109225477Y-75924250D01*
X109207195Y-75963457D01*
X109160278Y-76016742D01*
X109092001Y-76036203D01*
X109024041Y-76015661D01*
X108978805Y-75963457D01*
X108969135Y-75942720D01*
X108960523Y-75924251D01*
X108829198Y-75736700D01*
X108667300Y-75574802D01*
X108479749Y-75443477D01*
X108424950Y-75417924D01*
X108272246Y-75346717D01*
X108272240Y-75346715D01*
X108111814Y-75303729D01*
X108051087Y-75287457D01*
X107823000Y-75267502D01*
X107594913Y-75287457D01*
X107373759Y-75346715D01*
X107373753Y-75346717D01*
X107166250Y-75443477D01*
X106978703Y-75574799D01*
X106978697Y-75574804D01*
X106816804Y-75736697D01*
X106816799Y-75736703D01*
X106685477Y-75924250D01*
X106667195Y-75963457D01*
X106620278Y-76016742D01*
X106552001Y-76036203D01*
X106484041Y-76015661D01*
X106438805Y-75963457D01*
X106429135Y-75942720D01*
X106420523Y-75924251D01*
X106289198Y-75736700D01*
X106127300Y-75574802D01*
X105939749Y-75443477D01*
X105884950Y-75417924D01*
X105732246Y-75346717D01*
X105732240Y-75346715D01*
X105571814Y-75303729D01*
X105511087Y-75287457D01*
X105283000Y-75267502D01*
X105054913Y-75287457D01*
X104833759Y-75346715D01*
X104833753Y-75346717D01*
X104626250Y-75443477D01*
X104438703Y-75574799D01*
X104438697Y-75574804D01*
X104276804Y-75736697D01*
X104276799Y-75736703D01*
X104145477Y-75924250D01*
X104127195Y-75963457D01*
X104080278Y-76016742D01*
X104012001Y-76036203D01*
X103944041Y-76015661D01*
X103898805Y-75963457D01*
X103889135Y-75942720D01*
X103880523Y-75924251D01*
X103749198Y-75736700D01*
X103587300Y-75574802D01*
X103399749Y-75443477D01*
X103344950Y-75417924D01*
X103192246Y-75346717D01*
X103192240Y-75346715D01*
X103031814Y-75303729D01*
X102971087Y-75287457D01*
X102743000Y-75267502D01*
X102514913Y-75287457D01*
X102293759Y-75346715D01*
X102293753Y-75346717D01*
X102086250Y-75443477D01*
X101898703Y-75574799D01*
X101898697Y-75574804D01*
X101736804Y-75736697D01*
X101736799Y-75736703D01*
X101605477Y-75924250D01*
X101587195Y-75963457D01*
X101540278Y-76016742D01*
X101472001Y-76036203D01*
X101404041Y-76015661D01*
X101358805Y-75963457D01*
X101349135Y-75942720D01*
X101340523Y-75924251D01*
X101209198Y-75736700D01*
X101047300Y-75574802D01*
X100859749Y-75443477D01*
X100804950Y-75417924D01*
X100652246Y-75346717D01*
X100652240Y-75346715D01*
X100491814Y-75303729D01*
X100431087Y-75287457D01*
X100203000Y-75267502D01*
X99974913Y-75287457D01*
X99753759Y-75346715D01*
X99753753Y-75346717D01*
X99546250Y-75443477D01*
X99358703Y-75574799D01*
X99358697Y-75574804D01*
X99196804Y-75736697D01*
X99196795Y-75736708D01*
X99194483Y-75740010D01*
X99139021Y-75784333D01*
X99068401Y-75791635D01*
X99005044Y-75759598D01*
X98969065Y-75698393D01*
X98965999Y-75681198D01*
X98964989Y-75671799D01*
X98913889Y-75534796D01*
X98913888Y-75534794D01*
X98913887Y-75534792D01*
X98826261Y-75417738D01*
X98709207Y-75330112D01*
X98709202Y-75330110D01*
X98572204Y-75279011D01*
X98572196Y-75279009D01*
X98511649Y-75272500D01*
X98511638Y-75272500D01*
X96814362Y-75272500D01*
X96814350Y-75272500D01*
X96753803Y-75279009D01*
X96753795Y-75279011D01*
X96616797Y-75330110D01*
X96616792Y-75330112D01*
X96499738Y-75417738D01*
X96412112Y-75534792D01*
X96412110Y-75534797D01*
X96361011Y-75671795D01*
X96361009Y-75671803D01*
X96354500Y-75732350D01*
X96354500Y-77429632D01*
X96354501Y-77429654D01*
X96356638Y-77449534D01*
X96344031Y-77519402D01*
X96295652Y-77571363D01*
X96231360Y-77589000D01*
X95678953Y-77589000D01*
X95663111Y-77587250D01*
X95663084Y-77587544D01*
X95655191Y-77586797D01*
X95587101Y-77588938D01*
X95583143Y-77589000D01*
X95555244Y-77589000D01*
X95555238Y-77589000D01*
X95555232Y-77589001D01*
X95551233Y-77589506D01*
X95539413Y-77590436D01*
X95495214Y-77591825D01*
X95495207Y-77591827D01*
X95475749Y-77597479D01*
X95456404Y-77601485D01*
X95436305Y-77604025D01*
X95434500Y-77604739D01*
X95431182Y-77606053D01*
X95384803Y-77614900D01*
X95198713Y-77614900D01*
X95011911Y-77654606D01*
X94837447Y-77732282D01*
X94682946Y-77844534D01*
X94678070Y-77849950D01*
X94617623Y-77887189D01*
X94546640Y-77885837D01*
X94495339Y-77854734D01*
X92934444Y-76293839D01*
X92924479Y-76281401D01*
X92924252Y-76281590D01*
X92919201Y-76275484D01*
X92919200Y-76275482D01*
X92869548Y-76228856D01*
X92866705Y-76226100D01*
X92846977Y-76206371D01*
X92846971Y-76206366D01*
X92843767Y-76203880D01*
X92834756Y-76196183D01*
X92802525Y-76165917D01*
X92802519Y-76165913D01*
X92784763Y-76156151D01*
X92768247Y-76145302D01*
X92752241Y-76132886D01*
X92711664Y-76115327D01*
X92701007Y-76110105D01*
X92662263Y-76088806D01*
X92662260Y-76088805D01*
X92642636Y-76083766D01*
X92623936Y-76077364D01*
X92605345Y-76069319D01*
X92605343Y-76069318D01*
X92605341Y-76069318D01*
X92561674Y-76062401D01*
X92550055Y-76059995D01*
X92507230Y-76049000D01*
X92486976Y-76049000D01*
X92467266Y-76047449D01*
X92447257Y-76044280D01*
X92403239Y-76048441D01*
X92391381Y-76049000D01*
X79410500Y-76049000D01*
X79342379Y-76028998D01*
X79316863Y-76007310D01*
X79313552Y-76003633D01*
X79159052Y-75891382D01*
X78984588Y-75813706D01*
X78797787Y-75774000D01*
X78606813Y-75774000D01*
X78420011Y-75813706D01*
X78245547Y-75891382D01*
X78091044Y-76003635D01*
X77963265Y-76145548D01*
X77963258Y-76145558D01*
X77867776Y-76310938D01*
X77867773Y-76310945D01*
X77808757Y-76492572D01*
X77790565Y-76665670D01*
X77763552Y-76731327D01*
X77705331Y-76771957D01*
X77665255Y-76778500D01*
X74398894Y-76778500D01*
X74330773Y-76758498D01*
X74309799Y-76741595D01*
X65736544Y-68168339D01*
X65726579Y-68155901D01*
X65726352Y-68156090D01*
X65721301Y-68149984D01*
X65721300Y-68149982D01*
X65671648Y-68103356D01*
X65668805Y-68100600D01*
X65649077Y-68080871D01*
X65649071Y-68080866D01*
X65645867Y-68078380D01*
X65636856Y-68070683D01*
X65604625Y-68040417D01*
X65604619Y-68040413D01*
X65586863Y-68030651D01*
X65570347Y-68019802D01*
X65554341Y-68007386D01*
X65513764Y-67989827D01*
X65503107Y-67984606D01*
X65483030Y-67973569D01*
X65432970Y-67923224D01*
X65417729Y-67863153D01*
X65417729Y-67807005D01*
X65412500Y-67733892D01*
X65412500Y-67733889D01*
X65371304Y-67593589D01*
X65292250Y-67470579D01*
X65181743Y-67374824D01*
X65048734Y-67314081D01*
X65048728Y-67314079D01*
X64910651Y-67294226D01*
X64846071Y-67264733D01*
X64807688Y-67205006D01*
X64807688Y-67134010D01*
X64839487Y-67080416D01*
X69400499Y-62519405D01*
X69462811Y-62485379D01*
X69489594Y-62482500D01*
X99814962Y-62482500D01*
X99883083Y-62502502D01*
G37*
G04 #@! TD.AperFunction*
M02*
