M48
; DRILL file {KiCad 7.0.10} date Wed Apr  3 18:47:57 2024
; FORMAT={-:-/ absolute / inch / decimal}
; #@! TF.CreationDate,2024-04-03T18:47:57+02:00
; #@! TF.GenerationSoftware,Kicad,Pcbnew,7.0.10
; #@! TF.FileFunction,Plated,1,2,PTH
FMAT,2
INCH
; #@! TA.AperFunction,Plated,PTH,ViaDrill
T1C0.0157
; #@! TA.AperFunction,Plated,PTH,ComponentDrill
T2C0.0276
; #@! TA.AperFunction,Plated,PTH,ComponentDrill
T3C0.0315
; #@! TA.AperFunction,Plated,PTH,ComponentDrill
T4C0.0394
; #@! TA.AperFunction,Plated,PTH,ComponentDrill
T5C0.0433
%
G90
G05
T1
X2.1711Y-4.9663
X2.5733Y-4.9532
X2.6032Y-4.8828
X2.7617Y-2.9388
X2.7617Y-3.0372
X2.8601Y-2.8404
X3.0985Y-3.019
X3.3143Y-3.0477
X3.3326Y-2.3089
X3.3326Y-2.5254
X3.4006Y-4.7907
X3.4034Y-4.4092
X3.4212Y-4.7234
X3.5124Y-3.7906
X3.7041Y-3.8237
X3.7517Y-3.0915
X3.7795Y-3.211
X3.7894Y-3.1128
X4.0134Y-3.3247
X4.0867Y-4.0379
X4.3663Y-4.9365
X4.6776Y-3.184
T2
X1.87Y-3.215
X1.87Y-3.4791
X2.1041Y-3.4791
X2.105Y-3.205
T3
X2.5045Y-3.2029
X2.5045Y-3.5029
X2.6344Y-3.2041
X2.6344Y-3.5041
X2.7624Y-3.2041
X2.7624Y-3.5041
X3.0735Y-3.549
X3.0735Y-3.649
X3.0735Y-3.749
X3.0735Y-3.849
X3.0735Y-3.949
X3.1735Y-3.449
X3.1735Y-3.549
X3.1735Y-3.649
X3.1735Y-3.749
X3.1735Y-3.849
X3.1735Y-3.949
X3.1735Y-4.049
X3.2144Y-3.175
X3.2735Y-3.449
X3.2735Y-3.549
X3.2735Y-3.949
X3.2735Y-4.049
X3.3735Y-3.449
X3.3735Y-3.549
X3.3735Y-3.949
X3.3735Y-4.049
X3.4113Y-3.175
X3.4735Y-3.449
X3.4735Y-3.549
X3.4735Y-3.649
X3.4735Y-3.749
X3.4735Y-3.849
X3.4735Y-3.949
X3.4735Y-4.049
X3.5735Y-3.549
X3.5735Y-3.649
X3.5735Y-3.749
X3.5735Y-3.849
X3.5735Y-3.949
X3.845Y-3.015
X3.8662Y-3.4778
X3.8662Y-3.5778
X3.8662Y-3.6778
X3.8662Y-3.7778
X3.8662Y-3.8778
X3.8662Y-3.9778
X3.8662Y-4.0778
X3.9162Y-3.2678
X3.945Y-3.015
X4.045Y-3.015
X4.0668Y-4.4467
X4.113Y-3.2678
X4.145Y-3.015
X4.1652Y-4.4467
X4.1662Y-3.4778
X4.1662Y-3.5778
X4.1662Y-3.6778
X4.1662Y-3.7778
X4.1662Y-3.8778
X4.1662Y-3.9778
X4.1662Y-4.0778
X4.245Y-3.015
X4.345Y-3.015
X4.3593Y-3.4781
X4.3593Y-3.5781
X4.3593Y-3.6781
X4.3593Y-3.7781
X4.3593Y-3.8781
X4.3593Y-3.9781
X4.3593Y-4.0781
X4.3593Y-4.1781
X4.4093Y-3.2695
X4.445Y-3.015
X4.4466Y-4.445
X4.545Y-3.015
X4.545Y-4.445
X4.6062Y-3.2695
X4.645Y-3.015
X4.6593Y-3.4781
X4.6593Y-3.5781
X4.6593Y-3.6781
X4.6593Y-3.7781
X4.6593Y-3.8781
X4.6593Y-3.9781
X4.6593Y-4.0781
X4.6593Y-4.1781
T4
X3.98Y-2.435
X4.08Y-2.435
X4.18Y-2.435
X4.28Y-2.435
X4.38Y-2.435
X4.48Y-2.435
T5
X1.9192Y-2.0608
X1.9192Y-2.238
X2.1751Y-2.0608
X2.1751Y-2.238
M30
