G04 #@! TF.GenerationSoftware,KiCad,Pcbnew,7.0.10*
G04 #@! TF.CreationDate,2024-04-03T18:47:56+02:00*
G04 #@! TF.ProjectId,p2000t-multicartridge,70323030-3074-42d6-9d75-6c7469636172,rev?*
G04 #@! TF.SameCoordinates,Original*
G04 #@! TF.FileFunction,Soldermask,Bot*
G04 #@! TF.FilePolarity,Negative*
%FSLAX46Y46*%
G04 Gerber Fmt 4.6, Leading zero omitted, Abs format (unit mm)*
G04 Created by KiCad (PCBNEW 7.0.10) date 2024-04-03 18:47:56*
%MOMM*%
%LPD*%
G01*
G04 APERTURE LIST*
G04 Aperture macros list*
%AMFreePoly0*
4,1,6,1.000000,0.000000,0.500000,-0.750000,-0.500000,-0.750000,-0.500000,0.750000,0.500000,0.750000,1.000000,0.000000,1.000000,0.000000,$1*%
%AMFreePoly1*
4,1,6,0.500000,-0.750000,-0.650000,-0.750000,-0.150000,0.000000,-0.650000,0.750000,0.500000,0.750000,0.500000,-0.750000,0.500000,-0.750000,$1*%
G04 Aperture macros list end*
%ADD10C,2.000000*%
%ADD11C,1.500000*%
%ADD12R,1.600000X1.600000*%
%ADD13O,1.600000X1.600000*%
%ADD14C,1.600000*%
%ADD15R,1.700000X1.700000*%
%ADD16O,1.700000X1.700000*%
%ADD17FreePoly0,0.000000*%
%ADD18FreePoly1,0.000000*%
%ADD19R,2.000000X10.000000*%
%ADD20R,1.422400X1.422400*%
%ADD21C,1.422400*%
G04 APERTURE END LIST*
D10*
X55247000Y-52345000D03*
X48747000Y-52345000D03*
X55247000Y-56845000D03*
X48747000Y-56845000D03*
D11*
X47498000Y-81661000D03*
X47498000Y-88370000D03*
X53445000Y-88370000D03*
X53467000Y-81407000D03*
D12*
X105821000Y-88337000D03*
D13*
X105821000Y-90877000D03*
X105821000Y-93417000D03*
X105821000Y-95957000D03*
X105821000Y-98497000D03*
X105821000Y-101037000D03*
X105821000Y-103577000D03*
X98201000Y-103577000D03*
X98201000Y-101037000D03*
X98201000Y-98497000D03*
X98201000Y-95957000D03*
X98201000Y-93417000D03*
X98201000Y-90877000D03*
X98201000Y-88337000D03*
D14*
X99471000Y-83003000D03*
X104471000Y-83003000D03*
X86647000Y-80645000D03*
X81647000Y-80645000D03*
D15*
X113792000Y-61849000D03*
D16*
X111252000Y-61849000D03*
X108712000Y-61849000D03*
X106172000Y-61849000D03*
X103632000Y-61849000D03*
X101092000Y-61849000D03*
D17*
X62954000Y-68557000D03*
D18*
X64404000Y-68557000D03*
D12*
X118347000Y-88345000D03*
D13*
X118347000Y-90885000D03*
X118347000Y-93425000D03*
X118347000Y-95965000D03*
X118347000Y-98505000D03*
X118347000Y-101045000D03*
X118347000Y-103585000D03*
X118347000Y-106125000D03*
X110727000Y-106125000D03*
X110727000Y-103585000D03*
X110727000Y-101045000D03*
X110727000Y-98505000D03*
X110727000Y-95965000D03*
X110727000Y-93425000D03*
X110727000Y-90885000D03*
X110727000Y-88345000D03*
D12*
X105797000Y-112945000D03*
D14*
X103297000Y-112945000D03*
X116997000Y-83045000D03*
X111997000Y-83045000D03*
X70165000Y-81383000D03*
D13*
X70165000Y-89003000D03*
D14*
X66915000Y-81383000D03*
D13*
X66915000Y-89003000D03*
D14*
X63615000Y-88973000D03*
D13*
X63615000Y-81353000D03*
D19*
X55465000Y-139192000D03*
X59425000Y-139192000D03*
X63385000Y-139192000D03*
X67345000Y-139192000D03*
X71305000Y-139192000D03*
X75265000Y-139192000D03*
X79225000Y-139192000D03*
X83185000Y-139192000D03*
X87145000Y-139192000D03*
X91105000Y-139192000D03*
X95065000Y-139192000D03*
X99025000Y-139192000D03*
X102985000Y-139192000D03*
X110905000Y-139192000D03*
D12*
X115443000Y-112903000D03*
D14*
X112943000Y-112903000D03*
D12*
X97663000Y-76581000D03*
D13*
X100203000Y-76581000D03*
X102743000Y-76581000D03*
X105283000Y-76581000D03*
X107823000Y-76581000D03*
X110363000Y-76581000D03*
X112903000Y-76581000D03*
X115443000Y-76581000D03*
X117983000Y-76581000D03*
D20*
X83147000Y-90145000D03*
D21*
X85687000Y-87605000D03*
X85687000Y-90145000D03*
X88227000Y-87605000D03*
X90767000Y-90145000D03*
X88227000Y-90145000D03*
X90767000Y-92685000D03*
X88227000Y-92685000D03*
X90767000Y-95225000D03*
X88227000Y-95225000D03*
X90767000Y-97765000D03*
X88227000Y-97765000D03*
X90767000Y-100305000D03*
X88227000Y-102845000D03*
X88227000Y-100305000D03*
X85687000Y-102845000D03*
X85687000Y-100305000D03*
X83147000Y-102845000D03*
X83147000Y-100305000D03*
X80607000Y-102845000D03*
X78067000Y-100305000D03*
X80607000Y-100305000D03*
X78067000Y-97765000D03*
X80607000Y-97765000D03*
X78067000Y-95225000D03*
X80607000Y-95225000D03*
X78067000Y-92685000D03*
X80607000Y-92685000D03*
X78067000Y-90145000D03*
X80607000Y-87605000D03*
X80607000Y-90145000D03*
X83147000Y-87605000D03*
M02*
