G04 #@! TF.GenerationSoftware,KiCad,Pcbnew,8.0.2*
G04 #@! TF.CreationDate,2025-01-06T09:06:17+01:00*
G04 #@! TF.ProjectId,multicartridge-sst39sf010,6d756c74-6963-4617-9274-72696467652d,rev?*
G04 #@! TF.SameCoordinates,Original*
G04 #@! TF.FileFunction,Legend,Bot*
G04 #@! TF.FilePolarity,Positive*
%FSLAX46Y46*%
G04 Gerber Fmt 4.6, Leading zero omitted, Abs format (unit mm)*
G04 Created by KiCad (PCBNEW 8.0.2) date 2025-01-06 09:06:17*
%MOMM*%
%LPD*%
G01*
G04 APERTURE LIST*
%ADD10C,0.120000*%
%ADD11C,0.150000*%
%ADD12C,0.300000*%
%ADD13R,1.600000X1.600000*%
%ADD14O,1.600000X1.600000*%
%ADD15C,1.600000*%
%ADD16R,1.422400X1.422400*%
%ADD17C,1.422400*%
%ADD18R,2.000000X10.000000*%
G04 APERTURE END LIST*
D10*
X96251000Y-131445000D02*
X74153000Y-131445000D01*
X72375000Y-131445000D02*
X58278000Y-131445000D01*
X54197000Y-131745000D02*
X54197000Y-128645000D01*
X111999000Y-131451000D02*
X109586000Y-131451000D01*
X111999000Y-127895000D02*
X111999000Y-131451000D01*
X109586000Y-127895000D02*
X111999000Y-127895000D01*
X109586000Y-131451000D02*
X109586000Y-127895000D01*
X56647000Y-128645000D02*
X56647000Y-131745000D01*
X56647000Y-131745000D02*
X54197000Y-131745000D01*
X54197000Y-128645000D02*
X56647000Y-128645000D01*
D11*
X111498857Y-133042819D02*
X112070285Y-133042819D01*
X111784571Y-133042819D02*
X111784571Y-132042819D01*
X111784571Y-132042819D02*
X111879809Y-132185676D01*
X111879809Y-132185676D02*
X111975047Y-132280914D01*
X111975047Y-132280914D02*
X112070285Y-132328533D01*
X110594095Y-132042819D02*
X111070285Y-132042819D01*
X111070285Y-132042819D02*
X111117904Y-132519009D01*
X111117904Y-132519009D02*
X111070285Y-132471390D01*
X111070285Y-132471390D02*
X110975047Y-132423771D01*
X110975047Y-132423771D02*
X110736952Y-132423771D01*
X110736952Y-132423771D02*
X110641714Y-132471390D01*
X110641714Y-132471390D02*
X110594095Y-132519009D01*
X110594095Y-132519009D02*
X110546476Y-132614247D01*
X110546476Y-132614247D02*
X110546476Y-132852342D01*
X110546476Y-132852342D02*
X110594095Y-132947580D01*
X110594095Y-132947580D02*
X110641714Y-132995200D01*
X110641714Y-132995200D02*
X110736952Y-133042819D01*
X110736952Y-133042819D02*
X110975047Y-133042819D01*
X110975047Y-133042819D02*
X111070285Y-132995200D01*
X111070285Y-132995200D02*
X111117904Y-132947580D01*
X109689333Y-133042819D02*
X109689333Y-132519009D01*
X109689333Y-132519009D02*
X109736952Y-132423771D01*
X109736952Y-132423771D02*
X109832190Y-132376152D01*
X109832190Y-132376152D02*
X110022666Y-132376152D01*
X110022666Y-132376152D02*
X110117904Y-132423771D01*
X109689333Y-132995200D02*
X109784571Y-133042819D01*
X109784571Y-133042819D02*
X110022666Y-133042819D01*
X110022666Y-133042819D02*
X110117904Y-132995200D01*
X110117904Y-132995200D02*
X110165523Y-132899961D01*
X110165523Y-132899961D02*
X110165523Y-132804723D01*
X110165523Y-132804723D02*
X110117904Y-132709485D01*
X110117904Y-132709485D02*
X110022666Y-132661866D01*
X110022666Y-132661866D02*
X109784571Y-132661866D01*
X109784571Y-132661866D02*
X109689333Y-132614247D01*
D12*
X102065528Y-130250285D02*
X101994100Y-130321713D01*
X101994100Y-130321713D02*
X101922671Y-130535999D01*
X101922671Y-130535999D02*
X101922671Y-130678856D01*
X101922671Y-130678856D02*
X101994100Y-130893142D01*
X101994100Y-130893142D02*
X102136957Y-131035999D01*
X102136957Y-131035999D02*
X102279814Y-131107428D01*
X102279814Y-131107428D02*
X102565528Y-131178856D01*
X102565528Y-131178856D02*
X102779814Y-131178856D01*
X102779814Y-131178856D02*
X103065528Y-131107428D01*
X103065528Y-131107428D02*
X103208385Y-131035999D01*
X103208385Y-131035999D02*
X103351242Y-130893142D01*
X103351242Y-130893142D02*
X103422671Y-130678856D01*
X103422671Y-130678856D02*
X103422671Y-130535999D01*
X103422671Y-130535999D02*
X103351242Y-130321713D01*
X103351242Y-130321713D02*
X103279814Y-130250285D01*
X101994100Y-129678856D02*
X101922671Y-129464571D01*
X101922671Y-129464571D02*
X101922671Y-129107428D01*
X101922671Y-129107428D02*
X101994100Y-128964571D01*
X101994100Y-128964571D02*
X102065528Y-128893142D01*
X102065528Y-128893142D02*
X102208385Y-128821713D01*
X102208385Y-128821713D02*
X102351242Y-128821713D01*
X102351242Y-128821713D02*
X102494100Y-128893142D01*
X102494100Y-128893142D02*
X102565528Y-128964571D01*
X102565528Y-128964571D02*
X102636957Y-129107428D01*
X102636957Y-129107428D02*
X102708385Y-129393142D01*
X102708385Y-129393142D02*
X102779814Y-129535999D01*
X102779814Y-129535999D02*
X102851242Y-129607428D01*
X102851242Y-129607428D02*
X102994100Y-129678856D01*
X102994100Y-129678856D02*
X103136957Y-129678856D01*
X103136957Y-129678856D02*
X103279814Y-129607428D01*
X103279814Y-129607428D02*
X103351242Y-129535999D01*
X103351242Y-129535999D02*
X103422671Y-129393142D01*
X103422671Y-129393142D02*
X103422671Y-129035999D01*
X103422671Y-129035999D02*
X103351242Y-128821713D01*
X101922671Y-127393142D02*
X101922671Y-128250285D01*
X101922671Y-127821714D02*
X103422671Y-127821714D01*
X103422671Y-127821714D02*
X103208385Y-127964571D01*
X103208385Y-127964571D02*
X103065528Y-128107428D01*
X103065528Y-128107428D02*
X102994100Y-128250285D01*
X103839100Y-131314571D02*
X103839100Y-127257429D01*
X98668242Y-131071713D02*
X98668242Y-130357428D01*
X98239671Y-131214570D02*
X99739671Y-130714570D01*
X99739671Y-130714570D02*
X98239671Y-130214570D01*
X98239671Y-128928856D02*
X98239671Y-129785999D01*
X98239671Y-129357428D02*
X99739671Y-129357428D01*
X99739671Y-129357428D02*
X99525385Y-129500285D01*
X99525385Y-129500285D02*
X99382528Y-129643142D01*
X99382528Y-129643142D02*
X99311100Y-129785999D01*
X99596814Y-128357428D02*
X99668242Y-128286000D01*
X99668242Y-128286000D02*
X99739671Y-128143143D01*
X99739671Y-128143143D02*
X99739671Y-127786000D01*
X99739671Y-127786000D02*
X99668242Y-127643143D01*
X99668242Y-127643143D02*
X99596814Y-127571714D01*
X99596814Y-127571714D02*
X99453957Y-127500285D01*
X99453957Y-127500285D02*
X99311100Y-127500285D01*
X99311100Y-127500285D02*
X99096814Y-127571714D01*
X99096814Y-127571714D02*
X98239671Y-128428857D01*
X98239671Y-128428857D02*
X98239671Y-127500285D01*
D11*
X91773570Y-130471104D02*
X91297380Y-130471104D01*
X91868808Y-130756819D02*
X91535475Y-129756819D01*
X91535475Y-129756819D02*
X91202142Y-130756819D01*
X90583094Y-131090152D02*
X90821189Y-131090152D01*
X90821189Y-131090152D02*
X90821189Y-129661580D01*
X90821189Y-129661580D02*
X90583094Y-129661580D01*
X89678332Y-130756819D02*
X90249760Y-130756819D01*
X89964046Y-130756819D02*
X89964046Y-129756819D01*
X89964046Y-129756819D02*
X90059284Y-129899676D01*
X90059284Y-129899676D02*
X90154522Y-129994914D01*
X90154522Y-129994914D02*
X90249760Y-130042533D01*
X89059284Y-129756819D02*
X88964046Y-129756819D01*
X88964046Y-129756819D02*
X88868808Y-129804438D01*
X88868808Y-129804438D02*
X88821189Y-129852057D01*
X88821189Y-129852057D02*
X88773570Y-129947295D01*
X88773570Y-129947295D02*
X88725951Y-130137771D01*
X88725951Y-130137771D02*
X88725951Y-130375866D01*
X88725951Y-130375866D02*
X88773570Y-130566342D01*
X88773570Y-130566342D02*
X88821189Y-130661580D01*
X88821189Y-130661580D02*
X88868808Y-130709200D01*
X88868808Y-130709200D02*
X88964046Y-130756819D01*
X88964046Y-130756819D02*
X89059284Y-130756819D01*
X89059284Y-130756819D02*
X89154522Y-130709200D01*
X89154522Y-130709200D02*
X89202141Y-130661580D01*
X89202141Y-130661580D02*
X89249760Y-130566342D01*
X89249760Y-130566342D02*
X89297379Y-130375866D01*
X89297379Y-130375866D02*
X89297379Y-130137771D01*
X89297379Y-130137771D02*
X89249760Y-129947295D01*
X89249760Y-129947295D02*
X89202141Y-129852057D01*
X89202141Y-129852057D02*
X89154522Y-129804438D01*
X89154522Y-129804438D02*
X89059284Y-129756819D01*
X88249760Y-130709200D02*
X88249760Y-130756819D01*
X88249760Y-130756819D02*
X88297379Y-130852057D01*
X88297379Y-130852057D02*
X88344998Y-130899676D01*
X87678332Y-130185390D02*
X87773570Y-130137771D01*
X87773570Y-130137771D02*
X87821189Y-130090152D01*
X87821189Y-130090152D02*
X87868808Y-129994914D01*
X87868808Y-129994914D02*
X87868808Y-129947295D01*
X87868808Y-129947295D02*
X87821189Y-129852057D01*
X87821189Y-129852057D02*
X87773570Y-129804438D01*
X87773570Y-129804438D02*
X87678332Y-129756819D01*
X87678332Y-129756819D02*
X87487856Y-129756819D01*
X87487856Y-129756819D02*
X87392618Y-129804438D01*
X87392618Y-129804438D02*
X87344999Y-129852057D01*
X87344999Y-129852057D02*
X87297380Y-129947295D01*
X87297380Y-129947295D02*
X87297380Y-129994914D01*
X87297380Y-129994914D02*
X87344999Y-130090152D01*
X87344999Y-130090152D02*
X87392618Y-130137771D01*
X87392618Y-130137771D02*
X87487856Y-130185390D01*
X87487856Y-130185390D02*
X87678332Y-130185390D01*
X87678332Y-130185390D02*
X87773570Y-130233009D01*
X87773570Y-130233009D02*
X87821189Y-130280628D01*
X87821189Y-130280628D02*
X87868808Y-130375866D01*
X87868808Y-130375866D02*
X87868808Y-130566342D01*
X87868808Y-130566342D02*
X87821189Y-130661580D01*
X87821189Y-130661580D02*
X87773570Y-130709200D01*
X87773570Y-130709200D02*
X87678332Y-130756819D01*
X87678332Y-130756819D02*
X87487856Y-130756819D01*
X87487856Y-130756819D02*
X87392618Y-130709200D01*
X87392618Y-130709200D02*
X87344999Y-130661580D01*
X87344999Y-130661580D02*
X87297380Y-130566342D01*
X87297380Y-130566342D02*
X87297380Y-130375866D01*
X87297380Y-130375866D02*
X87344999Y-130280628D01*
X87344999Y-130280628D02*
X87392618Y-130233009D01*
X87392618Y-130233009D02*
X87487856Y-130185390D01*
X86821189Y-130709200D02*
X86821189Y-130756819D01*
X86821189Y-130756819D02*
X86868808Y-130852057D01*
X86868808Y-130852057D02*
X86916427Y-130899676D01*
X85964047Y-129756819D02*
X86154523Y-129756819D01*
X86154523Y-129756819D02*
X86249761Y-129804438D01*
X86249761Y-129804438D02*
X86297380Y-129852057D01*
X86297380Y-129852057D02*
X86392618Y-129994914D01*
X86392618Y-129994914D02*
X86440237Y-130185390D01*
X86440237Y-130185390D02*
X86440237Y-130566342D01*
X86440237Y-130566342D02*
X86392618Y-130661580D01*
X86392618Y-130661580D02*
X86344999Y-130709200D01*
X86344999Y-130709200D02*
X86249761Y-130756819D01*
X86249761Y-130756819D02*
X86059285Y-130756819D01*
X86059285Y-130756819D02*
X85964047Y-130709200D01*
X85964047Y-130709200D02*
X85916428Y-130661580D01*
X85916428Y-130661580D02*
X85868809Y-130566342D01*
X85868809Y-130566342D02*
X85868809Y-130328247D01*
X85868809Y-130328247D02*
X85916428Y-130233009D01*
X85916428Y-130233009D02*
X85964047Y-130185390D01*
X85964047Y-130185390D02*
X86059285Y-130137771D01*
X86059285Y-130137771D02*
X86249761Y-130137771D01*
X86249761Y-130137771D02*
X86344999Y-130185390D01*
X86344999Y-130185390D02*
X86392618Y-130233009D01*
X86392618Y-130233009D02*
X86440237Y-130328247D01*
X85392618Y-130709200D02*
X85392618Y-130756819D01*
X85392618Y-130756819D02*
X85440237Y-130852057D01*
X85440237Y-130852057D02*
X85487856Y-130899676D01*
X84535476Y-130090152D02*
X84535476Y-130756819D01*
X84773571Y-129709200D02*
X85011666Y-130423485D01*
X85011666Y-130423485D02*
X84392619Y-130423485D01*
X83964047Y-130709200D02*
X83964047Y-130756819D01*
X83964047Y-130756819D02*
X84011666Y-130852057D01*
X84011666Y-130852057D02*
X84059285Y-130899676D01*
X83583095Y-129852057D02*
X83535476Y-129804438D01*
X83535476Y-129804438D02*
X83440238Y-129756819D01*
X83440238Y-129756819D02*
X83202143Y-129756819D01*
X83202143Y-129756819D02*
X83106905Y-129804438D01*
X83106905Y-129804438D02*
X83059286Y-129852057D01*
X83059286Y-129852057D02*
X83011667Y-129947295D01*
X83011667Y-129947295D02*
X83011667Y-130042533D01*
X83011667Y-130042533D02*
X83059286Y-130185390D01*
X83059286Y-130185390D02*
X83630714Y-130756819D01*
X83630714Y-130756819D02*
X83011667Y-130756819D01*
X82535476Y-130709200D02*
X82535476Y-130756819D01*
X82535476Y-130756819D02*
X82583095Y-130852057D01*
X82583095Y-130852057D02*
X82630714Y-130899676D01*
X81916429Y-129756819D02*
X81821191Y-129756819D01*
X81821191Y-129756819D02*
X81725953Y-129804438D01*
X81725953Y-129804438D02*
X81678334Y-129852057D01*
X81678334Y-129852057D02*
X81630715Y-129947295D01*
X81630715Y-129947295D02*
X81583096Y-130137771D01*
X81583096Y-130137771D02*
X81583096Y-130375866D01*
X81583096Y-130375866D02*
X81630715Y-130566342D01*
X81630715Y-130566342D02*
X81678334Y-130661580D01*
X81678334Y-130661580D02*
X81725953Y-130709200D01*
X81725953Y-130709200D02*
X81821191Y-130756819D01*
X81821191Y-130756819D02*
X81916429Y-130756819D01*
X81916429Y-130756819D02*
X82011667Y-130709200D01*
X82011667Y-130709200D02*
X82059286Y-130661580D01*
X82059286Y-130661580D02*
X82106905Y-130566342D01*
X82106905Y-130566342D02*
X82154524Y-130375866D01*
X82154524Y-130375866D02*
X82154524Y-130137771D01*
X82154524Y-130137771D02*
X82106905Y-129947295D01*
X82106905Y-129947295D02*
X82059286Y-129852057D01*
X82059286Y-129852057D02*
X82011667Y-129804438D01*
X82011667Y-129804438D02*
X81916429Y-129756819D01*
X81249762Y-131090152D02*
X81011667Y-131090152D01*
X81011667Y-131090152D02*
X81011667Y-129661580D01*
X81011667Y-129661580D02*
X81249762Y-129661580D01*
X68937618Y-130756819D02*
X68937618Y-129756819D01*
X68937618Y-129756819D02*
X68699523Y-129756819D01*
X68699523Y-129756819D02*
X68556666Y-129804438D01*
X68556666Y-129804438D02*
X68461428Y-129899676D01*
X68461428Y-129899676D02*
X68413809Y-129994914D01*
X68413809Y-129994914D02*
X68366190Y-130185390D01*
X68366190Y-130185390D02*
X68366190Y-130328247D01*
X68366190Y-130328247D02*
X68413809Y-130518723D01*
X68413809Y-130518723D02*
X68461428Y-130613961D01*
X68461428Y-130613961D02*
X68556666Y-130709200D01*
X68556666Y-130709200D02*
X68699523Y-130756819D01*
X68699523Y-130756819D02*
X68937618Y-130756819D01*
X67651904Y-131090152D02*
X67889999Y-131090152D01*
X67889999Y-131090152D02*
X67889999Y-129661580D01*
X67889999Y-129661580D02*
X67651904Y-129661580D01*
X66842380Y-129756819D02*
X67032856Y-129756819D01*
X67032856Y-129756819D02*
X67128094Y-129804438D01*
X67128094Y-129804438D02*
X67175713Y-129852057D01*
X67175713Y-129852057D02*
X67270951Y-129994914D01*
X67270951Y-129994914D02*
X67318570Y-130185390D01*
X67318570Y-130185390D02*
X67318570Y-130566342D01*
X67318570Y-130566342D02*
X67270951Y-130661580D01*
X67270951Y-130661580D02*
X67223332Y-130709200D01*
X67223332Y-130709200D02*
X67128094Y-130756819D01*
X67128094Y-130756819D02*
X66937618Y-130756819D01*
X66937618Y-130756819D02*
X66842380Y-130709200D01*
X66842380Y-130709200D02*
X66794761Y-130661580D01*
X66794761Y-130661580D02*
X66747142Y-130566342D01*
X66747142Y-130566342D02*
X66747142Y-130328247D01*
X66747142Y-130328247D02*
X66794761Y-130233009D01*
X66794761Y-130233009D02*
X66842380Y-130185390D01*
X66842380Y-130185390D02*
X66937618Y-130137771D01*
X66937618Y-130137771D02*
X67128094Y-130137771D01*
X67128094Y-130137771D02*
X67223332Y-130185390D01*
X67223332Y-130185390D02*
X67270951Y-130233009D01*
X67270951Y-130233009D02*
X67318570Y-130328247D01*
X66270951Y-130709200D02*
X66270951Y-130756819D01*
X66270951Y-130756819D02*
X66318570Y-130852057D01*
X66318570Y-130852057D02*
X66366189Y-130899676D01*
X65413809Y-130090152D02*
X65413809Y-130756819D01*
X65651904Y-129709200D02*
X65889999Y-130423485D01*
X65889999Y-130423485D02*
X65270952Y-130423485D01*
X64842380Y-130709200D02*
X64842380Y-130756819D01*
X64842380Y-130756819D02*
X64889999Y-130852057D01*
X64889999Y-130852057D02*
X64937618Y-130899676D01*
X64461428Y-129852057D02*
X64413809Y-129804438D01*
X64413809Y-129804438D02*
X64318571Y-129756819D01*
X64318571Y-129756819D02*
X64080476Y-129756819D01*
X64080476Y-129756819D02*
X63985238Y-129804438D01*
X63985238Y-129804438D02*
X63937619Y-129852057D01*
X63937619Y-129852057D02*
X63890000Y-129947295D01*
X63890000Y-129947295D02*
X63890000Y-130042533D01*
X63890000Y-130042533D02*
X63937619Y-130185390D01*
X63937619Y-130185390D02*
X64509047Y-130756819D01*
X64509047Y-130756819D02*
X63890000Y-130756819D01*
X63413809Y-130709200D02*
X63413809Y-130756819D01*
X63413809Y-130756819D02*
X63461428Y-130852057D01*
X63461428Y-130852057D02*
X63509047Y-130899676D01*
X62794762Y-129756819D02*
X62699524Y-129756819D01*
X62699524Y-129756819D02*
X62604286Y-129804438D01*
X62604286Y-129804438D02*
X62556667Y-129852057D01*
X62556667Y-129852057D02*
X62509048Y-129947295D01*
X62509048Y-129947295D02*
X62461429Y-130137771D01*
X62461429Y-130137771D02*
X62461429Y-130375866D01*
X62461429Y-130375866D02*
X62509048Y-130566342D01*
X62509048Y-130566342D02*
X62556667Y-130661580D01*
X62556667Y-130661580D02*
X62604286Y-130709200D01*
X62604286Y-130709200D02*
X62699524Y-130756819D01*
X62699524Y-130756819D02*
X62794762Y-130756819D01*
X62794762Y-130756819D02*
X62890000Y-130709200D01*
X62890000Y-130709200D02*
X62937619Y-130661580D01*
X62937619Y-130661580D02*
X62985238Y-130566342D01*
X62985238Y-130566342D02*
X63032857Y-130375866D01*
X63032857Y-130375866D02*
X63032857Y-130137771D01*
X63032857Y-130137771D02*
X62985238Y-129947295D01*
X62985238Y-129947295D02*
X62937619Y-129852057D01*
X62937619Y-129852057D02*
X62890000Y-129804438D01*
X62890000Y-129804438D02*
X62794762Y-129756819D01*
X62128095Y-131090152D02*
X61890000Y-131090152D01*
X61890000Y-131090152D02*
X61890000Y-129661580D01*
X61890000Y-129661580D02*
X62128095Y-129661580D01*
X55510666Y-133042819D02*
X56082094Y-133042819D01*
X55796380Y-133042819D02*
X55796380Y-132042819D01*
X55796380Y-132042819D02*
X55891618Y-132185676D01*
X55891618Y-132185676D02*
X55986856Y-132280914D01*
X55986856Y-132280914D02*
X56082094Y-132328533D01*
X54653523Y-133042819D02*
X54653523Y-132519009D01*
X54653523Y-132519009D02*
X54701142Y-132423771D01*
X54701142Y-132423771D02*
X54796380Y-132376152D01*
X54796380Y-132376152D02*
X54986856Y-132376152D01*
X54986856Y-132376152D02*
X55082094Y-132423771D01*
X54653523Y-132995200D02*
X54748761Y-133042819D01*
X54748761Y-133042819D02*
X54986856Y-133042819D01*
X54986856Y-133042819D02*
X55082094Y-132995200D01*
X55082094Y-132995200D02*
X55129713Y-132899961D01*
X55129713Y-132899961D02*
X55129713Y-132804723D01*
X55129713Y-132804723D02*
X55082094Y-132709485D01*
X55082094Y-132709485D02*
X54986856Y-132661866D01*
X54986856Y-132661866D02*
X54748761Y-132661866D01*
X54748761Y-132661866D02*
X54653523Y-132614247D01*
X54792180Y-131290237D02*
X55792180Y-131290237D01*
X55792180Y-131290237D02*
X54792180Y-130718809D01*
X54792180Y-130718809D02*
X55792180Y-130718809D01*
X54792180Y-130242618D02*
X55792180Y-130242618D01*
X55792180Y-130242618D02*
X55077895Y-129909285D01*
X55077895Y-129909285D02*
X55792180Y-129575952D01*
X55792180Y-129575952D02*
X54792180Y-129575952D01*
X54792180Y-129099761D02*
X55792180Y-129099761D01*
X56069800Y-131428333D02*
X56069800Y-128961667D01*
X110358438Y-128911095D02*
X110310819Y-128815857D01*
X110310819Y-128815857D02*
X110310819Y-128673000D01*
X110310819Y-128673000D02*
X110358438Y-128530143D01*
X110358438Y-128530143D02*
X110453676Y-128434905D01*
X110453676Y-128434905D02*
X110548914Y-128387286D01*
X110548914Y-128387286D02*
X110739390Y-128339667D01*
X110739390Y-128339667D02*
X110882247Y-128339667D01*
X110882247Y-128339667D02*
X111072723Y-128387286D01*
X111072723Y-128387286D02*
X111167961Y-128434905D01*
X111167961Y-128434905D02*
X111263200Y-128530143D01*
X111263200Y-128530143D02*
X111310819Y-128673000D01*
X111310819Y-128673000D02*
X111310819Y-128768238D01*
X111310819Y-128768238D02*
X111263200Y-128911095D01*
X111263200Y-128911095D02*
X111215580Y-128958714D01*
X111215580Y-128958714D02*
X110882247Y-128958714D01*
X110882247Y-128958714D02*
X110882247Y-128768238D01*
X111310819Y-129387286D02*
X110310819Y-129387286D01*
X110310819Y-129387286D02*
X111310819Y-129958714D01*
X111310819Y-129958714D02*
X110310819Y-129958714D01*
X111310819Y-130434905D02*
X110310819Y-130434905D01*
X110310819Y-130434905D02*
X110310819Y-130673000D01*
X110310819Y-130673000D02*
X110358438Y-130815857D01*
X110358438Y-130815857D02*
X110453676Y-130911095D01*
X110453676Y-130911095D02*
X110548914Y-130958714D01*
X110548914Y-130958714D02*
X110739390Y-131006333D01*
X110739390Y-131006333D02*
X110882247Y-131006333D01*
X110882247Y-131006333D02*
X111072723Y-130958714D01*
X111072723Y-130958714D02*
X111167961Y-130911095D01*
X111167961Y-130911095D02*
X111263200Y-130815857D01*
X111263200Y-130815857D02*
X111310819Y-130673000D01*
X111310819Y-130673000D02*
X111310819Y-130434905D01*
D12*
X65291841Y-88980638D02*
X65291841Y-86980638D01*
X65291841Y-86980638D02*
X64529936Y-86980638D01*
X64529936Y-86980638D02*
X64339460Y-87075876D01*
X64339460Y-87075876D02*
X64244222Y-87171114D01*
X64244222Y-87171114D02*
X64148984Y-87361590D01*
X64148984Y-87361590D02*
X64148984Y-87647304D01*
X64148984Y-87647304D02*
X64244222Y-87837780D01*
X64244222Y-87837780D02*
X64339460Y-87933019D01*
X64339460Y-87933019D02*
X64529936Y-88028257D01*
X64529936Y-88028257D02*
X65291841Y-88028257D01*
X63387079Y-87171114D02*
X63291841Y-87075876D01*
X63291841Y-87075876D02*
X63101365Y-86980638D01*
X63101365Y-86980638D02*
X62625174Y-86980638D01*
X62625174Y-86980638D02*
X62434698Y-87075876D01*
X62434698Y-87075876D02*
X62339460Y-87171114D01*
X62339460Y-87171114D02*
X62244222Y-87361590D01*
X62244222Y-87361590D02*
X62244222Y-87552066D01*
X62244222Y-87552066D02*
X62339460Y-87837780D01*
X62339460Y-87837780D02*
X63482317Y-88980638D01*
X63482317Y-88980638D02*
X62244222Y-88980638D01*
X61006127Y-86980638D02*
X60815650Y-86980638D01*
X60815650Y-86980638D02*
X60625174Y-87075876D01*
X60625174Y-87075876D02*
X60529936Y-87171114D01*
X60529936Y-87171114D02*
X60434698Y-87361590D01*
X60434698Y-87361590D02*
X60339460Y-87742542D01*
X60339460Y-87742542D02*
X60339460Y-88218733D01*
X60339460Y-88218733D02*
X60434698Y-88599685D01*
X60434698Y-88599685D02*
X60529936Y-88790161D01*
X60529936Y-88790161D02*
X60625174Y-88885400D01*
X60625174Y-88885400D02*
X60815650Y-88980638D01*
X60815650Y-88980638D02*
X61006127Y-88980638D01*
X61006127Y-88980638D02*
X61196603Y-88885400D01*
X61196603Y-88885400D02*
X61291841Y-88790161D01*
X61291841Y-88790161D02*
X61387079Y-88599685D01*
X61387079Y-88599685D02*
X61482317Y-88218733D01*
X61482317Y-88218733D02*
X61482317Y-87742542D01*
X61482317Y-87742542D02*
X61387079Y-87361590D01*
X61387079Y-87361590D02*
X61291841Y-87171114D01*
X61291841Y-87171114D02*
X61196603Y-87075876D01*
X61196603Y-87075876D02*
X61006127Y-86980638D01*
X59101365Y-86980638D02*
X58910888Y-86980638D01*
X58910888Y-86980638D02*
X58720412Y-87075876D01*
X58720412Y-87075876D02*
X58625174Y-87171114D01*
X58625174Y-87171114D02*
X58529936Y-87361590D01*
X58529936Y-87361590D02*
X58434698Y-87742542D01*
X58434698Y-87742542D02*
X58434698Y-88218733D01*
X58434698Y-88218733D02*
X58529936Y-88599685D01*
X58529936Y-88599685D02*
X58625174Y-88790161D01*
X58625174Y-88790161D02*
X58720412Y-88885400D01*
X58720412Y-88885400D02*
X58910888Y-88980638D01*
X58910888Y-88980638D02*
X59101365Y-88980638D01*
X59101365Y-88980638D02*
X59291841Y-88885400D01*
X59291841Y-88885400D02*
X59387079Y-88790161D01*
X59387079Y-88790161D02*
X59482317Y-88599685D01*
X59482317Y-88599685D02*
X59577555Y-88218733D01*
X59577555Y-88218733D02*
X59577555Y-87742542D01*
X59577555Y-87742542D02*
X59482317Y-87361590D01*
X59482317Y-87361590D02*
X59387079Y-87171114D01*
X59387079Y-87171114D02*
X59291841Y-87075876D01*
X59291841Y-87075876D02*
X59101365Y-86980638D01*
X57196603Y-86980638D02*
X57006126Y-86980638D01*
X57006126Y-86980638D02*
X56815650Y-87075876D01*
X56815650Y-87075876D02*
X56720412Y-87171114D01*
X56720412Y-87171114D02*
X56625174Y-87361590D01*
X56625174Y-87361590D02*
X56529936Y-87742542D01*
X56529936Y-87742542D02*
X56529936Y-88218733D01*
X56529936Y-88218733D02*
X56625174Y-88599685D01*
X56625174Y-88599685D02*
X56720412Y-88790161D01*
X56720412Y-88790161D02*
X56815650Y-88885400D01*
X56815650Y-88885400D02*
X57006126Y-88980638D01*
X57006126Y-88980638D02*
X57196603Y-88980638D01*
X57196603Y-88980638D02*
X57387079Y-88885400D01*
X57387079Y-88885400D02*
X57482317Y-88790161D01*
X57482317Y-88790161D02*
X57577555Y-88599685D01*
X57577555Y-88599685D02*
X57672793Y-88218733D01*
X57672793Y-88218733D02*
X57672793Y-87742542D01*
X57672793Y-87742542D02*
X57577555Y-87361590D01*
X57577555Y-87361590D02*
X57482317Y-87171114D01*
X57482317Y-87171114D02*
X57387079Y-87075876D01*
X57387079Y-87075876D02*
X57196603Y-86980638D01*
D11*
X64443323Y-91746790D02*
X64538561Y-91699171D01*
X64538561Y-91699171D02*
X64586180Y-91651552D01*
X64586180Y-91651552D02*
X64633799Y-91556314D01*
X64633799Y-91556314D02*
X64633799Y-91508695D01*
X64633799Y-91508695D02*
X64586180Y-91413457D01*
X64586180Y-91413457D02*
X64538561Y-91365838D01*
X64538561Y-91365838D02*
X64443323Y-91318219D01*
X64443323Y-91318219D02*
X64252847Y-91318219D01*
X64252847Y-91318219D02*
X64157609Y-91365838D01*
X64157609Y-91365838D02*
X64109990Y-91413457D01*
X64109990Y-91413457D02*
X64062371Y-91508695D01*
X64062371Y-91508695D02*
X64062371Y-91556314D01*
X64062371Y-91556314D02*
X64109990Y-91651552D01*
X64109990Y-91651552D02*
X64157609Y-91699171D01*
X64157609Y-91699171D02*
X64252847Y-91746790D01*
X64252847Y-91746790D02*
X64443323Y-91746790D01*
X64443323Y-91746790D02*
X64538561Y-91794409D01*
X64538561Y-91794409D02*
X64586180Y-91842028D01*
X64586180Y-91842028D02*
X64633799Y-91937266D01*
X64633799Y-91937266D02*
X64633799Y-92127742D01*
X64633799Y-92127742D02*
X64586180Y-92222980D01*
X64586180Y-92222980D02*
X64538561Y-92270600D01*
X64538561Y-92270600D02*
X64443323Y-92318219D01*
X64443323Y-92318219D02*
X64252847Y-92318219D01*
X64252847Y-92318219D02*
X64157609Y-92270600D01*
X64157609Y-92270600D02*
X64109990Y-92222980D01*
X64109990Y-92222980D02*
X64062371Y-92127742D01*
X64062371Y-92127742D02*
X64062371Y-91937266D01*
X64062371Y-91937266D02*
X64109990Y-91842028D01*
X64109990Y-91842028D02*
X64157609Y-91794409D01*
X64157609Y-91794409D02*
X64252847Y-91746790D01*
X63729037Y-92318219D02*
X63205228Y-91651552D01*
X63729037Y-91651552D02*
X63205228Y-92318219D01*
X62300466Y-92318219D02*
X62871894Y-92318219D01*
X62586180Y-92318219D02*
X62586180Y-91318219D01*
X62586180Y-91318219D02*
X62681418Y-91461076D01*
X62681418Y-91461076D02*
X62776656Y-91556314D01*
X62776656Y-91556314D02*
X62871894Y-91603933D01*
X61443323Y-91318219D02*
X61633799Y-91318219D01*
X61633799Y-91318219D02*
X61729037Y-91365838D01*
X61729037Y-91365838D02*
X61776656Y-91413457D01*
X61776656Y-91413457D02*
X61871894Y-91556314D01*
X61871894Y-91556314D02*
X61919513Y-91746790D01*
X61919513Y-91746790D02*
X61919513Y-92127742D01*
X61919513Y-92127742D02*
X61871894Y-92222980D01*
X61871894Y-92222980D02*
X61824275Y-92270600D01*
X61824275Y-92270600D02*
X61729037Y-92318219D01*
X61729037Y-92318219D02*
X61538561Y-92318219D01*
X61538561Y-92318219D02*
X61443323Y-92270600D01*
X61443323Y-92270600D02*
X61395704Y-92222980D01*
X61395704Y-92222980D02*
X61348085Y-92127742D01*
X61348085Y-92127742D02*
X61348085Y-91889647D01*
X61348085Y-91889647D02*
X61395704Y-91794409D01*
X61395704Y-91794409D02*
X61443323Y-91746790D01*
X61443323Y-91746790D02*
X61538561Y-91699171D01*
X61538561Y-91699171D02*
X61729037Y-91699171D01*
X61729037Y-91699171D02*
X61824275Y-91746790D01*
X61824275Y-91746790D02*
X61871894Y-91794409D01*
X61871894Y-91794409D02*
X61919513Y-91889647D01*
X60919513Y-92318219D02*
X60919513Y-91318219D01*
X60824275Y-91937266D02*
X60538561Y-92318219D01*
X60538561Y-91651552D02*
X60919513Y-92032504D01*
X60109989Y-92318219D02*
X60109989Y-91318219D01*
X60109989Y-91699171D02*
X60014751Y-91651552D01*
X60014751Y-91651552D02*
X59824275Y-91651552D01*
X59824275Y-91651552D02*
X59729037Y-91699171D01*
X59729037Y-91699171D02*
X59681418Y-91746790D01*
X59681418Y-91746790D02*
X59633799Y-91842028D01*
X59633799Y-91842028D02*
X59633799Y-92127742D01*
X59633799Y-92127742D02*
X59681418Y-92222980D01*
X59681418Y-92222980D02*
X59729037Y-92270600D01*
X59729037Y-92270600D02*
X59824275Y-92318219D01*
X59824275Y-92318219D02*
X60014751Y-92318219D01*
X60014751Y-92318219D02*
X60109989Y-92270600D01*
X65113075Y-90641819D02*
X65113075Y-89641819D01*
X65113075Y-89641819D02*
X64779742Y-90356104D01*
X64779742Y-90356104D02*
X64446409Y-89641819D01*
X64446409Y-89641819D02*
X64446409Y-90641819D01*
X63970218Y-89641819D02*
X63970218Y-90451342D01*
X63970218Y-90451342D02*
X63922599Y-90546580D01*
X63922599Y-90546580D02*
X63874980Y-90594200D01*
X63874980Y-90594200D02*
X63779742Y-90641819D01*
X63779742Y-90641819D02*
X63589266Y-90641819D01*
X63589266Y-90641819D02*
X63494028Y-90594200D01*
X63494028Y-90594200D02*
X63446409Y-90546580D01*
X63446409Y-90546580D02*
X63398790Y-90451342D01*
X63398790Y-90451342D02*
X63398790Y-89641819D01*
X62446409Y-90641819D02*
X62922599Y-90641819D01*
X62922599Y-90641819D02*
X62922599Y-89641819D01*
X62255932Y-89641819D02*
X61684504Y-89641819D01*
X61970218Y-90641819D02*
X61970218Y-89641819D01*
X61351170Y-90641819D02*
X61351170Y-89641819D01*
X60303552Y-90546580D02*
X60351171Y-90594200D01*
X60351171Y-90594200D02*
X60494028Y-90641819D01*
X60494028Y-90641819D02*
X60589266Y-90641819D01*
X60589266Y-90641819D02*
X60732123Y-90594200D01*
X60732123Y-90594200D02*
X60827361Y-90498961D01*
X60827361Y-90498961D02*
X60874980Y-90403723D01*
X60874980Y-90403723D02*
X60922599Y-90213247D01*
X60922599Y-90213247D02*
X60922599Y-90070390D01*
X60922599Y-90070390D02*
X60874980Y-89879914D01*
X60874980Y-89879914D02*
X60827361Y-89784676D01*
X60827361Y-89784676D02*
X60732123Y-89689438D01*
X60732123Y-89689438D02*
X60589266Y-89641819D01*
X60589266Y-89641819D02*
X60494028Y-89641819D01*
X60494028Y-89641819D02*
X60351171Y-89689438D01*
X60351171Y-89689438D02*
X60303552Y-89737057D01*
X59922599Y-90356104D02*
X59446409Y-90356104D01*
X60017837Y-90641819D02*
X59684504Y-89641819D01*
X59684504Y-89641819D02*
X59351171Y-90641819D01*
X58446409Y-90641819D02*
X58779742Y-90165628D01*
X59017837Y-90641819D02*
X59017837Y-89641819D01*
X59017837Y-89641819D02*
X58636885Y-89641819D01*
X58636885Y-89641819D02*
X58541647Y-89689438D01*
X58541647Y-89689438D02*
X58494028Y-89737057D01*
X58494028Y-89737057D02*
X58446409Y-89832295D01*
X58446409Y-89832295D02*
X58446409Y-89975152D01*
X58446409Y-89975152D02*
X58494028Y-90070390D01*
X58494028Y-90070390D02*
X58541647Y-90118009D01*
X58541647Y-90118009D02*
X58636885Y-90165628D01*
X58636885Y-90165628D02*
X59017837Y-90165628D01*
X58160694Y-89641819D02*
X57589266Y-89641819D01*
X57874980Y-90641819D02*
X57874980Y-89641819D01*
X65963000Y-92337971D02*
X65915380Y-92195114D01*
X65915380Y-92195114D02*
X65915380Y-91957019D01*
X65915380Y-91957019D02*
X65963000Y-91861781D01*
X65963000Y-91861781D02*
X66010619Y-91814162D01*
X66010619Y-91814162D02*
X66105857Y-91766543D01*
X66105857Y-91766543D02*
X66201095Y-91766543D01*
X66201095Y-91766543D02*
X66296333Y-91814162D01*
X66296333Y-91814162D02*
X66343952Y-91861781D01*
X66343952Y-91861781D02*
X66391571Y-91957019D01*
X66391571Y-91957019D02*
X66439190Y-92147495D01*
X66439190Y-92147495D02*
X66486809Y-92242733D01*
X66486809Y-92242733D02*
X66534428Y-92290352D01*
X66534428Y-92290352D02*
X66629666Y-92337971D01*
X66629666Y-92337971D02*
X66724904Y-92337971D01*
X66724904Y-92337971D02*
X66820142Y-92290352D01*
X66820142Y-92290352D02*
X66867761Y-92242733D01*
X66867761Y-92242733D02*
X66915380Y-92147495D01*
X66915380Y-92147495D02*
X66915380Y-91909400D01*
X66915380Y-91909400D02*
X66867761Y-91766543D01*
X65963000Y-91385590D02*
X65915380Y-91242733D01*
X65915380Y-91242733D02*
X65915380Y-91004638D01*
X65915380Y-91004638D02*
X65963000Y-90909400D01*
X65963000Y-90909400D02*
X66010619Y-90861781D01*
X66010619Y-90861781D02*
X66105857Y-90814162D01*
X66105857Y-90814162D02*
X66201095Y-90814162D01*
X66201095Y-90814162D02*
X66296333Y-90861781D01*
X66296333Y-90861781D02*
X66343952Y-90909400D01*
X66343952Y-90909400D02*
X66391571Y-91004638D01*
X66391571Y-91004638D02*
X66439190Y-91195114D01*
X66439190Y-91195114D02*
X66486809Y-91290352D01*
X66486809Y-91290352D02*
X66534428Y-91337971D01*
X66534428Y-91337971D02*
X66629666Y-91385590D01*
X66629666Y-91385590D02*
X66724904Y-91385590D01*
X66724904Y-91385590D02*
X66820142Y-91337971D01*
X66820142Y-91337971D02*
X66867761Y-91290352D01*
X66867761Y-91290352D02*
X66915380Y-91195114D01*
X66915380Y-91195114D02*
X66915380Y-90957019D01*
X66915380Y-90957019D02*
X66867761Y-90814162D01*
X66915380Y-90528447D02*
X66915380Y-89957019D01*
X65915380Y-90242733D02*
X66915380Y-90242733D01*
X66915380Y-89718923D02*
X66915380Y-89099876D01*
X66915380Y-89099876D02*
X66534428Y-89433209D01*
X66534428Y-89433209D02*
X66534428Y-89290352D01*
X66534428Y-89290352D02*
X66486809Y-89195114D01*
X66486809Y-89195114D02*
X66439190Y-89147495D01*
X66439190Y-89147495D02*
X66343952Y-89099876D01*
X66343952Y-89099876D02*
X66105857Y-89099876D01*
X66105857Y-89099876D02*
X66010619Y-89147495D01*
X66010619Y-89147495D02*
X65963000Y-89195114D01*
X65963000Y-89195114D02*
X65915380Y-89290352D01*
X65915380Y-89290352D02*
X65915380Y-89576066D01*
X65915380Y-89576066D02*
X65963000Y-89671304D01*
X65963000Y-89671304D02*
X66010619Y-89718923D01*
X65915380Y-88623685D02*
X65915380Y-88433209D01*
X65915380Y-88433209D02*
X65963000Y-88337971D01*
X65963000Y-88337971D02*
X66010619Y-88290352D01*
X66010619Y-88290352D02*
X66153476Y-88195114D01*
X66153476Y-88195114D02*
X66343952Y-88147495D01*
X66343952Y-88147495D02*
X66724904Y-88147495D01*
X66724904Y-88147495D02*
X66820142Y-88195114D01*
X66820142Y-88195114D02*
X66867761Y-88242733D01*
X66867761Y-88242733D02*
X66915380Y-88337971D01*
X66915380Y-88337971D02*
X66915380Y-88528447D01*
X66915380Y-88528447D02*
X66867761Y-88623685D01*
X66867761Y-88623685D02*
X66820142Y-88671304D01*
X66820142Y-88671304D02*
X66724904Y-88718923D01*
X66724904Y-88718923D02*
X66486809Y-88718923D01*
X66486809Y-88718923D02*
X66391571Y-88671304D01*
X66391571Y-88671304D02*
X66343952Y-88623685D01*
X66343952Y-88623685D02*
X66296333Y-88528447D01*
X66296333Y-88528447D02*
X66296333Y-88337971D01*
X66296333Y-88337971D02*
X66343952Y-88242733D01*
X66343952Y-88242733D02*
X66391571Y-88195114D01*
X66391571Y-88195114D02*
X66486809Y-88147495D01*
X65963000Y-87766542D02*
X65915380Y-87623685D01*
X65915380Y-87623685D02*
X65915380Y-87385590D01*
X65915380Y-87385590D02*
X65963000Y-87290352D01*
X65963000Y-87290352D02*
X66010619Y-87242733D01*
X66010619Y-87242733D02*
X66105857Y-87195114D01*
X66105857Y-87195114D02*
X66201095Y-87195114D01*
X66201095Y-87195114D02*
X66296333Y-87242733D01*
X66296333Y-87242733D02*
X66343952Y-87290352D01*
X66343952Y-87290352D02*
X66391571Y-87385590D01*
X66391571Y-87385590D02*
X66439190Y-87576066D01*
X66439190Y-87576066D02*
X66486809Y-87671304D01*
X66486809Y-87671304D02*
X66534428Y-87718923D01*
X66534428Y-87718923D02*
X66629666Y-87766542D01*
X66629666Y-87766542D02*
X66724904Y-87766542D01*
X66724904Y-87766542D02*
X66820142Y-87718923D01*
X66820142Y-87718923D02*
X66867761Y-87671304D01*
X66867761Y-87671304D02*
X66915380Y-87576066D01*
X66915380Y-87576066D02*
X66915380Y-87337971D01*
X66915380Y-87337971D02*
X66867761Y-87195114D01*
X66439190Y-86433209D02*
X66439190Y-86766542D01*
X65915380Y-86766542D02*
X66915380Y-86766542D01*
X66915380Y-86766542D02*
X66915380Y-86290352D01*
X66915380Y-85718923D02*
X66915380Y-85623685D01*
X66915380Y-85623685D02*
X66867761Y-85528447D01*
X66867761Y-85528447D02*
X66820142Y-85480828D01*
X66820142Y-85480828D02*
X66724904Y-85433209D01*
X66724904Y-85433209D02*
X66534428Y-85385590D01*
X66534428Y-85385590D02*
X66296333Y-85385590D01*
X66296333Y-85385590D02*
X66105857Y-85433209D01*
X66105857Y-85433209D02*
X66010619Y-85480828D01*
X66010619Y-85480828D02*
X65963000Y-85528447D01*
X65963000Y-85528447D02*
X65915380Y-85623685D01*
X65915380Y-85623685D02*
X65915380Y-85718923D01*
X65915380Y-85718923D02*
X65963000Y-85814161D01*
X65963000Y-85814161D02*
X66010619Y-85861780D01*
X66010619Y-85861780D02*
X66105857Y-85909399D01*
X66105857Y-85909399D02*
X66296333Y-85957018D01*
X66296333Y-85957018D02*
X66534428Y-85957018D01*
X66534428Y-85957018D02*
X66724904Y-85909399D01*
X66724904Y-85909399D02*
X66820142Y-85861780D01*
X66820142Y-85861780D02*
X66867761Y-85814161D01*
X66867761Y-85814161D02*
X66915380Y-85718923D01*
X65915380Y-84433209D02*
X65915380Y-85004637D01*
X65915380Y-84718923D02*
X66915380Y-84718923D01*
X66915380Y-84718923D02*
X66772523Y-84814161D01*
X66772523Y-84814161D02*
X66677285Y-84909399D01*
X66677285Y-84909399D02*
X66629666Y-85004637D01*
X66915380Y-83814161D02*
X66915380Y-83718923D01*
X66915380Y-83718923D02*
X66867761Y-83623685D01*
X66867761Y-83623685D02*
X66820142Y-83576066D01*
X66820142Y-83576066D02*
X66724904Y-83528447D01*
X66724904Y-83528447D02*
X66534428Y-83480828D01*
X66534428Y-83480828D02*
X66296333Y-83480828D01*
X66296333Y-83480828D02*
X66105857Y-83528447D01*
X66105857Y-83528447D02*
X66010619Y-83576066D01*
X66010619Y-83576066D02*
X65963000Y-83623685D01*
X65963000Y-83623685D02*
X65915380Y-83718923D01*
X65915380Y-83718923D02*
X65915380Y-83814161D01*
X65915380Y-83814161D02*
X65963000Y-83909399D01*
X65963000Y-83909399D02*
X66010619Y-83957018D01*
X66010619Y-83957018D02*
X66105857Y-84004637D01*
X66105857Y-84004637D02*
X66296333Y-84052256D01*
X66296333Y-84052256D02*
X66534428Y-84052256D01*
X66534428Y-84052256D02*
X66724904Y-84004637D01*
X66724904Y-84004637D02*
X66820142Y-83957018D01*
X66820142Y-83957018D02*
X66867761Y-83909399D01*
X66867761Y-83909399D02*
X66915380Y-83814161D01*
X95750857Y-133042819D02*
X96322285Y-133042819D01*
X96036571Y-133042819D02*
X96036571Y-132042819D01*
X96036571Y-132042819D02*
X96131809Y-132185676D01*
X96131809Y-132185676D02*
X96227047Y-132280914D01*
X96227047Y-132280914D02*
X96322285Y-132328533D01*
X94798476Y-133042819D02*
X95369904Y-133042819D01*
X95084190Y-133042819D02*
X95084190Y-132042819D01*
X95084190Y-132042819D02*
X95179428Y-132185676D01*
X95179428Y-132185676D02*
X95274666Y-132280914D01*
X95274666Y-132280914D02*
X95369904Y-132328533D01*
X93941333Y-133042819D02*
X93941333Y-132519009D01*
X93941333Y-132519009D02*
X93988952Y-132423771D01*
X93988952Y-132423771D02*
X94084190Y-132376152D01*
X94084190Y-132376152D02*
X94274666Y-132376152D01*
X94274666Y-132376152D02*
X94369904Y-132423771D01*
X93941333Y-132995200D02*
X94036571Y-133042819D01*
X94036571Y-133042819D02*
X94274666Y-133042819D01*
X94274666Y-133042819D02*
X94369904Y-132995200D01*
X94369904Y-132995200D02*
X94417523Y-132899961D01*
X94417523Y-132899961D02*
X94417523Y-132804723D01*
X94417523Y-132804723D02*
X94369904Y-132709485D01*
X94369904Y-132709485D02*
X94274666Y-132661866D01*
X94274666Y-132661866D02*
X94036571Y-132661866D01*
X94036571Y-132661866D02*
X93941333Y-132614247D01*
X91686857Y-133042819D02*
X92258285Y-133042819D01*
X91972571Y-133042819D02*
X91972571Y-132042819D01*
X91972571Y-132042819D02*
X92067809Y-132185676D01*
X92067809Y-132185676D02*
X92163047Y-132280914D01*
X92163047Y-132280914D02*
X92258285Y-132328533D01*
X91067809Y-132042819D02*
X90972571Y-132042819D01*
X90972571Y-132042819D02*
X90877333Y-132090438D01*
X90877333Y-132090438D02*
X90829714Y-132138057D01*
X90829714Y-132138057D02*
X90782095Y-132233295D01*
X90782095Y-132233295D02*
X90734476Y-132423771D01*
X90734476Y-132423771D02*
X90734476Y-132661866D01*
X90734476Y-132661866D02*
X90782095Y-132852342D01*
X90782095Y-132852342D02*
X90829714Y-132947580D01*
X90829714Y-132947580D02*
X90877333Y-132995200D01*
X90877333Y-132995200D02*
X90972571Y-133042819D01*
X90972571Y-133042819D02*
X91067809Y-133042819D01*
X91067809Y-133042819D02*
X91163047Y-132995200D01*
X91163047Y-132995200D02*
X91210666Y-132947580D01*
X91210666Y-132947580D02*
X91258285Y-132852342D01*
X91258285Y-132852342D02*
X91305904Y-132661866D01*
X91305904Y-132661866D02*
X91305904Y-132423771D01*
X91305904Y-132423771D02*
X91258285Y-132233295D01*
X91258285Y-132233295D02*
X91210666Y-132138057D01*
X91210666Y-132138057D02*
X91163047Y-132090438D01*
X91163047Y-132090438D02*
X91067809Y-132042819D01*
X89877333Y-133042819D02*
X89877333Y-132519009D01*
X89877333Y-132519009D02*
X89924952Y-132423771D01*
X89924952Y-132423771D02*
X90020190Y-132376152D01*
X90020190Y-132376152D02*
X90210666Y-132376152D01*
X90210666Y-132376152D02*
X90305904Y-132423771D01*
X89877333Y-132995200D02*
X89972571Y-133042819D01*
X89972571Y-133042819D02*
X90210666Y-133042819D01*
X90210666Y-133042819D02*
X90305904Y-132995200D01*
X90305904Y-132995200D02*
X90353523Y-132899961D01*
X90353523Y-132899961D02*
X90353523Y-132804723D01*
X90353523Y-132804723D02*
X90305904Y-132709485D01*
X90305904Y-132709485D02*
X90210666Y-132661866D01*
X90210666Y-132661866D02*
X89972571Y-132661866D01*
X89972571Y-132661866D02*
X89877333Y-132614247D01*
X60032094Y-132138057D02*
X59984475Y-132090438D01*
X59984475Y-132090438D02*
X59889237Y-132042819D01*
X59889237Y-132042819D02*
X59651142Y-132042819D01*
X59651142Y-132042819D02*
X59555904Y-132090438D01*
X59555904Y-132090438D02*
X59508285Y-132138057D01*
X59508285Y-132138057D02*
X59460666Y-132233295D01*
X59460666Y-132233295D02*
X59460666Y-132328533D01*
X59460666Y-132328533D02*
X59508285Y-132471390D01*
X59508285Y-132471390D02*
X60079713Y-133042819D01*
X60079713Y-133042819D02*
X59460666Y-133042819D01*
X58603523Y-133042819D02*
X58603523Y-132519009D01*
X58603523Y-132519009D02*
X58651142Y-132423771D01*
X58651142Y-132423771D02*
X58746380Y-132376152D01*
X58746380Y-132376152D02*
X58936856Y-132376152D01*
X58936856Y-132376152D02*
X59032094Y-132423771D01*
X58603523Y-132995200D02*
X58698761Y-133042819D01*
X58698761Y-133042819D02*
X58936856Y-133042819D01*
X58936856Y-133042819D02*
X59032094Y-132995200D01*
X59032094Y-132995200D02*
X59079713Y-132899961D01*
X59079713Y-132899961D02*
X59079713Y-132804723D01*
X59079713Y-132804723D02*
X59032094Y-132709485D01*
X59032094Y-132709485D02*
X58936856Y-132661866D01*
X58936856Y-132661866D02*
X58698761Y-132661866D01*
X58698761Y-132661866D02*
X58603523Y-132614247D01*
X75430904Y-132042819D02*
X75621380Y-132042819D01*
X75621380Y-132042819D02*
X75716618Y-132090438D01*
X75716618Y-132090438D02*
X75764237Y-132138057D01*
X75764237Y-132138057D02*
X75859475Y-132280914D01*
X75859475Y-132280914D02*
X75907094Y-132471390D01*
X75907094Y-132471390D02*
X75907094Y-132852342D01*
X75907094Y-132852342D02*
X75859475Y-132947580D01*
X75859475Y-132947580D02*
X75811856Y-132995200D01*
X75811856Y-132995200D02*
X75716618Y-133042819D01*
X75716618Y-133042819D02*
X75526142Y-133042819D01*
X75526142Y-133042819D02*
X75430904Y-132995200D01*
X75430904Y-132995200D02*
X75383285Y-132947580D01*
X75383285Y-132947580D02*
X75335666Y-132852342D01*
X75335666Y-132852342D02*
X75335666Y-132614247D01*
X75335666Y-132614247D02*
X75383285Y-132519009D01*
X75383285Y-132519009D02*
X75430904Y-132471390D01*
X75430904Y-132471390D02*
X75526142Y-132423771D01*
X75526142Y-132423771D02*
X75716618Y-132423771D01*
X75716618Y-132423771D02*
X75811856Y-132471390D01*
X75811856Y-132471390D02*
X75859475Y-132519009D01*
X75859475Y-132519009D02*
X75907094Y-132614247D01*
X74478523Y-133042819D02*
X74478523Y-132519009D01*
X74478523Y-132519009D02*
X74526142Y-132423771D01*
X74526142Y-132423771D02*
X74621380Y-132376152D01*
X74621380Y-132376152D02*
X74811856Y-132376152D01*
X74811856Y-132376152D02*
X74907094Y-132423771D01*
X74478523Y-132995200D02*
X74573761Y-133042819D01*
X74573761Y-133042819D02*
X74811856Y-133042819D01*
X74811856Y-133042819D02*
X74907094Y-132995200D01*
X74907094Y-132995200D02*
X74954713Y-132899961D01*
X74954713Y-132899961D02*
X74954713Y-132804723D01*
X74954713Y-132804723D02*
X74907094Y-132709485D01*
X74907094Y-132709485D02*
X74811856Y-132661866D01*
X74811856Y-132661866D02*
X74573761Y-132661866D01*
X74573761Y-132661866D02*
X74478523Y-132614247D01*
X79891713Y-132042819D02*
X79225047Y-132042819D01*
X79225047Y-132042819D02*
X79653618Y-133042819D01*
X78415523Y-133042819D02*
X78415523Y-132519009D01*
X78415523Y-132519009D02*
X78463142Y-132423771D01*
X78463142Y-132423771D02*
X78558380Y-132376152D01*
X78558380Y-132376152D02*
X78748856Y-132376152D01*
X78748856Y-132376152D02*
X78844094Y-132423771D01*
X78415523Y-132995200D02*
X78510761Y-133042819D01*
X78510761Y-133042819D02*
X78748856Y-133042819D01*
X78748856Y-133042819D02*
X78844094Y-132995200D01*
X78844094Y-132995200D02*
X78891713Y-132899961D01*
X78891713Y-132899961D02*
X78891713Y-132804723D01*
X78891713Y-132804723D02*
X78844094Y-132709485D01*
X78844094Y-132709485D02*
X78748856Y-132661866D01*
X78748856Y-132661866D02*
X78510761Y-132661866D01*
X78510761Y-132661866D02*
X78415523Y-132614247D01*
X103624857Y-133042819D02*
X104196285Y-133042819D01*
X103910571Y-133042819D02*
X103910571Y-132042819D01*
X103910571Y-132042819D02*
X104005809Y-132185676D01*
X104005809Y-132185676D02*
X104101047Y-132280914D01*
X104101047Y-132280914D02*
X104196285Y-132328533D01*
X103291523Y-132042819D02*
X102672476Y-132042819D01*
X102672476Y-132042819D02*
X103005809Y-132423771D01*
X103005809Y-132423771D02*
X102862952Y-132423771D01*
X102862952Y-132423771D02*
X102767714Y-132471390D01*
X102767714Y-132471390D02*
X102720095Y-132519009D01*
X102720095Y-132519009D02*
X102672476Y-132614247D01*
X102672476Y-132614247D02*
X102672476Y-132852342D01*
X102672476Y-132852342D02*
X102720095Y-132947580D01*
X102720095Y-132947580D02*
X102767714Y-132995200D01*
X102767714Y-132995200D02*
X102862952Y-133042819D01*
X102862952Y-133042819D02*
X103148666Y-133042819D01*
X103148666Y-133042819D02*
X103243904Y-132995200D01*
X103243904Y-132995200D02*
X103291523Y-132947580D01*
X101815333Y-133042819D02*
X101815333Y-132519009D01*
X101815333Y-132519009D02*
X101862952Y-132423771D01*
X101862952Y-132423771D02*
X101958190Y-132376152D01*
X101958190Y-132376152D02*
X102148666Y-132376152D01*
X102148666Y-132376152D02*
X102243904Y-132423771D01*
X101815333Y-132995200D02*
X101910571Y-133042819D01*
X101910571Y-133042819D02*
X102148666Y-133042819D01*
X102148666Y-133042819D02*
X102243904Y-132995200D01*
X102243904Y-132995200D02*
X102291523Y-132899961D01*
X102291523Y-132899961D02*
X102291523Y-132804723D01*
X102291523Y-132804723D02*
X102243904Y-132709485D01*
X102243904Y-132709485D02*
X102148666Y-132661866D01*
X102148666Y-132661866D02*
X101910571Y-132661866D01*
X101910571Y-132661866D02*
X101815333Y-132614247D01*
X87749856Y-133042819D02*
X87559380Y-133042819D01*
X87559380Y-133042819D02*
X87464142Y-132995200D01*
X87464142Y-132995200D02*
X87416523Y-132947580D01*
X87416523Y-132947580D02*
X87321285Y-132804723D01*
X87321285Y-132804723D02*
X87273666Y-132614247D01*
X87273666Y-132614247D02*
X87273666Y-132233295D01*
X87273666Y-132233295D02*
X87321285Y-132138057D01*
X87321285Y-132138057D02*
X87368904Y-132090438D01*
X87368904Y-132090438D02*
X87464142Y-132042819D01*
X87464142Y-132042819D02*
X87654618Y-132042819D01*
X87654618Y-132042819D02*
X87749856Y-132090438D01*
X87749856Y-132090438D02*
X87797475Y-132138057D01*
X87797475Y-132138057D02*
X87845094Y-132233295D01*
X87845094Y-132233295D02*
X87845094Y-132471390D01*
X87845094Y-132471390D02*
X87797475Y-132566628D01*
X87797475Y-132566628D02*
X87749856Y-132614247D01*
X87749856Y-132614247D02*
X87654618Y-132661866D01*
X87654618Y-132661866D02*
X87464142Y-132661866D01*
X87464142Y-132661866D02*
X87368904Y-132614247D01*
X87368904Y-132614247D02*
X87321285Y-132566628D01*
X87321285Y-132566628D02*
X87273666Y-132471390D01*
X86416523Y-133042819D02*
X86416523Y-132519009D01*
X86416523Y-132519009D02*
X86464142Y-132423771D01*
X86464142Y-132423771D02*
X86559380Y-132376152D01*
X86559380Y-132376152D02*
X86749856Y-132376152D01*
X86749856Y-132376152D02*
X86845094Y-132423771D01*
X86416523Y-132995200D02*
X86511761Y-133042819D01*
X86511761Y-133042819D02*
X86749856Y-133042819D01*
X86749856Y-133042819D02*
X86845094Y-132995200D01*
X86845094Y-132995200D02*
X86892713Y-132899961D01*
X86892713Y-132899961D02*
X86892713Y-132804723D01*
X86892713Y-132804723D02*
X86845094Y-132709485D01*
X86845094Y-132709485D02*
X86749856Y-132661866D01*
X86749856Y-132661866D02*
X86511761Y-132661866D01*
X86511761Y-132661866D02*
X86416523Y-132614247D01*
X67556904Y-132376152D02*
X67556904Y-133042819D01*
X67794999Y-131995200D02*
X68033094Y-132709485D01*
X68033094Y-132709485D02*
X67414047Y-132709485D01*
X66604523Y-133042819D02*
X66604523Y-132519009D01*
X66604523Y-132519009D02*
X66652142Y-132423771D01*
X66652142Y-132423771D02*
X66747380Y-132376152D01*
X66747380Y-132376152D02*
X66937856Y-132376152D01*
X66937856Y-132376152D02*
X67033094Y-132423771D01*
X66604523Y-132995200D02*
X66699761Y-133042819D01*
X66699761Y-133042819D02*
X66937856Y-133042819D01*
X66937856Y-133042819D02*
X67033094Y-132995200D01*
X67033094Y-132995200D02*
X67080713Y-132899961D01*
X67080713Y-132899961D02*
X67080713Y-132804723D01*
X67080713Y-132804723D02*
X67033094Y-132709485D01*
X67033094Y-132709485D02*
X66937856Y-132661866D01*
X66937856Y-132661866D02*
X66699761Y-132661866D01*
X66699761Y-132661866D02*
X66604523Y-132614247D01*
X71446285Y-132042819D02*
X71922475Y-132042819D01*
X71922475Y-132042819D02*
X71970094Y-132519009D01*
X71970094Y-132519009D02*
X71922475Y-132471390D01*
X71922475Y-132471390D02*
X71827237Y-132423771D01*
X71827237Y-132423771D02*
X71589142Y-132423771D01*
X71589142Y-132423771D02*
X71493904Y-132471390D01*
X71493904Y-132471390D02*
X71446285Y-132519009D01*
X71446285Y-132519009D02*
X71398666Y-132614247D01*
X71398666Y-132614247D02*
X71398666Y-132852342D01*
X71398666Y-132852342D02*
X71446285Y-132947580D01*
X71446285Y-132947580D02*
X71493904Y-132995200D01*
X71493904Y-132995200D02*
X71589142Y-133042819D01*
X71589142Y-133042819D02*
X71827237Y-133042819D01*
X71827237Y-133042819D02*
X71922475Y-132995200D01*
X71922475Y-132995200D02*
X71970094Y-132947580D01*
X70541523Y-133042819D02*
X70541523Y-132519009D01*
X70541523Y-132519009D02*
X70589142Y-132423771D01*
X70589142Y-132423771D02*
X70684380Y-132376152D01*
X70684380Y-132376152D02*
X70874856Y-132376152D01*
X70874856Y-132376152D02*
X70970094Y-132423771D01*
X70541523Y-132995200D02*
X70636761Y-133042819D01*
X70636761Y-133042819D02*
X70874856Y-133042819D01*
X70874856Y-133042819D02*
X70970094Y-132995200D01*
X70970094Y-132995200D02*
X71017713Y-132899961D01*
X71017713Y-132899961D02*
X71017713Y-132804723D01*
X71017713Y-132804723D02*
X70970094Y-132709485D01*
X70970094Y-132709485D02*
X70874856Y-132661866D01*
X70874856Y-132661866D02*
X70636761Y-132661866D01*
X70636761Y-132661866D02*
X70541523Y-132614247D01*
X99687857Y-133042819D02*
X100259285Y-133042819D01*
X99973571Y-133042819D02*
X99973571Y-132042819D01*
X99973571Y-132042819D02*
X100068809Y-132185676D01*
X100068809Y-132185676D02*
X100164047Y-132280914D01*
X100164047Y-132280914D02*
X100259285Y-132328533D01*
X99306904Y-132138057D02*
X99259285Y-132090438D01*
X99259285Y-132090438D02*
X99164047Y-132042819D01*
X99164047Y-132042819D02*
X98925952Y-132042819D01*
X98925952Y-132042819D02*
X98830714Y-132090438D01*
X98830714Y-132090438D02*
X98783095Y-132138057D01*
X98783095Y-132138057D02*
X98735476Y-132233295D01*
X98735476Y-132233295D02*
X98735476Y-132328533D01*
X98735476Y-132328533D02*
X98783095Y-132471390D01*
X98783095Y-132471390D02*
X99354523Y-133042819D01*
X99354523Y-133042819D02*
X98735476Y-133042819D01*
X97878333Y-133042819D02*
X97878333Y-132519009D01*
X97878333Y-132519009D02*
X97925952Y-132423771D01*
X97925952Y-132423771D02*
X98021190Y-132376152D01*
X98021190Y-132376152D02*
X98211666Y-132376152D01*
X98211666Y-132376152D02*
X98306904Y-132423771D01*
X97878333Y-132995200D02*
X97973571Y-133042819D01*
X97973571Y-133042819D02*
X98211666Y-133042819D01*
X98211666Y-133042819D02*
X98306904Y-132995200D01*
X98306904Y-132995200D02*
X98354523Y-132899961D01*
X98354523Y-132899961D02*
X98354523Y-132804723D01*
X98354523Y-132804723D02*
X98306904Y-132709485D01*
X98306904Y-132709485D02*
X98211666Y-132661866D01*
X98211666Y-132661866D02*
X97973571Y-132661866D01*
X97973571Y-132661866D02*
X97878333Y-132614247D01*
X64143713Y-132042819D02*
X63524666Y-132042819D01*
X63524666Y-132042819D02*
X63857999Y-132423771D01*
X63857999Y-132423771D02*
X63715142Y-132423771D01*
X63715142Y-132423771D02*
X63619904Y-132471390D01*
X63619904Y-132471390D02*
X63572285Y-132519009D01*
X63572285Y-132519009D02*
X63524666Y-132614247D01*
X63524666Y-132614247D02*
X63524666Y-132852342D01*
X63524666Y-132852342D02*
X63572285Y-132947580D01*
X63572285Y-132947580D02*
X63619904Y-132995200D01*
X63619904Y-132995200D02*
X63715142Y-133042819D01*
X63715142Y-133042819D02*
X64000856Y-133042819D01*
X64000856Y-133042819D02*
X64096094Y-132995200D01*
X64096094Y-132995200D02*
X64143713Y-132947580D01*
X62667523Y-133042819D02*
X62667523Y-132519009D01*
X62667523Y-132519009D02*
X62715142Y-132423771D01*
X62715142Y-132423771D02*
X62810380Y-132376152D01*
X62810380Y-132376152D02*
X63000856Y-132376152D01*
X63000856Y-132376152D02*
X63096094Y-132423771D01*
X62667523Y-132995200D02*
X62762761Y-133042819D01*
X62762761Y-133042819D02*
X63000856Y-133042819D01*
X63000856Y-133042819D02*
X63096094Y-132995200D01*
X63096094Y-132995200D02*
X63143713Y-132899961D01*
X63143713Y-132899961D02*
X63143713Y-132804723D01*
X63143713Y-132804723D02*
X63096094Y-132709485D01*
X63096094Y-132709485D02*
X63000856Y-132661866D01*
X63000856Y-132661866D02*
X62762761Y-132661866D01*
X62762761Y-132661866D02*
X62667523Y-132614247D01*
X83717618Y-132471390D02*
X83812856Y-132423771D01*
X83812856Y-132423771D02*
X83860475Y-132376152D01*
X83860475Y-132376152D02*
X83908094Y-132280914D01*
X83908094Y-132280914D02*
X83908094Y-132233295D01*
X83908094Y-132233295D02*
X83860475Y-132138057D01*
X83860475Y-132138057D02*
X83812856Y-132090438D01*
X83812856Y-132090438D02*
X83717618Y-132042819D01*
X83717618Y-132042819D02*
X83527142Y-132042819D01*
X83527142Y-132042819D02*
X83431904Y-132090438D01*
X83431904Y-132090438D02*
X83384285Y-132138057D01*
X83384285Y-132138057D02*
X83336666Y-132233295D01*
X83336666Y-132233295D02*
X83336666Y-132280914D01*
X83336666Y-132280914D02*
X83384285Y-132376152D01*
X83384285Y-132376152D02*
X83431904Y-132423771D01*
X83431904Y-132423771D02*
X83527142Y-132471390D01*
X83527142Y-132471390D02*
X83717618Y-132471390D01*
X83717618Y-132471390D02*
X83812856Y-132519009D01*
X83812856Y-132519009D02*
X83860475Y-132566628D01*
X83860475Y-132566628D02*
X83908094Y-132661866D01*
X83908094Y-132661866D02*
X83908094Y-132852342D01*
X83908094Y-132852342D02*
X83860475Y-132947580D01*
X83860475Y-132947580D02*
X83812856Y-132995200D01*
X83812856Y-132995200D02*
X83717618Y-133042819D01*
X83717618Y-133042819D02*
X83527142Y-133042819D01*
X83527142Y-133042819D02*
X83431904Y-132995200D01*
X83431904Y-132995200D02*
X83384285Y-132947580D01*
X83384285Y-132947580D02*
X83336666Y-132852342D01*
X83336666Y-132852342D02*
X83336666Y-132661866D01*
X83336666Y-132661866D02*
X83384285Y-132566628D01*
X83384285Y-132566628D02*
X83431904Y-132519009D01*
X83431904Y-132519009D02*
X83527142Y-132471390D01*
X82479523Y-133042819D02*
X82479523Y-132519009D01*
X82479523Y-132519009D02*
X82527142Y-132423771D01*
X82527142Y-132423771D02*
X82622380Y-132376152D01*
X82622380Y-132376152D02*
X82812856Y-132376152D01*
X82812856Y-132376152D02*
X82908094Y-132423771D01*
X82479523Y-132995200D02*
X82574761Y-133042819D01*
X82574761Y-133042819D02*
X82812856Y-133042819D01*
X82812856Y-133042819D02*
X82908094Y-132995200D01*
X82908094Y-132995200D02*
X82955713Y-132899961D01*
X82955713Y-132899961D02*
X82955713Y-132804723D01*
X82955713Y-132804723D02*
X82908094Y-132709485D01*
X82908094Y-132709485D02*
X82812856Y-132661866D01*
X82812856Y-132661866D02*
X82574761Y-132661866D01*
X82574761Y-132661866D02*
X82479523Y-132614247D01*
X102996904Y-80182819D02*
X102996904Y-80992342D01*
X102996904Y-80992342D02*
X102949285Y-81087580D01*
X102949285Y-81087580D02*
X102901666Y-81135200D01*
X102901666Y-81135200D02*
X102806428Y-81182819D01*
X102806428Y-81182819D02*
X102615952Y-81182819D01*
X102615952Y-81182819D02*
X102520714Y-81135200D01*
X102520714Y-81135200D02*
X102473095Y-81087580D01*
X102473095Y-81087580D02*
X102425476Y-80992342D01*
X102425476Y-80992342D02*
X102425476Y-80182819D01*
X102044523Y-80182819D02*
X101425476Y-80182819D01*
X101425476Y-80182819D02*
X101758809Y-80563771D01*
X101758809Y-80563771D02*
X101615952Y-80563771D01*
X101615952Y-80563771D02*
X101520714Y-80611390D01*
X101520714Y-80611390D02*
X101473095Y-80659009D01*
X101473095Y-80659009D02*
X101425476Y-80754247D01*
X101425476Y-80754247D02*
X101425476Y-80992342D01*
X101425476Y-80992342D02*
X101473095Y-81087580D01*
X101473095Y-81087580D02*
X101520714Y-81135200D01*
X101520714Y-81135200D02*
X101615952Y-81182819D01*
X101615952Y-81182819D02*
X101901666Y-81182819D01*
X101901666Y-81182819D02*
X101996904Y-81135200D01*
X101996904Y-81135200D02*
X102044523Y-81087580D01*
X102353666Y-75216580D02*
X102401285Y-75264200D01*
X102401285Y-75264200D02*
X102544142Y-75311819D01*
X102544142Y-75311819D02*
X102639380Y-75311819D01*
X102639380Y-75311819D02*
X102782237Y-75264200D01*
X102782237Y-75264200D02*
X102877475Y-75168961D01*
X102877475Y-75168961D02*
X102925094Y-75073723D01*
X102925094Y-75073723D02*
X102972713Y-74883247D01*
X102972713Y-74883247D02*
X102972713Y-74740390D01*
X102972713Y-74740390D02*
X102925094Y-74549914D01*
X102925094Y-74549914D02*
X102877475Y-74454676D01*
X102877475Y-74454676D02*
X102782237Y-74359438D01*
X102782237Y-74359438D02*
X102639380Y-74311819D01*
X102639380Y-74311819D02*
X102544142Y-74311819D01*
X102544142Y-74311819D02*
X102401285Y-74359438D01*
X102401285Y-74359438D02*
X102353666Y-74407057D01*
X101448904Y-74311819D02*
X101925094Y-74311819D01*
X101925094Y-74311819D02*
X101972713Y-74788009D01*
X101972713Y-74788009D02*
X101925094Y-74740390D01*
X101925094Y-74740390D02*
X101829856Y-74692771D01*
X101829856Y-74692771D02*
X101591761Y-74692771D01*
X101591761Y-74692771D02*
X101496523Y-74740390D01*
X101496523Y-74740390D02*
X101448904Y-74788009D01*
X101448904Y-74788009D02*
X101401285Y-74883247D01*
X101401285Y-74883247D02*
X101401285Y-75121342D01*
X101401285Y-75121342D02*
X101448904Y-75216580D01*
X101448904Y-75216580D02*
X101496523Y-75264200D01*
X101496523Y-75264200D02*
X101591761Y-75311819D01*
X101591761Y-75311819D02*
X101829856Y-75311819D01*
X101829856Y-75311819D02*
X101925094Y-75264200D01*
X101925094Y-75264200D02*
X101972713Y-75216580D01*
X83438666Y-72477580D02*
X83486285Y-72525200D01*
X83486285Y-72525200D02*
X83629142Y-72572819D01*
X83629142Y-72572819D02*
X83724380Y-72572819D01*
X83724380Y-72572819D02*
X83867237Y-72525200D01*
X83867237Y-72525200D02*
X83962475Y-72429961D01*
X83962475Y-72429961D02*
X84010094Y-72334723D01*
X84010094Y-72334723D02*
X84057713Y-72144247D01*
X84057713Y-72144247D02*
X84057713Y-72001390D01*
X84057713Y-72001390D02*
X84010094Y-71810914D01*
X84010094Y-71810914D02*
X83962475Y-71715676D01*
X83962475Y-71715676D02*
X83867237Y-71620438D01*
X83867237Y-71620438D02*
X83724380Y-71572819D01*
X83724380Y-71572819D02*
X83629142Y-71572819D01*
X83629142Y-71572819D02*
X83486285Y-71620438D01*
X83486285Y-71620438D02*
X83438666Y-71668057D01*
X83057713Y-71668057D02*
X83010094Y-71620438D01*
X83010094Y-71620438D02*
X82914856Y-71572819D01*
X82914856Y-71572819D02*
X82676761Y-71572819D01*
X82676761Y-71572819D02*
X82581523Y-71620438D01*
X82581523Y-71620438D02*
X82533904Y-71668057D01*
X82533904Y-71668057D02*
X82486285Y-71763295D01*
X82486285Y-71763295D02*
X82486285Y-71858533D01*
X82486285Y-71858533D02*
X82533904Y-72001390D01*
X82533904Y-72001390D02*
X83105332Y-72572819D01*
X83105332Y-72572819D02*
X82486285Y-72572819D01*
X100623666Y-56927819D02*
X100956999Y-56451628D01*
X101195094Y-56927819D02*
X101195094Y-55927819D01*
X101195094Y-55927819D02*
X100814142Y-55927819D01*
X100814142Y-55927819D02*
X100718904Y-55975438D01*
X100718904Y-55975438D02*
X100671285Y-56023057D01*
X100671285Y-56023057D02*
X100623666Y-56118295D01*
X100623666Y-56118295D02*
X100623666Y-56261152D01*
X100623666Y-56261152D02*
X100671285Y-56356390D01*
X100671285Y-56356390D02*
X100718904Y-56404009D01*
X100718904Y-56404009D02*
X100814142Y-56451628D01*
X100814142Y-56451628D02*
X101195094Y-56451628D01*
X100242713Y-56023057D02*
X100195094Y-55975438D01*
X100195094Y-55975438D02*
X100099856Y-55927819D01*
X100099856Y-55927819D02*
X99861761Y-55927819D01*
X99861761Y-55927819D02*
X99766523Y-55975438D01*
X99766523Y-55975438D02*
X99718904Y-56023057D01*
X99718904Y-56023057D02*
X99671285Y-56118295D01*
X99671285Y-56118295D02*
X99671285Y-56213533D01*
X99671285Y-56213533D02*
X99718904Y-56356390D01*
X99718904Y-56356390D02*
X100290332Y-56927819D01*
X100290332Y-56927819D02*
X99671285Y-56927819D01*
X96446666Y-56927819D02*
X96779999Y-56451628D01*
X97018094Y-56927819D02*
X97018094Y-55927819D01*
X97018094Y-55927819D02*
X96637142Y-55927819D01*
X96637142Y-55927819D02*
X96541904Y-55975438D01*
X96541904Y-55975438D02*
X96494285Y-56023057D01*
X96494285Y-56023057D02*
X96446666Y-56118295D01*
X96446666Y-56118295D02*
X96446666Y-56261152D01*
X96446666Y-56261152D02*
X96494285Y-56356390D01*
X96494285Y-56356390D02*
X96541904Y-56404009D01*
X96541904Y-56404009D02*
X96637142Y-56451628D01*
X96637142Y-56451628D02*
X97018094Y-56451628D01*
X95494285Y-56927819D02*
X96065713Y-56927819D01*
X95779999Y-56927819D02*
X95779999Y-55927819D01*
X95779999Y-55927819D02*
X95875237Y-56070676D01*
X95875237Y-56070676D02*
X95970475Y-56165914D01*
X95970475Y-56165914D02*
X96065713Y-56213533D01*
X104814666Y-56927819D02*
X105147999Y-56451628D01*
X105386094Y-56927819D02*
X105386094Y-55927819D01*
X105386094Y-55927819D02*
X105005142Y-55927819D01*
X105005142Y-55927819D02*
X104909904Y-55975438D01*
X104909904Y-55975438D02*
X104862285Y-56023057D01*
X104862285Y-56023057D02*
X104814666Y-56118295D01*
X104814666Y-56118295D02*
X104814666Y-56261152D01*
X104814666Y-56261152D02*
X104862285Y-56356390D01*
X104862285Y-56356390D02*
X104909904Y-56404009D01*
X104909904Y-56404009D02*
X105005142Y-56451628D01*
X105005142Y-56451628D02*
X105386094Y-56451628D01*
X104481332Y-55927819D02*
X103862285Y-55927819D01*
X103862285Y-55927819D02*
X104195618Y-56308771D01*
X104195618Y-56308771D02*
X104052761Y-56308771D01*
X104052761Y-56308771D02*
X103957523Y-56356390D01*
X103957523Y-56356390D02*
X103909904Y-56404009D01*
X103909904Y-56404009D02*
X103862285Y-56499247D01*
X103862285Y-56499247D02*
X103862285Y-56737342D01*
X103862285Y-56737342D02*
X103909904Y-56832580D01*
X103909904Y-56832580D02*
X103957523Y-56880200D01*
X103957523Y-56880200D02*
X104052761Y-56927819D01*
X104052761Y-56927819D02*
X104338475Y-56927819D01*
X104338475Y-56927819D02*
X104433713Y-56880200D01*
X104433713Y-56880200D02*
X104481332Y-56832580D01*
X83946904Y-77308819D02*
X83946904Y-78118342D01*
X83946904Y-78118342D02*
X83899285Y-78213580D01*
X83899285Y-78213580D02*
X83851666Y-78261200D01*
X83851666Y-78261200D02*
X83756428Y-78308819D01*
X83756428Y-78308819D02*
X83565952Y-78308819D01*
X83565952Y-78308819D02*
X83470714Y-78261200D01*
X83470714Y-78261200D02*
X83423095Y-78213580D01*
X83423095Y-78213580D02*
X83375476Y-78118342D01*
X83375476Y-78118342D02*
X83375476Y-77308819D01*
X82375476Y-78308819D02*
X82946904Y-78308819D01*
X82661190Y-78308819D02*
X82661190Y-77308819D01*
X82661190Y-77308819D02*
X82756428Y-77451676D01*
X82756428Y-77451676D02*
X82851666Y-77546914D01*
X82851666Y-77546914D02*
X82946904Y-77594533D01*
D10*
X107375000Y-99688000D02*
X107375000Y-81668000D01*
X97095000Y-99688000D02*
X107375000Y-99688000D01*
X104885000Y-99628000D02*
X104885000Y-81728000D01*
X99585000Y-99628000D02*
X104885000Y-99628000D01*
X104885000Y-81728000D02*
X103235000Y-81728000D01*
X101235000Y-81728000D02*
X99585000Y-81728000D01*
X99585000Y-81728000D02*
X99585000Y-99628000D01*
X107375000Y-81668000D02*
X97095000Y-81668000D01*
X97095000Y-81668000D02*
X97095000Y-99688000D01*
X103235000Y-81728000D02*
G75*
G02*
X101235000Y-81728000I-1000000J0D01*
G01*
X99527000Y-78198000D02*
X99527000Y-78513000D01*
X104767000Y-78513000D02*
X99527000Y-78513000D01*
X99527000Y-75773000D02*
X99527000Y-76088000D01*
X104767000Y-75773000D02*
X99527000Y-75773000D01*
X104767000Y-78198000D02*
X104767000Y-78513000D01*
X104767000Y-75773000D02*
X104767000Y-76088000D01*
X85805000Y-73730000D02*
X85805000Y-73415000D01*
X80565000Y-73415000D02*
X85805000Y-73415000D01*
X85805000Y-76155000D02*
X85805000Y-75840000D01*
X80565000Y-76155000D02*
X85805000Y-76155000D01*
X80565000Y-73730000D02*
X80565000Y-73415000D01*
X80565000Y-76155000D02*
X80565000Y-75840000D01*
X101827000Y-58833000D02*
X101827000Y-65373000D01*
X101827000Y-65373000D02*
X101497000Y-65373000D01*
X99087000Y-65373000D02*
X99417000Y-65373000D01*
X99087000Y-58833000D02*
X99087000Y-65373000D01*
X101497000Y-58833000D02*
X101827000Y-58833000D01*
X99417000Y-58833000D02*
X99087000Y-58833000D01*
X97636000Y-58833000D02*
X97636000Y-65373000D01*
X97636000Y-65373000D02*
X97306000Y-65373000D01*
X94896000Y-65373000D02*
X95226000Y-65373000D01*
X94896000Y-58833000D02*
X94896000Y-65373000D01*
X97306000Y-58833000D02*
X97636000Y-58833000D01*
X95226000Y-58833000D02*
X94896000Y-58833000D01*
X106018000Y-58833000D02*
X106018000Y-65373000D01*
X106018000Y-65373000D02*
X105688000Y-65373000D01*
X103278000Y-65373000D02*
X103608000Y-65373000D01*
X103278000Y-58833000D02*
X103278000Y-65373000D01*
X105688000Y-58833000D02*
X106018000Y-58833000D01*
X103608000Y-58833000D02*
X103278000Y-58833000D01*
X92310000Y-99554000D02*
X92310000Y-79754000D01*
X74060000Y-99554000D02*
X92310000Y-99554000D01*
X92310000Y-79754000D02*
X91310000Y-78754000D01*
X91310000Y-78754000D02*
X84185000Y-78754000D01*
X82185000Y-78754000D02*
X74060000Y-78754000D01*
X74060000Y-78754000D02*
X74060000Y-99554000D01*
%LPC*%
D13*
X112014000Y-56134000D03*
D14*
X114554000Y-56134000D03*
X117094000Y-56134000D03*
X117094000Y-48514000D03*
X114554000Y-48514000D03*
X112014000Y-48514000D03*
D13*
X106045000Y-83058000D03*
D14*
X106045000Y-85598000D03*
X106045000Y-88138000D03*
X106045000Y-90678000D03*
X106045000Y-93218000D03*
X106045000Y-95758000D03*
X106045000Y-98298000D03*
X98425000Y-98298000D03*
X98425000Y-95758000D03*
X98425000Y-93218000D03*
X98425000Y-90678000D03*
X98425000Y-88138000D03*
X98425000Y-85598000D03*
X98425000Y-83058000D03*
D15*
X99647000Y-77143000D03*
X104647000Y-77143000D03*
X85685000Y-74785000D03*
X80685000Y-74785000D03*
X100457000Y-65913000D03*
D14*
X100457000Y-58293000D03*
D15*
X96266000Y-65913000D03*
D14*
X96266000Y-58293000D03*
D15*
X104648000Y-65913000D03*
D14*
X104648000Y-58293000D03*
D16*
X81915000Y-84074000D03*
D17*
X84455000Y-81534000D03*
X84455000Y-84074000D03*
X86995000Y-81534000D03*
X89535000Y-84074000D03*
X86995000Y-84074000D03*
X89535000Y-86614000D03*
X86995000Y-86614000D03*
X89535000Y-89154000D03*
X86995000Y-89154000D03*
X89535000Y-91694000D03*
X86995000Y-91694000D03*
X89535000Y-94234000D03*
X86995000Y-96774000D03*
X86995000Y-94234000D03*
X84455000Y-96774000D03*
X84455000Y-94234000D03*
X81915000Y-96774000D03*
X81915000Y-94234000D03*
X79375000Y-96774000D03*
X76835000Y-94234000D03*
X79375000Y-94234000D03*
X76835000Y-91694000D03*
X79375000Y-91694000D03*
X76835000Y-89154000D03*
X79375000Y-89154000D03*
X76835000Y-86614000D03*
X79375000Y-86614000D03*
X76835000Y-84074000D03*
X79375000Y-81534000D03*
X79375000Y-84074000D03*
X81915000Y-81534000D03*
D18*
X55465000Y-139192000D03*
X59425000Y-139192000D03*
X63385000Y-139192000D03*
X67345000Y-139192000D03*
X71305000Y-139192000D03*
X75265000Y-139192000D03*
X79225000Y-139192000D03*
X83185000Y-139192000D03*
X87145000Y-139192000D03*
X91105000Y-139192000D03*
X95065000Y-139192000D03*
X99025000Y-139192000D03*
X102985000Y-139192000D03*
X110905000Y-139192000D03*
%LPD*%
M02*
