G04 #@! TF.GenerationSoftware,KiCad,Pcbnew,8.0.2*
G04 #@! TF.CreationDate,2025-01-06T09:06:17+01:00*
G04 #@! TF.ProjectId,multicartridge-sst39sf010,6d756c74-6963-4617-9274-72696467652d,rev?*
G04 #@! TF.SameCoordinates,Original*
G04 #@! TF.FileFunction,Soldermask,Top*
G04 #@! TF.FilePolarity,Negative*
%FSLAX46Y46*%
G04 Gerber Fmt 4.6, Leading zero omitted, Abs format (unit mm)*
G04 Created by KiCad (PCBNEW 8.0.2) date 2025-01-06 09:06:17*
%MOMM*%
%LPD*%
G01*
G04 APERTURE LIST*
%ADD10R,1.600000X1.600000*%
%ADD11O,1.600000X1.600000*%
%ADD12C,1.600000*%
%ADD13R,1.422400X1.422400*%
%ADD14C,1.422400*%
%ADD15R,2.000000X10.000000*%
G04 APERTURE END LIST*
D10*
X112014000Y-56134000D03*
D11*
X114554000Y-56134000D03*
X117094000Y-56134000D03*
X117094000Y-48514000D03*
X114554000Y-48514000D03*
X112014000Y-48514000D03*
D10*
X106045000Y-83058000D03*
D11*
X106045000Y-85598000D03*
X106045000Y-88138000D03*
X106045000Y-90678000D03*
X106045000Y-93218000D03*
X106045000Y-95758000D03*
X106045000Y-98298000D03*
X98425000Y-98298000D03*
X98425000Y-95758000D03*
X98425000Y-93218000D03*
X98425000Y-90678000D03*
X98425000Y-88138000D03*
X98425000Y-85598000D03*
X98425000Y-83058000D03*
D12*
X99647000Y-77143000D03*
X104647000Y-77143000D03*
X85685000Y-74785000D03*
X80685000Y-74785000D03*
X100457000Y-65913000D03*
D11*
X100457000Y-58293000D03*
D12*
X96266000Y-65913000D03*
D11*
X96266000Y-58293000D03*
D12*
X104648000Y-65913000D03*
D11*
X104648000Y-58293000D03*
D13*
X81915000Y-84074000D03*
D14*
X84455000Y-81534000D03*
X84455000Y-84074000D03*
X86995000Y-81534000D03*
X89535000Y-84074000D03*
X86995000Y-84074000D03*
X89535000Y-86614000D03*
X86995000Y-86614000D03*
X89535000Y-89154000D03*
X86995000Y-89154000D03*
X89535000Y-91694000D03*
X86995000Y-91694000D03*
X89535000Y-94234000D03*
X86995000Y-96774000D03*
X86995000Y-94234000D03*
X84455000Y-96774000D03*
X84455000Y-94234000D03*
X81915000Y-96774000D03*
X81915000Y-94234000D03*
X79375000Y-96774000D03*
X76835000Y-94234000D03*
X79375000Y-94234000D03*
X76835000Y-91694000D03*
X79375000Y-91694000D03*
X76835000Y-89154000D03*
X79375000Y-89154000D03*
X76835000Y-86614000D03*
X79375000Y-86614000D03*
X76835000Y-84074000D03*
X79375000Y-81534000D03*
X79375000Y-84074000D03*
X81915000Y-81534000D03*
D15*
X55465000Y-139192000D03*
X59425000Y-139192000D03*
X63385000Y-139192000D03*
X67345000Y-139192000D03*
X71305000Y-139192000D03*
X75265000Y-139192000D03*
X79225000Y-139192000D03*
X83185000Y-139192000D03*
X87145000Y-139192000D03*
X91105000Y-139192000D03*
X95065000Y-139192000D03*
X99025000Y-139192000D03*
X110905000Y-139192000D03*
M02*
