G04 #@! TF.GenerationSoftware,KiCad,Pcbnew,8.0.2*
G04 #@! TF.CreationDate,2025-01-06T09:06:17+01:00*
G04 #@! TF.ProjectId,multicartridge-sst39sf010,6d756c74-6963-4617-9274-72696467652d,rev?*
G04 #@! TF.SameCoordinates,Original*
G04 #@! TF.FileFunction,Copper,L1,Top*
G04 #@! TF.FilePolarity,Positive*
%FSLAX46Y46*%
G04 Gerber Fmt 4.6, Leading zero omitted, Abs format (unit mm)*
G04 Created by KiCad (PCBNEW 8.0.2) date 2025-01-06 09:06:17*
%MOMM*%
%LPD*%
G01*
G04 APERTURE LIST*
G04 #@! TA.AperFunction,ComponentPad*
%ADD10R,1.600000X1.600000*%
G04 #@! TD*
G04 #@! TA.AperFunction,ComponentPad*
%ADD11O,1.600000X1.600000*%
G04 #@! TD*
G04 #@! TA.AperFunction,ComponentPad*
%ADD12C,1.600000*%
G04 #@! TD*
G04 #@! TA.AperFunction,ComponentPad*
%ADD13R,1.422400X1.422400*%
G04 #@! TD*
G04 #@! TA.AperFunction,ComponentPad*
%ADD14C,1.422400*%
G04 #@! TD*
G04 #@! TA.AperFunction,SMDPad,CuDef*
%ADD15R,2.000000X10.000000*%
G04 #@! TD*
G04 #@! TA.AperFunction,ViaPad*
%ADD16C,0.800000*%
G04 #@! TD*
G04 #@! TA.AperFunction,Conductor*
%ADD17C,0.250000*%
G04 #@! TD*
G04 APERTURE END LIST*
D10*
X112014000Y-56134000D03*
D11*
X114554000Y-56134000D03*
X117094000Y-56134000D03*
X117094000Y-48514000D03*
X114554000Y-48514000D03*
X112014000Y-48514000D03*
D10*
X106045000Y-83058000D03*
D11*
X106045000Y-85598000D03*
X106045000Y-88138000D03*
X106045000Y-90678000D03*
X106045000Y-93218000D03*
X106045000Y-95758000D03*
X106045000Y-98298000D03*
X98425000Y-98298000D03*
X98425000Y-95758000D03*
X98425000Y-93218000D03*
X98425000Y-90678000D03*
X98425000Y-88138000D03*
X98425000Y-85598000D03*
X98425000Y-83058000D03*
D12*
X99647000Y-77143000D03*
X104647000Y-77143000D03*
X85685000Y-74785000D03*
X80685000Y-74785000D03*
X100457000Y-65913000D03*
D11*
X100457000Y-58293000D03*
D12*
X96266000Y-65913000D03*
D11*
X96266000Y-58293000D03*
D12*
X104648000Y-65913000D03*
D11*
X104648000Y-58293000D03*
D13*
X81915000Y-84074000D03*
D14*
X84455000Y-81534000D03*
X84455000Y-84074000D03*
X86995000Y-81534000D03*
X89535000Y-84074000D03*
X86995000Y-84074000D03*
X89535000Y-86614000D03*
X86995000Y-86614000D03*
X89535000Y-89154000D03*
X86995000Y-89154000D03*
X89535000Y-91694000D03*
X86995000Y-91694000D03*
X89535000Y-94234000D03*
X86995000Y-96774000D03*
X86995000Y-94234000D03*
X84455000Y-96774000D03*
X84455000Y-94234000D03*
X81915000Y-96774000D03*
X81915000Y-94234000D03*
X79375000Y-96774000D03*
X76835000Y-94234000D03*
X79375000Y-94234000D03*
X76835000Y-91694000D03*
X79375000Y-91694000D03*
X76835000Y-89154000D03*
X79375000Y-89154000D03*
X76835000Y-86614000D03*
X79375000Y-86614000D03*
X76835000Y-84074000D03*
X79375000Y-81534000D03*
X79375000Y-84074000D03*
X81915000Y-81534000D03*
D15*
X55465000Y-139192000D03*
X59425000Y-139192000D03*
X63385000Y-139192000D03*
X67345000Y-139192000D03*
X71305000Y-139192000D03*
X75265000Y-139192000D03*
X79225000Y-139192000D03*
X83185000Y-139192000D03*
X87145000Y-139192000D03*
X91105000Y-139192000D03*
X95065000Y-139192000D03*
X99025000Y-139192000D03*
X110905000Y-139192000D03*
D16*
X108077000Y-117881400D03*
X105029000Y-118643400D03*
X101422200Y-118592600D03*
X98374200Y-112039400D03*
X85115400Y-110921800D03*
X82778600Y-110921800D03*
X73685400Y-119913400D03*
X76733400Y-118948200D03*
X67109600Y-121640600D03*
X55465000Y-123113800D03*
X67104500Y-116664500D03*
X67834600Y-106822800D03*
X91972000Y-99597000D03*
X92433700Y-88562400D03*
X87963600Y-121520500D03*
X87760700Y-120518200D03*
X86263800Y-121315900D03*
X74525100Y-122473700D03*
X100741200Y-124513000D03*
X85538700Y-101825300D03*
X60731400Y-121539000D03*
X62458600Y-123317000D03*
D17*
X107315000Y-118643400D02*
X108077000Y-117881400D01*
X105029000Y-118643400D02*
X107315000Y-118643400D01*
X99136200Y-118592600D02*
X101422200Y-118592600D01*
X98374200Y-117830600D02*
X99136200Y-118592600D01*
X102743000Y-122511200D02*
X100741200Y-124513000D01*
X101912000Y-97849396D02*
X102743000Y-98680396D01*
X98658100Y-89263100D02*
X101912000Y-92517000D01*
X101912000Y-92517000D02*
X101912000Y-97849396D01*
X102743000Y-98680396D02*
X102743000Y-122511200D01*
X98425000Y-89263100D02*
X98658100Y-89263100D01*
X98425000Y-88138000D02*
X98425000Y-89263100D01*
X110905000Y-133866900D02*
X110905000Y-139192000D01*
X103962200Y-100003800D02*
X103962200Y-126924100D01*
X103962200Y-126924100D02*
X110905000Y-133866900D01*
X105668000Y-98298000D02*
X103962200Y-100003800D01*
X98374200Y-112039400D02*
X98374200Y-117830600D01*
X82778600Y-110921800D02*
X85115400Y-110921800D01*
X75265000Y-132308600D02*
X75265000Y-139192000D01*
X76631800Y-132308600D02*
X75265000Y-132308600D01*
X79121000Y-129819400D02*
X76631800Y-132308600D01*
X82636104Y-129819400D02*
X79121000Y-129819400D01*
X89773400Y-95461300D02*
X89773400Y-122682104D01*
X89773400Y-122682104D02*
X82636104Y-129819400D01*
X90592000Y-94642700D02*
X89773400Y-95461300D01*
X90592000Y-92751000D02*
X90592000Y-94642700D01*
X89535000Y-91694000D02*
X90592000Y-92751000D01*
X73685400Y-119913400D02*
X73736200Y-119862600D01*
X75819000Y-119862600D02*
X76733400Y-118948200D01*
X65100200Y-123317000D02*
X66776600Y-121640600D01*
X73736200Y-119862600D02*
X75819000Y-119862600D01*
X66776600Y-121640600D02*
X67109600Y-121640600D01*
X79375000Y-84710600D02*
X79375000Y-84074000D01*
X77085500Y-87884000D02*
X78057900Y-86911600D01*
X76602900Y-87884000D02*
X77085500Y-87884000D01*
X78057900Y-86027700D02*
X79375000Y-84710600D01*
X55465000Y-109021900D02*
X76602900Y-87884000D01*
X55465000Y-139192000D02*
X55465000Y-109021900D01*
X78057900Y-86911600D02*
X78057900Y-86027700D01*
X80685000Y-80224000D02*
X79375000Y-81534000D01*
X104647000Y-66095000D02*
X104647000Y-77143000D01*
X82550000Y-91694000D02*
X83185000Y-91059000D01*
X96308000Y-65955000D02*
X100415000Y-65955000D01*
X100415000Y-65955000D02*
X100457000Y-65913000D01*
X102362000Y-97663000D02*
X102997000Y-98298000D01*
X102362000Y-79428000D02*
X102362000Y-97663000D01*
X81915000Y-84074000D02*
X81915000Y-88900000D01*
X104648000Y-65913000D02*
X104556500Y-66004500D01*
X104507000Y-65955000D02*
X104556500Y-66004500D01*
X104647000Y-77143000D02*
X102362000Y-79428000D01*
X83185000Y-90170000D02*
X83185000Y-91059000D01*
X83185000Y-91059000D02*
X83185000Y-95504000D01*
X79375000Y-91694000D02*
X82550000Y-91694000D01*
X96266000Y-65955000D02*
X96308000Y-65955000D01*
X102997000Y-98298000D02*
X105668000Y-98298000D01*
X81915000Y-88900000D02*
X83185000Y-90170000D01*
X104556500Y-66004500D02*
X104647000Y-66095000D01*
X83185000Y-95504000D02*
X84455000Y-96774000D01*
X100415000Y-65955000D02*
X104507000Y-65955000D01*
X79375000Y-81534000D02*
X81915000Y-84074000D01*
X105668000Y-98298000D02*
X106045000Y-98298000D01*
X80685000Y-74785000D02*
X80685000Y-80224000D01*
X96308000Y-65955000D02*
X96266000Y-65913000D01*
X59425000Y-124344000D02*
X67104500Y-116664500D01*
X59425000Y-139192000D02*
X59425000Y-124344000D01*
X63385000Y-139192000D02*
X63385000Y-126627000D01*
X63385000Y-126627000D02*
X67834600Y-122177400D01*
X67834600Y-122177400D02*
X67834600Y-106822800D01*
X81915000Y-94234000D02*
X80873200Y-93192200D01*
X80873200Y-93192200D02*
X76393700Y-93192200D01*
X76393700Y-93192200D02*
X68670100Y-100915800D01*
X68670100Y-132541800D02*
X67345000Y-133866900D01*
X68670100Y-100915800D02*
X68670100Y-132541800D01*
X67345000Y-139192000D02*
X67345000Y-133866900D01*
X71305000Y-99764000D02*
X76835000Y-94234000D01*
X71305000Y-139192000D02*
X71305000Y-99764000D01*
X91042200Y-97284900D02*
X91042200Y-92553300D01*
X90591800Y-90210800D02*
X89535000Y-89154000D01*
X90223400Y-122868500D02*
X90223400Y-98103700D01*
X90591800Y-92102900D02*
X90591800Y-90210800D01*
X90223400Y-98103700D02*
X91042200Y-97284900D01*
X79225000Y-133866900D02*
X90223400Y-122868500D01*
X91042200Y-92553300D02*
X90591800Y-92102900D01*
X79225000Y-139192000D02*
X79225000Y-133866900D01*
X91096800Y-88175800D02*
X89535000Y-86614000D01*
X90673600Y-99206800D02*
X91521900Y-98358500D01*
X90673600Y-126378300D02*
X90673600Y-99206800D01*
X91521900Y-92220200D02*
X91096800Y-91795100D01*
X83185000Y-133866900D02*
X90673600Y-126378300D01*
X91521900Y-98358500D02*
X91521900Y-92220200D01*
X91096800Y-91795100D02*
X91096800Y-88175800D01*
X83185000Y-139192000D02*
X83185000Y-133866900D01*
X91552400Y-86091400D02*
X89535000Y-84074000D01*
X91123700Y-99393300D02*
X91973900Y-98543100D01*
X87145000Y-139192000D02*
X87145000Y-133866900D01*
X91552400Y-91614100D02*
X91552400Y-86091400D01*
X91973900Y-92035600D02*
X91552400Y-91614100D01*
X91973900Y-98543100D02*
X91973900Y-92035600D01*
X91123700Y-129888200D02*
X91123700Y-99393300D01*
X87145000Y-133866900D02*
X91123700Y-129888200D01*
X91972000Y-132999900D02*
X91972000Y-99597000D01*
X91105000Y-139192000D02*
X91105000Y-133866900D01*
X91105000Y-133866900D02*
X91972000Y-132999900D01*
X95065000Y-91193700D02*
X95065000Y-139192000D01*
X92433700Y-88562400D02*
X95065000Y-91193700D01*
X86995000Y-84074000D02*
X88498700Y-85577700D01*
X88498700Y-120985400D02*
X87963600Y-121520500D01*
X88498700Y-85577700D02*
X88498700Y-120985400D01*
X88048500Y-87667500D02*
X88048500Y-120230400D01*
X88048500Y-120230400D02*
X87760700Y-120518200D01*
X86995000Y-86614000D02*
X88048500Y-87667500D01*
X85940100Y-90208900D02*
X86995000Y-89154000D01*
X85940100Y-101201300D02*
X85940100Y-90208900D01*
X86263800Y-121315900D02*
X86263800Y-101525000D01*
X86263800Y-101525000D02*
X85940100Y-101201300D01*
X79375000Y-96774000D02*
X79375000Y-117623800D01*
X79375000Y-117623800D02*
X74525100Y-122473700D01*
X97275500Y-132117400D02*
X97275500Y-87639400D01*
X97275500Y-87639400D02*
X98191800Y-86723100D01*
X98425000Y-85598000D02*
X98425000Y-86723100D01*
X99025000Y-139192000D02*
X99025000Y-133866900D01*
X99025000Y-133866900D02*
X97275500Y-132117400D01*
X98191800Y-86723100D02*
X98425000Y-86723100D01*
X106045000Y-90678000D02*
X106045000Y-93218000D01*
X106045000Y-83058000D02*
X106045000Y-85598000D01*
X117094000Y-53340000D02*
X117094000Y-48514000D01*
X115951000Y-54483000D02*
X117094000Y-53340000D01*
X106045000Y-54483000D02*
X115951000Y-54483000D01*
X104648000Y-58293000D02*
X104648000Y-55880000D01*
X104648000Y-55880000D02*
X106045000Y-54483000D01*
X114554000Y-53086000D02*
X114554000Y-48514000D01*
X113919000Y-53721000D02*
X114554000Y-53086000D01*
X85725000Y-78659400D02*
X85725000Y-82804000D01*
X100457000Y-58335000D02*
X92575600Y-66216400D01*
X103251000Y-53721000D02*
X113919000Y-53721000D01*
X92575600Y-66216400D02*
X92575600Y-71808800D01*
X100457000Y-58293000D02*
X100457000Y-56515000D01*
X100457000Y-58335000D02*
X100457000Y-58293000D01*
X85725000Y-82804000D02*
X84455000Y-84074000D01*
X100457000Y-56515000D02*
X103251000Y-53721000D01*
X92575600Y-71808800D02*
X85725000Y-78659400D01*
X80645000Y-97024200D02*
X85446100Y-101825300D01*
X79375000Y-94234000D02*
X80645000Y-95504000D01*
X80645000Y-95504000D02*
X80645000Y-97024200D01*
X85446100Y-101825300D02*
X85538700Y-101825300D01*
X98425000Y-93218000D02*
X98425000Y-90678000D01*
X98425000Y-95758000D02*
X98425000Y-93218000D01*
X96266000Y-54864000D02*
X98298000Y-52832000D01*
X96266000Y-58293000D02*
X96266000Y-59418100D01*
X111506000Y-52832000D02*
X112014000Y-52324000D01*
X98298000Y-52832000D02*
X111506000Y-52832000D01*
X96266000Y-58293000D02*
X96266000Y-54864000D01*
X96266000Y-59418100D02*
X84455000Y-71229100D01*
X112014000Y-52324000D02*
X112014000Y-48514000D01*
X84455000Y-71229100D02*
X84455000Y-81534000D01*
X55465000Y-123113800D02*
X57039800Y-121539000D01*
X57039800Y-121539000D02*
X60731400Y-121539000D01*
X62458600Y-123317000D02*
X65100200Y-123317000D01*
G04 #@! TA.AperFunction,Conductor*
G36*
X123064539Y-44190285D02*
G01*
X123110294Y-44243089D01*
X123121500Y-44294600D01*
X123121500Y-65495500D01*
X123101815Y-65562539D01*
X123049011Y-65608294D01*
X122997500Y-65619500D01*
X122937774Y-65619500D01*
X122862401Y-65626484D01*
X122521114Y-65658108D01*
X122521113Y-65658109D01*
X122521109Y-65658109D01*
X122521106Y-65658110D01*
X122369826Y-65686389D01*
X122109770Y-65735001D01*
X121707301Y-65849515D01*
X121317102Y-66000678D01*
X120942519Y-66187199D01*
X120586741Y-66407487D01*
X120252816Y-66659655D01*
X120252807Y-66659662D01*
X119943570Y-66941570D01*
X119661662Y-67250807D01*
X119661655Y-67250816D01*
X119409487Y-67584741D01*
X119189199Y-67940519D01*
X119002678Y-68315102D01*
X118851515Y-68705301D01*
X118737001Y-69107770D01*
X118660109Y-69519113D01*
X118660108Y-69519114D01*
X118621500Y-69935776D01*
X118621500Y-70354223D01*
X118660108Y-70770885D01*
X118660109Y-70770886D01*
X118660110Y-70770894D01*
X118737000Y-71182222D01*
X118737002Y-71182229D01*
X118737001Y-71182229D01*
X118851515Y-71584698D01*
X118851514Y-71584698D01*
X118962503Y-71871194D01*
X119002678Y-71974897D01*
X119189199Y-72349481D01*
X119282719Y-72500521D01*
X119409487Y-72705258D01*
X119661655Y-73039183D01*
X119661662Y-73039192D01*
X119771293Y-73159451D01*
X119943570Y-73348430D01*
X120109679Y-73499858D01*
X120252807Y-73630337D01*
X120252816Y-73630344D01*
X120285291Y-73654868D01*
X120586743Y-73882514D01*
X120942519Y-74102801D01*
X121317103Y-74289322D01*
X121707299Y-74440484D01*
X121978252Y-74517577D01*
X122109770Y-74554998D01*
X122109772Y-74554998D01*
X122109778Y-74555000D01*
X122521106Y-74631890D01*
X122521113Y-74631890D01*
X122521114Y-74631891D01*
X122662585Y-74645000D01*
X122937774Y-74670500D01*
X122997500Y-74670500D01*
X123064539Y-74690185D01*
X123110294Y-74742989D01*
X123121500Y-74794500D01*
X123121500Y-77834438D01*
X123121501Y-83434439D01*
X123121501Y-94834438D01*
X123121500Y-100446437D01*
X123121500Y-115495500D01*
X123101815Y-115562539D01*
X123049011Y-115608294D01*
X122997500Y-115619500D01*
X122937774Y-115619500D01*
X122862401Y-115626484D01*
X122521114Y-115658108D01*
X122521113Y-115658109D01*
X122521109Y-115658109D01*
X122521106Y-115658110D01*
X122363262Y-115687615D01*
X122109770Y-115735001D01*
X121707301Y-115849515D01*
X121317102Y-116000678D01*
X120942519Y-116187199D01*
X120586741Y-116407487D01*
X120252816Y-116659655D01*
X120252807Y-116659662D01*
X119943570Y-116941570D01*
X119661662Y-117250807D01*
X119661655Y-117250816D01*
X119409487Y-117584741D01*
X119189199Y-117940519D01*
X119002678Y-118315102D01*
X118851515Y-118705301D01*
X118737001Y-119107770D01*
X118660109Y-119519113D01*
X118660108Y-119519114D01*
X118621500Y-119935776D01*
X118621500Y-120354223D01*
X118660108Y-120770885D01*
X118660109Y-120770886D01*
X118660110Y-120770894D01*
X118737000Y-121182222D01*
X118737002Y-121182229D01*
X118737001Y-121182229D01*
X118851515Y-121584698D01*
X118851514Y-121584698D01*
X119002678Y-121974897D01*
X119189199Y-122349481D01*
X119409486Y-122705257D01*
X119409487Y-122705258D01*
X119661655Y-123039183D01*
X119661662Y-123039192D01*
X119741776Y-123127072D01*
X119943570Y-123348430D01*
X120093763Y-123485349D01*
X120252807Y-123630337D01*
X120252816Y-123630344D01*
X120279829Y-123650743D01*
X120586743Y-123882514D01*
X120942519Y-124102801D01*
X121317103Y-124289322D01*
X121707299Y-124440484D01*
X121978252Y-124517577D01*
X122109770Y-124554998D01*
X122109772Y-124554998D01*
X122109778Y-124555000D01*
X122521106Y-124631890D01*
X122521113Y-124631890D01*
X122521114Y-124631891D01*
X122662585Y-124645000D01*
X122937774Y-124670500D01*
X122997500Y-124670500D01*
X123064539Y-124690185D01*
X123110294Y-124742989D01*
X123121500Y-124794500D01*
X123121500Y-125021000D01*
X123101815Y-125088039D01*
X123049011Y-125133794D01*
X122997500Y-125145000D01*
X101640134Y-125145000D01*
X101573095Y-125125315D01*
X101527340Y-125072511D01*
X101517396Y-125003353D01*
X101532747Y-124959001D01*
X101575724Y-124884561D01*
X101575723Y-124884561D01*
X101575727Y-124884556D01*
X101634742Y-124702928D01*
X101652181Y-124536999D01*
X101678764Y-124472388D01*
X101687811Y-124462292D01*
X103235072Y-122915033D01*
X103304401Y-122811275D01*
X103352155Y-122695984D01*
X103354639Y-122683500D01*
X103361367Y-122649676D01*
X103376499Y-122573598D01*
X103376500Y-122573595D01*
X103376500Y-118643400D01*
X104115496Y-118643400D01*
X104135458Y-118833328D01*
X104135459Y-118833331D01*
X104194470Y-119014949D01*
X104194473Y-119014956D01*
X104289960Y-119180344D01*
X104417747Y-119322266D01*
X104572248Y-119434518D01*
X104746712Y-119512194D01*
X104933513Y-119551900D01*
X105124487Y-119551900D01*
X105311288Y-119512194D01*
X105485752Y-119434518D01*
X105640253Y-119322266D01*
X105644160Y-119317927D01*
X105703646Y-119281279D01*
X105736309Y-119276900D01*
X107377395Y-119276900D01*
X107377396Y-119276899D01*
X107499785Y-119252555D01*
X107615075Y-119204800D01*
X107718833Y-119135471D01*
X108028085Y-118826219D01*
X108089408Y-118792734D01*
X108115766Y-118789900D01*
X108172487Y-118789900D01*
X108359288Y-118750194D01*
X108533752Y-118672518D01*
X108688253Y-118560266D01*
X108816040Y-118418344D01*
X108911527Y-118252956D01*
X108970542Y-118071328D01*
X108990504Y-117881400D01*
X108970542Y-117691472D01*
X108911527Y-117509844D01*
X108816040Y-117344456D01*
X108688253Y-117202534D01*
X108533752Y-117090282D01*
X108359288Y-117012606D01*
X108359286Y-117012605D01*
X108172487Y-116972900D01*
X107981513Y-116972900D01*
X107794714Y-117012605D01*
X107620246Y-117090283D01*
X107465745Y-117202535D01*
X107337959Y-117344457D01*
X107242473Y-117509843D01*
X107242470Y-117509850D01*
X107184308Y-117688855D01*
X107183458Y-117691472D01*
X107166556Y-117852283D01*
X107166019Y-117857396D01*
X107139434Y-117922010D01*
X107130380Y-117932114D01*
X107088915Y-117973580D01*
X107027593Y-118007066D01*
X107001233Y-118009900D01*
X105736309Y-118009900D01*
X105669270Y-117990215D01*
X105644160Y-117968873D01*
X105640254Y-117964535D01*
X105632774Y-117959100D01*
X105485752Y-117852282D01*
X105311288Y-117774606D01*
X105311286Y-117774605D01*
X105124487Y-117734900D01*
X104933513Y-117734900D01*
X104746714Y-117774605D01*
X104572246Y-117852283D01*
X104417745Y-117964535D01*
X104289959Y-118106457D01*
X104194473Y-118271843D01*
X104194470Y-118271850D01*
X104135459Y-118453468D01*
X104135458Y-118453472D01*
X104115496Y-118643400D01*
X103376500Y-118643400D01*
X103376500Y-98618001D01*
X103376499Y-98617997D01*
X103352156Y-98495618D01*
X103352155Y-98495611D01*
X103304400Y-98380321D01*
X103304399Y-98380320D01*
X103304396Y-98380314D01*
X103235072Y-98276564D01*
X103203847Y-98245339D01*
X103146833Y-98188325D01*
X102581819Y-97623311D01*
X102548334Y-97561988D01*
X102545500Y-97535630D01*
X102545500Y-92454605D01*
X102545499Y-92454601D01*
X102521156Y-92332222D01*
X102521155Y-92332215D01*
X102521153Y-92332210D01*
X102490799Y-92258928D01*
X102473404Y-92216932D01*
X102473403Y-92216931D01*
X102473401Y-92216925D01*
X102469978Y-92211802D01*
X102404072Y-92113166D01*
X102404069Y-92113163D01*
X99439457Y-89148552D01*
X99405972Y-89087229D01*
X99410956Y-89017537D01*
X99428672Y-88987141D01*
X99428092Y-88986735D01*
X99431196Y-88982301D01*
X99431198Y-88982300D01*
X99562523Y-88794749D01*
X99659284Y-88587243D01*
X99718543Y-88366087D01*
X99738498Y-88138000D01*
X99718543Y-87909913D01*
X99659284Y-87688757D01*
X99643281Y-87654439D01*
X99620736Y-87606091D01*
X99562523Y-87481251D01*
X99431198Y-87293700D01*
X99269300Y-87131802D01*
X99090083Y-87006312D01*
X99046461Y-86951738D01*
X99039268Y-86882239D01*
X99039574Y-86880636D01*
X99056574Y-86795177D01*
X99088959Y-86733266D01*
X99107059Y-86717800D01*
X99269300Y-86604198D01*
X99431198Y-86442300D01*
X99562523Y-86254749D01*
X99659284Y-86047243D01*
X99718543Y-85826087D01*
X99738498Y-85598000D01*
X99738498Y-85597998D01*
X104731502Y-85597998D01*
X104731502Y-85598001D01*
X104751456Y-85826081D01*
X104751457Y-85826089D01*
X104810714Y-86047238D01*
X104810718Y-86047249D01*
X104879729Y-86195243D01*
X104907477Y-86254749D01*
X105038802Y-86442300D01*
X105200700Y-86604198D01*
X105385028Y-86733266D01*
X105388251Y-86735523D01*
X105431345Y-86755618D01*
X105483784Y-86801791D01*
X105502936Y-86868984D01*
X105482720Y-86935865D01*
X105431345Y-86980382D01*
X105388251Y-87000476D01*
X105263126Y-87088090D01*
X105200700Y-87131802D01*
X105200698Y-87131803D01*
X105200695Y-87131806D01*
X105038806Y-87293695D01*
X104907476Y-87481252D01*
X104907475Y-87481254D01*
X104810718Y-87688750D01*
X104810714Y-87688761D01*
X104751457Y-87909910D01*
X104751456Y-87909918D01*
X104731502Y-88137998D01*
X104731502Y-88138001D01*
X104751456Y-88366081D01*
X104751457Y-88366089D01*
X104810714Y-88587238D01*
X104810718Y-88587249D01*
X104879729Y-88735243D01*
X104907477Y-88794749D01*
X105038802Y-88982300D01*
X105200700Y-89144198D01*
X105388251Y-89275523D01*
X105431345Y-89295618D01*
X105483784Y-89341791D01*
X105502936Y-89408984D01*
X105482720Y-89475865D01*
X105431345Y-89520382D01*
X105388251Y-89540476D01*
X105315167Y-89591651D01*
X105200700Y-89671802D01*
X105200698Y-89671803D01*
X105200695Y-89671806D01*
X105038806Y-89833695D01*
X105038803Y-89833698D01*
X105038802Y-89833700D01*
X104963667Y-89941003D01*
X104907476Y-90021252D01*
X104907475Y-90021254D01*
X104810718Y-90228750D01*
X104810714Y-90228761D01*
X104751457Y-90449910D01*
X104751456Y-90449918D01*
X104731502Y-90677998D01*
X104731502Y-90678001D01*
X104751456Y-90906081D01*
X104751457Y-90906089D01*
X104810714Y-91127238D01*
X104810718Y-91127249D01*
X104903720Y-91326692D01*
X104907477Y-91334749D01*
X105038802Y-91522300D01*
X105200700Y-91684198D01*
X105358625Y-91794779D01*
X105402249Y-91849354D01*
X105411500Y-91896352D01*
X105411500Y-91999647D01*
X105391815Y-92066686D01*
X105358624Y-92101221D01*
X105200699Y-92211802D01*
X105038806Y-92373695D01*
X105038803Y-92373698D01*
X105038802Y-92373700D01*
X104982152Y-92454605D01*
X104907476Y-92561252D01*
X104907475Y-92561254D01*
X104810718Y-92768750D01*
X104810714Y-92768761D01*
X104751457Y-92989910D01*
X104751456Y-92989918D01*
X104731502Y-93217998D01*
X104731502Y-93218001D01*
X104751456Y-93446081D01*
X104751457Y-93446089D01*
X104810714Y-93667238D01*
X104810718Y-93667249D01*
X104879729Y-93815243D01*
X104907477Y-93874749D01*
X105038802Y-94062300D01*
X105200700Y-94224198D01*
X105358623Y-94334777D01*
X105388251Y-94355523D01*
X105431345Y-94375618D01*
X105483784Y-94421791D01*
X105502936Y-94488984D01*
X105482720Y-94555865D01*
X105431345Y-94600382D01*
X105388251Y-94620476D01*
X105263126Y-94708090D01*
X105200700Y-94751802D01*
X105200698Y-94751803D01*
X105200695Y-94751806D01*
X105038806Y-94913695D01*
X104907476Y-95101252D01*
X104907475Y-95101254D01*
X104810718Y-95308750D01*
X104810714Y-95308761D01*
X104751457Y-95529910D01*
X104751456Y-95529918D01*
X104731502Y-95757998D01*
X104731502Y-95758001D01*
X104751456Y-95986081D01*
X104751457Y-95986089D01*
X104810714Y-96207238D01*
X104810718Y-96207249D01*
X104904314Y-96407966D01*
X104907477Y-96414749D01*
X105038802Y-96602300D01*
X105200700Y-96764198D01*
X105388251Y-96895523D01*
X105441401Y-96920307D01*
X105493840Y-96966479D01*
X105512992Y-97033673D01*
X105492776Y-97100554D01*
X105441401Y-97145071D01*
X105392517Y-97167865D01*
X105206179Y-97298342D01*
X105045342Y-97459179D01*
X104914865Y-97645517D01*
X104818734Y-97851673D01*
X104818730Y-97851682D01*
X104766127Y-98047999D01*
X104766128Y-98048000D01*
X105729314Y-98048000D01*
X105724920Y-98052394D01*
X105672259Y-98143606D01*
X105645000Y-98245339D01*
X105645000Y-98350661D01*
X105672259Y-98452394D01*
X105724920Y-98543606D01*
X105729314Y-98548000D01*
X104766128Y-98548000D01*
X104818730Y-98744317D01*
X104818734Y-98744326D01*
X104914865Y-98950482D01*
X105045342Y-99136820D01*
X105206179Y-99297657D01*
X105392517Y-99428134D01*
X105598673Y-99524265D01*
X105598682Y-99524269D01*
X105794999Y-99576872D01*
X105795000Y-99576871D01*
X105795000Y-98613686D01*
X105799394Y-98618080D01*
X105890606Y-98670741D01*
X105992339Y-98698000D01*
X106097661Y-98698000D01*
X106199394Y-98670741D01*
X106290606Y-98618080D01*
X106295000Y-98613686D01*
X106295000Y-99576872D01*
X106491317Y-99524269D01*
X106491326Y-99524265D01*
X106697482Y-99428134D01*
X106883820Y-99297657D01*
X107044657Y-99136820D01*
X107175134Y-98950482D01*
X107271265Y-98744326D01*
X107271269Y-98744317D01*
X107323872Y-98548000D01*
X106360686Y-98548000D01*
X106365080Y-98543606D01*
X106417741Y-98452394D01*
X106445000Y-98350661D01*
X106445000Y-98245339D01*
X106417741Y-98143606D01*
X106365080Y-98052394D01*
X106360686Y-98048000D01*
X107323872Y-98048000D01*
X107323872Y-98047999D01*
X107271269Y-97851682D01*
X107271265Y-97851673D01*
X107175134Y-97645517D01*
X107044657Y-97459179D01*
X106883820Y-97298342D01*
X106697481Y-97167865D01*
X106697479Y-97167864D01*
X106648599Y-97145071D01*
X106596159Y-97098899D01*
X106577007Y-97031706D01*
X106597223Y-96964824D01*
X106648599Y-96920307D01*
X106701749Y-96895523D01*
X106889300Y-96764198D01*
X107051198Y-96602300D01*
X107182523Y-96414749D01*
X107279284Y-96207243D01*
X107338543Y-95986087D01*
X107358498Y-95758000D01*
X107358241Y-95755067D01*
X107347140Y-95628174D01*
X107338543Y-95529913D01*
X107279284Y-95308757D01*
X107272554Y-95294325D01*
X107215473Y-95171913D01*
X107182523Y-95101251D01*
X107051198Y-94913700D01*
X106889300Y-94751802D01*
X106701749Y-94620477D01*
X106658655Y-94600382D01*
X106606215Y-94554210D01*
X106587063Y-94487017D01*
X106607278Y-94420136D01*
X106658655Y-94375618D01*
X106672176Y-94369313D01*
X106701749Y-94355523D01*
X106889300Y-94224198D01*
X107051198Y-94062300D01*
X107182523Y-93874749D01*
X107279284Y-93667243D01*
X107338543Y-93446087D01*
X107358498Y-93218000D01*
X107338543Y-92989913D01*
X107279284Y-92768757D01*
X107182523Y-92561251D01*
X107051198Y-92373700D01*
X106889300Y-92211802D01*
X106731376Y-92101221D01*
X106687751Y-92046644D01*
X106678500Y-91999647D01*
X106678500Y-91896352D01*
X106698185Y-91829313D01*
X106731373Y-91794779D01*
X106889300Y-91684198D01*
X107051198Y-91522300D01*
X107182523Y-91334749D01*
X107279284Y-91127243D01*
X107338543Y-90906087D01*
X107358498Y-90678000D01*
X107355266Y-90641063D01*
X107347140Y-90548174D01*
X107338543Y-90449913D01*
X107279284Y-90228757D01*
X107182523Y-90021251D01*
X107051198Y-89833700D01*
X106889300Y-89671802D01*
X106701749Y-89540477D01*
X106658655Y-89520382D01*
X106606215Y-89474210D01*
X106587063Y-89407017D01*
X106607278Y-89340136D01*
X106658655Y-89295618D01*
X106661882Y-89294112D01*
X106701749Y-89275523D01*
X106889300Y-89144198D01*
X107051198Y-88982300D01*
X107182523Y-88794749D01*
X107279284Y-88587243D01*
X107338543Y-88366087D01*
X107358498Y-88138000D01*
X107338543Y-87909913D01*
X107279284Y-87688757D01*
X107263281Y-87654439D01*
X107240736Y-87606091D01*
X107182523Y-87481251D01*
X107051198Y-87293700D01*
X106889300Y-87131802D01*
X106701749Y-87000477D01*
X106658655Y-86980382D01*
X106606215Y-86934210D01*
X106587063Y-86867017D01*
X106607278Y-86800136D01*
X106658655Y-86755618D01*
X106661882Y-86754112D01*
X106701749Y-86735523D01*
X106889300Y-86604198D01*
X107051198Y-86442300D01*
X107182523Y-86254749D01*
X107279284Y-86047243D01*
X107338543Y-85826087D01*
X107358498Y-85598000D01*
X107354987Y-85557874D01*
X107346567Y-85461625D01*
X107338543Y-85369913D01*
X107279284Y-85148757D01*
X107182523Y-84941251D01*
X107051198Y-84753700D01*
X106889300Y-84591802D01*
X106881627Y-84586429D01*
X106838006Y-84531853D01*
X106830814Y-84462355D01*
X106862338Y-84400001D01*
X106922568Y-84364588D01*
X106939489Y-84361570D01*
X106954201Y-84359989D01*
X107091204Y-84308889D01*
X107208261Y-84221261D01*
X107295889Y-84104204D01*
X107346989Y-83967201D01*
X107352106Y-83919606D01*
X107353499Y-83906654D01*
X107353500Y-83906637D01*
X107353500Y-82209362D01*
X107353499Y-82209345D01*
X107350157Y-82178270D01*
X107346989Y-82148799D01*
X107346012Y-82146180D01*
X107310812Y-82051806D01*
X107295889Y-82011796D01*
X107208261Y-81894739D01*
X107091204Y-81807111D01*
X106954203Y-81756011D01*
X106893654Y-81749500D01*
X106893638Y-81749500D01*
X105196362Y-81749500D01*
X105196345Y-81749500D01*
X105135797Y-81756011D01*
X105135795Y-81756011D01*
X104998795Y-81807111D01*
X104881739Y-81894739D01*
X104794111Y-82011795D01*
X104743011Y-82148795D01*
X104743011Y-82148797D01*
X104736500Y-82209345D01*
X104736500Y-83906654D01*
X104743011Y-83967202D01*
X104743011Y-83967204D01*
X104779189Y-84064198D01*
X104794111Y-84104204D01*
X104881739Y-84221261D01*
X104998796Y-84308889D01*
X105098110Y-84345931D01*
X105135793Y-84359987D01*
X105135799Y-84359989D01*
X105150499Y-84361569D01*
X105215048Y-84388305D01*
X105254897Y-84445696D01*
X105257393Y-84515521D01*
X105221742Y-84575611D01*
X105208377Y-84586425D01*
X105208371Y-84586431D01*
X105200696Y-84591805D01*
X105038806Y-84753695D01*
X105038803Y-84753698D01*
X105038802Y-84753700D01*
X104983245Y-84833044D01*
X104907476Y-84941252D01*
X104907475Y-84941254D01*
X104810718Y-85148750D01*
X104810714Y-85148761D01*
X104751457Y-85369910D01*
X104751456Y-85369918D01*
X104731502Y-85597998D01*
X99738498Y-85597998D01*
X99734987Y-85557874D01*
X99726567Y-85461625D01*
X99718543Y-85369913D01*
X99659284Y-85148757D01*
X99562523Y-84941251D01*
X99431198Y-84753700D01*
X99269300Y-84591802D01*
X99081749Y-84460477D01*
X99038655Y-84440382D01*
X98986215Y-84394210D01*
X98967063Y-84327017D01*
X98987278Y-84260136D01*
X99038655Y-84215618D01*
X99041882Y-84214112D01*
X99081749Y-84195523D01*
X99269300Y-84064198D01*
X99431198Y-83902300D01*
X99562523Y-83714749D01*
X99659284Y-83507243D01*
X99718543Y-83286087D01*
X99738498Y-83058000D01*
X99718543Y-82829913D01*
X99659284Y-82608757D01*
X99562523Y-82401251D01*
X99431198Y-82213700D01*
X99269300Y-82051802D01*
X99081749Y-81920477D01*
X99081745Y-81920475D01*
X98874249Y-81823718D01*
X98874238Y-81823714D01*
X98653089Y-81764457D01*
X98653081Y-81764456D01*
X98425002Y-81744502D01*
X98424998Y-81744502D01*
X98196918Y-81764456D01*
X98196910Y-81764457D01*
X97975761Y-81823714D01*
X97975750Y-81823718D01*
X97768254Y-81920475D01*
X97768252Y-81920476D01*
X97726332Y-81949829D01*
X97580700Y-82051802D01*
X97580698Y-82051803D01*
X97580695Y-82051806D01*
X97418806Y-82213695D01*
X97287476Y-82401252D01*
X97287475Y-82401254D01*
X97190718Y-82608750D01*
X97190714Y-82608761D01*
X97131457Y-82829910D01*
X97131456Y-82829918D01*
X97111502Y-83057998D01*
X97111502Y-83058001D01*
X97131456Y-83286081D01*
X97131457Y-83286089D01*
X97190714Y-83507238D01*
X97190718Y-83507249D01*
X97287036Y-83713804D01*
X97287477Y-83714749D01*
X97418802Y-83902300D01*
X97580700Y-84064198D01*
X97768251Y-84195523D01*
X97811345Y-84215618D01*
X97863784Y-84261791D01*
X97882936Y-84328984D01*
X97862720Y-84395865D01*
X97811345Y-84440382D01*
X97768251Y-84460476D01*
X97689640Y-84515521D01*
X97580700Y-84591802D01*
X97580698Y-84591803D01*
X97580695Y-84591806D01*
X97418806Y-84753695D01*
X97418803Y-84753698D01*
X97418802Y-84753700D01*
X97363245Y-84833044D01*
X97287476Y-84941252D01*
X97287475Y-84941254D01*
X97190718Y-85148750D01*
X97190714Y-85148761D01*
X97131457Y-85369910D01*
X97131456Y-85369918D01*
X97111502Y-85597998D01*
X97111502Y-85598001D01*
X97131456Y-85826081D01*
X97131457Y-85826089D01*
X97190714Y-86047238D01*
X97190718Y-86047249D01*
X97259729Y-86195243D01*
X97287477Y-86254749D01*
X97418802Y-86442300D01*
X97418806Y-86442304D01*
X97421908Y-86446734D01*
X97420651Y-86447614D01*
X97445818Y-86505117D01*
X97434780Y-86574109D01*
X97410497Y-86608498D01*
X97138448Y-86880548D01*
X96871667Y-87147329D01*
X96827547Y-87191449D01*
X96783427Y-87235568D01*
X96714103Y-87339318D01*
X96714098Y-87339327D01*
X96666345Y-87454614D01*
X96666343Y-87454622D01*
X96642000Y-87577001D01*
X96642000Y-125021000D01*
X96622315Y-125088039D01*
X96569511Y-125133794D01*
X96518000Y-125145000D01*
X95822500Y-125145000D01*
X95755461Y-125125315D01*
X95709706Y-125072511D01*
X95698500Y-125021000D01*
X95698500Y-91131305D01*
X95698499Y-91131301D01*
X95697691Y-91127238D01*
X95674155Y-91008915D01*
X95631562Y-90906087D01*
X95626401Y-90893627D01*
X95626396Y-90893618D01*
X95557072Y-90789868D01*
X95523287Y-90756083D01*
X95468833Y-90701629D01*
X93380320Y-88613116D01*
X93346835Y-88551793D01*
X93344683Y-88538415D01*
X93327242Y-88372472D01*
X93268227Y-88190844D01*
X93172740Y-88025456D01*
X93044953Y-87883534D01*
X92890452Y-87771282D01*
X92715988Y-87693606D01*
X92715986Y-87693605D01*
X92529187Y-87653900D01*
X92338213Y-87653900D01*
X92338210Y-87653900D01*
X92335676Y-87654439D01*
X92334176Y-87654324D01*
X92331756Y-87654579D01*
X92331709Y-87654136D01*
X92266009Y-87649120D01*
X92210277Y-87606981D01*
X92186175Y-87541400D01*
X92185900Y-87533148D01*
X92185900Y-86029005D01*
X92185899Y-86029001D01*
X92161555Y-85906615D01*
X92113800Y-85791325D01*
X92113799Y-85791324D01*
X92113796Y-85791318D01*
X92044472Y-85687568D01*
X92032987Y-85676083D01*
X91956233Y-85599329D01*
X90770830Y-84413926D01*
X90737345Y-84352603D01*
X90738738Y-84294145D01*
X90739237Y-84292284D01*
X90740758Y-84286608D01*
X90759359Y-84074000D01*
X90740758Y-83861392D01*
X90685521Y-83655245D01*
X90595326Y-83461821D01*
X90595324Y-83461818D01*
X90595323Y-83461816D01*
X90472916Y-83287001D01*
X90472911Y-83286995D01*
X90322003Y-83136087D01*
X90210485Y-83058001D01*
X90147180Y-83013674D01*
X90129891Y-83005612D01*
X89953761Y-82923481D01*
X89953747Y-82923476D01*
X89747613Y-82868243D01*
X89747603Y-82868241D01*
X89535001Y-82849641D01*
X89534999Y-82849641D01*
X89322396Y-82868241D01*
X89322386Y-82868243D01*
X89116252Y-82923476D01*
X89116243Y-82923480D01*
X88922820Y-83013674D01*
X88922816Y-83013676D01*
X88748001Y-83136083D01*
X88747995Y-83136088D01*
X88597088Y-83286995D01*
X88597083Y-83287001D01*
X88474676Y-83461816D01*
X88474674Y-83461820D01*
X88384480Y-83655243D01*
X88382625Y-83660339D01*
X88381292Y-83659854D01*
X88348405Y-83713804D01*
X88285556Y-83744329D01*
X88216181Y-83736031D01*
X88162306Y-83691542D01*
X88147958Y-83660126D01*
X88147375Y-83660339D01*
X88145524Y-83655258D01*
X88145521Y-83655245D01*
X88055326Y-83461821D01*
X88055324Y-83461818D01*
X88055323Y-83461816D01*
X87932916Y-83287001D01*
X87932911Y-83286995D01*
X87782003Y-83136087D01*
X87670485Y-83058001D01*
X87607180Y-83013674D01*
X87589891Y-83005612D01*
X87413761Y-82923481D01*
X87408661Y-82921625D01*
X87409146Y-82920291D01*
X87355200Y-82887410D01*
X87324671Y-82824564D01*
X87332965Y-82755188D01*
X87377451Y-82701310D01*
X87408873Y-82686959D01*
X87408661Y-82686375D01*
X87413746Y-82684523D01*
X87413755Y-82684521D01*
X87607180Y-82594326D01*
X87782003Y-82471913D01*
X87932913Y-82321003D01*
X88055326Y-82146180D01*
X88145521Y-81952755D01*
X88200758Y-81746608D01*
X88219359Y-81534000D01*
X88200758Y-81321392D01*
X88145521Y-81115245D01*
X88055326Y-80921821D01*
X88055324Y-80921818D01*
X88055323Y-80921816D01*
X87932916Y-80747001D01*
X87932911Y-80746995D01*
X87782003Y-80596087D01*
X87671532Y-80518734D01*
X87607180Y-80473674D01*
X87607176Y-80473672D01*
X87413761Y-80383481D01*
X87413747Y-80383476D01*
X87207613Y-80328243D01*
X87207603Y-80328241D01*
X86995001Y-80309641D01*
X86994999Y-80309641D01*
X86782396Y-80328241D01*
X86782386Y-80328243D01*
X86576252Y-80383476D01*
X86576238Y-80383481D01*
X86534904Y-80402756D01*
X86465827Y-80413248D01*
X86402043Y-80384728D01*
X86363804Y-80326251D01*
X86358500Y-80290374D01*
X86358500Y-78973166D01*
X86378185Y-78906127D01*
X86394819Y-78885485D01*
X88137306Y-77142998D01*
X98333502Y-77142998D01*
X98333502Y-77143001D01*
X98353456Y-77371081D01*
X98353457Y-77371089D01*
X98412714Y-77592238D01*
X98412718Y-77592249D01*
X98507485Y-77795478D01*
X98509477Y-77799749D01*
X98640802Y-77987300D01*
X98802700Y-78149198D01*
X98990251Y-78280523D01*
X99115091Y-78338736D01*
X99197750Y-78377281D01*
X99197752Y-78377281D01*
X99197757Y-78377284D01*
X99418913Y-78436543D01*
X99581832Y-78450796D01*
X99646998Y-78456498D01*
X99647000Y-78456498D01*
X99647002Y-78456498D01*
X99704021Y-78451509D01*
X99875087Y-78436543D01*
X100096243Y-78377284D01*
X100303749Y-78280523D01*
X100491300Y-78149198D01*
X100653198Y-77987300D01*
X100784523Y-77799749D01*
X100881284Y-77592243D01*
X100940543Y-77371087D01*
X100960498Y-77143000D01*
X100960498Y-77142997D01*
X103342034Y-77142997D01*
X103342034Y-77143002D01*
X103361858Y-77369599D01*
X103361860Y-77369610D01*
X103420730Y-77589317D01*
X103420735Y-77589331D01*
X103516863Y-77795478D01*
X103567974Y-77868472D01*
X104247000Y-77189446D01*
X104247000Y-77195661D01*
X104274259Y-77297394D01*
X104326920Y-77388606D01*
X104401394Y-77463080D01*
X104492606Y-77515741D01*
X104594339Y-77543000D01*
X104600553Y-77543000D01*
X103921526Y-78222025D01*
X103994513Y-78273132D01*
X103994521Y-78273136D01*
X104200668Y-78369264D01*
X104200682Y-78369269D01*
X104420389Y-78428139D01*
X104420400Y-78428141D01*
X104646998Y-78447966D01*
X104647002Y-78447966D01*
X104873599Y-78428141D01*
X104873610Y-78428139D01*
X105093317Y-78369269D01*
X105093331Y-78369264D01*
X105299478Y-78273136D01*
X105372471Y-78222024D01*
X104693447Y-77543000D01*
X104699661Y-77543000D01*
X104801394Y-77515741D01*
X104892606Y-77463080D01*
X104967080Y-77388606D01*
X105019741Y-77297394D01*
X105047000Y-77195661D01*
X105047000Y-77189447D01*
X105726024Y-77868471D01*
X105777136Y-77795478D01*
X105873264Y-77589331D01*
X105873269Y-77589317D01*
X105932139Y-77369610D01*
X105932141Y-77369599D01*
X105951966Y-77143002D01*
X105951966Y-77142997D01*
X105932141Y-76916400D01*
X105932139Y-76916389D01*
X105873269Y-76696682D01*
X105873264Y-76696668D01*
X105777136Y-76490521D01*
X105777132Y-76490513D01*
X105726025Y-76417526D01*
X105047000Y-77096551D01*
X105047000Y-77090339D01*
X105019741Y-76988606D01*
X104967080Y-76897394D01*
X104892606Y-76822920D01*
X104801394Y-76770259D01*
X104699661Y-76743000D01*
X104693448Y-76743000D01*
X105372472Y-76063974D01*
X105299478Y-76012863D01*
X105093331Y-75916735D01*
X105093317Y-75916730D01*
X104873610Y-75857860D01*
X104873599Y-75857858D01*
X104647002Y-75838034D01*
X104646998Y-75838034D01*
X104420400Y-75857858D01*
X104420389Y-75857860D01*
X104200682Y-75916730D01*
X104200673Y-75916734D01*
X103994516Y-76012866D01*
X103994512Y-76012868D01*
X103921526Y-76063973D01*
X103921526Y-76063974D01*
X104600553Y-76743000D01*
X104594339Y-76743000D01*
X104492606Y-76770259D01*
X104401394Y-76822920D01*
X104326920Y-76897394D01*
X104274259Y-76988606D01*
X104247000Y-77090339D01*
X104247000Y-77096552D01*
X103567974Y-76417526D01*
X103567973Y-76417526D01*
X103516868Y-76490512D01*
X103516866Y-76490516D01*
X103420734Y-76696673D01*
X103420730Y-76696682D01*
X103361860Y-76916389D01*
X103361858Y-76916400D01*
X103342034Y-77142997D01*
X100960498Y-77142997D01*
X100940543Y-76914913D01*
X100881284Y-76693757D01*
X100784523Y-76486251D01*
X100653198Y-76298700D01*
X100491300Y-76136802D01*
X100303749Y-76005477D01*
X100303745Y-76005475D01*
X100096249Y-75908718D01*
X100096238Y-75908714D01*
X99875089Y-75849457D01*
X99875081Y-75849456D01*
X99647002Y-75829502D01*
X99646998Y-75829502D01*
X99418918Y-75849456D01*
X99418910Y-75849457D01*
X99197761Y-75908714D01*
X99197750Y-75908718D01*
X98990254Y-76005475D01*
X98990252Y-76005476D01*
X98970531Y-76019285D01*
X98802700Y-76136802D01*
X98802698Y-76136803D01*
X98802695Y-76136806D01*
X98640806Y-76298695D01*
X98509476Y-76486252D01*
X98509475Y-76486254D01*
X98412718Y-76693750D01*
X98412714Y-76693761D01*
X98353457Y-76914910D01*
X98353456Y-76914918D01*
X98333502Y-77142998D01*
X88137306Y-77142998D01*
X93067668Y-72212636D01*
X93067671Y-72212633D01*
X93137000Y-72108875D01*
X93184755Y-71993585D01*
X93188472Y-71974897D01*
X93209100Y-71871194D01*
X93209100Y-66530166D01*
X93228785Y-66463127D01*
X93245419Y-66442485D01*
X93774907Y-65912997D01*
X94961034Y-65912997D01*
X94961034Y-65913002D01*
X94980858Y-66139599D01*
X94980860Y-66139610D01*
X95039730Y-66359317D01*
X95039735Y-66359331D01*
X95135863Y-66565478D01*
X95186974Y-66638472D01*
X95866000Y-65959446D01*
X95866000Y-65965661D01*
X95893259Y-66067394D01*
X95945920Y-66158606D01*
X96020394Y-66233080D01*
X96111606Y-66285741D01*
X96213339Y-66313000D01*
X96219553Y-66313000D01*
X95540526Y-66992025D01*
X95613513Y-67043132D01*
X95613521Y-67043136D01*
X95819668Y-67139264D01*
X95819682Y-67139269D01*
X96039389Y-67198139D01*
X96039400Y-67198141D01*
X96265998Y-67217966D01*
X96266002Y-67217966D01*
X96492599Y-67198141D01*
X96492610Y-67198139D01*
X96712317Y-67139269D01*
X96712331Y-67139264D01*
X96918478Y-67043136D01*
X96991471Y-66992024D01*
X96312447Y-66313000D01*
X96318661Y-66313000D01*
X96420394Y-66285741D01*
X96511606Y-66233080D01*
X96586080Y-66158606D01*
X96638741Y-66067394D01*
X96666000Y-65965661D01*
X96666000Y-65959447D01*
X97345024Y-66638471D01*
X97396136Y-66565478D01*
X97492264Y-66359331D01*
X97492269Y-66359317D01*
X97551139Y-66139610D01*
X97551141Y-66139599D01*
X97570966Y-65913002D01*
X97570966Y-65912997D01*
X99152034Y-65912997D01*
X99152034Y-65913002D01*
X99171858Y-66139599D01*
X99171860Y-66139610D01*
X99230730Y-66359317D01*
X99230735Y-66359331D01*
X99326863Y-66565478D01*
X99377974Y-66638472D01*
X100057000Y-65959446D01*
X100057000Y-65965661D01*
X100084259Y-66067394D01*
X100136920Y-66158606D01*
X100211394Y-66233080D01*
X100302606Y-66285741D01*
X100404339Y-66313000D01*
X100410553Y-66313000D01*
X99731526Y-66992025D01*
X99804513Y-67043132D01*
X99804521Y-67043136D01*
X100010668Y-67139264D01*
X100010682Y-67139269D01*
X100230389Y-67198139D01*
X100230400Y-67198141D01*
X100456998Y-67217966D01*
X100457002Y-67217966D01*
X100683599Y-67198141D01*
X100683610Y-67198139D01*
X100903317Y-67139269D01*
X100903331Y-67139264D01*
X101109478Y-67043136D01*
X101182471Y-66992024D01*
X100503447Y-66313000D01*
X100509661Y-66313000D01*
X100611394Y-66285741D01*
X100702606Y-66233080D01*
X100777080Y-66158606D01*
X100829741Y-66067394D01*
X100857000Y-65965661D01*
X100857000Y-65959447D01*
X101536024Y-66638471D01*
X101587136Y-66565478D01*
X101683264Y-66359331D01*
X101683269Y-66359317D01*
X101742139Y-66139610D01*
X101742141Y-66139599D01*
X101761966Y-65913002D01*
X101761966Y-65912997D01*
X103343034Y-65912997D01*
X103343034Y-65913002D01*
X103362858Y-66139599D01*
X103362860Y-66139610D01*
X103421730Y-66359317D01*
X103421735Y-66359331D01*
X103517863Y-66565478D01*
X103568974Y-66638472D01*
X104248000Y-65959446D01*
X104248000Y-65965661D01*
X104275259Y-66067394D01*
X104327920Y-66158606D01*
X104402394Y-66233080D01*
X104493606Y-66285741D01*
X104595339Y-66313000D01*
X104601553Y-66313000D01*
X103922526Y-66992025D01*
X103995513Y-67043132D01*
X103995521Y-67043136D01*
X104201668Y-67139264D01*
X104201682Y-67139269D01*
X104421389Y-67198139D01*
X104421400Y-67198141D01*
X104647998Y-67217966D01*
X104648002Y-67217966D01*
X104874599Y-67198141D01*
X104874610Y-67198139D01*
X105094317Y-67139269D01*
X105094331Y-67139264D01*
X105300478Y-67043136D01*
X105373471Y-66992024D01*
X104694447Y-66313000D01*
X104700661Y-66313000D01*
X104802394Y-66285741D01*
X104893606Y-66233080D01*
X104968080Y-66158606D01*
X105020741Y-66067394D01*
X105048000Y-65965661D01*
X105048000Y-65959447D01*
X105727024Y-66638471D01*
X105778136Y-66565478D01*
X105874264Y-66359331D01*
X105874269Y-66359317D01*
X105933139Y-66139610D01*
X105933141Y-66139599D01*
X105952966Y-65913002D01*
X105952966Y-65912997D01*
X105933141Y-65686400D01*
X105933139Y-65686389D01*
X105874269Y-65466682D01*
X105874264Y-65466668D01*
X105778136Y-65260521D01*
X105778132Y-65260513D01*
X105727025Y-65187526D01*
X105048000Y-65866551D01*
X105048000Y-65860339D01*
X105020741Y-65758606D01*
X104968080Y-65667394D01*
X104893606Y-65592920D01*
X104802394Y-65540259D01*
X104700661Y-65513000D01*
X104694448Y-65513000D01*
X105373472Y-64833974D01*
X105300478Y-64782863D01*
X105094331Y-64686735D01*
X105094317Y-64686730D01*
X104874610Y-64627860D01*
X104874599Y-64627858D01*
X104648002Y-64608034D01*
X104647998Y-64608034D01*
X104421400Y-64627858D01*
X104421389Y-64627860D01*
X104201682Y-64686730D01*
X104201673Y-64686734D01*
X103995516Y-64782866D01*
X103995512Y-64782868D01*
X103922526Y-64833973D01*
X103922526Y-64833974D01*
X104601553Y-65513000D01*
X104595339Y-65513000D01*
X104493606Y-65540259D01*
X104402394Y-65592920D01*
X104327920Y-65667394D01*
X104275259Y-65758606D01*
X104248000Y-65860339D01*
X104248000Y-65866552D01*
X103568974Y-65187526D01*
X103568973Y-65187526D01*
X103517868Y-65260512D01*
X103517866Y-65260516D01*
X103421734Y-65466673D01*
X103421730Y-65466682D01*
X103362860Y-65686389D01*
X103362858Y-65686400D01*
X103343034Y-65912997D01*
X101761966Y-65912997D01*
X101742141Y-65686400D01*
X101742139Y-65686389D01*
X101683269Y-65466682D01*
X101683264Y-65466668D01*
X101587136Y-65260521D01*
X101587132Y-65260513D01*
X101536025Y-65187526D01*
X100857000Y-65866551D01*
X100857000Y-65860339D01*
X100829741Y-65758606D01*
X100777080Y-65667394D01*
X100702606Y-65592920D01*
X100611394Y-65540259D01*
X100509661Y-65513000D01*
X100503448Y-65513000D01*
X101182472Y-64833974D01*
X101109478Y-64782863D01*
X100903331Y-64686735D01*
X100903317Y-64686730D01*
X100683610Y-64627860D01*
X100683599Y-64627858D01*
X100457002Y-64608034D01*
X100456998Y-64608034D01*
X100230400Y-64627858D01*
X100230389Y-64627860D01*
X100010682Y-64686730D01*
X100010673Y-64686734D01*
X99804516Y-64782866D01*
X99804512Y-64782868D01*
X99731526Y-64833973D01*
X99731526Y-64833974D01*
X100410553Y-65513000D01*
X100404339Y-65513000D01*
X100302606Y-65540259D01*
X100211394Y-65592920D01*
X100136920Y-65667394D01*
X100084259Y-65758606D01*
X100057000Y-65860339D01*
X100057000Y-65866552D01*
X99377974Y-65187526D01*
X99377973Y-65187526D01*
X99326868Y-65260512D01*
X99326866Y-65260516D01*
X99230734Y-65466673D01*
X99230730Y-65466682D01*
X99171860Y-65686389D01*
X99171858Y-65686400D01*
X99152034Y-65912997D01*
X97570966Y-65912997D01*
X97551141Y-65686400D01*
X97551139Y-65686389D01*
X97492269Y-65466682D01*
X97492264Y-65466668D01*
X97396136Y-65260521D01*
X97396132Y-65260513D01*
X97345025Y-65187526D01*
X96666000Y-65866551D01*
X96666000Y-65860339D01*
X96638741Y-65758606D01*
X96586080Y-65667394D01*
X96511606Y-65592920D01*
X96420394Y-65540259D01*
X96318661Y-65513000D01*
X96312448Y-65513000D01*
X96991472Y-64833974D01*
X96918478Y-64782863D01*
X96712331Y-64686735D01*
X96712317Y-64686730D01*
X96492610Y-64627860D01*
X96492599Y-64627858D01*
X96266002Y-64608034D01*
X96265998Y-64608034D01*
X96039400Y-64627858D01*
X96039389Y-64627860D01*
X95819682Y-64686730D01*
X95819673Y-64686734D01*
X95613516Y-64782866D01*
X95613512Y-64782868D01*
X95540526Y-64833973D01*
X95540526Y-64833974D01*
X96219553Y-65513000D01*
X96213339Y-65513000D01*
X96111606Y-65540259D01*
X96020394Y-65592920D01*
X95945920Y-65667394D01*
X95893259Y-65758606D01*
X95866000Y-65860339D01*
X95866000Y-65866552D01*
X95186974Y-65187526D01*
X95186973Y-65187526D01*
X95135868Y-65260512D01*
X95135866Y-65260516D01*
X95039734Y-65466673D01*
X95039730Y-65466682D01*
X94980860Y-65686389D01*
X94980858Y-65686400D01*
X94961034Y-65912997D01*
X93774907Y-65912997D01*
X96253466Y-63434438D01*
X100077694Y-59610209D01*
X100139015Y-59576726D01*
X100197466Y-59578117D01*
X100209220Y-59581266D01*
X100228913Y-59586543D01*
X100391832Y-59600796D01*
X100456998Y-59606498D01*
X100457000Y-59606498D01*
X100457002Y-59606498D01*
X100514021Y-59601509D01*
X100685087Y-59586543D01*
X100906243Y-59527284D01*
X101113749Y-59430523D01*
X101301300Y-59299198D01*
X101463198Y-59137300D01*
X101594523Y-58949749D01*
X101691284Y-58742243D01*
X101750543Y-58521087D01*
X101770498Y-58293000D01*
X101750543Y-58064913D01*
X101691284Y-57843757D01*
X101594523Y-57636251D01*
X101463198Y-57448700D01*
X101301300Y-57286802D01*
X101279481Y-57271524D01*
X101143376Y-57176221D01*
X101099751Y-57121644D01*
X101090500Y-57074647D01*
X101090500Y-56828766D01*
X101110185Y-56761727D01*
X101126819Y-56741085D01*
X103477086Y-54390819D01*
X103538409Y-54357334D01*
X103564767Y-54354500D01*
X104978234Y-54354500D01*
X105045273Y-54374185D01*
X105091028Y-54426989D01*
X105100972Y-54496147D01*
X105071947Y-54559703D01*
X105065915Y-54566181D01*
X104244167Y-55387929D01*
X104200047Y-55432049D01*
X104155927Y-55476168D01*
X104086603Y-55579918D01*
X104086598Y-55579927D01*
X104038845Y-55695214D01*
X104038843Y-55695222D01*
X104014500Y-55817601D01*
X104014500Y-57074647D01*
X103994815Y-57141686D01*
X103961624Y-57176221D01*
X103803699Y-57286802D01*
X103641806Y-57448695D01*
X103510476Y-57636252D01*
X103510475Y-57636254D01*
X103413718Y-57843750D01*
X103413714Y-57843761D01*
X103354457Y-58064910D01*
X103354456Y-58064918D01*
X103334502Y-58292998D01*
X103334502Y-58293001D01*
X103354456Y-58521081D01*
X103354457Y-58521089D01*
X103413714Y-58742238D01*
X103413718Y-58742249D01*
X103510475Y-58949745D01*
X103510477Y-58949749D01*
X103641802Y-59137300D01*
X103803700Y-59299198D01*
X103991251Y-59430523D01*
X104014500Y-59441364D01*
X104198750Y-59527281D01*
X104198752Y-59527281D01*
X104198757Y-59527284D01*
X104419913Y-59586543D01*
X104582832Y-59600796D01*
X104647998Y-59606498D01*
X104648000Y-59606498D01*
X104648002Y-59606498D01*
X104705021Y-59601509D01*
X104876087Y-59586543D01*
X105097243Y-59527284D01*
X105304749Y-59430523D01*
X105492300Y-59299198D01*
X105654198Y-59137300D01*
X105785523Y-58949749D01*
X105882284Y-58742243D01*
X105941543Y-58521087D01*
X105961498Y-58293000D01*
X105941543Y-58064913D01*
X105882284Y-57843757D01*
X105785523Y-57636251D01*
X105654198Y-57448700D01*
X105492300Y-57286802D01*
X105470481Y-57271524D01*
X105334376Y-57176221D01*
X105290751Y-57121644D01*
X105281500Y-57074647D01*
X105281500Y-56193766D01*
X105301185Y-56126727D01*
X105317819Y-56106085D01*
X106271085Y-55152819D01*
X106332408Y-55119334D01*
X106358766Y-55116500D01*
X110585608Y-55116500D01*
X110652647Y-55136185D01*
X110698402Y-55188989D01*
X110708898Y-55253755D01*
X110705500Y-55285361D01*
X110705500Y-56982654D01*
X110712011Y-57043202D01*
X110712011Y-57043204D01*
X110748189Y-57140198D01*
X110763111Y-57180204D01*
X110850739Y-57297261D01*
X110967796Y-57384889D01*
X111104799Y-57435989D01*
X111132050Y-57438918D01*
X111165345Y-57442499D01*
X111165362Y-57442500D01*
X112862638Y-57442500D01*
X112862654Y-57442499D01*
X112889692Y-57439591D01*
X112923201Y-57435989D01*
X113060204Y-57384889D01*
X113177261Y-57297261D01*
X113264889Y-57180204D01*
X113315989Y-57043201D01*
X113317569Y-57028500D01*
X113344304Y-56963952D01*
X113401695Y-56924102D01*
X113471521Y-56921606D01*
X113531611Y-56957257D01*
X113542428Y-56970626D01*
X113547802Y-56978300D01*
X113709700Y-57140198D01*
X113897251Y-57271523D01*
X113952445Y-57297260D01*
X114104750Y-57368281D01*
X114104752Y-57368281D01*
X114104757Y-57368284D01*
X114325913Y-57427543D01*
X114488832Y-57441796D01*
X114553998Y-57447498D01*
X114554000Y-57447498D01*
X114554002Y-57447498D01*
X114611139Y-57442499D01*
X114782087Y-57427543D01*
X115003243Y-57368284D01*
X115210749Y-57271523D01*
X115398300Y-57140198D01*
X115560198Y-56978300D01*
X115691523Y-56790749D01*
X115711618Y-56747655D01*
X115757790Y-56695215D01*
X115824983Y-56676063D01*
X115891864Y-56696278D01*
X115936382Y-56747655D01*
X115956477Y-56790749D01*
X116087802Y-56978300D01*
X116249700Y-57140198D01*
X116437251Y-57271523D01*
X116492445Y-57297260D01*
X116644750Y-57368281D01*
X116644752Y-57368281D01*
X116644757Y-57368284D01*
X116865913Y-57427543D01*
X117028832Y-57441796D01*
X117093998Y-57447498D01*
X117094000Y-57447498D01*
X117094002Y-57447498D01*
X117151139Y-57442499D01*
X117322087Y-57427543D01*
X117543243Y-57368284D01*
X117750749Y-57271523D01*
X117938300Y-57140198D01*
X118100198Y-56978300D01*
X118231523Y-56790749D01*
X118328284Y-56583243D01*
X118387543Y-56362087D01*
X118407498Y-56134000D01*
X118405500Y-56111168D01*
X118397781Y-56022930D01*
X118387543Y-55905913D01*
X118328284Y-55684757D01*
X118231523Y-55477251D01*
X118100198Y-55289700D01*
X117938300Y-55127802D01*
X117750749Y-54996477D01*
X117750745Y-54996475D01*
X117543249Y-54899718D01*
X117543238Y-54899714D01*
X117322089Y-54840457D01*
X117322081Y-54840456D01*
X117094002Y-54820502D01*
X117093998Y-54820502D01*
X116865918Y-54840456D01*
X116865907Y-54840458D01*
X116798656Y-54858478D01*
X116728806Y-54856815D01*
X116670944Y-54817652D01*
X116643440Y-54753423D01*
X116655027Y-54684521D01*
X116678882Y-54651022D01*
X117586068Y-53743836D01*
X117586071Y-53743833D01*
X117655400Y-53640075D01*
X117703155Y-53524785D01*
X117727500Y-53402394D01*
X117727500Y-53277606D01*
X117727500Y-49732352D01*
X117747185Y-49665313D01*
X117780373Y-49630779D01*
X117938300Y-49520198D01*
X118100198Y-49358300D01*
X118231523Y-49170749D01*
X118328284Y-48963243D01*
X118387543Y-48742087D01*
X118407498Y-48514000D01*
X118387543Y-48285913D01*
X118328284Y-48064757D01*
X118231523Y-47857251D01*
X118100198Y-47669700D01*
X117938300Y-47507802D01*
X117750749Y-47376477D01*
X117750745Y-47376475D01*
X117543249Y-47279718D01*
X117543238Y-47279714D01*
X117322089Y-47220457D01*
X117322081Y-47220456D01*
X117094002Y-47200502D01*
X117093998Y-47200502D01*
X116865918Y-47220456D01*
X116865910Y-47220457D01*
X116644761Y-47279714D01*
X116644750Y-47279718D01*
X116437254Y-47376475D01*
X116437252Y-47376476D01*
X116437251Y-47376477D01*
X116249700Y-47507802D01*
X116249698Y-47507803D01*
X116249695Y-47507806D01*
X116087806Y-47669695D01*
X115956476Y-47857251D01*
X115936382Y-47900345D01*
X115890209Y-47952784D01*
X115823016Y-47971936D01*
X115756135Y-47951720D01*
X115711618Y-47900345D01*
X115691523Y-47857251D01*
X115560198Y-47669700D01*
X115398300Y-47507802D01*
X115210749Y-47376477D01*
X115210745Y-47376475D01*
X115003249Y-47279718D01*
X115003238Y-47279714D01*
X114782089Y-47220457D01*
X114782081Y-47220456D01*
X114554002Y-47200502D01*
X114553998Y-47200502D01*
X114325918Y-47220456D01*
X114325910Y-47220457D01*
X114104761Y-47279714D01*
X114104750Y-47279718D01*
X113897254Y-47376475D01*
X113897252Y-47376476D01*
X113897251Y-47376477D01*
X113709700Y-47507802D01*
X113709698Y-47507803D01*
X113709695Y-47507806D01*
X113547806Y-47669695D01*
X113416476Y-47857251D01*
X113396382Y-47900345D01*
X113350209Y-47952784D01*
X113283016Y-47971936D01*
X113216135Y-47951720D01*
X113171618Y-47900345D01*
X113151523Y-47857251D01*
X113020198Y-47669700D01*
X112858300Y-47507802D01*
X112670749Y-47376477D01*
X112670745Y-47376475D01*
X112463249Y-47279718D01*
X112463238Y-47279714D01*
X112242089Y-47220457D01*
X112242081Y-47220456D01*
X112014002Y-47200502D01*
X112013998Y-47200502D01*
X111785918Y-47220456D01*
X111785910Y-47220457D01*
X111564761Y-47279714D01*
X111564750Y-47279718D01*
X111357254Y-47376475D01*
X111357252Y-47376476D01*
X111357251Y-47376477D01*
X111169700Y-47507802D01*
X111169698Y-47507803D01*
X111169695Y-47507806D01*
X111007806Y-47669695D01*
X110876476Y-47857252D01*
X110876475Y-47857254D01*
X110779718Y-48064750D01*
X110779714Y-48064761D01*
X110720457Y-48285910D01*
X110720456Y-48285918D01*
X110700502Y-48513998D01*
X110700502Y-48514001D01*
X110720456Y-48742081D01*
X110720457Y-48742089D01*
X110779714Y-48963238D01*
X110779718Y-48963249D01*
X110856382Y-49127655D01*
X110876477Y-49170749D01*
X111007802Y-49358300D01*
X111169700Y-49520198D01*
X111327625Y-49630779D01*
X111371249Y-49685354D01*
X111380500Y-49732352D01*
X111380500Y-52010234D01*
X111360815Y-52077273D01*
X111344181Y-52097915D01*
X111279915Y-52162181D01*
X111218592Y-52195666D01*
X111192234Y-52198500D01*
X98235601Y-52198500D01*
X98113222Y-52222843D01*
X98113214Y-52222845D01*
X97997927Y-52270598D01*
X97997918Y-52270603D01*
X97894167Y-52339928D01*
X97894163Y-52339931D01*
X95879596Y-54354500D01*
X95862167Y-54371929D01*
X95818047Y-54416049D01*
X95773927Y-54460168D01*
X95704603Y-54563918D01*
X95704598Y-54563927D01*
X95656845Y-54679214D01*
X95656843Y-54679222D01*
X95632500Y-54801601D01*
X95632500Y-57074647D01*
X95612815Y-57141686D01*
X95579624Y-57176221D01*
X95421699Y-57286802D01*
X95259806Y-57448695D01*
X95128476Y-57636252D01*
X95128475Y-57636254D01*
X95031718Y-57843750D01*
X95031714Y-57843761D01*
X94972457Y-58064910D01*
X94972456Y-58064918D01*
X94952502Y-58292998D01*
X94952502Y-58293001D01*
X94972456Y-58521081D01*
X94972457Y-58521089D01*
X95031714Y-58742238D01*
X95031718Y-58742249D01*
X95128475Y-58949745D01*
X95128477Y-58949749D01*
X95259802Y-59137300D01*
X95259806Y-59137304D01*
X95367667Y-59245165D01*
X95401152Y-59306488D01*
X95396168Y-59376180D01*
X95367667Y-59420527D01*
X86847677Y-67940519D01*
X84051167Y-70737029D01*
X84017311Y-70770885D01*
X83962927Y-70825268D01*
X83893603Y-70929018D01*
X83893598Y-70929027D01*
X83845845Y-71044314D01*
X83845843Y-71044322D01*
X83821500Y-71166701D01*
X83821500Y-80424052D01*
X83801815Y-80491091D01*
X83768624Y-80525627D01*
X83667997Y-80596087D01*
X83667995Y-80596088D01*
X83517088Y-80746995D01*
X83517083Y-80747001D01*
X83394676Y-80921816D01*
X83394674Y-80921820D01*
X83304480Y-81115243D01*
X83302625Y-81120339D01*
X83301292Y-81119854D01*
X83268405Y-81173804D01*
X83205556Y-81204329D01*
X83136181Y-81196031D01*
X83082306Y-81151542D01*
X83067958Y-81120126D01*
X83067375Y-81120339D01*
X83065524Y-81115256D01*
X83065521Y-81115245D01*
X82975326Y-80921821D01*
X82975324Y-80921818D01*
X82975323Y-80921816D01*
X82852916Y-80747001D01*
X82852911Y-80746995D01*
X82702003Y-80596087D01*
X82591532Y-80518734D01*
X82527180Y-80473674D01*
X82527176Y-80473672D01*
X82333761Y-80383481D01*
X82333747Y-80383476D01*
X82127613Y-80328243D01*
X82127603Y-80328241D01*
X81915001Y-80309641D01*
X81914999Y-80309641D01*
X81702396Y-80328241D01*
X81702386Y-80328243D01*
X81496252Y-80383476D01*
X81496243Y-80383480D01*
X81302820Y-80473674D01*
X81302816Y-80473676D01*
X81128001Y-80596083D01*
X81127995Y-80596088D01*
X80977088Y-80746995D01*
X80977083Y-80747001D01*
X80854676Y-80921816D01*
X80854674Y-80921820D01*
X80764480Y-81115243D01*
X80764475Y-81115256D01*
X80760374Y-81130561D01*
X80724008Y-81190221D01*
X80661160Y-81220749D01*
X80591785Y-81212452D01*
X80537908Y-81167966D01*
X80520824Y-81130555D01*
X80517505Y-81118166D01*
X80517502Y-81118161D01*
X80427934Y-80926083D01*
X80390266Y-80872286D01*
X80390265Y-80872285D01*
X79775000Y-81487551D01*
X79775000Y-81481339D01*
X79747741Y-81379606D01*
X79695080Y-81288394D01*
X79620606Y-81213920D01*
X79529394Y-81161259D01*
X79427661Y-81134000D01*
X79421448Y-81134000D01*
X80036713Y-80518734D01*
X80036712Y-80518733D01*
X79982914Y-80481063D01*
X79982912Y-80481062D01*
X79790838Y-80391497D01*
X79790829Y-80391493D01*
X79586131Y-80336645D01*
X79586120Y-80336643D01*
X79375002Y-80318173D01*
X79374998Y-80318173D01*
X79163879Y-80336643D01*
X79163868Y-80336645D01*
X78959170Y-80391493D01*
X78959161Y-80391497D01*
X78767088Y-80481062D01*
X78713286Y-80518733D01*
X79328553Y-81134000D01*
X79322339Y-81134000D01*
X79220606Y-81161259D01*
X79129394Y-81213920D01*
X79054920Y-81288394D01*
X79002259Y-81379606D01*
X78975000Y-81481339D01*
X78975000Y-81487553D01*
X78359733Y-80872286D01*
X78322062Y-80926088D01*
X78232497Y-81118161D01*
X78232493Y-81118170D01*
X78177645Y-81322868D01*
X78177643Y-81322879D01*
X78159173Y-81533998D01*
X78159173Y-81534001D01*
X78177643Y-81745120D01*
X78177645Y-81745131D01*
X78232493Y-81949829D01*
X78232497Y-81949838D01*
X78322062Y-82141912D01*
X78322063Y-82141914D01*
X78359733Y-82195712D01*
X78359734Y-82195713D01*
X78975000Y-81580447D01*
X78975000Y-81586661D01*
X79002259Y-81688394D01*
X79054920Y-81779606D01*
X79129394Y-81854080D01*
X79220606Y-81906741D01*
X79322339Y-81934000D01*
X79328553Y-81934000D01*
X78713285Y-82549265D01*
X78767087Y-82586937D01*
X78959161Y-82676502D01*
X78959166Y-82676505D01*
X78971555Y-82679824D01*
X79031216Y-82716187D01*
X79061747Y-82779033D01*
X79053455Y-82848409D01*
X79008971Y-82902288D01*
X78971561Y-82919374D01*
X78956256Y-82923475D01*
X78956246Y-82923478D01*
X78956245Y-82923479D01*
X78956243Y-82923480D01*
X78762820Y-83013674D01*
X78762816Y-83013676D01*
X78588001Y-83136083D01*
X78587995Y-83136088D01*
X78437088Y-83286995D01*
X78437083Y-83287001D01*
X78314676Y-83461816D01*
X78314674Y-83461820D01*
X78224480Y-83655243D01*
X78222625Y-83660339D01*
X78221292Y-83659854D01*
X78188405Y-83713804D01*
X78125556Y-83744329D01*
X78056181Y-83736031D01*
X78002306Y-83691542D01*
X77987958Y-83660126D01*
X77987375Y-83660339D01*
X77985524Y-83655258D01*
X77985521Y-83655245D01*
X77895326Y-83461821D01*
X77895324Y-83461818D01*
X77895323Y-83461816D01*
X77772916Y-83287001D01*
X77772911Y-83286995D01*
X77622003Y-83136087D01*
X77510485Y-83058001D01*
X77447180Y-83013674D01*
X77429891Y-83005612D01*
X77253761Y-82923481D01*
X77253747Y-82923476D01*
X77047613Y-82868243D01*
X77047603Y-82868241D01*
X76835001Y-82849641D01*
X76834999Y-82849641D01*
X76622396Y-82868241D01*
X76622386Y-82868243D01*
X76416252Y-82923476D01*
X76416243Y-82923480D01*
X76222820Y-83013674D01*
X76222816Y-83013676D01*
X76048001Y-83136083D01*
X76047995Y-83136088D01*
X75897088Y-83286995D01*
X75897083Y-83287001D01*
X75774676Y-83461816D01*
X75774674Y-83461820D01*
X75684480Y-83655243D01*
X75684476Y-83655252D01*
X75629243Y-83861386D01*
X75629241Y-83861396D01*
X75610641Y-84073999D01*
X75610641Y-84074000D01*
X75629241Y-84286603D01*
X75629243Y-84286613D01*
X75684476Y-84492747D01*
X75684481Y-84492761D01*
X75749851Y-84632947D01*
X75774674Y-84686180D01*
X75897087Y-84861003D01*
X76047997Y-85011913D01*
X76222820Y-85134326D01*
X76339188Y-85188589D01*
X76416238Y-85224518D01*
X76416240Y-85224518D01*
X76416245Y-85224521D01*
X76416249Y-85224522D01*
X76421339Y-85226375D01*
X76420854Y-85227707D01*
X76474804Y-85260595D01*
X76505329Y-85323444D01*
X76497031Y-85392819D01*
X76452542Y-85446694D01*
X76421126Y-85461041D01*
X76421339Y-85461625D01*
X76416247Y-85463478D01*
X76416245Y-85463479D01*
X76416243Y-85463480D01*
X76222820Y-85553674D01*
X76222816Y-85553676D01*
X76048001Y-85676083D01*
X76047995Y-85676088D01*
X75897088Y-85826995D01*
X75897083Y-85827001D01*
X75774676Y-86001816D01*
X75774674Y-86001820D01*
X75684480Y-86195243D01*
X75684476Y-86195252D01*
X75629243Y-86401386D01*
X75629241Y-86401396D01*
X75610641Y-86613999D01*
X75610641Y-86614000D01*
X75629241Y-86826603D01*
X75629243Y-86826613D01*
X75684476Y-87032747D01*
X75684481Y-87032761D01*
X75774672Y-87226176D01*
X75774674Y-87226180D01*
X75853901Y-87339327D01*
X75897087Y-87401003D01*
X75955859Y-87459775D01*
X75989344Y-87521098D01*
X75984360Y-87590790D01*
X75955859Y-87635137D01*
X55061167Y-108529829D01*
X55017047Y-108573949D01*
X54972927Y-108618068D01*
X54903603Y-108721818D01*
X54903598Y-108721827D01*
X54855845Y-108837114D01*
X54855843Y-108837122D01*
X54831500Y-108959501D01*
X54831500Y-122412041D01*
X54811815Y-122479080D01*
X54799650Y-122495013D01*
X54725963Y-122576850D01*
X54725958Y-122576857D01*
X54630473Y-122742243D01*
X54630470Y-122742250D01*
X54574330Y-122915033D01*
X54571458Y-122923872D01*
X54551496Y-123113800D01*
X54571458Y-123303728D01*
X54571459Y-123303731D01*
X54630470Y-123485349D01*
X54630473Y-123485356D01*
X54722184Y-123644205D01*
X54725960Y-123650744D01*
X54799649Y-123732584D01*
X54829880Y-123795575D01*
X54831500Y-123815556D01*
X54831500Y-125021000D01*
X54811815Y-125088039D01*
X54759011Y-125133794D01*
X54707500Y-125145000D01*
X43296500Y-125145000D01*
X43229461Y-125125315D01*
X43183706Y-125072511D01*
X43172500Y-125021000D01*
X43172500Y-124794500D01*
X43192185Y-124727461D01*
X43244989Y-124681706D01*
X43296500Y-124670500D01*
X43356223Y-124670500D01*
X43356226Y-124670500D01*
X43674992Y-124640962D01*
X43772885Y-124631891D01*
X43772885Y-124631890D01*
X43772894Y-124631890D01*
X44184222Y-124555000D01*
X44586701Y-124440484D01*
X44976897Y-124289322D01*
X45351481Y-124102801D01*
X45707257Y-123882514D01*
X46041189Y-123630340D01*
X46350430Y-123348430D01*
X46632340Y-123039189D01*
X46884514Y-122705257D01*
X47104801Y-122349481D01*
X47291322Y-121974897D01*
X47442484Y-121584701D01*
X47557000Y-121182222D01*
X47633890Y-120770894D01*
X47636023Y-120747882D01*
X47650442Y-120592266D01*
X47672500Y-120354226D01*
X47672500Y-119935774D01*
X47648580Y-119677638D01*
X47633891Y-119519114D01*
X47633890Y-119519113D01*
X47633890Y-119519106D01*
X47557000Y-119107778D01*
X47527728Y-119004900D01*
X47503713Y-118920495D01*
X47442484Y-118705299D01*
X47291322Y-118315103D01*
X47104801Y-117940519D01*
X46884514Y-117584743D01*
X46703058Y-117344457D01*
X46632344Y-117250816D01*
X46632337Y-117250807D01*
X46521647Y-117129387D01*
X46350430Y-116941570D01*
X46102130Y-116715215D01*
X46041192Y-116659662D01*
X46041183Y-116659655D01*
X45707258Y-116407487D01*
X45707257Y-116407486D01*
X45351481Y-116187199D01*
X44976897Y-116000678D01*
X44586701Y-115849516D01*
X44586699Y-115849515D01*
X44586698Y-115849515D01*
X44184229Y-115735001D01*
X43991846Y-115699039D01*
X43772894Y-115658110D01*
X43772888Y-115658109D01*
X43772886Y-115658109D01*
X43772885Y-115658108D01*
X43436435Y-115626932D01*
X43356226Y-115619500D01*
X43356223Y-115619500D01*
X43296500Y-115619500D01*
X43229461Y-115599815D01*
X43183706Y-115547011D01*
X43172500Y-115495500D01*
X43172500Y-74794500D01*
X43175290Y-74784997D01*
X79380034Y-74784997D01*
X79380034Y-74785002D01*
X79399858Y-75011599D01*
X79399860Y-75011610D01*
X79458730Y-75231317D01*
X79458735Y-75231331D01*
X79554863Y-75437478D01*
X79605974Y-75510472D01*
X80285000Y-74831446D01*
X80285000Y-74837661D01*
X80312259Y-74939394D01*
X80364920Y-75030606D01*
X80439394Y-75105080D01*
X80530606Y-75157741D01*
X80632339Y-75185000D01*
X80638553Y-75185000D01*
X79959526Y-75864025D01*
X80032513Y-75915132D01*
X80032521Y-75915136D01*
X80238668Y-76011264D01*
X80238682Y-76011269D01*
X80458389Y-76070139D01*
X80458400Y-76070141D01*
X80684998Y-76089966D01*
X80685002Y-76089966D01*
X80911599Y-76070141D01*
X80911610Y-76070139D01*
X81131317Y-76011269D01*
X81131331Y-76011264D01*
X81337478Y-75915136D01*
X81410471Y-75864024D01*
X80731447Y-75185000D01*
X80737661Y-75185000D01*
X80839394Y-75157741D01*
X80930606Y-75105080D01*
X81005080Y-75030606D01*
X81057741Y-74939394D01*
X81085000Y-74837661D01*
X81085000Y-74831447D01*
X81764024Y-75510471D01*
X81815136Y-75437478D01*
X81911264Y-75231331D01*
X81911269Y-75231317D01*
X81970139Y-75011610D01*
X81970141Y-75011599D01*
X81989966Y-74785002D01*
X81989966Y-74784997D01*
X81970141Y-74558400D01*
X81970139Y-74558389D01*
X81911269Y-74338682D01*
X81911264Y-74338668D01*
X81815136Y-74132521D01*
X81815132Y-74132513D01*
X81764025Y-74059526D01*
X81085000Y-74738551D01*
X81085000Y-74732339D01*
X81057741Y-74630606D01*
X81005080Y-74539394D01*
X80930606Y-74464920D01*
X80839394Y-74412259D01*
X80737661Y-74385000D01*
X80731448Y-74385000D01*
X81410472Y-73705974D01*
X81337478Y-73654863D01*
X81131331Y-73558735D01*
X81131317Y-73558730D01*
X80911610Y-73499860D01*
X80911599Y-73499858D01*
X80685002Y-73480034D01*
X80684998Y-73480034D01*
X80458400Y-73499858D01*
X80458389Y-73499860D01*
X80238682Y-73558730D01*
X80238673Y-73558734D01*
X80032516Y-73654866D01*
X80032512Y-73654868D01*
X79959526Y-73705973D01*
X79959526Y-73705974D01*
X80638553Y-74385000D01*
X80632339Y-74385000D01*
X80530606Y-74412259D01*
X80439394Y-74464920D01*
X80364920Y-74539394D01*
X80312259Y-74630606D01*
X80285000Y-74732339D01*
X80285000Y-74738552D01*
X79605974Y-74059526D01*
X79605973Y-74059526D01*
X79554868Y-74132512D01*
X79554866Y-74132516D01*
X79458734Y-74338673D01*
X79458730Y-74338682D01*
X79399860Y-74558389D01*
X79399858Y-74558400D01*
X79380034Y-74784997D01*
X43175290Y-74784997D01*
X43192185Y-74727461D01*
X43244989Y-74681706D01*
X43296500Y-74670500D01*
X43356223Y-74670500D01*
X43356226Y-74670500D01*
X43674992Y-74640962D01*
X43772885Y-74631891D01*
X43772885Y-74631890D01*
X43772894Y-74631890D01*
X44184222Y-74555000D01*
X44586701Y-74440484D01*
X44976897Y-74289322D01*
X45351481Y-74102801D01*
X45707257Y-73882514D01*
X46041189Y-73630340D01*
X46350430Y-73348430D01*
X46632340Y-73039189D01*
X46884514Y-72705257D01*
X47104801Y-72349481D01*
X47291322Y-71974897D01*
X47442484Y-71584701D01*
X47557000Y-71182222D01*
X47633890Y-70770894D01*
X47672500Y-70354226D01*
X47672500Y-69935774D01*
X47633890Y-69519106D01*
X47557000Y-69107778D01*
X47442484Y-68705299D01*
X47291322Y-68315103D01*
X47104801Y-67940519D01*
X46884514Y-67584743D01*
X46632340Y-67250811D01*
X46632337Y-67250807D01*
X46521647Y-67129387D01*
X46350430Y-66941570D01*
X46179211Y-66785483D01*
X46041192Y-66659662D01*
X46041183Y-66659655D01*
X45801697Y-66478804D01*
X45707257Y-66407486D01*
X45351481Y-66187199D01*
X44976897Y-66000678D01*
X44586701Y-65849516D01*
X44586699Y-65849515D01*
X44586698Y-65849515D01*
X44184229Y-65735001D01*
X44026378Y-65705494D01*
X43772894Y-65658110D01*
X43772888Y-65658109D01*
X43772886Y-65658109D01*
X43772885Y-65658108D01*
X43436435Y-65626932D01*
X43356226Y-65619500D01*
X43356223Y-65619500D01*
X43296500Y-65619500D01*
X43229461Y-65599815D01*
X43183706Y-65547011D01*
X43172500Y-65495500D01*
X43172500Y-44294600D01*
X43192185Y-44227561D01*
X43244989Y-44181806D01*
X43296500Y-44170600D01*
X122997500Y-44170600D01*
X123064539Y-44190285D01*
G37*
G04 #@! TD.AperFunction*
G04 #@! TA.AperFunction,Conductor*
G36*
X84055000Y-96826661D02*
G01*
X84082259Y-96928394D01*
X84134920Y-97019606D01*
X84209394Y-97094080D01*
X84300606Y-97146741D01*
X84402339Y-97174000D01*
X84408551Y-97174000D01*
X83793285Y-97789265D01*
X83847087Y-97826937D01*
X84039161Y-97916502D01*
X84039170Y-97916506D01*
X84243868Y-97971354D01*
X84243879Y-97971356D01*
X84454998Y-97989827D01*
X84455002Y-97989827D01*
X84666120Y-97971356D01*
X84666131Y-97971354D01*
X84870829Y-97916506D01*
X84870838Y-97916502D01*
X85062912Y-97826937D01*
X85062916Y-97826935D01*
X85111476Y-97792933D01*
X85177682Y-97770605D01*
X85245449Y-97787615D01*
X85293263Y-97838563D01*
X85306600Y-97894507D01*
X85306600Y-100490533D01*
X85286915Y-100557572D01*
X85234111Y-100603327D01*
X85164953Y-100613271D01*
X85101397Y-100584246D01*
X85094919Y-100578214D01*
X82528069Y-98011364D01*
X82494584Y-97950041D01*
X82499568Y-97880349D01*
X82541440Y-97824416D01*
X82544567Y-97822150D01*
X82702003Y-97711913D01*
X82852913Y-97561003D01*
X82975326Y-97386180D01*
X83065521Y-97192755D01*
X83069623Y-97177444D01*
X83105986Y-97117783D01*
X83168832Y-97087252D01*
X83238208Y-97095544D01*
X83292087Y-97140028D01*
X83309174Y-97177440D01*
X83312494Y-97189831D01*
X83312497Y-97189838D01*
X83402062Y-97381912D01*
X83402063Y-97381914D01*
X83439733Y-97435712D01*
X83439734Y-97435713D01*
X84055000Y-96820447D01*
X84055000Y-96826661D01*
G37*
G04 #@! TD.AperFunction*
G04 #@! TA.AperFunction,Conductor*
G36*
X83233812Y-94571965D02*
G01*
X83287690Y-94616451D01*
X83302040Y-94647873D01*
X83302625Y-94647661D01*
X83304481Y-94652761D01*
X83394672Y-94846176D01*
X83394674Y-94846180D01*
X83517087Y-95021003D01*
X83667997Y-95171913D01*
X83842820Y-95294326D01*
X83874154Y-95308937D01*
X84036238Y-95384518D01*
X84036240Y-95384519D01*
X84036245Y-95384521D01*
X84051557Y-95388624D01*
X84111217Y-95424987D01*
X84141748Y-95487833D01*
X84133454Y-95557209D01*
X84088970Y-95611088D01*
X84051561Y-95628173D01*
X84039173Y-95631492D01*
X84039161Y-95631497D01*
X83847088Y-95721062D01*
X83793286Y-95758733D01*
X84408553Y-96374000D01*
X84402339Y-96374000D01*
X84300606Y-96401259D01*
X84209394Y-96453920D01*
X84134920Y-96528394D01*
X84082259Y-96619606D01*
X84055000Y-96721339D01*
X84055000Y-96727553D01*
X83439733Y-96112286D01*
X83402062Y-96166088D01*
X83312497Y-96358161D01*
X83312492Y-96358173D01*
X83309173Y-96370561D01*
X83272807Y-96430221D01*
X83209959Y-96460749D01*
X83140584Y-96452452D01*
X83086707Y-96407966D01*
X83069624Y-96370559D01*
X83065521Y-96355245D01*
X82975326Y-96161821D01*
X82975324Y-96161818D01*
X82975323Y-96161816D01*
X82852916Y-95987001D01*
X82852911Y-95986995D01*
X82702003Y-95836087D01*
X82701997Y-95836083D01*
X82527180Y-95713674D01*
X82473947Y-95688851D01*
X82333761Y-95623481D01*
X82328661Y-95621625D01*
X82329146Y-95620291D01*
X82275200Y-95587410D01*
X82244671Y-95524564D01*
X82252965Y-95455188D01*
X82297451Y-95401310D01*
X82328873Y-95386959D01*
X82328661Y-95386375D01*
X82333746Y-95384523D01*
X82333755Y-95384521D01*
X82527180Y-95294326D01*
X82702003Y-95171913D01*
X82852913Y-95021003D01*
X82975326Y-94846180D01*
X83065521Y-94652755D01*
X83065523Y-94652746D01*
X83067375Y-94647661D01*
X83068708Y-94648146D01*
X83101590Y-94594200D01*
X83164436Y-94563671D01*
X83233812Y-94571965D01*
G37*
G04 #@! TD.AperFunction*
G04 #@! TA.AperFunction,Conductor*
G36*
X82165000Y-85285200D02*
G01*
X82674028Y-85285200D01*
X82674044Y-85285199D01*
X82733572Y-85278798D01*
X82733579Y-85278796D01*
X82868286Y-85228554D01*
X82868293Y-85228550D01*
X82983387Y-85142390D01*
X82983390Y-85142387D01*
X83069550Y-85027293D01*
X83069554Y-85027286D01*
X83119796Y-84892579D01*
X83119798Y-84892572D01*
X83126199Y-84833044D01*
X83126200Y-84833027D01*
X83126200Y-84669762D01*
X83145885Y-84602723D01*
X83198689Y-84556968D01*
X83267847Y-84547024D01*
X83331403Y-84576049D01*
X83362581Y-84617357D01*
X83394674Y-84686180D01*
X83517087Y-84861003D01*
X83667997Y-85011913D01*
X83842820Y-85134326D01*
X83959188Y-85188589D01*
X84036238Y-85224518D01*
X84036240Y-85224518D01*
X84036245Y-85224521D01*
X84036250Y-85224522D01*
X84036252Y-85224523D01*
X84045347Y-85226960D01*
X84242392Y-85279758D01*
X84412478Y-85294638D01*
X84454999Y-85298359D01*
X84455000Y-85298359D01*
X84455001Y-85298359D01*
X84491473Y-85295168D01*
X84667608Y-85279758D01*
X84873755Y-85224521D01*
X85067180Y-85134326D01*
X85242003Y-85011913D01*
X85392913Y-84861003D01*
X85515326Y-84686180D01*
X85605521Y-84492755D01*
X85605523Y-84492746D01*
X85607375Y-84487661D01*
X85608708Y-84488146D01*
X85641590Y-84434200D01*
X85704436Y-84403671D01*
X85773812Y-84411965D01*
X85827690Y-84456451D01*
X85842040Y-84487873D01*
X85842625Y-84487661D01*
X85844481Y-84492761D01*
X85909851Y-84632947D01*
X85934674Y-84686180D01*
X86057087Y-84861003D01*
X86207997Y-85011913D01*
X86382820Y-85134326D01*
X86499188Y-85188589D01*
X86576238Y-85224518D01*
X86576240Y-85224518D01*
X86576245Y-85224521D01*
X86576249Y-85224522D01*
X86581339Y-85226375D01*
X86580854Y-85227707D01*
X86634804Y-85260595D01*
X86665329Y-85323444D01*
X86657031Y-85392819D01*
X86612542Y-85446694D01*
X86581126Y-85461041D01*
X86581339Y-85461625D01*
X86576247Y-85463478D01*
X86576245Y-85463479D01*
X86576243Y-85463480D01*
X86382820Y-85553674D01*
X86382816Y-85553676D01*
X86208001Y-85676083D01*
X86207995Y-85676088D01*
X86057088Y-85826995D01*
X86057083Y-85827001D01*
X85934676Y-86001816D01*
X85934674Y-86001820D01*
X85844480Y-86195243D01*
X85844476Y-86195252D01*
X85789243Y-86401386D01*
X85789241Y-86401396D01*
X85770641Y-86613999D01*
X85770641Y-86614000D01*
X85789241Y-86826603D01*
X85789243Y-86826613D01*
X85844476Y-87032747D01*
X85844481Y-87032761D01*
X85934672Y-87226176D01*
X85934674Y-87226180D01*
X86057087Y-87401003D01*
X86207997Y-87551913D01*
X86382820Y-87674326D01*
X86499188Y-87728589D01*
X86576238Y-87764518D01*
X86576240Y-87764518D01*
X86576245Y-87764521D01*
X86576249Y-87764522D01*
X86581339Y-87766375D01*
X86580854Y-87767707D01*
X86634804Y-87800595D01*
X86665329Y-87863444D01*
X86657031Y-87932819D01*
X86612542Y-87986694D01*
X86581126Y-88001041D01*
X86581339Y-88001625D01*
X86576247Y-88003478D01*
X86576245Y-88003479D01*
X86576243Y-88003480D01*
X86382820Y-88093674D01*
X86382816Y-88093676D01*
X86208001Y-88216083D01*
X86207995Y-88216088D01*
X86057088Y-88366995D01*
X86057083Y-88367001D01*
X85934676Y-88541816D01*
X85934674Y-88541820D01*
X85844480Y-88735243D01*
X85844476Y-88735252D01*
X85789243Y-88941386D01*
X85789241Y-88941396D01*
X85770641Y-89153999D01*
X85770641Y-89154000D01*
X85789241Y-89366603D01*
X85789244Y-89366619D01*
X85791263Y-89374153D01*
X85789599Y-89444002D01*
X85759169Y-89493925D01*
X85536267Y-89716829D01*
X85508867Y-89744229D01*
X85448027Y-89805068D01*
X85378703Y-89908818D01*
X85378698Y-89908827D01*
X85330945Y-90024114D01*
X85330943Y-90024122D01*
X85306600Y-90146501D01*
X85306600Y-93103116D01*
X85286915Y-93170155D01*
X85234111Y-93215910D01*
X85164953Y-93225854D01*
X85111477Y-93204691D01*
X85067180Y-93173674D01*
X85067176Y-93173672D01*
X84873761Y-93083481D01*
X84873747Y-93083476D01*
X84667613Y-93028243D01*
X84667603Y-93028241D01*
X84455001Y-93009641D01*
X84454999Y-93009641D01*
X84242396Y-93028241D01*
X84242386Y-93028243D01*
X84036252Y-93083476D01*
X84036243Y-93083480D01*
X83842820Y-93173674D01*
X83842816Y-93173676D01*
X83668001Y-93296083D01*
X83667995Y-93296088D01*
X83517088Y-93446995D01*
X83517083Y-93447001D01*
X83394676Y-93621816D01*
X83394674Y-93621820D01*
X83304480Y-93815243D01*
X83302625Y-93820339D01*
X83301292Y-93819854D01*
X83268405Y-93873804D01*
X83205556Y-93904329D01*
X83136181Y-93896031D01*
X83082306Y-93851542D01*
X83067958Y-93820126D01*
X83067375Y-93820339D01*
X83065524Y-93815258D01*
X83065521Y-93815245D01*
X82975326Y-93621821D01*
X82975324Y-93621818D01*
X82975323Y-93621816D01*
X82852916Y-93447001D01*
X82852911Y-93446995D01*
X82702003Y-93296087D01*
X82590485Y-93218001D01*
X82527180Y-93173674D01*
X82527176Y-93173672D01*
X82333761Y-93083481D01*
X82333747Y-93083476D01*
X82127613Y-93028243D01*
X82127603Y-93028241D01*
X81915001Y-93009641D01*
X81914999Y-93009641D01*
X81702390Y-93028242D01*
X81702386Y-93028242D01*
X81694838Y-93030265D01*
X81624989Y-93028597D01*
X81575073Y-92998169D01*
X81277036Y-92700131D01*
X81277032Y-92700128D01*
X81173281Y-92630803D01*
X81173272Y-92630798D01*
X81057985Y-92583045D01*
X81057977Y-92583043D01*
X80935598Y-92558700D01*
X80935594Y-92558700D01*
X80486335Y-92558700D01*
X80419296Y-92539015D01*
X80373541Y-92486211D01*
X80363597Y-92417053D01*
X80384760Y-92363577D01*
X80427936Y-92301914D01*
X80427937Y-92301912D01*
X80517502Y-92109838D01*
X80517506Y-92109829D01*
X80572354Y-91905131D01*
X80572356Y-91905120D01*
X80590827Y-91694001D01*
X80590827Y-91693998D01*
X80572356Y-91482879D01*
X80572354Y-91482868D01*
X80517506Y-91278170D01*
X80517502Y-91278161D01*
X80427934Y-91086083D01*
X80390266Y-91032286D01*
X80390265Y-91032285D01*
X79775000Y-91647550D01*
X79775000Y-91641339D01*
X79747741Y-91539606D01*
X79695080Y-91448394D01*
X79620606Y-91373920D01*
X79529394Y-91321259D01*
X79427661Y-91294000D01*
X79421448Y-91294000D01*
X80036713Y-90678734D01*
X80036712Y-90678733D01*
X79982914Y-90641063D01*
X79982912Y-90641062D01*
X79790838Y-90551497D01*
X79790831Y-90551494D01*
X79778440Y-90548174D01*
X79718779Y-90511808D01*
X79688251Y-90448961D01*
X79696546Y-90379586D01*
X79741032Y-90325708D01*
X79778443Y-90308623D01*
X79793755Y-90304521D01*
X79987180Y-90214326D01*
X80162003Y-90091913D01*
X80312913Y-89941003D01*
X80435326Y-89766180D01*
X80525521Y-89572755D01*
X80580758Y-89366608D01*
X80599359Y-89154000D01*
X80580758Y-88941392D01*
X80525521Y-88735245D01*
X80435326Y-88541821D01*
X80435324Y-88541818D01*
X80435323Y-88541816D01*
X80312916Y-88367001D01*
X80312911Y-88366995D01*
X80162003Y-88216087D01*
X80050485Y-88138001D01*
X79987180Y-88093674D01*
X79987176Y-88093672D01*
X79793761Y-88003481D01*
X79788661Y-88001625D01*
X79789146Y-88000291D01*
X79735200Y-87967410D01*
X79704671Y-87904564D01*
X79712965Y-87835188D01*
X79757451Y-87781310D01*
X79788873Y-87766959D01*
X79788661Y-87766375D01*
X79793746Y-87764523D01*
X79793755Y-87764521D01*
X79987180Y-87674326D01*
X80162003Y-87551913D01*
X80312913Y-87401003D01*
X80435326Y-87226180D01*
X80525521Y-87032755D01*
X80580758Y-86826608D01*
X80599359Y-86614000D01*
X80580758Y-86401392D01*
X80525521Y-86195245D01*
X80435326Y-86001821D01*
X80435324Y-86001818D01*
X80435323Y-86001816D01*
X80312916Y-85827001D01*
X80312911Y-85826995D01*
X80162003Y-85676087D01*
X80052383Y-85599330D01*
X79987180Y-85553674D01*
X79987174Y-85553671D01*
X79793761Y-85463481D01*
X79788661Y-85461625D01*
X79789144Y-85460296D01*
X79735186Y-85427394D01*
X79704667Y-85364542D01*
X79712973Y-85295168D01*
X79757467Y-85241297D01*
X79788877Y-85226960D01*
X79788664Y-85226374D01*
X79793745Y-85224523D01*
X79793755Y-85224521D01*
X79987180Y-85134326D01*
X80162003Y-85011913D01*
X80312913Y-84861003D01*
X80435326Y-84686180D01*
X80467418Y-84617357D01*
X80513590Y-84564918D01*
X80580783Y-84545766D01*
X80647664Y-84565981D01*
X80692999Y-84619146D01*
X80703800Y-84669762D01*
X80703800Y-84833044D01*
X80710201Y-84892572D01*
X80710203Y-84892579D01*
X80760445Y-85027286D01*
X80760449Y-85027293D01*
X80846609Y-85142387D01*
X80846612Y-85142390D01*
X80961706Y-85228550D01*
X80961713Y-85228554D01*
X81096420Y-85278796D01*
X81096427Y-85278798D01*
X81155955Y-85285199D01*
X81155972Y-85285200D01*
X81665000Y-85285200D01*
X81665000Y-84389686D01*
X81669394Y-84394080D01*
X81760606Y-84446741D01*
X81862339Y-84474000D01*
X81967661Y-84474000D01*
X82069394Y-84446741D01*
X82160606Y-84394080D01*
X82165000Y-84389686D01*
X82165000Y-85285200D01*
G37*
G04 #@! TD.AperFunction*
G04 #@! TA.AperFunction,Conductor*
G36*
X78153812Y-89491965D02*
G01*
X78207690Y-89536451D01*
X78222040Y-89567873D01*
X78222625Y-89567661D01*
X78224481Y-89572761D01*
X78291661Y-89716829D01*
X78314674Y-89766180D01*
X78437087Y-89941003D01*
X78587997Y-90091913D01*
X78762820Y-90214326D01*
X78879188Y-90268589D01*
X78956238Y-90304518D01*
X78956240Y-90304519D01*
X78956245Y-90304521D01*
X78971557Y-90308624D01*
X79031217Y-90344987D01*
X79061748Y-90407833D01*
X79053454Y-90477209D01*
X79008970Y-90531088D01*
X78971561Y-90548173D01*
X78959173Y-90551492D01*
X78959161Y-90551497D01*
X78767088Y-90641062D01*
X78713286Y-90678733D01*
X79328553Y-91294000D01*
X79322339Y-91294000D01*
X79220606Y-91321259D01*
X79129394Y-91373920D01*
X79054920Y-91448394D01*
X79002259Y-91539606D01*
X78975000Y-91641339D01*
X78975000Y-91647553D01*
X78359733Y-91032286D01*
X78322062Y-91086088D01*
X78232497Y-91278161D01*
X78232492Y-91278173D01*
X78229173Y-91290561D01*
X78192807Y-91350221D01*
X78129959Y-91380749D01*
X78060584Y-91372452D01*
X78006707Y-91327966D01*
X77989624Y-91290559D01*
X77985521Y-91275245D01*
X77895326Y-91081821D01*
X77895324Y-91081818D01*
X77895323Y-91081816D01*
X77772916Y-90907001D01*
X77772911Y-90906995D01*
X77622003Y-90756087D01*
X77621997Y-90756083D01*
X77447180Y-90633674D01*
X77447176Y-90633672D01*
X77253761Y-90543481D01*
X77248661Y-90541625D01*
X77249146Y-90540291D01*
X77195200Y-90507410D01*
X77164671Y-90444564D01*
X77172965Y-90375188D01*
X77217451Y-90321310D01*
X77248873Y-90306959D01*
X77248661Y-90306375D01*
X77253746Y-90304523D01*
X77253755Y-90304521D01*
X77447180Y-90214326D01*
X77622003Y-90091913D01*
X77772913Y-89941003D01*
X77895326Y-89766180D01*
X77985521Y-89572755D01*
X77985523Y-89572746D01*
X77987375Y-89567661D01*
X77988708Y-89568146D01*
X78021590Y-89514200D01*
X78084436Y-89483671D01*
X78153812Y-89491965D01*
G37*
G04 #@! TD.AperFunction*
G04 #@! TA.AperFunction,Conductor*
G36*
X80390266Y-82195713D02*
G01*
X80427935Y-82141917D01*
X80427937Y-82141913D01*
X80517502Y-81949838D01*
X80517506Y-81949828D01*
X80520824Y-81937446D01*
X80557186Y-81877784D01*
X80620031Y-81847252D01*
X80689407Y-81855543D01*
X80743287Y-81900026D01*
X80760374Y-81937439D01*
X80764474Y-81952741D01*
X80764481Y-81952761D01*
X80852684Y-82141912D01*
X80854674Y-82146180D01*
X80856508Y-82148799D01*
X80977087Y-82321003D01*
X81127996Y-82471912D01*
X81302820Y-82594326D01*
X81371642Y-82626418D01*
X81424081Y-82672590D01*
X81443233Y-82739784D01*
X81423017Y-82806665D01*
X81369852Y-82852000D01*
X81319237Y-82862800D01*
X81155955Y-82862800D01*
X81096427Y-82869201D01*
X81096420Y-82869203D01*
X80961713Y-82919445D01*
X80961706Y-82919449D01*
X80846612Y-83005609D01*
X80846609Y-83005612D01*
X80760449Y-83120706D01*
X80760445Y-83120713D01*
X80710203Y-83255420D01*
X80710201Y-83255427D01*
X80703800Y-83314955D01*
X80703800Y-83478238D01*
X80684115Y-83545277D01*
X80631311Y-83591032D01*
X80562153Y-83600976D01*
X80498597Y-83571951D01*
X80467418Y-83530643D01*
X80435326Y-83461821D01*
X80435324Y-83461818D01*
X80435323Y-83461816D01*
X80312916Y-83287001D01*
X80312911Y-83286995D01*
X80162003Y-83136087D01*
X80050485Y-83058001D01*
X79987180Y-83013674D01*
X79969891Y-83005612D01*
X79793761Y-82923481D01*
X79793741Y-82923474D01*
X79778439Y-82919374D01*
X79718779Y-82883009D01*
X79688251Y-82820162D01*
X79696546Y-82750786D01*
X79741032Y-82696909D01*
X79778446Y-82679824D01*
X79790828Y-82676506D01*
X79790838Y-82676502D01*
X79982913Y-82586937D01*
X79982917Y-82586935D01*
X80036713Y-82549266D01*
X79421448Y-81934000D01*
X79427661Y-81934000D01*
X79529394Y-81906741D01*
X79620606Y-81854080D01*
X79695080Y-81779606D01*
X79747741Y-81688394D01*
X79775000Y-81586661D01*
X79775000Y-81580447D01*
X80390266Y-82195713D01*
G37*
G04 #@! TD.AperFunction*
M02*
