M48
; DRILL file {KiCad 8.0.2} date 2025-01-06T09:06:18+0100
; FORMAT={-:-/ absolute / inch / decimal}
; #@! TF.CreationDate,2025-01-06T09:06:18+01:00
; #@! TF.GenerationSoftware,Kicad,Pcbnew,8.0.2
; #@! TF.FileFunction,Plated,1,2,PTH
FMAT,2
INCH
; #@! TA.AperFunction,Plated,PTH,ViaDrill
T1C0.0157
; #@! TA.AperFunction,Plated,PTH,ComponentDrill
T2C0.0315
%
G90
G05
T1
X2.1837Y-4.847
X2.391Y-4.785
X2.459Y-4.855
X2.6419Y-4.5931
X2.6421Y-4.789
X2.6707Y-4.2056
X2.901Y-4.721
X2.9341Y-4.8218
X3.021Y-4.683
X3.259Y-4.367
X3.351Y-4.367
X3.3677Y-4.0089
X3.3962Y-4.7762
X3.4551Y-4.7448
X3.4631Y-4.7843
X3.6209Y-3.9211
X3.6391Y-3.4867
X3.873Y-4.411
X3.9662Y-4.9021
X3.993Y-4.669
X4.135Y-4.671
X4.255Y-4.641
T2
X3.025Y-3.31
X3.025Y-3.41
X3.025Y-3.51
X3.025Y-3.61
X3.025Y-3.71
X3.125Y-3.21
X3.125Y-3.31
X3.125Y-3.41
X3.125Y-3.51
X3.125Y-3.61
X3.125Y-3.71
X3.125Y-3.81
X3.1766Y-2.9443
X3.225Y-3.21
X3.225Y-3.31
X3.225Y-3.71
X3.225Y-3.81
X3.325Y-3.21
X3.325Y-3.31
X3.325Y-3.71
X3.325Y-3.81
X3.3734Y-2.9443
X3.425Y-3.21
X3.425Y-3.31
X3.425Y-3.41
X3.425Y-3.51
X3.425Y-3.61
X3.425Y-3.71
X3.425Y-3.81
X3.525Y-3.31
X3.525Y-3.41
X3.525Y-3.51
X3.525Y-3.61
X3.525Y-3.71
X3.79Y-2.295
X3.79Y-2.595
X3.875Y-3.27
X3.875Y-3.37
X3.875Y-3.47
X3.875Y-3.57
X3.875Y-3.67
X3.875Y-3.77
X3.875Y-3.87
X3.9231Y-3.0371
X3.955Y-2.295
X3.955Y-2.595
X4.12Y-3.0371
X4.12Y-2.295
X4.12Y-2.595
X4.175Y-3.27
X4.175Y-3.37
X4.175Y-3.47
X4.175Y-3.57
X4.175Y-3.67
X4.175Y-3.77
X4.175Y-3.87
X4.41Y-1.91
X4.41Y-2.21
X4.51Y-1.91
X4.51Y-2.21
X4.61Y-1.91
X4.61Y-2.21
M30
