%TF.GenerationSoftware,KiCad,Pcbnew,8.0.2*%
%TF.CreationDate,2024-12-23T10:52:27+01:00*%
%TF.ProjectId,flexconnector,666c6578-636f-46e6-9e65-63746f722e6b,rev?*%
%TF.SameCoordinates,Original*%
%TF.FileFunction,Legend,Top*%
%TF.FilePolarity,Positive*%
%FSLAX46Y46*%
G04 Gerber Fmt 4.6, Leading zero omitted, Abs format (unit mm)*
G04 Created by KiCad (PCBNEW 8.0.2) date 2024-12-23 10:52:27*
%MOMM*%
%LPD*%
G01*
G04 APERTURE LIST*
%ADD10C,0.100000*%
%ADD11C,0.150000*%
%ADD12C,0.120000*%
G04 APERTURE END LIST*
D10*
X29053884Y-29152531D02*
X29053884Y-28152531D01*
X29053884Y-28152531D02*
X29434836Y-28152531D01*
X29434836Y-28152531D02*
X29530074Y-28200150D01*
X29530074Y-28200150D02*
X29577693Y-28247769D01*
X29577693Y-28247769D02*
X29625312Y-28343007D01*
X29625312Y-28343007D02*
X29625312Y-28485864D01*
X29625312Y-28485864D02*
X29577693Y-28581102D01*
X29577693Y-28581102D02*
X29530074Y-28628721D01*
X29530074Y-28628721D02*
X29434836Y-28676340D01*
X29434836Y-28676340D02*
X29053884Y-28676340D01*
X30006265Y-28247769D02*
X30053884Y-28200150D01*
X30053884Y-28200150D02*
X30149122Y-28152531D01*
X30149122Y-28152531D02*
X30387217Y-28152531D01*
X30387217Y-28152531D02*
X30482455Y-28200150D01*
X30482455Y-28200150D02*
X30530074Y-28247769D01*
X30530074Y-28247769D02*
X30577693Y-28343007D01*
X30577693Y-28343007D02*
X30577693Y-28438245D01*
X30577693Y-28438245D02*
X30530074Y-28581102D01*
X30530074Y-28581102D02*
X29958646Y-29152531D01*
X29958646Y-29152531D02*
X30577693Y-29152531D01*
X31196741Y-28152531D02*
X31291979Y-28152531D01*
X31291979Y-28152531D02*
X31387217Y-28200150D01*
X31387217Y-28200150D02*
X31434836Y-28247769D01*
X31434836Y-28247769D02*
X31482455Y-28343007D01*
X31482455Y-28343007D02*
X31530074Y-28533483D01*
X31530074Y-28533483D02*
X31530074Y-28771578D01*
X31530074Y-28771578D02*
X31482455Y-28962054D01*
X31482455Y-28962054D02*
X31434836Y-29057292D01*
X31434836Y-29057292D02*
X31387217Y-29104912D01*
X31387217Y-29104912D02*
X31291979Y-29152531D01*
X31291979Y-29152531D02*
X31196741Y-29152531D01*
X31196741Y-29152531D02*
X31101503Y-29104912D01*
X31101503Y-29104912D02*
X31053884Y-29057292D01*
X31053884Y-29057292D02*
X31006265Y-28962054D01*
X31006265Y-28962054D02*
X30958646Y-28771578D01*
X30958646Y-28771578D02*
X30958646Y-28533483D01*
X30958646Y-28533483D02*
X31006265Y-28343007D01*
X31006265Y-28343007D02*
X31053884Y-28247769D01*
X31053884Y-28247769D02*
X31101503Y-28200150D01*
X31101503Y-28200150D02*
X31196741Y-28152531D01*
X32149122Y-28152531D02*
X32244360Y-28152531D01*
X32244360Y-28152531D02*
X32339598Y-28200150D01*
X32339598Y-28200150D02*
X32387217Y-28247769D01*
X32387217Y-28247769D02*
X32434836Y-28343007D01*
X32434836Y-28343007D02*
X32482455Y-28533483D01*
X32482455Y-28533483D02*
X32482455Y-28771578D01*
X32482455Y-28771578D02*
X32434836Y-28962054D01*
X32434836Y-28962054D02*
X32387217Y-29057292D01*
X32387217Y-29057292D02*
X32339598Y-29104912D01*
X32339598Y-29104912D02*
X32244360Y-29152531D01*
X32244360Y-29152531D02*
X32149122Y-29152531D01*
X32149122Y-29152531D02*
X32053884Y-29104912D01*
X32053884Y-29104912D02*
X32006265Y-29057292D01*
X32006265Y-29057292D02*
X31958646Y-28962054D01*
X31958646Y-28962054D02*
X31911027Y-28771578D01*
X31911027Y-28771578D02*
X31911027Y-28533483D01*
X31911027Y-28533483D02*
X31958646Y-28343007D01*
X31958646Y-28343007D02*
X32006265Y-28247769D01*
X32006265Y-28247769D02*
X32053884Y-28200150D01*
X32053884Y-28200150D02*
X32149122Y-28152531D01*
X33101503Y-28152531D02*
X33196741Y-28152531D01*
X33196741Y-28152531D02*
X33291979Y-28200150D01*
X33291979Y-28200150D02*
X33339598Y-28247769D01*
X33339598Y-28247769D02*
X33387217Y-28343007D01*
X33387217Y-28343007D02*
X33434836Y-28533483D01*
X33434836Y-28533483D02*
X33434836Y-28771578D01*
X33434836Y-28771578D02*
X33387217Y-28962054D01*
X33387217Y-28962054D02*
X33339598Y-29057292D01*
X33339598Y-29057292D02*
X33291979Y-29104912D01*
X33291979Y-29104912D02*
X33196741Y-29152531D01*
X33196741Y-29152531D02*
X33101503Y-29152531D01*
X33101503Y-29152531D02*
X33006265Y-29104912D01*
X33006265Y-29104912D02*
X32958646Y-29057292D01*
X32958646Y-29057292D02*
X32911027Y-28962054D01*
X32911027Y-28962054D02*
X32863408Y-28771578D01*
X32863408Y-28771578D02*
X32863408Y-28533483D01*
X32863408Y-28533483D02*
X32911027Y-28343007D01*
X32911027Y-28343007D02*
X32958646Y-28247769D01*
X32958646Y-28247769D02*
X33006265Y-28200150D01*
X33006265Y-28200150D02*
X33101503Y-28152531D01*
X33720551Y-28152531D02*
X34291979Y-28152531D01*
X34006265Y-29152531D02*
X34006265Y-28152531D01*
X29053884Y-30762475D02*
X29053884Y-29762475D01*
X29053884Y-29762475D02*
X29387217Y-30476760D01*
X29387217Y-30476760D02*
X29720550Y-29762475D01*
X29720550Y-29762475D02*
X29720550Y-30762475D01*
X30196741Y-29762475D02*
X30196741Y-30571998D01*
X30196741Y-30571998D02*
X30244360Y-30667236D01*
X30244360Y-30667236D02*
X30291979Y-30714856D01*
X30291979Y-30714856D02*
X30387217Y-30762475D01*
X30387217Y-30762475D02*
X30577693Y-30762475D01*
X30577693Y-30762475D02*
X30672931Y-30714856D01*
X30672931Y-30714856D02*
X30720550Y-30667236D01*
X30720550Y-30667236D02*
X30768169Y-30571998D01*
X30768169Y-30571998D02*
X30768169Y-29762475D01*
X31720550Y-30762475D02*
X31244360Y-30762475D01*
X31244360Y-30762475D02*
X31244360Y-29762475D01*
X31911027Y-29762475D02*
X32482455Y-29762475D01*
X32196741Y-30762475D02*
X32196741Y-29762475D01*
X32815789Y-30762475D02*
X32815789Y-29762475D01*
X33863407Y-30667236D02*
X33815788Y-30714856D01*
X33815788Y-30714856D02*
X33672931Y-30762475D01*
X33672931Y-30762475D02*
X33577693Y-30762475D01*
X33577693Y-30762475D02*
X33434836Y-30714856D01*
X33434836Y-30714856D02*
X33339598Y-30619617D01*
X33339598Y-30619617D02*
X33291979Y-30524379D01*
X33291979Y-30524379D02*
X33244360Y-30333903D01*
X33244360Y-30333903D02*
X33244360Y-30191046D01*
X33244360Y-30191046D02*
X33291979Y-30000570D01*
X33291979Y-30000570D02*
X33339598Y-29905332D01*
X33339598Y-29905332D02*
X33434836Y-29810094D01*
X33434836Y-29810094D02*
X33577693Y-29762475D01*
X33577693Y-29762475D02*
X33672931Y-29762475D01*
X33672931Y-29762475D02*
X33815788Y-29810094D01*
X33815788Y-29810094D02*
X33863407Y-29857713D01*
X34244360Y-30476760D02*
X34720550Y-30476760D01*
X34149122Y-30762475D02*
X34482455Y-29762475D01*
X34482455Y-29762475D02*
X34815788Y-30762475D01*
X35720550Y-30762475D02*
X35387217Y-30286284D01*
X35149122Y-30762475D02*
X35149122Y-29762475D01*
X35149122Y-29762475D02*
X35530074Y-29762475D01*
X35530074Y-29762475D02*
X35625312Y-29810094D01*
X35625312Y-29810094D02*
X35672931Y-29857713D01*
X35672931Y-29857713D02*
X35720550Y-29952951D01*
X35720550Y-29952951D02*
X35720550Y-30095808D01*
X35720550Y-30095808D02*
X35672931Y-30191046D01*
X35672931Y-30191046D02*
X35625312Y-30238665D01*
X35625312Y-30238665D02*
X35530074Y-30286284D01*
X35530074Y-30286284D02*
X35149122Y-30286284D01*
X36006265Y-29762475D02*
X36577693Y-29762475D01*
X36291979Y-30762475D02*
X36291979Y-29762475D01*
X29387217Y-31848609D02*
X29053884Y-31848609D01*
X29053884Y-32372419D02*
X29053884Y-31372419D01*
X29053884Y-31372419D02*
X29530074Y-31372419D01*
X30387217Y-32372419D02*
X29911027Y-32372419D01*
X29911027Y-32372419D02*
X29911027Y-31372419D01*
X30720551Y-31848609D02*
X31053884Y-31848609D01*
X31196741Y-32372419D02*
X30720551Y-32372419D01*
X30720551Y-32372419D02*
X30720551Y-31372419D01*
X30720551Y-31372419D02*
X31196741Y-31372419D01*
X31530075Y-31372419D02*
X32196741Y-32372419D01*
X32196741Y-31372419D02*
X31530075Y-32372419D01*
X33149122Y-32277180D02*
X33101503Y-32324800D01*
X33101503Y-32324800D02*
X32958646Y-32372419D01*
X32958646Y-32372419D02*
X32863408Y-32372419D01*
X32863408Y-32372419D02*
X32720551Y-32324800D01*
X32720551Y-32324800D02*
X32625313Y-32229561D01*
X32625313Y-32229561D02*
X32577694Y-32134323D01*
X32577694Y-32134323D02*
X32530075Y-31943847D01*
X32530075Y-31943847D02*
X32530075Y-31800990D01*
X32530075Y-31800990D02*
X32577694Y-31610514D01*
X32577694Y-31610514D02*
X32625313Y-31515276D01*
X32625313Y-31515276D02*
X32720551Y-31420038D01*
X32720551Y-31420038D02*
X32863408Y-31372419D01*
X32863408Y-31372419D02*
X32958646Y-31372419D01*
X32958646Y-31372419D02*
X33101503Y-31420038D01*
X33101503Y-31420038D02*
X33149122Y-31467657D01*
X33768170Y-31372419D02*
X33958646Y-31372419D01*
X33958646Y-31372419D02*
X34053884Y-31420038D01*
X34053884Y-31420038D02*
X34149122Y-31515276D01*
X34149122Y-31515276D02*
X34196741Y-31705752D01*
X34196741Y-31705752D02*
X34196741Y-32039085D01*
X34196741Y-32039085D02*
X34149122Y-32229561D01*
X34149122Y-32229561D02*
X34053884Y-32324800D01*
X34053884Y-32324800D02*
X33958646Y-32372419D01*
X33958646Y-32372419D02*
X33768170Y-32372419D01*
X33768170Y-32372419D02*
X33672932Y-32324800D01*
X33672932Y-32324800D02*
X33577694Y-32229561D01*
X33577694Y-32229561D02*
X33530075Y-32039085D01*
X33530075Y-32039085D02*
X33530075Y-31705752D01*
X33530075Y-31705752D02*
X33577694Y-31515276D01*
X33577694Y-31515276D02*
X33672932Y-31420038D01*
X33672932Y-31420038D02*
X33768170Y-31372419D01*
X34625313Y-32372419D02*
X34625313Y-31372419D01*
X34625313Y-31372419D02*
X35196741Y-32372419D01*
X35196741Y-32372419D02*
X35196741Y-31372419D01*
X35672932Y-32372419D02*
X35672932Y-31372419D01*
X35672932Y-31372419D02*
X36244360Y-32372419D01*
X36244360Y-32372419D02*
X36244360Y-31372419D01*
X34053884Y-48652531D02*
X34053884Y-47652531D01*
X34053884Y-47652531D02*
X34434836Y-47652531D01*
X34434836Y-47652531D02*
X34530074Y-47700150D01*
X34530074Y-47700150D02*
X34577693Y-47747769D01*
X34577693Y-47747769D02*
X34625312Y-47843007D01*
X34625312Y-47843007D02*
X34625312Y-47985864D01*
X34625312Y-47985864D02*
X34577693Y-48081102D01*
X34577693Y-48081102D02*
X34530074Y-48128721D01*
X34530074Y-48128721D02*
X34434836Y-48176340D01*
X34434836Y-48176340D02*
X34053884Y-48176340D01*
X35006265Y-47747769D02*
X35053884Y-47700150D01*
X35053884Y-47700150D02*
X35149122Y-47652531D01*
X35149122Y-47652531D02*
X35387217Y-47652531D01*
X35387217Y-47652531D02*
X35482455Y-47700150D01*
X35482455Y-47700150D02*
X35530074Y-47747769D01*
X35530074Y-47747769D02*
X35577693Y-47843007D01*
X35577693Y-47843007D02*
X35577693Y-47938245D01*
X35577693Y-47938245D02*
X35530074Y-48081102D01*
X35530074Y-48081102D02*
X34958646Y-48652531D01*
X34958646Y-48652531D02*
X35577693Y-48652531D01*
X36196741Y-47652531D02*
X36291979Y-47652531D01*
X36291979Y-47652531D02*
X36387217Y-47700150D01*
X36387217Y-47700150D02*
X36434836Y-47747769D01*
X36434836Y-47747769D02*
X36482455Y-47843007D01*
X36482455Y-47843007D02*
X36530074Y-48033483D01*
X36530074Y-48033483D02*
X36530074Y-48271578D01*
X36530074Y-48271578D02*
X36482455Y-48462054D01*
X36482455Y-48462054D02*
X36434836Y-48557292D01*
X36434836Y-48557292D02*
X36387217Y-48604912D01*
X36387217Y-48604912D02*
X36291979Y-48652531D01*
X36291979Y-48652531D02*
X36196741Y-48652531D01*
X36196741Y-48652531D02*
X36101503Y-48604912D01*
X36101503Y-48604912D02*
X36053884Y-48557292D01*
X36053884Y-48557292D02*
X36006265Y-48462054D01*
X36006265Y-48462054D02*
X35958646Y-48271578D01*
X35958646Y-48271578D02*
X35958646Y-48033483D01*
X35958646Y-48033483D02*
X36006265Y-47843007D01*
X36006265Y-47843007D02*
X36053884Y-47747769D01*
X36053884Y-47747769D02*
X36101503Y-47700150D01*
X36101503Y-47700150D02*
X36196741Y-47652531D01*
X37149122Y-47652531D02*
X37244360Y-47652531D01*
X37244360Y-47652531D02*
X37339598Y-47700150D01*
X37339598Y-47700150D02*
X37387217Y-47747769D01*
X37387217Y-47747769D02*
X37434836Y-47843007D01*
X37434836Y-47843007D02*
X37482455Y-48033483D01*
X37482455Y-48033483D02*
X37482455Y-48271578D01*
X37482455Y-48271578D02*
X37434836Y-48462054D01*
X37434836Y-48462054D02*
X37387217Y-48557292D01*
X37387217Y-48557292D02*
X37339598Y-48604912D01*
X37339598Y-48604912D02*
X37244360Y-48652531D01*
X37244360Y-48652531D02*
X37149122Y-48652531D01*
X37149122Y-48652531D02*
X37053884Y-48604912D01*
X37053884Y-48604912D02*
X37006265Y-48557292D01*
X37006265Y-48557292D02*
X36958646Y-48462054D01*
X36958646Y-48462054D02*
X36911027Y-48271578D01*
X36911027Y-48271578D02*
X36911027Y-48033483D01*
X36911027Y-48033483D02*
X36958646Y-47843007D01*
X36958646Y-47843007D02*
X37006265Y-47747769D01*
X37006265Y-47747769D02*
X37053884Y-47700150D01*
X37053884Y-47700150D02*
X37149122Y-47652531D01*
X38101503Y-47652531D02*
X38196741Y-47652531D01*
X38196741Y-47652531D02*
X38291979Y-47700150D01*
X38291979Y-47700150D02*
X38339598Y-47747769D01*
X38339598Y-47747769D02*
X38387217Y-47843007D01*
X38387217Y-47843007D02*
X38434836Y-48033483D01*
X38434836Y-48033483D02*
X38434836Y-48271578D01*
X38434836Y-48271578D02*
X38387217Y-48462054D01*
X38387217Y-48462054D02*
X38339598Y-48557292D01*
X38339598Y-48557292D02*
X38291979Y-48604912D01*
X38291979Y-48604912D02*
X38196741Y-48652531D01*
X38196741Y-48652531D02*
X38101503Y-48652531D01*
X38101503Y-48652531D02*
X38006265Y-48604912D01*
X38006265Y-48604912D02*
X37958646Y-48557292D01*
X37958646Y-48557292D02*
X37911027Y-48462054D01*
X37911027Y-48462054D02*
X37863408Y-48271578D01*
X37863408Y-48271578D02*
X37863408Y-48033483D01*
X37863408Y-48033483D02*
X37911027Y-47843007D01*
X37911027Y-47843007D02*
X37958646Y-47747769D01*
X37958646Y-47747769D02*
X38006265Y-47700150D01*
X38006265Y-47700150D02*
X38101503Y-47652531D01*
X38720551Y-47652531D02*
X39291979Y-47652531D01*
X39006265Y-48652531D02*
X39006265Y-47652531D01*
X34053884Y-50262475D02*
X34053884Y-49262475D01*
X34053884Y-49262475D02*
X34387217Y-49976760D01*
X34387217Y-49976760D02*
X34720550Y-49262475D01*
X34720550Y-49262475D02*
X34720550Y-50262475D01*
X35196741Y-49262475D02*
X35196741Y-50071998D01*
X35196741Y-50071998D02*
X35244360Y-50167236D01*
X35244360Y-50167236D02*
X35291979Y-50214856D01*
X35291979Y-50214856D02*
X35387217Y-50262475D01*
X35387217Y-50262475D02*
X35577693Y-50262475D01*
X35577693Y-50262475D02*
X35672931Y-50214856D01*
X35672931Y-50214856D02*
X35720550Y-50167236D01*
X35720550Y-50167236D02*
X35768169Y-50071998D01*
X35768169Y-50071998D02*
X35768169Y-49262475D01*
X36720550Y-50262475D02*
X36244360Y-50262475D01*
X36244360Y-50262475D02*
X36244360Y-49262475D01*
X36911027Y-49262475D02*
X37482455Y-49262475D01*
X37196741Y-50262475D02*
X37196741Y-49262475D01*
X37815789Y-50262475D02*
X37815789Y-49262475D01*
X38863407Y-50167236D02*
X38815788Y-50214856D01*
X38815788Y-50214856D02*
X38672931Y-50262475D01*
X38672931Y-50262475D02*
X38577693Y-50262475D01*
X38577693Y-50262475D02*
X38434836Y-50214856D01*
X38434836Y-50214856D02*
X38339598Y-50119617D01*
X38339598Y-50119617D02*
X38291979Y-50024379D01*
X38291979Y-50024379D02*
X38244360Y-49833903D01*
X38244360Y-49833903D02*
X38244360Y-49691046D01*
X38244360Y-49691046D02*
X38291979Y-49500570D01*
X38291979Y-49500570D02*
X38339598Y-49405332D01*
X38339598Y-49405332D02*
X38434836Y-49310094D01*
X38434836Y-49310094D02*
X38577693Y-49262475D01*
X38577693Y-49262475D02*
X38672931Y-49262475D01*
X38672931Y-49262475D02*
X38815788Y-49310094D01*
X38815788Y-49310094D02*
X38863407Y-49357713D01*
X39244360Y-49976760D02*
X39720550Y-49976760D01*
X39149122Y-50262475D02*
X39482455Y-49262475D01*
X39482455Y-49262475D02*
X39815788Y-50262475D01*
X40720550Y-50262475D02*
X40387217Y-49786284D01*
X40149122Y-50262475D02*
X40149122Y-49262475D01*
X40149122Y-49262475D02*
X40530074Y-49262475D01*
X40530074Y-49262475D02*
X40625312Y-49310094D01*
X40625312Y-49310094D02*
X40672931Y-49357713D01*
X40672931Y-49357713D02*
X40720550Y-49452951D01*
X40720550Y-49452951D02*
X40720550Y-49595808D01*
X40720550Y-49595808D02*
X40672931Y-49691046D01*
X40672931Y-49691046D02*
X40625312Y-49738665D01*
X40625312Y-49738665D02*
X40530074Y-49786284D01*
X40530074Y-49786284D02*
X40149122Y-49786284D01*
X41006265Y-49262475D02*
X41577693Y-49262475D01*
X41291979Y-50262475D02*
X41291979Y-49262475D01*
X34387217Y-51348609D02*
X34053884Y-51348609D01*
X34053884Y-51872419D02*
X34053884Y-50872419D01*
X34053884Y-50872419D02*
X34530074Y-50872419D01*
X35387217Y-51872419D02*
X34911027Y-51872419D01*
X34911027Y-51872419D02*
X34911027Y-50872419D01*
X35720551Y-51348609D02*
X36053884Y-51348609D01*
X36196741Y-51872419D02*
X35720551Y-51872419D01*
X35720551Y-51872419D02*
X35720551Y-50872419D01*
X35720551Y-50872419D02*
X36196741Y-50872419D01*
X36530075Y-50872419D02*
X37196741Y-51872419D01*
X37196741Y-50872419D02*
X36530075Y-51872419D01*
X38149122Y-51777180D02*
X38101503Y-51824800D01*
X38101503Y-51824800D02*
X37958646Y-51872419D01*
X37958646Y-51872419D02*
X37863408Y-51872419D01*
X37863408Y-51872419D02*
X37720551Y-51824800D01*
X37720551Y-51824800D02*
X37625313Y-51729561D01*
X37625313Y-51729561D02*
X37577694Y-51634323D01*
X37577694Y-51634323D02*
X37530075Y-51443847D01*
X37530075Y-51443847D02*
X37530075Y-51300990D01*
X37530075Y-51300990D02*
X37577694Y-51110514D01*
X37577694Y-51110514D02*
X37625313Y-51015276D01*
X37625313Y-51015276D02*
X37720551Y-50920038D01*
X37720551Y-50920038D02*
X37863408Y-50872419D01*
X37863408Y-50872419D02*
X37958646Y-50872419D01*
X37958646Y-50872419D02*
X38101503Y-50920038D01*
X38101503Y-50920038D02*
X38149122Y-50967657D01*
X38768170Y-50872419D02*
X38958646Y-50872419D01*
X38958646Y-50872419D02*
X39053884Y-50920038D01*
X39053884Y-50920038D02*
X39149122Y-51015276D01*
X39149122Y-51015276D02*
X39196741Y-51205752D01*
X39196741Y-51205752D02*
X39196741Y-51539085D01*
X39196741Y-51539085D02*
X39149122Y-51729561D01*
X39149122Y-51729561D02*
X39053884Y-51824800D01*
X39053884Y-51824800D02*
X38958646Y-51872419D01*
X38958646Y-51872419D02*
X38768170Y-51872419D01*
X38768170Y-51872419D02*
X38672932Y-51824800D01*
X38672932Y-51824800D02*
X38577694Y-51729561D01*
X38577694Y-51729561D02*
X38530075Y-51539085D01*
X38530075Y-51539085D02*
X38530075Y-51205752D01*
X38530075Y-51205752D02*
X38577694Y-51015276D01*
X38577694Y-51015276D02*
X38672932Y-50920038D01*
X38672932Y-50920038D02*
X38768170Y-50872419D01*
X39625313Y-51872419D02*
X39625313Y-50872419D01*
X39625313Y-50872419D02*
X40196741Y-51872419D01*
X40196741Y-51872419D02*
X40196741Y-50872419D01*
X40672932Y-51872419D02*
X40672932Y-50872419D01*
X40672932Y-50872419D02*
X41244360Y-51872419D01*
X41244360Y-51872419D02*
X41244360Y-50872419D01*
D11*
X37666666Y-27775819D02*
X37666666Y-28490104D01*
X37666666Y-28490104D02*
X37619047Y-28632961D01*
X37619047Y-28632961D02*
X37523809Y-28728200D01*
X37523809Y-28728200D02*
X37380952Y-28775819D01*
X37380952Y-28775819D02*
X37285714Y-28775819D01*
X38095238Y-27871057D02*
X38142857Y-27823438D01*
X38142857Y-27823438D02*
X38238095Y-27775819D01*
X38238095Y-27775819D02*
X38476190Y-27775819D01*
X38476190Y-27775819D02*
X38571428Y-27823438D01*
X38571428Y-27823438D02*
X38619047Y-27871057D01*
X38619047Y-27871057D02*
X38666666Y-27966295D01*
X38666666Y-27966295D02*
X38666666Y-28061533D01*
X38666666Y-28061533D02*
X38619047Y-28204390D01*
X38619047Y-28204390D02*
X38047619Y-28775819D01*
X38047619Y-28775819D02*
X38666666Y-28775819D01*
X25500000Y-27704819D02*
X25690476Y-27704819D01*
X25690476Y-27704819D02*
X25785714Y-27752438D01*
X25785714Y-27752438D02*
X25880952Y-27847676D01*
X25880952Y-27847676D02*
X25928571Y-28038152D01*
X25928571Y-28038152D02*
X25928571Y-28371485D01*
X25928571Y-28371485D02*
X25880952Y-28561961D01*
X25880952Y-28561961D02*
X25785714Y-28657200D01*
X25785714Y-28657200D02*
X25690476Y-28704819D01*
X25690476Y-28704819D02*
X25500000Y-28704819D01*
X25500000Y-28704819D02*
X25404762Y-28657200D01*
X25404762Y-28657200D02*
X25309524Y-28561961D01*
X25309524Y-28561961D02*
X25261905Y-28371485D01*
X25261905Y-28371485D02*
X25261905Y-28038152D01*
X25261905Y-28038152D02*
X25309524Y-27847676D01*
X25309524Y-27847676D02*
X25404762Y-27752438D01*
X25404762Y-27752438D02*
X25500000Y-27704819D01*
X26357143Y-27704819D02*
X26357143Y-28514342D01*
X26357143Y-28514342D02*
X26404762Y-28609580D01*
X26404762Y-28609580D02*
X26452381Y-28657200D01*
X26452381Y-28657200D02*
X26547619Y-28704819D01*
X26547619Y-28704819D02*
X26738095Y-28704819D01*
X26738095Y-28704819D02*
X26833333Y-28657200D01*
X26833333Y-28657200D02*
X26880952Y-28609580D01*
X26880952Y-28609580D02*
X26928571Y-28514342D01*
X26928571Y-28514342D02*
X26928571Y-27704819D01*
X27261905Y-27704819D02*
X27833333Y-27704819D01*
X27547619Y-28704819D02*
X27547619Y-27704819D01*
X43100666Y-52032819D02*
X43100666Y-52747104D01*
X43100666Y-52747104D02*
X43053047Y-52889961D01*
X43053047Y-52889961D02*
X42957809Y-52985200D01*
X42957809Y-52985200D02*
X42814952Y-53032819D01*
X42814952Y-53032819D02*
X42719714Y-53032819D01*
X44100666Y-53032819D02*
X43529238Y-53032819D01*
X43814952Y-53032819D02*
X43814952Y-52032819D01*
X43814952Y-52032819D02*
X43719714Y-52175676D01*
X43719714Y-52175676D02*
X43624476Y-52270914D01*
X43624476Y-52270914D02*
X43529238Y-52318533D01*
X30210191Y-53159819D02*
X30210191Y-52159819D01*
X30686381Y-53159819D02*
X30686381Y-52159819D01*
X30686381Y-52159819D02*
X31257809Y-53159819D01*
X31257809Y-53159819D02*
X31257809Y-52159819D01*
D12*
%TO.C,J2*%
X39684000Y-24070000D02*
X39684000Y-25400000D01*
X38354000Y-24070000D02*
X39684000Y-24070000D01*
X37084000Y-24070000D02*
X24324000Y-24070000D01*
X37084000Y-24070000D02*
X37084000Y-26730000D01*
X24324000Y-24070000D02*
X24324000Y-26730000D01*
X37084000Y-26730000D02*
X24324000Y-26730000D01*
%TO.C,J1*%
X44764000Y-54042000D02*
X44764000Y-55372000D01*
X43434000Y-54042000D02*
X44764000Y-54042000D01*
X42164000Y-54042000D02*
X29404000Y-54042000D01*
X42164000Y-54042000D02*
X42164000Y-56702000D01*
X29404000Y-54042000D02*
X29404000Y-56702000D01*
X42164000Y-56702000D02*
X29404000Y-56702000D01*
%TD*%
M02*
