G04 #@! TF.GenerationSoftware,KiCad,Pcbnew,7.0.10*
G04 #@! TF.CreationDate,2024-01-02T22:15:01+01:00*
G04 #@! TF.ProjectId,p2000t-multicartridge-zif,70323030-3074-42d6-9d75-6c7469636172,rev?*
G04 #@! TF.SameCoordinates,Original*
G04 #@! TF.FileFunction,Soldermask,Bot*
G04 #@! TF.FilePolarity,Negative*
%FSLAX46Y46*%
G04 Gerber Fmt 4.6, Leading zero omitted, Abs format (unit mm)*
G04 Created by KiCad (PCBNEW 7.0.10) date 2024-01-02 22:15:01*
%MOMM*%
%LPD*%
G01*
G04 APERTURE LIST*
%ADD10C,2.000000*%
%ADD11R,1.600000X1.600000*%
%ADD12O,1.600000X1.600000*%
%ADD13C,1.600000*%
%ADD14R,2.000000X10.000000*%
%ADD15R,1.440000X2.000000*%
%ADD16O,1.440000X2.000000*%
G04 APERTURE END LIST*
D10*
X44997000Y-50695000D03*
X51497000Y-50695000D03*
X44997000Y-55195000D03*
X51497000Y-55195000D03*
D11*
X108077000Y-55245000D03*
D12*
X110617000Y-55245000D03*
X113157000Y-55245000D03*
X115697000Y-55245000D03*
X118237000Y-55245000D03*
X118237000Y-47625000D03*
X115697000Y-47625000D03*
X113157000Y-47625000D03*
X110617000Y-47625000D03*
X108077000Y-47625000D03*
D11*
X78421000Y-86237000D03*
D12*
X78421000Y-88777000D03*
X78421000Y-91317000D03*
X78421000Y-93857000D03*
X78421000Y-96397000D03*
X78421000Y-98937000D03*
X78421000Y-101477000D03*
X70801000Y-101477000D03*
X70801000Y-98937000D03*
X70801000Y-96397000D03*
X70801000Y-93857000D03*
X70801000Y-91317000D03*
X70801000Y-88777000D03*
X70801000Y-86237000D03*
D13*
X72071000Y-80903000D03*
X77071000Y-80903000D03*
X50947000Y-62045000D03*
X45947000Y-62045000D03*
D11*
X90947000Y-86245000D03*
D12*
X90947000Y-88785000D03*
X90947000Y-91325000D03*
X90947000Y-93865000D03*
X90947000Y-96405000D03*
X90947000Y-98945000D03*
X90947000Y-101485000D03*
X90947000Y-104025000D03*
X83327000Y-104025000D03*
X83327000Y-101485000D03*
X83327000Y-98945000D03*
X83327000Y-96405000D03*
X83327000Y-93865000D03*
X83327000Y-91325000D03*
X83327000Y-88785000D03*
X83327000Y-86245000D03*
D11*
X78397000Y-110845000D03*
D13*
X75897000Y-110845000D03*
X89597000Y-80945000D03*
X84597000Y-80945000D03*
X63447000Y-89935000D03*
D12*
X63447000Y-97555000D03*
D13*
X60197000Y-89935000D03*
D12*
X60197000Y-97555000D03*
D13*
X56897000Y-97525000D03*
D12*
X56897000Y-89905000D03*
D14*
X55465000Y-139192000D03*
X59425000Y-139192000D03*
X63385000Y-139192000D03*
X67345000Y-139192000D03*
X71305000Y-139192000D03*
X75265000Y-139192000D03*
X79225000Y-139192000D03*
X83185000Y-139192000D03*
X87145000Y-139192000D03*
X91105000Y-139192000D03*
X95065000Y-139192000D03*
X99025000Y-139192000D03*
X102985000Y-139192000D03*
X110905000Y-139192000D03*
D11*
X88043000Y-110803000D03*
D13*
X85543000Y-110803000D03*
D11*
X70872000Y-74845000D03*
D12*
X73412000Y-74845000D03*
X75952000Y-74845000D03*
X78492000Y-74845000D03*
X81032000Y-74845000D03*
X83572000Y-74845000D03*
X86112000Y-74845000D03*
X88652000Y-74845000D03*
X91192000Y-74845000D03*
D15*
X64207000Y-50152500D03*
D16*
X66747000Y-50152500D03*
X69287000Y-50152500D03*
X71827000Y-50152500D03*
X74367000Y-50152500D03*
X76907000Y-50152500D03*
X79447000Y-50152500D03*
X81987000Y-50152500D03*
X84527000Y-50152500D03*
X87067000Y-50152500D03*
X89607000Y-50152500D03*
X92147000Y-50152500D03*
X94687000Y-50152500D03*
X97227000Y-50152500D03*
X99767000Y-50152500D03*
X102307000Y-50152500D03*
X102307000Y-65392500D03*
X99767000Y-65392500D03*
X97227000Y-65392500D03*
X94687000Y-65392500D03*
X92147000Y-65392500D03*
X89607000Y-65392500D03*
X87067000Y-65392500D03*
X84527000Y-65392500D03*
X81987000Y-65392500D03*
X79447000Y-65392500D03*
X76907000Y-65392500D03*
X74367000Y-65392500D03*
X71827000Y-65392500D03*
X69287000Y-65392500D03*
X66747000Y-65392500D03*
X64207000Y-65392500D03*
M02*
