G04 #@! TF.GenerationSoftware,KiCad,Pcbnew,7.0.10*
G04 #@! TF.CreationDate,2024-01-02T22:15:01+01:00*
G04 #@! TF.ProjectId,p2000t-multicartridge-zif,70323030-3074-42d6-9d75-6c7469636172,rev?*
G04 #@! TF.SameCoordinates,Original*
G04 #@! TF.FileFunction,Copper,L2,Bot*
G04 #@! TF.FilePolarity,Positive*
%FSLAX46Y46*%
G04 Gerber Fmt 4.6, Leading zero omitted, Abs format (unit mm)*
G04 Created by KiCad (PCBNEW 7.0.10) date 2024-01-02 22:15:01*
%MOMM*%
%LPD*%
G01*
G04 APERTURE LIST*
G04 #@! TA.AperFunction,ComponentPad*
%ADD10C,2.000000*%
G04 #@! TD*
G04 #@! TA.AperFunction,ComponentPad*
%ADD11R,1.600000X1.600000*%
G04 #@! TD*
G04 #@! TA.AperFunction,ComponentPad*
%ADD12O,1.600000X1.600000*%
G04 #@! TD*
G04 #@! TA.AperFunction,ComponentPad*
%ADD13C,1.600000*%
G04 #@! TD*
G04 #@! TA.AperFunction,SMDPad,CuDef*
%ADD14R,2.000000X10.000000*%
G04 #@! TD*
G04 #@! TA.AperFunction,ComponentPad*
%ADD15R,1.440000X2.000000*%
G04 #@! TD*
G04 #@! TA.AperFunction,ComponentPad*
%ADD16O,1.440000X2.000000*%
G04 #@! TD*
G04 #@! TA.AperFunction,ViaPad*
%ADD17C,0.800000*%
G04 #@! TD*
G04 #@! TA.AperFunction,Conductor*
%ADD18C,0.250000*%
G04 #@! TD*
G04 APERTURE END LIST*
D10*
X44997000Y-50695000D03*
X51497000Y-50695000D03*
X44997000Y-55195000D03*
X51497000Y-55195000D03*
D11*
X108077000Y-55245000D03*
D12*
X110617000Y-55245000D03*
X113157000Y-55245000D03*
X115697000Y-55245000D03*
X118237000Y-55245000D03*
X118237000Y-47625000D03*
X115697000Y-47625000D03*
X113157000Y-47625000D03*
X110617000Y-47625000D03*
X108077000Y-47625000D03*
D11*
X78421000Y-86237000D03*
D12*
X78421000Y-88777000D03*
X78421000Y-91317000D03*
X78421000Y-93857000D03*
X78421000Y-96397000D03*
X78421000Y-98937000D03*
X78421000Y-101477000D03*
X70801000Y-101477000D03*
X70801000Y-98937000D03*
X70801000Y-96397000D03*
X70801000Y-93857000D03*
X70801000Y-91317000D03*
X70801000Y-88777000D03*
X70801000Y-86237000D03*
D13*
X72071000Y-80903000D03*
X77071000Y-80903000D03*
X50947000Y-62045000D03*
X45947000Y-62045000D03*
D11*
X90947000Y-86245000D03*
D12*
X90947000Y-88785000D03*
X90947000Y-91325000D03*
X90947000Y-93865000D03*
X90947000Y-96405000D03*
X90947000Y-98945000D03*
X90947000Y-101485000D03*
X90947000Y-104025000D03*
X83327000Y-104025000D03*
X83327000Y-101485000D03*
X83327000Y-98945000D03*
X83327000Y-96405000D03*
X83327000Y-93865000D03*
X83327000Y-91325000D03*
X83327000Y-88785000D03*
X83327000Y-86245000D03*
D11*
X78397000Y-110845000D03*
D13*
X75897000Y-110845000D03*
X89597000Y-80945000D03*
X84597000Y-80945000D03*
X63447000Y-89935000D03*
D12*
X63447000Y-97555000D03*
D13*
X60197000Y-89935000D03*
D12*
X60197000Y-97555000D03*
D13*
X56897000Y-97525000D03*
D12*
X56897000Y-89905000D03*
D14*
X55465000Y-139192000D03*
X59425000Y-139192000D03*
X63385000Y-139192000D03*
X67345000Y-139192000D03*
X71305000Y-139192000D03*
X75265000Y-139192000D03*
X79225000Y-139192000D03*
X83185000Y-139192000D03*
X87145000Y-139192000D03*
X91105000Y-139192000D03*
X95065000Y-139192000D03*
X99025000Y-139192000D03*
X102985000Y-139192000D03*
X110905000Y-139192000D03*
D11*
X88043000Y-110803000D03*
D13*
X85543000Y-110803000D03*
D11*
X70872000Y-74845000D03*
D12*
X73412000Y-74845000D03*
X75952000Y-74845000D03*
X78492000Y-74845000D03*
X81032000Y-74845000D03*
X83572000Y-74845000D03*
X86112000Y-74845000D03*
X88652000Y-74845000D03*
X91192000Y-74845000D03*
D15*
X64207000Y-50152500D03*
D16*
X66747000Y-50152500D03*
X69287000Y-50152500D03*
X71827000Y-50152500D03*
X74367000Y-50152500D03*
X76907000Y-50152500D03*
X79447000Y-50152500D03*
X81987000Y-50152500D03*
X84527000Y-50152500D03*
X87067000Y-50152500D03*
X89607000Y-50152500D03*
X92147000Y-50152500D03*
X94687000Y-50152500D03*
X97227000Y-50152500D03*
X99767000Y-50152500D03*
X102307000Y-50152500D03*
X102307000Y-65392500D03*
X99767000Y-65392500D03*
X97227000Y-65392500D03*
X94687000Y-65392500D03*
X92147000Y-65392500D03*
X89607000Y-65392500D03*
X87067000Y-65392500D03*
X84527000Y-65392500D03*
X81987000Y-65392500D03*
X79447000Y-65392500D03*
X76907000Y-65392500D03*
X74367000Y-65392500D03*
X71827000Y-65392500D03*
X69287000Y-65392500D03*
X66747000Y-65392500D03*
X64207000Y-65392500D03*
D17*
X73173600Y-64290300D03*
X108750200Y-63771800D03*
X98994900Y-127099100D03*
X98357900Y-90661700D03*
X97617000Y-101482600D03*
X99781000Y-101106200D03*
X100784500Y-101813900D03*
X99107100Y-104411800D03*
X95452900Y-109944000D03*
X97148900Y-111982800D03*
X94804900Y-118551000D03*
X94344700Y-121316100D03*
X93297100Y-123584400D03*
X89392400Y-71474600D03*
X92862600Y-127089200D03*
X94100700Y-127117400D03*
X83871200Y-111948800D03*
X83559200Y-69504400D03*
X96157600Y-108320700D03*
X76081100Y-127082400D03*
X84174500Y-71982900D03*
X96998600Y-76909700D03*
X84930700Y-83921900D03*
X101514500Y-70437900D03*
X82926900Y-83971200D03*
X112040000Y-127126500D03*
X83281300Y-70504800D03*
D18*
X88696400Y-87370300D02*
X89821700Y-86245000D01*
X70586600Y-87370300D02*
X88696400Y-87370300D01*
X63447000Y-94509900D02*
X70586600Y-87370300D01*
X63447000Y-97555000D02*
X63447000Y-94509900D01*
X90947000Y-86245000D02*
X89821700Y-86245000D01*
X88043000Y-110803000D02*
X86917700Y-110803000D01*
X86917700Y-111019800D02*
X86917700Y-110803000D01*
X85263400Y-112674100D02*
X86917700Y-111019800D01*
X72046100Y-112674100D02*
X85263400Y-112674100D01*
X56897000Y-97525000D02*
X72046100Y-112674100D01*
X60197000Y-97555000D02*
X61322300Y-97555000D01*
X78397000Y-110845000D02*
X77271700Y-110845000D01*
X77271700Y-110563600D02*
X77271700Y-110845000D01*
X76427800Y-109719700D02*
X77271700Y-110563600D01*
X73248200Y-109719700D02*
X76427800Y-109719700D01*
X61322300Y-97793800D02*
X73248200Y-109719700D01*
X61322300Y-97555000D02*
X61322300Y-97793800D01*
X55465000Y-139192000D02*
X55465000Y-133866700D01*
X83327000Y-96405000D02*
X84452300Y-96405000D01*
X75645300Y-113686400D02*
X55465000Y-133866700D01*
X87246200Y-113686400D02*
X75645300Y-113686400D01*
X92106200Y-108826400D02*
X87246200Y-113686400D01*
X92106200Y-103582900D02*
X92106200Y-108826400D01*
X91422900Y-102899600D02*
X92106200Y-103582900D01*
X90665600Y-102899600D02*
X91422900Y-102899600D01*
X84452300Y-96686300D02*
X90665600Y-102899600D01*
X84452300Y-96405000D02*
X84452300Y-96686300D01*
X73444700Y-64019200D02*
X73173600Y-64290300D01*
X77345400Y-64019200D02*
X73444700Y-64019200D01*
X78177000Y-64850800D02*
X77345400Y-64019200D01*
X78177000Y-66427900D02*
X78177000Y-64850800D01*
X82981700Y-71232600D02*
X78177000Y-66427900D01*
X83582800Y-71232600D02*
X82981700Y-71232600D01*
X88561700Y-66253700D02*
X83582800Y-71232600D01*
X88561700Y-65392500D02*
X88561700Y-66253700D01*
X89607000Y-65392500D02*
X88561700Y-65392500D01*
X79906700Y-74563600D02*
X79906700Y-74845000D01*
X79062800Y-73719700D02*
X79906700Y-74563600D01*
X75813700Y-73719700D02*
X79062800Y-73719700D01*
X68017000Y-65923000D02*
X75813700Y-73719700D01*
X68017000Y-53962500D02*
X68017000Y-65923000D01*
X65252300Y-51197800D02*
X68017000Y-53962500D01*
X65252300Y-50152500D02*
X65252300Y-51197800D01*
X81032000Y-74845000D02*
X79906700Y-74845000D01*
X64207000Y-50152500D02*
X65252300Y-50152500D01*
X69287000Y-65392500D02*
X70332300Y-65392500D01*
X70332300Y-65686500D02*
X70332300Y-65392500D01*
X76876900Y-72231100D02*
X70332300Y-65686500D01*
X80114200Y-72231100D02*
X76876900Y-72231100D01*
X82446700Y-74563600D02*
X80114200Y-72231100D01*
X82446700Y-74845000D02*
X82446700Y-74563600D01*
X83572000Y-74845000D02*
X83009400Y-74845000D01*
X83009400Y-74845000D02*
X82446700Y-74845000D01*
X102809400Y-69712600D02*
X108750200Y-63771800D01*
X98723500Y-69712600D02*
X102809400Y-69712600D01*
X91976800Y-76459300D02*
X98723500Y-69712600D01*
X84623700Y-76459300D02*
X91976800Y-76459300D01*
X83009400Y-74845000D02*
X84623700Y-76459300D01*
X86112000Y-74845000D02*
X87237300Y-74845000D01*
X113157000Y-55245000D02*
X112031700Y-55245000D01*
X112031700Y-55526400D02*
X112031700Y-55245000D01*
X111187800Y-56370300D02*
X112031700Y-55526400D01*
X104486700Y-56370300D02*
X111187800Y-56370300D01*
X104486700Y-50545300D02*
X104486700Y-56370300D01*
X102745900Y-48804500D02*
X104486700Y-50545300D01*
X78996500Y-48804500D02*
X102745900Y-48804500D01*
X78177000Y-49624000D02*
X78996500Y-48804500D01*
X78177000Y-50648800D02*
X78177000Y-49624000D01*
X76829500Y-51996300D02*
X78177000Y-50648800D01*
X68590800Y-51996300D02*
X76829500Y-51996300D01*
X66747000Y-50152500D02*
X68590800Y-51996300D01*
X95957000Y-64900000D02*
X104486700Y-56370300D01*
X95957000Y-65935900D02*
X95957000Y-64900000D01*
X87237300Y-74655600D02*
X95957000Y-65935900D01*
X87237300Y-74845000D02*
X87237300Y-74655600D01*
X114571700Y-54963600D02*
X114571700Y-55245000D01*
X113727800Y-54119700D02*
X114571700Y-54963600D01*
X110306400Y-54119700D02*
X113727800Y-54119700D01*
X104537900Y-48351200D02*
X110306400Y-54119700D01*
X71839600Y-48351200D02*
X104537900Y-48351200D01*
X70332300Y-49858500D02*
X71839600Y-48351200D01*
X70332300Y-50152500D02*
X70332300Y-49858500D01*
X69287000Y-50152500D02*
X70332300Y-50152500D01*
X115697000Y-55245000D02*
X114571700Y-55245000D01*
X114571700Y-55421900D02*
X114571700Y-55245000D01*
X103060900Y-66932700D02*
X114571700Y-55421900D01*
X96564300Y-66932700D02*
X103060900Y-66932700D01*
X88652000Y-74845000D02*
X96564300Y-66932700D01*
X118237000Y-55245000D02*
X117111700Y-55245000D01*
X91192000Y-74845000D02*
X92317300Y-74845000D01*
X71827000Y-65392500D02*
X72872300Y-65392500D01*
X91192000Y-74845000D02*
X90066700Y-74845000D01*
X90066700Y-75037800D02*
X90066700Y-74845000D01*
X89134200Y-75970300D02*
X90066700Y-75037800D01*
X85604300Y-75970300D02*
X89134200Y-75970300D01*
X84842000Y-75208000D02*
X85604300Y-75970300D01*
X84842000Y-74517400D02*
X84842000Y-75208000D01*
X82088300Y-71763700D02*
X84842000Y-74517400D01*
X78949500Y-71763700D02*
X82088300Y-71763700D01*
X72872300Y-65686500D02*
X78949500Y-71763700D01*
X72872300Y-65392500D02*
X72872300Y-65686500D01*
X117111700Y-55526300D02*
X117111700Y-55245000D01*
X109591500Y-63046500D02*
X117111700Y-55526300D01*
X108252200Y-63046500D02*
X109591500Y-63046500D01*
X102036400Y-69262300D02*
X108252200Y-63046500D01*
X97900000Y-69262300D02*
X102036400Y-69262300D01*
X92317300Y-74845000D02*
X97900000Y-69262300D01*
X99025000Y-139192000D02*
X99025000Y-133866700D01*
X98994900Y-133836600D02*
X98994900Y-127099100D01*
X99025000Y-133866700D02*
X98994900Y-133836600D01*
X78421000Y-88777000D02*
X79546300Y-88777000D01*
X97751200Y-90055000D02*
X98357900Y-90661700D01*
X80824300Y-90055000D02*
X97751200Y-90055000D01*
X79546300Y-88777000D02*
X80824300Y-90055000D01*
X78421000Y-96397000D02*
X79546300Y-96397000D01*
X91406100Y-95271700D02*
X97617000Y-101482600D01*
X80671600Y-95271700D02*
X91406100Y-95271700D01*
X79546300Y-96397000D02*
X80671600Y-95271700D01*
X70801000Y-91317000D02*
X71926300Y-91317000D01*
X73196300Y-92587000D02*
X71926300Y-91317000D01*
X92592600Y-92587000D02*
X73196300Y-92587000D01*
X102985000Y-102979400D02*
X92592600Y-92587000D01*
X102985000Y-139192000D02*
X102985000Y-102979400D01*
X79154900Y-114136800D02*
X59425000Y-133866700D01*
X87432700Y-114136800D02*
X79154900Y-114136800D01*
X99781000Y-101788500D02*
X87432700Y-114136800D01*
X99781000Y-101106200D02*
X99781000Y-101788500D01*
X59425000Y-139192000D02*
X59425000Y-133866700D01*
X63385000Y-139192000D02*
X63385000Y-133866700D01*
X100521800Y-101813900D02*
X100784500Y-101813900D01*
X86848300Y-115487400D02*
X100521800Y-101813900D01*
X81764300Y-115487400D02*
X86848300Y-115487400D01*
X63385000Y-133866700D02*
X81764300Y-115487400D01*
X67345000Y-139192000D02*
X67345000Y-133866700D01*
X98823900Y-104411800D02*
X99107100Y-104411800D01*
X87298000Y-115937700D02*
X98823900Y-104411800D01*
X85274000Y-115937700D02*
X87298000Y-115937700D01*
X67345000Y-133866700D02*
X85274000Y-115937700D01*
X71305000Y-139192000D02*
X71305000Y-133866700D01*
X95227700Y-109944000D02*
X95452900Y-109944000D01*
X71305000Y-133866700D02*
X95227700Y-109944000D01*
X75265000Y-139192000D02*
X75265000Y-133866700D01*
X75265000Y-133866700D02*
X97148900Y-111982800D01*
X79489200Y-133866700D02*
X94804900Y-118551000D01*
X79225000Y-133866700D02*
X79489200Y-133866700D01*
X79225000Y-139192000D02*
X79225000Y-133866700D01*
X83185000Y-132475800D02*
X94344700Y-121316100D01*
X83185000Y-139192000D02*
X83185000Y-132475800D01*
X87145000Y-129736500D02*
X87145000Y-139192000D01*
X93297100Y-123584400D02*
X87145000Y-129736500D01*
X88141000Y-72726000D02*
X89392400Y-71474600D01*
X83764900Y-72726000D02*
X88141000Y-72726000D01*
X77756700Y-66717800D02*
X83764900Y-72726000D01*
X76907000Y-66717800D02*
X77756700Y-66717800D01*
X91105000Y-139192000D02*
X91105000Y-133866700D01*
X76907000Y-65392500D02*
X76907000Y-66717800D01*
X92862600Y-132109100D02*
X92862600Y-127089200D01*
X91105000Y-133866700D02*
X92862600Y-132109100D01*
X95065000Y-139192000D02*
X95065000Y-133866700D01*
X94100700Y-132902400D02*
X94100700Y-127117400D01*
X95065000Y-133866700D02*
X94100700Y-132902400D01*
X77072800Y-105150400D02*
X83871200Y-111948800D01*
X69395900Y-105150400D02*
X77072800Y-105150400D01*
X61772700Y-97527200D02*
X69395900Y-105150400D01*
X61772700Y-97286900D02*
X61772700Y-97527200D01*
X54506500Y-90020700D02*
X61772700Y-97286900D01*
X54506500Y-73261200D02*
X54506500Y-90020700D01*
X44799700Y-63554400D02*
X54506500Y-73261200D01*
X44799700Y-59957700D02*
X44799700Y-63554400D01*
X55952500Y-48804900D02*
X44799700Y-59957700D01*
X67200400Y-48804900D02*
X55952500Y-48804900D01*
X68017000Y-49621500D02*
X67200400Y-48804900D01*
X68017000Y-50643100D02*
X68017000Y-49621500D01*
X68852800Y-51478900D02*
X68017000Y-50643100D01*
X72289300Y-51478900D02*
X68852800Y-51478900D01*
X73321700Y-50446500D02*
X72289300Y-51478900D01*
X73321700Y-50152500D02*
X73321700Y-50446500D01*
X74367000Y-50152500D02*
X73321700Y-50152500D01*
X84527000Y-50152500D02*
X83481700Y-50152500D01*
X83481700Y-69426900D02*
X83559200Y-69504400D01*
X83481700Y-50152500D02*
X83481700Y-69426900D01*
X77214800Y-127082400D02*
X76081100Y-127082400D01*
X95976500Y-108320700D02*
X77214800Y-127082400D01*
X96157600Y-108320700D02*
X95976500Y-108320700D01*
X92147000Y-65392500D02*
X91101700Y-65392500D01*
X84805300Y-71982900D02*
X84174500Y-71982900D01*
X91101700Y-65686500D02*
X84805300Y-71982900D01*
X91101700Y-65392500D02*
X91101700Y-65686500D01*
X96098000Y-77810300D02*
X96998600Y-76909700D01*
X91042300Y-77810300D02*
X96098000Y-77810300D01*
X84930700Y-83921900D02*
X91042300Y-77810300D01*
X83752800Y-83145300D02*
X82926900Y-83971200D01*
X84754700Y-83145300D02*
X83752800Y-83145300D01*
X90924500Y-76975500D02*
X84754700Y-83145300D01*
X94976900Y-76975500D02*
X90924500Y-76975500D01*
X101514500Y-70437900D02*
X94976900Y-76975500D01*
X66747000Y-65392500D02*
X64207000Y-65392500D01*
X54294500Y-65392500D02*
X50947000Y-62045000D01*
X64207000Y-65392500D02*
X54294500Y-65392500D01*
X67145000Y-86237000D02*
X70801000Y-86237000D01*
X63447000Y-89935000D02*
X67145000Y-86237000D01*
X70801000Y-86237000D02*
X71926300Y-86237000D01*
X108077000Y-47625000D02*
X110617000Y-47625000D01*
X110617000Y-47625000D02*
X113157000Y-47625000D01*
X113157000Y-47625000D02*
X115697000Y-47625000D01*
X63447000Y-89935000D02*
X60197000Y-89935000D01*
X58052300Y-89935000D02*
X58022300Y-89905000D01*
X60197000Y-89935000D02*
X58052300Y-89935000D01*
X56897000Y-89905000D02*
X58022300Y-89905000D01*
X118237000Y-47625000D02*
X118237000Y-48187600D01*
X118237000Y-48187600D02*
X118237000Y-48750300D01*
X117384900Y-48187600D02*
X116822300Y-47625000D01*
X118237000Y-48187600D02*
X117384900Y-48187600D01*
X115697000Y-47625000D02*
X116822300Y-47625000D01*
X94153500Y-80945000D02*
X89597000Y-80945000D01*
X119362300Y-55736200D02*
X94153500Y-80945000D01*
X119362300Y-49875600D02*
X119362300Y-55736200D01*
X118237000Y-48750300D02*
X119362300Y-49875600D01*
X84452300Y-86089700D02*
X89597000Y-80945000D01*
X84452300Y-86245000D02*
X84452300Y-86089700D01*
X83327000Y-86245000D02*
X84452300Y-86245000D01*
X83327000Y-86245000D02*
X82201700Y-86245000D01*
X81068400Y-85111700D02*
X82201700Y-86245000D01*
X72561300Y-85111700D02*
X81068400Y-85111700D01*
X72071000Y-84621400D02*
X72561300Y-85111700D01*
X72071000Y-80903000D02*
X72071000Y-84621400D01*
X72561300Y-85602000D02*
X71926300Y-86237000D01*
X72561300Y-85111700D02*
X72561300Y-85602000D01*
X102307000Y-50152500D02*
X101261700Y-50152500D01*
X84527000Y-65392500D02*
X85572300Y-65392500D01*
X71997300Y-75829300D02*
X77071000Y-80903000D01*
X71997300Y-74845000D02*
X71997300Y-75829300D01*
X70872000Y-74845000D02*
X71997300Y-74845000D01*
X112040000Y-132731700D02*
X112040000Y-127126500D01*
X110905000Y-133866700D02*
X112040000Y-132731700D01*
X110905000Y-139192000D02*
X110905000Y-133866700D01*
X82094300Y-104025000D02*
X79546300Y-101477000D01*
X83327000Y-104025000D02*
X82094300Y-104025000D01*
X78421000Y-101477000D02*
X79546300Y-101477000D01*
X90947000Y-104025000D02*
X83327000Y-104025000D01*
X51497000Y-50695000D02*
X44997000Y-50695000D01*
X58747000Y-74845000D02*
X70872000Y-74845000D01*
X45947000Y-62045000D02*
X58747000Y-74845000D01*
X84527000Y-65392500D02*
X84527000Y-66717800D01*
X101261700Y-50440000D02*
X101261700Y-50152500D01*
X98838300Y-52863400D02*
X101261700Y-50440000D01*
X97807400Y-52863400D02*
X98838300Y-52863400D01*
X85572300Y-65098500D02*
X97807400Y-52863400D01*
X85572300Y-65392500D02*
X85572300Y-65098500D01*
X84527000Y-69562400D02*
X84527000Y-66717800D01*
X83584600Y-70504800D02*
X84527000Y-69562400D01*
X83281300Y-70504800D02*
X83584600Y-70504800D01*
M02*
