M48
; DRILL file {KiCad 7.0.10} date Tue Jan  2 22:15:03 2024
; FORMAT={-:-/ absolute / inch / decimal}
; #@! TF.CreationDate,2024-01-02T22:15:03+01:00
; #@! TF.GenerationSoftware,Kicad,Pcbnew,7.0.10
; #@! TF.FileFunction,Plated,1,2,PTH
FMAT,2
INCH
; #@! TA.AperFunction,Plated,PTH,ViaDrill
T1C0.0157
; #@! TA.AperFunction,Plated,PTH,ComponentDrill
T2C0.0315
; #@! TA.AperFunction,Plated,PTH,ComponentDrill
T3C0.0394
; #@! TA.AperFunction,Plated,PTH,ComponentDrill
T4C0.0433
%
G90
G05
T1
X2.8809Y-2.5311
X2.9953Y-5.0032
X3.2648Y-3.306
X3.2788Y-2.7758
X3.2897Y-2.7364
X3.302Y-4.4074
X3.314Y-2.834
X3.3437Y-3.304
X3.5194Y-2.814
X3.656Y-5.0035
X3.6731Y-4.8655
X3.7048Y-5.0046
X3.7144Y-4.7762
X3.7325Y-4.6674
X3.758Y-4.3285
X3.7857Y-4.2646
X3.8188Y-3.0279
X3.8248Y-4.4088
X3.8432Y-3.9954
X3.8724Y-3.5694
X3.8974Y-5.0039
X3.9019Y-4.1107
X3.9284Y-3.9806
X3.9679Y-4.0084
X3.9966Y-2.7731
X4.2815Y-2.5107
X4.411Y-5.005
T2
X1.8089Y-2.4427
X2.0058Y-2.4427
X2.24Y-3.5396
X2.24Y-3.8396
X2.37Y-3.5407
X2.37Y-3.8407
X2.4979Y-3.5407
X2.4979Y-3.8407
X2.7874Y-3.3952
X2.7874Y-3.4952
X2.7874Y-3.5952
X2.7874Y-3.6952
X2.7874Y-3.7952
X2.7874Y-3.8952
X2.7874Y-3.9952
X2.7902Y-2.9467
X2.8374Y-3.1852
X2.8902Y-2.9467
X2.9881Y-4.364
X2.9902Y-2.9467
X3.0343Y-3.1852
X3.0865Y-4.364
X3.0874Y-3.3952
X3.0874Y-3.4952
X3.0874Y-3.5952
X3.0874Y-3.6952
X3.0874Y-3.7952
X3.0874Y-3.8952
X3.0874Y-3.9952
X3.0902Y-2.9467
X3.1902Y-2.9467
X3.2806Y-3.3955
X3.2806Y-3.4955
X3.2806Y-3.5955
X3.2806Y-3.6955
X3.2806Y-3.7955
X3.2806Y-3.8955
X3.2806Y-3.9955
X3.2806Y-4.0955
X3.2902Y-2.9467
X3.3306Y-3.1868
X3.3678Y-4.3623
X3.3902Y-2.9467
X3.4663Y-4.3623
X3.4902Y-2.9467
X3.5274Y-3.1868
X3.5806Y-3.3955
X3.5806Y-3.4955
X3.5806Y-3.5955
X3.5806Y-3.6955
X3.5806Y-3.7955
X3.5806Y-3.8955
X3.5806Y-3.9955
X3.5806Y-4.0955
X3.5902Y-2.9467
X4.255Y-1.875
X4.255Y-2.175
X4.355Y-1.875
X4.355Y-2.175
X4.455Y-1.875
X4.455Y-2.175
X4.555Y-1.875
X4.555Y-2.175
X4.655Y-1.875
X4.655Y-2.175
T3
X2.5278Y-1.9745
X2.5278Y-2.5745
X2.6278Y-1.9745
X2.6278Y-2.5745
X2.7278Y-1.9745
X2.7278Y-2.5745
X2.8278Y-1.9745
X2.8278Y-2.5745
X2.9278Y-1.9745
X2.9278Y-2.5745
X3.0278Y-1.9745
X3.0278Y-2.5745
X3.1278Y-1.9745
X3.1278Y-2.5745
X3.2278Y-1.9745
X3.2278Y-2.5745
X3.3278Y-1.9745
X3.3278Y-2.5745
X3.4278Y-1.9745
X3.4278Y-2.5745
X3.5278Y-1.9745
X3.5278Y-2.5745
X3.6278Y-1.9745
X3.6278Y-2.5745
X3.7278Y-1.9745
X3.7278Y-2.5745
X3.8278Y-1.9745
X3.8278Y-2.5745
X3.9278Y-1.9745
X3.9278Y-2.5745
X4.0278Y-1.9745
X4.0278Y-2.5745
T4
X1.7715Y-1.9959
X1.7715Y-2.173
X2.0274Y-1.9959
X2.0274Y-2.173
M30
