M48
; DRILL file {KiCad (6.0.9)} date Sun Aug  6 15:24:50 2023
; FORMAT={-:-/ absolute / inch / decimal}
; #@! TF.CreationDate,2023-08-06T15:24:50+02:00
; #@! TF.GenerationSoftware,Kicad,Pcbnew,(6.0.9)
; #@! TF.FileFunction,Plated,1,2,PTH
FMAT,2
INCH
; #@! TA.AperFunction,Plated,PTH,ViaDrill
T1C0.0157
; #@! TA.AperFunction,Plated,PTH,ComponentDrill
T2C0.0315
; #@! TA.AperFunction,Plated,PTH,ComponentDrill
T3C0.0394
; #@! TA.AperFunction,Plated,PTH,ComponentDrill
T4C0.0433
%
G90
G05
T1
X2.0688Y-4.9427
X2.2769Y-3.4625
X2.9075Y-3.5509
X2.9469Y-3.7444
X3.0894Y-4.9529
X3.2143Y-4.6876
X3.218Y-4.6282
X3.2488Y-4.653
X3.2774Y-4.6245
X3.3343Y-4.5676
X3.3564Y-4.8347
X3.4881Y-2.8147
X3.6282Y-2.8009
X3.6571Y-2.726
X3.6649Y-4.2927
X3.6988Y-2.6329
X3.7386Y-2.73
X3.7583Y-2.7725
X3.8214Y-4.539
X3.8572Y-2.8844
X3.8896Y-2.8532
X3.9152Y-4.0328
X3.9284Y-4.1344
X3.9406Y-4.0945
X3.9816Y-4.0951
X4.0541Y-4.0477
X4.6081Y-4.9073
T2
X1.8089Y-2.4427
X2.0058Y-2.4427
X2.24Y-3.5396
X2.24Y-3.8396
X2.37Y-3.5407
X2.37Y-3.8407
X2.4979Y-3.5407
X2.4979Y-3.8407
X2.7874Y-3.3952
X2.7874Y-3.4952
X2.7874Y-3.5952
X2.7874Y-3.6952
X2.7874Y-3.7952
X2.7874Y-3.8952
X2.7874Y-3.9952
X2.7902Y-2.9467
X2.8374Y-3.1852
X2.8902Y-2.9467
X2.9881Y-4.364
X2.9902Y-2.9467
X3.0343Y-3.1852
X3.0865Y-4.364
X3.0874Y-3.3952
X3.0874Y-3.4952
X3.0874Y-3.5952
X3.0874Y-3.6952
X3.0874Y-3.7952
X3.0874Y-3.8952
X3.0874Y-3.9952
X3.0902Y-2.9467
X3.1902Y-2.9467
X3.2806Y-3.3955
X3.2806Y-3.4955
X3.2806Y-3.5955
X3.2806Y-3.6955
X3.2806Y-3.7955
X3.2806Y-3.8955
X3.2806Y-3.9955
X3.2806Y-4.0955
X3.2902Y-2.9467
X3.3306Y-3.1868
X3.3678Y-4.3623
X3.3902Y-2.9467
X3.4663Y-4.3623
X3.4902Y-2.9467
X3.5274Y-3.1868
X3.5806Y-3.3955
X3.5806Y-3.4955
X3.5806Y-3.5955
X3.5806Y-3.6955
X3.5806Y-3.7955
X3.5806Y-3.8955
X3.5806Y-3.9955
X3.5806Y-4.0955
X3.5902Y-2.9467
X4.4381Y-1.9128
X4.4381Y-2.0128
X4.4381Y-2.1128
X4.4381Y-2.2128
X4.4381Y-2.3128
X4.7381Y-1.9128
X4.7381Y-2.0128
X4.7381Y-2.1128
X4.7381Y-2.2128
X4.7381Y-2.3128
T3
X2.5278Y-1.9745
X2.5278Y-2.5745
X2.6278Y-1.9745
X2.6278Y-2.5745
X2.7278Y-1.9745
X2.7278Y-2.5745
X2.8278Y-1.9745
X2.8278Y-2.5745
X2.9278Y-1.9745
X2.9278Y-2.5745
X3.0278Y-1.9745
X3.0278Y-2.5745
X3.1278Y-1.9745
X3.1278Y-2.5745
X3.2278Y-1.9745
X3.2278Y-2.5745
X3.3278Y-1.9745
X3.3278Y-2.5745
X3.4278Y-1.9745
X3.4278Y-2.5745
X3.5278Y-1.9745
X3.5278Y-2.5745
X3.6278Y-1.9745
X3.6278Y-2.5745
X3.7278Y-1.9745
X3.7278Y-2.5745
X3.8278Y-1.9745
X3.8278Y-2.5745
X3.9278Y-1.9745
X3.9278Y-2.5745
X4.0278Y-1.9745
X4.0278Y-2.5745
T4
X1.7715Y-1.9959
X1.7715Y-2.173
X2.0274Y-1.9959
X2.0274Y-2.173
T0
M30
