G04 #@! TF.GenerationSoftware,KiCad,Pcbnew,7.0.10*
G04 #@! TF.CreationDate,2024-01-02T22:15:01+01:00*
G04 #@! TF.ProjectId,p2000t-multicartridge-zif,70323030-3074-42d6-9d75-6c7469636172,rev?*
G04 #@! TF.SameCoordinates,Original*
G04 #@! TF.FileFunction,Legend,Top*
G04 #@! TF.FilePolarity,Positive*
%FSLAX46Y46*%
G04 Gerber Fmt 4.6, Leading zero omitted, Abs format (unit mm)*
G04 Created by KiCad (PCBNEW 7.0.10) date 2024-01-02 22:15:01*
%MOMM*%
%LPD*%
G01*
G04 APERTURE LIST*
%ADD10C,0.120000*%
%ADD11C,0.150000*%
%ADD12C,0.300000*%
%ADD13C,0.100000*%
%ADD14C,2.000000*%
%ADD15R,1.600000X1.600000*%
%ADD16O,1.600000X1.600000*%
%ADD17C,1.600000*%
%ADD18R,2.000000X10.000000*%
%ADD19R,1.440000X2.000000*%
%ADD20O,1.440000X2.000000*%
G04 APERTURE END LIST*
D10*
X54214000Y-128905000D02*
X54214000Y-131445000D01*
X109586000Y-131445000D02*
X111999000Y-131445000D01*
X109586000Y-127889000D02*
X109586000Y-131445000D01*
X56627000Y-131445000D02*
X56627000Y-128905000D01*
X58278000Y-131445000D02*
X72375000Y-131445000D01*
X56627000Y-128905000D02*
X54214000Y-128905000D01*
X54214000Y-131445000D02*
X56627000Y-131445000D01*
X111999000Y-127889000D02*
X109586000Y-127889000D01*
X111999000Y-131445000D02*
X111999000Y-127889000D01*
X74153000Y-131445000D02*
X96251000Y-131445000D01*
D11*
X86464143Y-133042819D02*
X86654619Y-133042819D01*
X86654619Y-133042819D02*
X86749857Y-132995200D01*
X86749857Y-132995200D02*
X86797476Y-132947580D01*
X86797476Y-132947580D02*
X86892714Y-132804723D01*
X86892714Y-132804723D02*
X86940333Y-132614247D01*
X86940333Y-132614247D02*
X86940333Y-132233295D01*
X86940333Y-132233295D02*
X86892714Y-132138057D01*
X86892714Y-132138057D02*
X86845095Y-132090438D01*
X86845095Y-132090438D02*
X86749857Y-132042819D01*
X86749857Y-132042819D02*
X86559381Y-132042819D01*
X86559381Y-132042819D02*
X86464143Y-132090438D01*
X86464143Y-132090438D02*
X86416524Y-132138057D01*
X86416524Y-132138057D02*
X86368905Y-132233295D01*
X86368905Y-132233295D02*
X86368905Y-132471390D01*
X86368905Y-132471390D02*
X86416524Y-132566628D01*
X86416524Y-132566628D02*
X86464143Y-132614247D01*
X86464143Y-132614247D02*
X86559381Y-132661866D01*
X86559381Y-132661866D02*
X86749857Y-132661866D01*
X86749857Y-132661866D02*
X86845095Y-132614247D01*
X86845095Y-132614247D02*
X86892714Y-132566628D01*
X86892714Y-132566628D02*
X86940333Y-132471390D01*
X87368905Y-133042819D02*
X87368905Y-132042819D01*
X87368905Y-132423771D02*
X87464143Y-132376152D01*
X87464143Y-132376152D02*
X87654619Y-132376152D01*
X87654619Y-132376152D02*
X87749857Y-132423771D01*
X87749857Y-132423771D02*
X87797476Y-132471390D01*
X87797476Y-132471390D02*
X87845095Y-132566628D01*
X87845095Y-132566628D02*
X87845095Y-132852342D01*
X87845095Y-132852342D02*
X87797476Y-132947580D01*
X87797476Y-132947580D02*
X87749857Y-132995200D01*
X87749857Y-132995200D02*
X87654619Y-133042819D01*
X87654619Y-133042819D02*
X87464143Y-133042819D01*
X87464143Y-133042819D02*
X87368905Y-132995200D01*
X74907095Y-132042819D02*
X74716619Y-132042819D01*
X74716619Y-132042819D02*
X74621381Y-132090438D01*
X74621381Y-132090438D02*
X74573762Y-132138057D01*
X74573762Y-132138057D02*
X74478524Y-132280914D01*
X74478524Y-132280914D02*
X74430905Y-132471390D01*
X74430905Y-132471390D02*
X74430905Y-132852342D01*
X74430905Y-132852342D02*
X74478524Y-132947580D01*
X74478524Y-132947580D02*
X74526143Y-132995200D01*
X74526143Y-132995200D02*
X74621381Y-133042819D01*
X74621381Y-133042819D02*
X74811857Y-133042819D01*
X74811857Y-133042819D02*
X74907095Y-132995200D01*
X74907095Y-132995200D02*
X74954714Y-132947580D01*
X74954714Y-132947580D02*
X75002333Y-132852342D01*
X75002333Y-132852342D02*
X75002333Y-132614247D01*
X75002333Y-132614247D02*
X74954714Y-132519009D01*
X74954714Y-132519009D02*
X74907095Y-132471390D01*
X74907095Y-132471390D02*
X74811857Y-132423771D01*
X74811857Y-132423771D02*
X74621381Y-132423771D01*
X74621381Y-132423771D02*
X74526143Y-132471390D01*
X74526143Y-132471390D02*
X74478524Y-132519009D01*
X74478524Y-132519009D02*
X74430905Y-132614247D01*
X75430905Y-133042819D02*
X75430905Y-132042819D01*
X75430905Y-132423771D02*
X75526143Y-132376152D01*
X75526143Y-132376152D02*
X75716619Y-132376152D01*
X75716619Y-132376152D02*
X75811857Y-132423771D01*
X75811857Y-132423771D02*
X75859476Y-132471390D01*
X75859476Y-132471390D02*
X75907095Y-132566628D01*
X75907095Y-132566628D02*
X75907095Y-132852342D01*
X75907095Y-132852342D02*
X75859476Y-132947580D01*
X75859476Y-132947580D02*
X75811857Y-132995200D01*
X75811857Y-132995200D02*
X75716619Y-133042819D01*
X75716619Y-133042819D02*
X75526143Y-133042819D01*
X75526143Y-133042819D02*
X75430905Y-132995200D01*
X82622381Y-132471390D02*
X82527143Y-132423771D01*
X82527143Y-132423771D02*
X82479524Y-132376152D01*
X82479524Y-132376152D02*
X82431905Y-132280914D01*
X82431905Y-132280914D02*
X82431905Y-132233295D01*
X82431905Y-132233295D02*
X82479524Y-132138057D01*
X82479524Y-132138057D02*
X82527143Y-132090438D01*
X82527143Y-132090438D02*
X82622381Y-132042819D01*
X82622381Y-132042819D02*
X82812857Y-132042819D01*
X82812857Y-132042819D02*
X82908095Y-132090438D01*
X82908095Y-132090438D02*
X82955714Y-132138057D01*
X82955714Y-132138057D02*
X83003333Y-132233295D01*
X83003333Y-132233295D02*
X83003333Y-132280914D01*
X83003333Y-132280914D02*
X82955714Y-132376152D01*
X82955714Y-132376152D02*
X82908095Y-132423771D01*
X82908095Y-132423771D02*
X82812857Y-132471390D01*
X82812857Y-132471390D02*
X82622381Y-132471390D01*
X82622381Y-132471390D02*
X82527143Y-132519009D01*
X82527143Y-132519009D02*
X82479524Y-132566628D01*
X82479524Y-132566628D02*
X82431905Y-132661866D01*
X82431905Y-132661866D02*
X82431905Y-132852342D01*
X82431905Y-132852342D02*
X82479524Y-132947580D01*
X82479524Y-132947580D02*
X82527143Y-132995200D01*
X82527143Y-132995200D02*
X82622381Y-133042819D01*
X82622381Y-133042819D02*
X82812857Y-133042819D01*
X82812857Y-133042819D02*
X82908095Y-132995200D01*
X82908095Y-132995200D02*
X82955714Y-132947580D01*
X82955714Y-132947580D02*
X83003333Y-132852342D01*
X83003333Y-132852342D02*
X83003333Y-132661866D01*
X83003333Y-132661866D02*
X82955714Y-132566628D01*
X82955714Y-132566628D02*
X82908095Y-132519009D01*
X82908095Y-132519009D02*
X82812857Y-132471390D01*
X83431905Y-133042819D02*
X83431905Y-132042819D01*
X83431905Y-132423771D02*
X83527143Y-132376152D01*
X83527143Y-132376152D02*
X83717619Y-132376152D01*
X83717619Y-132376152D02*
X83812857Y-132423771D01*
X83812857Y-132423771D02*
X83860476Y-132471390D01*
X83860476Y-132471390D02*
X83908095Y-132566628D01*
X83908095Y-132566628D02*
X83908095Y-132852342D01*
X83908095Y-132852342D02*
X83860476Y-132947580D01*
X83860476Y-132947580D02*
X83812857Y-132995200D01*
X83812857Y-132995200D02*
X83717619Y-133042819D01*
X83717619Y-133042819D02*
X83527143Y-133042819D01*
X83527143Y-133042819D02*
X83431905Y-132995200D01*
X67033095Y-132376152D02*
X67033095Y-133042819D01*
X66795000Y-131995200D02*
X66556905Y-132709485D01*
X66556905Y-132709485D02*
X67175952Y-132709485D01*
X67556905Y-133042819D02*
X67556905Y-132042819D01*
X67556905Y-132423771D02*
X67652143Y-132376152D01*
X67652143Y-132376152D02*
X67842619Y-132376152D01*
X67842619Y-132376152D02*
X67937857Y-132423771D01*
X67937857Y-132423771D02*
X67985476Y-132471390D01*
X67985476Y-132471390D02*
X68033095Y-132566628D01*
X68033095Y-132566628D02*
X68033095Y-132852342D01*
X68033095Y-132852342D02*
X67985476Y-132947580D01*
X67985476Y-132947580D02*
X67937857Y-132995200D01*
X67937857Y-132995200D02*
X67842619Y-133042819D01*
X67842619Y-133042819D02*
X67652143Y-133042819D01*
X67652143Y-133042819D02*
X67556905Y-132995200D01*
X55190333Y-133042819D02*
X54618905Y-133042819D01*
X54904619Y-133042819D02*
X54904619Y-132042819D01*
X54904619Y-132042819D02*
X54809381Y-132185676D01*
X54809381Y-132185676D02*
X54714143Y-132280914D01*
X54714143Y-132280914D02*
X54618905Y-132328533D01*
X55618905Y-133042819D02*
X55618905Y-132042819D01*
X55618905Y-132423771D02*
X55714143Y-132376152D01*
X55714143Y-132376152D02*
X55904619Y-132376152D01*
X55904619Y-132376152D02*
X55999857Y-132423771D01*
X55999857Y-132423771D02*
X56047476Y-132471390D01*
X56047476Y-132471390D02*
X56095095Y-132566628D01*
X56095095Y-132566628D02*
X56095095Y-132852342D01*
X56095095Y-132852342D02*
X56047476Y-132947580D01*
X56047476Y-132947580D02*
X55999857Y-132995200D01*
X55999857Y-132995200D02*
X55904619Y-133042819D01*
X55904619Y-133042819D02*
X55714143Y-133042819D01*
X55714143Y-133042819D02*
X55618905Y-132995200D01*
X58555905Y-132138057D02*
X58603524Y-132090438D01*
X58603524Y-132090438D02*
X58698762Y-132042819D01*
X58698762Y-132042819D02*
X58936857Y-132042819D01*
X58936857Y-132042819D02*
X59032095Y-132090438D01*
X59032095Y-132090438D02*
X59079714Y-132138057D01*
X59079714Y-132138057D02*
X59127333Y-132233295D01*
X59127333Y-132233295D02*
X59127333Y-132328533D01*
X59127333Y-132328533D02*
X59079714Y-132471390D01*
X59079714Y-132471390D02*
X58508286Y-133042819D01*
X58508286Y-133042819D02*
X59127333Y-133042819D01*
X59555905Y-133042819D02*
X59555905Y-132042819D01*
X59555905Y-132423771D02*
X59651143Y-132376152D01*
X59651143Y-132376152D02*
X59841619Y-132376152D01*
X59841619Y-132376152D02*
X59936857Y-132423771D01*
X59936857Y-132423771D02*
X59984476Y-132471390D01*
X59984476Y-132471390D02*
X60032095Y-132566628D01*
X60032095Y-132566628D02*
X60032095Y-132852342D01*
X60032095Y-132852342D02*
X59984476Y-132947580D01*
X59984476Y-132947580D02*
X59936857Y-132995200D01*
X59936857Y-132995200D02*
X59841619Y-133042819D01*
X59841619Y-133042819D02*
X59651143Y-133042819D01*
X59651143Y-133042819D02*
X59555905Y-132995200D01*
X71017714Y-132042819D02*
X70541524Y-132042819D01*
X70541524Y-132042819D02*
X70493905Y-132519009D01*
X70493905Y-132519009D02*
X70541524Y-132471390D01*
X70541524Y-132471390D02*
X70636762Y-132423771D01*
X70636762Y-132423771D02*
X70874857Y-132423771D01*
X70874857Y-132423771D02*
X70970095Y-132471390D01*
X70970095Y-132471390D02*
X71017714Y-132519009D01*
X71017714Y-132519009D02*
X71065333Y-132614247D01*
X71065333Y-132614247D02*
X71065333Y-132852342D01*
X71065333Y-132852342D02*
X71017714Y-132947580D01*
X71017714Y-132947580D02*
X70970095Y-132995200D01*
X70970095Y-132995200D02*
X70874857Y-133042819D01*
X70874857Y-133042819D02*
X70636762Y-133042819D01*
X70636762Y-133042819D02*
X70541524Y-132995200D01*
X70541524Y-132995200D02*
X70493905Y-132947580D01*
X71493905Y-133042819D02*
X71493905Y-132042819D01*
X71493905Y-132423771D02*
X71589143Y-132376152D01*
X71589143Y-132376152D02*
X71779619Y-132376152D01*
X71779619Y-132376152D02*
X71874857Y-132423771D01*
X71874857Y-132423771D02*
X71922476Y-132471390D01*
X71922476Y-132471390D02*
X71970095Y-132566628D01*
X71970095Y-132566628D02*
X71970095Y-132852342D01*
X71970095Y-132852342D02*
X71922476Y-132947580D01*
X71922476Y-132947580D02*
X71874857Y-132995200D01*
X71874857Y-132995200D02*
X71779619Y-133042819D01*
X71779619Y-133042819D02*
X71589143Y-133042819D01*
X71589143Y-133042819D02*
X71493905Y-132995200D01*
X78320286Y-132042819D02*
X78986952Y-132042819D01*
X78986952Y-132042819D02*
X78558381Y-133042819D01*
X79367905Y-133042819D02*
X79367905Y-132042819D01*
X79367905Y-132423771D02*
X79463143Y-132376152D01*
X79463143Y-132376152D02*
X79653619Y-132376152D01*
X79653619Y-132376152D02*
X79748857Y-132423771D01*
X79748857Y-132423771D02*
X79796476Y-132471390D01*
X79796476Y-132471390D02*
X79844095Y-132566628D01*
X79844095Y-132566628D02*
X79844095Y-132852342D01*
X79844095Y-132852342D02*
X79796476Y-132947580D01*
X79796476Y-132947580D02*
X79748857Y-132995200D01*
X79748857Y-132995200D02*
X79653619Y-133042819D01*
X79653619Y-133042819D02*
X79463143Y-133042819D01*
X79463143Y-133042819D02*
X79367905Y-132995200D01*
X94465142Y-133042819D02*
X93893714Y-133042819D01*
X94179428Y-133042819D02*
X94179428Y-132042819D01*
X94179428Y-132042819D02*
X94084190Y-132185676D01*
X94084190Y-132185676D02*
X93988952Y-132280914D01*
X93988952Y-132280914D02*
X93893714Y-132328533D01*
X95417523Y-133042819D02*
X94846095Y-133042819D01*
X95131809Y-133042819D02*
X95131809Y-132042819D01*
X95131809Y-132042819D02*
X95036571Y-132185676D01*
X95036571Y-132185676D02*
X94941333Y-132280914D01*
X94941333Y-132280914D02*
X94846095Y-132328533D01*
X95846095Y-133042819D02*
X95846095Y-132042819D01*
X95846095Y-132423771D02*
X95941333Y-132376152D01*
X95941333Y-132376152D02*
X96131809Y-132376152D01*
X96131809Y-132376152D02*
X96227047Y-132423771D01*
X96227047Y-132423771D02*
X96274666Y-132471390D01*
X96274666Y-132471390D02*
X96322285Y-132566628D01*
X96322285Y-132566628D02*
X96322285Y-132852342D01*
X96322285Y-132852342D02*
X96274666Y-132947580D01*
X96274666Y-132947580D02*
X96227047Y-132995200D01*
X96227047Y-132995200D02*
X96131809Y-133042819D01*
X96131809Y-133042819D02*
X95941333Y-133042819D01*
X95941333Y-133042819D02*
X95846095Y-132995200D01*
X98402142Y-133042819D02*
X97830714Y-133042819D01*
X98116428Y-133042819D02*
X98116428Y-132042819D01*
X98116428Y-132042819D02*
X98021190Y-132185676D01*
X98021190Y-132185676D02*
X97925952Y-132280914D01*
X97925952Y-132280914D02*
X97830714Y-132328533D01*
X98783095Y-132138057D02*
X98830714Y-132090438D01*
X98830714Y-132090438D02*
X98925952Y-132042819D01*
X98925952Y-132042819D02*
X99164047Y-132042819D01*
X99164047Y-132042819D02*
X99259285Y-132090438D01*
X99259285Y-132090438D02*
X99306904Y-132138057D01*
X99306904Y-132138057D02*
X99354523Y-132233295D01*
X99354523Y-132233295D02*
X99354523Y-132328533D01*
X99354523Y-132328533D02*
X99306904Y-132471390D01*
X99306904Y-132471390D02*
X98735476Y-133042819D01*
X98735476Y-133042819D02*
X99354523Y-133042819D01*
X99783095Y-133042819D02*
X99783095Y-132042819D01*
X99783095Y-132423771D02*
X99878333Y-132376152D01*
X99878333Y-132376152D02*
X100068809Y-132376152D01*
X100068809Y-132376152D02*
X100164047Y-132423771D01*
X100164047Y-132423771D02*
X100211666Y-132471390D01*
X100211666Y-132471390D02*
X100259285Y-132566628D01*
X100259285Y-132566628D02*
X100259285Y-132852342D01*
X100259285Y-132852342D02*
X100211666Y-132947580D01*
X100211666Y-132947580D02*
X100164047Y-132995200D01*
X100164047Y-132995200D02*
X100068809Y-133042819D01*
X100068809Y-133042819D02*
X99878333Y-133042819D01*
X99878333Y-133042819D02*
X99783095Y-132995200D01*
X110213142Y-133042819D02*
X109641714Y-133042819D01*
X109927428Y-133042819D02*
X109927428Y-132042819D01*
X109927428Y-132042819D02*
X109832190Y-132185676D01*
X109832190Y-132185676D02*
X109736952Y-132280914D01*
X109736952Y-132280914D02*
X109641714Y-132328533D01*
X111117904Y-132042819D02*
X110641714Y-132042819D01*
X110641714Y-132042819D02*
X110594095Y-132519009D01*
X110594095Y-132519009D02*
X110641714Y-132471390D01*
X110641714Y-132471390D02*
X110736952Y-132423771D01*
X110736952Y-132423771D02*
X110975047Y-132423771D01*
X110975047Y-132423771D02*
X111070285Y-132471390D01*
X111070285Y-132471390D02*
X111117904Y-132519009D01*
X111117904Y-132519009D02*
X111165523Y-132614247D01*
X111165523Y-132614247D02*
X111165523Y-132852342D01*
X111165523Y-132852342D02*
X111117904Y-132947580D01*
X111117904Y-132947580D02*
X111070285Y-132995200D01*
X111070285Y-132995200D02*
X110975047Y-133042819D01*
X110975047Y-133042819D02*
X110736952Y-133042819D01*
X110736952Y-133042819D02*
X110641714Y-132995200D01*
X110641714Y-132995200D02*
X110594095Y-132947580D01*
X111594095Y-133042819D02*
X111594095Y-132042819D01*
X111594095Y-132423771D02*
X111689333Y-132376152D01*
X111689333Y-132376152D02*
X111879809Y-132376152D01*
X111879809Y-132376152D02*
X111975047Y-132423771D01*
X111975047Y-132423771D02*
X112022666Y-132471390D01*
X112022666Y-132471390D02*
X112070285Y-132566628D01*
X112070285Y-132566628D02*
X112070285Y-132852342D01*
X112070285Y-132852342D02*
X112022666Y-132947580D01*
X112022666Y-132947580D02*
X111975047Y-132995200D01*
X111975047Y-132995200D02*
X111879809Y-133042819D01*
X111879809Y-133042819D02*
X111689333Y-133042819D01*
X111689333Y-133042819D02*
X111594095Y-132995200D01*
X62572286Y-132042819D02*
X63191333Y-132042819D01*
X63191333Y-132042819D02*
X62858000Y-132423771D01*
X62858000Y-132423771D02*
X63000857Y-132423771D01*
X63000857Y-132423771D02*
X63096095Y-132471390D01*
X63096095Y-132471390D02*
X63143714Y-132519009D01*
X63143714Y-132519009D02*
X63191333Y-132614247D01*
X63191333Y-132614247D02*
X63191333Y-132852342D01*
X63191333Y-132852342D02*
X63143714Y-132947580D01*
X63143714Y-132947580D02*
X63096095Y-132995200D01*
X63096095Y-132995200D02*
X63000857Y-133042819D01*
X63000857Y-133042819D02*
X62715143Y-133042819D01*
X62715143Y-133042819D02*
X62619905Y-132995200D01*
X62619905Y-132995200D02*
X62572286Y-132947580D01*
X63619905Y-133042819D02*
X63619905Y-132042819D01*
X63619905Y-132423771D02*
X63715143Y-132376152D01*
X63715143Y-132376152D02*
X63905619Y-132376152D01*
X63905619Y-132376152D02*
X64000857Y-132423771D01*
X64000857Y-132423771D02*
X64048476Y-132471390D01*
X64048476Y-132471390D02*
X64096095Y-132566628D01*
X64096095Y-132566628D02*
X64096095Y-132852342D01*
X64096095Y-132852342D02*
X64048476Y-132947580D01*
X64048476Y-132947580D02*
X64000857Y-132995200D01*
X64000857Y-132995200D02*
X63905619Y-133042819D01*
X63905619Y-133042819D02*
X63715143Y-133042819D01*
X63715143Y-133042819D02*
X63619905Y-132995200D01*
X90401142Y-133042819D02*
X89829714Y-133042819D01*
X90115428Y-133042819D02*
X90115428Y-132042819D01*
X90115428Y-132042819D02*
X90020190Y-132185676D01*
X90020190Y-132185676D02*
X89924952Y-132280914D01*
X89924952Y-132280914D02*
X89829714Y-132328533D01*
X91020190Y-132042819D02*
X91115428Y-132042819D01*
X91115428Y-132042819D02*
X91210666Y-132090438D01*
X91210666Y-132090438D02*
X91258285Y-132138057D01*
X91258285Y-132138057D02*
X91305904Y-132233295D01*
X91305904Y-132233295D02*
X91353523Y-132423771D01*
X91353523Y-132423771D02*
X91353523Y-132661866D01*
X91353523Y-132661866D02*
X91305904Y-132852342D01*
X91305904Y-132852342D02*
X91258285Y-132947580D01*
X91258285Y-132947580D02*
X91210666Y-132995200D01*
X91210666Y-132995200D02*
X91115428Y-133042819D01*
X91115428Y-133042819D02*
X91020190Y-133042819D01*
X91020190Y-133042819D02*
X90924952Y-132995200D01*
X90924952Y-132995200D02*
X90877333Y-132947580D01*
X90877333Y-132947580D02*
X90829714Y-132852342D01*
X90829714Y-132852342D02*
X90782095Y-132661866D01*
X90782095Y-132661866D02*
X90782095Y-132423771D01*
X90782095Y-132423771D02*
X90829714Y-132233295D01*
X90829714Y-132233295D02*
X90877333Y-132138057D01*
X90877333Y-132138057D02*
X90924952Y-132090438D01*
X90924952Y-132090438D02*
X91020190Y-132042819D01*
X91782095Y-133042819D02*
X91782095Y-132042819D01*
X91782095Y-132423771D02*
X91877333Y-132376152D01*
X91877333Y-132376152D02*
X92067809Y-132376152D01*
X92067809Y-132376152D02*
X92163047Y-132423771D01*
X92163047Y-132423771D02*
X92210666Y-132471390D01*
X92210666Y-132471390D02*
X92258285Y-132566628D01*
X92258285Y-132566628D02*
X92258285Y-132852342D01*
X92258285Y-132852342D02*
X92210666Y-132947580D01*
X92210666Y-132947580D02*
X92163047Y-132995200D01*
X92163047Y-132995200D02*
X92067809Y-133042819D01*
X92067809Y-133042819D02*
X91877333Y-133042819D01*
X91877333Y-133042819D02*
X91782095Y-132995200D01*
X110358438Y-130428904D02*
X110310819Y-130524142D01*
X110310819Y-130524142D02*
X110310819Y-130666999D01*
X110310819Y-130666999D02*
X110358438Y-130809856D01*
X110358438Y-130809856D02*
X110453676Y-130905094D01*
X110453676Y-130905094D02*
X110548914Y-130952713D01*
X110548914Y-130952713D02*
X110739390Y-131000332D01*
X110739390Y-131000332D02*
X110882247Y-131000332D01*
X110882247Y-131000332D02*
X111072723Y-130952713D01*
X111072723Y-130952713D02*
X111167961Y-130905094D01*
X111167961Y-130905094D02*
X111263200Y-130809856D01*
X111263200Y-130809856D02*
X111310819Y-130666999D01*
X111310819Y-130666999D02*
X111310819Y-130571761D01*
X111310819Y-130571761D02*
X111263200Y-130428904D01*
X111263200Y-130428904D02*
X111215580Y-130381285D01*
X111215580Y-130381285D02*
X110882247Y-130381285D01*
X110882247Y-130381285D02*
X110882247Y-130571761D01*
X111310819Y-129952713D02*
X110310819Y-129952713D01*
X110310819Y-129952713D02*
X111310819Y-129381285D01*
X111310819Y-129381285D02*
X110310819Y-129381285D01*
X111310819Y-128905094D02*
X110310819Y-128905094D01*
X110310819Y-128905094D02*
X110310819Y-128666999D01*
X110310819Y-128666999D02*
X110358438Y-128524142D01*
X110358438Y-128524142D02*
X110453676Y-128428904D01*
X110453676Y-128428904D02*
X110548914Y-128381285D01*
X110548914Y-128381285D02*
X110739390Y-128333666D01*
X110739390Y-128333666D02*
X110882247Y-128333666D01*
X110882247Y-128333666D02*
X111072723Y-128381285D01*
X111072723Y-128381285D02*
X111167961Y-128428904D01*
X111167961Y-128428904D02*
X111263200Y-128524142D01*
X111263200Y-128524142D02*
X111310819Y-128666999D01*
X111310819Y-128666999D02*
X111310819Y-128905094D01*
X78630429Y-130471104D02*
X79106619Y-130471104D01*
X78535191Y-130756819D02*
X78868524Y-129756819D01*
X78868524Y-129756819D02*
X79201857Y-130756819D01*
X79820905Y-131090152D02*
X79582810Y-131090152D01*
X79582810Y-131090152D02*
X79582810Y-129661580D01*
X79582810Y-129661580D02*
X79820905Y-129661580D01*
X80725667Y-130756819D02*
X80154239Y-130756819D01*
X80439953Y-130756819D02*
X80439953Y-129756819D01*
X80439953Y-129756819D02*
X80344715Y-129899676D01*
X80344715Y-129899676D02*
X80249477Y-129994914D01*
X80249477Y-129994914D02*
X80154239Y-130042533D01*
X81201858Y-130709200D02*
X81201858Y-130756819D01*
X81201858Y-130756819D02*
X81154239Y-130852057D01*
X81154239Y-130852057D02*
X81106620Y-130899676D01*
X81535191Y-129756819D02*
X82154238Y-129756819D01*
X82154238Y-129756819D02*
X81820905Y-130137771D01*
X81820905Y-130137771D02*
X81963762Y-130137771D01*
X81963762Y-130137771D02*
X82059000Y-130185390D01*
X82059000Y-130185390D02*
X82106619Y-130233009D01*
X82106619Y-130233009D02*
X82154238Y-130328247D01*
X82154238Y-130328247D02*
X82154238Y-130566342D01*
X82154238Y-130566342D02*
X82106619Y-130661580D01*
X82106619Y-130661580D02*
X82059000Y-130709200D01*
X82059000Y-130709200D02*
X81963762Y-130756819D01*
X81963762Y-130756819D02*
X81678048Y-130756819D01*
X81678048Y-130756819D02*
X81582810Y-130709200D01*
X81582810Y-130709200D02*
X81535191Y-130661580D01*
X82630429Y-130709200D02*
X82630429Y-130756819D01*
X82630429Y-130756819D02*
X82582810Y-130852057D01*
X82582810Y-130852057D02*
X82535191Y-130899676D01*
X83535190Y-129756819D02*
X83059000Y-129756819D01*
X83059000Y-129756819D02*
X83011381Y-130233009D01*
X83011381Y-130233009D02*
X83059000Y-130185390D01*
X83059000Y-130185390D02*
X83154238Y-130137771D01*
X83154238Y-130137771D02*
X83392333Y-130137771D01*
X83392333Y-130137771D02*
X83487571Y-130185390D01*
X83487571Y-130185390D02*
X83535190Y-130233009D01*
X83535190Y-130233009D02*
X83582809Y-130328247D01*
X83582809Y-130328247D02*
X83582809Y-130566342D01*
X83582809Y-130566342D02*
X83535190Y-130661580D01*
X83535190Y-130661580D02*
X83487571Y-130709200D01*
X83487571Y-130709200D02*
X83392333Y-130756819D01*
X83392333Y-130756819D02*
X83154238Y-130756819D01*
X83154238Y-130756819D02*
X83059000Y-130709200D01*
X83059000Y-130709200D02*
X83011381Y-130661580D01*
X84059000Y-130709200D02*
X84059000Y-130756819D01*
X84059000Y-130756819D02*
X84011381Y-130852057D01*
X84011381Y-130852057D02*
X83963762Y-130899676D01*
X84392333Y-129756819D02*
X85058999Y-129756819D01*
X85058999Y-129756819D02*
X84630428Y-130756819D01*
X85487571Y-130709200D02*
X85487571Y-130756819D01*
X85487571Y-130756819D02*
X85439952Y-130852057D01*
X85439952Y-130852057D02*
X85392333Y-130899676D01*
X85963761Y-130756819D02*
X86154237Y-130756819D01*
X86154237Y-130756819D02*
X86249475Y-130709200D01*
X86249475Y-130709200D02*
X86297094Y-130661580D01*
X86297094Y-130661580D02*
X86392332Y-130518723D01*
X86392332Y-130518723D02*
X86439951Y-130328247D01*
X86439951Y-130328247D02*
X86439951Y-129947295D01*
X86439951Y-129947295D02*
X86392332Y-129852057D01*
X86392332Y-129852057D02*
X86344713Y-129804438D01*
X86344713Y-129804438D02*
X86249475Y-129756819D01*
X86249475Y-129756819D02*
X86058999Y-129756819D01*
X86058999Y-129756819D02*
X85963761Y-129804438D01*
X85963761Y-129804438D02*
X85916142Y-129852057D01*
X85916142Y-129852057D02*
X85868523Y-129947295D01*
X85868523Y-129947295D02*
X85868523Y-130185390D01*
X85868523Y-130185390D02*
X85916142Y-130280628D01*
X85916142Y-130280628D02*
X85963761Y-130328247D01*
X85963761Y-130328247D02*
X86058999Y-130375866D01*
X86058999Y-130375866D02*
X86249475Y-130375866D01*
X86249475Y-130375866D02*
X86344713Y-130328247D01*
X86344713Y-130328247D02*
X86392332Y-130280628D01*
X86392332Y-130280628D02*
X86439951Y-130185390D01*
X86916142Y-130709200D02*
X86916142Y-130756819D01*
X86916142Y-130756819D02*
X86868523Y-130852057D01*
X86868523Y-130852057D02*
X86820904Y-130899676D01*
X87868522Y-130756819D02*
X87297094Y-130756819D01*
X87582808Y-130756819D02*
X87582808Y-129756819D01*
X87582808Y-129756819D02*
X87487570Y-129899676D01*
X87487570Y-129899676D02*
X87392332Y-129994914D01*
X87392332Y-129994914D02*
X87297094Y-130042533D01*
X88820903Y-130756819D02*
X88249475Y-130756819D01*
X88535189Y-130756819D02*
X88535189Y-129756819D01*
X88535189Y-129756819D02*
X88439951Y-129899676D01*
X88439951Y-129899676D02*
X88344713Y-129994914D01*
X88344713Y-129994914D02*
X88249475Y-130042533D01*
X89154237Y-131090152D02*
X89392332Y-131090152D01*
X89392332Y-131090152D02*
X89392332Y-129661580D01*
X89392332Y-129661580D02*
X89154237Y-129661580D01*
X104222779Y-99682819D02*
X104222779Y-98682819D01*
X104222779Y-98682819D02*
X104603731Y-98682819D01*
X104603731Y-98682819D02*
X104698969Y-98730438D01*
X104698969Y-98730438D02*
X104746588Y-98778057D01*
X104746588Y-98778057D02*
X104794207Y-98873295D01*
X104794207Y-98873295D02*
X104794207Y-99016152D01*
X104794207Y-99016152D02*
X104746588Y-99111390D01*
X104746588Y-99111390D02*
X104698969Y-99159009D01*
X104698969Y-99159009D02*
X104603731Y-99206628D01*
X104603731Y-99206628D02*
X104222779Y-99206628D01*
X105175160Y-98778057D02*
X105222779Y-98730438D01*
X105222779Y-98730438D02*
X105318017Y-98682819D01*
X105318017Y-98682819D02*
X105556112Y-98682819D01*
X105556112Y-98682819D02*
X105651350Y-98730438D01*
X105651350Y-98730438D02*
X105698969Y-98778057D01*
X105698969Y-98778057D02*
X105746588Y-98873295D01*
X105746588Y-98873295D02*
X105746588Y-98968533D01*
X105746588Y-98968533D02*
X105698969Y-99111390D01*
X105698969Y-99111390D02*
X105127541Y-99682819D01*
X105127541Y-99682819D02*
X105746588Y-99682819D01*
X106365636Y-98682819D02*
X106460874Y-98682819D01*
X106460874Y-98682819D02*
X106556112Y-98730438D01*
X106556112Y-98730438D02*
X106603731Y-98778057D01*
X106603731Y-98778057D02*
X106651350Y-98873295D01*
X106651350Y-98873295D02*
X106698969Y-99063771D01*
X106698969Y-99063771D02*
X106698969Y-99301866D01*
X106698969Y-99301866D02*
X106651350Y-99492342D01*
X106651350Y-99492342D02*
X106603731Y-99587580D01*
X106603731Y-99587580D02*
X106556112Y-99635200D01*
X106556112Y-99635200D02*
X106460874Y-99682819D01*
X106460874Y-99682819D02*
X106365636Y-99682819D01*
X106365636Y-99682819D02*
X106270398Y-99635200D01*
X106270398Y-99635200D02*
X106222779Y-99587580D01*
X106222779Y-99587580D02*
X106175160Y-99492342D01*
X106175160Y-99492342D02*
X106127541Y-99301866D01*
X106127541Y-99301866D02*
X106127541Y-99063771D01*
X106127541Y-99063771D02*
X106175160Y-98873295D01*
X106175160Y-98873295D02*
X106222779Y-98778057D01*
X106222779Y-98778057D02*
X106270398Y-98730438D01*
X106270398Y-98730438D02*
X106365636Y-98682819D01*
X107318017Y-98682819D02*
X107413255Y-98682819D01*
X107413255Y-98682819D02*
X107508493Y-98730438D01*
X107508493Y-98730438D02*
X107556112Y-98778057D01*
X107556112Y-98778057D02*
X107603731Y-98873295D01*
X107603731Y-98873295D02*
X107651350Y-99063771D01*
X107651350Y-99063771D02*
X107651350Y-99301866D01*
X107651350Y-99301866D02*
X107603731Y-99492342D01*
X107603731Y-99492342D02*
X107556112Y-99587580D01*
X107556112Y-99587580D02*
X107508493Y-99635200D01*
X107508493Y-99635200D02*
X107413255Y-99682819D01*
X107413255Y-99682819D02*
X107318017Y-99682819D01*
X107318017Y-99682819D02*
X107222779Y-99635200D01*
X107222779Y-99635200D02*
X107175160Y-99587580D01*
X107175160Y-99587580D02*
X107127541Y-99492342D01*
X107127541Y-99492342D02*
X107079922Y-99301866D01*
X107079922Y-99301866D02*
X107079922Y-99063771D01*
X107079922Y-99063771D02*
X107127541Y-98873295D01*
X107127541Y-98873295D02*
X107175160Y-98778057D01*
X107175160Y-98778057D02*
X107222779Y-98730438D01*
X107222779Y-98730438D02*
X107318017Y-98682819D01*
X108270398Y-98682819D02*
X108365636Y-98682819D01*
X108365636Y-98682819D02*
X108460874Y-98730438D01*
X108460874Y-98730438D02*
X108508493Y-98778057D01*
X108508493Y-98778057D02*
X108556112Y-98873295D01*
X108556112Y-98873295D02*
X108603731Y-99063771D01*
X108603731Y-99063771D02*
X108603731Y-99301866D01*
X108603731Y-99301866D02*
X108556112Y-99492342D01*
X108556112Y-99492342D02*
X108508493Y-99587580D01*
X108508493Y-99587580D02*
X108460874Y-99635200D01*
X108460874Y-99635200D02*
X108365636Y-99682819D01*
X108365636Y-99682819D02*
X108270398Y-99682819D01*
X108270398Y-99682819D02*
X108175160Y-99635200D01*
X108175160Y-99635200D02*
X108127541Y-99587580D01*
X108127541Y-99587580D02*
X108079922Y-99492342D01*
X108079922Y-99492342D02*
X108032303Y-99301866D01*
X108032303Y-99301866D02*
X108032303Y-99063771D01*
X108032303Y-99063771D02*
X108079922Y-98873295D01*
X108079922Y-98873295D02*
X108127541Y-98778057D01*
X108127541Y-98778057D02*
X108175160Y-98730438D01*
X108175160Y-98730438D02*
X108270398Y-98682819D01*
X108889446Y-98682819D02*
X109460874Y-98682819D01*
X109175160Y-99682819D02*
X109175160Y-98682819D01*
X104222779Y-101292819D02*
X104222779Y-100292819D01*
X104222779Y-100292819D02*
X104556112Y-101007104D01*
X104556112Y-101007104D02*
X104889445Y-100292819D01*
X104889445Y-100292819D02*
X104889445Y-101292819D01*
X105365636Y-100292819D02*
X105365636Y-101102342D01*
X105365636Y-101102342D02*
X105413255Y-101197580D01*
X105413255Y-101197580D02*
X105460874Y-101245200D01*
X105460874Y-101245200D02*
X105556112Y-101292819D01*
X105556112Y-101292819D02*
X105746588Y-101292819D01*
X105746588Y-101292819D02*
X105841826Y-101245200D01*
X105841826Y-101245200D02*
X105889445Y-101197580D01*
X105889445Y-101197580D02*
X105937064Y-101102342D01*
X105937064Y-101102342D02*
X105937064Y-100292819D01*
X106889445Y-101292819D02*
X106413255Y-101292819D01*
X106413255Y-101292819D02*
X106413255Y-100292819D01*
X107079922Y-100292819D02*
X107651350Y-100292819D01*
X107365636Y-101292819D02*
X107365636Y-100292819D01*
X107984684Y-101292819D02*
X107984684Y-100292819D01*
X109032302Y-101197580D02*
X108984683Y-101245200D01*
X108984683Y-101245200D02*
X108841826Y-101292819D01*
X108841826Y-101292819D02*
X108746588Y-101292819D01*
X108746588Y-101292819D02*
X108603731Y-101245200D01*
X108603731Y-101245200D02*
X108508493Y-101149961D01*
X108508493Y-101149961D02*
X108460874Y-101054723D01*
X108460874Y-101054723D02*
X108413255Y-100864247D01*
X108413255Y-100864247D02*
X108413255Y-100721390D01*
X108413255Y-100721390D02*
X108460874Y-100530914D01*
X108460874Y-100530914D02*
X108508493Y-100435676D01*
X108508493Y-100435676D02*
X108603731Y-100340438D01*
X108603731Y-100340438D02*
X108746588Y-100292819D01*
X108746588Y-100292819D02*
X108841826Y-100292819D01*
X108841826Y-100292819D02*
X108984683Y-100340438D01*
X108984683Y-100340438D02*
X109032302Y-100388057D01*
X109413255Y-101007104D02*
X109889445Y-101007104D01*
X109318017Y-101292819D02*
X109651350Y-100292819D01*
X109651350Y-100292819D02*
X109984683Y-101292819D01*
X110889445Y-101292819D02*
X110556112Y-100816628D01*
X110318017Y-101292819D02*
X110318017Y-100292819D01*
X110318017Y-100292819D02*
X110698969Y-100292819D01*
X110698969Y-100292819D02*
X110794207Y-100340438D01*
X110794207Y-100340438D02*
X110841826Y-100388057D01*
X110841826Y-100388057D02*
X110889445Y-100483295D01*
X110889445Y-100483295D02*
X110889445Y-100626152D01*
X110889445Y-100626152D02*
X110841826Y-100721390D01*
X110841826Y-100721390D02*
X110794207Y-100769009D01*
X110794207Y-100769009D02*
X110698969Y-100816628D01*
X110698969Y-100816628D02*
X110318017Y-100816628D01*
X111175160Y-100292819D02*
X111746588Y-100292819D01*
X111460874Y-101292819D02*
X111460874Y-100292819D01*
X112651350Y-101292819D02*
X112318017Y-100816628D01*
X112079922Y-101292819D02*
X112079922Y-100292819D01*
X112079922Y-100292819D02*
X112460874Y-100292819D01*
X112460874Y-100292819D02*
X112556112Y-100340438D01*
X112556112Y-100340438D02*
X112603731Y-100388057D01*
X112603731Y-100388057D02*
X112651350Y-100483295D01*
X112651350Y-100483295D02*
X112651350Y-100626152D01*
X112651350Y-100626152D02*
X112603731Y-100721390D01*
X112603731Y-100721390D02*
X112556112Y-100769009D01*
X112556112Y-100769009D02*
X112460874Y-100816628D01*
X112460874Y-100816628D02*
X112079922Y-100816628D01*
X113079922Y-101292819D02*
X113079922Y-100292819D01*
X113556112Y-101292819D02*
X113556112Y-100292819D01*
X113556112Y-100292819D02*
X113794207Y-100292819D01*
X113794207Y-100292819D02*
X113937064Y-100340438D01*
X113937064Y-100340438D02*
X114032302Y-100435676D01*
X114032302Y-100435676D02*
X114079921Y-100530914D01*
X114079921Y-100530914D02*
X114127540Y-100721390D01*
X114127540Y-100721390D02*
X114127540Y-100864247D01*
X114127540Y-100864247D02*
X114079921Y-101054723D01*
X114079921Y-101054723D02*
X114032302Y-101149961D01*
X114032302Y-101149961D02*
X113937064Y-101245200D01*
X113937064Y-101245200D02*
X113794207Y-101292819D01*
X113794207Y-101292819D02*
X113556112Y-101292819D01*
X115079921Y-100340438D02*
X114984683Y-100292819D01*
X114984683Y-100292819D02*
X114841826Y-100292819D01*
X114841826Y-100292819D02*
X114698969Y-100340438D01*
X114698969Y-100340438D02*
X114603731Y-100435676D01*
X114603731Y-100435676D02*
X114556112Y-100530914D01*
X114556112Y-100530914D02*
X114508493Y-100721390D01*
X114508493Y-100721390D02*
X114508493Y-100864247D01*
X114508493Y-100864247D02*
X114556112Y-101054723D01*
X114556112Y-101054723D02*
X114603731Y-101149961D01*
X114603731Y-101149961D02*
X114698969Y-101245200D01*
X114698969Y-101245200D02*
X114841826Y-101292819D01*
X114841826Y-101292819D02*
X114937064Y-101292819D01*
X114937064Y-101292819D02*
X115079921Y-101245200D01*
X115079921Y-101245200D02*
X115127540Y-101197580D01*
X115127540Y-101197580D02*
X115127540Y-100864247D01*
X115127540Y-100864247D02*
X114937064Y-100864247D01*
X115556112Y-100769009D02*
X115889445Y-100769009D01*
X116032302Y-101292819D02*
X115556112Y-101292819D01*
X115556112Y-101292819D02*
X115556112Y-100292819D01*
X115556112Y-100292819D02*
X116032302Y-100292819D01*
X104127541Y-101902819D02*
X104794207Y-101902819D01*
X104794207Y-101902819D02*
X104127541Y-102902819D01*
X104127541Y-102902819D02*
X104794207Y-102902819D01*
X105175160Y-102902819D02*
X105175160Y-101902819D01*
X105984683Y-102379009D02*
X105651350Y-102379009D01*
X105651350Y-102902819D02*
X105651350Y-101902819D01*
X105651350Y-101902819D02*
X106127540Y-101902819D01*
X107270398Y-102902819D02*
X107270398Y-102236152D01*
X107270398Y-102426628D02*
X107318017Y-102331390D01*
X107318017Y-102331390D02*
X107365636Y-102283771D01*
X107365636Y-102283771D02*
X107460874Y-102236152D01*
X107460874Y-102236152D02*
X107556112Y-102236152D01*
X108270398Y-102855200D02*
X108175160Y-102902819D01*
X108175160Y-102902819D02*
X107984684Y-102902819D01*
X107984684Y-102902819D02*
X107889446Y-102855200D01*
X107889446Y-102855200D02*
X107841827Y-102759961D01*
X107841827Y-102759961D02*
X107841827Y-102379009D01*
X107841827Y-102379009D02*
X107889446Y-102283771D01*
X107889446Y-102283771D02*
X107984684Y-102236152D01*
X107984684Y-102236152D02*
X108175160Y-102236152D01*
X108175160Y-102236152D02*
X108270398Y-102283771D01*
X108270398Y-102283771D02*
X108318017Y-102379009D01*
X108318017Y-102379009D02*
X108318017Y-102474247D01*
X108318017Y-102474247D02*
X107841827Y-102569485D01*
X108651351Y-102236152D02*
X108889446Y-102902819D01*
X108889446Y-102902819D02*
X109127541Y-102236152D01*
X109460875Y-101998057D02*
X109508494Y-101950438D01*
X109508494Y-101950438D02*
X109603732Y-101902819D01*
X109603732Y-101902819D02*
X109841827Y-101902819D01*
X109841827Y-101902819D02*
X109937065Y-101950438D01*
X109937065Y-101950438D02*
X109984684Y-101998057D01*
X109984684Y-101998057D02*
X110032303Y-102093295D01*
X110032303Y-102093295D02*
X110032303Y-102188533D01*
X110032303Y-102188533D02*
X109984684Y-102331390D01*
X109984684Y-102331390D02*
X109413256Y-102902819D01*
X109413256Y-102902819D02*
X110032303Y-102902819D01*
X54938819Y-130365476D02*
X54938819Y-130841666D01*
X54938819Y-130841666D02*
X55415009Y-130889285D01*
X55415009Y-130889285D02*
X55367390Y-130841666D01*
X55367390Y-130841666D02*
X55319771Y-130746428D01*
X55319771Y-130746428D02*
X55319771Y-130508333D01*
X55319771Y-130508333D02*
X55367390Y-130413095D01*
X55367390Y-130413095D02*
X55415009Y-130365476D01*
X55415009Y-130365476D02*
X55510247Y-130317857D01*
X55510247Y-130317857D02*
X55748342Y-130317857D01*
X55748342Y-130317857D02*
X55843580Y-130365476D01*
X55843580Y-130365476D02*
X55891200Y-130413095D01*
X55891200Y-130413095D02*
X55938819Y-130508333D01*
X55938819Y-130508333D02*
X55938819Y-130746428D01*
X55938819Y-130746428D02*
X55891200Y-130841666D01*
X55891200Y-130841666D02*
X55843580Y-130889285D01*
X54938819Y-130032142D02*
X55938819Y-129698809D01*
X55938819Y-129698809D02*
X54938819Y-129365476D01*
X78819951Y-57747819D02*
X78819951Y-58462104D01*
X78819951Y-58462104D02*
X78772332Y-58604961D01*
X78772332Y-58604961D02*
X78677094Y-58700200D01*
X78677094Y-58700200D02*
X78534237Y-58747819D01*
X78534237Y-58747819D02*
X78438999Y-58747819D01*
X79772332Y-58747819D02*
X79296142Y-58747819D01*
X79296142Y-58747819D02*
X79296142Y-57747819D01*
X80677094Y-58652580D02*
X80629475Y-58700200D01*
X80629475Y-58700200D02*
X80486618Y-58747819D01*
X80486618Y-58747819D02*
X80391380Y-58747819D01*
X80391380Y-58747819D02*
X80248523Y-58700200D01*
X80248523Y-58700200D02*
X80153285Y-58604961D01*
X80153285Y-58604961D02*
X80105666Y-58509723D01*
X80105666Y-58509723D02*
X80058047Y-58319247D01*
X80058047Y-58319247D02*
X80058047Y-58176390D01*
X80058047Y-58176390D02*
X80105666Y-57985914D01*
X80105666Y-57985914D02*
X80153285Y-57890676D01*
X80153285Y-57890676D02*
X80248523Y-57795438D01*
X80248523Y-57795438D02*
X80391380Y-57747819D01*
X80391380Y-57747819D02*
X80486618Y-57747819D01*
X80486618Y-57747819D02*
X80629475Y-57795438D01*
X80629475Y-57795438D02*
X80677094Y-57843057D01*
X81391380Y-57747819D02*
X81391380Y-58462104D01*
X81391380Y-58462104D02*
X81343761Y-58604961D01*
X81343761Y-58604961D02*
X81248523Y-58700200D01*
X81248523Y-58700200D02*
X81105666Y-58747819D01*
X81105666Y-58747819D02*
X81010428Y-58747819D01*
X82343761Y-58747819D02*
X81867571Y-58747819D01*
X81867571Y-58747819D02*
X81867571Y-57747819D01*
X83248523Y-58652580D02*
X83200904Y-58700200D01*
X83200904Y-58700200D02*
X83058047Y-58747819D01*
X83058047Y-58747819D02*
X82962809Y-58747819D01*
X82962809Y-58747819D02*
X82819952Y-58700200D01*
X82819952Y-58700200D02*
X82724714Y-58604961D01*
X82724714Y-58604961D02*
X82677095Y-58509723D01*
X82677095Y-58509723D02*
X82629476Y-58319247D01*
X82629476Y-58319247D02*
X82629476Y-58176390D01*
X82629476Y-58176390D02*
X82677095Y-57985914D01*
X82677095Y-57985914D02*
X82724714Y-57890676D01*
X82724714Y-57890676D02*
X82819952Y-57795438D01*
X82819952Y-57795438D02*
X82962809Y-57747819D01*
X82962809Y-57747819D02*
X83058047Y-57747819D01*
X83058047Y-57747819D02*
X83200904Y-57795438D01*
X83200904Y-57795438D02*
X83248523Y-57843057D01*
X83962809Y-57747819D02*
X83962809Y-58462104D01*
X83962809Y-58462104D02*
X83915190Y-58604961D01*
X83915190Y-58604961D02*
X83819952Y-58700200D01*
X83819952Y-58700200D02*
X83677095Y-58747819D01*
X83677095Y-58747819D02*
X83581857Y-58747819D01*
X84915190Y-58747819D02*
X84439000Y-58747819D01*
X84439000Y-58747819D02*
X84439000Y-57747819D01*
X85819952Y-58652580D02*
X85772333Y-58700200D01*
X85772333Y-58700200D02*
X85629476Y-58747819D01*
X85629476Y-58747819D02*
X85534238Y-58747819D01*
X85534238Y-58747819D02*
X85391381Y-58700200D01*
X85391381Y-58700200D02*
X85296143Y-58604961D01*
X85296143Y-58604961D02*
X85248524Y-58509723D01*
X85248524Y-58509723D02*
X85200905Y-58319247D01*
X85200905Y-58319247D02*
X85200905Y-58176390D01*
X85200905Y-58176390D02*
X85248524Y-57985914D01*
X85248524Y-57985914D02*
X85296143Y-57890676D01*
X85296143Y-57890676D02*
X85391381Y-57795438D01*
X85391381Y-57795438D02*
X85534238Y-57747819D01*
X85534238Y-57747819D02*
X85629476Y-57747819D01*
X85629476Y-57747819D02*
X85772333Y-57795438D01*
X85772333Y-57795438D02*
X85819952Y-57843057D01*
X86534238Y-57747819D02*
X86534238Y-58462104D01*
X86534238Y-58462104D02*
X86486619Y-58604961D01*
X86486619Y-58604961D02*
X86391381Y-58700200D01*
X86391381Y-58700200D02*
X86248524Y-58747819D01*
X86248524Y-58747819D02*
X86153286Y-58747819D01*
X87486619Y-58747819D02*
X87010429Y-58747819D01*
X87010429Y-58747819D02*
X87010429Y-57747819D01*
X88391381Y-58652580D02*
X88343762Y-58700200D01*
X88343762Y-58700200D02*
X88200905Y-58747819D01*
X88200905Y-58747819D02*
X88105667Y-58747819D01*
X88105667Y-58747819D02*
X87962810Y-58700200D01*
X87962810Y-58700200D02*
X87867572Y-58604961D01*
X87867572Y-58604961D02*
X87819953Y-58509723D01*
X87819953Y-58509723D02*
X87772334Y-58319247D01*
X87772334Y-58319247D02*
X87772334Y-58176390D01*
X87772334Y-58176390D02*
X87819953Y-57985914D01*
X87819953Y-57985914D02*
X87867572Y-57890676D01*
X87867572Y-57890676D02*
X87962810Y-57795438D01*
X87962810Y-57795438D02*
X88105667Y-57747819D01*
X88105667Y-57747819D02*
X88200905Y-57747819D01*
X88200905Y-57747819D02*
X88343762Y-57795438D01*
X88343762Y-57795438D02*
X88391381Y-57843057D01*
X61715381Y-130756819D02*
X61715381Y-129756819D01*
X61715381Y-129756819D02*
X61953476Y-129756819D01*
X61953476Y-129756819D02*
X62096333Y-129804438D01*
X62096333Y-129804438D02*
X62191571Y-129899676D01*
X62191571Y-129899676D02*
X62239190Y-129994914D01*
X62239190Y-129994914D02*
X62286809Y-130185390D01*
X62286809Y-130185390D02*
X62286809Y-130328247D01*
X62286809Y-130328247D02*
X62239190Y-130518723D01*
X62239190Y-130518723D02*
X62191571Y-130613961D01*
X62191571Y-130613961D02*
X62096333Y-130709200D01*
X62096333Y-130709200D02*
X61953476Y-130756819D01*
X61953476Y-130756819D02*
X61715381Y-130756819D01*
X63001095Y-131090152D02*
X62763000Y-131090152D01*
X62763000Y-131090152D02*
X62763000Y-129661580D01*
X62763000Y-129661580D02*
X63001095Y-129661580D01*
X63905857Y-130756819D02*
X63334429Y-130756819D01*
X63620143Y-130756819D02*
X63620143Y-129756819D01*
X63620143Y-129756819D02*
X63524905Y-129899676D01*
X63524905Y-129899676D02*
X63429667Y-129994914D01*
X63429667Y-129994914D02*
X63334429Y-130042533D01*
X64382048Y-130709200D02*
X64382048Y-130756819D01*
X64382048Y-130756819D02*
X64334429Y-130852057D01*
X64334429Y-130852057D02*
X64286810Y-130899676D01*
X64715381Y-129756819D02*
X65334428Y-129756819D01*
X65334428Y-129756819D02*
X65001095Y-130137771D01*
X65001095Y-130137771D02*
X65143952Y-130137771D01*
X65143952Y-130137771D02*
X65239190Y-130185390D01*
X65239190Y-130185390D02*
X65286809Y-130233009D01*
X65286809Y-130233009D02*
X65334428Y-130328247D01*
X65334428Y-130328247D02*
X65334428Y-130566342D01*
X65334428Y-130566342D02*
X65286809Y-130661580D01*
X65286809Y-130661580D02*
X65239190Y-130709200D01*
X65239190Y-130709200D02*
X65143952Y-130756819D01*
X65143952Y-130756819D02*
X64858238Y-130756819D01*
X64858238Y-130756819D02*
X64763000Y-130709200D01*
X64763000Y-130709200D02*
X64715381Y-130661580D01*
X65810619Y-130709200D02*
X65810619Y-130756819D01*
X65810619Y-130756819D02*
X65763000Y-130852057D01*
X65763000Y-130852057D02*
X65715381Y-130899676D01*
X66715380Y-129756819D02*
X66239190Y-129756819D01*
X66239190Y-129756819D02*
X66191571Y-130233009D01*
X66191571Y-130233009D02*
X66239190Y-130185390D01*
X66239190Y-130185390D02*
X66334428Y-130137771D01*
X66334428Y-130137771D02*
X66572523Y-130137771D01*
X66572523Y-130137771D02*
X66667761Y-130185390D01*
X66667761Y-130185390D02*
X66715380Y-130233009D01*
X66715380Y-130233009D02*
X66762999Y-130328247D01*
X66762999Y-130328247D02*
X66762999Y-130566342D01*
X66762999Y-130566342D02*
X66715380Y-130661580D01*
X66715380Y-130661580D02*
X66667761Y-130709200D01*
X66667761Y-130709200D02*
X66572523Y-130756819D01*
X66572523Y-130756819D02*
X66334428Y-130756819D01*
X66334428Y-130756819D02*
X66239190Y-130709200D01*
X66239190Y-130709200D02*
X66191571Y-130661580D01*
X67239190Y-130709200D02*
X67239190Y-130756819D01*
X67239190Y-130756819D02*
X67191571Y-130852057D01*
X67191571Y-130852057D02*
X67143952Y-130899676D01*
X67572523Y-129756819D02*
X68239189Y-129756819D01*
X68239189Y-129756819D02*
X67810618Y-130756819D01*
X68524904Y-131090152D02*
X68762999Y-131090152D01*
X68762999Y-131090152D02*
X68762999Y-129661580D01*
X68762999Y-129661580D02*
X68524904Y-129661580D01*
D12*
X99707471Y-130250285D02*
X99778900Y-130321713D01*
X99778900Y-130321713D02*
X99850328Y-130535999D01*
X99850328Y-130535999D02*
X99850328Y-130678856D01*
X99850328Y-130678856D02*
X99778900Y-130893142D01*
X99778900Y-130893142D02*
X99636042Y-131035999D01*
X99636042Y-131035999D02*
X99493185Y-131107428D01*
X99493185Y-131107428D02*
X99207471Y-131178856D01*
X99207471Y-131178856D02*
X98993185Y-131178856D01*
X98993185Y-131178856D02*
X98707471Y-131107428D01*
X98707471Y-131107428D02*
X98564614Y-131035999D01*
X98564614Y-131035999D02*
X98421757Y-130893142D01*
X98421757Y-130893142D02*
X98350328Y-130678856D01*
X98350328Y-130678856D02*
X98350328Y-130535999D01*
X98350328Y-130535999D02*
X98421757Y-130321713D01*
X98421757Y-130321713D02*
X98493185Y-130250285D01*
X99778900Y-129678856D02*
X99850328Y-129464571D01*
X99850328Y-129464571D02*
X99850328Y-129107428D01*
X99850328Y-129107428D02*
X99778900Y-128964571D01*
X99778900Y-128964571D02*
X99707471Y-128893142D01*
X99707471Y-128893142D02*
X99564614Y-128821713D01*
X99564614Y-128821713D02*
X99421757Y-128821713D01*
X99421757Y-128821713D02*
X99278900Y-128893142D01*
X99278900Y-128893142D02*
X99207471Y-128964571D01*
X99207471Y-128964571D02*
X99136042Y-129107428D01*
X99136042Y-129107428D02*
X99064614Y-129393142D01*
X99064614Y-129393142D02*
X98993185Y-129535999D01*
X98993185Y-129535999D02*
X98921757Y-129607428D01*
X98921757Y-129607428D02*
X98778900Y-129678856D01*
X98778900Y-129678856D02*
X98636042Y-129678856D01*
X98636042Y-129678856D02*
X98493185Y-129607428D01*
X98493185Y-129607428D02*
X98421757Y-129535999D01*
X98421757Y-129535999D02*
X98350328Y-129393142D01*
X98350328Y-129393142D02*
X98350328Y-129035999D01*
X98350328Y-129035999D02*
X98421757Y-128821713D01*
X98493185Y-128250285D02*
X98421757Y-128178857D01*
X98421757Y-128178857D02*
X98350328Y-128036000D01*
X98350328Y-128036000D02*
X98350328Y-127678857D01*
X98350328Y-127678857D02*
X98421757Y-127536000D01*
X98421757Y-127536000D02*
X98493185Y-127464571D01*
X98493185Y-127464571D02*
X98636042Y-127393142D01*
X98636042Y-127393142D02*
X98778900Y-127393142D01*
X98778900Y-127393142D02*
X98993185Y-127464571D01*
X98993185Y-127464571D02*
X99850328Y-128321714D01*
X99850328Y-128321714D02*
X99850328Y-127393142D01*
X97933900Y-131314571D02*
X97933900Y-127257429D01*
D13*
X103991856Y-97069942D02*
X103991856Y-95869942D01*
X103991856Y-95869942D02*
X104448999Y-95869942D01*
X104448999Y-95869942D02*
X104563284Y-95927085D01*
X104563284Y-95927085D02*
X104620427Y-95984228D01*
X104620427Y-95984228D02*
X104677570Y-96098514D01*
X104677570Y-96098514D02*
X104677570Y-96269942D01*
X104677570Y-96269942D02*
X104620427Y-96384228D01*
X104620427Y-96384228D02*
X104563284Y-96441371D01*
X104563284Y-96441371D02*
X104448999Y-96498514D01*
X104448999Y-96498514D02*
X103991856Y-96498514D01*
X105191856Y-97069942D02*
X105191856Y-95869942D01*
X105191856Y-96441371D02*
X105877570Y-96441371D01*
X105877570Y-97069942D02*
X105877570Y-95869942D01*
X106448999Y-97069942D02*
X106448999Y-95869942D01*
X107591856Y-97069942D02*
X107020428Y-97069942D01*
X107020428Y-97069942D02*
X107020428Y-95869942D01*
X107991857Y-97069942D02*
X107991857Y-95869942D01*
X108563286Y-97069942D02*
X108563286Y-95869942D01*
X108563286Y-95869942D02*
X109020429Y-95869942D01*
X109020429Y-95869942D02*
X109134714Y-95927085D01*
X109134714Y-95927085D02*
X109191857Y-95984228D01*
X109191857Y-95984228D02*
X109249000Y-96098514D01*
X109249000Y-96098514D02*
X109249000Y-96269942D01*
X109249000Y-96269942D02*
X109191857Y-96384228D01*
X109191857Y-96384228D02*
X109134714Y-96441371D01*
X109134714Y-96441371D02*
X109020429Y-96498514D01*
X109020429Y-96498514D02*
X108563286Y-96498514D01*
X109706143Y-97012800D02*
X109877572Y-97069942D01*
X109877572Y-97069942D02*
X110163286Y-97069942D01*
X110163286Y-97069942D02*
X110277572Y-97012800D01*
X110277572Y-97012800D02*
X110334714Y-96955657D01*
X110334714Y-96955657D02*
X110391857Y-96841371D01*
X110391857Y-96841371D02*
X110391857Y-96727085D01*
X110391857Y-96727085D02*
X110334714Y-96612800D01*
X110334714Y-96612800D02*
X110277572Y-96555657D01*
X110277572Y-96555657D02*
X110163286Y-96498514D01*
X110163286Y-96498514D02*
X109934714Y-96441371D01*
X109934714Y-96441371D02*
X109820429Y-96384228D01*
X109820429Y-96384228D02*
X109763286Y-96327085D01*
X109763286Y-96327085D02*
X109706143Y-96212800D01*
X109706143Y-96212800D02*
X109706143Y-96098514D01*
X109706143Y-96098514D02*
X109763286Y-95984228D01*
X109763286Y-95984228D02*
X109820429Y-95927085D01*
X109820429Y-95927085D02*
X109934714Y-95869942D01*
X109934714Y-95869942D02*
X110220429Y-95869942D01*
X110220429Y-95869942D02*
X110391857Y-95927085D01*
X110906143Y-96612800D02*
X111820429Y-96612800D01*
X112391857Y-97069942D02*
X112391857Y-95869942D01*
X112391857Y-95869942D02*
X112849000Y-95869942D01*
X112849000Y-95869942D02*
X112963285Y-95927085D01*
X112963285Y-95927085D02*
X113020428Y-95984228D01*
X113020428Y-95984228D02*
X113077571Y-96098514D01*
X113077571Y-96098514D02*
X113077571Y-96269942D01*
X113077571Y-96269942D02*
X113020428Y-96384228D01*
X113020428Y-96384228D02*
X112963285Y-96441371D01*
X112963285Y-96441371D02*
X112849000Y-96498514D01*
X112849000Y-96498514D02*
X112391857Y-96498514D01*
X113534714Y-95984228D02*
X113591857Y-95927085D01*
X113591857Y-95927085D02*
X113706143Y-95869942D01*
X113706143Y-95869942D02*
X113991857Y-95869942D01*
X113991857Y-95869942D02*
X114106143Y-95927085D01*
X114106143Y-95927085D02*
X114163285Y-95984228D01*
X114163285Y-95984228D02*
X114220428Y-96098514D01*
X114220428Y-96098514D02*
X114220428Y-96212800D01*
X114220428Y-96212800D02*
X114163285Y-96384228D01*
X114163285Y-96384228D02*
X113477571Y-97069942D01*
X113477571Y-97069942D02*
X114220428Y-97069942D01*
X114963285Y-95869942D02*
X115077571Y-95869942D01*
X115077571Y-95869942D02*
X115191857Y-95927085D01*
X115191857Y-95927085D02*
X115249000Y-95984228D01*
X115249000Y-95984228D02*
X115306142Y-96098514D01*
X115306142Y-96098514D02*
X115363285Y-96327085D01*
X115363285Y-96327085D02*
X115363285Y-96612800D01*
X115363285Y-96612800D02*
X115306142Y-96841371D01*
X115306142Y-96841371D02*
X115249000Y-96955657D01*
X115249000Y-96955657D02*
X115191857Y-97012800D01*
X115191857Y-97012800D02*
X115077571Y-97069942D01*
X115077571Y-97069942D02*
X114963285Y-97069942D01*
X114963285Y-97069942D02*
X114849000Y-97012800D01*
X114849000Y-97012800D02*
X114791857Y-96955657D01*
X114791857Y-96955657D02*
X114734714Y-96841371D01*
X114734714Y-96841371D02*
X114677571Y-96612800D01*
X114677571Y-96612800D02*
X114677571Y-96327085D01*
X114677571Y-96327085D02*
X114734714Y-96098514D01*
X114734714Y-96098514D02*
X114791857Y-95984228D01*
X114791857Y-95984228D02*
X114849000Y-95927085D01*
X114849000Y-95927085D02*
X114963285Y-95869942D01*
X116106142Y-95869942D02*
X116220428Y-95869942D01*
X116220428Y-95869942D02*
X116334714Y-95927085D01*
X116334714Y-95927085D02*
X116391857Y-95984228D01*
X116391857Y-95984228D02*
X116448999Y-96098514D01*
X116448999Y-96098514D02*
X116506142Y-96327085D01*
X116506142Y-96327085D02*
X116506142Y-96612800D01*
X116506142Y-96612800D02*
X116448999Y-96841371D01*
X116448999Y-96841371D02*
X116391857Y-96955657D01*
X116391857Y-96955657D02*
X116334714Y-97012800D01*
X116334714Y-97012800D02*
X116220428Y-97069942D01*
X116220428Y-97069942D02*
X116106142Y-97069942D01*
X116106142Y-97069942D02*
X115991857Y-97012800D01*
X115991857Y-97012800D02*
X115934714Y-96955657D01*
X115934714Y-96955657D02*
X115877571Y-96841371D01*
X115877571Y-96841371D02*
X115820428Y-96612800D01*
X115820428Y-96612800D02*
X115820428Y-96327085D01*
X115820428Y-96327085D02*
X115877571Y-96098514D01*
X115877571Y-96098514D02*
X115934714Y-95984228D01*
X115934714Y-95984228D02*
X115991857Y-95927085D01*
X115991857Y-95927085D02*
X116106142Y-95869942D01*
X117248999Y-95869942D02*
X117363285Y-95869942D01*
X117363285Y-95869942D02*
X117477571Y-95927085D01*
X117477571Y-95927085D02*
X117534714Y-95984228D01*
X117534714Y-95984228D02*
X117591856Y-96098514D01*
X117591856Y-96098514D02*
X117648999Y-96327085D01*
X117648999Y-96327085D02*
X117648999Y-96612800D01*
X117648999Y-96612800D02*
X117591856Y-96841371D01*
X117591856Y-96841371D02*
X117534714Y-96955657D01*
X117534714Y-96955657D02*
X117477571Y-97012800D01*
X117477571Y-97012800D02*
X117363285Y-97069942D01*
X117363285Y-97069942D02*
X117248999Y-97069942D01*
X117248999Y-97069942D02*
X117134714Y-97012800D01*
X117134714Y-97012800D02*
X117077571Y-96955657D01*
X117077571Y-96955657D02*
X117020428Y-96841371D01*
X117020428Y-96841371D02*
X116963285Y-96612800D01*
X116963285Y-96612800D02*
X116963285Y-96327085D01*
X116963285Y-96327085D02*
X117020428Y-96098514D01*
X117020428Y-96098514D02*
X117077571Y-95984228D01*
X117077571Y-95984228D02*
X117134714Y-95927085D01*
X117134714Y-95927085D02*
X117248999Y-95869942D01*
X117991856Y-95869942D02*
X118677571Y-95869942D01*
X118334713Y-97069942D02*
X118334713Y-95869942D01*
X119077571Y-96955657D02*
X119134714Y-97012800D01*
X119134714Y-97012800D02*
X119077571Y-97069942D01*
X119077571Y-97069942D02*
X119020428Y-97012800D01*
X119020428Y-97012800D02*
X119077571Y-96955657D01*
X119077571Y-96955657D02*
X119077571Y-97069942D01*
X119649000Y-97069942D02*
X119649000Y-95869942D01*
X119649000Y-95869942D02*
X120334714Y-97069942D01*
X120334714Y-97069942D02*
X120334714Y-95869942D01*
X121477571Y-97069942D02*
X120906143Y-97069942D01*
X120906143Y-97069942D02*
X120906143Y-95869942D01*
D11*
X47063667Y-48402200D02*
X47206524Y-48449819D01*
X47206524Y-48449819D02*
X47444619Y-48449819D01*
X47444619Y-48449819D02*
X47539857Y-48402200D01*
X47539857Y-48402200D02*
X47587476Y-48354580D01*
X47587476Y-48354580D02*
X47635095Y-48259342D01*
X47635095Y-48259342D02*
X47635095Y-48164104D01*
X47635095Y-48164104D02*
X47587476Y-48068866D01*
X47587476Y-48068866D02*
X47539857Y-48021247D01*
X47539857Y-48021247D02*
X47444619Y-47973628D01*
X47444619Y-47973628D02*
X47254143Y-47926009D01*
X47254143Y-47926009D02*
X47158905Y-47878390D01*
X47158905Y-47878390D02*
X47111286Y-47830771D01*
X47111286Y-47830771D02*
X47063667Y-47735533D01*
X47063667Y-47735533D02*
X47063667Y-47640295D01*
X47063667Y-47640295D02*
X47111286Y-47545057D01*
X47111286Y-47545057D02*
X47158905Y-47497438D01*
X47158905Y-47497438D02*
X47254143Y-47449819D01*
X47254143Y-47449819D02*
X47492238Y-47449819D01*
X47492238Y-47449819D02*
X47635095Y-47497438D01*
X47968429Y-47449819D02*
X48206524Y-48449819D01*
X48206524Y-48449819D02*
X48397000Y-47735533D01*
X48397000Y-47735533D02*
X48587476Y-48449819D01*
X48587476Y-48449819D02*
X48825572Y-47449819D01*
X49730333Y-48449819D02*
X49158905Y-48449819D01*
X49444619Y-48449819D02*
X49444619Y-47449819D01*
X49444619Y-47449819D02*
X49349381Y-47592676D01*
X49349381Y-47592676D02*
X49254143Y-47687914D01*
X49254143Y-47687914D02*
X49158905Y-47735533D01*
X44458904Y-58102200D02*
X44601761Y-58149819D01*
X44601761Y-58149819D02*
X44839856Y-58149819D01*
X44839856Y-58149819D02*
X44935094Y-58102200D01*
X44935094Y-58102200D02*
X44982713Y-58054580D01*
X44982713Y-58054580D02*
X45030332Y-57959342D01*
X45030332Y-57959342D02*
X45030332Y-57864104D01*
X45030332Y-57864104D02*
X44982713Y-57768866D01*
X44982713Y-57768866D02*
X44935094Y-57721247D01*
X44935094Y-57721247D02*
X44839856Y-57673628D01*
X44839856Y-57673628D02*
X44649380Y-57626009D01*
X44649380Y-57626009D02*
X44554142Y-57578390D01*
X44554142Y-57578390D02*
X44506523Y-57530771D01*
X44506523Y-57530771D02*
X44458904Y-57435533D01*
X44458904Y-57435533D02*
X44458904Y-57340295D01*
X44458904Y-57340295D02*
X44506523Y-57245057D01*
X44506523Y-57245057D02*
X44554142Y-57197438D01*
X44554142Y-57197438D02*
X44649380Y-57149819D01*
X44649380Y-57149819D02*
X44887475Y-57149819D01*
X44887475Y-57149819D02*
X45030332Y-57197438D01*
X45601761Y-58149819D02*
X45506523Y-58102200D01*
X45506523Y-58102200D02*
X45458904Y-58054580D01*
X45458904Y-58054580D02*
X45411285Y-57959342D01*
X45411285Y-57959342D02*
X45411285Y-57673628D01*
X45411285Y-57673628D02*
X45458904Y-57578390D01*
X45458904Y-57578390D02*
X45506523Y-57530771D01*
X45506523Y-57530771D02*
X45601761Y-57483152D01*
X45601761Y-57483152D02*
X45744618Y-57483152D01*
X45744618Y-57483152D02*
X45839856Y-57530771D01*
X45839856Y-57530771D02*
X45887475Y-57578390D01*
X45887475Y-57578390D02*
X45935094Y-57673628D01*
X45935094Y-57673628D02*
X45935094Y-57959342D01*
X45935094Y-57959342D02*
X45887475Y-58054580D01*
X45887475Y-58054580D02*
X45839856Y-58102200D01*
X45839856Y-58102200D02*
X45744618Y-58149819D01*
X45744618Y-58149819D02*
X45601761Y-58149819D01*
X46220809Y-57483152D02*
X46601761Y-57483152D01*
X46363666Y-58149819D02*
X46363666Y-57292676D01*
X46363666Y-57292676D02*
X46411285Y-57197438D01*
X46411285Y-57197438D02*
X46506523Y-57149819D01*
X46506523Y-57149819D02*
X46601761Y-57149819D01*
X46792238Y-57483152D02*
X47173190Y-57483152D01*
X46935095Y-57149819D02*
X46935095Y-58006961D01*
X46935095Y-58006961D02*
X46982714Y-58102200D01*
X46982714Y-58102200D02*
X47077952Y-58149819D01*
X47077952Y-58149819D02*
X47173190Y-58149819D01*
X48839857Y-58149819D02*
X48506524Y-57673628D01*
X48268429Y-58149819D02*
X48268429Y-57149819D01*
X48268429Y-57149819D02*
X48649381Y-57149819D01*
X48649381Y-57149819D02*
X48744619Y-57197438D01*
X48744619Y-57197438D02*
X48792238Y-57245057D01*
X48792238Y-57245057D02*
X48839857Y-57340295D01*
X48839857Y-57340295D02*
X48839857Y-57483152D01*
X48839857Y-57483152D02*
X48792238Y-57578390D01*
X48792238Y-57578390D02*
X48744619Y-57626009D01*
X48744619Y-57626009D02*
X48649381Y-57673628D01*
X48649381Y-57673628D02*
X48268429Y-57673628D01*
X49649381Y-58102200D02*
X49554143Y-58149819D01*
X49554143Y-58149819D02*
X49363667Y-58149819D01*
X49363667Y-58149819D02*
X49268429Y-58102200D01*
X49268429Y-58102200D02*
X49220810Y-58006961D01*
X49220810Y-58006961D02*
X49220810Y-57626009D01*
X49220810Y-57626009D02*
X49268429Y-57530771D01*
X49268429Y-57530771D02*
X49363667Y-57483152D01*
X49363667Y-57483152D02*
X49554143Y-57483152D01*
X49554143Y-57483152D02*
X49649381Y-57530771D01*
X49649381Y-57530771D02*
X49697000Y-57626009D01*
X49697000Y-57626009D02*
X49697000Y-57721247D01*
X49697000Y-57721247D02*
X49220810Y-57816485D01*
X50077953Y-58102200D02*
X50173191Y-58149819D01*
X50173191Y-58149819D02*
X50363667Y-58149819D01*
X50363667Y-58149819D02*
X50458905Y-58102200D01*
X50458905Y-58102200D02*
X50506524Y-58006961D01*
X50506524Y-58006961D02*
X50506524Y-57959342D01*
X50506524Y-57959342D02*
X50458905Y-57864104D01*
X50458905Y-57864104D02*
X50363667Y-57816485D01*
X50363667Y-57816485D02*
X50220810Y-57816485D01*
X50220810Y-57816485D02*
X50125572Y-57768866D01*
X50125572Y-57768866D02*
X50077953Y-57673628D01*
X50077953Y-57673628D02*
X50077953Y-57626009D01*
X50077953Y-57626009D02*
X50125572Y-57530771D01*
X50125572Y-57530771D02*
X50220810Y-57483152D01*
X50220810Y-57483152D02*
X50363667Y-57483152D01*
X50363667Y-57483152D02*
X50458905Y-57530771D01*
X51316048Y-58102200D02*
X51220810Y-58149819D01*
X51220810Y-58149819D02*
X51030334Y-58149819D01*
X51030334Y-58149819D02*
X50935096Y-58102200D01*
X50935096Y-58102200D02*
X50887477Y-58006961D01*
X50887477Y-58006961D02*
X50887477Y-57626009D01*
X50887477Y-57626009D02*
X50935096Y-57530771D01*
X50935096Y-57530771D02*
X51030334Y-57483152D01*
X51030334Y-57483152D02*
X51220810Y-57483152D01*
X51220810Y-57483152D02*
X51316048Y-57530771D01*
X51316048Y-57530771D02*
X51363667Y-57626009D01*
X51363667Y-57626009D02*
X51363667Y-57721247D01*
X51363667Y-57721247D02*
X50887477Y-57816485D01*
X51649382Y-57483152D02*
X52030334Y-57483152D01*
X51792239Y-57149819D02*
X51792239Y-58006961D01*
X51792239Y-58006961D02*
X51839858Y-58102200D01*
X51839858Y-58102200D02*
X51935096Y-58149819D01*
X51935096Y-58149819D02*
X52030334Y-58149819D01*
X105064200Y-52768332D02*
X105111819Y-52625475D01*
X105111819Y-52625475D02*
X105111819Y-52387380D01*
X105111819Y-52387380D02*
X105064200Y-52292142D01*
X105064200Y-52292142D02*
X105016580Y-52244523D01*
X105016580Y-52244523D02*
X104921342Y-52196904D01*
X104921342Y-52196904D02*
X104826104Y-52196904D01*
X104826104Y-52196904D02*
X104730866Y-52244523D01*
X104730866Y-52244523D02*
X104683247Y-52292142D01*
X104683247Y-52292142D02*
X104635628Y-52387380D01*
X104635628Y-52387380D02*
X104588009Y-52577856D01*
X104588009Y-52577856D02*
X104540390Y-52673094D01*
X104540390Y-52673094D02*
X104492771Y-52720713D01*
X104492771Y-52720713D02*
X104397533Y-52768332D01*
X104397533Y-52768332D02*
X104302295Y-52768332D01*
X104302295Y-52768332D02*
X104207057Y-52720713D01*
X104207057Y-52720713D02*
X104159438Y-52673094D01*
X104159438Y-52673094D02*
X104111819Y-52577856D01*
X104111819Y-52577856D02*
X104111819Y-52339761D01*
X104111819Y-52339761D02*
X104159438Y-52196904D01*
X104111819Y-51863570D02*
X105111819Y-51625475D01*
X105111819Y-51625475D02*
X104397533Y-51434999D01*
X104397533Y-51434999D02*
X105111819Y-51244523D01*
X105111819Y-51244523D02*
X104111819Y-51006428D01*
X104207057Y-50673094D02*
X104159438Y-50625475D01*
X104159438Y-50625475D02*
X104111819Y-50530237D01*
X104111819Y-50530237D02*
X104111819Y-50292142D01*
X104111819Y-50292142D02*
X104159438Y-50196904D01*
X104159438Y-50196904D02*
X104207057Y-50149285D01*
X104207057Y-50149285D02*
X104302295Y-50101666D01*
X104302295Y-50101666D02*
X104397533Y-50101666D01*
X104397533Y-50101666D02*
X104540390Y-50149285D01*
X104540390Y-50149285D02*
X105111819Y-50720713D01*
X105111819Y-50720713D02*
X105111819Y-50101666D01*
D10*
X44747000Y-52195000D02*
X44747000Y-53695000D01*
X45997000Y-56195000D02*
X50497000Y-56195000D01*
X50497000Y-49695000D02*
X45997000Y-49695000D01*
X51747000Y-53695000D02*
X51747000Y-52195000D01*
X105417000Y-56625000D02*
X106800000Y-56625000D01*
X105417000Y-56625000D02*
X105417000Y-55241000D01*
X105657000Y-56385000D02*
X120657000Y-56385000D01*
X105657000Y-56385000D02*
X105657000Y-46485000D01*
X120657000Y-56385000D02*
X120657000Y-46485000D01*
X107442000Y-53465000D02*
X108712000Y-53465000D01*
X107562000Y-53465000D02*
X107562000Y-52111667D01*
X107682000Y-53465000D02*
X107682000Y-52111667D01*
X107802000Y-53465000D02*
X107802000Y-52111667D01*
X107922000Y-53465000D02*
X107922000Y-52111667D01*
X108042000Y-53465000D02*
X108042000Y-52111667D01*
X108162000Y-53465000D02*
X108162000Y-52111667D01*
X108282000Y-53465000D02*
X108282000Y-52111667D01*
X108402000Y-53465000D02*
X108402000Y-52111667D01*
X108522000Y-53465000D02*
X108522000Y-52111667D01*
X108642000Y-53465000D02*
X108642000Y-52111667D01*
X108712000Y-53465000D02*
X108712000Y-49405000D01*
X109982000Y-53465000D02*
X111252000Y-53465000D01*
X110102000Y-53465000D02*
X110102000Y-52111667D01*
X110222000Y-53465000D02*
X110222000Y-52111667D01*
X110342000Y-53465000D02*
X110342000Y-52111667D01*
X110462000Y-53465000D02*
X110462000Y-52111667D01*
X110582000Y-53465000D02*
X110582000Y-52111667D01*
X110702000Y-53465000D02*
X110702000Y-52111667D01*
X110822000Y-53465000D02*
X110822000Y-52111667D01*
X110942000Y-53465000D02*
X110942000Y-52111667D01*
X111062000Y-53465000D02*
X111062000Y-52111667D01*
X111182000Y-53465000D02*
X111182000Y-52111667D01*
X111252000Y-53465000D02*
X111252000Y-49405000D01*
X112522000Y-53465000D02*
X113792000Y-53465000D01*
X112642000Y-53465000D02*
X112642000Y-52111667D01*
X112762000Y-53465000D02*
X112762000Y-52111667D01*
X112882000Y-53465000D02*
X112882000Y-52111667D01*
X113002000Y-53465000D02*
X113002000Y-52111667D01*
X113122000Y-53465000D02*
X113122000Y-52111667D01*
X113242000Y-53465000D02*
X113242000Y-52111667D01*
X113362000Y-53465000D02*
X113362000Y-52111667D01*
X113482000Y-53465000D02*
X113482000Y-52111667D01*
X113602000Y-53465000D02*
X113602000Y-52111667D01*
X113722000Y-53465000D02*
X113722000Y-52111667D01*
X113792000Y-53465000D02*
X113792000Y-49405000D01*
X115062000Y-53465000D02*
X116332000Y-53465000D01*
X115182000Y-53465000D02*
X115182000Y-52111667D01*
X115302000Y-53465000D02*
X115302000Y-52111667D01*
X115422000Y-53465000D02*
X115422000Y-52111667D01*
X115542000Y-53465000D02*
X115542000Y-52111667D01*
X115662000Y-53465000D02*
X115662000Y-52111667D01*
X115782000Y-53465000D02*
X115782000Y-52111667D01*
X115902000Y-53465000D02*
X115902000Y-52111667D01*
X116022000Y-53465000D02*
X116022000Y-52111667D01*
X116142000Y-53465000D02*
X116142000Y-52111667D01*
X116262000Y-53465000D02*
X116262000Y-52111667D01*
X116332000Y-53465000D02*
X116332000Y-49405000D01*
X117602000Y-53465000D02*
X118872000Y-53465000D01*
X117722000Y-53465000D02*
X117722000Y-52111667D01*
X117842000Y-53465000D02*
X117842000Y-52111667D01*
X117962000Y-53465000D02*
X117962000Y-52111667D01*
X118082000Y-53465000D02*
X118082000Y-52111667D01*
X118202000Y-53465000D02*
X118202000Y-52111667D01*
X118322000Y-53465000D02*
X118322000Y-52111667D01*
X118442000Y-53465000D02*
X118442000Y-52111667D01*
X118562000Y-53465000D02*
X118562000Y-52111667D01*
X118682000Y-53465000D02*
X118682000Y-52111667D01*
X118802000Y-53465000D02*
X118802000Y-52111667D01*
X118872000Y-53465000D02*
X118872000Y-49405000D01*
X107442000Y-52111667D02*
X108712000Y-52111667D01*
X109982000Y-52111667D02*
X111252000Y-52111667D01*
X112522000Y-52111667D02*
X113792000Y-52111667D01*
X115062000Y-52111667D02*
X116332000Y-52111667D01*
X117602000Y-52111667D02*
X118872000Y-52111667D01*
X107442000Y-49405000D02*
X107442000Y-53465000D01*
X108712000Y-49405000D02*
X107442000Y-49405000D01*
X109982000Y-49405000D02*
X109982000Y-53465000D01*
X111252000Y-49405000D02*
X109982000Y-49405000D01*
X112522000Y-49405000D02*
X112522000Y-53465000D01*
X113792000Y-49405000D02*
X112522000Y-49405000D01*
X115062000Y-49405000D02*
X115062000Y-53465000D01*
X116332000Y-49405000D02*
X115062000Y-49405000D01*
X117602000Y-49405000D02*
X117602000Y-53465000D01*
X118872000Y-49405000D02*
X117602000Y-49405000D01*
X105657000Y-46485000D02*
X120657000Y-46485000D01*
G36*
X104471101Y-82906397D02*
G01*
X103864689Y-82906397D01*
X103864689Y-82299985D01*
X104471101Y-82299985D01*
X104471101Y-82906397D01*
G37*
G36*
X104471101Y-88970517D02*
G01*
X103864689Y-88970517D01*
X103864689Y-88364105D01*
X104471101Y-88364105D01*
X104471101Y-88970517D01*
G37*
G36*
X105077513Y-90183341D02*
G01*
X104471101Y-90183341D01*
X104471101Y-89576929D01*
X105077513Y-89576929D01*
X105077513Y-90183341D01*
G37*
G36*
X106290337Y-88364105D02*
G01*
X105077513Y-88364105D01*
X105077513Y-87757693D01*
X106290337Y-87757693D01*
X106290337Y-88364105D01*
G37*
G36*
X106896749Y-80480749D02*
G01*
X105077513Y-80480749D01*
X105077513Y-78661513D01*
X106896749Y-78661513D01*
X106896749Y-80480749D01*
G37*
G36*
X106896749Y-93821813D02*
G01*
X105077513Y-93821813D01*
X105077513Y-92002577D01*
X106896749Y-92002577D01*
X106896749Y-93821813D01*
G37*
G36*
X107503161Y-84725633D02*
G01*
X106896749Y-84725633D01*
X106896749Y-84119221D01*
X107503161Y-84119221D01*
X107503161Y-84725633D01*
G37*
G36*
X107503161Y-88364105D02*
G01*
X106896749Y-88364105D01*
X106896749Y-87757693D01*
X107503161Y-87757693D01*
X107503161Y-88364105D01*
G37*
G36*
X108109573Y-84119221D02*
G01*
X107503161Y-84119221D01*
X107503161Y-83512809D01*
X108109573Y-83512809D01*
X108109573Y-84119221D01*
G37*
G36*
X108109573Y-87757693D02*
G01*
X107503161Y-87757693D01*
X107503161Y-87151281D01*
X108109573Y-87151281D01*
X108109573Y-87757693D01*
G37*
G36*
X108109573Y-88970517D02*
G01*
X107503161Y-88970517D01*
X107503161Y-88364105D01*
X108109573Y-88364105D01*
X108109573Y-88970517D01*
G37*
G36*
X108109573Y-90183341D02*
G01*
X107503161Y-90183341D01*
X107503161Y-89576929D01*
X108109573Y-89576929D01*
X108109573Y-90183341D01*
G37*
G36*
X108715985Y-85332045D02*
G01*
X107503161Y-85332045D01*
X107503161Y-84725633D01*
X108715985Y-84725633D01*
X108715985Y-85332045D01*
G37*
G36*
X109322397Y-79874337D02*
G01*
X108715985Y-79874337D01*
X108715985Y-79267925D01*
X109322397Y-79267925D01*
X109322397Y-79874337D01*
G37*
G36*
X109928809Y-80480749D02*
G01*
X109322397Y-80480749D01*
X109322397Y-79874337D01*
X109928809Y-79874337D01*
X109928809Y-80480749D01*
G37*
G36*
X110535221Y-81693573D02*
G01*
X109928809Y-81693573D01*
X109928809Y-81087161D01*
X110535221Y-81087161D01*
X110535221Y-81693573D01*
G37*
G36*
X112960869Y-81693573D02*
G01*
X112354457Y-81693573D01*
X112354457Y-81087161D01*
X112960869Y-81087161D01*
X112960869Y-81693573D01*
G37*
G36*
X113567281Y-95034637D02*
G01*
X112960869Y-95034637D01*
X112960869Y-94428225D01*
X113567281Y-94428225D01*
X113567281Y-95034637D01*
G37*
G36*
X114173693Y-94428225D02*
G01*
X113567281Y-94428225D01*
X113567281Y-93821813D01*
X114173693Y-93821813D01*
X114173693Y-94428225D01*
G37*
G36*
X114780105Y-92608989D02*
G01*
X114173693Y-92608989D01*
X114173693Y-92002577D01*
X114780105Y-92002577D01*
X114780105Y-92608989D01*
G37*
G36*
X115992929Y-78055101D02*
G01*
X115386517Y-78055101D01*
X115386517Y-77448689D01*
X115992929Y-77448689D01*
X115992929Y-78055101D01*
G37*
G36*
X116599341Y-78661513D02*
G01*
X115992929Y-78661513D01*
X115992929Y-78055101D01*
X116599341Y-78055101D01*
X116599341Y-78661513D01*
G37*
G36*
X116599341Y-88364105D02*
G01*
X115992929Y-88364105D01*
X115992929Y-87757693D01*
X116599341Y-87757693D01*
X116599341Y-88364105D01*
G37*
G36*
X117205753Y-87757693D02*
G01*
X116599341Y-87757693D01*
X116599341Y-86544869D01*
X117205753Y-86544869D01*
X117205753Y-87757693D01*
G37*
G36*
X117812165Y-91396165D02*
G01*
X117205753Y-91396165D01*
X117205753Y-90789753D01*
X117812165Y-90789753D01*
X117812165Y-91396165D01*
G37*
G36*
X119631401Y-82906397D02*
G01*
X119024989Y-82906397D01*
X119024989Y-82299985D01*
X119631401Y-82299985D01*
X119631401Y-82906397D01*
G37*
G36*
X119631401Y-95034637D02*
G01*
X119024989Y-95034637D01*
X119024989Y-93821813D01*
X119631401Y-93821813D01*
X119631401Y-95034637D01*
G37*
G36*
X120237813Y-80480749D02*
G01*
X118418577Y-80480749D01*
X118418577Y-78661513D01*
X120237813Y-78661513D01*
X120237813Y-80480749D01*
G37*
G36*
X120237813Y-92608989D02*
G01*
X119631401Y-92608989D01*
X119631401Y-92002577D01*
X120237813Y-92002577D01*
X120237813Y-92608989D01*
G37*
G36*
X120237813Y-93821813D02*
G01*
X119631401Y-93821813D01*
X119631401Y-93215401D01*
X120237813Y-93215401D01*
X120237813Y-93821813D01*
G37*
G36*
X120844225Y-84119221D02*
G01*
X119631401Y-84119221D01*
X119631401Y-83512809D01*
X120844225Y-83512809D01*
X120844225Y-84119221D01*
G37*
G36*
X120844225Y-93215401D02*
G01*
X120237813Y-93215401D01*
X120237813Y-92608989D01*
X120844225Y-92608989D01*
X120844225Y-93215401D01*
G37*
G36*
X120844225Y-95034637D02*
G01*
X120237813Y-95034637D01*
X120237813Y-93821813D01*
X120844225Y-93821813D01*
X120844225Y-95034637D01*
G37*
G36*
X121450637Y-84725633D02*
G01*
X120844225Y-84725633D01*
X120844225Y-84119221D01*
X121450637Y-84119221D01*
X121450637Y-84725633D01*
G37*
G36*
X121450637Y-92608989D02*
G01*
X120844225Y-92608989D01*
X120844225Y-92002577D01*
X121450637Y-92002577D01*
X121450637Y-92608989D01*
G37*
G36*
X121450637Y-93821813D02*
G01*
X120844225Y-93821813D01*
X120844225Y-93215401D01*
X121450637Y-93215401D01*
X121450637Y-93821813D01*
G37*
G36*
X106896749Y-89576929D02*
G01*
X105077513Y-89576929D01*
X105077513Y-88970517D01*
X106290337Y-88970517D01*
X106290337Y-88364105D01*
X106896749Y-88364105D01*
X106896749Y-89576929D01*
G37*
G36*
X110535221Y-78055101D02*
G01*
X109928809Y-78055101D01*
X109928809Y-78661513D01*
X108715985Y-78661513D01*
X108715985Y-77448689D01*
X110535221Y-77448689D01*
X110535221Y-78055101D01*
G37*
G36*
X110535221Y-79267925D02*
G01*
X111141633Y-79267925D01*
X111141633Y-79874337D01*
X109928809Y-79874337D01*
X109928809Y-78661513D01*
X110535221Y-78661513D01*
X110535221Y-79267925D01*
G37*
G36*
X116599341Y-83512809D02*
G01*
X115386517Y-83512809D01*
X115386517Y-82299985D01*
X115992929Y-82299985D01*
X115992929Y-81087161D01*
X116599341Y-81087161D01*
X116599341Y-83512809D01*
G37*
G36*
X118418577Y-94428225D02*
G01*
X117205753Y-94428225D01*
X117205753Y-93821813D01*
X117812165Y-93821813D01*
X117812165Y-93215401D01*
X118418577Y-93215401D01*
X118418577Y-94428225D01*
G37*
G36*
X121450637Y-83512809D02*
G01*
X120844225Y-83512809D01*
X120844225Y-82906397D01*
X120237813Y-82906397D01*
X120237813Y-82299985D01*
X121450637Y-82299985D01*
X121450637Y-83512809D01*
G37*
G36*
X109322397Y-90183341D02*
G01*
X109928809Y-90183341D01*
X109928809Y-90789753D01*
X109322397Y-90789753D01*
X109322397Y-92002577D01*
X108715985Y-92002577D01*
X108715985Y-88970517D01*
X109322397Y-88970517D01*
X109322397Y-90183341D01*
G37*
G36*
X113567281Y-78055101D02*
G01*
X112354457Y-78055101D01*
X112354457Y-78661513D01*
X111141633Y-78661513D01*
X111141633Y-78055101D01*
X111748045Y-78055101D01*
X111748045Y-77448689D01*
X113567281Y-77448689D01*
X113567281Y-78055101D01*
G37*
G36*
X117812165Y-82906397D02*
G01*
X119024989Y-82906397D01*
X119024989Y-84725633D01*
X117205753Y-84725633D01*
X117205753Y-84119221D01*
X117812165Y-84119221D01*
X117812165Y-83512809D01*
X117205753Y-83512809D01*
X117205753Y-82299985D01*
X117812165Y-82299985D01*
X117812165Y-82906397D01*
G37*
G36*
X108109573Y-81693573D02*
G01*
X103864689Y-81693573D01*
X103864689Y-80191451D01*
X104491503Y-80191451D01*
X104491540Y-80377601D01*
X104491770Y-80546277D01*
X104492187Y-80694912D01*
X104492784Y-80820940D01*
X104493554Y-80921796D01*
X104494491Y-80994913D01*
X104495588Y-81037727D01*
X104496441Y-81048274D01*
X104504350Y-81052222D01*
X104526091Y-81055647D01*
X104563507Y-81058571D01*
X104618444Y-81061014D01*
X104692747Y-81062998D01*
X104788260Y-81064545D01*
X104906828Y-81065675D01*
X105050296Y-81066411D01*
X105220509Y-81066773D01*
X105419311Y-81066783D01*
X105648548Y-81066463D01*
X105910064Y-81065833D01*
X105990955Y-81065600D01*
X107477171Y-81061171D01*
X107477171Y-78081090D01*
X104497090Y-78081090D01*
X104492616Y-79553804D01*
X104492035Y-79776986D01*
X104491666Y-79990390D01*
X104491503Y-80191451D01*
X103864689Y-80191451D01*
X103864689Y-77448689D01*
X108109573Y-77448689D01*
X108109573Y-81693573D01*
G37*
G36*
X108109573Y-95034637D02*
G01*
X103864689Y-95034637D01*
X103864689Y-93532515D01*
X104491503Y-93532515D01*
X104491540Y-93718666D01*
X104491770Y-93887341D01*
X104492187Y-94035976D01*
X104492784Y-94162004D01*
X104493554Y-94262860D01*
X104494491Y-94335977D01*
X104495588Y-94378791D01*
X104496441Y-94389338D01*
X104504350Y-94393286D01*
X104526091Y-94396711D01*
X104563507Y-94399635D01*
X104618444Y-94402078D01*
X104692747Y-94404062D01*
X104788260Y-94405609D01*
X104906828Y-94406739D01*
X105050296Y-94407475D01*
X105220509Y-94407837D01*
X105419311Y-94407847D01*
X105648548Y-94407527D01*
X105910064Y-94406898D01*
X105990955Y-94406664D01*
X107477171Y-94402236D01*
X107477171Y-91422154D01*
X104497090Y-91422154D01*
X104492616Y-92894869D01*
X104492035Y-93118051D01*
X104491666Y-93331454D01*
X104491503Y-93532515D01*
X103864689Y-93532515D01*
X103864689Y-90789753D01*
X108109573Y-90789753D01*
X108109573Y-95034637D01*
G37*
G36*
X121450637Y-81693573D02*
G01*
X117205753Y-81693573D01*
X117205753Y-80191451D01*
X117832567Y-80191451D01*
X117832604Y-80377601D01*
X117832835Y-80546277D01*
X117833251Y-80694912D01*
X117833848Y-80820940D01*
X117834618Y-80921796D01*
X117835555Y-80994913D01*
X117836652Y-81037727D01*
X117837505Y-81048274D01*
X117845414Y-81052222D01*
X117867155Y-81055647D01*
X117904571Y-81058571D01*
X117959508Y-81061014D01*
X118033811Y-81062998D01*
X118129324Y-81064545D01*
X118247892Y-81065675D01*
X118391360Y-81066411D01*
X118561573Y-81066773D01*
X118760376Y-81066783D01*
X118989612Y-81066463D01*
X119251129Y-81065833D01*
X119332020Y-81065600D01*
X120818236Y-81061171D01*
X120818236Y-78081090D01*
X117838154Y-78081090D01*
X117833680Y-79553804D01*
X117833099Y-79776986D01*
X117832730Y-79990390D01*
X117832567Y-80191451D01*
X117205753Y-80191451D01*
X117205753Y-77448689D01*
X121450637Y-77448689D01*
X121450637Y-81693573D01*
G37*
G36*
X115386517Y-79267925D02*
G01*
X115386517Y-79874337D01*
X115992929Y-79874337D01*
X115992929Y-79267925D01*
X116599341Y-79267925D01*
X116599341Y-80480749D01*
X115992929Y-80480749D01*
X115992929Y-81087161D01*
X115386517Y-81087161D01*
X115386517Y-81693573D01*
X114780105Y-81693573D01*
X114780105Y-82906397D01*
X114173693Y-82906397D01*
X114173693Y-82299985D01*
X113567281Y-82299985D01*
X113567281Y-83512809D01*
X112354457Y-83512809D01*
X112354457Y-84119221D01*
X111748045Y-84119221D01*
X111748045Y-82299985D01*
X112354457Y-82299985D01*
X112354457Y-82906397D01*
X112960869Y-82906397D01*
X112960869Y-81693573D01*
X113567281Y-81693573D01*
X114173693Y-81693573D01*
X114780105Y-81693573D01*
X114780105Y-81087161D01*
X115386517Y-81087161D01*
X115386517Y-80480749D01*
X114173693Y-80480749D01*
X114173693Y-81693573D01*
X113567281Y-81693573D01*
X113567281Y-81087161D01*
X112960869Y-81087161D01*
X112960869Y-80480749D01*
X113567281Y-80480749D01*
X113567281Y-79874337D01*
X114173693Y-79874337D01*
X114173693Y-79267925D01*
X115386517Y-79267925D01*
G37*
G36*
X114780105Y-78661513D02*
G01*
X114173693Y-78661513D01*
X114173693Y-79267925D01*
X113567281Y-79267925D01*
X113567281Y-79874337D01*
X112960869Y-79874337D01*
X112960869Y-80480749D01*
X112354457Y-80480749D01*
X112354457Y-81087161D01*
X111748045Y-81087161D01*
X111748045Y-82299985D01*
X111141633Y-82299985D01*
X111141633Y-81087161D01*
X111748045Y-81087161D01*
X111748045Y-80480749D01*
X112354457Y-80480749D01*
X112354457Y-79267925D01*
X113567281Y-79267925D01*
X113567281Y-78055101D01*
X114780105Y-78055101D01*
X114780105Y-78661513D01*
G37*
G36*
X105077513Y-84725633D02*
G01*
X104471101Y-84725633D01*
X104471101Y-85332045D01*
X103864689Y-85332045D01*
X103864689Y-84119221D01*
X103864689Y-83512809D01*
X104471101Y-83512809D01*
X104471101Y-82906397D01*
X105077513Y-82906397D01*
X105077513Y-82299985D01*
X106290337Y-82299985D01*
X106290337Y-83512809D01*
X106896749Y-83512809D01*
X106896749Y-82299985D01*
X108715985Y-82299985D01*
X108715985Y-81087161D01*
X109322397Y-81087161D01*
X109322397Y-81693573D01*
X109928809Y-81693573D01*
X109928809Y-83512809D01*
X109322397Y-83512809D01*
X109322397Y-82299985D01*
X108715985Y-82299985D01*
X108715985Y-83512809D01*
X108109573Y-83512809D01*
X108109573Y-82906397D01*
X107503161Y-82906397D01*
X107503161Y-83512809D01*
X106896749Y-83512809D01*
X106896749Y-84119221D01*
X106290337Y-84119221D01*
X106290337Y-84725633D01*
X106896749Y-84725633D01*
X106896749Y-85332045D01*
X107503161Y-85332045D01*
X107503161Y-85938457D01*
X108715985Y-85938457D01*
X108715985Y-85332045D01*
X109322397Y-85332045D01*
X109322397Y-84119221D01*
X109928809Y-84119221D01*
X109928809Y-83512809D01*
X111141633Y-83512809D01*
X111141633Y-84725633D01*
X109928809Y-84725633D01*
X109928809Y-85332045D01*
X111141633Y-85332045D01*
X111141633Y-84725633D01*
X111748045Y-84725633D01*
X111748045Y-85332045D01*
X111141633Y-85332045D01*
X111141633Y-85938457D01*
X109322397Y-85938457D01*
X109322397Y-86544869D01*
X107503161Y-86544869D01*
X107503161Y-87151281D01*
X105077513Y-87151281D01*
X105077513Y-87757693D01*
X103864689Y-87757693D01*
X103864689Y-86544869D01*
X104471101Y-86544869D01*
X105683925Y-86544869D01*
X106290337Y-86544869D01*
X107503161Y-86544869D01*
X107503161Y-85938457D01*
X106290337Y-85938457D01*
X106290337Y-86544869D01*
X105683925Y-86544869D01*
X105683925Y-85938457D01*
X106290337Y-85938457D01*
X106290337Y-85332045D01*
X105077513Y-85332045D01*
X105077513Y-85938457D01*
X104471101Y-85938457D01*
X104471101Y-86544869D01*
X103864689Y-86544869D01*
X103864689Y-85938457D01*
X104471101Y-85938457D01*
X104471101Y-85332045D01*
X105077513Y-85332045D01*
X105077513Y-84725633D01*
X105683925Y-84725633D01*
X105683925Y-83512809D01*
X104471101Y-83512809D01*
X104471101Y-84119221D01*
X105077513Y-84119221D01*
X105077513Y-84725633D01*
G37*
G36*
X116599341Y-84725633D02*
G01*
X115992929Y-84725633D01*
X115992929Y-85332045D01*
X116599341Y-85332045D01*
X116599341Y-86544869D01*
X115992929Y-86544869D01*
X115992929Y-87151281D01*
X114780105Y-87151281D01*
X114780105Y-85938457D01*
X114173693Y-85938457D01*
X114173693Y-87757693D01*
X114780105Y-87757693D01*
X114780105Y-89576929D01*
X115992929Y-89576929D01*
X117205753Y-89576929D01*
X119631401Y-89576929D01*
X119631401Y-88364105D01*
X119024989Y-88364105D01*
X119024989Y-87757693D01*
X118418577Y-87757693D01*
X118418577Y-88970517D01*
X117205753Y-88970517D01*
X117205753Y-89576929D01*
X115992929Y-89576929D01*
X115992929Y-88970517D01*
X116599341Y-88970517D01*
X116599341Y-88364105D01*
X117812165Y-88364105D01*
X117812165Y-87757693D01*
X118418577Y-87757693D01*
X118418577Y-87151281D01*
X117812165Y-87151281D01*
X117812165Y-85938457D01*
X117205753Y-85938457D01*
X117205753Y-85332045D01*
X118418577Y-85332045D01*
X118418577Y-85938457D01*
X119024989Y-85938457D01*
X119024989Y-87151281D01*
X119631401Y-87151281D01*
X119631401Y-87757693D01*
X120237813Y-87757693D01*
X120237813Y-86544869D01*
X119631401Y-86544869D01*
X119631401Y-85332045D01*
X119024989Y-85332045D01*
X119024989Y-84725633D01*
X120237813Y-84725633D01*
X120237813Y-85332045D01*
X121450637Y-85332045D01*
X121450637Y-86544869D01*
X120844225Y-86544869D01*
X120844225Y-88364105D01*
X120237813Y-88364105D01*
X120237813Y-90183341D01*
X121450637Y-90183341D01*
X121450637Y-90789753D01*
X120844225Y-90789753D01*
X120844225Y-91396165D01*
X120237813Y-91396165D01*
X120237813Y-90789753D01*
X119631401Y-90789753D01*
X119631401Y-92002577D01*
X119024989Y-92002577D01*
X119024989Y-92608989D01*
X119631401Y-92608989D01*
X119631401Y-93215401D01*
X118418577Y-93215401D01*
X118418577Y-92608989D01*
X117205753Y-92608989D01*
X117205753Y-93215401D01*
X116599341Y-93215401D01*
X116599341Y-95034637D01*
X115386517Y-95034637D01*
X115386517Y-94428225D01*
X115992929Y-94428225D01*
X115992929Y-93821813D01*
X115386517Y-93821813D01*
X115386517Y-94428225D01*
X114780105Y-94428225D01*
X114780105Y-93215401D01*
X115386517Y-93215401D01*
X115386517Y-92608989D01*
X115992929Y-92608989D01*
X115992929Y-92002577D01*
X116599341Y-92002577D01*
X118418577Y-92002577D01*
X118418577Y-90183341D01*
X116599341Y-90183341D01*
X116599341Y-92002577D01*
X115992929Y-92002577D01*
X115992929Y-91396165D01*
X114780105Y-91396165D01*
X114780105Y-90789753D01*
X113567281Y-90789753D01*
X113567281Y-92002577D01*
X111748045Y-92002577D01*
X111748045Y-92608989D01*
X112354457Y-92608989D01*
X112354457Y-93215401D01*
X112960869Y-93215401D01*
X112960869Y-94428225D01*
X112354457Y-94428225D01*
X112354457Y-95034637D01*
X108715985Y-95034637D01*
X108715985Y-94428225D01*
X109322397Y-94428225D01*
X109928809Y-94428225D01*
X111141633Y-94428225D01*
X111141633Y-93821813D01*
X111748045Y-93821813D01*
X111748045Y-93215401D01*
X111141633Y-93215401D01*
X111141633Y-93821813D01*
X109928809Y-93821813D01*
X109928809Y-94428225D01*
X109322397Y-94428225D01*
X109322397Y-93821813D01*
X109928809Y-93821813D01*
X109928809Y-93215401D01*
X109322397Y-93215401D01*
X109322397Y-93821813D01*
X108715985Y-93821813D01*
X108715985Y-92608989D01*
X109322397Y-92608989D01*
X109322397Y-92002577D01*
X109928809Y-92002577D01*
X109928809Y-93215401D01*
X111141633Y-93215401D01*
X111141633Y-92608989D01*
X110535221Y-92608989D01*
X110535221Y-92002577D01*
X111141633Y-92002577D01*
X111141633Y-91396165D01*
X111748045Y-91396165D01*
X112354457Y-91396165D01*
X112354457Y-90789753D01*
X112960869Y-90789753D01*
X112960869Y-90183341D01*
X113567281Y-90183341D01*
X113567281Y-89576929D01*
X114173693Y-89576929D01*
X114173693Y-88970517D01*
X112960869Y-88970517D01*
X112960869Y-90183341D01*
X111748045Y-90183341D01*
X111748045Y-91396165D01*
X111141633Y-91396165D01*
X110535221Y-91396165D01*
X110535221Y-90183341D01*
X111141633Y-90183341D01*
X111141633Y-88970517D01*
X110535221Y-88970517D01*
X110535221Y-88364105D01*
X111141633Y-88364105D01*
X111141633Y-87757693D01*
X111748045Y-87757693D01*
X111748045Y-88364105D01*
X112354457Y-88364105D01*
X112354457Y-87757693D01*
X112960869Y-87757693D01*
X112960869Y-88364105D01*
X113567281Y-88364105D01*
X113567281Y-87757693D01*
X112960869Y-87757693D01*
X112354457Y-87757693D01*
X112354457Y-87151281D01*
X112960869Y-87151281D01*
X113567281Y-87151281D01*
X113567281Y-86544869D01*
X112960869Y-86544869D01*
X112960869Y-87151281D01*
X112354457Y-87151281D01*
X112354457Y-86544869D01*
X112960869Y-86544869D01*
X112960869Y-85938457D01*
X113567281Y-85938457D01*
X113567281Y-85332045D01*
X114173693Y-85332045D01*
X114173693Y-84725633D01*
X114780105Y-84725633D01*
X114780105Y-85332045D01*
X115386517Y-85332045D01*
X115386517Y-84119221D01*
X116599341Y-84119221D01*
X116599341Y-84725633D01*
G37*
G36*
X114780105Y-84119221D02*
G01*
X114173693Y-84119221D01*
X114173693Y-84725633D01*
X113567281Y-84725633D01*
X113567281Y-85332045D01*
X112960869Y-85332045D01*
X112960869Y-85938457D01*
X112354457Y-85938457D01*
X112354457Y-86544869D01*
X111748045Y-86544869D01*
X111748045Y-87151281D01*
X111141633Y-87151281D01*
X111141633Y-87757693D01*
X110535221Y-87757693D01*
X110535221Y-88364105D01*
X109928809Y-88364105D01*
X109928809Y-87757693D01*
X109322397Y-87757693D01*
X109322397Y-87151281D01*
X111141633Y-87151281D01*
X111141633Y-86544869D01*
X111748045Y-86544869D01*
X111748045Y-85938457D01*
X112354457Y-85938457D01*
X112354457Y-84725633D01*
X113567281Y-84725633D01*
X113567281Y-83512809D01*
X114780105Y-83512809D01*
X114780105Y-84119221D01*
G37*
%LPC*%
D14*
X44997000Y-50695000D03*
X51497000Y-50695000D03*
X44997000Y-55195000D03*
X51497000Y-55195000D03*
D15*
X108077000Y-55245000D03*
D16*
X110617000Y-55245000D03*
X113157000Y-55245000D03*
X115697000Y-55245000D03*
X118237000Y-55245000D03*
X118237000Y-47625000D03*
X115697000Y-47625000D03*
X113157000Y-47625000D03*
X110617000Y-47625000D03*
X108077000Y-47625000D03*
D15*
X78421000Y-86237000D03*
D16*
X78421000Y-88777000D03*
X78421000Y-91317000D03*
X78421000Y-93857000D03*
X78421000Y-96397000D03*
X78421000Y-98937000D03*
X78421000Y-101477000D03*
X70801000Y-101477000D03*
X70801000Y-98937000D03*
X70801000Y-96397000D03*
X70801000Y-93857000D03*
X70801000Y-91317000D03*
X70801000Y-88777000D03*
X70801000Y-86237000D03*
D17*
X72071000Y-80903000D03*
X77071000Y-80903000D03*
X50947000Y-62045000D03*
X45947000Y-62045000D03*
D15*
X90947000Y-86245000D03*
D16*
X90947000Y-88785000D03*
X90947000Y-91325000D03*
X90947000Y-93865000D03*
X90947000Y-96405000D03*
X90947000Y-98945000D03*
X90947000Y-101485000D03*
X90947000Y-104025000D03*
X83327000Y-104025000D03*
X83327000Y-101485000D03*
X83327000Y-98945000D03*
X83327000Y-96405000D03*
X83327000Y-93865000D03*
X83327000Y-91325000D03*
X83327000Y-88785000D03*
X83327000Y-86245000D03*
D15*
X78397000Y-110845000D03*
D17*
X75897000Y-110845000D03*
X89597000Y-80945000D03*
X84597000Y-80945000D03*
X63447000Y-89935000D03*
D16*
X63447000Y-97555000D03*
D17*
X60197000Y-89935000D03*
D16*
X60197000Y-97555000D03*
D17*
X56897000Y-97525000D03*
D16*
X56897000Y-89905000D03*
D18*
X55465000Y-139192000D03*
X59425000Y-139192000D03*
X63385000Y-139192000D03*
X67345000Y-139192000D03*
X71305000Y-139192000D03*
X75265000Y-139192000D03*
X79225000Y-139192000D03*
X83185000Y-139192000D03*
X87145000Y-139192000D03*
X91105000Y-139192000D03*
X95065000Y-139192000D03*
X99025000Y-139192000D03*
X110905000Y-139192000D03*
D15*
X88043000Y-110803000D03*
D17*
X85543000Y-110803000D03*
D15*
X70872000Y-74845000D03*
D16*
X73412000Y-74845000D03*
X75952000Y-74845000D03*
X78492000Y-74845000D03*
X81032000Y-74845000D03*
X83572000Y-74845000D03*
X86112000Y-74845000D03*
X88652000Y-74845000D03*
X91192000Y-74845000D03*
D19*
X64207000Y-50152500D03*
D20*
X66747000Y-50152500D03*
X69287000Y-50152500D03*
X71827000Y-50152500D03*
X74367000Y-50152500D03*
X76907000Y-50152500D03*
X79447000Y-50152500D03*
X81987000Y-50152500D03*
X84527000Y-50152500D03*
X87067000Y-50152500D03*
X89607000Y-50152500D03*
X92147000Y-50152500D03*
X94687000Y-50152500D03*
X97227000Y-50152500D03*
X99767000Y-50152500D03*
X102307000Y-50152500D03*
X102307000Y-65392500D03*
X99767000Y-65392500D03*
X97227000Y-65392500D03*
X94687000Y-65392500D03*
X92147000Y-65392500D03*
X89607000Y-65392500D03*
X87067000Y-65392500D03*
X84527000Y-65392500D03*
X81987000Y-65392500D03*
X79447000Y-65392500D03*
X76907000Y-65392500D03*
X74367000Y-65392500D03*
X71827000Y-65392500D03*
X69287000Y-65392500D03*
X66747000Y-65392500D03*
X64207000Y-65392500D03*
%LPD*%
M02*
