G04 #@! TF.GenerationSoftware,KiCad,Pcbnew,7.0.10*
G04 #@! TF.CreationDate,2024-01-02T22:15:01+01:00*
G04 #@! TF.ProjectId,p2000t-multicartridge-zif,70323030-3074-42d6-9d75-6c7469636172,rev?*
G04 #@! TF.SameCoordinates,Original*
G04 #@! TF.FileFunction,Legend,Bot*
G04 #@! TF.FilePolarity,Positive*
%FSLAX46Y46*%
G04 Gerber Fmt 4.6, Leading zero omitted, Abs format (unit mm)*
G04 Created by KiCad (PCBNEW 7.0.10) date 2024-01-02 22:15:01*
%MOMM*%
%LPD*%
G01*
G04 APERTURE LIST*
%ADD10C,0.120000*%
%ADD11C,0.150000*%
%ADD12C,0.300000*%
%ADD13C,2.000000*%
%ADD14R,1.600000X1.600000*%
%ADD15O,1.600000X1.600000*%
%ADD16C,1.600000*%
%ADD17R,2.000000X10.000000*%
%ADD18R,1.440000X2.000000*%
%ADD19O,1.440000X2.000000*%
G04 APERTURE END LIST*
D10*
X96251000Y-131445000D02*
X74153000Y-131445000D01*
X72375000Y-131445000D02*
X58278000Y-131445000D01*
X54197000Y-131745000D02*
X54197000Y-128645000D01*
X111999000Y-131451000D02*
X109586000Y-131451000D01*
X111999000Y-127895000D02*
X111999000Y-131451000D01*
X109586000Y-127895000D02*
X111999000Y-127895000D01*
X109586000Y-131451000D02*
X109586000Y-127895000D01*
X56647000Y-131745000D02*
X54197000Y-131745000D01*
X79883000Y-85598000D02*
X81153000Y-85598000D01*
X81153000Y-86868000D01*
X79883000Y-86868000D01*
X79883000Y-85598000D01*
G36*
X79883000Y-85598000D02*
G01*
X81153000Y-85598000D01*
X81153000Y-86868000D01*
X79883000Y-86868000D01*
X79883000Y-85598000D01*
G37*
X54197000Y-128645000D02*
X56647000Y-128645000D01*
X56647000Y-128645000D02*
X56647000Y-131745000D01*
X92329000Y-85598000D02*
X93599000Y-85598000D01*
X93599000Y-86868000D01*
X92329000Y-86868000D01*
X92329000Y-85598000D01*
G36*
X92329000Y-85598000D02*
G01*
X93599000Y-85598000D01*
X93599000Y-86868000D01*
X92329000Y-86868000D01*
X92329000Y-85598000D01*
G37*
D11*
X111498857Y-133042819D02*
X112070285Y-133042819D01*
X111784571Y-133042819D02*
X111784571Y-132042819D01*
X111784571Y-132042819D02*
X111879809Y-132185676D01*
X111879809Y-132185676D02*
X111975047Y-132280914D01*
X111975047Y-132280914D02*
X112070285Y-132328533D01*
X110594095Y-132042819D02*
X111070285Y-132042819D01*
X111070285Y-132042819D02*
X111117904Y-132519009D01*
X111117904Y-132519009D02*
X111070285Y-132471390D01*
X111070285Y-132471390D02*
X110975047Y-132423771D01*
X110975047Y-132423771D02*
X110736952Y-132423771D01*
X110736952Y-132423771D02*
X110641714Y-132471390D01*
X110641714Y-132471390D02*
X110594095Y-132519009D01*
X110594095Y-132519009D02*
X110546476Y-132614247D01*
X110546476Y-132614247D02*
X110546476Y-132852342D01*
X110546476Y-132852342D02*
X110594095Y-132947580D01*
X110594095Y-132947580D02*
X110641714Y-132995200D01*
X110641714Y-132995200D02*
X110736952Y-133042819D01*
X110736952Y-133042819D02*
X110975047Y-133042819D01*
X110975047Y-133042819D02*
X111070285Y-132995200D01*
X111070285Y-132995200D02*
X111117904Y-132947580D01*
X109689333Y-133042819D02*
X109689333Y-132519009D01*
X109689333Y-132519009D02*
X109736952Y-132423771D01*
X109736952Y-132423771D02*
X109832190Y-132376152D01*
X109832190Y-132376152D02*
X110022666Y-132376152D01*
X110022666Y-132376152D02*
X110117904Y-132423771D01*
X109689333Y-132995200D02*
X109784571Y-133042819D01*
X109784571Y-133042819D02*
X110022666Y-133042819D01*
X110022666Y-133042819D02*
X110117904Y-132995200D01*
X110117904Y-132995200D02*
X110165523Y-132899961D01*
X110165523Y-132899961D02*
X110165523Y-132804723D01*
X110165523Y-132804723D02*
X110117904Y-132709485D01*
X110117904Y-132709485D02*
X110022666Y-132661866D01*
X110022666Y-132661866D02*
X109784571Y-132661866D01*
X109784571Y-132661866D02*
X109689333Y-132614247D01*
D12*
X102065528Y-130250285D02*
X101994100Y-130321713D01*
X101994100Y-130321713D02*
X101922671Y-130535999D01*
X101922671Y-130535999D02*
X101922671Y-130678856D01*
X101922671Y-130678856D02*
X101994100Y-130893142D01*
X101994100Y-130893142D02*
X102136957Y-131035999D01*
X102136957Y-131035999D02*
X102279814Y-131107428D01*
X102279814Y-131107428D02*
X102565528Y-131178856D01*
X102565528Y-131178856D02*
X102779814Y-131178856D01*
X102779814Y-131178856D02*
X103065528Y-131107428D01*
X103065528Y-131107428D02*
X103208385Y-131035999D01*
X103208385Y-131035999D02*
X103351242Y-130893142D01*
X103351242Y-130893142D02*
X103422671Y-130678856D01*
X103422671Y-130678856D02*
X103422671Y-130535999D01*
X103422671Y-130535999D02*
X103351242Y-130321713D01*
X103351242Y-130321713D02*
X103279814Y-130250285D01*
X101994100Y-129678856D02*
X101922671Y-129464571D01*
X101922671Y-129464571D02*
X101922671Y-129107428D01*
X101922671Y-129107428D02*
X101994100Y-128964571D01*
X101994100Y-128964571D02*
X102065528Y-128893142D01*
X102065528Y-128893142D02*
X102208385Y-128821713D01*
X102208385Y-128821713D02*
X102351242Y-128821713D01*
X102351242Y-128821713D02*
X102494100Y-128893142D01*
X102494100Y-128893142D02*
X102565528Y-128964571D01*
X102565528Y-128964571D02*
X102636957Y-129107428D01*
X102636957Y-129107428D02*
X102708385Y-129393142D01*
X102708385Y-129393142D02*
X102779814Y-129535999D01*
X102779814Y-129535999D02*
X102851242Y-129607428D01*
X102851242Y-129607428D02*
X102994100Y-129678856D01*
X102994100Y-129678856D02*
X103136957Y-129678856D01*
X103136957Y-129678856D02*
X103279814Y-129607428D01*
X103279814Y-129607428D02*
X103351242Y-129535999D01*
X103351242Y-129535999D02*
X103422671Y-129393142D01*
X103422671Y-129393142D02*
X103422671Y-129035999D01*
X103422671Y-129035999D02*
X103351242Y-128821713D01*
X101922671Y-127393142D02*
X101922671Y-128250285D01*
X101922671Y-127821714D02*
X103422671Y-127821714D01*
X103422671Y-127821714D02*
X103208385Y-127964571D01*
X103208385Y-127964571D02*
X103065528Y-128107428D01*
X103065528Y-128107428D02*
X102994100Y-128250285D01*
X103839100Y-131314571D02*
X103839100Y-127257429D01*
X98668242Y-131071713D02*
X98668242Y-130357428D01*
X98239671Y-131214570D02*
X99739671Y-130714570D01*
X99739671Y-130714570D02*
X98239671Y-130214570D01*
X98239671Y-128928856D02*
X98239671Y-129785999D01*
X98239671Y-129357428D02*
X99739671Y-129357428D01*
X99739671Y-129357428D02*
X99525385Y-129500285D01*
X99525385Y-129500285D02*
X99382528Y-129643142D01*
X99382528Y-129643142D02*
X99311100Y-129785999D01*
X99596814Y-128357428D02*
X99668242Y-128286000D01*
X99668242Y-128286000D02*
X99739671Y-128143143D01*
X99739671Y-128143143D02*
X99739671Y-127786000D01*
X99739671Y-127786000D02*
X99668242Y-127643143D01*
X99668242Y-127643143D02*
X99596814Y-127571714D01*
X99596814Y-127571714D02*
X99453957Y-127500285D01*
X99453957Y-127500285D02*
X99311100Y-127500285D01*
X99311100Y-127500285D02*
X99096814Y-127571714D01*
X99096814Y-127571714D02*
X98239671Y-128428857D01*
X98239671Y-128428857D02*
X98239671Y-127500285D01*
D11*
X91773570Y-130471104D02*
X91297380Y-130471104D01*
X91868808Y-130756819D02*
X91535475Y-129756819D01*
X91535475Y-129756819D02*
X91202142Y-130756819D01*
X90583094Y-131090152D02*
X90821189Y-131090152D01*
X90821189Y-131090152D02*
X90821189Y-129661580D01*
X90821189Y-129661580D02*
X90583094Y-129661580D01*
X89678332Y-130756819D02*
X90249760Y-130756819D01*
X89964046Y-130756819D02*
X89964046Y-129756819D01*
X89964046Y-129756819D02*
X90059284Y-129899676D01*
X90059284Y-129899676D02*
X90154522Y-129994914D01*
X90154522Y-129994914D02*
X90249760Y-130042533D01*
X89059284Y-129756819D02*
X88964046Y-129756819D01*
X88964046Y-129756819D02*
X88868808Y-129804438D01*
X88868808Y-129804438D02*
X88821189Y-129852057D01*
X88821189Y-129852057D02*
X88773570Y-129947295D01*
X88773570Y-129947295D02*
X88725951Y-130137771D01*
X88725951Y-130137771D02*
X88725951Y-130375866D01*
X88725951Y-130375866D02*
X88773570Y-130566342D01*
X88773570Y-130566342D02*
X88821189Y-130661580D01*
X88821189Y-130661580D02*
X88868808Y-130709200D01*
X88868808Y-130709200D02*
X88964046Y-130756819D01*
X88964046Y-130756819D02*
X89059284Y-130756819D01*
X89059284Y-130756819D02*
X89154522Y-130709200D01*
X89154522Y-130709200D02*
X89202141Y-130661580D01*
X89202141Y-130661580D02*
X89249760Y-130566342D01*
X89249760Y-130566342D02*
X89297379Y-130375866D01*
X89297379Y-130375866D02*
X89297379Y-130137771D01*
X89297379Y-130137771D02*
X89249760Y-129947295D01*
X89249760Y-129947295D02*
X89202141Y-129852057D01*
X89202141Y-129852057D02*
X89154522Y-129804438D01*
X89154522Y-129804438D02*
X89059284Y-129756819D01*
X88249760Y-130709200D02*
X88249760Y-130756819D01*
X88249760Y-130756819D02*
X88297379Y-130852057D01*
X88297379Y-130852057D02*
X88344998Y-130899676D01*
X87678332Y-130185390D02*
X87773570Y-130137771D01*
X87773570Y-130137771D02*
X87821189Y-130090152D01*
X87821189Y-130090152D02*
X87868808Y-129994914D01*
X87868808Y-129994914D02*
X87868808Y-129947295D01*
X87868808Y-129947295D02*
X87821189Y-129852057D01*
X87821189Y-129852057D02*
X87773570Y-129804438D01*
X87773570Y-129804438D02*
X87678332Y-129756819D01*
X87678332Y-129756819D02*
X87487856Y-129756819D01*
X87487856Y-129756819D02*
X87392618Y-129804438D01*
X87392618Y-129804438D02*
X87344999Y-129852057D01*
X87344999Y-129852057D02*
X87297380Y-129947295D01*
X87297380Y-129947295D02*
X87297380Y-129994914D01*
X87297380Y-129994914D02*
X87344999Y-130090152D01*
X87344999Y-130090152D02*
X87392618Y-130137771D01*
X87392618Y-130137771D02*
X87487856Y-130185390D01*
X87487856Y-130185390D02*
X87678332Y-130185390D01*
X87678332Y-130185390D02*
X87773570Y-130233009D01*
X87773570Y-130233009D02*
X87821189Y-130280628D01*
X87821189Y-130280628D02*
X87868808Y-130375866D01*
X87868808Y-130375866D02*
X87868808Y-130566342D01*
X87868808Y-130566342D02*
X87821189Y-130661580D01*
X87821189Y-130661580D02*
X87773570Y-130709200D01*
X87773570Y-130709200D02*
X87678332Y-130756819D01*
X87678332Y-130756819D02*
X87487856Y-130756819D01*
X87487856Y-130756819D02*
X87392618Y-130709200D01*
X87392618Y-130709200D02*
X87344999Y-130661580D01*
X87344999Y-130661580D02*
X87297380Y-130566342D01*
X87297380Y-130566342D02*
X87297380Y-130375866D01*
X87297380Y-130375866D02*
X87344999Y-130280628D01*
X87344999Y-130280628D02*
X87392618Y-130233009D01*
X87392618Y-130233009D02*
X87487856Y-130185390D01*
X86821189Y-130709200D02*
X86821189Y-130756819D01*
X86821189Y-130756819D02*
X86868808Y-130852057D01*
X86868808Y-130852057D02*
X86916427Y-130899676D01*
X85964047Y-129756819D02*
X86154523Y-129756819D01*
X86154523Y-129756819D02*
X86249761Y-129804438D01*
X86249761Y-129804438D02*
X86297380Y-129852057D01*
X86297380Y-129852057D02*
X86392618Y-129994914D01*
X86392618Y-129994914D02*
X86440237Y-130185390D01*
X86440237Y-130185390D02*
X86440237Y-130566342D01*
X86440237Y-130566342D02*
X86392618Y-130661580D01*
X86392618Y-130661580D02*
X86344999Y-130709200D01*
X86344999Y-130709200D02*
X86249761Y-130756819D01*
X86249761Y-130756819D02*
X86059285Y-130756819D01*
X86059285Y-130756819D02*
X85964047Y-130709200D01*
X85964047Y-130709200D02*
X85916428Y-130661580D01*
X85916428Y-130661580D02*
X85868809Y-130566342D01*
X85868809Y-130566342D02*
X85868809Y-130328247D01*
X85868809Y-130328247D02*
X85916428Y-130233009D01*
X85916428Y-130233009D02*
X85964047Y-130185390D01*
X85964047Y-130185390D02*
X86059285Y-130137771D01*
X86059285Y-130137771D02*
X86249761Y-130137771D01*
X86249761Y-130137771D02*
X86344999Y-130185390D01*
X86344999Y-130185390D02*
X86392618Y-130233009D01*
X86392618Y-130233009D02*
X86440237Y-130328247D01*
X85392618Y-130709200D02*
X85392618Y-130756819D01*
X85392618Y-130756819D02*
X85440237Y-130852057D01*
X85440237Y-130852057D02*
X85487856Y-130899676D01*
X84535476Y-130090152D02*
X84535476Y-130756819D01*
X84773571Y-129709200D02*
X85011666Y-130423485D01*
X85011666Y-130423485D02*
X84392619Y-130423485D01*
X83964047Y-130709200D02*
X83964047Y-130756819D01*
X83964047Y-130756819D02*
X84011666Y-130852057D01*
X84011666Y-130852057D02*
X84059285Y-130899676D01*
X83583095Y-129852057D02*
X83535476Y-129804438D01*
X83535476Y-129804438D02*
X83440238Y-129756819D01*
X83440238Y-129756819D02*
X83202143Y-129756819D01*
X83202143Y-129756819D02*
X83106905Y-129804438D01*
X83106905Y-129804438D02*
X83059286Y-129852057D01*
X83059286Y-129852057D02*
X83011667Y-129947295D01*
X83011667Y-129947295D02*
X83011667Y-130042533D01*
X83011667Y-130042533D02*
X83059286Y-130185390D01*
X83059286Y-130185390D02*
X83630714Y-130756819D01*
X83630714Y-130756819D02*
X83011667Y-130756819D01*
X82535476Y-130709200D02*
X82535476Y-130756819D01*
X82535476Y-130756819D02*
X82583095Y-130852057D01*
X82583095Y-130852057D02*
X82630714Y-130899676D01*
X81916429Y-129756819D02*
X81821191Y-129756819D01*
X81821191Y-129756819D02*
X81725953Y-129804438D01*
X81725953Y-129804438D02*
X81678334Y-129852057D01*
X81678334Y-129852057D02*
X81630715Y-129947295D01*
X81630715Y-129947295D02*
X81583096Y-130137771D01*
X81583096Y-130137771D02*
X81583096Y-130375866D01*
X81583096Y-130375866D02*
X81630715Y-130566342D01*
X81630715Y-130566342D02*
X81678334Y-130661580D01*
X81678334Y-130661580D02*
X81725953Y-130709200D01*
X81725953Y-130709200D02*
X81821191Y-130756819D01*
X81821191Y-130756819D02*
X81916429Y-130756819D01*
X81916429Y-130756819D02*
X82011667Y-130709200D01*
X82011667Y-130709200D02*
X82059286Y-130661580D01*
X82059286Y-130661580D02*
X82106905Y-130566342D01*
X82106905Y-130566342D02*
X82154524Y-130375866D01*
X82154524Y-130375866D02*
X82154524Y-130137771D01*
X82154524Y-130137771D02*
X82106905Y-129947295D01*
X82106905Y-129947295D02*
X82059286Y-129852057D01*
X82059286Y-129852057D02*
X82011667Y-129804438D01*
X82011667Y-129804438D02*
X81916429Y-129756819D01*
X81249762Y-131090152D02*
X81011667Y-131090152D01*
X81011667Y-131090152D02*
X81011667Y-129661580D01*
X81011667Y-129661580D02*
X81249762Y-129661580D01*
X68937618Y-130756819D02*
X68937618Y-129756819D01*
X68937618Y-129756819D02*
X68699523Y-129756819D01*
X68699523Y-129756819D02*
X68556666Y-129804438D01*
X68556666Y-129804438D02*
X68461428Y-129899676D01*
X68461428Y-129899676D02*
X68413809Y-129994914D01*
X68413809Y-129994914D02*
X68366190Y-130185390D01*
X68366190Y-130185390D02*
X68366190Y-130328247D01*
X68366190Y-130328247D02*
X68413809Y-130518723D01*
X68413809Y-130518723D02*
X68461428Y-130613961D01*
X68461428Y-130613961D02*
X68556666Y-130709200D01*
X68556666Y-130709200D02*
X68699523Y-130756819D01*
X68699523Y-130756819D02*
X68937618Y-130756819D01*
X67651904Y-131090152D02*
X67889999Y-131090152D01*
X67889999Y-131090152D02*
X67889999Y-129661580D01*
X67889999Y-129661580D02*
X67651904Y-129661580D01*
X66842380Y-129756819D02*
X67032856Y-129756819D01*
X67032856Y-129756819D02*
X67128094Y-129804438D01*
X67128094Y-129804438D02*
X67175713Y-129852057D01*
X67175713Y-129852057D02*
X67270951Y-129994914D01*
X67270951Y-129994914D02*
X67318570Y-130185390D01*
X67318570Y-130185390D02*
X67318570Y-130566342D01*
X67318570Y-130566342D02*
X67270951Y-130661580D01*
X67270951Y-130661580D02*
X67223332Y-130709200D01*
X67223332Y-130709200D02*
X67128094Y-130756819D01*
X67128094Y-130756819D02*
X66937618Y-130756819D01*
X66937618Y-130756819D02*
X66842380Y-130709200D01*
X66842380Y-130709200D02*
X66794761Y-130661580D01*
X66794761Y-130661580D02*
X66747142Y-130566342D01*
X66747142Y-130566342D02*
X66747142Y-130328247D01*
X66747142Y-130328247D02*
X66794761Y-130233009D01*
X66794761Y-130233009D02*
X66842380Y-130185390D01*
X66842380Y-130185390D02*
X66937618Y-130137771D01*
X66937618Y-130137771D02*
X67128094Y-130137771D01*
X67128094Y-130137771D02*
X67223332Y-130185390D01*
X67223332Y-130185390D02*
X67270951Y-130233009D01*
X67270951Y-130233009D02*
X67318570Y-130328247D01*
X66270951Y-130709200D02*
X66270951Y-130756819D01*
X66270951Y-130756819D02*
X66318570Y-130852057D01*
X66318570Y-130852057D02*
X66366189Y-130899676D01*
X65413809Y-130090152D02*
X65413809Y-130756819D01*
X65651904Y-129709200D02*
X65889999Y-130423485D01*
X65889999Y-130423485D02*
X65270952Y-130423485D01*
X64842380Y-130709200D02*
X64842380Y-130756819D01*
X64842380Y-130756819D02*
X64889999Y-130852057D01*
X64889999Y-130852057D02*
X64937618Y-130899676D01*
X64461428Y-129852057D02*
X64413809Y-129804438D01*
X64413809Y-129804438D02*
X64318571Y-129756819D01*
X64318571Y-129756819D02*
X64080476Y-129756819D01*
X64080476Y-129756819D02*
X63985238Y-129804438D01*
X63985238Y-129804438D02*
X63937619Y-129852057D01*
X63937619Y-129852057D02*
X63890000Y-129947295D01*
X63890000Y-129947295D02*
X63890000Y-130042533D01*
X63890000Y-130042533D02*
X63937619Y-130185390D01*
X63937619Y-130185390D02*
X64509047Y-130756819D01*
X64509047Y-130756819D02*
X63890000Y-130756819D01*
X63413809Y-130709200D02*
X63413809Y-130756819D01*
X63413809Y-130756819D02*
X63461428Y-130852057D01*
X63461428Y-130852057D02*
X63509047Y-130899676D01*
X62794762Y-129756819D02*
X62699524Y-129756819D01*
X62699524Y-129756819D02*
X62604286Y-129804438D01*
X62604286Y-129804438D02*
X62556667Y-129852057D01*
X62556667Y-129852057D02*
X62509048Y-129947295D01*
X62509048Y-129947295D02*
X62461429Y-130137771D01*
X62461429Y-130137771D02*
X62461429Y-130375866D01*
X62461429Y-130375866D02*
X62509048Y-130566342D01*
X62509048Y-130566342D02*
X62556667Y-130661580D01*
X62556667Y-130661580D02*
X62604286Y-130709200D01*
X62604286Y-130709200D02*
X62699524Y-130756819D01*
X62699524Y-130756819D02*
X62794762Y-130756819D01*
X62794762Y-130756819D02*
X62890000Y-130709200D01*
X62890000Y-130709200D02*
X62937619Y-130661580D01*
X62937619Y-130661580D02*
X62985238Y-130566342D01*
X62985238Y-130566342D02*
X63032857Y-130375866D01*
X63032857Y-130375866D02*
X63032857Y-130137771D01*
X63032857Y-130137771D02*
X62985238Y-129947295D01*
X62985238Y-129947295D02*
X62937619Y-129852057D01*
X62937619Y-129852057D02*
X62890000Y-129804438D01*
X62890000Y-129804438D02*
X62794762Y-129756819D01*
X62128095Y-131090152D02*
X61890000Y-131090152D01*
X61890000Y-131090152D02*
X61890000Y-129661580D01*
X61890000Y-129661580D02*
X62128095Y-129661580D01*
X55510666Y-133042819D02*
X56082094Y-133042819D01*
X55796380Y-133042819D02*
X55796380Y-132042819D01*
X55796380Y-132042819D02*
X55891618Y-132185676D01*
X55891618Y-132185676D02*
X55986856Y-132280914D01*
X55986856Y-132280914D02*
X56082094Y-132328533D01*
X54653523Y-133042819D02*
X54653523Y-132519009D01*
X54653523Y-132519009D02*
X54701142Y-132423771D01*
X54701142Y-132423771D02*
X54796380Y-132376152D01*
X54796380Y-132376152D02*
X54986856Y-132376152D01*
X54986856Y-132376152D02*
X55082094Y-132423771D01*
X54653523Y-132995200D02*
X54748761Y-133042819D01*
X54748761Y-133042819D02*
X54986856Y-133042819D01*
X54986856Y-133042819D02*
X55082094Y-132995200D01*
X55082094Y-132995200D02*
X55129713Y-132899961D01*
X55129713Y-132899961D02*
X55129713Y-132804723D01*
X55129713Y-132804723D02*
X55082094Y-132709485D01*
X55082094Y-132709485D02*
X54986856Y-132661866D01*
X54986856Y-132661866D02*
X54748761Y-132661866D01*
X54748761Y-132661866D02*
X54653523Y-132614247D01*
X54792180Y-131290237D02*
X55792180Y-131290237D01*
X55792180Y-131290237D02*
X54792180Y-130718809D01*
X54792180Y-130718809D02*
X55792180Y-130718809D01*
X54792180Y-130242618D02*
X55792180Y-130242618D01*
X55792180Y-130242618D02*
X55077895Y-129909285D01*
X55077895Y-129909285D02*
X55792180Y-129575952D01*
X55792180Y-129575952D02*
X54792180Y-129575952D01*
X54792180Y-129099761D02*
X55792180Y-129099761D01*
X56069800Y-131428333D02*
X56069800Y-128961667D01*
X110358438Y-128911095D02*
X110310819Y-128815857D01*
X110310819Y-128815857D02*
X110310819Y-128673000D01*
X110310819Y-128673000D02*
X110358438Y-128530143D01*
X110358438Y-128530143D02*
X110453676Y-128434905D01*
X110453676Y-128434905D02*
X110548914Y-128387286D01*
X110548914Y-128387286D02*
X110739390Y-128339667D01*
X110739390Y-128339667D02*
X110882247Y-128339667D01*
X110882247Y-128339667D02*
X111072723Y-128387286D01*
X111072723Y-128387286D02*
X111167961Y-128434905D01*
X111167961Y-128434905D02*
X111263200Y-128530143D01*
X111263200Y-128530143D02*
X111310819Y-128673000D01*
X111310819Y-128673000D02*
X111310819Y-128768238D01*
X111310819Y-128768238D02*
X111263200Y-128911095D01*
X111263200Y-128911095D02*
X111215580Y-128958714D01*
X111215580Y-128958714D02*
X110882247Y-128958714D01*
X110882247Y-128958714D02*
X110882247Y-128768238D01*
X111310819Y-129387286D02*
X110310819Y-129387286D01*
X110310819Y-129387286D02*
X111310819Y-129958714D01*
X111310819Y-129958714D02*
X110310819Y-129958714D01*
X111310819Y-130434905D02*
X110310819Y-130434905D01*
X110310819Y-130434905D02*
X110310819Y-130673000D01*
X110310819Y-130673000D02*
X110358438Y-130815857D01*
X110358438Y-130815857D02*
X110453676Y-130911095D01*
X110453676Y-130911095D02*
X110548914Y-130958714D01*
X110548914Y-130958714D02*
X110739390Y-131006333D01*
X110739390Y-131006333D02*
X110882247Y-131006333D01*
X110882247Y-131006333D02*
X111072723Y-130958714D01*
X111072723Y-130958714D02*
X111167961Y-130911095D01*
X111167961Y-130911095D02*
X111263200Y-130815857D01*
X111263200Y-130815857D02*
X111310819Y-130673000D01*
X111310819Y-130673000D02*
X111310819Y-130434905D01*
X99687857Y-133042819D02*
X100259285Y-133042819D01*
X99973571Y-133042819D02*
X99973571Y-132042819D01*
X99973571Y-132042819D02*
X100068809Y-132185676D01*
X100068809Y-132185676D02*
X100164047Y-132280914D01*
X100164047Y-132280914D02*
X100259285Y-132328533D01*
X99306904Y-132138057D02*
X99259285Y-132090438D01*
X99259285Y-132090438D02*
X99164047Y-132042819D01*
X99164047Y-132042819D02*
X98925952Y-132042819D01*
X98925952Y-132042819D02*
X98830714Y-132090438D01*
X98830714Y-132090438D02*
X98783095Y-132138057D01*
X98783095Y-132138057D02*
X98735476Y-132233295D01*
X98735476Y-132233295D02*
X98735476Y-132328533D01*
X98735476Y-132328533D02*
X98783095Y-132471390D01*
X98783095Y-132471390D02*
X99354523Y-133042819D01*
X99354523Y-133042819D02*
X98735476Y-133042819D01*
X97878333Y-133042819D02*
X97878333Y-132519009D01*
X97878333Y-132519009D02*
X97925952Y-132423771D01*
X97925952Y-132423771D02*
X98021190Y-132376152D01*
X98021190Y-132376152D02*
X98211666Y-132376152D01*
X98211666Y-132376152D02*
X98306904Y-132423771D01*
X97878333Y-132995200D02*
X97973571Y-133042819D01*
X97973571Y-133042819D02*
X98211666Y-133042819D01*
X98211666Y-133042819D02*
X98306904Y-132995200D01*
X98306904Y-132995200D02*
X98354523Y-132899961D01*
X98354523Y-132899961D02*
X98354523Y-132804723D01*
X98354523Y-132804723D02*
X98306904Y-132709485D01*
X98306904Y-132709485D02*
X98211666Y-132661866D01*
X98211666Y-132661866D02*
X97973571Y-132661866D01*
X97973571Y-132661866D02*
X97878333Y-132614247D01*
X71446285Y-132042819D02*
X71922475Y-132042819D01*
X71922475Y-132042819D02*
X71970094Y-132519009D01*
X71970094Y-132519009D02*
X71922475Y-132471390D01*
X71922475Y-132471390D02*
X71827237Y-132423771D01*
X71827237Y-132423771D02*
X71589142Y-132423771D01*
X71589142Y-132423771D02*
X71493904Y-132471390D01*
X71493904Y-132471390D02*
X71446285Y-132519009D01*
X71446285Y-132519009D02*
X71398666Y-132614247D01*
X71398666Y-132614247D02*
X71398666Y-132852342D01*
X71398666Y-132852342D02*
X71446285Y-132947580D01*
X71446285Y-132947580D02*
X71493904Y-132995200D01*
X71493904Y-132995200D02*
X71589142Y-133042819D01*
X71589142Y-133042819D02*
X71827237Y-133042819D01*
X71827237Y-133042819D02*
X71922475Y-132995200D01*
X71922475Y-132995200D02*
X71970094Y-132947580D01*
X70541523Y-133042819D02*
X70541523Y-132519009D01*
X70541523Y-132519009D02*
X70589142Y-132423771D01*
X70589142Y-132423771D02*
X70684380Y-132376152D01*
X70684380Y-132376152D02*
X70874856Y-132376152D01*
X70874856Y-132376152D02*
X70970094Y-132423771D01*
X70541523Y-132995200D02*
X70636761Y-133042819D01*
X70636761Y-133042819D02*
X70874856Y-133042819D01*
X70874856Y-133042819D02*
X70970094Y-132995200D01*
X70970094Y-132995200D02*
X71017713Y-132899961D01*
X71017713Y-132899961D02*
X71017713Y-132804723D01*
X71017713Y-132804723D02*
X70970094Y-132709485D01*
X70970094Y-132709485D02*
X70874856Y-132661866D01*
X70874856Y-132661866D02*
X70636761Y-132661866D01*
X70636761Y-132661866D02*
X70541523Y-132614247D01*
X64143713Y-132042819D02*
X63524666Y-132042819D01*
X63524666Y-132042819D02*
X63857999Y-132423771D01*
X63857999Y-132423771D02*
X63715142Y-132423771D01*
X63715142Y-132423771D02*
X63619904Y-132471390D01*
X63619904Y-132471390D02*
X63572285Y-132519009D01*
X63572285Y-132519009D02*
X63524666Y-132614247D01*
X63524666Y-132614247D02*
X63524666Y-132852342D01*
X63524666Y-132852342D02*
X63572285Y-132947580D01*
X63572285Y-132947580D02*
X63619904Y-132995200D01*
X63619904Y-132995200D02*
X63715142Y-133042819D01*
X63715142Y-133042819D02*
X64000856Y-133042819D01*
X64000856Y-133042819D02*
X64096094Y-132995200D01*
X64096094Y-132995200D02*
X64143713Y-132947580D01*
X62667523Y-133042819D02*
X62667523Y-132519009D01*
X62667523Y-132519009D02*
X62715142Y-132423771D01*
X62715142Y-132423771D02*
X62810380Y-132376152D01*
X62810380Y-132376152D02*
X63000856Y-132376152D01*
X63000856Y-132376152D02*
X63096094Y-132423771D01*
X62667523Y-132995200D02*
X62762761Y-133042819D01*
X62762761Y-133042819D02*
X63000856Y-133042819D01*
X63000856Y-133042819D02*
X63096094Y-132995200D01*
X63096094Y-132995200D02*
X63143713Y-132899961D01*
X63143713Y-132899961D02*
X63143713Y-132804723D01*
X63143713Y-132804723D02*
X63096094Y-132709485D01*
X63096094Y-132709485D02*
X63000856Y-132661866D01*
X63000856Y-132661866D02*
X62762761Y-132661866D01*
X62762761Y-132661866D02*
X62667523Y-132614247D01*
X103624857Y-133042819D02*
X104196285Y-133042819D01*
X103910571Y-133042819D02*
X103910571Y-132042819D01*
X103910571Y-132042819D02*
X104005809Y-132185676D01*
X104005809Y-132185676D02*
X104101047Y-132280914D01*
X104101047Y-132280914D02*
X104196285Y-132328533D01*
X103291523Y-132042819D02*
X102672476Y-132042819D01*
X102672476Y-132042819D02*
X103005809Y-132423771D01*
X103005809Y-132423771D02*
X102862952Y-132423771D01*
X102862952Y-132423771D02*
X102767714Y-132471390D01*
X102767714Y-132471390D02*
X102720095Y-132519009D01*
X102720095Y-132519009D02*
X102672476Y-132614247D01*
X102672476Y-132614247D02*
X102672476Y-132852342D01*
X102672476Y-132852342D02*
X102720095Y-132947580D01*
X102720095Y-132947580D02*
X102767714Y-132995200D01*
X102767714Y-132995200D02*
X102862952Y-133042819D01*
X102862952Y-133042819D02*
X103148666Y-133042819D01*
X103148666Y-133042819D02*
X103243904Y-132995200D01*
X103243904Y-132995200D02*
X103291523Y-132947580D01*
X101815333Y-133042819D02*
X101815333Y-132519009D01*
X101815333Y-132519009D02*
X101862952Y-132423771D01*
X101862952Y-132423771D02*
X101958190Y-132376152D01*
X101958190Y-132376152D02*
X102148666Y-132376152D01*
X102148666Y-132376152D02*
X102243904Y-132423771D01*
X101815333Y-132995200D02*
X101910571Y-133042819D01*
X101910571Y-133042819D02*
X102148666Y-133042819D01*
X102148666Y-133042819D02*
X102243904Y-132995200D01*
X102243904Y-132995200D02*
X102291523Y-132899961D01*
X102291523Y-132899961D02*
X102291523Y-132804723D01*
X102291523Y-132804723D02*
X102243904Y-132709485D01*
X102243904Y-132709485D02*
X102148666Y-132661866D01*
X102148666Y-132661866D02*
X101910571Y-132661866D01*
X101910571Y-132661866D02*
X101815333Y-132614247D01*
X91686857Y-133042819D02*
X92258285Y-133042819D01*
X91972571Y-133042819D02*
X91972571Y-132042819D01*
X91972571Y-132042819D02*
X92067809Y-132185676D01*
X92067809Y-132185676D02*
X92163047Y-132280914D01*
X92163047Y-132280914D02*
X92258285Y-132328533D01*
X91067809Y-132042819D02*
X90972571Y-132042819D01*
X90972571Y-132042819D02*
X90877333Y-132090438D01*
X90877333Y-132090438D02*
X90829714Y-132138057D01*
X90829714Y-132138057D02*
X90782095Y-132233295D01*
X90782095Y-132233295D02*
X90734476Y-132423771D01*
X90734476Y-132423771D02*
X90734476Y-132661866D01*
X90734476Y-132661866D02*
X90782095Y-132852342D01*
X90782095Y-132852342D02*
X90829714Y-132947580D01*
X90829714Y-132947580D02*
X90877333Y-132995200D01*
X90877333Y-132995200D02*
X90972571Y-133042819D01*
X90972571Y-133042819D02*
X91067809Y-133042819D01*
X91067809Y-133042819D02*
X91163047Y-132995200D01*
X91163047Y-132995200D02*
X91210666Y-132947580D01*
X91210666Y-132947580D02*
X91258285Y-132852342D01*
X91258285Y-132852342D02*
X91305904Y-132661866D01*
X91305904Y-132661866D02*
X91305904Y-132423771D01*
X91305904Y-132423771D02*
X91258285Y-132233295D01*
X91258285Y-132233295D02*
X91210666Y-132138057D01*
X91210666Y-132138057D02*
X91163047Y-132090438D01*
X91163047Y-132090438D02*
X91067809Y-132042819D01*
X89877333Y-133042819D02*
X89877333Y-132519009D01*
X89877333Y-132519009D02*
X89924952Y-132423771D01*
X89924952Y-132423771D02*
X90020190Y-132376152D01*
X90020190Y-132376152D02*
X90210666Y-132376152D01*
X90210666Y-132376152D02*
X90305904Y-132423771D01*
X89877333Y-132995200D02*
X89972571Y-133042819D01*
X89972571Y-133042819D02*
X90210666Y-133042819D01*
X90210666Y-133042819D02*
X90305904Y-132995200D01*
X90305904Y-132995200D02*
X90353523Y-132899961D01*
X90353523Y-132899961D02*
X90353523Y-132804723D01*
X90353523Y-132804723D02*
X90305904Y-132709485D01*
X90305904Y-132709485D02*
X90210666Y-132661866D01*
X90210666Y-132661866D02*
X89972571Y-132661866D01*
X89972571Y-132661866D02*
X89877333Y-132614247D01*
X75430904Y-132042819D02*
X75621380Y-132042819D01*
X75621380Y-132042819D02*
X75716618Y-132090438D01*
X75716618Y-132090438D02*
X75764237Y-132138057D01*
X75764237Y-132138057D02*
X75859475Y-132280914D01*
X75859475Y-132280914D02*
X75907094Y-132471390D01*
X75907094Y-132471390D02*
X75907094Y-132852342D01*
X75907094Y-132852342D02*
X75859475Y-132947580D01*
X75859475Y-132947580D02*
X75811856Y-132995200D01*
X75811856Y-132995200D02*
X75716618Y-133042819D01*
X75716618Y-133042819D02*
X75526142Y-133042819D01*
X75526142Y-133042819D02*
X75430904Y-132995200D01*
X75430904Y-132995200D02*
X75383285Y-132947580D01*
X75383285Y-132947580D02*
X75335666Y-132852342D01*
X75335666Y-132852342D02*
X75335666Y-132614247D01*
X75335666Y-132614247D02*
X75383285Y-132519009D01*
X75383285Y-132519009D02*
X75430904Y-132471390D01*
X75430904Y-132471390D02*
X75526142Y-132423771D01*
X75526142Y-132423771D02*
X75716618Y-132423771D01*
X75716618Y-132423771D02*
X75811856Y-132471390D01*
X75811856Y-132471390D02*
X75859475Y-132519009D01*
X75859475Y-132519009D02*
X75907094Y-132614247D01*
X74478523Y-133042819D02*
X74478523Y-132519009D01*
X74478523Y-132519009D02*
X74526142Y-132423771D01*
X74526142Y-132423771D02*
X74621380Y-132376152D01*
X74621380Y-132376152D02*
X74811856Y-132376152D01*
X74811856Y-132376152D02*
X74907094Y-132423771D01*
X74478523Y-132995200D02*
X74573761Y-133042819D01*
X74573761Y-133042819D02*
X74811856Y-133042819D01*
X74811856Y-133042819D02*
X74907094Y-132995200D01*
X74907094Y-132995200D02*
X74954713Y-132899961D01*
X74954713Y-132899961D02*
X74954713Y-132804723D01*
X74954713Y-132804723D02*
X74907094Y-132709485D01*
X74907094Y-132709485D02*
X74811856Y-132661866D01*
X74811856Y-132661866D02*
X74573761Y-132661866D01*
X74573761Y-132661866D02*
X74478523Y-132614247D01*
X83717618Y-132471390D02*
X83812856Y-132423771D01*
X83812856Y-132423771D02*
X83860475Y-132376152D01*
X83860475Y-132376152D02*
X83908094Y-132280914D01*
X83908094Y-132280914D02*
X83908094Y-132233295D01*
X83908094Y-132233295D02*
X83860475Y-132138057D01*
X83860475Y-132138057D02*
X83812856Y-132090438D01*
X83812856Y-132090438D02*
X83717618Y-132042819D01*
X83717618Y-132042819D02*
X83527142Y-132042819D01*
X83527142Y-132042819D02*
X83431904Y-132090438D01*
X83431904Y-132090438D02*
X83384285Y-132138057D01*
X83384285Y-132138057D02*
X83336666Y-132233295D01*
X83336666Y-132233295D02*
X83336666Y-132280914D01*
X83336666Y-132280914D02*
X83384285Y-132376152D01*
X83384285Y-132376152D02*
X83431904Y-132423771D01*
X83431904Y-132423771D02*
X83527142Y-132471390D01*
X83527142Y-132471390D02*
X83717618Y-132471390D01*
X83717618Y-132471390D02*
X83812856Y-132519009D01*
X83812856Y-132519009D02*
X83860475Y-132566628D01*
X83860475Y-132566628D02*
X83908094Y-132661866D01*
X83908094Y-132661866D02*
X83908094Y-132852342D01*
X83908094Y-132852342D02*
X83860475Y-132947580D01*
X83860475Y-132947580D02*
X83812856Y-132995200D01*
X83812856Y-132995200D02*
X83717618Y-133042819D01*
X83717618Y-133042819D02*
X83527142Y-133042819D01*
X83527142Y-133042819D02*
X83431904Y-132995200D01*
X83431904Y-132995200D02*
X83384285Y-132947580D01*
X83384285Y-132947580D02*
X83336666Y-132852342D01*
X83336666Y-132852342D02*
X83336666Y-132661866D01*
X83336666Y-132661866D02*
X83384285Y-132566628D01*
X83384285Y-132566628D02*
X83431904Y-132519009D01*
X83431904Y-132519009D02*
X83527142Y-132471390D01*
X82479523Y-133042819D02*
X82479523Y-132519009D01*
X82479523Y-132519009D02*
X82527142Y-132423771D01*
X82527142Y-132423771D02*
X82622380Y-132376152D01*
X82622380Y-132376152D02*
X82812856Y-132376152D01*
X82812856Y-132376152D02*
X82908094Y-132423771D01*
X82479523Y-132995200D02*
X82574761Y-133042819D01*
X82574761Y-133042819D02*
X82812856Y-133042819D01*
X82812856Y-133042819D02*
X82908094Y-132995200D01*
X82908094Y-132995200D02*
X82955713Y-132899961D01*
X82955713Y-132899961D02*
X82955713Y-132804723D01*
X82955713Y-132804723D02*
X82908094Y-132709485D01*
X82908094Y-132709485D02*
X82812856Y-132661866D01*
X82812856Y-132661866D02*
X82574761Y-132661866D01*
X82574761Y-132661866D02*
X82479523Y-132614247D01*
X67556904Y-132376152D02*
X67556904Y-133042819D01*
X67794999Y-131995200D02*
X68033094Y-132709485D01*
X68033094Y-132709485D02*
X67414047Y-132709485D01*
X66604523Y-133042819D02*
X66604523Y-132519009D01*
X66604523Y-132519009D02*
X66652142Y-132423771D01*
X66652142Y-132423771D02*
X66747380Y-132376152D01*
X66747380Y-132376152D02*
X66937856Y-132376152D01*
X66937856Y-132376152D02*
X67033094Y-132423771D01*
X66604523Y-132995200D02*
X66699761Y-133042819D01*
X66699761Y-133042819D02*
X66937856Y-133042819D01*
X66937856Y-133042819D02*
X67033094Y-132995200D01*
X67033094Y-132995200D02*
X67080713Y-132899961D01*
X67080713Y-132899961D02*
X67080713Y-132804723D01*
X67080713Y-132804723D02*
X67033094Y-132709485D01*
X67033094Y-132709485D02*
X66937856Y-132661866D01*
X66937856Y-132661866D02*
X66699761Y-132661866D01*
X66699761Y-132661866D02*
X66604523Y-132614247D01*
X60032094Y-132138057D02*
X59984475Y-132090438D01*
X59984475Y-132090438D02*
X59889237Y-132042819D01*
X59889237Y-132042819D02*
X59651142Y-132042819D01*
X59651142Y-132042819D02*
X59555904Y-132090438D01*
X59555904Y-132090438D02*
X59508285Y-132138057D01*
X59508285Y-132138057D02*
X59460666Y-132233295D01*
X59460666Y-132233295D02*
X59460666Y-132328533D01*
X59460666Y-132328533D02*
X59508285Y-132471390D01*
X59508285Y-132471390D02*
X60079713Y-133042819D01*
X60079713Y-133042819D02*
X59460666Y-133042819D01*
X58603523Y-133042819D02*
X58603523Y-132519009D01*
X58603523Y-132519009D02*
X58651142Y-132423771D01*
X58651142Y-132423771D02*
X58746380Y-132376152D01*
X58746380Y-132376152D02*
X58936856Y-132376152D01*
X58936856Y-132376152D02*
X59032094Y-132423771D01*
X58603523Y-132995200D02*
X58698761Y-133042819D01*
X58698761Y-133042819D02*
X58936856Y-133042819D01*
X58936856Y-133042819D02*
X59032094Y-132995200D01*
X59032094Y-132995200D02*
X59079713Y-132899961D01*
X59079713Y-132899961D02*
X59079713Y-132804723D01*
X59079713Y-132804723D02*
X59032094Y-132709485D01*
X59032094Y-132709485D02*
X58936856Y-132661866D01*
X58936856Y-132661866D02*
X58698761Y-132661866D01*
X58698761Y-132661866D02*
X58603523Y-132614247D01*
X79891713Y-132042819D02*
X79225047Y-132042819D01*
X79225047Y-132042819D02*
X79653618Y-133042819D01*
X78415523Y-133042819D02*
X78415523Y-132519009D01*
X78415523Y-132519009D02*
X78463142Y-132423771D01*
X78463142Y-132423771D02*
X78558380Y-132376152D01*
X78558380Y-132376152D02*
X78748856Y-132376152D01*
X78748856Y-132376152D02*
X78844094Y-132423771D01*
X78415523Y-132995200D02*
X78510761Y-133042819D01*
X78510761Y-133042819D02*
X78748856Y-133042819D01*
X78748856Y-133042819D02*
X78844094Y-132995200D01*
X78844094Y-132995200D02*
X78891713Y-132899961D01*
X78891713Y-132899961D02*
X78891713Y-132804723D01*
X78891713Y-132804723D02*
X78844094Y-132709485D01*
X78844094Y-132709485D02*
X78748856Y-132661866D01*
X78748856Y-132661866D02*
X78510761Y-132661866D01*
X78510761Y-132661866D02*
X78415523Y-132614247D01*
X95750857Y-133042819D02*
X96322285Y-133042819D01*
X96036571Y-133042819D02*
X96036571Y-132042819D01*
X96036571Y-132042819D02*
X96131809Y-132185676D01*
X96131809Y-132185676D02*
X96227047Y-132280914D01*
X96227047Y-132280914D02*
X96322285Y-132328533D01*
X94798476Y-133042819D02*
X95369904Y-133042819D01*
X95084190Y-133042819D02*
X95084190Y-132042819D01*
X95084190Y-132042819D02*
X95179428Y-132185676D01*
X95179428Y-132185676D02*
X95274666Y-132280914D01*
X95274666Y-132280914D02*
X95369904Y-132328533D01*
X93941333Y-133042819D02*
X93941333Y-132519009D01*
X93941333Y-132519009D02*
X93988952Y-132423771D01*
X93988952Y-132423771D02*
X94084190Y-132376152D01*
X94084190Y-132376152D02*
X94274666Y-132376152D01*
X94274666Y-132376152D02*
X94369904Y-132423771D01*
X93941333Y-132995200D02*
X94036571Y-133042819D01*
X94036571Y-133042819D02*
X94274666Y-133042819D01*
X94274666Y-133042819D02*
X94369904Y-132995200D01*
X94369904Y-132995200D02*
X94417523Y-132899961D01*
X94417523Y-132899961D02*
X94417523Y-132804723D01*
X94417523Y-132804723D02*
X94369904Y-132709485D01*
X94369904Y-132709485D02*
X94274666Y-132661866D01*
X94274666Y-132661866D02*
X94036571Y-132661866D01*
X94036571Y-132661866D02*
X93941333Y-132614247D01*
X87749856Y-133042819D02*
X87559380Y-133042819D01*
X87559380Y-133042819D02*
X87464142Y-132995200D01*
X87464142Y-132995200D02*
X87416523Y-132947580D01*
X87416523Y-132947580D02*
X87321285Y-132804723D01*
X87321285Y-132804723D02*
X87273666Y-132614247D01*
X87273666Y-132614247D02*
X87273666Y-132233295D01*
X87273666Y-132233295D02*
X87321285Y-132138057D01*
X87321285Y-132138057D02*
X87368904Y-132090438D01*
X87368904Y-132090438D02*
X87464142Y-132042819D01*
X87464142Y-132042819D02*
X87654618Y-132042819D01*
X87654618Y-132042819D02*
X87749856Y-132090438D01*
X87749856Y-132090438D02*
X87797475Y-132138057D01*
X87797475Y-132138057D02*
X87845094Y-132233295D01*
X87845094Y-132233295D02*
X87845094Y-132471390D01*
X87845094Y-132471390D02*
X87797475Y-132566628D01*
X87797475Y-132566628D02*
X87749856Y-132614247D01*
X87749856Y-132614247D02*
X87654618Y-132661866D01*
X87654618Y-132661866D02*
X87464142Y-132661866D01*
X87464142Y-132661866D02*
X87368904Y-132614247D01*
X87368904Y-132614247D02*
X87321285Y-132566628D01*
X87321285Y-132566628D02*
X87273666Y-132471390D01*
X86416523Y-133042819D02*
X86416523Y-132519009D01*
X86416523Y-132519009D02*
X86464142Y-132423771D01*
X86464142Y-132423771D02*
X86559380Y-132376152D01*
X86559380Y-132376152D02*
X86749856Y-132376152D01*
X86749856Y-132376152D02*
X86845094Y-132423771D01*
X86416523Y-132995200D02*
X86511761Y-133042819D01*
X86511761Y-133042819D02*
X86749856Y-133042819D01*
X86749856Y-133042819D02*
X86845094Y-132995200D01*
X86845094Y-132995200D02*
X86892713Y-132899961D01*
X86892713Y-132899961D02*
X86892713Y-132804723D01*
X86892713Y-132804723D02*
X86845094Y-132709485D01*
X86845094Y-132709485D02*
X86749856Y-132661866D01*
X86749856Y-132661866D02*
X86511761Y-132661866D01*
X86511761Y-132661866D02*
X86416523Y-132614247D01*
X75372904Y-83361819D02*
X75372904Y-84171342D01*
X75372904Y-84171342D02*
X75325285Y-84266580D01*
X75325285Y-84266580D02*
X75277666Y-84314200D01*
X75277666Y-84314200D02*
X75182428Y-84361819D01*
X75182428Y-84361819D02*
X74991952Y-84361819D01*
X74991952Y-84361819D02*
X74896714Y-84314200D01*
X74896714Y-84314200D02*
X74849095Y-84266580D01*
X74849095Y-84266580D02*
X74801476Y-84171342D01*
X74801476Y-84171342D02*
X74801476Y-83361819D01*
X74420523Y-83361819D02*
X73801476Y-83361819D01*
X73801476Y-83361819D02*
X74134809Y-83742771D01*
X74134809Y-83742771D02*
X73991952Y-83742771D01*
X73991952Y-83742771D02*
X73896714Y-83790390D01*
X73896714Y-83790390D02*
X73849095Y-83838009D01*
X73849095Y-83838009D02*
X73801476Y-83933247D01*
X73801476Y-83933247D02*
X73801476Y-84171342D01*
X73801476Y-84171342D02*
X73849095Y-84266580D01*
X73849095Y-84266580D02*
X73896714Y-84314200D01*
X73896714Y-84314200D02*
X73991952Y-84361819D01*
X73991952Y-84361819D02*
X74277666Y-84361819D01*
X74277666Y-84361819D02*
X74372904Y-84314200D01*
X74372904Y-84314200D02*
X74420523Y-84266580D01*
X77468713Y-103499819D02*
X76802047Y-103499819D01*
X76802047Y-103499819D02*
X77230618Y-104499819D01*
X75992523Y-103833152D02*
X75992523Y-104499819D01*
X76230618Y-103452200D02*
X76468713Y-104166485D01*
X76468713Y-104166485D02*
X75849666Y-104166485D01*
X75468713Y-104499819D02*
X75468713Y-103499819D01*
X75468713Y-103976009D02*
X74897285Y-103976009D01*
X74897285Y-104499819D02*
X74897285Y-103499819D01*
X73849666Y-104404580D02*
X73897285Y-104452200D01*
X73897285Y-104452200D02*
X74040142Y-104499819D01*
X74040142Y-104499819D02*
X74135380Y-104499819D01*
X74135380Y-104499819D02*
X74278237Y-104452200D01*
X74278237Y-104452200D02*
X74373475Y-104356961D01*
X74373475Y-104356961D02*
X74421094Y-104261723D01*
X74421094Y-104261723D02*
X74468713Y-104071247D01*
X74468713Y-104071247D02*
X74468713Y-103928390D01*
X74468713Y-103928390D02*
X74421094Y-103737914D01*
X74421094Y-103737914D02*
X74373475Y-103642676D01*
X74373475Y-103642676D02*
X74278237Y-103547438D01*
X74278237Y-103547438D02*
X74135380Y-103499819D01*
X74135380Y-103499819D02*
X74040142Y-103499819D01*
X74040142Y-103499819D02*
X73897285Y-103547438D01*
X73897285Y-103547438D02*
X73849666Y-103595057D01*
X73230618Y-103499819D02*
X73135380Y-103499819D01*
X73135380Y-103499819D02*
X73040142Y-103547438D01*
X73040142Y-103547438D02*
X72992523Y-103595057D01*
X72992523Y-103595057D02*
X72944904Y-103690295D01*
X72944904Y-103690295D02*
X72897285Y-103880771D01*
X72897285Y-103880771D02*
X72897285Y-104118866D01*
X72897285Y-104118866D02*
X72944904Y-104309342D01*
X72944904Y-104309342D02*
X72992523Y-104404580D01*
X72992523Y-104404580D02*
X73040142Y-104452200D01*
X73040142Y-104452200D02*
X73135380Y-104499819D01*
X73135380Y-104499819D02*
X73230618Y-104499819D01*
X73230618Y-104499819D02*
X73325856Y-104452200D01*
X73325856Y-104452200D02*
X73373475Y-104404580D01*
X73373475Y-104404580D02*
X73421094Y-104309342D01*
X73421094Y-104309342D02*
X73468713Y-104118866D01*
X73468713Y-104118866D02*
X73468713Y-103880771D01*
X73468713Y-103880771D02*
X73421094Y-103690295D01*
X73421094Y-103690295D02*
X73373475Y-103595057D01*
X73373475Y-103595057D02*
X73325856Y-103547438D01*
X73325856Y-103547438D02*
X73230618Y-103499819D01*
X72278237Y-103499819D02*
X72182999Y-103499819D01*
X72182999Y-103499819D02*
X72087761Y-103547438D01*
X72087761Y-103547438D02*
X72040142Y-103595057D01*
X72040142Y-103595057D02*
X71992523Y-103690295D01*
X71992523Y-103690295D02*
X71944904Y-103880771D01*
X71944904Y-103880771D02*
X71944904Y-104118866D01*
X71944904Y-104118866D02*
X71992523Y-104309342D01*
X71992523Y-104309342D02*
X72040142Y-104404580D01*
X72040142Y-104404580D02*
X72087761Y-104452200D01*
X72087761Y-104452200D02*
X72182999Y-104499819D01*
X72182999Y-104499819D02*
X72278237Y-104499819D01*
X72278237Y-104499819D02*
X72373475Y-104452200D01*
X72373475Y-104452200D02*
X72421094Y-104404580D01*
X72421094Y-104404580D02*
X72468713Y-104309342D01*
X72468713Y-104309342D02*
X72516332Y-104118866D01*
X72516332Y-104118866D02*
X72516332Y-103880771D01*
X72516332Y-103880771D02*
X72468713Y-103690295D01*
X72468713Y-103690295D02*
X72421094Y-103595057D01*
X72421094Y-103595057D02*
X72373475Y-103547438D01*
X72373475Y-103547438D02*
X72278237Y-103499819D01*
X74777666Y-78976580D02*
X74825285Y-79024200D01*
X74825285Y-79024200D02*
X74968142Y-79071819D01*
X74968142Y-79071819D02*
X75063380Y-79071819D01*
X75063380Y-79071819D02*
X75206237Y-79024200D01*
X75206237Y-79024200D02*
X75301475Y-78928961D01*
X75301475Y-78928961D02*
X75349094Y-78833723D01*
X75349094Y-78833723D02*
X75396713Y-78643247D01*
X75396713Y-78643247D02*
X75396713Y-78500390D01*
X75396713Y-78500390D02*
X75349094Y-78309914D01*
X75349094Y-78309914D02*
X75301475Y-78214676D01*
X75301475Y-78214676D02*
X75206237Y-78119438D01*
X75206237Y-78119438D02*
X75063380Y-78071819D01*
X75063380Y-78071819D02*
X74968142Y-78071819D01*
X74968142Y-78071819D02*
X74825285Y-78119438D01*
X74825285Y-78119438D02*
X74777666Y-78167057D01*
X73872904Y-78071819D02*
X74349094Y-78071819D01*
X74349094Y-78071819D02*
X74396713Y-78548009D01*
X74396713Y-78548009D02*
X74349094Y-78500390D01*
X74349094Y-78500390D02*
X74253856Y-78452771D01*
X74253856Y-78452771D02*
X74015761Y-78452771D01*
X74015761Y-78452771D02*
X73920523Y-78500390D01*
X73920523Y-78500390D02*
X73872904Y-78548009D01*
X73872904Y-78548009D02*
X73825285Y-78643247D01*
X73825285Y-78643247D02*
X73825285Y-78881342D01*
X73825285Y-78881342D02*
X73872904Y-78976580D01*
X73872904Y-78976580D02*
X73920523Y-79024200D01*
X73920523Y-79024200D02*
X74015761Y-79071819D01*
X74015761Y-79071819D02*
X74253856Y-79071819D01*
X74253856Y-79071819D02*
X74349094Y-79024200D01*
X74349094Y-79024200D02*
X74396713Y-78976580D01*
X74267333Y-81152366D02*
X74300666Y-81185700D01*
X74300666Y-81185700D02*
X74400666Y-81219033D01*
X74400666Y-81219033D02*
X74467333Y-81219033D01*
X74467333Y-81219033D02*
X74567333Y-81185700D01*
X74567333Y-81185700D02*
X74634000Y-81119033D01*
X74634000Y-81119033D02*
X74667333Y-81052366D01*
X74667333Y-81052366D02*
X74700666Y-80919033D01*
X74700666Y-80919033D02*
X74700666Y-80819033D01*
X74700666Y-80819033D02*
X74667333Y-80685700D01*
X74667333Y-80685700D02*
X74634000Y-80619033D01*
X74634000Y-80619033D02*
X74567333Y-80552366D01*
X74567333Y-80552366D02*
X74467333Y-80519033D01*
X74467333Y-80519033D02*
X74400666Y-80519033D01*
X74400666Y-80519033D02*
X74300666Y-80552366D01*
X74300666Y-80552366D02*
X74267333Y-80585700D01*
X48700666Y-59737580D02*
X48748285Y-59785200D01*
X48748285Y-59785200D02*
X48891142Y-59832819D01*
X48891142Y-59832819D02*
X48986380Y-59832819D01*
X48986380Y-59832819D02*
X49129237Y-59785200D01*
X49129237Y-59785200D02*
X49224475Y-59689961D01*
X49224475Y-59689961D02*
X49272094Y-59594723D01*
X49272094Y-59594723D02*
X49319713Y-59404247D01*
X49319713Y-59404247D02*
X49319713Y-59261390D01*
X49319713Y-59261390D02*
X49272094Y-59070914D01*
X49272094Y-59070914D02*
X49224475Y-58975676D01*
X49224475Y-58975676D02*
X49129237Y-58880438D01*
X49129237Y-58880438D02*
X48986380Y-58832819D01*
X48986380Y-58832819D02*
X48891142Y-58832819D01*
X48891142Y-58832819D02*
X48748285Y-58880438D01*
X48748285Y-58880438D02*
X48700666Y-58928057D01*
X48319713Y-58928057D02*
X48272094Y-58880438D01*
X48272094Y-58880438D02*
X48176856Y-58832819D01*
X48176856Y-58832819D02*
X47938761Y-58832819D01*
X47938761Y-58832819D02*
X47843523Y-58880438D01*
X47843523Y-58880438D02*
X47795904Y-58928057D01*
X47795904Y-58928057D02*
X47748285Y-59023295D01*
X47748285Y-59023295D02*
X47748285Y-59118533D01*
X47748285Y-59118533D02*
X47795904Y-59261390D01*
X47795904Y-59261390D02*
X48367332Y-59832819D01*
X48367332Y-59832819D02*
X47748285Y-59832819D01*
X49557000Y-61788033D02*
X49490333Y-61788033D01*
X49490333Y-61788033D02*
X49423666Y-61821366D01*
X49423666Y-61821366D02*
X49390333Y-61854700D01*
X49390333Y-61854700D02*
X49357000Y-61921366D01*
X49357000Y-61921366D02*
X49323666Y-62054700D01*
X49323666Y-62054700D02*
X49323666Y-62221366D01*
X49323666Y-62221366D02*
X49357000Y-62354700D01*
X49357000Y-62354700D02*
X49390333Y-62421366D01*
X49390333Y-62421366D02*
X49423666Y-62454700D01*
X49423666Y-62454700D02*
X49490333Y-62488033D01*
X49490333Y-62488033D02*
X49557000Y-62488033D01*
X49557000Y-62488033D02*
X49623666Y-62454700D01*
X49623666Y-62454700D02*
X49657000Y-62421366D01*
X49657000Y-62421366D02*
X49690333Y-62354700D01*
X49690333Y-62354700D02*
X49723666Y-62221366D01*
X49723666Y-62221366D02*
X49723666Y-62054700D01*
X49723666Y-62054700D02*
X49690333Y-61921366D01*
X49690333Y-61921366D02*
X49657000Y-61854700D01*
X49657000Y-61854700D02*
X49623666Y-61821366D01*
X49623666Y-61821366D02*
X49557000Y-61788033D01*
X49023666Y-62421366D02*
X48990333Y-62454700D01*
X48990333Y-62454700D02*
X49023666Y-62488033D01*
X49023666Y-62488033D02*
X49056999Y-62454700D01*
X49056999Y-62454700D02*
X49023666Y-62421366D01*
X49023666Y-62421366D02*
X49023666Y-62488033D01*
X48323666Y-62488033D02*
X48723666Y-62488033D01*
X48523666Y-62488033D02*
X48523666Y-61788033D01*
X48523666Y-61788033D02*
X48590333Y-61888033D01*
X48590333Y-61888033D02*
X48657000Y-61954700D01*
X48657000Y-61954700D02*
X48723666Y-61988033D01*
X47723666Y-62021366D02*
X47723666Y-62488033D01*
X48023666Y-62021366D02*
X48023666Y-62388033D01*
X48023666Y-62388033D02*
X47990333Y-62454700D01*
X47990333Y-62454700D02*
X47923666Y-62488033D01*
X47923666Y-62488033D02*
X47823666Y-62488033D01*
X47823666Y-62488033D02*
X47756999Y-62454700D01*
X47756999Y-62454700D02*
X47723666Y-62421366D01*
X47157000Y-62121366D02*
X47390333Y-62121366D01*
X47390333Y-62488033D02*
X47390333Y-61788033D01*
X47390333Y-61788033D02*
X47057000Y-61788033D01*
X87898904Y-83369819D02*
X87898904Y-84179342D01*
X87898904Y-84179342D02*
X87851285Y-84274580D01*
X87851285Y-84274580D02*
X87803666Y-84322200D01*
X87803666Y-84322200D02*
X87708428Y-84369819D01*
X87708428Y-84369819D02*
X87517952Y-84369819D01*
X87517952Y-84369819D02*
X87422714Y-84322200D01*
X87422714Y-84322200D02*
X87375095Y-84274580D01*
X87375095Y-84274580D02*
X87327476Y-84179342D01*
X87327476Y-84179342D02*
X87327476Y-83369819D01*
X86898904Y-83465057D02*
X86851285Y-83417438D01*
X86851285Y-83417438D02*
X86756047Y-83369819D01*
X86756047Y-83369819D02*
X86517952Y-83369819D01*
X86517952Y-83369819D02*
X86422714Y-83417438D01*
X86422714Y-83417438D02*
X86375095Y-83465057D01*
X86375095Y-83465057D02*
X86327476Y-83560295D01*
X86327476Y-83560295D02*
X86327476Y-83655533D01*
X86327476Y-83655533D02*
X86375095Y-83798390D01*
X86375095Y-83798390D02*
X86946523Y-84369819D01*
X86946523Y-84369819D02*
X86327476Y-84369819D01*
X90398904Y-105809819D02*
X89732238Y-105809819D01*
X89732238Y-105809819D02*
X90160809Y-106809819D01*
X88922714Y-106143152D02*
X88922714Y-106809819D01*
X89160809Y-105762200D02*
X89398904Y-106476485D01*
X89398904Y-106476485D02*
X88779857Y-106476485D01*
X88398904Y-106809819D02*
X88398904Y-105809819D01*
X88398904Y-106286009D02*
X87827476Y-106286009D01*
X87827476Y-106809819D02*
X87827476Y-105809819D01*
X86779857Y-106714580D02*
X86827476Y-106762200D01*
X86827476Y-106762200D02*
X86970333Y-106809819D01*
X86970333Y-106809819D02*
X87065571Y-106809819D01*
X87065571Y-106809819D02*
X87208428Y-106762200D01*
X87208428Y-106762200D02*
X87303666Y-106666961D01*
X87303666Y-106666961D02*
X87351285Y-106571723D01*
X87351285Y-106571723D02*
X87398904Y-106381247D01*
X87398904Y-106381247D02*
X87398904Y-106238390D01*
X87398904Y-106238390D02*
X87351285Y-106047914D01*
X87351285Y-106047914D02*
X87303666Y-105952676D01*
X87303666Y-105952676D02*
X87208428Y-105857438D01*
X87208428Y-105857438D02*
X87065571Y-105809819D01*
X87065571Y-105809819D02*
X86970333Y-105809819D01*
X86970333Y-105809819D02*
X86827476Y-105857438D01*
X86827476Y-105857438D02*
X86779857Y-105905057D01*
X85827476Y-106809819D02*
X86398904Y-106809819D01*
X86113190Y-106809819D02*
X86113190Y-105809819D01*
X86113190Y-105809819D02*
X86208428Y-105952676D01*
X86208428Y-105952676D02*
X86303666Y-106047914D01*
X86303666Y-106047914D02*
X86398904Y-106095533D01*
X85446523Y-105905057D02*
X85398904Y-105857438D01*
X85398904Y-105857438D02*
X85303666Y-105809819D01*
X85303666Y-105809819D02*
X85065571Y-105809819D01*
X85065571Y-105809819D02*
X84970333Y-105857438D01*
X84970333Y-105857438D02*
X84922714Y-105905057D01*
X84922714Y-105905057D02*
X84875095Y-106000295D01*
X84875095Y-106000295D02*
X84875095Y-106095533D01*
X84875095Y-106095533D02*
X84922714Y-106238390D01*
X84922714Y-106238390D02*
X85494142Y-106809819D01*
X85494142Y-106809819D02*
X84875095Y-106809819D01*
X84541761Y-105809819D02*
X83922714Y-105809819D01*
X83922714Y-105809819D02*
X84256047Y-106190771D01*
X84256047Y-106190771D02*
X84113190Y-106190771D01*
X84113190Y-106190771D02*
X84017952Y-106238390D01*
X84017952Y-106238390D02*
X83970333Y-106286009D01*
X83970333Y-106286009D02*
X83922714Y-106381247D01*
X83922714Y-106381247D02*
X83922714Y-106619342D01*
X83922714Y-106619342D02*
X83970333Y-106714580D01*
X83970333Y-106714580D02*
X84017952Y-106762200D01*
X84017952Y-106762200D02*
X84113190Y-106809819D01*
X84113190Y-106809819D02*
X84398904Y-106809819D01*
X84398904Y-106809819D02*
X84494142Y-106762200D01*
X84494142Y-106762200D02*
X84541761Y-106714580D01*
X77313666Y-115734580D02*
X77361285Y-115782200D01*
X77361285Y-115782200D02*
X77504142Y-115829819D01*
X77504142Y-115829819D02*
X77599380Y-115829819D01*
X77599380Y-115829819D02*
X77742237Y-115782200D01*
X77742237Y-115782200D02*
X77837475Y-115686961D01*
X77837475Y-115686961D02*
X77885094Y-115591723D01*
X77885094Y-115591723D02*
X77932713Y-115401247D01*
X77932713Y-115401247D02*
X77932713Y-115258390D01*
X77932713Y-115258390D02*
X77885094Y-115067914D01*
X77885094Y-115067914D02*
X77837475Y-114972676D01*
X77837475Y-114972676D02*
X77742237Y-114877438D01*
X77742237Y-114877438D02*
X77599380Y-114829819D01*
X77599380Y-114829819D02*
X77504142Y-114829819D01*
X77504142Y-114829819D02*
X77361285Y-114877438D01*
X77361285Y-114877438D02*
X77313666Y-114925057D01*
X76361285Y-115829819D02*
X76932713Y-115829819D01*
X76646999Y-115829819D02*
X76646999Y-114829819D01*
X76646999Y-114829819D02*
X76742237Y-114972676D01*
X76742237Y-114972676D02*
X76837475Y-115067914D01*
X76837475Y-115067914D02*
X76932713Y-115115533D01*
X72981819Y-109347380D02*
X72981819Y-108775952D01*
X72981819Y-109061666D02*
X71981819Y-109061666D01*
X71981819Y-109061666D02*
X72124676Y-108966428D01*
X72124676Y-108966428D02*
X72219914Y-108871190D01*
X72219914Y-108871190D02*
X72267533Y-108775952D01*
X71981819Y-109966428D02*
X71981819Y-110061666D01*
X71981819Y-110061666D02*
X72029438Y-110156904D01*
X72029438Y-110156904D02*
X72077057Y-110204523D01*
X72077057Y-110204523D02*
X72172295Y-110252142D01*
X72172295Y-110252142D02*
X72362771Y-110299761D01*
X72362771Y-110299761D02*
X72600866Y-110299761D01*
X72600866Y-110299761D02*
X72791342Y-110252142D01*
X72791342Y-110252142D02*
X72886580Y-110204523D01*
X72886580Y-110204523D02*
X72934200Y-110156904D01*
X72934200Y-110156904D02*
X72981819Y-110061666D01*
X72981819Y-110061666D02*
X72981819Y-109966428D01*
X72981819Y-109966428D02*
X72934200Y-109871190D01*
X72934200Y-109871190D02*
X72886580Y-109823571D01*
X72886580Y-109823571D02*
X72791342Y-109775952D01*
X72791342Y-109775952D02*
X72600866Y-109728333D01*
X72600866Y-109728333D02*
X72362771Y-109728333D01*
X72362771Y-109728333D02*
X72172295Y-109775952D01*
X72172295Y-109775952D02*
X72077057Y-109823571D01*
X72077057Y-109823571D02*
X72029438Y-109871190D01*
X72029438Y-109871190D02*
X71981819Y-109966428D01*
X71981819Y-110918809D02*
X71981819Y-111014047D01*
X71981819Y-111014047D02*
X72029438Y-111109285D01*
X72029438Y-111109285D02*
X72077057Y-111156904D01*
X72077057Y-111156904D02*
X72172295Y-111204523D01*
X72172295Y-111204523D02*
X72362771Y-111252142D01*
X72362771Y-111252142D02*
X72600866Y-111252142D01*
X72600866Y-111252142D02*
X72791342Y-111204523D01*
X72791342Y-111204523D02*
X72886580Y-111156904D01*
X72886580Y-111156904D02*
X72934200Y-111109285D01*
X72934200Y-111109285D02*
X72981819Y-111014047D01*
X72981819Y-111014047D02*
X72981819Y-110918809D01*
X72981819Y-110918809D02*
X72934200Y-110823571D01*
X72934200Y-110823571D02*
X72886580Y-110775952D01*
X72886580Y-110775952D02*
X72791342Y-110728333D01*
X72791342Y-110728333D02*
X72600866Y-110680714D01*
X72600866Y-110680714D02*
X72362771Y-110680714D01*
X72362771Y-110680714D02*
X72172295Y-110728333D01*
X72172295Y-110728333D02*
X72077057Y-110775952D01*
X72077057Y-110775952D02*
X72029438Y-110823571D01*
X72029438Y-110823571D02*
X71981819Y-110918809D01*
X72315152Y-112109285D02*
X72981819Y-112109285D01*
X72315152Y-111680714D02*
X72838961Y-111680714D01*
X72838961Y-111680714D02*
X72934200Y-111728333D01*
X72934200Y-111728333D02*
X72981819Y-111823571D01*
X72981819Y-111823571D02*
X72981819Y-111966428D01*
X72981819Y-111966428D02*
X72934200Y-112061666D01*
X72934200Y-112061666D02*
X72886580Y-112109285D01*
X72458009Y-112918809D02*
X72458009Y-112585476D01*
X72981819Y-112585476D02*
X71981819Y-112585476D01*
X71981819Y-112585476D02*
X71981819Y-113061666D01*
X87263666Y-78804580D02*
X87311285Y-78852200D01*
X87311285Y-78852200D02*
X87454142Y-78899819D01*
X87454142Y-78899819D02*
X87549380Y-78899819D01*
X87549380Y-78899819D02*
X87692237Y-78852200D01*
X87692237Y-78852200D02*
X87787475Y-78756961D01*
X87787475Y-78756961D02*
X87835094Y-78661723D01*
X87835094Y-78661723D02*
X87882713Y-78471247D01*
X87882713Y-78471247D02*
X87882713Y-78328390D01*
X87882713Y-78328390D02*
X87835094Y-78137914D01*
X87835094Y-78137914D02*
X87787475Y-78042676D01*
X87787475Y-78042676D02*
X87692237Y-77947438D01*
X87692237Y-77947438D02*
X87549380Y-77899819D01*
X87549380Y-77899819D02*
X87454142Y-77899819D01*
X87454142Y-77899819D02*
X87311285Y-77947438D01*
X87311285Y-77947438D02*
X87263666Y-77995057D01*
X86930332Y-77899819D02*
X86311285Y-77899819D01*
X86311285Y-77899819D02*
X86644618Y-78280771D01*
X86644618Y-78280771D02*
X86501761Y-78280771D01*
X86501761Y-78280771D02*
X86406523Y-78328390D01*
X86406523Y-78328390D02*
X86358904Y-78376009D01*
X86358904Y-78376009D02*
X86311285Y-78471247D01*
X86311285Y-78471247D02*
X86311285Y-78709342D01*
X86311285Y-78709342D02*
X86358904Y-78804580D01*
X86358904Y-78804580D02*
X86406523Y-78852200D01*
X86406523Y-78852200D02*
X86501761Y-78899819D01*
X86501761Y-78899819D02*
X86787475Y-78899819D01*
X86787475Y-78899819D02*
X86882713Y-78852200D01*
X86882713Y-78852200D02*
X86930332Y-78804580D01*
X63663666Y-88359819D02*
X63996999Y-87883628D01*
X64235094Y-88359819D02*
X64235094Y-87359819D01*
X64235094Y-87359819D02*
X63854142Y-87359819D01*
X63854142Y-87359819D02*
X63758904Y-87407438D01*
X63758904Y-87407438D02*
X63711285Y-87455057D01*
X63711285Y-87455057D02*
X63663666Y-87550295D01*
X63663666Y-87550295D02*
X63663666Y-87693152D01*
X63663666Y-87693152D02*
X63711285Y-87788390D01*
X63711285Y-87788390D02*
X63758904Y-87836009D01*
X63758904Y-87836009D02*
X63854142Y-87883628D01*
X63854142Y-87883628D02*
X64235094Y-87883628D01*
X62711285Y-88359819D02*
X63282713Y-88359819D01*
X62996999Y-88359819D02*
X62996999Y-87359819D01*
X62996999Y-87359819D02*
X63092237Y-87502676D01*
X63092237Y-87502676D02*
X63187475Y-87597914D01*
X63187475Y-87597914D02*
X63282713Y-87645533D01*
X63901819Y-93175002D02*
X63901819Y-92603574D01*
X63901819Y-92889288D02*
X62901819Y-92889288D01*
X62901819Y-92889288D02*
X63044676Y-92794050D01*
X63044676Y-92794050D02*
X63139914Y-92698812D01*
X63139914Y-92698812D02*
X63187533Y-92603574D01*
X62901819Y-93794050D02*
X62901819Y-93889288D01*
X62901819Y-93889288D02*
X62949438Y-93984526D01*
X62949438Y-93984526D02*
X62997057Y-94032145D01*
X62997057Y-94032145D02*
X63092295Y-94079764D01*
X63092295Y-94079764D02*
X63282771Y-94127383D01*
X63282771Y-94127383D02*
X63520866Y-94127383D01*
X63520866Y-94127383D02*
X63711342Y-94079764D01*
X63711342Y-94079764D02*
X63806580Y-94032145D01*
X63806580Y-94032145D02*
X63854200Y-93984526D01*
X63854200Y-93984526D02*
X63901819Y-93889288D01*
X63901819Y-93889288D02*
X63901819Y-93794050D01*
X63901819Y-93794050D02*
X63854200Y-93698812D01*
X63854200Y-93698812D02*
X63806580Y-93651193D01*
X63806580Y-93651193D02*
X63711342Y-93603574D01*
X63711342Y-93603574D02*
X63520866Y-93555955D01*
X63520866Y-93555955D02*
X63282771Y-93555955D01*
X63282771Y-93555955D02*
X63092295Y-93603574D01*
X63092295Y-93603574D02*
X62997057Y-93651193D01*
X62997057Y-93651193D02*
X62949438Y-93698812D01*
X62949438Y-93698812D02*
X62901819Y-93794050D01*
X63901819Y-94555955D02*
X62901819Y-94555955D01*
X63520866Y-94651193D02*
X63901819Y-94936907D01*
X63235152Y-94936907D02*
X63616104Y-94555955D01*
X60363666Y-88409819D02*
X60696999Y-87933628D01*
X60935094Y-88409819D02*
X60935094Y-87409819D01*
X60935094Y-87409819D02*
X60554142Y-87409819D01*
X60554142Y-87409819D02*
X60458904Y-87457438D01*
X60458904Y-87457438D02*
X60411285Y-87505057D01*
X60411285Y-87505057D02*
X60363666Y-87600295D01*
X60363666Y-87600295D02*
X60363666Y-87743152D01*
X60363666Y-87743152D02*
X60411285Y-87838390D01*
X60411285Y-87838390D02*
X60458904Y-87886009D01*
X60458904Y-87886009D02*
X60554142Y-87933628D01*
X60554142Y-87933628D02*
X60935094Y-87933628D01*
X59982713Y-87505057D02*
X59935094Y-87457438D01*
X59935094Y-87457438D02*
X59839856Y-87409819D01*
X59839856Y-87409819D02*
X59601761Y-87409819D01*
X59601761Y-87409819D02*
X59506523Y-87457438D01*
X59506523Y-87457438D02*
X59458904Y-87505057D01*
X59458904Y-87505057D02*
X59411285Y-87600295D01*
X59411285Y-87600295D02*
X59411285Y-87695533D01*
X59411285Y-87695533D02*
X59458904Y-87838390D01*
X59458904Y-87838390D02*
X60030332Y-88409819D01*
X60030332Y-88409819D02*
X59411285Y-88409819D01*
X59985152Y-93054523D02*
X60651819Y-93054523D01*
X59604200Y-92816428D02*
X60318485Y-92578333D01*
X60318485Y-92578333D02*
X60318485Y-93197380D01*
X59651819Y-93483095D02*
X59651819Y-94149761D01*
X59651819Y-94149761D02*
X60651819Y-93721190D01*
X60651819Y-94530714D02*
X59651819Y-94530714D01*
X60270866Y-94625952D02*
X60651819Y-94911666D01*
X59985152Y-94911666D02*
X60366104Y-94530714D01*
X57163666Y-88409819D02*
X57496999Y-87933628D01*
X57735094Y-88409819D02*
X57735094Y-87409819D01*
X57735094Y-87409819D02*
X57354142Y-87409819D01*
X57354142Y-87409819D02*
X57258904Y-87457438D01*
X57258904Y-87457438D02*
X57211285Y-87505057D01*
X57211285Y-87505057D02*
X57163666Y-87600295D01*
X57163666Y-87600295D02*
X57163666Y-87743152D01*
X57163666Y-87743152D02*
X57211285Y-87838390D01*
X57211285Y-87838390D02*
X57258904Y-87886009D01*
X57258904Y-87886009D02*
X57354142Y-87933628D01*
X57354142Y-87933628D02*
X57735094Y-87933628D01*
X56830332Y-87409819D02*
X56211285Y-87409819D01*
X56211285Y-87409819D02*
X56544618Y-87790771D01*
X56544618Y-87790771D02*
X56401761Y-87790771D01*
X56401761Y-87790771D02*
X56306523Y-87838390D01*
X56306523Y-87838390D02*
X56258904Y-87886009D01*
X56258904Y-87886009D02*
X56211285Y-87981247D01*
X56211285Y-87981247D02*
X56211285Y-88219342D01*
X56211285Y-88219342D02*
X56258904Y-88314580D01*
X56258904Y-88314580D02*
X56306523Y-88362200D01*
X56306523Y-88362200D02*
X56401761Y-88409819D01*
X56401761Y-88409819D02*
X56687475Y-88409819D01*
X56687475Y-88409819D02*
X56782713Y-88362200D01*
X56782713Y-88362200D02*
X56830332Y-88314580D01*
X57351819Y-93114520D02*
X57351819Y-92543092D01*
X57351819Y-92828806D02*
X56351819Y-92828806D01*
X56351819Y-92828806D02*
X56494676Y-92733568D01*
X56494676Y-92733568D02*
X56589914Y-92638330D01*
X56589914Y-92638330D02*
X56637533Y-92543092D01*
X56351819Y-93733568D02*
X56351819Y-93828806D01*
X56351819Y-93828806D02*
X56399438Y-93924044D01*
X56399438Y-93924044D02*
X56447057Y-93971663D01*
X56447057Y-93971663D02*
X56542295Y-94019282D01*
X56542295Y-94019282D02*
X56732771Y-94066901D01*
X56732771Y-94066901D02*
X56970866Y-94066901D01*
X56970866Y-94066901D02*
X57161342Y-94019282D01*
X57161342Y-94019282D02*
X57256580Y-93971663D01*
X57256580Y-93971663D02*
X57304200Y-93924044D01*
X57304200Y-93924044D02*
X57351819Y-93828806D01*
X57351819Y-93828806D02*
X57351819Y-93733568D01*
X57351819Y-93733568D02*
X57304200Y-93638330D01*
X57304200Y-93638330D02*
X57256580Y-93590711D01*
X57256580Y-93590711D02*
X57161342Y-93543092D01*
X57161342Y-93543092D02*
X56970866Y-93495473D01*
X56970866Y-93495473D02*
X56732771Y-93495473D01*
X56732771Y-93495473D02*
X56542295Y-93543092D01*
X56542295Y-93543092D02*
X56447057Y-93590711D01*
X56447057Y-93590711D02*
X56399438Y-93638330D01*
X56399438Y-93638330D02*
X56351819Y-93733568D01*
X57351819Y-94495473D02*
X56351819Y-94495473D01*
X56970866Y-94590711D02*
X57351819Y-94876425D01*
X56685152Y-94876425D02*
X57066104Y-94495473D01*
X86939666Y-115734580D02*
X86987285Y-115782200D01*
X86987285Y-115782200D02*
X87130142Y-115829819D01*
X87130142Y-115829819D02*
X87225380Y-115829819D01*
X87225380Y-115829819D02*
X87368237Y-115782200D01*
X87368237Y-115782200D02*
X87463475Y-115686961D01*
X87463475Y-115686961D02*
X87511094Y-115591723D01*
X87511094Y-115591723D02*
X87558713Y-115401247D01*
X87558713Y-115401247D02*
X87558713Y-115258390D01*
X87558713Y-115258390D02*
X87511094Y-115067914D01*
X87511094Y-115067914D02*
X87463475Y-114972676D01*
X87463475Y-114972676D02*
X87368237Y-114877438D01*
X87368237Y-114877438D02*
X87225380Y-114829819D01*
X87225380Y-114829819D02*
X87130142Y-114829819D01*
X87130142Y-114829819D02*
X86987285Y-114877438D01*
X86987285Y-114877438D02*
X86939666Y-114925057D01*
X86082523Y-115163152D02*
X86082523Y-115829819D01*
X86320618Y-114782200D02*
X86558713Y-115496485D01*
X86558713Y-115496485D02*
X85939666Y-115496485D01*
X82655819Y-110207761D02*
X82655819Y-109636333D01*
X82655819Y-109922047D02*
X81655819Y-109922047D01*
X81655819Y-109922047D02*
X81798676Y-109826809D01*
X81798676Y-109826809D02*
X81893914Y-109731571D01*
X81893914Y-109731571D02*
X81941533Y-109636333D01*
X81989152Y-111064904D02*
X82655819Y-111064904D01*
X81989152Y-110636333D02*
X82512961Y-110636333D01*
X82512961Y-110636333D02*
X82608200Y-110683952D01*
X82608200Y-110683952D02*
X82655819Y-110779190D01*
X82655819Y-110779190D02*
X82655819Y-110922047D01*
X82655819Y-110922047D02*
X82608200Y-111017285D01*
X82608200Y-111017285D02*
X82560580Y-111064904D01*
X82132009Y-111874428D02*
X82132009Y-111541095D01*
X82655819Y-111541095D02*
X81655819Y-111541095D01*
X81655819Y-111541095D02*
X81655819Y-112017285D01*
X82992476Y-77699819D02*
X83325809Y-77223628D01*
X83563904Y-77699819D02*
X83563904Y-76699819D01*
X83563904Y-76699819D02*
X83182952Y-76699819D01*
X83182952Y-76699819D02*
X83087714Y-76747438D01*
X83087714Y-76747438D02*
X83040095Y-76795057D01*
X83040095Y-76795057D02*
X82992476Y-76890295D01*
X82992476Y-76890295D02*
X82992476Y-77033152D01*
X82992476Y-77033152D02*
X83040095Y-77128390D01*
X83040095Y-77128390D02*
X83087714Y-77176009D01*
X83087714Y-77176009D02*
X83182952Y-77223628D01*
X83182952Y-77223628D02*
X83563904Y-77223628D01*
X82563904Y-77699819D02*
X82563904Y-76699819D01*
X82563904Y-76699819D02*
X81992476Y-77699819D01*
X81992476Y-77699819D02*
X81992476Y-76699819D01*
X80992476Y-77699819D02*
X81563904Y-77699819D01*
X81278190Y-77699819D02*
X81278190Y-76699819D01*
X81278190Y-76699819D02*
X81373428Y-76842676D01*
X81373428Y-76842676D02*
X81468666Y-76937914D01*
X81468666Y-76937914D02*
X81563904Y-76985533D01*
X82897238Y-72899819D02*
X83468666Y-72899819D01*
X83182952Y-72899819D02*
X83182952Y-71899819D01*
X83182952Y-71899819D02*
X83278190Y-72042676D01*
X83278190Y-72042676D02*
X83373428Y-72137914D01*
X83373428Y-72137914D02*
X83468666Y-72185533D01*
X82278190Y-71899819D02*
X82182952Y-71899819D01*
X82182952Y-71899819D02*
X82087714Y-71947438D01*
X82087714Y-71947438D02*
X82040095Y-71995057D01*
X82040095Y-71995057D02*
X81992476Y-72090295D01*
X81992476Y-72090295D02*
X81944857Y-72280771D01*
X81944857Y-72280771D02*
X81944857Y-72518866D01*
X81944857Y-72518866D02*
X81992476Y-72709342D01*
X81992476Y-72709342D02*
X82040095Y-72804580D01*
X82040095Y-72804580D02*
X82087714Y-72852200D01*
X82087714Y-72852200D02*
X82182952Y-72899819D01*
X82182952Y-72899819D02*
X82278190Y-72899819D01*
X82278190Y-72899819D02*
X82373428Y-72852200D01*
X82373428Y-72852200D02*
X82421047Y-72804580D01*
X82421047Y-72804580D02*
X82468666Y-72709342D01*
X82468666Y-72709342D02*
X82516285Y-72518866D01*
X82516285Y-72518866D02*
X82516285Y-72280771D01*
X82516285Y-72280771D02*
X82468666Y-72090295D01*
X82468666Y-72090295D02*
X82421047Y-71995057D01*
X82421047Y-71995057D02*
X82373428Y-71947438D01*
X82373428Y-71947438D02*
X82278190Y-71899819D01*
X81516285Y-72899819D02*
X81516285Y-71899819D01*
X81421047Y-72518866D02*
X81135333Y-72899819D01*
X81135333Y-72233152D02*
X81516285Y-72614104D01*
X107501819Y-57010595D02*
X108311342Y-57010595D01*
X108311342Y-57010595D02*
X108406580Y-57058214D01*
X108406580Y-57058214D02*
X108454200Y-57105833D01*
X108454200Y-57105833D02*
X108501819Y-57201071D01*
X108501819Y-57201071D02*
X108501819Y-57391547D01*
X108501819Y-57391547D02*
X108454200Y-57486785D01*
X108454200Y-57486785D02*
X108406580Y-57534404D01*
X108406580Y-57534404D02*
X108311342Y-57582023D01*
X108311342Y-57582023D02*
X107501819Y-57582023D01*
X108501819Y-58582023D02*
X108501819Y-58010595D01*
X108501819Y-58296309D02*
X107501819Y-58296309D01*
X107501819Y-58296309D02*
X107644676Y-58201071D01*
X107644676Y-58201071D02*
X107739914Y-58105833D01*
X107739914Y-58105833D02*
X107787533Y-58010595D01*
D10*
X79751000Y-102867000D02*
X69471000Y-102867000D01*
X79751000Y-84847000D02*
X79751000Y-102867000D01*
X77261000Y-102807000D02*
X71961000Y-102807000D01*
X77261000Y-84907000D02*
X77261000Y-102807000D01*
X75611000Y-84907000D02*
X77261000Y-84907000D01*
X71961000Y-102807000D02*
X71961000Y-84907000D01*
X71961000Y-84907000D02*
X73611000Y-84907000D01*
X69471000Y-102867000D02*
X69471000Y-84847000D01*
X69471000Y-84847000D02*
X79751000Y-84847000D01*
X73611000Y-84907000D02*
G75*
G03*
X75611000Y-84907000I1000000J0D01*
G01*
X71951000Y-79533000D02*
X77191000Y-79533000D01*
X71951000Y-79848000D02*
X71951000Y-79533000D01*
X71951000Y-82273000D02*
X71951000Y-81958000D01*
X71951000Y-82273000D02*
X77191000Y-82273000D01*
X77191000Y-79848000D02*
X77191000Y-79533000D01*
X77191000Y-82273000D02*
X77191000Y-81958000D01*
X51067000Y-63415000D02*
X45827000Y-63415000D01*
X51067000Y-63100000D02*
X51067000Y-63415000D01*
X51067000Y-60675000D02*
X51067000Y-60990000D01*
X51067000Y-60675000D02*
X45827000Y-60675000D01*
X45827000Y-63100000D02*
X45827000Y-63415000D01*
X45827000Y-60675000D02*
X45827000Y-60990000D01*
X92277000Y-105415000D02*
X81997000Y-105415000D01*
X92277000Y-84855000D02*
X92277000Y-105415000D01*
X89787000Y-105355000D02*
X84487000Y-105355000D01*
X89787000Y-84915000D02*
X89787000Y-105355000D01*
X88137000Y-84915000D02*
X89787000Y-84915000D01*
X84487000Y-105355000D02*
X84487000Y-84915000D01*
X84487000Y-84915000D02*
X86137000Y-84915000D01*
X81997000Y-105415000D02*
X81997000Y-84855000D01*
X81997000Y-84855000D02*
X92277000Y-84855000D01*
X86137000Y-84915000D02*
G75*
G03*
X88137000Y-84915000I1000000J0D01*
G01*
X80647241Y-109006000D02*
X80017241Y-109006000D01*
X80332241Y-108691000D02*
X80332241Y-109321000D01*
X77147000Y-107615000D02*
X77147000Y-114075000D01*
X77107000Y-107615000D02*
X77107000Y-114075000D01*
X77067000Y-107615000D02*
X77067000Y-114075000D01*
X77027000Y-107617000D02*
X77027000Y-114073000D01*
X76987000Y-107618000D02*
X76987000Y-114072000D01*
X76947000Y-107621000D02*
X76947000Y-114069000D01*
X76907000Y-111885000D02*
X76907000Y-114067000D01*
X76907000Y-107623000D02*
X76907000Y-109805000D01*
X76867000Y-111885000D02*
X76867000Y-114063000D01*
X76867000Y-107627000D02*
X76867000Y-109805000D01*
X76827000Y-111885000D02*
X76827000Y-114060000D01*
X76827000Y-107630000D02*
X76827000Y-109805000D01*
X76787000Y-111885000D02*
X76787000Y-114056000D01*
X76787000Y-107634000D02*
X76787000Y-109805000D01*
X76747000Y-111885000D02*
X76747000Y-114051000D01*
X76747000Y-107639000D02*
X76747000Y-109805000D01*
X76707000Y-111885000D02*
X76707000Y-114046000D01*
X76707000Y-107644000D02*
X76707000Y-109805000D01*
X76667000Y-111885000D02*
X76667000Y-114040000D01*
X76667000Y-107650000D02*
X76667000Y-109805000D01*
X76627000Y-111885000D02*
X76627000Y-114034000D01*
X76627000Y-107656000D02*
X76627000Y-109805000D01*
X76587000Y-111885000D02*
X76587000Y-114027000D01*
X76587000Y-107663000D02*
X76587000Y-109805000D01*
X76547000Y-111885000D02*
X76547000Y-114020000D01*
X76547000Y-107670000D02*
X76547000Y-109805000D01*
X76507000Y-111885000D02*
X76507000Y-114012000D01*
X76507000Y-107678000D02*
X76507000Y-109805000D01*
X76467000Y-111885000D02*
X76467000Y-114004000D01*
X76467000Y-107686000D02*
X76467000Y-109805000D01*
X76426000Y-111885000D02*
X76426000Y-113995000D01*
X76426000Y-107695000D02*
X76426000Y-109805000D01*
X76386000Y-111885000D02*
X76386000Y-113986000D01*
X76386000Y-107704000D02*
X76386000Y-109805000D01*
X76346000Y-111885000D02*
X76346000Y-113976000D01*
X76346000Y-107714000D02*
X76346000Y-109805000D01*
X76306000Y-111885000D02*
X76306000Y-113966000D01*
X76306000Y-107724000D02*
X76306000Y-109805000D01*
X76266000Y-111885000D02*
X76266000Y-113955000D01*
X76266000Y-107735000D02*
X76266000Y-109805000D01*
X76226000Y-111885000D02*
X76226000Y-113943000D01*
X76226000Y-107747000D02*
X76226000Y-109805000D01*
X76186000Y-111885000D02*
X76186000Y-113931000D01*
X76186000Y-107759000D02*
X76186000Y-109805000D01*
X76146000Y-111885000D02*
X76146000Y-113919000D01*
X76146000Y-107771000D02*
X76146000Y-109805000D01*
X76106000Y-111885000D02*
X76106000Y-113906000D01*
X76106000Y-107784000D02*
X76106000Y-109805000D01*
X76066000Y-111885000D02*
X76066000Y-113892000D01*
X76066000Y-107798000D02*
X76066000Y-109805000D01*
X76026000Y-111885000D02*
X76026000Y-113878000D01*
X76026000Y-107812000D02*
X76026000Y-109805000D01*
X75986000Y-111885000D02*
X75986000Y-113863000D01*
X75986000Y-107827000D02*
X75986000Y-109805000D01*
X75946000Y-111885000D02*
X75946000Y-113847000D01*
X75946000Y-107843000D02*
X75946000Y-109805000D01*
X75906000Y-111885000D02*
X75906000Y-113831000D01*
X75906000Y-107859000D02*
X75906000Y-109805000D01*
X75866000Y-111885000D02*
X75866000Y-113815000D01*
X75866000Y-107875000D02*
X75866000Y-109805000D01*
X75826000Y-111885000D02*
X75826000Y-113797000D01*
X75826000Y-107893000D02*
X75826000Y-109805000D01*
X75786000Y-111885000D02*
X75786000Y-113779000D01*
X75786000Y-107911000D02*
X75786000Y-109805000D01*
X75746000Y-111885000D02*
X75746000Y-113761000D01*
X75746000Y-107929000D02*
X75746000Y-109805000D01*
X75706000Y-111885000D02*
X75706000Y-113741000D01*
X75706000Y-107949000D02*
X75706000Y-109805000D01*
X75666000Y-111885000D02*
X75666000Y-113721000D01*
X75666000Y-107969000D02*
X75666000Y-109805000D01*
X75626000Y-111885000D02*
X75626000Y-113701000D01*
X75626000Y-107989000D02*
X75626000Y-109805000D01*
X75586000Y-111885000D02*
X75586000Y-113679000D01*
X75586000Y-108011000D02*
X75586000Y-109805000D01*
X75546000Y-111885000D02*
X75546000Y-113657000D01*
X75546000Y-108033000D02*
X75546000Y-109805000D01*
X75506000Y-111885000D02*
X75506000Y-113635000D01*
X75506000Y-108055000D02*
X75506000Y-109805000D01*
X75466000Y-111885000D02*
X75466000Y-113611000D01*
X75466000Y-108079000D02*
X75466000Y-109805000D01*
X75426000Y-111885000D02*
X75426000Y-113587000D01*
X75426000Y-108103000D02*
X75426000Y-109805000D01*
X75386000Y-111885000D02*
X75386000Y-113561000D01*
X75386000Y-108129000D02*
X75386000Y-109805000D01*
X75346000Y-111885000D02*
X75346000Y-113535000D01*
X75346000Y-108155000D02*
X75346000Y-109805000D01*
X75306000Y-111885000D02*
X75306000Y-113509000D01*
X75306000Y-108181000D02*
X75306000Y-109805000D01*
X75266000Y-111885000D02*
X75266000Y-113481000D01*
X75266000Y-108209000D02*
X75266000Y-109805000D01*
X75226000Y-111885000D02*
X75226000Y-113452000D01*
X75226000Y-108238000D02*
X75226000Y-109805000D01*
X75186000Y-111885000D02*
X75186000Y-113423000D01*
X75186000Y-108267000D02*
X75186000Y-109805000D01*
X75146000Y-111885000D02*
X75146000Y-113393000D01*
X75146000Y-108297000D02*
X75146000Y-109805000D01*
X75106000Y-111885000D02*
X75106000Y-113361000D01*
X75106000Y-108329000D02*
X75106000Y-109805000D01*
X75066000Y-111885000D02*
X75066000Y-113329000D01*
X75066000Y-108361000D02*
X75066000Y-109805000D01*
X75026000Y-111885000D02*
X75026000Y-113295000D01*
X75026000Y-108395000D02*
X75026000Y-109805000D01*
X74986000Y-111885000D02*
X74986000Y-113261000D01*
X74986000Y-108429000D02*
X74986000Y-109805000D01*
X74946000Y-111885000D02*
X74946000Y-113225000D01*
X74946000Y-108465000D02*
X74946000Y-109805000D01*
X74906000Y-111885000D02*
X74906000Y-113188000D01*
X74906000Y-108502000D02*
X74906000Y-109805000D01*
X74866000Y-111885000D02*
X74866000Y-113150000D01*
X74866000Y-108540000D02*
X74866000Y-109805000D01*
X74826000Y-108580000D02*
X74826000Y-113110000D01*
X74786000Y-108621000D02*
X74786000Y-113069000D01*
X74746000Y-108663000D02*
X74746000Y-113027000D01*
X74706000Y-108708000D02*
X74706000Y-112982000D01*
X74666000Y-108753000D02*
X74666000Y-112937000D01*
X74626000Y-108801000D02*
X74626000Y-112889000D01*
X74586000Y-108850000D02*
X74586000Y-112840000D01*
X74546000Y-108901000D02*
X74546000Y-112789000D01*
X74506000Y-108955000D02*
X74506000Y-112735000D01*
X74466000Y-109011000D02*
X74466000Y-112679000D01*
X74426000Y-109069000D02*
X74426000Y-112621000D01*
X74386000Y-109131000D02*
X74386000Y-112559000D01*
X74346000Y-109195000D02*
X74346000Y-112495000D01*
X74306000Y-109264000D02*
X74306000Y-112426000D01*
X74266000Y-109336000D02*
X74266000Y-112354000D01*
X74226000Y-109413000D02*
X74226000Y-112277000D01*
X74186000Y-109495000D02*
X74186000Y-112195000D01*
X74146000Y-109583000D02*
X74146000Y-112107000D01*
X74106000Y-109680000D02*
X74106000Y-112010000D01*
X74066000Y-109786000D02*
X74066000Y-111904000D01*
X74026000Y-109905000D02*
X74026000Y-111785000D01*
X73986000Y-110043000D02*
X73986000Y-111647000D01*
X73946000Y-110212000D02*
X73946000Y-111478000D01*
X73906000Y-110443000D02*
X73906000Y-111247000D01*
X80417000Y-110845000D02*
G75*
G03*
X73877000Y-110845000I-3270000J0D01*
G01*
X73877000Y-110845000D02*
G75*
G03*
X80417000Y-110845000I3270000J0D01*
G01*
X89717000Y-82315000D02*
X84477000Y-82315000D01*
X89717000Y-82000000D02*
X89717000Y-82315000D01*
X89717000Y-79575000D02*
X89717000Y-79890000D01*
X89717000Y-79575000D02*
X84477000Y-79575000D01*
X84477000Y-82000000D02*
X84477000Y-82315000D01*
X84477000Y-79575000D02*
X84477000Y-79890000D01*
X64817000Y-90475000D02*
X64817000Y-97015000D01*
X64487000Y-90475000D02*
X64817000Y-90475000D01*
X62407000Y-90475000D02*
X62077000Y-90475000D01*
X62077000Y-90475000D02*
X62077000Y-97015000D01*
X64817000Y-97015000D02*
X64487000Y-97015000D01*
X62077000Y-97015000D02*
X62407000Y-97015000D01*
X61567000Y-90475000D02*
X61567000Y-97015000D01*
X61237000Y-90475000D02*
X61567000Y-90475000D01*
X59157000Y-90475000D02*
X58827000Y-90475000D01*
X58827000Y-90475000D02*
X58827000Y-97015000D01*
X61567000Y-97015000D02*
X61237000Y-97015000D01*
X58827000Y-97015000D02*
X59157000Y-97015000D01*
X55527000Y-96985000D02*
X55527000Y-90445000D01*
X55857000Y-96985000D02*
X55527000Y-96985000D01*
X57937000Y-96985000D02*
X58267000Y-96985000D01*
X58267000Y-96985000D02*
X58267000Y-90445000D01*
X55527000Y-90445000D02*
X55857000Y-90445000D01*
X58267000Y-90445000D02*
X57937000Y-90445000D01*
X90293241Y-108964000D02*
X89663241Y-108964000D01*
X89978241Y-108649000D02*
X89978241Y-109279000D01*
X86793000Y-107573000D02*
X86793000Y-114033000D01*
X86753000Y-107573000D02*
X86753000Y-114033000D01*
X86713000Y-107573000D02*
X86713000Y-114033000D01*
X86673000Y-107575000D02*
X86673000Y-114031000D01*
X86633000Y-107576000D02*
X86633000Y-114030000D01*
X86593000Y-107579000D02*
X86593000Y-114027000D01*
X86553000Y-111843000D02*
X86553000Y-114025000D01*
X86553000Y-107581000D02*
X86553000Y-109763000D01*
X86513000Y-111843000D02*
X86513000Y-114021000D01*
X86513000Y-107585000D02*
X86513000Y-109763000D01*
X86473000Y-111843000D02*
X86473000Y-114018000D01*
X86473000Y-107588000D02*
X86473000Y-109763000D01*
X86433000Y-111843000D02*
X86433000Y-114014000D01*
X86433000Y-107592000D02*
X86433000Y-109763000D01*
X86393000Y-111843000D02*
X86393000Y-114009000D01*
X86393000Y-107597000D02*
X86393000Y-109763000D01*
X86353000Y-111843000D02*
X86353000Y-114004000D01*
X86353000Y-107602000D02*
X86353000Y-109763000D01*
X86313000Y-111843000D02*
X86313000Y-113998000D01*
X86313000Y-107608000D02*
X86313000Y-109763000D01*
X86273000Y-111843000D02*
X86273000Y-113992000D01*
X86273000Y-107614000D02*
X86273000Y-109763000D01*
X86233000Y-111843000D02*
X86233000Y-113985000D01*
X86233000Y-107621000D02*
X86233000Y-109763000D01*
X86193000Y-111843000D02*
X86193000Y-113978000D01*
X86193000Y-107628000D02*
X86193000Y-109763000D01*
X86153000Y-111843000D02*
X86153000Y-113970000D01*
X86153000Y-107636000D02*
X86153000Y-109763000D01*
X86113000Y-111843000D02*
X86113000Y-113962000D01*
X86113000Y-107644000D02*
X86113000Y-109763000D01*
X86072000Y-111843000D02*
X86072000Y-113953000D01*
X86072000Y-107653000D02*
X86072000Y-109763000D01*
X86032000Y-111843000D02*
X86032000Y-113944000D01*
X86032000Y-107662000D02*
X86032000Y-109763000D01*
X85992000Y-111843000D02*
X85992000Y-113934000D01*
X85992000Y-107672000D02*
X85992000Y-109763000D01*
X85952000Y-111843000D02*
X85952000Y-113924000D01*
X85952000Y-107682000D02*
X85952000Y-109763000D01*
X85912000Y-111843000D02*
X85912000Y-113913000D01*
X85912000Y-107693000D02*
X85912000Y-109763000D01*
X85872000Y-111843000D02*
X85872000Y-113901000D01*
X85872000Y-107705000D02*
X85872000Y-109763000D01*
X85832000Y-111843000D02*
X85832000Y-113889000D01*
X85832000Y-107717000D02*
X85832000Y-109763000D01*
X85792000Y-111843000D02*
X85792000Y-113877000D01*
X85792000Y-107729000D02*
X85792000Y-109763000D01*
X85752000Y-111843000D02*
X85752000Y-113864000D01*
X85752000Y-107742000D02*
X85752000Y-109763000D01*
X85712000Y-111843000D02*
X85712000Y-113850000D01*
X85712000Y-107756000D02*
X85712000Y-109763000D01*
X85672000Y-111843000D02*
X85672000Y-113836000D01*
X85672000Y-107770000D02*
X85672000Y-109763000D01*
X85632000Y-111843000D02*
X85632000Y-113821000D01*
X85632000Y-107785000D02*
X85632000Y-109763000D01*
X85592000Y-111843000D02*
X85592000Y-113805000D01*
X85592000Y-107801000D02*
X85592000Y-109763000D01*
X85552000Y-111843000D02*
X85552000Y-113789000D01*
X85552000Y-107817000D02*
X85552000Y-109763000D01*
X85512000Y-111843000D02*
X85512000Y-113773000D01*
X85512000Y-107833000D02*
X85512000Y-109763000D01*
X85472000Y-111843000D02*
X85472000Y-113755000D01*
X85472000Y-107851000D02*
X85472000Y-109763000D01*
X85432000Y-111843000D02*
X85432000Y-113737000D01*
X85432000Y-107869000D02*
X85432000Y-109763000D01*
X85392000Y-111843000D02*
X85392000Y-113719000D01*
X85392000Y-107887000D02*
X85392000Y-109763000D01*
X85352000Y-111843000D02*
X85352000Y-113699000D01*
X85352000Y-107907000D02*
X85352000Y-109763000D01*
X85312000Y-111843000D02*
X85312000Y-113679000D01*
X85312000Y-107927000D02*
X85312000Y-109763000D01*
X85272000Y-111843000D02*
X85272000Y-113659000D01*
X85272000Y-107947000D02*
X85272000Y-109763000D01*
X85232000Y-111843000D02*
X85232000Y-113637000D01*
X85232000Y-107969000D02*
X85232000Y-109763000D01*
X85192000Y-111843000D02*
X85192000Y-113615000D01*
X85192000Y-107991000D02*
X85192000Y-109763000D01*
X85152000Y-111843000D02*
X85152000Y-113593000D01*
X85152000Y-108013000D02*
X85152000Y-109763000D01*
X85112000Y-111843000D02*
X85112000Y-113569000D01*
X85112000Y-108037000D02*
X85112000Y-109763000D01*
X85072000Y-111843000D02*
X85072000Y-113545000D01*
X85072000Y-108061000D02*
X85072000Y-109763000D01*
X85032000Y-111843000D02*
X85032000Y-113519000D01*
X85032000Y-108087000D02*
X85032000Y-109763000D01*
X84992000Y-111843000D02*
X84992000Y-113493000D01*
X84992000Y-108113000D02*
X84992000Y-109763000D01*
X84952000Y-111843000D02*
X84952000Y-113467000D01*
X84952000Y-108139000D02*
X84952000Y-109763000D01*
X84912000Y-111843000D02*
X84912000Y-113439000D01*
X84912000Y-108167000D02*
X84912000Y-109763000D01*
X84872000Y-111843000D02*
X84872000Y-113410000D01*
X84872000Y-108196000D02*
X84872000Y-109763000D01*
X84832000Y-111843000D02*
X84832000Y-113381000D01*
X84832000Y-108225000D02*
X84832000Y-109763000D01*
X84792000Y-111843000D02*
X84792000Y-113351000D01*
X84792000Y-108255000D02*
X84792000Y-109763000D01*
X84752000Y-111843000D02*
X84752000Y-113319000D01*
X84752000Y-108287000D02*
X84752000Y-109763000D01*
X84712000Y-111843000D02*
X84712000Y-113287000D01*
X84712000Y-108319000D02*
X84712000Y-109763000D01*
X84672000Y-111843000D02*
X84672000Y-113253000D01*
X84672000Y-108353000D02*
X84672000Y-109763000D01*
X84632000Y-111843000D02*
X84632000Y-113219000D01*
X84632000Y-108387000D02*
X84632000Y-109763000D01*
X84592000Y-111843000D02*
X84592000Y-113183000D01*
X84592000Y-108423000D02*
X84592000Y-109763000D01*
X84552000Y-111843000D02*
X84552000Y-113146000D01*
X84552000Y-108460000D02*
X84552000Y-109763000D01*
X84512000Y-111843000D02*
X84512000Y-113108000D01*
X84512000Y-108498000D02*
X84512000Y-109763000D01*
X84472000Y-108538000D02*
X84472000Y-113068000D01*
X84432000Y-108579000D02*
X84432000Y-113027000D01*
X84392000Y-108621000D02*
X84392000Y-112985000D01*
X84352000Y-108666000D02*
X84352000Y-112940000D01*
X84312000Y-108711000D02*
X84312000Y-112895000D01*
X84272000Y-108759000D02*
X84272000Y-112847000D01*
X84232000Y-108808000D02*
X84232000Y-112798000D01*
X84192000Y-108859000D02*
X84192000Y-112747000D01*
X84152000Y-108913000D02*
X84152000Y-112693000D01*
X84112000Y-108969000D02*
X84112000Y-112637000D01*
X84072000Y-109027000D02*
X84072000Y-112579000D01*
X84032000Y-109089000D02*
X84032000Y-112517000D01*
X83992000Y-109153000D02*
X83992000Y-112453000D01*
X83952000Y-109222000D02*
X83952000Y-112384000D01*
X83912000Y-109294000D02*
X83912000Y-112312000D01*
X83872000Y-109371000D02*
X83872000Y-112235000D01*
X83832000Y-109453000D02*
X83832000Y-112153000D01*
X83792000Y-109541000D02*
X83792000Y-112065000D01*
X83752000Y-109638000D02*
X83752000Y-111968000D01*
X83712000Y-109744000D02*
X83712000Y-111862000D01*
X83672000Y-109863000D02*
X83672000Y-111743000D01*
X83632000Y-110001000D02*
X83632000Y-111605000D01*
X83592000Y-110170000D02*
X83592000Y-111436000D01*
X83552000Y-110401000D02*
X83552000Y-111205000D01*
X90063000Y-110803000D02*
G75*
G03*
X83523000Y-110803000I-3270000J0D01*
G01*
X83523000Y-110803000D02*
G75*
G03*
X90063000Y-110803000I3270000J0D01*
G01*
X69432000Y-73445000D02*
X92632000Y-73445000D01*
X69432000Y-76245000D02*
X69432000Y-73445000D01*
X72142000Y-76245000D02*
X72142000Y-73445000D01*
X92632000Y-73445000D02*
X92632000Y-76245000D01*
X92632000Y-76245000D02*
X69432000Y-76245000D01*
X65477000Y-45202500D02*
X62937000Y-45202500D01*
X109247000Y-46222500D02*
X109247000Y-69322500D01*
X60307000Y-46222500D02*
X109247000Y-46222500D01*
X53547000Y-46222500D02*
X55407000Y-46222500D01*
X53547000Y-48502500D02*
X55807000Y-48502500D01*
X109247000Y-69322500D02*
X53547000Y-69322500D01*
X53547000Y-69322500D02*
X53547000Y-46222500D01*
X58757000Y-46952500D02*
G75*
G03*
X56957000Y-46952500I-900000J0D01*
G01*
X56957000Y-46952500D02*
G75*
G03*
X58757000Y-46952500I900000J0D01*
G01*
X60407000Y-46952500D02*
G75*
G03*
X55307000Y-46952500I-2550000J0D01*
G01*
X55307000Y-46952500D02*
G75*
G03*
X60407000Y-46952500I2550000J0D01*
G01*
%LPC*%
D13*
X44997000Y-50695000D03*
X51497000Y-50695000D03*
X44997000Y-55195000D03*
X51497000Y-55195000D03*
D14*
X108077000Y-55245000D03*
D15*
X110617000Y-55245000D03*
X113157000Y-55245000D03*
X115697000Y-55245000D03*
X118237000Y-55245000D03*
X118237000Y-47625000D03*
X115697000Y-47625000D03*
X113157000Y-47625000D03*
X110617000Y-47625000D03*
X108077000Y-47625000D03*
D14*
X78421000Y-86237000D03*
D15*
X78421000Y-88777000D03*
X78421000Y-91317000D03*
X78421000Y-93857000D03*
X78421000Y-96397000D03*
X78421000Y-98937000D03*
X78421000Y-101477000D03*
X70801000Y-101477000D03*
X70801000Y-98937000D03*
X70801000Y-96397000D03*
X70801000Y-93857000D03*
X70801000Y-91317000D03*
X70801000Y-88777000D03*
X70801000Y-86237000D03*
D16*
X72071000Y-80903000D03*
X77071000Y-80903000D03*
X50947000Y-62045000D03*
X45947000Y-62045000D03*
D14*
X90947000Y-86245000D03*
D15*
X90947000Y-88785000D03*
X90947000Y-91325000D03*
X90947000Y-93865000D03*
X90947000Y-96405000D03*
X90947000Y-98945000D03*
X90947000Y-101485000D03*
X90947000Y-104025000D03*
X83327000Y-104025000D03*
X83327000Y-101485000D03*
X83327000Y-98945000D03*
X83327000Y-96405000D03*
X83327000Y-93865000D03*
X83327000Y-91325000D03*
X83327000Y-88785000D03*
X83327000Y-86245000D03*
D14*
X78397000Y-110845000D03*
D16*
X75897000Y-110845000D03*
X89597000Y-80945000D03*
X84597000Y-80945000D03*
X63447000Y-89935000D03*
D15*
X63447000Y-97555000D03*
D16*
X60197000Y-89935000D03*
D15*
X60197000Y-97555000D03*
D16*
X56897000Y-97525000D03*
D15*
X56897000Y-89905000D03*
D17*
X55465000Y-139192000D03*
X59425000Y-139192000D03*
X63385000Y-139192000D03*
X67345000Y-139192000D03*
X71305000Y-139192000D03*
X75265000Y-139192000D03*
X79225000Y-139192000D03*
X83185000Y-139192000D03*
X87145000Y-139192000D03*
X91105000Y-139192000D03*
X95065000Y-139192000D03*
X99025000Y-139192000D03*
X102985000Y-139192000D03*
X110905000Y-139192000D03*
D14*
X88043000Y-110803000D03*
D16*
X85543000Y-110803000D03*
D14*
X70872000Y-74845000D03*
D15*
X73412000Y-74845000D03*
X75952000Y-74845000D03*
X78492000Y-74845000D03*
X81032000Y-74845000D03*
X83572000Y-74845000D03*
X86112000Y-74845000D03*
X88652000Y-74845000D03*
X91192000Y-74845000D03*
D18*
X64207000Y-50152500D03*
D19*
X66747000Y-50152500D03*
X69287000Y-50152500D03*
X71827000Y-50152500D03*
X74367000Y-50152500D03*
X76907000Y-50152500D03*
X79447000Y-50152500D03*
X81987000Y-50152500D03*
X84527000Y-50152500D03*
X87067000Y-50152500D03*
X89607000Y-50152500D03*
X92147000Y-50152500D03*
X94687000Y-50152500D03*
X97227000Y-50152500D03*
X99767000Y-50152500D03*
X102307000Y-50152500D03*
X102307000Y-65392500D03*
X99767000Y-65392500D03*
X97227000Y-65392500D03*
X94687000Y-65392500D03*
X92147000Y-65392500D03*
X89607000Y-65392500D03*
X87067000Y-65392500D03*
X84527000Y-65392500D03*
X81987000Y-65392500D03*
X79447000Y-65392500D03*
X76907000Y-65392500D03*
X74367000Y-65392500D03*
X71827000Y-65392500D03*
X69287000Y-65392500D03*
X66747000Y-65392500D03*
X64207000Y-65392500D03*
%LPD*%
M02*
