G04 #@! TF.GenerationSoftware,KiCad,Pcbnew,(6.0.9)*
G04 #@! TF.CreationDate,2023-08-06T15:24:48+02:00*
G04 #@! TF.ProjectId,p2000t-multicartridge-zif,70323030-3074-42d6-9d75-6c7469636172,rev?*
G04 #@! TF.SameCoordinates,Original*
G04 #@! TF.FileFunction,Copper,L2,Bot*
G04 #@! TF.FilePolarity,Positive*
%FSLAX46Y46*%
G04 Gerber Fmt 4.6, Leading zero omitted, Abs format (unit mm)*
G04 Created by KiCad (PCBNEW (6.0.9)) date 2023-08-06 15:24:48*
%MOMM*%
%LPD*%
G01*
G04 APERTURE LIST*
G04 #@! TA.AperFunction,ComponentPad*
%ADD10C,2.000000*%
G04 #@! TD*
G04 #@! TA.AperFunction,ComponentPad*
%ADD11R,1.600000X1.600000*%
G04 #@! TD*
G04 #@! TA.AperFunction,ComponentPad*
%ADD12O,1.600000X1.600000*%
G04 #@! TD*
G04 #@! TA.AperFunction,ComponentPad*
%ADD13C,1.600000*%
G04 #@! TD*
G04 #@! TA.AperFunction,SMDPad,CuDef*
%ADD14R,2.000000X10.000000*%
G04 #@! TD*
G04 #@! TA.AperFunction,ComponentPad*
%ADD15R,1.440000X2.000000*%
G04 #@! TD*
G04 #@! TA.AperFunction,ComponentPad*
%ADD16O,1.440000X2.000000*%
G04 #@! TD*
G04 #@! TA.AperFunction,ViaPad*
%ADD17C,0.800000*%
G04 #@! TD*
G04 #@! TA.AperFunction,Conductor*
%ADD18C,0.500000*%
G04 #@! TD*
G04 #@! TA.AperFunction,Conductor*
%ADD19C,0.250000*%
G04 #@! TD*
G04 APERTURE END LIST*
D10*
X44997000Y-50695000D03*
X51497000Y-50695000D03*
X51497000Y-55195000D03*
X44997000Y-55195000D03*
D11*
X120347000Y-58745000D03*
D12*
X120347000Y-56205000D03*
X120347000Y-53665000D03*
X120347000Y-51125000D03*
X120347000Y-48585000D03*
X112727000Y-48585000D03*
X112727000Y-51125000D03*
X112727000Y-53665000D03*
X112727000Y-56205000D03*
X112727000Y-58745000D03*
D11*
X78421000Y-86237000D03*
D12*
X78421000Y-88777000D03*
X78421000Y-91317000D03*
X78421000Y-93857000D03*
X78421000Y-96397000D03*
X78421000Y-98937000D03*
X78421000Y-101477000D03*
X70801000Y-101477000D03*
X70801000Y-98937000D03*
X70801000Y-96397000D03*
X70801000Y-93857000D03*
X70801000Y-91317000D03*
X70801000Y-88777000D03*
X70801000Y-86237000D03*
D13*
X72071000Y-80903000D03*
X77071000Y-80903000D03*
X50947000Y-62045000D03*
X45947000Y-62045000D03*
D11*
X90947000Y-86245000D03*
D12*
X90947000Y-88785000D03*
X90947000Y-91325000D03*
X90947000Y-93865000D03*
X90947000Y-96405000D03*
X90947000Y-98945000D03*
X90947000Y-101485000D03*
X90947000Y-104025000D03*
X83327000Y-104025000D03*
X83327000Y-101485000D03*
X83327000Y-98945000D03*
X83327000Y-96405000D03*
X83327000Y-93865000D03*
X83327000Y-91325000D03*
X83327000Y-88785000D03*
X83327000Y-86245000D03*
D11*
X78397000Y-110845000D03*
D13*
X75897000Y-110845000D03*
X89597000Y-80945000D03*
X84597000Y-80945000D03*
X63447000Y-89935000D03*
D12*
X63447000Y-97555000D03*
D13*
X60197000Y-89935000D03*
D12*
X60197000Y-97555000D03*
D13*
X56897000Y-97525000D03*
D12*
X56897000Y-89905000D03*
D14*
X55465000Y-139192000D03*
X59425000Y-139192000D03*
X63385000Y-139192000D03*
X67345000Y-139192000D03*
X71305000Y-139192000D03*
X75265000Y-139192000D03*
X79225000Y-139192000D03*
X83185000Y-139192000D03*
X87145000Y-139192000D03*
X91105000Y-139192000D03*
X95065000Y-139192000D03*
X99025000Y-139192000D03*
X102985000Y-139192000D03*
X110905000Y-139192000D03*
D11*
X88043000Y-110803000D03*
D13*
X85543000Y-110803000D03*
D11*
X70872000Y-74845000D03*
D12*
X73412000Y-74845000D03*
X75952000Y-74845000D03*
X78492000Y-74845000D03*
X81032000Y-74845000D03*
X83572000Y-74845000D03*
X86112000Y-74845000D03*
X88652000Y-74845000D03*
X91192000Y-74845000D03*
D15*
X64207000Y-50152500D03*
D16*
X66747000Y-50152500D03*
X69287000Y-50152500D03*
X71827000Y-50152500D03*
X74367000Y-50152500D03*
X76907000Y-50152500D03*
X79447000Y-50152500D03*
X81987000Y-50152500D03*
X84527000Y-50152500D03*
X87067000Y-50152500D03*
X89607000Y-50152500D03*
X92147000Y-50152500D03*
X94687000Y-50152500D03*
X97227000Y-50152500D03*
X99767000Y-50152500D03*
X102307000Y-50152500D03*
X102307000Y-65392500D03*
X99767000Y-65392500D03*
X97227000Y-65392500D03*
X94687000Y-65392500D03*
X92147000Y-65392500D03*
X89607000Y-65392500D03*
X87067000Y-65392500D03*
X84527000Y-65392500D03*
X81987000Y-65392500D03*
X79447000Y-65392500D03*
X76907000Y-65392500D03*
X74367000Y-65392500D03*
X71827000Y-65392500D03*
X69287000Y-65392500D03*
X66747000Y-65392500D03*
X64207000Y-65392500D03*
D17*
X117047000Y-124645000D03*
X52547000Y-125545000D03*
X57834500Y-87946500D03*
X92155600Y-71141600D03*
X93087600Y-109035700D03*
X99445900Y-102432200D03*
X95461000Y-70422300D03*
X94961200Y-69340900D03*
X93949000Y-66875100D03*
X97971800Y-73263600D03*
X98795000Y-72471600D03*
X83246000Y-117461400D03*
X81642100Y-119065300D03*
X92890000Y-69240600D03*
X85251600Y-122801300D03*
X82520700Y-118186700D03*
X84691000Y-116016300D03*
X78471900Y-125804400D03*
X97063400Y-115291000D03*
X100091700Y-104000000D03*
X99782000Y-105014500D03*
X101133900Y-104016400D03*
X102975400Y-102811400D03*
X81736700Y-117556000D03*
X88598500Y-71493000D03*
X74851500Y-95107300D03*
X73851600Y-90191600D03*
D18*
X110905000Y-130787000D02*
X117047000Y-124645000D01*
X110905000Y-139192000D02*
X110905000Y-130787000D01*
X60197000Y-89935000D02*
X63447000Y-89935000D01*
X70801000Y-86237000D02*
X67145000Y-86237000D01*
D19*
X71997400Y-70642900D02*
X66747000Y-65392500D01*
D18*
X48647000Y-73245000D02*
X48647000Y-66345000D01*
X116847000Y-74345000D02*
X117047000Y-74545000D01*
X112727000Y-53665000D02*
X112727000Y-56205000D01*
X67145000Y-86237000D02*
X63447000Y-89935000D01*
X111547000Y-45945000D02*
X121547000Y-45945000D01*
X50947000Y-62045000D02*
X50947000Y-64045000D01*
X122347000Y-46745000D02*
X122347000Y-62545000D01*
X45347000Y-110045000D02*
X45347000Y-90545000D01*
X43547000Y-63345000D02*
X43547000Y-48545000D01*
D19*
X90947000Y-88785000D02*
X88587000Y-88785000D01*
D18*
X116847000Y-68045000D02*
X116847000Y-74345000D01*
D19*
X64207000Y-65392500D02*
X66747000Y-65392500D01*
D18*
X122347000Y-62545000D02*
X116847000Y-68045000D01*
X121547000Y-45945000D02*
X122347000Y-46745000D01*
X74329000Y-78645000D02*
X72071000Y-80903000D01*
X56867000Y-89935000D02*
X60197000Y-89935000D01*
X70801000Y-82173000D02*
X72071000Y-80903000D01*
X70801000Y-86237000D02*
X70801000Y-82173000D01*
D19*
X56867000Y-89935000D02*
X56897000Y-89905000D01*
D18*
X89597000Y-82695000D02*
X89597000Y-80945000D01*
X48947000Y-123145000D02*
X48947000Y-113645000D01*
X51347000Y-125545000D02*
X48947000Y-123145000D01*
X46547000Y-64245000D02*
X44447000Y-64245000D01*
X112727000Y-47125000D02*
X112727000Y-48585000D01*
X111547000Y-45945000D02*
X112727000Y-47125000D01*
X43547000Y-48545000D02*
X46147000Y-45945000D01*
X46147000Y-45945000D02*
X111547000Y-45945000D01*
X86047000Y-86245000D02*
X89597000Y-82695000D01*
X110647000Y-80945000D02*
X89597000Y-80945000D01*
X112727000Y-48585000D02*
X112727000Y-51125000D01*
X87297000Y-78645000D02*
X75186500Y-78645000D01*
X44447000Y-64245000D02*
X43547000Y-63345000D01*
D19*
X71997400Y-75455900D02*
X71997400Y-70642900D01*
D18*
X48647000Y-66345000D02*
X46547000Y-64245000D01*
X45957000Y-89935000D02*
X56867000Y-89935000D01*
X52547000Y-125545000D02*
X51347000Y-125545000D01*
X117047000Y-74545000D02*
X110647000Y-80945000D01*
X45347000Y-90545000D02*
X45957000Y-89935000D01*
X112727000Y-51125000D02*
X112727000Y-53665000D01*
X83327000Y-86245000D02*
X86047000Y-86245000D01*
X45347000Y-90545000D02*
X45347000Y-76545000D01*
D19*
X75186500Y-78645000D02*
X71997400Y-75455900D01*
D18*
X89597000Y-80945000D02*
X87297000Y-78645000D01*
X112727000Y-56205000D02*
X112727000Y-58745000D01*
X50947000Y-64045000D02*
X48647000Y-66345000D01*
D19*
X88587000Y-88785000D02*
X86047000Y-86245000D01*
D18*
X75186500Y-78645000D02*
X74329000Y-78645000D01*
X48947000Y-113645000D02*
X45347000Y-110045000D01*
X45347000Y-76545000D02*
X48647000Y-73245000D01*
D19*
X97227000Y-50152500D02*
X96181700Y-50152500D01*
X57834500Y-54260000D02*
X57834500Y-87946500D01*
X96181700Y-50152500D02*
X96181700Y-49858500D01*
X63737300Y-48357200D02*
X57834500Y-54260000D01*
X94680400Y-48357200D02*
X63737300Y-48357200D01*
X96181700Y-49858500D02*
X94680400Y-48357200D01*
X92224400Y-71210400D02*
X92155600Y-71141600D01*
X101261700Y-65392500D02*
X101261700Y-65656200D01*
X102307000Y-65392500D02*
X101261700Y-65392500D01*
X95707500Y-71210400D02*
X92224400Y-71210400D01*
X101261700Y-65656200D02*
X95707500Y-71210400D01*
X99445900Y-102677400D02*
X99445900Y-102432200D01*
X93087600Y-109035700D02*
X99445900Y-102677400D01*
X85572300Y-51197800D02*
X98313500Y-63939000D01*
X98313500Y-67569800D02*
X95461000Y-70422300D01*
X85572300Y-50152500D02*
X85572300Y-51197800D01*
X84527000Y-50152500D02*
X85572300Y-50152500D01*
X98313500Y-63939000D02*
X98313500Y-67569800D01*
X80492300Y-50446500D02*
X82596600Y-52550800D01*
X82596600Y-52550800D02*
X83647200Y-52550800D01*
X83647200Y-52550800D02*
X95758600Y-64662200D01*
X80492300Y-50152500D02*
X80492300Y-50446500D01*
X95758600Y-64662200D02*
X95758600Y-68543500D01*
X79447000Y-50152500D02*
X80492300Y-50152500D01*
X95758600Y-68543500D02*
X94961200Y-69340900D01*
X75412300Y-50152500D02*
X75412300Y-50446500D01*
X75412300Y-50446500D02*
X83993100Y-59027300D01*
X93417000Y-66343100D02*
X93949000Y-66875100D01*
X93417000Y-64841600D02*
X93417000Y-66343100D01*
X87602700Y-59027300D02*
X93417000Y-64841600D01*
X74367000Y-50152500D02*
X75412300Y-50152500D01*
X83993100Y-59027300D02*
X87602700Y-59027300D01*
X80492300Y-65686500D02*
X80492300Y-65392500D01*
X97971800Y-73263600D02*
X88069400Y-73263600D01*
X88069400Y-73263600D02*
X80492300Y-65686500D01*
X79447000Y-65392500D02*
X80492300Y-65392500D01*
X98795000Y-72471600D02*
X88501600Y-72471600D01*
X81987000Y-65957000D02*
X81987000Y-65392500D01*
X88501600Y-72471600D02*
X81987000Y-65957000D01*
X95065000Y-139192000D02*
X95065000Y-129280400D01*
X95065000Y-129280400D02*
X83246000Y-117461400D01*
X91105000Y-127628900D02*
X82541400Y-119065300D01*
X91105000Y-133866700D02*
X91105000Y-127628900D01*
X82541400Y-119065300D02*
X81642100Y-119065300D01*
X91105000Y-139192000D02*
X91105000Y-133866700D01*
X91630400Y-69240600D02*
X92890000Y-69240600D01*
X75581600Y-48827100D02*
X73921800Y-48827100D01*
X88396000Y-64915400D02*
X88396000Y-66006200D01*
X87145000Y-124694700D02*
X85251600Y-122801300D01*
X73242300Y-50799000D02*
X74116400Y-51673100D01*
X88396000Y-66006200D02*
X91630400Y-69240600D01*
X74116400Y-51673100D02*
X75153700Y-51673100D01*
X73921800Y-48827100D02*
X73242300Y-49506600D01*
X75153700Y-51673100D02*
X88396000Y-64915400D01*
X76907000Y-50152500D02*
X75581600Y-48827100D01*
X87145000Y-139192000D02*
X87145000Y-124694700D01*
X73242300Y-49506600D02*
X73242300Y-50799000D01*
X82367400Y-118340000D02*
X82520700Y-118186700D01*
X80916800Y-118764900D02*
X81341700Y-118340000D01*
X83185000Y-139192000D02*
X83185000Y-133866700D01*
X80916800Y-131598500D02*
X80916800Y-118764900D01*
X83185000Y-133866700D02*
X80916800Y-131598500D01*
X81341700Y-118340000D02*
X82367400Y-118340000D01*
X79225000Y-139192000D02*
X79225000Y-133866700D01*
X82250700Y-116016300D02*
X84691000Y-116016300D01*
X79225000Y-119042000D02*
X82250700Y-116016300D01*
X79225000Y-133866700D02*
X79225000Y-119042000D01*
X78471900Y-130659800D02*
X78471900Y-125804400D01*
X75265000Y-139192000D02*
X75265000Y-133866700D01*
X75265000Y-133866700D02*
X78471900Y-130659800D01*
X82339100Y-115291000D02*
X97063400Y-115291000D01*
X71305000Y-126325100D02*
X82339100Y-115291000D01*
X71305000Y-139192000D02*
X71305000Y-126325100D01*
X67345000Y-129648200D02*
X82152500Y-114840700D01*
X100535000Y-105314700D02*
X100535000Y-104443300D01*
X67345000Y-133866700D02*
X67345000Y-129648200D01*
X67345000Y-139192000D02*
X67345000Y-133866700D01*
X82152500Y-114840700D02*
X91009000Y-114840700D01*
X91009000Y-114840700D02*
X100535000Y-105314700D01*
X100535000Y-104443300D02*
X100091700Y-104000000D01*
X90406100Y-114390400D02*
X99782000Y-105014500D01*
X63385000Y-133866700D02*
X63385000Y-132971300D01*
X63385000Y-132971300D02*
X81965900Y-114390400D01*
X81965900Y-114390400D02*
X90406100Y-114390400D01*
X63385000Y-139192000D02*
X63385000Y-133866700D01*
X59425000Y-139192000D02*
X59425000Y-133866700D01*
X79351600Y-113940100D02*
X89209100Y-113940100D01*
X93813000Y-109336200D02*
X93813000Y-109174800D01*
X59425000Y-133866700D02*
X79351600Y-113940100D01*
X93813000Y-109174800D02*
X99737100Y-103250700D01*
X89209100Y-113940100D02*
X93813000Y-109336200D01*
X99737100Y-103250700D02*
X100368200Y-103250700D01*
X100368200Y-103250700D02*
X101133900Y-104016400D01*
X73016500Y-91317000D02*
X76834500Y-95135000D01*
X102985000Y-104812900D02*
X102985000Y-139192000D01*
X93307100Y-95135000D02*
X102985000Y-104812900D01*
X76834500Y-95135000D02*
X93307100Y-95135000D01*
X70801000Y-91317000D02*
X73016500Y-91317000D01*
X71926300Y-88777000D02*
X71926300Y-89310500D01*
X76472800Y-93857000D02*
X78421000Y-93857000D01*
X78421000Y-93857000D02*
X79546300Y-93857000D01*
X80668400Y-92734900D02*
X92898900Y-92734900D01*
X71926300Y-89310500D02*
X76472800Y-93857000D01*
X70801000Y-88777000D02*
X71926300Y-88777000D01*
X92898900Y-92734900D02*
X102975400Y-102811400D01*
X79546300Y-93857000D02*
X80668400Y-92734900D01*
X82556600Y-116736100D02*
X81736700Y-117556000D01*
X83546500Y-116736100D02*
X82556600Y-116736100D01*
X99025000Y-132214600D02*
X83546500Y-116736100D01*
X99025000Y-139192000D02*
X99025000Y-132214600D01*
X89206000Y-75987000D02*
X85660800Y-75987000D01*
X91192000Y-74845000D02*
X90066700Y-74845000D01*
X84842000Y-74517700D02*
X77621800Y-67297500D01*
X85660800Y-75987000D02*
X84842000Y-75168200D01*
X72872300Y-65686500D02*
X72872300Y-65392500D01*
X77621800Y-67297500D02*
X74483300Y-67297500D01*
X120347000Y-48585000D02*
X120347000Y-49710300D01*
X120628400Y-49710300D02*
X120347000Y-49710300D01*
X119816800Y-54935000D02*
X120748100Y-54935000D01*
X74483300Y-67297500D02*
X72872300Y-65686500D01*
X84842000Y-75168200D02*
X84842000Y-74517700D01*
X120748100Y-54935000D02*
X121472300Y-54210800D01*
X91192000Y-74845000D02*
X99906800Y-74845000D01*
X121472300Y-50554200D02*
X120628400Y-49710300D01*
X99906800Y-74845000D02*
X119816800Y-54935000D01*
X121472300Y-54210800D02*
X121472300Y-50554200D01*
X90066700Y-75126300D02*
X89206000Y-75987000D01*
X90066700Y-74845000D02*
X90066700Y-75126300D01*
X71827000Y-65392500D02*
X72872300Y-65392500D01*
X70332300Y-51197800D02*
X83257000Y-64122500D01*
X120347000Y-51125000D02*
X120347000Y-52250300D01*
X96160300Y-71867000D02*
X88972500Y-71867000D01*
X69287000Y-50152500D02*
X70332300Y-50152500D01*
X104243400Y-68893800D02*
X99133500Y-68893800D01*
X83257000Y-64122500D02*
X83257000Y-66151500D01*
X70332300Y-50152500D02*
X70332300Y-51197800D01*
X120347000Y-52250300D02*
X120065600Y-52250300D01*
X83257000Y-66151500D02*
X88598500Y-71493000D01*
X120065600Y-52250300D02*
X119221700Y-53094200D01*
X119221700Y-53915500D02*
X104243400Y-68893800D01*
X119221700Y-53094200D02*
X119221700Y-53915500D01*
X88972500Y-71867000D02*
X88598500Y-71493000D01*
X99133500Y-68893800D02*
X96160300Y-71867000D01*
X86112000Y-73719700D02*
X85971300Y-73719700D01*
X86112000Y-74845000D02*
X86112000Y-73719700D01*
X91764900Y-73719700D02*
X92050800Y-74005600D01*
X78177000Y-65925400D02*
X78177000Y-61582500D01*
X78177000Y-61582500D02*
X67792300Y-51197800D01*
X67792300Y-51197800D02*
X67792300Y-50152500D01*
X85971300Y-73719700D02*
X78177000Y-65925400D01*
X100006400Y-74005600D02*
X120347000Y-53665000D01*
X92050800Y-74005600D02*
X100006400Y-74005600D01*
X86112000Y-73719700D02*
X91764900Y-73719700D01*
X66747000Y-50152500D02*
X67792300Y-50152500D01*
X82446700Y-74845000D02*
X82446700Y-74563700D01*
X82446700Y-74563700D02*
X79892500Y-72009500D01*
X119221700Y-56205000D02*
X98989300Y-76437400D01*
X79892500Y-72009500D02*
X76655300Y-72009500D01*
X83572000Y-74845000D02*
X82446700Y-74845000D01*
X120347000Y-56205000D02*
X119221700Y-56205000D01*
X76655300Y-72009500D02*
X70332300Y-65686500D01*
X85164400Y-76437400D02*
X83572000Y-74845000D01*
X70332300Y-65686500D02*
X70332300Y-65392500D01*
X69287000Y-65392500D02*
X70332300Y-65392500D01*
X98989300Y-76437400D02*
X85164400Y-76437400D01*
X64207000Y-50152500D02*
X65252300Y-50152500D01*
X68017000Y-53962500D02*
X65252300Y-51197800D01*
X68017000Y-65883100D02*
X68017000Y-53962500D01*
X81032000Y-74845000D02*
X79906700Y-74845000D01*
X75254400Y-73120500D02*
X68017000Y-65883100D01*
X83090100Y-76903100D02*
X81032000Y-74845000D01*
X78403300Y-73120500D02*
X75254400Y-73120500D01*
X79906700Y-74623900D02*
X78403300Y-73120500D01*
X65252300Y-51197800D02*
X65252300Y-50152500D01*
X101063600Y-76903100D02*
X83090100Y-76903100D01*
X119221700Y-58745000D02*
X101063600Y-76903100D01*
X120347000Y-58745000D02*
X119221700Y-58745000D01*
X79906700Y-74845000D02*
X79906700Y-74623900D01*
X78421000Y-97811700D02*
X77555900Y-97811700D01*
X77555900Y-97811700D02*
X74851500Y-95107300D01*
X78421000Y-98937000D02*
X78421000Y-97811700D01*
X83327000Y-96405000D02*
X84452300Y-96405000D01*
X84452300Y-96405000D02*
X85577600Y-97530300D01*
X85577600Y-97530300D02*
X91132600Y-97530300D01*
X92115500Y-108805900D02*
X88499000Y-112422400D01*
X92115500Y-98513200D02*
X92115500Y-108805900D01*
X88499000Y-112422400D02*
X76909300Y-112422400D01*
X55465000Y-139192000D02*
X55465000Y-133866700D01*
X76909300Y-112422400D02*
X55465000Y-133866700D01*
X91132600Y-97530300D02*
X92115500Y-98513200D01*
X61322300Y-96570400D02*
X61322300Y-97555000D01*
X72165200Y-105457100D02*
X69224400Y-105457100D01*
X78397000Y-110845000D02*
X77271700Y-110845000D01*
X82201700Y-88785000D02*
X81012300Y-87595600D01*
X83327000Y-88785000D02*
X82201700Y-88785000D01*
X60197000Y-97555000D02*
X61322300Y-97555000D01*
X70297100Y-87595600D02*
X61322300Y-96570400D01*
X69224400Y-105457100D02*
X61322300Y-97555000D01*
X77271700Y-110563600D02*
X72165200Y-105457100D01*
X77271700Y-110845000D02*
X77271700Y-110563600D01*
X81012300Y-87595600D02*
X70297100Y-87595600D01*
X88043000Y-110803000D02*
X86917700Y-110803000D01*
X86917700Y-110803000D02*
X86917700Y-111084300D01*
X86031600Y-111970400D02*
X71342400Y-111970400D01*
X90947000Y-102610300D02*
X90665700Y-102610300D01*
X90665700Y-102610300D02*
X88043000Y-105233000D01*
X71342400Y-111970400D02*
X56897000Y-97525000D01*
X88043000Y-105233000D02*
X88043000Y-110803000D01*
X86917700Y-111084300D02*
X86031600Y-111970400D01*
X90947000Y-101485000D02*
X90947000Y-102610300D01*
X90947000Y-98945000D02*
X90947000Y-100070300D01*
X90947000Y-100070300D02*
X90665700Y-100070300D01*
X90665700Y-100070300D02*
X85543000Y-105193000D01*
X85543000Y-105193000D02*
X85543000Y-110803000D01*
X44997000Y-55195000D02*
X51497000Y-55195000D01*
X90947000Y-87370300D02*
X91228400Y-87370300D01*
X92072300Y-89257700D02*
X91138400Y-90191600D01*
X92072300Y-88214200D02*
X92072300Y-89257700D01*
X91138400Y-90191600D02*
X73851600Y-90191600D01*
X90947000Y-86245000D02*
X90947000Y-87370300D01*
X91228400Y-87370300D02*
X92072300Y-88214200D01*
G04 #@! TA.AperFunction,Conductor*
G36*
X122580621Y-44673502D02*
G01*
X122627114Y-44727158D01*
X122638500Y-44779500D01*
X122638500Y-65049728D01*
X122618498Y-65117849D01*
X122564842Y-65164342D01*
X122528946Y-65174650D01*
X122279179Y-65207532D01*
X122279173Y-65207533D01*
X122276454Y-65207891D01*
X121849470Y-65302551D01*
X121846845Y-65303379D01*
X121846840Y-65303380D01*
X121434988Y-65433236D01*
X121434980Y-65433239D01*
X121432360Y-65434065D01*
X121028300Y-65601433D01*
X120640364Y-65803379D01*
X120412843Y-65948326D01*
X120278021Y-66034217D01*
X120271505Y-66038368D01*
X120269337Y-66040032D01*
X120269325Y-66040040D01*
X120096414Y-66172720D01*
X119924531Y-66304611D01*
X119922503Y-66306469D01*
X119922495Y-66306476D01*
X119652437Y-66553938D01*
X119602081Y-66600081D01*
X119600230Y-66602101D01*
X119308476Y-66920495D01*
X119308469Y-66920503D01*
X119306611Y-66922531D01*
X119304929Y-66924723D01*
X119042040Y-67267325D01*
X119042032Y-67267337D01*
X119040368Y-67269505D01*
X118805379Y-67638364D01*
X118603433Y-68026300D01*
X118436065Y-68430360D01*
X118435239Y-68432980D01*
X118435236Y-68432988D01*
X118349895Y-68703656D01*
X118304551Y-68847470D01*
X118209891Y-69274454D01*
X118209533Y-69277173D01*
X118209532Y-69277179D01*
X118201143Y-69340900D01*
X118152805Y-69708065D01*
X118152685Y-69710814D01*
X118152684Y-69710825D01*
X118143405Y-69923349D01*
X118133728Y-70145000D01*
X118133848Y-70147748D01*
X118152044Y-70564498D01*
X118152805Y-70581935D01*
X118209891Y-71015546D01*
X118304551Y-71442530D01*
X118305379Y-71445155D01*
X118305380Y-71445160D01*
X118427871Y-71833651D01*
X118436065Y-71859640D01*
X118603433Y-72263700D01*
X118805379Y-72651636D01*
X118850207Y-72722002D01*
X119029112Y-73002826D01*
X119040368Y-73020495D01*
X119042032Y-73022663D01*
X119042040Y-73022675D01*
X119281846Y-73335195D01*
X119306611Y-73367469D01*
X119308469Y-73369497D01*
X119308476Y-73369505D01*
X119562612Y-73646846D01*
X119602081Y-73689919D01*
X119604101Y-73691770D01*
X119922495Y-73983524D01*
X119922503Y-73983531D01*
X119924531Y-73985389D01*
X119926723Y-73987071D01*
X120269325Y-74249960D01*
X120269337Y-74249968D01*
X120271505Y-74251632D01*
X120273817Y-74253105D01*
X120273820Y-74253107D01*
X120326679Y-74286782D01*
X120640364Y-74486621D01*
X121028300Y-74688567D01*
X121432360Y-74855935D01*
X121434980Y-74856761D01*
X121434988Y-74856764D01*
X121846840Y-74986620D01*
X121846845Y-74986621D01*
X121849470Y-74987449D01*
X122276454Y-75082109D01*
X122279173Y-75082467D01*
X122279179Y-75082468D01*
X122528946Y-75115350D01*
X122593873Y-75144072D01*
X122632965Y-75203337D01*
X122638500Y-75240272D01*
X122638500Y-77805386D01*
X122638501Y-83405387D01*
X122638501Y-94805386D01*
X122638500Y-100417386D01*
X122638500Y-115049728D01*
X122618498Y-115117849D01*
X122564842Y-115164342D01*
X122528946Y-115174650D01*
X122279179Y-115207532D01*
X122279173Y-115207533D01*
X122276454Y-115207891D01*
X121849470Y-115302551D01*
X121846845Y-115303379D01*
X121846840Y-115303380D01*
X121434988Y-115433236D01*
X121434980Y-115433239D01*
X121432360Y-115434065D01*
X121028300Y-115601433D01*
X120640364Y-115803379D01*
X120271505Y-116038368D01*
X120269337Y-116040032D01*
X120269325Y-116040040D01*
X120052746Y-116206228D01*
X119924531Y-116304611D01*
X119922503Y-116306469D01*
X119922495Y-116306476D01*
X119827439Y-116393579D01*
X119602081Y-116600081D01*
X119600230Y-116602101D01*
X119308476Y-116920495D01*
X119308469Y-116920503D01*
X119306611Y-116922531D01*
X119304929Y-116924723D01*
X119042040Y-117267325D01*
X119042032Y-117267337D01*
X119040368Y-117269505D01*
X118805379Y-117638364D01*
X118603433Y-118026300D01*
X118436065Y-118430360D01*
X118435239Y-118432980D01*
X118435236Y-118432988D01*
X118309437Y-118831973D01*
X118304551Y-118847470D01*
X118209891Y-119274454D01*
X118152805Y-119708065D01*
X118152685Y-119710814D01*
X118152684Y-119710825D01*
X118138676Y-120031679D01*
X118133728Y-120145000D01*
X118133848Y-120147748D01*
X118150810Y-120536235D01*
X118152805Y-120581935D01*
X118209891Y-121015546D01*
X118304551Y-121442530D01*
X118436065Y-121859640D01*
X118603433Y-122263700D01*
X118805379Y-122651636D01*
X119040368Y-123020495D01*
X119042032Y-123022663D01*
X119042040Y-123022675D01*
X119279798Y-123332526D01*
X119306611Y-123367469D01*
X119308469Y-123369497D01*
X119308476Y-123369505D01*
X119509182Y-123588537D01*
X119602081Y-123689919D01*
X119604101Y-123691770D01*
X119922495Y-123983524D01*
X119922503Y-123983531D01*
X119924531Y-123985389D01*
X119926723Y-123987071D01*
X120269325Y-124249960D01*
X120269337Y-124249968D01*
X120271505Y-124251632D01*
X120273817Y-124253105D01*
X120273820Y-124253107D01*
X120305743Y-124273444D01*
X120640364Y-124486621D01*
X121028300Y-124688567D01*
X121432360Y-124855935D01*
X121434980Y-124856761D01*
X121434988Y-124856764D01*
X121846840Y-124986620D01*
X121846845Y-124986621D01*
X121849470Y-124987449D01*
X122276454Y-125082109D01*
X122279173Y-125082467D01*
X122279179Y-125082468D01*
X122528946Y-125115350D01*
X122593873Y-125144072D01*
X122632965Y-125203337D01*
X122638500Y-125240272D01*
X122638500Y-133510500D01*
X122618498Y-133578621D01*
X122564842Y-133625114D01*
X122512500Y-133636500D01*
X114816623Y-133636500D01*
X114815853Y-133636498D01*
X114815037Y-133636493D01*
X114738279Y-133636024D01*
X114715918Y-133642415D01*
X114709847Y-133644150D01*
X114693085Y-133647728D01*
X114663813Y-133651920D01*
X114655645Y-133655634D01*
X114655644Y-133655634D01*
X114640438Y-133662548D01*
X114622914Y-133668996D01*
X114598229Y-133676051D01*
X114590635Y-133680843D01*
X114590632Y-133680844D01*
X114573220Y-133691830D01*
X114558137Y-133699969D01*
X114531218Y-133712208D01*
X114524416Y-133718069D01*
X114511765Y-133728970D01*
X114496761Y-133740073D01*
X114475042Y-133753776D01*
X114469103Y-133760501D01*
X114469099Y-133760504D01*
X114455468Y-133775938D01*
X114443276Y-133787982D01*
X114427673Y-133801427D01*
X114427671Y-133801430D01*
X114420873Y-133807287D01*
X114415993Y-133814816D01*
X114415992Y-133814817D01*
X114406906Y-133828835D01*
X114395615Y-133843709D01*
X114384569Y-133856217D01*
X114378622Y-133862951D01*
X114372312Y-133876391D01*
X114366058Y-133889711D01*
X114357737Y-133904691D01*
X114346529Y-133921983D01*
X114346527Y-133921988D01*
X114341648Y-133929515D01*
X114339078Y-133938108D01*
X114339076Y-133938113D01*
X114334289Y-133954120D01*
X114327628Y-133971564D01*
X114320533Y-133986676D01*
X114316719Y-133994800D01*
X114315338Y-134003667D01*
X114315338Y-134003668D01*
X114312170Y-134024015D01*
X114308387Y-134040732D01*
X114302485Y-134060466D01*
X114302484Y-134060472D01*
X114299914Y-134069066D01*
X114299859Y-134078037D01*
X114299859Y-134078038D01*
X114299704Y-134103497D01*
X114299671Y-134104289D01*
X114299500Y-134105386D01*
X114299500Y-134136377D01*
X114299498Y-134137147D01*
X114299024Y-134214721D01*
X114299408Y-134216065D01*
X114299500Y-134217410D01*
X114299500Y-143510500D01*
X114279498Y-143578621D01*
X114225842Y-143625114D01*
X114173500Y-143636500D01*
X112539500Y-143636500D01*
X112471379Y-143616498D01*
X112424886Y-143562842D01*
X112413500Y-143510500D01*
X112413500Y-134143866D01*
X112406745Y-134081684D01*
X112355615Y-133945295D01*
X112268261Y-133828739D01*
X112151705Y-133741385D01*
X112015316Y-133690255D01*
X111953134Y-133683500D01*
X111789500Y-133683500D01*
X111721379Y-133663498D01*
X111674886Y-133609842D01*
X111663500Y-133557500D01*
X111663500Y-131153371D01*
X111683502Y-131085250D01*
X111700405Y-131064276D01*
X117203331Y-125561350D01*
X117266228Y-125527199D01*
X117322824Y-125515169D01*
X117322833Y-125515166D01*
X117329288Y-125513794D01*
X117335319Y-125511109D01*
X117497722Y-125438803D01*
X117497724Y-125438802D01*
X117503752Y-125436118D01*
X117516136Y-125427121D01*
X117570146Y-125387880D01*
X117658253Y-125323866D01*
X117766778Y-125203337D01*
X117781621Y-125186852D01*
X117781622Y-125186851D01*
X117786040Y-125181944D01*
X117881527Y-125016556D01*
X117940542Y-124834928D01*
X117960504Y-124645000D01*
X117940542Y-124455072D01*
X117881527Y-124273444D01*
X117869786Y-124253107D01*
X117819243Y-124165566D01*
X117786040Y-124108056D01*
X117658253Y-123966134D01*
X117503752Y-123853882D01*
X117497724Y-123851198D01*
X117497722Y-123851197D01*
X117335319Y-123778891D01*
X117335318Y-123778891D01*
X117329288Y-123776206D01*
X117235888Y-123756353D01*
X117148944Y-123737872D01*
X117148939Y-123737872D01*
X117142487Y-123736500D01*
X116951513Y-123736500D01*
X116945061Y-123737872D01*
X116945056Y-123737872D01*
X116858112Y-123756353D01*
X116764712Y-123776206D01*
X116758682Y-123778891D01*
X116758681Y-123778891D01*
X116596278Y-123851197D01*
X116596276Y-123851198D01*
X116590248Y-123853882D01*
X116435747Y-123966134D01*
X116307960Y-124108056D01*
X116274757Y-124165566D01*
X116224215Y-124253107D01*
X116212473Y-124273444D01*
X116159906Y-124435229D01*
X116157613Y-124442285D01*
X116126875Y-124492444D01*
X110416089Y-130203230D01*
X110401677Y-130215616D01*
X110390082Y-130224149D01*
X110390077Y-130224154D01*
X110384182Y-130228492D01*
X110379443Y-130234070D01*
X110379440Y-130234073D01*
X110349965Y-130268768D01*
X110343035Y-130276284D01*
X110337340Y-130281979D01*
X110335060Y-130284861D01*
X110319719Y-130304251D01*
X110316928Y-130307655D01*
X110285027Y-130345205D01*
X110269667Y-130363285D01*
X110266339Y-130369801D01*
X110262972Y-130374850D01*
X110259805Y-130379979D01*
X110255266Y-130385716D01*
X110224345Y-130451875D01*
X110222442Y-130455769D01*
X110189231Y-130520808D01*
X110187492Y-130527916D01*
X110185393Y-130533559D01*
X110183476Y-130539322D01*
X110180378Y-130545950D01*
X110178888Y-130553112D01*
X110178888Y-130553113D01*
X110165514Y-130617412D01*
X110164544Y-130621696D01*
X110147192Y-130692610D01*
X110146500Y-130703764D01*
X110146464Y-130703762D01*
X110146225Y-130707755D01*
X110145851Y-130711947D01*
X110144360Y-130719115D01*
X110144558Y-130726432D01*
X110146454Y-130796521D01*
X110146500Y-130799928D01*
X110146500Y-133557500D01*
X110126498Y-133625621D01*
X110072842Y-133672114D01*
X110020500Y-133683500D01*
X109856866Y-133683500D01*
X109794684Y-133690255D01*
X109658295Y-133741385D01*
X109541739Y-133828739D01*
X109454385Y-133945295D01*
X109403255Y-134081684D01*
X109396500Y-134143866D01*
X109396500Y-143510500D01*
X109376498Y-143578621D01*
X109322842Y-143625114D01*
X109270500Y-143636500D01*
X104619500Y-143636500D01*
X104551379Y-143616498D01*
X104504886Y-143562842D01*
X104493500Y-143510500D01*
X104493500Y-134143866D01*
X104486745Y-134081684D01*
X104435615Y-133945295D01*
X104348261Y-133828739D01*
X104231705Y-133741385D01*
X104095316Y-133690255D01*
X104033134Y-133683500D01*
X103744500Y-133683500D01*
X103676379Y-133663498D01*
X103629886Y-133609842D01*
X103618500Y-133557500D01*
X103618500Y-104891663D01*
X103619027Y-104880479D01*
X103620701Y-104872991D01*
X103618562Y-104804932D01*
X103618500Y-104800975D01*
X103618500Y-104773044D01*
X103617994Y-104769038D01*
X103617061Y-104757192D01*
X103616901Y-104752079D01*
X103615673Y-104713010D01*
X103610022Y-104693558D01*
X103606014Y-104674206D01*
X103604468Y-104661968D01*
X103604467Y-104661966D01*
X103603474Y-104654103D01*
X103587194Y-104612986D01*
X103583359Y-104601785D01*
X103571018Y-104559306D01*
X103566985Y-104552487D01*
X103566983Y-104552482D01*
X103560707Y-104541871D01*
X103552010Y-104524121D01*
X103544552Y-104505283D01*
X103518571Y-104469523D01*
X103512053Y-104459601D01*
X103493578Y-104428360D01*
X103493574Y-104428355D01*
X103489542Y-104421537D01*
X103475218Y-104407213D01*
X103462376Y-104392178D01*
X103450472Y-104375793D01*
X103416406Y-104347611D01*
X103407627Y-104339622D01*
X103000983Y-103932978D01*
X102966957Y-103870666D01*
X102972022Y-103799851D01*
X103014569Y-103743015D01*
X103071090Y-103720856D01*
X103070887Y-103719900D01*
X103257688Y-103680194D01*
X103263719Y-103677509D01*
X103426122Y-103605203D01*
X103426124Y-103605202D01*
X103432152Y-103602518D01*
X103586653Y-103490266D01*
X103591075Y-103485355D01*
X103710021Y-103353252D01*
X103710022Y-103353251D01*
X103714440Y-103348344D01*
X103809927Y-103182956D01*
X103868942Y-103001328D01*
X103888904Y-102811400D01*
X103875905Y-102687722D01*
X103869632Y-102628035D01*
X103869632Y-102628033D01*
X103868942Y-102621472D01*
X103809927Y-102439844D01*
X103801724Y-102425635D01*
X103717741Y-102280174D01*
X103714440Y-102274456D01*
X103685462Y-102242272D01*
X103591075Y-102137445D01*
X103591074Y-102137444D01*
X103586653Y-102132534D01*
X103432152Y-102020282D01*
X103426124Y-102017598D01*
X103426122Y-102017597D01*
X103263719Y-101945291D01*
X103263718Y-101945291D01*
X103257688Y-101942606D01*
X103155725Y-101920933D01*
X103077344Y-101904272D01*
X103077339Y-101904272D01*
X103070887Y-101902900D01*
X103014994Y-101902900D01*
X102946873Y-101882898D01*
X102925899Y-101865995D01*
X98170972Y-97111067D01*
X93402552Y-92342647D01*
X93395012Y-92334361D01*
X93390900Y-92327882D01*
X93364934Y-92303498D01*
X93341249Y-92281257D01*
X93338407Y-92278502D01*
X93318670Y-92258765D01*
X93315473Y-92256285D01*
X93306451Y-92248580D01*
X93293022Y-92235969D01*
X93274221Y-92218314D01*
X93267275Y-92214495D01*
X93267272Y-92214493D01*
X93256466Y-92208552D01*
X93239947Y-92197701D01*
X93239483Y-92197341D01*
X93223941Y-92185286D01*
X93216672Y-92182141D01*
X93216668Y-92182138D01*
X93183363Y-92167726D01*
X93172713Y-92162509D01*
X93133960Y-92141205D01*
X93114337Y-92136167D01*
X93095634Y-92129763D01*
X93084320Y-92124867D01*
X93084319Y-92124867D01*
X93077045Y-92121719D01*
X93069222Y-92120480D01*
X93069212Y-92120477D01*
X93033376Y-92114801D01*
X93021756Y-92112395D01*
X92986611Y-92103372D01*
X92986610Y-92103372D01*
X92978930Y-92101400D01*
X92958676Y-92101400D01*
X92938965Y-92099849D01*
X92926786Y-92097920D01*
X92918957Y-92096680D01*
X92889686Y-92099447D01*
X92874939Y-92100841D01*
X92863081Y-92101400D01*
X92225957Y-92101400D01*
X92157836Y-92081398D01*
X92111343Y-92027742D01*
X92101239Y-91957468D01*
X92111762Y-91922150D01*
X92178490Y-91779053D01*
X92182236Y-91768761D01*
X92228394Y-91596497D01*
X92228058Y-91582401D01*
X92220116Y-91579000D01*
X89679033Y-91579000D01*
X89665502Y-91582973D01*
X89664273Y-91591522D01*
X89711764Y-91768761D01*
X89715510Y-91779053D01*
X89782238Y-91922150D01*
X89792899Y-91992341D01*
X89763919Y-92057154D01*
X89704500Y-92096011D01*
X89668043Y-92101400D01*
X84606509Y-92101400D01*
X84538388Y-92081398D01*
X84491895Y-92027742D01*
X84481791Y-91957468D01*
X84492314Y-91922150D01*
X84558961Y-91779225D01*
X84558961Y-91779224D01*
X84561284Y-91774243D01*
X84564851Y-91760933D01*
X84619119Y-91558402D01*
X84619119Y-91558400D01*
X84620543Y-91553087D01*
X84640498Y-91325000D01*
X84620543Y-91096913D01*
X84619120Y-91091602D01*
X84619118Y-91091591D01*
X84590211Y-90983712D01*
X84591900Y-90912735D01*
X84631694Y-90853939D01*
X84696958Y-90825991D01*
X84711917Y-90825100D01*
X89562600Y-90825100D01*
X89630721Y-90845102D01*
X89677214Y-90898758D01*
X89687318Y-90969032D01*
X89684307Y-90983711D01*
X89665606Y-91053503D01*
X89665942Y-91067599D01*
X89673884Y-91071000D01*
X90674885Y-91071000D01*
X90690124Y-91066525D01*
X90691329Y-91065135D01*
X90693000Y-91057452D01*
X90693000Y-90951100D01*
X90713002Y-90882979D01*
X90766658Y-90836486D01*
X90819000Y-90825100D01*
X91059633Y-90825100D01*
X91070816Y-90825627D01*
X91078309Y-90827302D01*
X91086235Y-90827053D01*
X91086861Y-90827112D01*
X91152796Y-90853438D01*
X91194032Y-90911232D01*
X91201000Y-90952553D01*
X91201000Y-91052885D01*
X91205475Y-91068124D01*
X91206865Y-91069329D01*
X91214548Y-91071000D01*
X92214967Y-91071000D01*
X92228498Y-91067027D01*
X92229727Y-91058478D01*
X92182236Y-90881239D01*
X92178490Y-90870947D01*
X92086414Y-90673489D01*
X92080931Y-90663993D01*
X91955972Y-90485533D01*
X91948916Y-90477125D01*
X91937943Y-90466152D01*
X91903917Y-90403840D01*
X91908982Y-90333025D01*
X91937943Y-90287962D01*
X92464553Y-89761352D01*
X92472839Y-89753812D01*
X92479318Y-89749700D01*
X92525944Y-89700048D01*
X92528698Y-89697207D01*
X92548435Y-89677470D01*
X92550915Y-89674273D01*
X92558620Y-89665251D01*
X92575196Y-89647599D01*
X92588886Y-89633021D01*
X92592705Y-89626075D01*
X92592707Y-89626072D01*
X92598648Y-89615266D01*
X92609499Y-89598747D01*
X92617058Y-89589001D01*
X92621914Y-89582741D01*
X92625059Y-89575472D01*
X92625062Y-89575468D01*
X92639474Y-89542163D01*
X92644691Y-89531513D01*
X92665995Y-89492760D01*
X92671033Y-89473137D01*
X92677437Y-89454434D01*
X92682333Y-89443120D01*
X92682333Y-89443119D01*
X92685481Y-89435845D01*
X92686720Y-89428022D01*
X92686723Y-89428012D01*
X92692399Y-89392176D01*
X92694805Y-89380556D01*
X92703828Y-89345411D01*
X92703828Y-89345410D01*
X92705800Y-89337730D01*
X92705800Y-89317476D01*
X92707351Y-89297765D01*
X92709280Y-89285586D01*
X92710520Y-89277757D01*
X92706359Y-89233738D01*
X92705800Y-89221881D01*
X92705800Y-88292967D01*
X92706327Y-88281784D01*
X92708002Y-88274291D01*
X92705862Y-88206200D01*
X92705800Y-88202243D01*
X92705800Y-88174344D01*
X92705296Y-88170353D01*
X92704363Y-88158511D01*
X92703867Y-88142706D01*
X92702974Y-88114311D01*
X92700762Y-88106697D01*
X92700761Y-88106692D01*
X92697323Y-88094859D01*
X92693312Y-88075495D01*
X92691767Y-88063264D01*
X92690774Y-88055403D01*
X92687857Y-88048036D01*
X92687856Y-88048031D01*
X92674498Y-88014292D01*
X92670654Y-88003065D01*
X92666523Y-87988848D01*
X92658318Y-87960607D01*
X92648007Y-87943172D01*
X92639312Y-87925424D01*
X92631852Y-87906583D01*
X92605864Y-87870813D01*
X92599348Y-87860893D01*
X92580880Y-87829665D01*
X92580878Y-87829662D01*
X92576842Y-87822838D01*
X92562521Y-87808517D01*
X92549680Y-87793483D01*
X92542431Y-87783506D01*
X92537772Y-87777093D01*
X92531667Y-87772042D01*
X92531662Y-87772037D01*
X92503702Y-87748906D01*
X92494924Y-87740919D01*
X92382924Y-87628919D01*
X92209708Y-87455704D01*
X92175683Y-87393391D01*
X92180747Y-87322576D01*
X92188284Y-87306097D01*
X92192229Y-87298891D01*
X92197615Y-87291705D01*
X92248745Y-87155316D01*
X92255500Y-87093134D01*
X92255500Y-85396866D01*
X92248745Y-85334684D01*
X92197615Y-85198295D01*
X92110261Y-85081739D01*
X91993705Y-84994385D01*
X91857316Y-84943255D01*
X91795134Y-84936500D01*
X90098866Y-84936500D01*
X90036684Y-84943255D01*
X89900295Y-84994385D01*
X89783739Y-85081739D01*
X89696385Y-85198295D01*
X89645255Y-85334684D01*
X89638500Y-85396866D01*
X89638500Y-87093134D01*
X89645255Y-87155316D01*
X89696385Y-87291705D01*
X89783739Y-87408261D01*
X89900295Y-87495615D01*
X90036684Y-87546745D01*
X90048229Y-87547999D01*
X90050910Y-87549113D01*
X90052222Y-87549425D01*
X90052172Y-87549637D01*
X90113790Y-87575238D01*
X90154218Y-87633599D01*
X90156677Y-87704553D01*
X90120384Y-87765572D01*
X90109775Y-87774147D01*
X90099125Y-87783084D01*
X89945084Y-87937125D01*
X89938028Y-87945533D01*
X89813069Y-88123993D01*
X89807586Y-88133489D01*
X89715510Y-88330947D01*
X89711764Y-88341239D01*
X89665606Y-88513503D01*
X89665942Y-88527599D01*
X89673884Y-88531000D01*
X91075000Y-88531000D01*
X91143121Y-88551002D01*
X91189614Y-88604658D01*
X91201000Y-88657000D01*
X91201000Y-89180905D01*
X91180998Y-89249026D01*
X91164097Y-89269998D01*
X90912899Y-89521196D01*
X90850587Y-89555221D01*
X90823804Y-89558100D01*
X90819000Y-89558100D01*
X90750879Y-89538098D01*
X90704386Y-89484442D01*
X90693000Y-89432100D01*
X90693000Y-89057115D01*
X90688525Y-89041876D01*
X90687135Y-89040671D01*
X90679452Y-89039000D01*
X89679033Y-89039000D01*
X89665502Y-89042973D01*
X89664273Y-89051522D01*
X89711764Y-89228761D01*
X89715510Y-89239053D01*
X89780699Y-89378850D01*
X89791360Y-89449041D01*
X89762380Y-89513854D01*
X89702961Y-89552711D01*
X89666504Y-89558100D01*
X84608048Y-89558100D01*
X84539927Y-89538098D01*
X84493434Y-89484442D01*
X84483330Y-89414168D01*
X84493853Y-89378850D01*
X84558961Y-89239225D01*
X84558961Y-89239224D01*
X84561284Y-89234243D01*
X84564578Y-89221952D01*
X84619119Y-89018402D01*
X84619119Y-89018400D01*
X84620543Y-89013087D01*
X84640498Y-88785000D01*
X84620543Y-88556913D01*
X84618959Y-88551002D01*
X84562707Y-88341067D01*
X84562706Y-88341065D01*
X84561284Y-88335757D01*
X84550099Y-88311771D01*
X84466849Y-88133238D01*
X84466846Y-88133233D01*
X84464523Y-88128251D01*
X84366912Y-87988848D01*
X84336357Y-87945211D01*
X84336355Y-87945208D01*
X84333198Y-87940700D01*
X84171300Y-87778802D01*
X84166792Y-87775645D01*
X84166789Y-87775643D01*
X84065262Y-87704553D01*
X83983749Y-87647477D01*
X83978767Y-87645154D01*
X83978762Y-87645151D01*
X83943951Y-87628919D01*
X83890666Y-87582002D01*
X83871205Y-87513725D01*
X83891747Y-87445765D01*
X83943951Y-87400529D01*
X83978511Y-87384414D01*
X83988007Y-87378931D01*
X84166467Y-87253972D01*
X84174875Y-87246916D01*
X84328916Y-87092875D01*
X84335972Y-87084467D01*
X84460931Y-86906007D01*
X84466414Y-86896511D01*
X84558490Y-86699053D01*
X84562236Y-86688761D01*
X84608394Y-86516497D01*
X84608058Y-86502401D01*
X84600116Y-86499000D01*
X82059033Y-86499000D01*
X82045502Y-86502973D01*
X82044273Y-86511522D01*
X82091764Y-86688761D01*
X82095510Y-86699053D01*
X82187586Y-86896511D01*
X82193069Y-86906007D01*
X82318028Y-87084467D01*
X82325084Y-87092875D01*
X82479125Y-87246916D01*
X82487533Y-87253972D01*
X82665993Y-87378931D01*
X82675489Y-87384414D01*
X82710049Y-87400529D01*
X82763334Y-87447446D01*
X82782795Y-87515723D01*
X82762253Y-87583683D01*
X82710049Y-87628919D01*
X82675238Y-87645151D01*
X82675233Y-87645154D01*
X82670251Y-87647477D01*
X82588738Y-87704553D01*
X82487211Y-87775643D01*
X82487208Y-87775645D01*
X82482700Y-87778802D01*
X82376149Y-87885353D01*
X82313837Y-87919379D01*
X82243022Y-87914314D01*
X82197959Y-87885353D01*
X81515948Y-87203342D01*
X81508413Y-87195062D01*
X81504300Y-87188582D01*
X81454648Y-87141956D01*
X81451807Y-87139202D01*
X81432070Y-87119465D01*
X81428873Y-87116985D01*
X81419851Y-87109280D01*
X81402657Y-87093134D01*
X81387621Y-87079014D01*
X81380675Y-87075195D01*
X81380672Y-87075193D01*
X81369866Y-87069252D01*
X81353347Y-87058401D01*
X81352883Y-87058041D01*
X81337341Y-87045986D01*
X81330072Y-87042841D01*
X81330068Y-87042838D01*
X81296763Y-87028426D01*
X81286113Y-87023209D01*
X81247360Y-87001905D01*
X81227737Y-86996867D01*
X81209034Y-86990463D01*
X81197720Y-86985567D01*
X81197719Y-86985567D01*
X81190445Y-86982419D01*
X81182622Y-86981180D01*
X81182612Y-86981177D01*
X81146776Y-86975501D01*
X81135156Y-86973095D01*
X81100011Y-86964072D01*
X81100010Y-86964072D01*
X81092330Y-86962100D01*
X81072076Y-86962100D01*
X81052365Y-86960549D01*
X81040186Y-86958620D01*
X81032357Y-86957380D01*
X81024465Y-86958126D01*
X80988339Y-86961541D01*
X80976481Y-86962100D01*
X79855500Y-86962100D01*
X79787379Y-86942098D01*
X79740886Y-86888442D01*
X79729500Y-86836100D01*
X79729500Y-85973503D01*
X82045606Y-85973503D01*
X82045942Y-85987599D01*
X82053884Y-85991000D01*
X83054885Y-85991000D01*
X83070124Y-85986525D01*
X83071329Y-85985135D01*
X83073000Y-85977452D01*
X83073000Y-85972885D01*
X83581000Y-85972885D01*
X83585475Y-85988124D01*
X83586865Y-85989329D01*
X83594548Y-85991000D01*
X84594967Y-85991000D01*
X84608498Y-85987027D01*
X84609727Y-85978478D01*
X84562236Y-85801239D01*
X84558490Y-85790947D01*
X84466414Y-85593489D01*
X84460931Y-85583993D01*
X84335972Y-85405533D01*
X84328916Y-85397125D01*
X84174875Y-85243084D01*
X84166467Y-85236028D01*
X83988007Y-85111069D01*
X83978511Y-85105586D01*
X83781053Y-85013510D01*
X83770761Y-85009764D01*
X83598497Y-84963606D01*
X83584401Y-84963942D01*
X83581000Y-84971884D01*
X83581000Y-85972885D01*
X83073000Y-85972885D01*
X83073000Y-84977033D01*
X83069027Y-84963502D01*
X83060478Y-84962273D01*
X82883239Y-85009764D01*
X82872947Y-85013510D01*
X82675489Y-85105586D01*
X82665993Y-85111069D01*
X82487533Y-85236028D01*
X82479125Y-85243084D01*
X82325084Y-85397125D01*
X82318028Y-85405533D01*
X82193069Y-85583993D01*
X82187586Y-85593489D01*
X82095510Y-85790947D01*
X82091764Y-85801239D01*
X82045606Y-85973503D01*
X79729500Y-85973503D01*
X79729500Y-85388866D01*
X79722745Y-85326684D01*
X79671615Y-85190295D01*
X79584261Y-85073739D01*
X79467705Y-84986385D01*
X79331316Y-84935255D01*
X79269134Y-84928500D01*
X77572866Y-84928500D01*
X77510684Y-84935255D01*
X77374295Y-84986385D01*
X77257739Y-85073739D01*
X77170385Y-85190295D01*
X77119255Y-85326684D01*
X77112500Y-85388866D01*
X77112500Y-86836100D01*
X77092498Y-86904221D01*
X77038842Y-86950714D01*
X76986500Y-86962100D01*
X72103879Y-86962100D01*
X72035758Y-86942098D01*
X71989265Y-86888442D01*
X71979161Y-86818168D01*
X71989684Y-86782850D01*
X72032490Y-86691053D01*
X72036236Y-86680761D01*
X72082394Y-86508497D01*
X72082058Y-86494401D01*
X72074116Y-86491000D01*
X69533033Y-86491000D01*
X69519502Y-86494973D01*
X69518273Y-86503522D01*
X69565764Y-86680761D01*
X69569510Y-86691053D01*
X69661586Y-86888511D01*
X69667069Y-86898007D01*
X69784225Y-87065323D01*
X69806913Y-87132597D01*
X69789628Y-87201458D01*
X69770107Y-87226689D01*
X60930047Y-96066748D01*
X60921761Y-96074288D01*
X60915282Y-96078400D01*
X60909857Y-96084177D01*
X60868657Y-96128051D01*
X60865902Y-96130893D01*
X60846165Y-96150630D01*
X60843685Y-96153827D01*
X60835982Y-96162847D01*
X60805714Y-96195079D01*
X60801895Y-96202025D01*
X60801893Y-96202028D01*
X60795952Y-96212834D01*
X60785101Y-96229353D01*
X60772686Y-96245359D01*
X60769539Y-96252632D01*
X60766600Y-96257601D01*
X60714707Y-96306053D01*
X60644856Y-96318758D01*
X60625544Y-96315170D01*
X60425087Y-96261457D01*
X60197000Y-96241502D01*
X59968913Y-96261457D01*
X59963600Y-96262881D01*
X59963598Y-96262881D01*
X59753067Y-96319293D01*
X59753065Y-96319294D01*
X59747757Y-96320716D01*
X59742776Y-96323039D01*
X59742775Y-96323039D01*
X59545238Y-96415151D01*
X59545233Y-96415154D01*
X59540251Y-96417477D01*
X59459320Y-96474146D01*
X59357211Y-96545643D01*
X59357208Y-96545645D01*
X59352700Y-96548802D01*
X59190802Y-96710700D01*
X59059477Y-96898251D01*
X59057154Y-96903233D01*
X59057151Y-96903238D01*
X58984865Y-97058257D01*
X58962716Y-97105757D01*
X58961294Y-97111064D01*
X58961293Y-97111067D01*
X58910027Y-97302393D01*
X58903457Y-97326913D01*
X58883502Y-97555000D01*
X58903457Y-97783087D01*
X58904881Y-97788400D01*
X58904881Y-97788402D01*
X58957281Y-97983958D01*
X58962716Y-98004243D01*
X58965039Y-98009224D01*
X58965039Y-98009225D01*
X59057151Y-98206762D01*
X59057154Y-98206767D01*
X59059477Y-98211749D01*
X59114448Y-98290256D01*
X59169796Y-98369300D01*
X59190802Y-98399300D01*
X59352700Y-98561198D01*
X59357208Y-98564355D01*
X59357211Y-98564357D01*
X59396644Y-98591968D01*
X59540251Y-98692523D01*
X59545233Y-98694846D01*
X59545238Y-98694849D01*
X59733663Y-98782712D01*
X59747757Y-98789284D01*
X59753065Y-98790706D01*
X59753067Y-98790707D01*
X59963598Y-98847119D01*
X59963600Y-98847119D01*
X59968913Y-98848543D01*
X60197000Y-98868498D01*
X60425087Y-98848543D01*
X60430400Y-98847119D01*
X60430402Y-98847119D01*
X60640933Y-98790707D01*
X60640935Y-98790706D01*
X60646243Y-98789284D01*
X60660337Y-98782712D01*
X60848762Y-98694849D01*
X60848767Y-98694846D01*
X60853749Y-98692523D01*
X60997356Y-98591968D01*
X61036789Y-98564357D01*
X61036792Y-98564355D01*
X61041300Y-98561198D01*
X61147852Y-98454646D01*
X61210164Y-98420620D01*
X61280979Y-98425685D01*
X61326042Y-98454646D01*
X65107389Y-102235994D01*
X68720748Y-105849353D01*
X68728288Y-105857639D01*
X68732400Y-105864118D01*
X68738177Y-105869543D01*
X68782051Y-105910743D01*
X68784893Y-105913498D01*
X68804630Y-105933235D01*
X68807827Y-105935715D01*
X68816847Y-105943418D01*
X68849079Y-105973686D01*
X68856025Y-105977505D01*
X68856028Y-105977507D01*
X68866834Y-105983448D01*
X68883353Y-105994299D01*
X68899359Y-106006714D01*
X68906628Y-106009859D01*
X68906632Y-106009862D01*
X68939937Y-106024274D01*
X68950587Y-106029491D01*
X68989340Y-106050795D01*
X68997015Y-106052766D01*
X68997016Y-106052766D01*
X69008962Y-106055833D01*
X69027667Y-106062237D01*
X69046255Y-106070281D01*
X69054078Y-106071520D01*
X69054088Y-106071523D01*
X69089924Y-106077199D01*
X69101544Y-106079605D01*
X69136689Y-106088628D01*
X69144370Y-106090600D01*
X69164624Y-106090600D01*
X69184334Y-106092151D01*
X69204343Y-106095320D01*
X69212235Y-106094574D01*
X69248361Y-106091159D01*
X69260219Y-106090600D01*
X71850606Y-106090600D01*
X71918727Y-106110602D01*
X71939701Y-106127505D01*
X75303571Y-109491375D01*
X75337597Y-109553687D01*
X75332532Y-109624502D01*
X75289985Y-109681338D01*
X75267727Y-109694664D01*
X75245243Y-109705148D01*
X75245232Y-109705154D01*
X75240251Y-109707477D01*
X75192637Y-109740817D01*
X75057211Y-109835643D01*
X75057208Y-109835645D01*
X75052700Y-109838802D01*
X74890802Y-110000700D01*
X74759477Y-110188251D01*
X74757154Y-110193233D01*
X74757151Y-110193238D01*
X74670626Y-110378794D01*
X74662716Y-110395757D01*
X74661294Y-110401065D01*
X74661293Y-110401067D01*
X74604881Y-110611598D01*
X74603457Y-110616913D01*
X74583502Y-110845000D01*
X74603457Y-111073087D01*
X74604881Y-111078400D01*
X74604881Y-111078402D01*
X74631646Y-111178289D01*
X74629956Y-111249265D01*
X74590162Y-111308061D01*
X74524898Y-111336009D01*
X74509939Y-111336900D01*
X71656994Y-111336900D01*
X71588873Y-111316898D01*
X71567899Y-111299995D01*
X58206152Y-97938247D01*
X58172126Y-97875935D01*
X58173540Y-97816541D01*
X58175006Y-97811069D01*
X58190543Y-97753087D01*
X58210498Y-97525000D01*
X58190543Y-97296913D01*
X58176576Y-97244789D01*
X58132707Y-97081067D01*
X58132706Y-97081065D01*
X58131284Y-97075757D01*
X58050838Y-96903238D01*
X58036849Y-96873238D01*
X58036846Y-96873233D01*
X58034523Y-96868251D01*
X57927363Y-96715211D01*
X57906357Y-96685211D01*
X57906355Y-96685208D01*
X57903198Y-96680700D01*
X57741300Y-96518802D01*
X57736792Y-96515645D01*
X57736789Y-96515643D01*
X57567349Y-96397000D01*
X57553749Y-96387477D01*
X57548767Y-96385154D01*
X57548762Y-96385151D01*
X57351225Y-96293039D01*
X57351224Y-96293039D01*
X57346243Y-96290716D01*
X57340935Y-96289294D01*
X57340933Y-96289293D01*
X57130402Y-96232881D01*
X57130400Y-96232881D01*
X57125087Y-96231457D01*
X56897000Y-96211502D01*
X56668913Y-96231457D01*
X56663600Y-96232881D01*
X56663598Y-96232881D01*
X56453067Y-96289293D01*
X56453065Y-96289294D01*
X56447757Y-96290716D01*
X56442776Y-96293039D01*
X56442775Y-96293039D01*
X56245238Y-96385151D01*
X56245233Y-96385154D01*
X56240251Y-96387477D01*
X56226651Y-96397000D01*
X56057211Y-96515643D01*
X56057208Y-96515645D01*
X56052700Y-96518802D01*
X55890802Y-96680700D01*
X55887645Y-96685208D01*
X55887643Y-96685211D01*
X55866637Y-96715211D01*
X55759477Y-96868251D01*
X55757154Y-96873233D01*
X55757151Y-96873238D01*
X55743162Y-96903238D01*
X55662716Y-97075757D01*
X55661294Y-97081065D01*
X55661293Y-97081067D01*
X55617424Y-97244789D01*
X55603457Y-97296913D01*
X55583502Y-97525000D01*
X55603457Y-97753087D01*
X55604880Y-97758398D01*
X55604881Y-97758402D01*
X55654276Y-97942743D01*
X55662716Y-97974243D01*
X55665039Y-97979224D01*
X55665039Y-97979225D01*
X55757151Y-98176762D01*
X55757154Y-98176767D01*
X55759477Y-98181749D01*
X55828449Y-98280251D01*
X55872263Y-98342823D01*
X55890802Y-98369300D01*
X56052700Y-98531198D01*
X56057208Y-98534355D01*
X56057211Y-98534357D01*
X56126885Y-98583143D01*
X56240251Y-98662523D01*
X56245233Y-98664846D01*
X56245238Y-98664849D01*
X56339735Y-98708913D01*
X56447757Y-98759284D01*
X56453065Y-98760706D01*
X56453067Y-98760707D01*
X56663598Y-98817119D01*
X56663600Y-98817119D01*
X56668913Y-98818543D01*
X56897000Y-98838498D01*
X57125087Y-98818543D01*
X57130398Y-98817120D01*
X57130409Y-98817118D01*
X57188541Y-98801541D01*
X57259517Y-98803230D01*
X57310248Y-98834152D01*
X70838743Y-112362647D01*
X70846287Y-112370937D01*
X70850400Y-112377418D01*
X70856177Y-112382843D01*
X70900067Y-112424058D01*
X70902909Y-112426813D01*
X70922631Y-112446535D01*
X70925755Y-112448958D01*
X70925759Y-112448962D01*
X70925824Y-112449012D01*
X70934845Y-112456717D01*
X70967079Y-112486986D01*
X70974027Y-112490805D01*
X70974029Y-112490807D01*
X70984832Y-112496746D01*
X71001359Y-112507602D01*
X71011098Y-112515157D01*
X71011100Y-112515158D01*
X71017360Y-112520014D01*
X71057940Y-112537574D01*
X71068588Y-112542791D01*
X71107340Y-112564095D01*
X71115016Y-112566066D01*
X71115019Y-112566067D01*
X71126962Y-112569133D01*
X71145667Y-112575537D01*
X71164255Y-112583581D01*
X71172078Y-112584820D01*
X71172088Y-112584823D01*
X71207924Y-112590499D01*
X71219544Y-112592905D01*
X71254689Y-112601928D01*
X71262370Y-112603900D01*
X71282624Y-112603900D01*
X71302334Y-112605451D01*
X71322343Y-112608620D01*
X71330235Y-112607874D01*
X71366361Y-112604459D01*
X71378219Y-112603900D01*
X75527706Y-112603900D01*
X75595827Y-112623902D01*
X75642320Y-112677558D01*
X75652424Y-112747832D01*
X75622930Y-112812412D01*
X75616801Y-112818995D01*
X65269224Y-123166571D01*
X55072747Y-133363048D01*
X55064461Y-133370588D01*
X55057982Y-133374700D01*
X55052557Y-133380477D01*
X55011357Y-133424351D01*
X55008602Y-133427193D01*
X54988865Y-133446930D01*
X54986385Y-133450127D01*
X54978682Y-133459147D01*
X54948414Y-133491379D01*
X54944595Y-133498325D01*
X54944593Y-133498328D01*
X54938652Y-133509134D01*
X54927801Y-133525653D01*
X54915386Y-133541659D01*
X54912241Y-133548928D01*
X54912238Y-133548932D01*
X54897826Y-133582237D01*
X54892604Y-133592896D01*
X54878694Y-133618199D01*
X54828350Y-133668259D01*
X54768279Y-133683500D01*
X54416866Y-133683500D01*
X54354684Y-133690255D01*
X54218295Y-133741385D01*
X54101739Y-133828739D01*
X54014385Y-133945295D01*
X53963255Y-134081684D01*
X53956500Y-134143866D01*
X53956500Y-143510500D01*
X53936498Y-143578621D01*
X53882842Y-143625114D01*
X53830500Y-143636500D01*
X52069500Y-143636500D01*
X52001379Y-143616498D01*
X51954886Y-143562842D01*
X51943500Y-143510500D01*
X51943500Y-134153623D01*
X51943502Y-134152853D01*
X51943800Y-134104102D01*
X51943976Y-134075279D01*
X51935850Y-134046847D01*
X51932272Y-134030085D01*
X51929352Y-134009698D01*
X51928080Y-134000813D01*
X51917451Y-133977436D01*
X51911004Y-133959913D01*
X51906416Y-133943862D01*
X51903949Y-133935229D01*
X51899156Y-133927632D01*
X51888170Y-133910220D01*
X51880030Y-133895135D01*
X51877564Y-133889711D01*
X51867792Y-133868218D01*
X51851030Y-133848765D01*
X51839927Y-133833761D01*
X51826224Y-133812042D01*
X51819499Y-133806103D01*
X51819496Y-133806099D01*
X51804062Y-133792468D01*
X51792018Y-133780276D01*
X51778573Y-133764673D01*
X51778570Y-133764671D01*
X51772713Y-133757873D01*
X51759009Y-133748990D01*
X51751165Y-133743906D01*
X51736291Y-133732615D01*
X51723783Y-133721569D01*
X51723782Y-133721568D01*
X51717049Y-133715622D01*
X51690287Y-133703057D01*
X51675309Y-133694737D01*
X51658017Y-133683529D01*
X51658012Y-133683527D01*
X51650485Y-133678648D01*
X51641892Y-133676078D01*
X51641887Y-133676076D01*
X51625880Y-133671289D01*
X51608436Y-133664628D01*
X51593324Y-133657533D01*
X51593322Y-133657532D01*
X51585200Y-133653719D01*
X51576333Y-133652338D01*
X51576332Y-133652338D01*
X51565478Y-133650648D01*
X51555983Y-133649170D01*
X51539268Y-133645387D01*
X51519534Y-133639485D01*
X51519528Y-133639484D01*
X51510934Y-133636914D01*
X51501963Y-133636859D01*
X51501962Y-133636859D01*
X51491903Y-133636798D01*
X51476494Y-133636704D01*
X51475711Y-133636671D01*
X51474614Y-133636500D01*
X51443623Y-133636500D01*
X51442853Y-133636498D01*
X51369215Y-133636048D01*
X51369214Y-133636048D01*
X51365279Y-133636024D01*
X51363935Y-133636408D01*
X51362590Y-133636500D01*
X43781500Y-133636500D01*
X43713379Y-133616498D01*
X43666886Y-133562842D01*
X43655500Y-133510500D01*
X43655500Y-125240272D01*
X43675502Y-125172151D01*
X43729158Y-125125658D01*
X43765054Y-125115350D01*
X44014821Y-125082468D01*
X44014827Y-125082467D01*
X44017546Y-125082109D01*
X44444530Y-124987449D01*
X44447155Y-124986621D01*
X44447160Y-124986620D01*
X44859012Y-124856764D01*
X44859020Y-124856761D01*
X44861640Y-124855935D01*
X45265700Y-124688567D01*
X45653636Y-124486621D01*
X45988257Y-124273444D01*
X46020180Y-124253107D01*
X46020183Y-124253105D01*
X46022495Y-124251632D01*
X46024663Y-124249968D01*
X46024675Y-124249960D01*
X46367277Y-123987071D01*
X46369469Y-123985389D01*
X46371497Y-123983531D01*
X46371505Y-123983524D01*
X46689899Y-123691770D01*
X46691919Y-123689919D01*
X46784818Y-123588537D01*
X46985524Y-123369505D01*
X46985531Y-123369497D01*
X46987389Y-123367469D01*
X47014202Y-123332526D01*
X47251960Y-123022675D01*
X47251968Y-123022663D01*
X47253632Y-123020495D01*
X47488621Y-122651636D01*
X47690567Y-122263700D01*
X47857935Y-121859640D01*
X47989449Y-121442530D01*
X48084109Y-121015546D01*
X48141195Y-120581935D01*
X48143191Y-120536235D01*
X48160152Y-120147748D01*
X48160272Y-120145000D01*
X48155324Y-120031679D01*
X48141316Y-119710825D01*
X48141315Y-119710814D01*
X48141195Y-119708065D01*
X48084109Y-119274454D01*
X47989449Y-118847470D01*
X47984563Y-118831973D01*
X47858764Y-118432988D01*
X47858761Y-118432980D01*
X47857935Y-118430360D01*
X47690567Y-118026300D01*
X47488621Y-117638364D01*
X47253632Y-117269505D01*
X47251968Y-117267337D01*
X47251960Y-117267325D01*
X46989071Y-116924723D01*
X46987389Y-116922531D01*
X46985531Y-116920503D01*
X46985524Y-116920495D01*
X46693770Y-116602101D01*
X46691919Y-116600081D01*
X46466561Y-116393579D01*
X46371505Y-116306476D01*
X46371497Y-116306469D01*
X46369469Y-116304611D01*
X46241254Y-116206228D01*
X46024675Y-116040040D01*
X46024663Y-116040032D01*
X46022495Y-116038368D01*
X45653636Y-115803379D01*
X45265700Y-115601433D01*
X44861640Y-115434065D01*
X44859020Y-115433239D01*
X44859012Y-115433236D01*
X44447160Y-115303380D01*
X44447155Y-115303379D01*
X44444530Y-115302551D01*
X44017546Y-115207891D01*
X44014827Y-115207533D01*
X44014821Y-115207532D01*
X43765054Y-115174650D01*
X43700127Y-115145928D01*
X43661035Y-115086663D01*
X43655500Y-115049728D01*
X43655500Y-90171522D01*
X55614273Y-90171522D01*
X55661764Y-90348761D01*
X55665510Y-90359053D01*
X55757586Y-90556511D01*
X55763069Y-90566007D01*
X55888028Y-90744467D01*
X55895084Y-90752875D01*
X56049125Y-90906916D01*
X56057533Y-90913972D01*
X56235993Y-91038931D01*
X56245489Y-91044414D01*
X56442947Y-91136490D01*
X56453239Y-91140236D01*
X56625503Y-91186394D01*
X56639599Y-91186058D01*
X56643000Y-91178116D01*
X56643000Y-91172967D01*
X57151000Y-91172967D01*
X57154973Y-91186498D01*
X57163522Y-91187727D01*
X57340761Y-91140236D01*
X57351053Y-91136490D01*
X57548511Y-91044414D01*
X57558007Y-91038931D01*
X57583527Y-91021062D01*
X59475493Y-91021062D01*
X59484789Y-91033077D01*
X59535994Y-91068931D01*
X59545489Y-91074414D01*
X59742947Y-91166490D01*
X59753239Y-91170236D01*
X59963688Y-91226625D01*
X59974481Y-91228528D01*
X60191525Y-91247517D01*
X60202475Y-91247517D01*
X60419519Y-91228528D01*
X60430312Y-91226625D01*
X60640761Y-91170236D01*
X60651053Y-91166490D01*
X60848511Y-91074414D01*
X60858006Y-91068931D01*
X60910048Y-91032491D01*
X60918424Y-91022012D01*
X60917925Y-91021062D01*
X62725493Y-91021062D01*
X62734789Y-91033077D01*
X62785994Y-91068931D01*
X62795489Y-91074414D01*
X62992947Y-91166490D01*
X63003239Y-91170236D01*
X63213688Y-91226625D01*
X63224481Y-91228528D01*
X63441525Y-91247517D01*
X63452475Y-91247517D01*
X63669519Y-91228528D01*
X63680312Y-91226625D01*
X63890761Y-91170236D01*
X63901053Y-91166490D01*
X64098511Y-91074414D01*
X64108006Y-91068931D01*
X64160048Y-91032491D01*
X64168424Y-91022012D01*
X64161356Y-91008566D01*
X63459812Y-90307022D01*
X63445868Y-90299408D01*
X63444035Y-90299539D01*
X63437420Y-90303790D01*
X62731923Y-91009287D01*
X62725493Y-91021062D01*
X60917925Y-91021062D01*
X60911356Y-91008566D01*
X60209812Y-90307022D01*
X60195868Y-90299408D01*
X60194035Y-90299539D01*
X60187420Y-90303790D01*
X59481923Y-91009287D01*
X59475493Y-91021062D01*
X57583527Y-91021062D01*
X57736467Y-90913972D01*
X57744875Y-90906916D01*
X57898916Y-90752875D01*
X57905972Y-90744467D01*
X58030931Y-90566007D01*
X58036414Y-90556511D01*
X58128490Y-90359053D01*
X58132236Y-90348761D01*
X58178394Y-90176497D01*
X58178058Y-90162401D01*
X58170116Y-90159000D01*
X57169115Y-90159000D01*
X57153876Y-90163475D01*
X57152671Y-90164865D01*
X57151000Y-90172548D01*
X57151000Y-91172967D01*
X56643000Y-91172967D01*
X56643000Y-90177115D01*
X56638525Y-90161876D01*
X56637135Y-90160671D01*
X56629452Y-90159000D01*
X55629033Y-90159000D01*
X55615502Y-90162973D01*
X55614273Y-90171522D01*
X43655500Y-90171522D01*
X43655500Y-89940475D01*
X58884483Y-89940475D01*
X58903472Y-90157519D01*
X58905375Y-90168312D01*
X58961764Y-90378761D01*
X58965510Y-90389053D01*
X59057586Y-90586511D01*
X59063069Y-90596006D01*
X59099509Y-90648048D01*
X59109988Y-90656424D01*
X59123434Y-90649356D01*
X59824978Y-89947812D01*
X59831356Y-89936132D01*
X60561408Y-89936132D01*
X60561539Y-89937965D01*
X60565790Y-89944580D01*
X61271287Y-90650077D01*
X61283062Y-90656507D01*
X61295077Y-90647211D01*
X61330931Y-90596006D01*
X61336414Y-90586511D01*
X61428490Y-90389053D01*
X61432236Y-90378761D01*
X61488625Y-90168312D01*
X61490528Y-90157519D01*
X61509517Y-89940475D01*
X62134483Y-89940475D01*
X62153472Y-90157519D01*
X62155375Y-90168312D01*
X62211764Y-90378761D01*
X62215510Y-90389053D01*
X62307586Y-90586511D01*
X62313069Y-90596006D01*
X62349509Y-90648048D01*
X62359988Y-90656424D01*
X62373434Y-90649356D01*
X63074978Y-89947812D01*
X63081356Y-89936132D01*
X63811408Y-89936132D01*
X63811539Y-89937965D01*
X63815790Y-89944580D01*
X64521287Y-90650077D01*
X64533062Y-90656507D01*
X64545077Y-90647211D01*
X64580931Y-90596006D01*
X64586414Y-90586511D01*
X64678490Y-90389053D01*
X64682236Y-90378761D01*
X64738625Y-90168312D01*
X64740528Y-90157519D01*
X64759517Y-89940475D01*
X64759517Y-89929525D01*
X64740528Y-89712481D01*
X64738625Y-89701688D01*
X64682236Y-89491239D01*
X64678490Y-89480947D01*
X64586414Y-89283489D01*
X64580931Y-89273994D01*
X64544491Y-89221952D01*
X64534012Y-89213576D01*
X64520566Y-89220644D01*
X63819022Y-89922188D01*
X63811408Y-89936132D01*
X63081356Y-89936132D01*
X63082592Y-89933868D01*
X63082461Y-89932035D01*
X63078210Y-89925420D01*
X62372713Y-89219923D01*
X62360938Y-89213493D01*
X62348923Y-89222789D01*
X62313069Y-89273994D01*
X62307586Y-89283489D01*
X62215510Y-89480947D01*
X62211764Y-89491239D01*
X62155375Y-89701688D01*
X62153472Y-89712481D01*
X62134483Y-89929525D01*
X62134483Y-89940475D01*
X61509517Y-89940475D01*
X61509517Y-89929525D01*
X61490528Y-89712481D01*
X61488625Y-89701688D01*
X61432236Y-89491239D01*
X61428490Y-89480947D01*
X61336414Y-89283489D01*
X61330931Y-89273994D01*
X61294491Y-89221952D01*
X61284012Y-89213576D01*
X61270566Y-89220644D01*
X60569022Y-89922188D01*
X60561408Y-89936132D01*
X59831356Y-89936132D01*
X59832592Y-89933868D01*
X59832461Y-89932035D01*
X59828210Y-89925420D01*
X59122713Y-89219923D01*
X59110938Y-89213493D01*
X59098923Y-89222789D01*
X59063069Y-89273994D01*
X59057586Y-89283489D01*
X58965510Y-89480947D01*
X58961764Y-89491239D01*
X58905375Y-89701688D01*
X58903472Y-89712481D01*
X58884483Y-89929525D01*
X58884483Y-89940475D01*
X43655500Y-89940475D01*
X43655500Y-89633503D01*
X55615606Y-89633503D01*
X55615942Y-89647599D01*
X55623884Y-89651000D01*
X56624885Y-89651000D01*
X56640124Y-89646525D01*
X56641329Y-89645135D01*
X56643000Y-89637452D01*
X56643000Y-88637033D01*
X56639027Y-88623502D01*
X56630478Y-88622273D01*
X56453239Y-88669764D01*
X56442947Y-88673510D01*
X56245489Y-88765586D01*
X56235993Y-88771069D01*
X56057533Y-88896028D01*
X56049125Y-88903084D01*
X55895084Y-89057125D01*
X55888028Y-89065533D01*
X55763069Y-89243993D01*
X55757586Y-89253489D01*
X55665510Y-89450947D01*
X55661764Y-89461239D01*
X55615606Y-89633503D01*
X43655500Y-89633503D01*
X43655500Y-87946500D01*
X56920996Y-87946500D01*
X56921686Y-87953065D01*
X56940099Y-88128251D01*
X56940958Y-88136428D01*
X56999973Y-88318056D01*
X57003276Y-88323778D01*
X57003277Y-88323779D01*
X57013258Y-88341067D01*
X57095460Y-88483444D01*
X57122278Y-88513229D01*
X57152994Y-88577233D01*
X57148841Y-88611283D01*
X57151668Y-88611451D01*
X57151000Y-88622666D01*
X57151000Y-89632885D01*
X57155475Y-89648124D01*
X57156865Y-89649329D01*
X57164548Y-89651000D01*
X58164967Y-89651000D01*
X58178498Y-89647027D01*
X58179727Y-89638478D01*
X58132236Y-89461239D01*
X58128490Y-89450947D01*
X58036414Y-89253489D01*
X58030931Y-89243993D01*
X57905972Y-89065533D01*
X57895389Y-89052922D01*
X57897120Y-89051469D01*
X57867737Y-88997660D01*
X57872802Y-88926845D01*
X57915349Y-88870009D01*
X57963872Y-88847988D01*
X59475576Y-88847988D01*
X59482644Y-88861434D01*
X60184188Y-89562978D01*
X60198132Y-89570592D01*
X60199965Y-89570461D01*
X60206580Y-89566210D01*
X60912077Y-88860713D01*
X60918507Y-88848938D01*
X60917772Y-88847988D01*
X62725576Y-88847988D01*
X62732644Y-88861434D01*
X63434188Y-89562978D01*
X63448132Y-89570592D01*
X63449965Y-89570461D01*
X63456580Y-89566210D01*
X64162077Y-88860713D01*
X64168507Y-88848938D01*
X64159211Y-88836923D01*
X64108006Y-88801069D01*
X64098511Y-88795586D01*
X63901053Y-88703510D01*
X63890761Y-88699764D01*
X63680312Y-88643375D01*
X63669519Y-88641472D01*
X63452475Y-88622483D01*
X63441525Y-88622483D01*
X63224481Y-88641472D01*
X63213688Y-88643375D01*
X63003239Y-88699764D01*
X62992947Y-88703510D01*
X62795489Y-88795586D01*
X62785994Y-88801069D01*
X62733952Y-88837509D01*
X62725576Y-88847988D01*
X60917772Y-88847988D01*
X60909211Y-88836923D01*
X60858006Y-88801069D01*
X60848511Y-88795586D01*
X60651053Y-88703510D01*
X60640761Y-88699764D01*
X60430312Y-88643375D01*
X60419519Y-88641472D01*
X60202475Y-88622483D01*
X60191525Y-88622483D01*
X59974481Y-88641472D01*
X59963688Y-88643375D01*
X59753239Y-88699764D01*
X59742947Y-88703510D01*
X59545489Y-88795586D01*
X59535994Y-88801069D01*
X59483952Y-88837509D01*
X59475576Y-88847988D01*
X57963872Y-88847988D01*
X57964661Y-88847630D01*
X58015220Y-88836883D01*
X58116788Y-88815294D01*
X58148738Y-88801069D01*
X58285222Y-88740303D01*
X58285224Y-88740302D01*
X58291252Y-88737618D01*
X58445753Y-88625366D01*
X58458282Y-88611451D01*
X58569121Y-88488352D01*
X58569122Y-88488351D01*
X58573540Y-88483444D01*
X58655742Y-88341067D01*
X58665723Y-88323779D01*
X58665724Y-88323778D01*
X58669027Y-88318056D01*
X58728042Y-88136428D01*
X58728902Y-88128251D01*
X58747314Y-87953065D01*
X58748004Y-87946500D01*
X58739544Y-87866008D01*
X58728732Y-87763135D01*
X58728732Y-87763133D01*
X58728042Y-87756572D01*
X58669027Y-87574944D01*
X58654114Y-87549113D01*
X58620117Y-87490229D01*
X58573540Y-87409556D01*
X58500363Y-87328285D01*
X58469647Y-87264279D01*
X58468000Y-87243976D01*
X58468000Y-85965503D01*
X69519606Y-85965503D01*
X69519942Y-85979599D01*
X69527884Y-85983000D01*
X70528885Y-85983000D01*
X70544124Y-85978525D01*
X70545329Y-85977135D01*
X70547000Y-85969452D01*
X70547000Y-85964885D01*
X71055000Y-85964885D01*
X71059475Y-85980124D01*
X71060865Y-85981329D01*
X71068548Y-85983000D01*
X72068967Y-85983000D01*
X72082498Y-85979027D01*
X72083727Y-85970478D01*
X72036236Y-85793239D01*
X72032490Y-85782947D01*
X71940414Y-85585489D01*
X71934931Y-85575993D01*
X71809972Y-85397533D01*
X71802916Y-85389125D01*
X71648875Y-85235084D01*
X71640467Y-85228028D01*
X71462007Y-85103069D01*
X71452511Y-85097586D01*
X71255053Y-85005510D01*
X71244761Y-85001764D01*
X71072497Y-84955606D01*
X71058401Y-84955942D01*
X71055000Y-84963884D01*
X71055000Y-85964885D01*
X70547000Y-85964885D01*
X70547000Y-84969033D01*
X70543027Y-84955502D01*
X70534478Y-84954273D01*
X70357239Y-85001764D01*
X70346947Y-85005510D01*
X70149489Y-85097586D01*
X70139993Y-85103069D01*
X69961533Y-85228028D01*
X69953125Y-85235084D01*
X69799084Y-85389125D01*
X69792028Y-85397533D01*
X69667069Y-85575993D01*
X69661586Y-85585489D01*
X69569510Y-85782947D01*
X69565764Y-85793239D01*
X69519606Y-85965503D01*
X58468000Y-85965503D01*
X58468000Y-81989062D01*
X71349493Y-81989062D01*
X71358789Y-82001077D01*
X71409994Y-82036931D01*
X71419489Y-82042414D01*
X71616947Y-82134490D01*
X71627239Y-82138236D01*
X71837688Y-82194625D01*
X71848481Y-82196528D01*
X72065525Y-82215517D01*
X72076475Y-82215517D01*
X72293519Y-82196528D01*
X72304312Y-82194625D01*
X72514761Y-82138236D01*
X72525053Y-82134490D01*
X72722511Y-82042414D01*
X72732006Y-82036931D01*
X72784048Y-82000491D01*
X72792424Y-81990012D01*
X72785356Y-81976566D01*
X72083812Y-81275022D01*
X72069868Y-81267408D01*
X72068035Y-81267539D01*
X72061420Y-81271790D01*
X71355923Y-81977287D01*
X71349493Y-81989062D01*
X58468000Y-81989062D01*
X58468000Y-80908475D01*
X70758483Y-80908475D01*
X70777472Y-81125519D01*
X70779375Y-81136312D01*
X70835764Y-81346761D01*
X70839510Y-81357053D01*
X70931586Y-81554511D01*
X70937069Y-81564006D01*
X70973509Y-81616048D01*
X70983988Y-81624424D01*
X70997434Y-81617356D01*
X71698978Y-80915812D01*
X71705356Y-80904132D01*
X72435408Y-80904132D01*
X72435539Y-80905965D01*
X72439790Y-80912580D01*
X73145287Y-81618077D01*
X73157062Y-81624507D01*
X73169077Y-81615211D01*
X73204931Y-81564006D01*
X73210414Y-81554511D01*
X73302490Y-81357053D01*
X73306236Y-81346761D01*
X73362625Y-81136312D01*
X73364528Y-81125519D01*
X73383517Y-80908475D01*
X73383517Y-80903000D01*
X75757502Y-80903000D01*
X75777457Y-81131087D01*
X75778881Y-81136400D01*
X75778881Y-81136402D01*
X75816025Y-81275022D01*
X75836716Y-81352243D01*
X75839039Y-81357224D01*
X75839039Y-81357225D01*
X75931151Y-81554762D01*
X75931154Y-81554767D01*
X75933477Y-81559749D01*
X76064802Y-81747300D01*
X76226700Y-81909198D01*
X76231208Y-81912355D01*
X76231211Y-81912357D01*
X76309389Y-81967098D01*
X76414251Y-82040523D01*
X76419233Y-82042846D01*
X76419238Y-82042849D01*
X76615765Y-82134490D01*
X76621757Y-82137284D01*
X76627065Y-82138706D01*
X76627067Y-82138707D01*
X76837598Y-82195119D01*
X76837600Y-82195119D01*
X76842913Y-82196543D01*
X77071000Y-82216498D01*
X77299087Y-82196543D01*
X77304400Y-82195119D01*
X77304402Y-82195119D01*
X77514933Y-82138707D01*
X77514935Y-82138706D01*
X77520243Y-82137284D01*
X77526235Y-82134490D01*
X77722762Y-82042849D01*
X77722767Y-82042846D01*
X77727749Y-82040523D01*
X77832611Y-81967098D01*
X77910789Y-81912357D01*
X77910792Y-81912355D01*
X77915300Y-81909198D01*
X78077198Y-81747300D01*
X78208523Y-81559749D01*
X78210846Y-81554767D01*
X78210849Y-81554762D01*
X78302961Y-81357225D01*
X78302961Y-81357224D01*
X78305284Y-81352243D01*
X78325976Y-81275022D01*
X78363119Y-81136402D01*
X78363119Y-81136400D01*
X78364543Y-81131087D01*
X78380823Y-80945000D01*
X83283502Y-80945000D01*
X83303457Y-81173087D01*
X83304881Y-81178400D01*
X83304881Y-81178402D01*
X83342025Y-81317022D01*
X83362716Y-81394243D01*
X83365039Y-81399224D01*
X83365039Y-81399225D01*
X83457151Y-81596762D01*
X83457154Y-81596767D01*
X83459477Y-81601749D01*
X83498312Y-81657211D01*
X83558235Y-81742789D01*
X83590802Y-81789300D01*
X83752700Y-81951198D01*
X83757208Y-81954355D01*
X83757211Y-81954357D01*
X83788929Y-81976566D01*
X83940251Y-82082523D01*
X83945233Y-82084846D01*
X83945238Y-82084849D01*
X84141765Y-82176490D01*
X84147757Y-82179284D01*
X84153065Y-82180706D01*
X84153067Y-82180707D01*
X84363598Y-82237119D01*
X84363600Y-82237119D01*
X84368913Y-82238543D01*
X84597000Y-82258498D01*
X84825087Y-82238543D01*
X84830400Y-82237119D01*
X84830402Y-82237119D01*
X85040933Y-82180707D01*
X85040935Y-82180706D01*
X85046243Y-82179284D01*
X85052235Y-82176490D01*
X85248762Y-82084849D01*
X85248767Y-82084846D01*
X85253749Y-82082523D01*
X85327243Y-82031062D01*
X88875493Y-82031062D01*
X88884789Y-82043077D01*
X88935994Y-82078931D01*
X88945489Y-82084414D01*
X89142947Y-82176490D01*
X89153239Y-82180236D01*
X89363688Y-82236625D01*
X89374481Y-82238528D01*
X89591525Y-82257517D01*
X89602475Y-82257517D01*
X89819519Y-82238528D01*
X89830312Y-82236625D01*
X90040761Y-82180236D01*
X90051053Y-82176490D01*
X90248511Y-82084414D01*
X90258006Y-82078931D01*
X90310048Y-82042491D01*
X90318424Y-82032012D01*
X90311356Y-82018566D01*
X89609812Y-81317022D01*
X89595868Y-81309408D01*
X89594035Y-81309539D01*
X89587420Y-81313790D01*
X88881923Y-82019287D01*
X88875493Y-82031062D01*
X85327243Y-82031062D01*
X85405071Y-81976566D01*
X85436789Y-81954357D01*
X85436792Y-81954355D01*
X85441300Y-81951198D01*
X85603198Y-81789300D01*
X85635766Y-81742789D01*
X85695688Y-81657211D01*
X85734523Y-81601749D01*
X85736846Y-81596767D01*
X85736849Y-81596762D01*
X85828961Y-81399225D01*
X85828961Y-81399224D01*
X85831284Y-81394243D01*
X85851976Y-81317022D01*
X85889119Y-81178402D01*
X85889119Y-81178400D01*
X85890543Y-81173087D01*
X85910019Y-80950475D01*
X88284483Y-80950475D01*
X88303472Y-81167519D01*
X88305375Y-81178312D01*
X88361764Y-81388761D01*
X88365510Y-81399053D01*
X88457586Y-81596511D01*
X88463069Y-81606006D01*
X88499509Y-81658048D01*
X88509988Y-81666424D01*
X88523434Y-81659356D01*
X89224978Y-80957812D01*
X89231356Y-80946132D01*
X89961408Y-80946132D01*
X89961539Y-80947965D01*
X89965790Y-80954580D01*
X90671287Y-81660077D01*
X90683062Y-81666507D01*
X90695077Y-81657211D01*
X90730931Y-81606006D01*
X90736414Y-81596511D01*
X90828490Y-81399053D01*
X90832236Y-81388761D01*
X90888625Y-81178312D01*
X90890528Y-81167519D01*
X90909517Y-80950475D01*
X90909517Y-80939525D01*
X90890528Y-80722481D01*
X90888625Y-80711688D01*
X90832236Y-80501239D01*
X90828490Y-80490947D01*
X90736414Y-80293489D01*
X90730931Y-80283994D01*
X90694491Y-80231952D01*
X90684012Y-80223576D01*
X90670566Y-80230644D01*
X89969022Y-80932188D01*
X89961408Y-80946132D01*
X89231356Y-80946132D01*
X89232592Y-80943868D01*
X89232461Y-80942035D01*
X89228210Y-80935420D01*
X88522713Y-80229923D01*
X88510938Y-80223493D01*
X88498923Y-80232789D01*
X88463069Y-80283994D01*
X88457586Y-80293489D01*
X88365510Y-80490947D01*
X88361764Y-80501239D01*
X88305375Y-80711688D01*
X88303472Y-80722481D01*
X88284483Y-80939525D01*
X88284483Y-80950475D01*
X85910019Y-80950475D01*
X85910498Y-80945000D01*
X85890543Y-80716913D01*
X85880781Y-80680481D01*
X85832707Y-80501067D01*
X85832706Y-80501065D01*
X85831284Y-80495757D01*
X85828961Y-80490775D01*
X85736849Y-80293238D01*
X85736846Y-80293233D01*
X85734523Y-80288251D01*
X85603198Y-80100700D01*
X85441300Y-79938802D01*
X85436792Y-79935645D01*
X85436789Y-79935643D01*
X85325886Y-79857988D01*
X88875576Y-79857988D01*
X88882644Y-79871434D01*
X89584188Y-80572978D01*
X89598132Y-80580592D01*
X89599965Y-80580461D01*
X89606580Y-80576210D01*
X90312077Y-79870713D01*
X90318507Y-79858938D01*
X90309211Y-79846923D01*
X90258006Y-79811069D01*
X90248511Y-79805586D01*
X90051053Y-79713510D01*
X90040761Y-79709764D01*
X89830312Y-79653375D01*
X89819519Y-79651472D01*
X89602475Y-79632483D01*
X89591525Y-79632483D01*
X89374481Y-79651472D01*
X89363688Y-79653375D01*
X89153239Y-79709764D01*
X89142947Y-79713510D01*
X88945489Y-79805586D01*
X88935994Y-79811069D01*
X88883952Y-79847509D01*
X88875576Y-79857988D01*
X85325886Y-79857988D01*
X85310920Y-79847509D01*
X85253749Y-79807477D01*
X85248767Y-79805154D01*
X85248762Y-79805151D01*
X85051225Y-79713039D01*
X85051224Y-79713039D01*
X85046243Y-79710716D01*
X85040935Y-79709294D01*
X85040933Y-79709293D01*
X84830402Y-79652881D01*
X84830400Y-79652881D01*
X84825087Y-79651457D01*
X84597000Y-79631502D01*
X84368913Y-79651457D01*
X84363600Y-79652881D01*
X84363598Y-79652881D01*
X84153067Y-79709293D01*
X84153065Y-79709294D01*
X84147757Y-79710716D01*
X84142776Y-79713039D01*
X84142775Y-79713039D01*
X83945238Y-79805151D01*
X83945233Y-79805154D01*
X83940251Y-79807477D01*
X83883080Y-79847509D01*
X83757211Y-79935643D01*
X83757208Y-79935645D01*
X83752700Y-79938802D01*
X83590802Y-80100700D01*
X83459477Y-80288251D01*
X83457154Y-80293233D01*
X83457151Y-80293238D01*
X83365039Y-80490775D01*
X83362716Y-80495757D01*
X83361294Y-80501065D01*
X83361293Y-80501067D01*
X83313219Y-80680481D01*
X83303457Y-80716913D01*
X83283502Y-80945000D01*
X78380823Y-80945000D01*
X78384498Y-80903000D01*
X78364543Y-80674913D01*
X78339270Y-80580592D01*
X78306707Y-80459067D01*
X78306706Y-80459065D01*
X78305284Y-80453757D01*
X78302961Y-80448775D01*
X78210849Y-80251238D01*
X78210846Y-80251233D01*
X78208523Y-80246251D01*
X78135098Y-80141389D01*
X78080357Y-80063211D01*
X78080355Y-80063208D01*
X78077198Y-80058700D01*
X77915300Y-79896802D01*
X77910792Y-79893645D01*
X77910789Y-79893643D01*
X77792861Y-79811069D01*
X77727749Y-79765477D01*
X77722767Y-79763154D01*
X77722762Y-79763151D01*
X77525225Y-79671039D01*
X77525224Y-79671039D01*
X77520243Y-79668716D01*
X77514935Y-79667294D01*
X77514933Y-79667293D01*
X77304402Y-79610881D01*
X77304400Y-79610881D01*
X77299087Y-79609457D01*
X77071000Y-79589502D01*
X76842913Y-79609457D01*
X76837600Y-79610881D01*
X76837598Y-79610881D01*
X76627067Y-79667293D01*
X76627065Y-79667294D01*
X76621757Y-79668716D01*
X76616776Y-79671039D01*
X76616775Y-79671039D01*
X76419238Y-79763151D01*
X76419233Y-79763154D01*
X76414251Y-79765477D01*
X76349139Y-79811069D01*
X76231211Y-79893643D01*
X76231208Y-79893645D01*
X76226700Y-79896802D01*
X76064802Y-80058700D01*
X76061645Y-80063208D01*
X76061643Y-80063211D01*
X76006902Y-80141389D01*
X75933477Y-80246251D01*
X75931154Y-80251233D01*
X75931151Y-80251238D01*
X75839039Y-80448775D01*
X75836716Y-80453757D01*
X75835294Y-80459065D01*
X75835293Y-80459067D01*
X75802730Y-80580592D01*
X75777457Y-80674913D01*
X75757502Y-80903000D01*
X73383517Y-80903000D01*
X73383517Y-80897525D01*
X73364528Y-80680481D01*
X73362625Y-80669688D01*
X73306236Y-80459239D01*
X73302490Y-80448947D01*
X73210414Y-80251489D01*
X73204931Y-80241994D01*
X73168491Y-80189952D01*
X73158012Y-80181576D01*
X73144566Y-80188644D01*
X72443022Y-80890188D01*
X72435408Y-80904132D01*
X71705356Y-80904132D01*
X71706592Y-80901868D01*
X71706461Y-80900035D01*
X71702210Y-80893420D01*
X70996713Y-80187923D01*
X70984938Y-80181493D01*
X70972923Y-80190789D01*
X70937069Y-80241994D01*
X70931586Y-80251489D01*
X70839510Y-80448947D01*
X70835764Y-80459239D01*
X70779375Y-80669688D01*
X70777472Y-80680481D01*
X70758483Y-80897525D01*
X70758483Y-80908475D01*
X58468000Y-80908475D01*
X58468000Y-79815988D01*
X71349576Y-79815988D01*
X71356644Y-79829434D01*
X72058188Y-80530978D01*
X72072132Y-80538592D01*
X72073965Y-80538461D01*
X72080580Y-80534210D01*
X72786077Y-79828713D01*
X72792507Y-79816938D01*
X72783211Y-79804923D01*
X72732006Y-79769069D01*
X72722511Y-79763586D01*
X72525053Y-79671510D01*
X72514761Y-79667764D01*
X72304312Y-79611375D01*
X72293519Y-79609472D01*
X72076475Y-79590483D01*
X72065525Y-79590483D01*
X71848481Y-79609472D01*
X71837688Y-79611375D01*
X71627239Y-79667764D01*
X71616947Y-79671510D01*
X71419489Y-79763586D01*
X71409994Y-79769069D01*
X71357952Y-79805509D01*
X71349576Y-79815988D01*
X58468000Y-79815988D01*
X58468000Y-65725319D01*
X62979000Y-65725319D01*
X62979249Y-65730914D01*
X62993023Y-65885244D01*
X62995005Y-65896258D01*
X63049885Y-66096866D01*
X63053779Y-66107339D01*
X63143322Y-66295068D01*
X63149008Y-66304683D01*
X63270376Y-66473585D01*
X63277684Y-66482051D01*
X63427038Y-66626784D01*
X63435735Y-66633827D01*
X63608355Y-66749824D01*
X63618152Y-66755210D01*
X63808598Y-66838809D01*
X63819190Y-66842374D01*
X63935385Y-66870270D01*
X63949470Y-66869565D01*
X63952998Y-66860690D01*
X64461000Y-66860690D01*
X64465106Y-66874672D01*
X64472252Y-66875782D01*
X64667502Y-66815714D01*
X64677848Y-66811493D01*
X64862672Y-66716098D01*
X64872103Y-66710113D01*
X65037113Y-66583496D01*
X65045342Y-66575930D01*
X65185314Y-66422102D01*
X65192077Y-66413191D01*
X65302596Y-66237010D01*
X65307673Y-66227044D01*
X65357937Y-66102009D01*
X65401903Y-66046264D01*
X65469028Y-66023139D01*
X65538000Y-66039976D01*
X65586920Y-66091428D01*
X65592942Y-66105087D01*
X65593779Y-66107339D01*
X65683322Y-66295068D01*
X65689008Y-66304683D01*
X65810376Y-66473585D01*
X65817684Y-66482051D01*
X65967038Y-66626784D01*
X65975735Y-66633827D01*
X66148355Y-66749824D01*
X66158152Y-66755210D01*
X66348598Y-66838809D01*
X66359190Y-66842374D01*
X66475385Y-66870270D01*
X66489470Y-66869565D01*
X66493000Y-66860686D01*
X66493000Y-63924310D01*
X66488894Y-63910328D01*
X66481748Y-63909218D01*
X66286498Y-63969286D01*
X66276152Y-63973507D01*
X66091328Y-64068902D01*
X66081897Y-64074887D01*
X65916887Y-64201504D01*
X65908658Y-64209070D01*
X65768686Y-64362898D01*
X65761923Y-64371809D01*
X65651404Y-64547990D01*
X65646327Y-64557956D01*
X65596063Y-64682991D01*
X65552097Y-64738736D01*
X65484972Y-64761861D01*
X65416000Y-64745024D01*
X65367080Y-64693572D01*
X65361058Y-64679913D01*
X65360221Y-64677661D01*
X65270678Y-64489932D01*
X65264992Y-64480317D01*
X65143624Y-64311415D01*
X65136316Y-64302949D01*
X64986962Y-64158216D01*
X64978265Y-64151173D01*
X64805645Y-64035176D01*
X64795848Y-64029790D01*
X64605402Y-63946191D01*
X64594810Y-63942626D01*
X64478615Y-63914730D01*
X64464530Y-63915435D01*
X64461000Y-63924314D01*
X64461000Y-66860690D01*
X63952998Y-66860690D01*
X63953000Y-66860686D01*
X63953000Y-65664615D01*
X63948525Y-65649376D01*
X63947135Y-65648171D01*
X63939452Y-65646500D01*
X62997115Y-65646500D01*
X62981876Y-65650975D01*
X62980671Y-65652365D01*
X62979000Y-65660048D01*
X62979000Y-65725319D01*
X58468000Y-65725319D01*
X58468000Y-65120385D01*
X62979000Y-65120385D01*
X62983475Y-65135624D01*
X62984865Y-65136829D01*
X62992548Y-65138500D01*
X63934885Y-65138500D01*
X63950124Y-65134025D01*
X63951329Y-65132635D01*
X63953000Y-65124952D01*
X63953000Y-63924310D01*
X63948894Y-63910328D01*
X63941748Y-63909218D01*
X63746498Y-63969286D01*
X63736152Y-63973507D01*
X63551328Y-64068902D01*
X63541897Y-64074887D01*
X63376887Y-64201504D01*
X63368658Y-64209070D01*
X63228686Y-64362898D01*
X63221923Y-64371809D01*
X63111404Y-64547990D01*
X63106327Y-64557956D01*
X63028756Y-64750920D01*
X63025521Y-64761635D01*
X62983144Y-64966263D01*
X62981941Y-64975399D01*
X62979105Y-65024584D01*
X62979000Y-65028231D01*
X62979000Y-65120385D01*
X58468000Y-65120385D01*
X58468000Y-54574594D01*
X58488002Y-54506473D01*
X58504905Y-54485499D01*
X62763405Y-50227000D01*
X62825717Y-50192974D01*
X62896533Y-50198039D01*
X62953368Y-50240586D01*
X62978179Y-50307106D01*
X62978500Y-50316095D01*
X62978500Y-51200634D01*
X62985255Y-51262816D01*
X63036385Y-51399205D01*
X63123739Y-51515761D01*
X63240295Y-51603115D01*
X63376684Y-51654245D01*
X63438866Y-51661000D01*
X64767406Y-51661000D01*
X64835527Y-51681002D01*
X64856501Y-51697905D01*
X67346595Y-54187999D01*
X67380621Y-54250311D01*
X67383500Y-54277094D01*
X67383500Y-63857793D01*
X67363498Y-63925914D01*
X67309842Y-63972407D01*
X67239568Y-63982511D01*
X67206855Y-63973166D01*
X67145412Y-63946194D01*
X67134810Y-63942626D01*
X67018615Y-63914730D01*
X67004530Y-63915435D01*
X67001000Y-63924314D01*
X67001000Y-66860690D01*
X67005106Y-66874672D01*
X67012252Y-66875782D01*
X67207502Y-66815714D01*
X67217848Y-66811493D01*
X67402672Y-66716098D01*
X67412103Y-66710113D01*
X67577113Y-66583496D01*
X67585343Y-66575929D01*
X67605353Y-66553938D01*
X67665993Y-66517016D01*
X67736969Y-66518741D01*
X67787640Y-66549644D01*
X74750743Y-73512747D01*
X74758287Y-73521037D01*
X74762400Y-73527518D01*
X74768177Y-73532943D01*
X74812067Y-73574158D01*
X74814909Y-73576913D01*
X74834630Y-73596634D01*
X74837825Y-73599112D01*
X74846847Y-73606818D01*
X74879079Y-73637086D01*
X74886028Y-73640906D01*
X74896832Y-73646846D01*
X74913356Y-73657699D01*
X74929359Y-73670113D01*
X74969943Y-73687676D01*
X74980573Y-73692883D01*
X75009703Y-73708897D01*
X75059760Y-73759241D01*
X75074654Y-73828658D01*
X75049653Y-73895107D01*
X75038096Y-73908406D01*
X74945802Y-74000700D01*
X74814477Y-74188251D01*
X74812154Y-74193233D01*
X74812151Y-74193238D01*
X74796195Y-74227457D01*
X74749278Y-74280742D01*
X74681001Y-74300203D01*
X74613041Y-74279661D01*
X74567805Y-74227457D01*
X74551849Y-74193238D01*
X74551846Y-74193233D01*
X74549523Y-74188251D01*
X74418198Y-74000700D01*
X74256300Y-73838802D01*
X74251792Y-73835645D01*
X74251789Y-73835643D01*
X74135649Y-73754321D01*
X74068749Y-73707477D01*
X74063767Y-73705154D01*
X74063762Y-73705151D01*
X73866225Y-73613039D01*
X73866224Y-73613039D01*
X73861243Y-73610716D01*
X73855935Y-73609294D01*
X73855933Y-73609293D01*
X73645402Y-73552881D01*
X73645400Y-73552881D01*
X73640087Y-73551457D01*
X73412000Y-73531502D01*
X73183913Y-73551457D01*
X73178600Y-73552881D01*
X73178598Y-73552881D01*
X72968067Y-73609293D01*
X72968065Y-73609294D01*
X72962757Y-73610716D01*
X72957776Y-73613039D01*
X72957775Y-73613039D01*
X72760238Y-73705151D01*
X72760233Y-73705154D01*
X72755251Y-73707477D01*
X72688351Y-73754321D01*
X72572211Y-73835643D01*
X72572208Y-73835645D01*
X72567700Y-73838802D01*
X72405802Y-74000700D01*
X72402643Y-74005211D01*
X72399108Y-74009424D01*
X72397974Y-74008473D01*
X72347929Y-74048471D01*
X72277310Y-74055776D01*
X72213951Y-74023742D01*
X72177970Y-73962538D01*
X72174918Y-73945483D01*
X72173745Y-73934684D01*
X72122615Y-73798295D01*
X72035261Y-73681739D01*
X71918705Y-73594385D01*
X71782316Y-73543255D01*
X71720134Y-73536500D01*
X70023866Y-73536500D01*
X69961684Y-73543255D01*
X69825295Y-73594385D01*
X69708739Y-73681739D01*
X69621385Y-73798295D01*
X69570255Y-73934684D01*
X69563500Y-73996866D01*
X69563500Y-75693134D01*
X69570255Y-75755316D01*
X69621385Y-75891705D01*
X69708739Y-76008261D01*
X69825295Y-76095615D01*
X69961684Y-76146745D01*
X70023866Y-76153500D01*
X71720134Y-76153500D01*
X71782316Y-76146745D01*
X71918705Y-76095615D01*
X72035261Y-76008261D01*
X72122615Y-75891705D01*
X72173745Y-75755316D01*
X72174917Y-75744526D01*
X72175803Y-75742394D01*
X72176425Y-75739778D01*
X72176848Y-75739879D01*
X72202155Y-75678965D01*
X72260517Y-75638537D01*
X72331471Y-75636078D01*
X72392490Y-75672371D01*
X72399489Y-75681031D01*
X72402643Y-75684789D01*
X72405802Y-75689300D01*
X72567700Y-75851198D01*
X72572208Y-75854355D01*
X72572211Y-75854357D01*
X72613542Y-75883297D01*
X72755251Y-75982523D01*
X72760233Y-75984846D01*
X72760238Y-75984849D01*
X72923735Y-76061088D01*
X72962757Y-76079284D01*
X72968065Y-76080706D01*
X72968067Y-76080707D01*
X73178598Y-76137119D01*
X73178600Y-76137119D01*
X73183913Y-76138543D01*
X73412000Y-76158498D01*
X73640087Y-76138543D01*
X73645400Y-76137119D01*
X73645402Y-76137119D01*
X73855933Y-76080707D01*
X73855935Y-76080706D01*
X73861243Y-76079284D01*
X73900265Y-76061088D01*
X74063762Y-75984849D01*
X74063767Y-75984846D01*
X74068749Y-75982523D01*
X74210458Y-75883297D01*
X74251789Y-75854357D01*
X74251792Y-75854355D01*
X74256300Y-75851198D01*
X74418198Y-75689300D01*
X74549523Y-75501749D01*
X74551846Y-75496767D01*
X74551849Y-75496762D01*
X74567805Y-75462543D01*
X74614722Y-75409258D01*
X74682999Y-75389797D01*
X74750959Y-75410339D01*
X74796195Y-75462543D01*
X74812151Y-75496762D01*
X74812154Y-75496767D01*
X74814477Y-75501749D01*
X74945802Y-75689300D01*
X75107700Y-75851198D01*
X75112208Y-75854355D01*
X75112211Y-75854357D01*
X75153542Y-75883297D01*
X75295251Y-75982523D01*
X75300233Y-75984846D01*
X75300238Y-75984849D01*
X75463735Y-76061088D01*
X75502757Y-76079284D01*
X75508065Y-76080706D01*
X75508067Y-76080707D01*
X75718598Y-76137119D01*
X75718600Y-76137119D01*
X75723913Y-76138543D01*
X75952000Y-76158498D01*
X76180087Y-76138543D01*
X76185400Y-76137119D01*
X76185402Y-76137119D01*
X76395933Y-76080707D01*
X76395935Y-76080706D01*
X76401243Y-76079284D01*
X76440265Y-76061088D01*
X76603762Y-75984849D01*
X76603767Y-75984846D01*
X76608749Y-75982523D01*
X76750458Y-75883297D01*
X76791789Y-75854357D01*
X76791792Y-75854355D01*
X76796300Y-75851198D01*
X76958198Y-75689300D01*
X77089523Y-75501749D01*
X77091846Y-75496767D01*
X77091849Y-75496762D01*
X77107805Y-75462543D01*
X77154722Y-75409258D01*
X77222999Y-75389797D01*
X77290959Y-75410339D01*
X77336195Y-75462543D01*
X77352151Y-75496762D01*
X77352154Y-75496767D01*
X77354477Y-75501749D01*
X77485802Y-75689300D01*
X77647700Y-75851198D01*
X77652208Y-75854355D01*
X77652211Y-75854357D01*
X77693542Y-75883297D01*
X77835251Y-75982523D01*
X77840233Y-75984846D01*
X77840238Y-75984849D01*
X78003735Y-76061088D01*
X78042757Y-76079284D01*
X78048065Y-76080706D01*
X78048067Y-76080707D01*
X78258598Y-76137119D01*
X78258600Y-76137119D01*
X78263913Y-76138543D01*
X78492000Y-76158498D01*
X78720087Y-76138543D01*
X78725400Y-76137119D01*
X78725402Y-76137119D01*
X78935933Y-76080707D01*
X78935935Y-76080706D01*
X78941243Y-76079284D01*
X78980265Y-76061088D01*
X79143762Y-75984849D01*
X79143767Y-75984846D01*
X79148749Y-75982523D01*
X79290458Y-75883297D01*
X79331789Y-75854357D01*
X79331792Y-75854355D01*
X79336300Y-75851198D01*
X79498198Y-75689300D01*
X79545020Y-75622432D01*
X79622735Y-75511444D01*
X79678192Y-75467116D01*
X79749550Y-75459945D01*
X79764576Y-75462812D01*
X79772258Y-75464529D01*
X79826670Y-75478500D01*
X79829227Y-75478500D01*
X79892113Y-75505928D01*
X79914454Y-75530279D01*
X80025802Y-75689300D01*
X80187700Y-75851198D01*
X80192208Y-75854355D01*
X80192211Y-75854357D01*
X80233542Y-75883297D01*
X80375251Y-75982523D01*
X80380233Y-75984846D01*
X80380238Y-75984849D01*
X80543735Y-76061088D01*
X80582757Y-76079284D01*
X80588065Y-76080706D01*
X80588067Y-76080707D01*
X80798598Y-76137119D01*
X80798600Y-76137119D01*
X80803913Y-76138543D01*
X81032000Y-76158498D01*
X81260087Y-76138543D01*
X81265398Y-76137120D01*
X81265409Y-76137118D01*
X81323541Y-76121541D01*
X81394517Y-76123230D01*
X81445248Y-76154152D01*
X82586448Y-77295353D01*
X82593988Y-77303639D01*
X82598100Y-77310118D01*
X82603877Y-77315543D01*
X82647751Y-77356743D01*
X82650593Y-77359498D01*
X82670330Y-77379235D01*
X82673527Y-77381715D01*
X82682547Y-77389418D01*
X82714779Y-77419686D01*
X82721725Y-77423505D01*
X82721728Y-77423507D01*
X82732534Y-77429448D01*
X82749053Y-77440299D01*
X82765059Y-77452714D01*
X82772328Y-77455859D01*
X82772332Y-77455862D01*
X82805637Y-77470274D01*
X82816287Y-77475491D01*
X82855040Y-77496795D01*
X82862715Y-77498766D01*
X82862716Y-77498766D01*
X82874662Y-77501833D01*
X82893367Y-77508237D01*
X82911955Y-77516281D01*
X82919778Y-77517520D01*
X82919788Y-77517523D01*
X82955624Y-77523199D01*
X82967244Y-77525605D01*
X82999059Y-77533773D01*
X83010070Y-77536600D01*
X83030324Y-77536600D01*
X83050034Y-77538151D01*
X83070043Y-77541320D01*
X83077935Y-77540574D01*
X83096680Y-77538802D01*
X83114062Y-77537159D01*
X83125919Y-77536600D01*
X100984833Y-77536600D01*
X100996016Y-77537127D01*
X101003509Y-77538802D01*
X101011435Y-77538553D01*
X101011436Y-77538553D01*
X101071586Y-77536662D01*
X101075545Y-77536600D01*
X101103456Y-77536600D01*
X101107391Y-77536103D01*
X101107456Y-77536095D01*
X101119293Y-77535162D01*
X101151551Y-77534148D01*
X101155570Y-77534022D01*
X101163489Y-77533773D01*
X101182943Y-77528121D01*
X101202300Y-77524113D01*
X101214530Y-77522568D01*
X101214531Y-77522568D01*
X101222397Y-77521574D01*
X101229768Y-77518655D01*
X101229770Y-77518655D01*
X101263512Y-77505296D01*
X101274742Y-77501451D01*
X101309583Y-77491329D01*
X101309584Y-77491329D01*
X101317193Y-77489118D01*
X101324012Y-77485085D01*
X101324017Y-77485083D01*
X101334628Y-77478807D01*
X101352376Y-77470112D01*
X101371217Y-77462652D01*
X101406987Y-77436664D01*
X101416907Y-77430148D01*
X101448135Y-77411680D01*
X101448138Y-77411678D01*
X101454962Y-77407642D01*
X101469283Y-77393321D01*
X101484317Y-77380480D01*
X101494294Y-77373231D01*
X101500707Y-77368572D01*
X101528898Y-77334495D01*
X101536888Y-77325716D01*
X118982703Y-59879901D01*
X119045015Y-59845875D01*
X119115830Y-59850940D01*
X119172622Y-59893429D01*
X119178355Y-59901078D01*
X119178358Y-59901081D01*
X119183739Y-59908261D01*
X119300295Y-59995615D01*
X119436684Y-60046745D01*
X119498866Y-60053500D01*
X121195134Y-60053500D01*
X121257316Y-60046745D01*
X121393705Y-59995615D01*
X121510261Y-59908261D01*
X121597615Y-59791705D01*
X121648745Y-59655316D01*
X121655500Y-59593134D01*
X121655500Y-57896866D01*
X121648745Y-57834684D01*
X121597615Y-57698295D01*
X121510261Y-57581739D01*
X121393705Y-57494385D01*
X121257316Y-57443255D01*
X121246526Y-57442083D01*
X121244394Y-57441197D01*
X121241778Y-57440575D01*
X121241879Y-57440152D01*
X121180965Y-57414845D01*
X121140537Y-57356483D01*
X121138078Y-57285529D01*
X121174371Y-57224510D01*
X121183035Y-57217507D01*
X121186790Y-57214356D01*
X121191300Y-57211198D01*
X121353198Y-57049300D01*
X121380997Y-57009600D01*
X121481366Y-56866257D01*
X121484523Y-56861749D01*
X121486846Y-56856767D01*
X121486849Y-56856762D01*
X121578961Y-56659225D01*
X121578961Y-56659224D01*
X121581284Y-56654243D01*
X121587188Y-56632211D01*
X121639119Y-56438402D01*
X121639119Y-56438400D01*
X121640543Y-56433087D01*
X121660498Y-56205000D01*
X121640543Y-55976913D01*
X121630244Y-55938478D01*
X121582707Y-55761067D01*
X121582706Y-55761065D01*
X121581284Y-55755757D01*
X121486966Y-55553489D01*
X121486849Y-55553238D01*
X121486846Y-55553233D01*
X121484523Y-55548251D01*
X121358286Y-55367966D01*
X121335598Y-55300692D01*
X121352883Y-55231831D01*
X121372404Y-55206600D01*
X121864547Y-54714457D01*
X121872837Y-54706913D01*
X121879318Y-54702800D01*
X121925959Y-54653132D01*
X121928713Y-54650291D01*
X121948434Y-54630570D01*
X121950912Y-54627375D01*
X121958618Y-54618353D01*
X121983458Y-54591901D01*
X121988886Y-54586121D01*
X121998646Y-54568368D01*
X122009499Y-54551845D01*
X122017053Y-54542106D01*
X122021913Y-54535841D01*
X122039476Y-54495257D01*
X122044683Y-54484627D01*
X122065995Y-54445860D01*
X122067966Y-54438183D01*
X122067968Y-54438178D01*
X122071032Y-54426242D01*
X122077438Y-54407530D01*
X122082334Y-54396217D01*
X122085481Y-54388945D01*
X122092397Y-54345281D01*
X122094804Y-54333660D01*
X122103828Y-54298511D01*
X122103828Y-54298510D01*
X122105800Y-54290830D01*
X122105800Y-54270569D01*
X122107351Y-54250858D01*
X122109279Y-54238685D01*
X122110519Y-54230857D01*
X122106359Y-54186846D01*
X122105800Y-54174989D01*
X122105800Y-50632967D01*
X122106327Y-50621784D01*
X122108002Y-50614291D01*
X122105862Y-50546200D01*
X122105800Y-50542243D01*
X122105800Y-50514344D01*
X122105296Y-50510353D01*
X122104363Y-50498511D01*
X122103223Y-50462236D01*
X122102974Y-50454311D01*
X122100762Y-50446697D01*
X122100761Y-50446692D01*
X122097323Y-50434859D01*
X122093312Y-50415495D01*
X122091767Y-50403264D01*
X122090774Y-50395403D01*
X122087857Y-50388036D01*
X122087856Y-50388031D01*
X122074498Y-50354292D01*
X122070654Y-50343065D01*
X122060530Y-50308222D01*
X122058318Y-50300607D01*
X122048007Y-50283172D01*
X122039312Y-50265424D01*
X122031852Y-50246583D01*
X122005864Y-50210813D01*
X121999348Y-50200893D01*
X121980880Y-50169665D01*
X121980878Y-50169662D01*
X121976842Y-50162838D01*
X121962521Y-50148517D01*
X121949680Y-50133483D01*
X121942431Y-50123506D01*
X121937772Y-50117093D01*
X121931667Y-50112042D01*
X121931662Y-50112037D01*
X121903702Y-50088906D01*
X121894924Y-50080919D01*
X121643955Y-49829950D01*
X121382700Y-49568696D01*
X121348675Y-49506383D01*
X121353739Y-49435568D01*
X121368582Y-49407329D01*
X121484523Y-49241749D01*
X121486846Y-49236767D01*
X121486849Y-49236762D01*
X121578961Y-49039225D01*
X121578961Y-49039224D01*
X121581284Y-49034243D01*
X121586548Y-49014600D01*
X121639119Y-48818402D01*
X121639119Y-48818400D01*
X121640543Y-48813087D01*
X121660498Y-48585000D01*
X121640543Y-48356913D01*
X121630244Y-48318478D01*
X121582707Y-48141067D01*
X121582706Y-48141065D01*
X121581284Y-48135757D01*
X121501635Y-47964947D01*
X121486849Y-47933238D01*
X121486846Y-47933233D01*
X121484523Y-47928251D01*
X121372993Y-47768970D01*
X121356357Y-47745211D01*
X121356355Y-47745208D01*
X121353198Y-47740700D01*
X121191300Y-47578802D01*
X121186792Y-47575645D01*
X121186789Y-47575643D01*
X121108611Y-47520902D01*
X121003749Y-47447477D01*
X120998767Y-47445154D01*
X120998762Y-47445151D01*
X120801225Y-47353039D01*
X120801224Y-47353039D01*
X120796243Y-47350716D01*
X120790935Y-47349294D01*
X120790933Y-47349293D01*
X120580402Y-47292881D01*
X120580400Y-47292881D01*
X120575087Y-47291457D01*
X120347000Y-47271502D01*
X120118913Y-47291457D01*
X120113600Y-47292881D01*
X120113598Y-47292881D01*
X119903067Y-47349293D01*
X119903065Y-47349294D01*
X119897757Y-47350716D01*
X119892776Y-47353039D01*
X119892775Y-47353039D01*
X119695238Y-47445151D01*
X119695233Y-47445154D01*
X119690251Y-47447477D01*
X119585389Y-47520902D01*
X119507211Y-47575643D01*
X119507208Y-47575645D01*
X119502700Y-47578802D01*
X119340802Y-47740700D01*
X119337645Y-47745208D01*
X119337643Y-47745211D01*
X119321007Y-47768970D01*
X119209477Y-47928251D01*
X119207154Y-47933233D01*
X119207151Y-47933238D01*
X119192365Y-47964947D01*
X119112716Y-48135757D01*
X119111294Y-48141065D01*
X119111293Y-48141067D01*
X119063756Y-48318478D01*
X119053457Y-48356913D01*
X119033502Y-48585000D01*
X119053457Y-48813087D01*
X119054881Y-48818400D01*
X119054881Y-48818402D01*
X119107453Y-49014600D01*
X119112716Y-49034243D01*
X119115039Y-49039224D01*
X119115039Y-49039225D01*
X119207151Y-49236762D01*
X119207154Y-49236767D01*
X119209477Y-49241749D01*
X119255698Y-49307759D01*
X119325418Y-49407329D01*
X119340802Y-49429300D01*
X119502700Y-49591198D01*
X119507208Y-49594355D01*
X119507211Y-49594357D01*
X119664393Y-49704417D01*
X119708721Y-49759874D01*
X119717873Y-49799718D01*
X119719128Y-49819659D01*
X119719775Y-49829950D01*
X119722225Y-49837491D01*
X119722321Y-49837787D01*
X119727494Y-49860931D01*
X119727618Y-49861909D01*
X119728526Y-49869100D01*
X119727366Y-49869247D01*
X119725196Y-49932560D01*
X119684789Y-49990937D01*
X119677864Y-49996151D01*
X119654356Y-50012611D01*
X119507211Y-50115643D01*
X119507208Y-50115645D01*
X119502700Y-50118802D01*
X119340802Y-50280700D01*
X119337645Y-50285208D01*
X119337643Y-50285211D01*
X119326863Y-50300607D01*
X119209477Y-50468251D01*
X119207154Y-50473233D01*
X119207151Y-50473238D01*
X119136784Y-50624142D01*
X119112716Y-50675757D01*
X119111294Y-50681065D01*
X119111293Y-50681067D01*
X119061972Y-50865135D01*
X119053457Y-50896913D01*
X119033502Y-51125000D01*
X119053457Y-51353087D01*
X119054881Y-51358400D01*
X119054881Y-51358402D01*
X119107030Y-51553021D01*
X119112716Y-51574243D01*
X119115039Y-51579224D01*
X119115039Y-51579225D01*
X119207151Y-51776762D01*
X119207154Y-51776767D01*
X119209477Y-51781749D01*
X119312090Y-51928295D01*
X119325418Y-51947329D01*
X119348106Y-52014603D01*
X119330821Y-52083463D01*
X119311301Y-52108695D01*
X119025994Y-52394001D01*
X118829442Y-52590553D01*
X118821163Y-52598087D01*
X118814682Y-52602200D01*
X118768057Y-52651851D01*
X118765302Y-52654693D01*
X118745565Y-52674430D01*
X118743085Y-52677627D01*
X118735382Y-52686647D01*
X118705114Y-52718879D01*
X118701295Y-52725825D01*
X118701293Y-52725828D01*
X118695352Y-52736634D01*
X118684501Y-52753153D01*
X118672086Y-52769159D01*
X118668941Y-52776428D01*
X118668938Y-52776432D01*
X118654526Y-52809737D01*
X118649309Y-52820387D01*
X118628005Y-52859140D01*
X118626034Y-52866815D01*
X118626034Y-52866816D01*
X118622967Y-52878762D01*
X118616563Y-52897466D01*
X118608519Y-52916055D01*
X118607280Y-52923878D01*
X118607277Y-52923888D01*
X118601601Y-52959724D01*
X118599195Y-52971344D01*
X118590349Y-53005799D01*
X118588200Y-53014170D01*
X118588200Y-53034424D01*
X118586649Y-53054134D01*
X118583480Y-53074143D01*
X118584226Y-53082035D01*
X118587641Y-53118161D01*
X118588200Y-53130019D01*
X118588200Y-53600906D01*
X118568198Y-53669027D01*
X118551295Y-53690001D01*
X114083142Y-58158154D01*
X114020830Y-58192180D01*
X113950015Y-58187115D01*
X113893179Y-58144568D01*
X113879852Y-58122308D01*
X113866416Y-58093493D01*
X113860931Y-58083993D01*
X113735972Y-57905533D01*
X113728916Y-57897125D01*
X113574875Y-57743084D01*
X113566467Y-57736028D01*
X113388007Y-57611069D01*
X113378511Y-57605586D01*
X113343359Y-57589195D01*
X113290074Y-57542278D01*
X113270613Y-57474001D01*
X113291155Y-57406041D01*
X113343359Y-57360805D01*
X113378511Y-57344414D01*
X113388007Y-57338931D01*
X113566467Y-57213972D01*
X113574875Y-57206916D01*
X113728916Y-57052875D01*
X113735972Y-57044467D01*
X113860931Y-56866007D01*
X113866414Y-56856511D01*
X113958490Y-56659053D01*
X113962236Y-56648761D01*
X114008394Y-56476497D01*
X114008058Y-56462401D01*
X114000116Y-56459000D01*
X112999115Y-56459000D01*
X112983876Y-56463475D01*
X112982671Y-56464865D01*
X112981000Y-56472548D01*
X112981000Y-58873000D01*
X112960998Y-58941121D01*
X112907342Y-58987614D01*
X112855000Y-58999000D01*
X111459033Y-58999000D01*
X111445502Y-59002973D01*
X111444273Y-59011522D01*
X111491764Y-59188761D01*
X111495510Y-59199053D01*
X111587586Y-59396511D01*
X111593069Y-59406007D01*
X111718028Y-59584467D01*
X111725084Y-59592875D01*
X111879125Y-59746916D01*
X111887533Y-59753972D01*
X112065993Y-59878931D01*
X112075493Y-59884416D01*
X112104308Y-59897852D01*
X112157593Y-59944768D01*
X112177055Y-60013045D01*
X112156514Y-60081005D01*
X112140156Y-60101140D01*
X108052383Y-64188912D01*
X104017900Y-68223395D01*
X103955588Y-68257421D01*
X103928805Y-68260300D01*
X99857695Y-68260300D01*
X99789574Y-68240298D01*
X99743081Y-68186642D01*
X99732977Y-68116368D01*
X99762471Y-68051788D01*
X99768600Y-68045205D01*
X101266298Y-66547507D01*
X101328610Y-66513481D01*
X101399425Y-66518546D01*
X101443077Y-66546117D01*
X101473840Y-66575929D01*
X101526319Y-66626784D01*
X101530755Y-66631083D01*
X101712773Y-66753394D01*
X101717919Y-66755653D01*
X101717921Y-66755654D01*
X101781254Y-66783455D01*
X101913575Y-66841540D01*
X102062788Y-66877363D01*
X102117432Y-66890482D01*
X102126812Y-66892734D01*
X102209793Y-66897518D01*
X102340137Y-66905034D01*
X102340140Y-66905034D01*
X102345744Y-66905357D01*
X102563452Y-66879012D01*
X102773054Y-66814530D01*
X102778034Y-66811960D01*
X102778038Y-66811958D01*
X102962943Y-66716521D01*
X102962944Y-66716520D01*
X102967924Y-66713950D01*
X103141903Y-66580451D01*
X103145674Y-66576306D01*
X103145678Y-66576303D01*
X103285714Y-66422405D01*
X103289493Y-66418252D01*
X103406026Y-66232482D01*
X103408123Y-66227267D01*
X103466865Y-66081141D01*
X103487821Y-66029011D01*
X103491766Y-66009964D01*
X103531355Y-65818795D01*
X103532292Y-65814271D01*
X103532920Y-65803379D01*
X103535395Y-65760454D01*
X103535395Y-65760450D01*
X103535500Y-65758631D01*
X103535500Y-65056857D01*
X103520972Y-64894072D01*
X103504156Y-64832601D01*
X103465741Y-64692184D01*
X103463105Y-64682548D01*
X103460690Y-64677483D01*
X103403571Y-64557733D01*
X103368696Y-64484615D01*
X103240728Y-64306528D01*
X103083245Y-64153917D01*
X102901227Y-64031606D01*
X102700425Y-63943460D01*
X102499455Y-63895211D01*
X102492645Y-63893576D01*
X102492644Y-63893576D01*
X102487188Y-63892266D01*
X102404207Y-63887482D01*
X102273863Y-63879966D01*
X102273860Y-63879966D01*
X102268256Y-63879643D01*
X102050548Y-63905988D01*
X101840946Y-63970470D01*
X101835966Y-63973040D01*
X101835962Y-63973042D01*
X101654719Y-64066589D01*
X101646076Y-64071050D01*
X101472097Y-64204549D01*
X101468326Y-64208694D01*
X101468322Y-64208697D01*
X101388130Y-64296827D01*
X101324507Y-64366748D01*
X101207974Y-64552518D01*
X101205880Y-64557727D01*
X101205879Y-64557729D01*
X101156082Y-64681603D01*
X101112115Y-64737347D01*
X101044990Y-64760472D01*
X100976019Y-64743635D01*
X100927099Y-64692182D01*
X100923521Y-64684068D01*
X100923105Y-64682548D01*
X100828696Y-64484615D01*
X100700728Y-64306528D01*
X100543245Y-64153917D01*
X100361227Y-64031606D01*
X100160425Y-63943460D01*
X99959455Y-63895211D01*
X99952645Y-63893576D01*
X99952644Y-63893576D01*
X99947188Y-63892266D01*
X99864207Y-63887482D01*
X99733863Y-63879966D01*
X99733860Y-63879966D01*
X99728256Y-63879643D01*
X99510548Y-63905988D01*
X99300946Y-63970470D01*
X99295966Y-63973040D01*
X99295962Y-63973042D01*
X99131386Y-64057986D01*
X99061678Y-64071455D01*
X98995755Y-64045100D01*
X98954545Y-63987287D01*
X98947658Y-63949975D01*
X98947540Y-63946194D01*
X98947062Y-63930998D01*
X98947000Y-63927043D01*
X98947000Y-63899144D01*
X98946496Y-63895153D01*
X98945563Y-63883311D01*
X98945350Y-63876513D01*
X98944174Y-63839111D01*
X98941962Y-63831497D01*
X98941961Y-63831492D01*
X98938523Y-63819659D01*
X98934512Y-63800295D01*
X98932967Y-63788064D01*
X98931974Y-63780203D01*
X98929057Y-63772836D01*
X98929056Y-63772831D01*
X98915698Y-63739092D01*
X98911854Y-63727865D01*
X98901730Y-63693022D01*
X98899518Y-63685407D01*
X98889207Y-63667972D01*
X98880512Y-63650224D01*
X98873052Y-63631383D01*
X98847064Y-63595613D01*
X98840548Y-63585693D01*
X98822080Y-63554465D01*
X98822078Y-63554462D01*
X98818042Y-63547638D01*
X98803721Y-63533317D01*
X98790880Y-63518283D01*
X98783631Y-63508306D01*
X98778972Y-63501893D01*
X98744895Y-63473702D01*
X98736116Y-63465712D01*
X91741927Y-56471522D01*
X111444273Y-56471522D01*
X111491764Y-56648761D01*
X111495510Y-56659053D01*
X111587586Y-56856511D01*
X111593069Y-56866007D01*
X111718028Y-57044467D01*
X111725084Y-57052875D01*
X111879125Y-57206916D01*
X111887533Y-57213972D01*
X112065993Y-57338931D01*
X112075489Y-57344414D01*
X112110641Y-57360805D01*
X112163926Y-57407722D01*
X112183387Y-57475999D01*
X112162845Y-57543959D01*
X112110641Y-57589195D01*
X112075489Y-57605586D01*
X112065993Y-57611069D01*
X111887533Y-57736028D01*
X111879125Y-57743084D01*
X111725084Y-57897125D01*
X111718028Y-57905533D01*
X111593069Y-58083993D01*
X111587586Y-58093489D01*
X111495510Y-58290947D01*
X111491764Y-58301239D01*
X111445606Y-58473503D01*
X111445942Y-58487599D01*
X111453884Y-58491000D01*
X112454885Y-58491000D01*
X112470124Y-58486525D01*
X112471329Y-58485135D01*
X112473000Y-58477452D01*
X112473000Y-56477115D01*
X112468525Y-56461876D01*
X112467135Y-56460671D01*
X112459452Y-56459000D01*
X111459033Y-56459000D01*
X111445502Y-56462973D01*
X111444273Y-56471522D01*
X91741927Y-56471522D01*
X89201927Y-53931522D01*
X111444273Y-53931522D01*
X111491764Y-54108761D01*
X111495510Y-54119053D01*
X111587586Y-54316511D01*
X111593069Y-54326007D01*
X111718028Y-54504467D01*
X111725084Y-54512875D01*
X111879125Y-54666916D01*
X111887533Y-54673972D01*
X112065993Y-54798931D01*
X112075489Y-54804414D01*
X112110641Y-54820805D01*
X112163926Y-54867722D01*
X112183387Y-54935999D01*
X112162845Y-55003959D01*
X112110641Y-55049195D01*
X112075489Y-55065586D01*
X112065993Y-55071069D01*
X111887533Y-55196028D01*
X111879125Y-55203084D01*
X111725084Y-55357125D01*
X111718028Y-55365533D01*
X111593069Y-55543993D01*
X111587586Y-55553489D01*
X111495510Y-55750947D01*
X111491764Y-55761239D01*
X111445606Y-55933503D01*
X111445942Y-55947599D01*
X111453884Y-55951000D01*
X112454885Y-55951000D01*
X112470124Y-55946525D01*
X112471329Y-55945135D01*
X112473000Y-55937452D01*
X112473000Y-55932885D01*
X112981000Y-55932885D01*
X112985475Y-55948124D01*
X112986865Y-55949329D01*
X112994548Y-55951000D01*
X113994967Y-55951000D01*
X114008498Y-55947027D01*
X114009727Y-55938478D01*
X113962236Y-55761239D01*
X113958490Y-55750947D01*
X113866414Y-55553489D01*
X113860931Y-55543993D01*
X113735972Y-55365533D01*
X113728916Y-55357125D01*
X113574875Y-55203084D01*
X113566467Y-55196028D01*
X113388007Y-55071069D01*
X113378511Y-55065586D01*
X113343359Y-55049195D01*
X113290074Y-55002278D01*
X113270613Y-54934001D01*
X113291155Y-54866041D01*
X113343359Y-54820805D01*
X113378511Y-54804414D01*
X113388007Y-54798931D01*
X113566467Y-54673972D01*
X113574875Y-54666916D01*
X113728916Y-54512875D01*
X113735972Y-54504467D01*
X113860931Y-54326007D01*
X113866414Y-54316511D01*
X113958490Y-54119053D01*
X113962236Y-54108761D01*
X114008394Y-53936497D01*
X114008058Y-53922401D01*
X114000116Y-53919000D01*
X112999115Y-53919000D01*
X112983876Y-53923475D01*
X112982671Y-53924865D01*
X112981000Y-53932548D01*
X112981000Y-55932885D01*
X112473000Y-55932885D01*
X112473000Y-53937115D01*
X112468525Y-53921876D01*
X112467135Y-53920671D01*
X112459452Y-53919000D01*
X111459033Y-53919000D01*
X111445502Y-53922973D01*
X111444273Y-53931522D01*
X89201927Y-53931522D01*
X87137189Y-51866784D01*
X87103163Y-51804472D01*
X87108228Y-51733657D01*
X87150775Y-51676821D01*
X87211147Y-51652602D01*
X87323452Y-51639012D01*
X87533054Y-51574530D01*
X87538034Y-51571960D01*
X87538038Y-51571958D01*
X87722943Y-51476521D01*
X87722944Y-51476520D01*
X87727924Y-51473950D01*
X87901903Y-51340451D01*
X87905674Y-51336306D01*
X87905678Y-51336303D01*
X88045714Y-51182405D01*
X88049493Y-51178252D01*
X88166026Y-50992482D01*
X88168121Y-50987271D01*
X88168123Y-50987267D01*
X88217918Y-50863397D01*
X88261884Y-50807652D01*
X88329009Y-50784527D01*
X88397981Y-50801364D01*
X88446901Y-50852816D01*
X88450479Y-50860930D01*
X88450895Y-50862452D01*
X88545304Y-51060385D01*
X88673272Y-51238472D01*
X88830755Y-51391083D01*
X89012773Y-51513394D01*
X89213575Y-51601540D01*
X89426812Y-51652734D01*
X89509793Y-51657518D01*
X89640137Y-51665034D01*
X89640140Y-51665034D01*
X89645744Y-51665357D01*
X89863452Y-51639012D01*
X90073054Y-51574530D01*
X90078034Y-51571960D01*
X90078038Y-51571958D01*
X90262943Y-51476521D01*
X90262944Y-51476520D01*
X90267924Y-51473950D01*
X90441903Y-51340451D01*
X90445674Y-51336306D01*
X90445678Y-51336303D01*
X90585714Y-51182405D01*
X90589493Y-51178252D01*
X90706026Y-50992482D01*
X90708121Y-50987271D01*
X90708123Y-50987267D01*
X90757918Y-50863397D01*
X90801884Y-50807652D01*
X90869009Y-50784527D01*
X90937981Y-50801364D01*
X90986901Y-50852816D01*
X90990479Y-50860930D01*
X90990895Y-50862452D01*
X91085304Y-51060385D01*
X91213272Y-51238472D01*
X91370755Y-51391083D01*
X91552773Y-51513394D01*
X91753575Y-51601540D01*
X91966812Y-51652734D01*
X92049793Y-51657518D01*
X92180137Y-51665034D01*
X92180140Y-51665034D01*
X92185744Y-51665357D01*
X92403452Y-51639012D01*
X92613054Y-51574530D01*
X92618034Y-51571960D01*
X92618038Y-51571958D01*
X92802943Y-51476521D01*
X92802944Y-51476520D01*
X92807924Y-51473950D01*
X92981903Y-51340451D01*
X92985674Y-51336306D01*
X92985678Y-51336303D01*
X93125714Y-51182405D01*
X93129493Y-51178252D01*
X93246026Y-50992482D01*
X93248121Y-50987271D01*
X93248123Y-50987267D01*
X93297918Y-50863397D01*
X93341884Y-50807652D01*
X93409009Y-50784527D01*
X93477981Y-50801364D01*
X93526901Y-50852816D01*
X93530479Y-50860930D01*
X93530895Y-50862452D01*
X93625304Y-51060385D01*
X93753272Y-51238472D01*
X93910755Y-51391083D01*
X94092773Y-51513394D01*
X94293575Y-51601540D01*
X94506812Y-51652734D01*
X94589793Y-51657518D01*
X94720137Y-51665034D01*
X94720140Y-51665034D01*
X94725744Y-51665357D01*
X94943452Y-51639012D01*
X95153054Y-51574530D01*
X95158034Y-51571960D01*
X95158038Y-51571958D01*
X95342943Y-51476521D01*
X95342944Y-51476520D01*
X95347924Y-51473950D01*
X95521903Y-51340451D01*
X95525674Y-51336306D01*
X95525678Y-51336303D01*
X95665714Y-51182405D01*
X95669493Y-51178252D01*
X95786026Y-50992482D01*
X95788121Y-50987271D01*
X95788123Y-50987267D01*
X95837918Y-50863397D01*
X95881884Y-50807652D01*
X95949009Y-50784527D01*
X96017981Y-50801364D01*
X96066901Y-50852816D01*
X96070479Y-50860930D01*
X96070895Y-50862452D01*
X96165304Y-51060385D01*
X96293272Y-51238472D01*
X96450755Y-51391083D01*
X96632773Y-51513394D01*
X96833575Y-51601540D01*
X97046812Y-51652734D01*
X97129793Y-51657518D01*
X97260137Y-51665034D01*
X97260140Y-51665034D01*
X97265744Y-51665357D01*
X97483452Y-51639012D01*
X97693054Y-51574530D01*
X97698034Y-51571960D01*
X97698038Y-51571958D01*
X97882943Y-51476521D01*
X97882944Y-51476520D01*
X97887924Y-51473950D01*
X98061903Y-51340451D01*
X98065674Y-51336306D01*
X98065678Y-51336303D01*
X98205714Y-51182405D01*
X98209493Y-51178252D01*
X98326026Y-50992482D01*
X98328121Y-50987271D01*
X98328123Y-50987267D01*
X98377918Y-50863397D01*
X98421884Y-50807652D01*
X98489009Y-50784527D01*
X98557981Y-50801364D01*
X98606901Y-50852816D01*
X98610479Y-50860930D01*
X98610895Y-50862452D01*
X98705304Y-51060385D01*
X98833272Y-51238472D01*
X98990755Y-51391083D01*
X99172773Y-51513394D01*
X99373575Y-51601540D01*
X99586812Y-51652734D01*
X99669793Y-51657518D01*
X99800137Y-51665034D01*
X99800140Y-51665034D01*
X99805744Y-51665357D01*
X100023452Y-51639012D01*
X100233054Y-51574530D01*
X100238034Y-51571960D01*
X100238038Y-51571958D01*
X100422943Y-51476521D01*
X100422944Y-51476520D01*
X100427924Y-51473950D01*
X100601903Y-51340451D01*
X100605674Y-51336306D01*
X100605678Y-51336303D01*
X100745714Y-51182405D01*
X100749493Y-51178252D01*
X100866026Y-50992482D01*
X100868121Y-50987271D01*
X100868123Y-50987267D01*
X100917918Y-50863397D01*
X100961884Y-50807652D01*
X101029009Y-50784527D01*
X101097981Y-50801364D01*
X101146901Y-50852816D01*
X101150479Y-50860930D01*
X101150895Y-50862452D01*
X101245304Y-51060385D01*
X101373272Y-51238472D01*
X101530755Y-51391083D01*
X101712773Y-51513394D01*
X101913575Y-51601540D01*
X102126812Y-51652734D01*
X102209793Y-51657518D01*
X102340137Y-51665034D01*
X102340140Y-51665034D01*
X102345744Y-51665357D01*
X102563452Y-51639012D01*
X102773054Y-51574530D01*
X102778034Y-51571960D01*
X102778038Y-51571958D01*
X102962943Y-51476521D01*
X102962944Y-51476520D01*
X102967924Y-51473950D01*
X103075346Y-51391522D01*
X111444273Y-51391522D01*
X111491764Y-51568761D01*
X111495510Y-51579053D01*
X111587586Y-51776511D01*
X111593069Y-51786007D01*
X111718028Y-51964467D01*
X111725084Y-51972875D01*
X111879125Y-52126916D01*
X111887533Y-52133972D01*
X112065993Y-52258931D01*
X112075489Y-52264414D01*
X112110641Y-52280805D01*
X112163926Y-52327722D01*
X112183387Y-52395999D01*
X112162845Y-52463959D01*
X112110641Y-52509195D01*
X112075489Y-52525586D01*
X112065993Y-52531069D01*
X111887533Y-52656028D01*
X111879125Y-52663084D01*
X111725084Y-52817125D01*
X111718028Y-52825533D01*
X111593069Y-53003993D01*
X111587586Y-53013489D01*
X111495510Y-53210947D01*
X111491764Y-53221239D01*
X111445606Y-53393503D01*
X111445942Y-53407599D01*
X111453884Y-53411000D01*
X112454885Y-53411000D01*
X112470124Y-53406525D01*
X112471329Y-53405135D01*
X112473000Y-53397452D01*
X112473000Y-53392885D01*
X112981000Y-53392885D01*
X112985475Y-53408124D01*
X112986865Y-53409329D01*
X112994548Y-53411000D01*
X113994967Y-53411000D01*
X114008498Y-53407027D01*
X114009727Y-53398478D01*
X113962236Y-53221239D01*
X113958490Y-53210947D01*
X113866414Y-53013489D01*
X113860931Y-53003993D01*
X113735972Y-52825533D01*
X113728916Y-52817125D01*
X113574875Y-52663084D01*
X113566467Y-52656028D01*
X113388007Y-52531069D01*
X113378511Y-52525586D01*
X113343359Y-52509195D01*
X113290074Y-52462278D01*
X113270613Y-52394001D01*
X113291155Y-52326041D01*
X113343359Y-52280805D01*
X113378511Y-52264414D01*
X113388007Y-52258931D01*
X113566467Y-52133972D01*
X113574875Y-52126916D01*
X113728916Y-51972875D01*
X113735972Y-51964467D01*
X113860931Y-51786007D01*
X113866414Y-51776511D01*
X113958490Y-51579053D01*
X113962236Y-51568761D01*
X114008394Y-51396497D01*
X114008058Y-51382401D01*
X114000116Y-51379000D01*
X112999115Y-51379000D01*
X112983876Y-51383475D01*
X112982671Y-51384865D01*
X112981000Y-51392548D01*
X112981000Y-53392885D01*
X112473000Y-53392885D01*
X112473000Y-51397115D01*
X112468525Y-51381876D01*
X112467135Y-51380671D01*
X112459452Y-51379000D01*
X111459033Y-51379000D01*
X111445502Y-51382973D01*
X111444273Y-51391522D01*
X103075346Y-51391522D01*
X103141903Y-51340451D01*
X103145674Y-51336306D01*
X103145678Y-51336303D01*
X103285714Y-51182405D01*
X103289493Y-51178252D01*
X103406026Y-50992482D01*
X103408123Y-50987267D01*
X103456459Y-50867027D01*
X103487821Y-50789011D01*
X103495651Y-50751205D01*
X103517467Y-50645859D01*
X103532292Y-50574271D01*
X103532558Y-50569659D01*
X103535395Y-50520454D01*
X103535395Y-50520450D01*
X103535500Y-50518631D01*
X103535500Y-49816857D01*
X103534159Y-49801825D01*
X103528713Y-49740805D01*
X103520972Y-49654072D01*
X103514057Y-49628792D01*
X103471719Y-49474035D01*
X103463105Y-49442548D01*
X103460690Y-49437483D01*
X103398814Y-49307759D01*
X103368696Y-49244615D01*
X103240728Y-49066528D01*
X103083245Y-48913917D01*
X102990391Y-48851522D01*
X111444273Y-48851522D01*
X111491764Y-49028761D01*
X111495510Y-49039053D01*
X111587586Y-49236511D01*
X111593069Y-49246007D01*
X111718028Y-49424467D01*
X111725084Y-49432875D01*
X111879125Y-49586916D01*
X111887533Y-49593972D01*
X112065993Y-49718931D01*
X112075489Y-49724414D01*
X112110641Y-49740805D01*
X112163926Y-49787722D01*
X112183387Y-49855999D01*
X112162845Y-49923959D01*
X112110641Y-49969195D01*
X112075489Y-49985586D01*
X112065993Y-49991069D01*
X111887533Y-50116028D01*
X111879125Y-50123084D01*
X111725084Y-50277125D01*
X111718028Y-50285533D01*
X111593069Y-50463993D01*
X111587586Y-50473489D01*
X111495510Y-50670947D01*
X111491764Y-50681239D01*
X111445606Y-50853503D01*
X111445942Y-50867599D01*
X111453884Y-50871000D01*
X112454885Y-50871000D01*
X112470124Y-50866525D01*
X112471329Y-50865135D01*
X112473000Y-50857452D01*
X112473000Y-50852885D01*
X112981000Y-50852885D01*
X112985475Y-50868124D01*
X112986865Y-50869329D01*
X112994548Y-50871000D01*
X113994967Y-50871000D01*
X114008498Y-50867027D01*
X114009727Y-50858478D01*
X113962236Y-50681239D01*
X113958490Y-50670947D01*
X113866414Y-50473489D01*
X113860931Y-50463993D01*
X113735972Y-50285533D01*
X113728916Y-50277125D01*
X113574875Y-50123084D01*
X113566467Y-50116028D01*
X113388007Y-49991069D01*
X113378511Y-49985586D01*
X113343359Y-49969195D01*
X113290074Y-49922278D01*
X113270613Y-49854001D01*
X113291155Y-49786041D01*
X113343359Y-49740805D01*
X113378511Y-49724414D01*
X113388007Y-49718931D01*
X113566467Y-49593972D01*
X113574875Y-49586916D01*
X113728916Y-49432875D01*
X113735972Y-49424467D01*
X113860931Y-49246007D01*
X113866414Y-49236511D01*
X113958490Y-49039053D01*
X113962236Y-49028761D01*
X114008394Y-48856497D01*
X114008058Y-48842401D01*
X114000116Y-48839000D01*
X112999115Y-48839000D01*
X112983876Y-48843475D01*
X112982671Y-48844865D01*
X112981000Y-48852548D01*
X112981000Y-50852885D01*
X112473000Y-50852885D01*
X112473000Y-48857115D01*
X112468525Y-48841876D01*
X112467135Y-48840671D01*
X112459452Y-48839000D01*
X111459033Y-48839000D01*
X111445502Y-48842973D01*
X111444273Y-48851522D01*
X102990391Y-48851522D01*
X102901227Y-48791606D01*
X102700425Y-48703460D01*
X102487188Y-48652266D01*
X102404207Y-48647482D01*
X102273863Y-48639966D01*
X102273860Y-48639966D01*
X102268256Y-48639643D01*
X102050548Y-48665988D01*
X101840946Y-48730470D01*
X101835966Y-48733040D01*
X101835962Y-48733042D01*
X101670581Y-48818402D01*
X101646076Y-48831050D01*
X101472097Y-48964549D01*
X101468326Y-48968694D01*
X101468322Y-48968697D01*
X101379303Y-49066528D01*
X101324507Y-49126748D01*
X101207974Y-49312518D01*
X101205880Y-49317728D01*
X101205877Y-49317733D01*
X101156082Y-49441603D01*
X101112116Y-49497348D01*
X101044991Y-49520473D01*
X100976019Y-49503636D01*
X100927099Y-49452184D01*
X100923521Y-49444070D01*
X100923105Y-49442548D01*
X100828696Y-49244615D01*
X100700728Y-49066528D01*
X100543245Y-48913917D01*
X100361227Y-48791606D01*
X100160425Y-48703460D01*
X99947188Y-48652266D01*
X99864207Y-48647482D01*
X99733863Y-48639966D01*
X99733860Y-48639966D01*
X99728256Y-48639643D01*
X99510548Y-48665988D01*
X99300946Y-48730470D01*
X99295966Y-48733040D01*
X99295962Y-48733042D01*
X99130581Y-48818402D01*
X99106076Y-48831050D01*
X98932097Y-48964549D01*
X98928326Y-48968694D01*
X98928322Y-48968697D01*
X98839303Y-49066528D01*
X98784507Y-49126748D01*
X98667974Y-49312518D01*
X98665880Y-49317728D01*
X98665877Y-49317733D01*
X98616082Y-49441603D01*
X98572116Y-49497348D01*
X98504991Y-49520473D01*
X98436019Y-49503636D01*
X98387099Y-49452184D01*
X98383521Y-49444070D01*
X98383105Y-49442548D01*
X98288696Y-49244615D01*
X98160728Y-49066528D01*
X98003245Y-48913917D01*
X97821227Y-48791606D01*
X97620425Y-48703460D01*
X97407188Y-48652266D01*
X97324207Y-48647482D01*
X97193863Y-48639966D01*
X97193860Y-48639966D01*
X97188256Y-48639643D01*
X96970548Y-48665988D01*
X96760946Y-48730470D01*
X96755966Y-48733040D01*
X96755962Y-48733042D01*
X96590581Y-48818402D01*
X96566076Y-48831050D01*
X96392097Y-48964549D01*
X96388328Y-48968691D01*
X96388315Y-48968703D01*
X96381678Y-48975997D01*
X96321036Y-49012917D01*
X96250061Y-49011191D01*
X96199393Y-48980289D01*
X95532608Y-48313503D01*
X111445606Y-48313503D01*
X111445942Y-48327599D01*
X111453884Y-48331000D01*
X112454885Y-48331000D01*
X112470124Y-48326525D01*
X112471329Y-48325135D01*
X112473000Y-48317452D01*
X112473000Y-48312885D01*
X112981000Y-48312885D01*
X112985475Y-48328124D01*
X112986865Y-48329329D01*
X112994548Y-48331000D01*
X113994967Y-48331000D01*
X114008498Y-48327027D01*
X114009727Y-48318478D01*
X113962236Y-48141239D01*
X113958490Y-48130947D01*
X113866414Y-47933489D01*
X113860931Y-47923993D01*
X113735972Y-47745533D01*
X113728916Y-47737125D01*
X113574875Y-47583084D01*
X113566467Y-47576028D01*
X113388007Y-47451069D01*
X113378511Y-47445586D01*
X113181053Y-47353510D01*
X113170761Y-47349764D01*
X112998497Y-47303606D01*
X112984401Y-47303942D01*
X112981000Y-47311884D01*
X112981000Y-48312885D01*
X112473000Y-48312885D01*
X112473000Y-47317033D01*
X112469027Y-47303502D01*
X112460478Y-47302273D01*
X112283239Y-47349764D01*
X112272947Y-47353510D01*
X112075489Y-47445586D01*
X112065993Y-47451069D01*
X111887533Y-47576028D01*
X111879125Y-47583084D01*
X111725084Y-47737125D01*
X111718028Y-47745533D01*
X111593069Y-47923993D01*
X111587586Y-47933489D01*
X111495510Y-48130947D01*
X111491764Y-48141239D01*
X111445606Y-48313503D01*
X95532608Y-48313503D01*
X95184052Y-47964947D01*
X95176512Y-47956661D01*
X95172400Y-47950182D01*
X95122748Y-47903556D01*
X95119907Y-47900802D01*
X95100170Y-47881065D01*
X95096973Y-47878585D01*
X95087951Y-47870880D01*
X95074522Y-47858269D01*
X95055721Y-47840614D01*
X95048775Y-47836795D01*
X95048772Y-47836793D01*
X95037966Y-47830852D01*
X95021447Y-47820001D01*
X95020983Y-47819641D01*
X95005441Y-47807586D01*
X94998172Y-47804441D01*
X94998168Y-47804438D01*
X94964863Y-47790026D01*
X94954213Y-47784809D01*
X94915460Y-47763505D01*
X94895837Y-47758467D01*
X94877134Y-47752063D01*
X94865820Y-47747167D01*
X94865819Y-47747167D01*
X94858545Y-47744019D01*
X94850722Y-47742780D01*
X94850712Y-47742777D01*
X94814876Y-47737101D01*
X94803256Y-47734695D01*
X94768111Y-47725672D01*
X94768110Y-47725672D01*
X94760430Y-47723700D01*
X94740176Y-47723700D01*
X94720465Y-47722149D01*
X94708286Y-47720220D01*
X94700457Y-47718980D01*
X94671186Y-47721747D01*
X94656439Y-47723141D01*
X94644581Y-47723700D01*
X63816067Y-47723700D01*
X63804884Y-47723173D01*
X63797391Y-47721498D01*
X63789465Y-47721747D01*
X63789464Y-47721747D01*
X63729301Y-47723638D01*
X63725343Y-47723700D01*
X63697444Y-47723700D01*
X63693454Y-47724204D01*
X63681620Y-47725136D01*
X63637411Y-47726526D01*
X63629797Y-47728738D01*
X63629792Y-47728739D01*
X63617959Y-47732177D01*
X63598596Y-47736188D01*
X63578503Y-47738726D01*
X63571136Y-47741643D01*
X63571131Y-47741644D01*
X63537392Y-47755002D01*
X63526165Y-47758846D01*
X63483707Y-47771182D01*
X63476881Y-47775219D01*
X63466272Y-47781493D01*
X63448524Y-47790188D01*
X63429683Y-47797648D01*
X63423267Y-47802310D01*
X63423266Y-47802310D01*
X63393913Y-47823636D01*
X63383993Y-47830152D01*
X63352765Y-47848620D01*
X63352762Y-47848622D01*
X63345938Y-47852658D01*
X63331617Y-47866979D01*
X63316584Y-47879819D01*
X63300193Y-47891728D01*
X63291517Y-47902216D01*
X63272002Y-47925805D01*
X63264012Y-47934584D01*
X57442247Y-53756348D01*
X57433961Y-53763888D01*
X57427482Y-53768000D01*
X57422057Y-53773777D01*
X57380857Y-53817651D01*
X57378102Y-53820493D01*
X57358365Y-53840230D01*
X57355885Y-53843427D01*
X57348182Y-53852447D01*
X57317914Y-53884679D01*
X57314095Y-53891625D01*
X57314093Y-53891628D01*
X57308152Y-53902434D01*
X57297301Y-53918953D01*
X57284886Y-53934959D01*
X57281741Y-53942228D01*
X57281738Y-53942232D01*
X57267326Y-53975537D01*
X57262109Y-53986187D01*
X57240805Y-54024940D01*
X57238834Y-54032615D01*
X57238834Y-54032616D01*
X57235767Y-54044562D01*
X57229363Y-54063266D01*
X57221319Y-54081855D01*
X57220080Y-54089678D01*
X57220077Y-54089688D01*
X57214401Y-54125524D01*
X57211995Y-54137144D01*
X57201000Y-54179970D01*
X57201000Y-54200224D01*
X57199449Y-54219934D01*
X57196280Y-54239943D01*
X57197026Y-54247835D01*
X57200441Y-54283961D01*
X57201000Y-54295819D01*
X57201000Y-87243976D01*
X57180998Y-87312097D01*
X57168642Y-87328279D01*
X57095460Y-87409556D01*
X57048883Y-87490229D01*
X57014887Y-87549113D01*
X56999973Y-87574944D01*
X56940958Y-87756572D01*
X56940268Y-87763133D01*
X56940268Y-87763135D01*
X56929456Y-87866008D01*
X56920996Y-87946500D01*
X43655500Y-87946500D01*
X43655500Y-75240272D01*
X43675502Y-75172151D01*
X43729158Y-75125658D01*
X43765054Y-75115350D01*
X44014821Y-75082468D01*
X44014827Y-75082467D01*
X44017546Y-75082109D01*
X44444530Y-74987449D01*
X44447155Y-74986621D01*
X44447160Y-74986620D01*
X44859012Y-74856764D01*
X44859020Y-74856761D01*
X44861640Y-74855935D01*
X45265700Y-74688567D01*
X45653636Y-74486621D01*
X45967321Y-74286782D01*
X46020180Y-74253107D01*
X46020183Y-74253105D01*
X46022495Y-74251632D01*
X46024663Y-74249968D01*
X46024675Y-74249960D01*
X46367277Y-73987071D01*
X46369469Y-73985389D01*
X46371497Y-73983531D01*
X46371505Y-73983524D01*
X46689899Y-73691770D01*
X46691919Y-73689919D01*
X46731388Y-73646846D01*
X46985524Y-73369505D01*
X46985531Y-73369497D01*
X46987389Y-73367469D01*
X47012154Y-73335195D01*
X47251960Y-73022675D01*
X47251968Y-73022663D01*
X47253632Y-73020495D01*
X47264889Y-73002826D01*
X47443793Y-72722002D01*
X47488621Y-72651636D01*
X47690567Y-72263700D01*
X47857935Y-71859640D01*
X47866130Y-71833651D01*
X47988620Y-71445160D01*
X47988621Y-71445155D01*
X47989449Y-71442530D01*
X48084109Y-71015546D01*
X48141195Y-70581935D01*
X48141957Y-70564498D01*
X48160152Y-70147748D01*
X48160272Y-70145000D01*
X48150595Y-69923349D01*
X48141316Y-69710825D01*
X48141315Y-69710814D01*
X48141195Y-69708065D01*
X48092857Y-69340900D01*
X48084468Y-69277179D01*
X48084467Y-69277173D01*
X48084109Y-69274454D01*
X47989449Y-68847470D01*
X47944105Y-68703656D01*
X47858764Y-68432988D01*
X47858761Y-68432980D01*
X47857935Y-68430360D01*
X47690567Y-68026300D01*
X47488621Y-67638364D01*
X47253632Y-67269505D01*
X47251968Y-67267337D01*
X47251960Y-67267325D01*
X46989071Y-66924723D01*
X46987389Y-66922531D01*
X46985531Y-66920503D01*
X46985524Y-66920495D01*
X46693770Y-66602101D01*
X46691919Y-66600081D01*
X46641563Y-66553938D01*
X46371505Y-66306476D01*
X46371497Y-66306469D01*
X46369469Y-66304611D01*
X46197586Y-66172720D01*
X46024675Y-66040040D01*
X46024663Y-66040032D01*
X46022495Y-66038368D01*
X46015980Y-66034217D01*
X45881157Y-65948326D01*
X45653636Y-65803379D01*
X45265700Y-65601433D01*
X44861640Y-65434065D01*
X44859020Y-65433239D01*
X44859012Y-65433236D01*
X44447160Y-65303380D01*
X44447155Y-65303379D01*
X44444530Y-65302551D01*
X44017546Y-65207891D01*
X44014827Y-65207533D01*
X44014821Y-65207532D01*
X43765054Y-65174650D01*
X43700127Y-65145928D01*
X43661035Y-65086663D01*
X43655500Y-65049728D01*
X43655500Y-62045000D01*
X44633502Y-62045000D01*
X44653457Y-62273087D01*
X44654881Y-62278400D01*
X44654881Y-62278402D01*
X44692025Y-62417022D01*
X44712716Y-62494243D01*
X44715039Y-62499224D01*
X44715039Y-62499225D01*
X44807151Y-62696762D01*
X44807154Y-62696767D01*
X44809477Y-62701749D01*
X44940802Y-62889300D01*
X45102700Y-63051198D01*
X45107208Y-63054355D01*
X45107211Y-63054357D01*
X45185389Y-63109098D01*
X45290251Y-63182523D01*
X45295233Y-63184846D01*
X45295238Y-63184849D01*
X45491765Y-63276490D01*
X45497757Y-63279284D01*
X45503065Y-63280706D01*
X45503067Y-63280707D01*
X45713598Y-63337119D01*
X45713600Y-63337119D01*
X45718913Y-63338543D01*
X45947000Y-63358498D01*
X46175087Y-63338543D01*
X46180400Y-63337119D01*
X46180402Y-63337119D01*
X46390933Y-63280707D01*
X46390935Y-63280706D01*
X46396243Y-63279284D01*
X46402235Y-63276490D01*
X46598762Y-63184849D01*
X46598767Y-63184846D01*
X46603749Y-63182523D01*
X46677243Y-63131062D01*
X50225493Y-63131062D01*
X50234789Y-63143077D01*
X50285994Y-63178931D01*
X50295489Y-63184414D01*
X50492947Y-63276490D01*
X50503239Y-63280236D01*
X50713688Y-63336625D01*
X50724481Y-63338528D01*
X50941525Y-63357517D01*
X50952475Y-63357517D01*
X51169519Y-63338528D01*
X51180312Y-63336625D01*
X51390761Y-63280236D01*
X51401053Y-63276490D01*
X51598511Y-63184414D01*
X51608006Y-63178931D01*
X51660048Y-63142491D01*
X51668424Y-63132012D01*
X51661356Y-63118566D01*
X50959812Y-62417022D01*
X50945868Y-62409408D01*
X50944035Y-62409539D01*
X50937420Y-62413790D01*
X50231923Y-63119287D01*
X50225493Y-63131062D01*
X46677243Y-63131062D01*
X46708611Y-63109098D01*
X46786789Y-63054357D01*
X46786792Y-63054355D01*
X46791300Y-63051198D01*
X46953198Y-62889300D01*
X47084523Y-62701749D01*
X47086846Y-62696767D01*
X47086849Y-62696762D01*
X47178961Y-62499225D01*
X47178961Y-62499224D01*
X47181284Y-62494243D01*
X47201976Y-62417022D01*
X47239119Y-62278402D01*
X47239119Y-62278400D01*
X47240543Y-62273087D01*
X47260019Y-62050475D01*
X49634483Y-62050475D01*
X49653472Y-62267519D01*
X49655375Y-62278312D01*
X49711764Y-62488761D01*
X49715510Y-62499053D01*
X49807586Y-62696511D01*
X49813069Y-62706006D01*
X49849509Y-62758048D01*
X49859988Y-62766424D01*
X49873434Y-62759356D01*
X50574978Y-62057812D01*
X50581356Y-62046132D01*
X51311408Y-62046132D01*
X51311539Y-62047965D01*
X51315790Y-62054580D01*
X52021287Y-62760077D01*
X52033062Y-62766507D01*
X52045077Y-62757211D01*
X52080931Y-62706006D01*
X52086414Y-62696511D01*
X52178490Y-62499053D01*
X52182236Y-62488761D01*
X52238625Y-62278312D01*
X52240528Y-62267519D01*
X52259517Y-62050475D01*
X52259517Y-62039525D01*
X52240528Y-61822481D01*
X52238625Y-61811688D01*
X52182236Y-61601239D01*
X52178490Y-61590947D01*
X52086414Y-61393489D01*
X52080931Y-61383994D01*
X52044491Y-61331952D01*
X52034012Y-61323576D01*
X52020566Y-61330644D01*
X51319022Y-62032188D01*
X51311408Y-62046132D01*
X50581356Y-62046132D01*
X50582592Y-62043868D01*
X50582461Y-62042035D01*
X50578210Y-62035420D01*
X49872713Y-61329923D01*
X49860938Y-61323493D01*
X49848923Y-61332789D01*
X49813069Y-61383994D01*
X49807586Y-61393489D01*
X49715510Y-61590947D01*
X49711764Y-61601239D01*
X49655375Y-61811688D01*
X49653472Y-61822481D01*
X49634483Y-62039525D01*
X49634483Y-62050475D01*
X47260019Y-62050475D01*
X47260498Y-62045000D01*
X47240543Y-61816913D01*
X47239119Y-61811598D01*
X47182707Y-61601067D01*
X47182706Y-61601065D01*
X47181284Y-61595757D01*
X47128524Y-61482611D01*
X47086849Y-61393238D01*
X47086846Y-61393233D01*
X47084523Y-61388251D01*
X47000650Y-61268468D01*
X46956357Y-61205211D01*
X46956355Y-61205208D01*
X46953198Y-61200700D01*
X46791300Y-61038802D01*
X46786792Y-61035645D01*
X46786789Y-61035643D01*
X46675886Y-60957988D01*
X50225576Y-60957988D01*
X50232644Y-60971434D01*
X50934188Y-61672978D01*
X50948132Y-61680592D01*
X50949965Y-61680461D01*
X50956580Y-61676210D01*
X51662077Y-60970713D01*
X51668507Y-60958938D01*
X51659211Y-60946923D01*
X51608006Y-60911069D01*
X51598511Y-60905586D01*
X51401053Y-60813510D01*
X51390761Y-60809764D01*
X51180312Y-60753375D01*
X51169519Y-60751472D01*
X50952475Y-60732483D01*
X50941525Y-60732483D01*
X50724481Y-60751472D01*
X50713688Y-60753375D01*
X50503239Y-60809764D01*
X50492947Y-60813510D01*
X50295489Y-60905586D01*
X50285994Y-60911069D01*
X50233952Y-60947509D01*
X50225576Y-60957988D01*
X46675886Y-60957988D01*
X46660920Y-60947509D01*
X46603749Y-60907477D01*
X46598767Y-60905154D01*
X46598762Y-60905151D01*
X46401225Y-60813039D01*
X46401224Y-60813039D01*
X46396243Y-60810716D01*
X46390935Y-60809294D01*
X46390933Y-60809293D01*
X46180402Y-60752881D01*
X46180400Y-60752881D01*
X46175087Y-60751457D01*
X45947000Y-60731502D01*
X45718913Y-60751457D01*
X45713600Y-60752881D01*
X45713598Y-60752881D01*
X45503067Y-60809293D01*
X45503065Y-60809294D01*
X45497757Y-60810716D01*
X45492776Y-60813039D01*
X45492775Y-60813039D01*
X45295238Y-60905151D01*
X45295233Y-60905154D01*
X45290251Y-60907477D01*
X45233080Y-60947509D01*
X45107211Y-61035643D01*
X45107208Y-61035645D01*
X45102700Y-61038802D01*
X44940802Y-61200700D01*
X44937645Y-61205208D01*
X44937643Y-61205211D01*
X44893350Y-61268468D01*
X44809477Y-61388251D01*
X44807154Y-61393233D01*
X44807151Y-61393238D01*
X44765476Y-61482611D01*
X44712716Y-61595757D01*
X44711294Y-61601065D01*
X44711293Y-61601067D01*
X44654881Y-61811598D01*
X44653457Y-61816913D01*
X44633502Y-62045000D01*
X43655500Y-62045000D01*
X43655500Y-56288585D01*
X43675502Y-56220464D01*
X43729158Y-56173971D01*
X43799432Y-56163867D01*
X43864012Y-56193361D01*
X43877311Y-56206755D01*
X43923818Y-56261208D01*
X43923823Y-56261213D01*
X43927031Y-56264969D01*
X44107584Y-56419176D01*
X44111792Y-56421755D01*
X44111798Y-56421759D01*
X44202131Y-56477115D01*
X44310037Y-56543240D01*
X44314607Y-56545133D01*
X44314611Y-56545135D01*
X44524833Y-56632211D01*
X44529406Y-56634105D01*
X44590453Y-56648761D01*
X44755476Y-56688380D01*
X44755482Y-56688381D01*
X44760289Y-56689535D01*
X44997000Y-56708165D01*
X45233711Y-56689535D01*
X45238518Y-56688381D01*
X45238524Y-56688380D01*
X45403547Y-56648761D01*
X45464594Y-56634105D01*
X45469167Y-56632211D01*
X45679389Y-56545135D01*
X45679393Y-56545133D01*
X45683963Y-56543240D01*
X45791869Y-56477115D01*
X45882202Y-56421759D01*
X45882208Y-56421755D01*
X45886416Y-56419176D01*
X46066969Y-56264969D01*
X46221176Y-56084416D01*
X46223755Y-56080208D01*
X46223759Y-56080202D01*
X46341133Y-55888665D01*
X46393781Y-55841034D01*
X46448566Y-55828500D01*
X50045434Y-55828500D01*
X50113555Y-55848502D01*
X50152867Y-55888665D01*
X50270241Y-56080202D01*
X50270245Y-56080208D01*
X50272824Y-56084416D01*
X50427031Y-56264969D01*
X50607584Y-56419176D01*
X50611792Y-56421755D01*
X50611798Y-56421759D01*
X50702131Y-56477115D01*
X50810037Y-56543240D01*
X50814607Y-56545133D01*
X50814611Y-56545135D01*
X51024833Y-56632211D01*
X51029406Y-56634105D01*
X51090453Y-56648761D01*
X51255476Y-56688380D01*
X51255482Y-56688381D01*
X51260289Y-56689535D01*
X51497000Y-56708165D01*
X51733711Y-56689535D01*
X51738518Y-56688381D01*
X51738524Y-56688380D01*
X51903547Y-56648761D01*
X51964594Y-56634105D01*
X51969167Y-56632211D01*
X52179389Y-56545135D01*
X52179393Y-56545133D01*
X52183963Y-56543240D01*
X52291869Y-56477115D01*
X52382202Y-56421759D01*
X52382208Y-56421755D01*
X52386416Y-56419176D01*
X52566969Y-56264969D01*
X52721176Y-56084416D01*
X52723755Y-56080208D01*
X52723759Y-56080202D01*
X52842654Y-55886183D01*
X52845240Y-55881963D01*
X52862194Y-55841034D01*
X52934211Y-55667167D01*
X52934212Y-55667165D01*
X52936105Y-55662594D01*
X52991535Y-55431711D01*
X53010165Y-55195000D01*
X52991535Y-54958289D01*
X52936105Y-54727406D01*
X52934211Y-54722833D01*
X52847135Y-54512611D01*
X52847133Y-54512607D01*
X52845240Y-54508037D01*
X52795116Y-54426242D01*
X52723759Y-54309798D01*
X52723755Y-54309792D01*
X52721176Y-54305584D01*
X52587968Y-54149618D01*
X52570177Y-54128787D01*
X52566969Y-54125031D01*
X52386416Y-53970824D01*
X52382208Y-53968245D01*
X52382202Y-53968241D01*
X52188183Y-53849346D01*
X52183963Y-53846760D01*
X52179393Y-53844867D01*
X52179389Y-53844865D01*
X51969167Y-53757789D01*
X51969165Y-53757788D01*
X51964594Y-53755895D01*
X51884391Y-53736640D01*
X51738524Y-53701620D01*
X51738518Y-53701619D01*
X51733711Y-53700465D01*
X51497000Y-53681835D01*
X51260289Y-53700465D01*
X51255482Y-53701619D01*
X51255476Y-53701620D01*
X51109609Y-53736640D01*
X51029406Y-53755895D01*
X51024835Y-53757788D01*
X51024833Y-53757789D01*
X50814611Y-53844865D01*
X50814607Y-53844867D01*
X50810037Y-53846760D01*
X50805817Y-53849346D01*
X50611798Y-53968241D01*
X50611792Y-53968245D01*
X50607584Y-53970824D01*
X50427031Y-54125031D01*
X50423823Y-54128787D01*
X50406032Y-54149618D01*
X50272824Y-54305584D01*
X50270245Y-54309792D01*
X50270241Y-54309798D01*
X50152867Y-54501335D01*
X50100219Y-54548966D01*
X50045434Y-54561500D01*
X46448566Y-54561500D01*
X46380445Y-54541498D01*
X46341133Y-54501335D01*
X46223759Y-54309798D01*
X46223755Y-54309792D01*
X46221176Y-54305584D01*
X46087968Y-54149618D01*
X46070177Y-54128787D01*
X46066969Y-54125031D01*
X45886416Y-53970824D01*
X45882208Y-53968245D01*
X45882202Y-53968241D01*
X45688183Y-53849346D01*
X45683963Y-53846760D01*
X45679393Y-53844867D01*
X45679389Y-53844865D01*
X45469167Y-53757789D01*
X45469165Y-53757788D01*
X45464594Y-53755895D01*
X45384391Y-53736640D01*
X45238524Y-53701620D01*
X45238518Y-53701619D01*
X45233711Y-53700465D01*
X44997000Y-53681835D01*
X44760289Y-53700465D01*
X44755482Y-53701619D01*
X44755476Y-53701620D01*
X44609609Y-53736640D01*
X44529406Y-53755895D01*
X44524835Y-53757788D01*
X44524833Y-53757789D01*
X44314611Y-53844865D01*
X44314607Y-53844867D01*
X44310037Y-53846760D01*
X44305817Y-53849346D01*
X44111798Y-53968241D01*
X44111792Y-53968245D01*
X44107584Y-53970824D01*
X43927031Y-54125031D01*
X43923823Y-54128787D01*
X43923818Y-54128792D01*
X43877311Y-54183245D01*
X43817861Y-54222054D01*
X43746866Y-54222562D01*
X43686867Y-54184606D01*
X43656914Y-54120237D01*
X43655500Y-54101415D01*
X43655500Y-51788585D01*
X43675502Y-51720464D01*
X43729158Y-51673971D01*
X43799432Y-51663867D01*
X43864012Y-51693361D01*
X43877311Y-51706755D01*
X43923818Y-51761208D01*
X43923823Y-51761213D01*
X43927031Y-51764969D01*
X44107584Y-51919176D01*
X44111792Y-51921755D01*
X44111798Y-51921759D01*
X44261671Y-52013601D01*
X44310037Y-52043240D01*
X44314607Y-52045133D01*
X44314611Y-52045135D01*
X44524833Y-52132211D01*
X44529406Y-52134105D01*
X44569714Y-52143782D01*
X44755476Y-52188380D01*
X44755482Y-52188381D01*
X44760289Y-52189535D01*
X44997000Y-52208165D01*
X45233711Y-52189535D01*
X45238518Y-52188381D01*
X45238524Y-52188380D01*
X45424286Y-52143782D01*
X45464594Y-52134105D01*
X45469167Y-52132211D01*
X45679389Y-52045135D01*
X45679393Y-52045133D01*
X45683963Y-52043240D01*
X45732329Y-52013601D01*
X45882202Y-51921759D01*
X45882208Y-51921755D01*
X45886416Y-51919176D01*
X46066969Y-51764969D01*
X46221176Y-51584416D01*
X46223755Y-51580208D01*
X46223759Y-51580202D01*
X46342654Y-51386183D01*
X46345240Y-51381963D01*
X46355000Y-51358402D01*
X46434211Y-51167167D01*
X46434212Y-51167165D01*
X46436105Y-51162594D01*
X46460643Y-51060385D01*
X46490380Y-50936524D01*
X46490381Y-50936518D01*
X46491535Y-50931711D01*
X46510165Y-50695000D01*
X49983835Y-50695000D01*
X50002465Y-50931711D01*
X50003619Y-50936518D01*
X50003620Y-50936524D01*
X50033357Y-51060385D01*
X50057895Y-51162594D01*
X50059788Y-51167165D01*
X50059789Y-51167167D01*
X50139001Y-51358402D01*
X50148760Y-51381963D01*
X50151346Y-51386183D01*
X50270241Y-51580202D01*
X50270245Y-51580208D01*
X50272824Y-51584416D01*
X50427031Y-51764969D01*
X50607584Y-51919176D01*
X50611792Y-51921755D01*
X50611798Y-51921759D01*
X50761671Y-52013601D01*
X50810037Y-52043240D01*
X50814607Y-52045133D01*
X50814611Y-52045135D01*
X51024833Y-52132211D01*
X51029406Y-52134105D01*
X51069714Y-52143782D01*
X51255476Y-52188380D01*
X51255482Y-52188381D01*
X51260289Y-52189535D01*
X51497000Y-52208165D01*
X51733711Y-52189535D01*
X51738518Y-52188381D01*
X51738524Y-52188380D01*
X51924286Y-52143782D01*
X51964594Y-52134105D01*
X51969167Y-52132211D01*
X52179389Y-52045135D01*
X52179393Y-52045133D01*
X52183963Y-52043240D01*
X52232329Y-52013601D01*
X52382202Y-51921759D01*
X52382208Y-51921755D01*
X52386416Y-51919176D01*
X52566969Y-51764969D01*
X52721176Y-51584416D01*
X52723755Y-51580208D01*
X52723759Y-51580202D01*
X52842654Y-51386183D01*
X52845240Y-51381963D01*
X52855000Y-51358402D01*
X52934211Y-51167167D01*
X52934212Y-51167165D01*
X52936105Y-51162594D01*
X52960643Y-51060385D01*
X52990380Y-50936524D01*
X52990381Y-50936518D01*
X52991535Y-50931711D01*
X53010165Y-50695000D01*
X52991535Y-50458289D01*
X52983624Y-50425334D01*
X52945230Y-50265413D01*
X52936105Y-50227406D01*
X52907036Y-50157227D01*
X52847135Y-50012611D01*
X52847133Y-50012607D01*
X52845240Y-50008037D01*
X52831482Y-49985586D01*
X52723759Y-49809798D01*
X52723755Y-49809792D01*
X52721176Y-49805584D01*
X52566969Y-49625031D01*
X52386416Y-49470824D01*
X52382208Y-49468245D01*
X52382202Y-49468241D01*
X52188183Y-49349346D01*
X52183963Y-49346760D01*
X52179393Y-49344867D01*
X52179389Y-49344865D01*
X51969167Y-49257789D01*
X51969165Y-49257788D01*
X51964594Y-49255895D01*
X51883854Y-49236511D01*
X51738524Y-49201620D01*
X51738518Y-49201619D01*
X51733711Y-49200465D01*
X51497000Y-49181835D01*
X51260289Y-49200465D01*
X51255482Y-49201619D01*
X51255476Y-49201620D01*
X51110146Y-49236511D01*
X51029406Y-49255895D01*
X51024835Y-49257788D01*
X51024833Y-49257789D01*
X50814611Y-49344865D01*
X50814607Y-49344867D01*
X50810037Y-49346760D01*
X50805817Y-49349346D01*
X50611798Y-49468241D01*
X50611792Y-49468245D01*
X50607584Y-49470824D01*
X50427031Y-49625031D01*
X50272824Y-49805584D01*
X50270245Y-49809792D01*
X50270241Y-49809798D01*
X50162518Y-49985586D01*
X50148760Y-50008037D01*
X50146867Y-50012607D01*
X50146865Y-50012611D01*
X50086964Y-50157227D01*
X50057895Y-50227406D01*
X50048770Y-50265413D01*
X50010377Y-50425334D01*
X50002465Y-50458289D01*
X49983835Y-50695000D01*
X46510165Y-50695000D01*
X46491535Y-50458289D01*
X46483624Y-50425334D01*
X46445230Y-50265413D01*
X46436105Y-50227406D01*
X46407036Y-50157227D01*
X46347135Y-50012611D01*
X46347133Y-50012607D01*
X46345240Y-50008037D01*
X46331482Y-49985586D01*
X46223759Y-49809798D01*
X46223755Y-49809792D01*
X46221176Y-49805584D01*
X46066969Y-49625031D01*
X45886416Y-49470824D01*
X45882208Y-49468245D01*
X45882202Y-49468241D01*
X45688183Y-49349346D01*
X45683963Y-49346760D01*
X45679393Y-49344867D01*
X45679389Y-49344865D01*
X45469167Y-49257789D01*
X45469165Y-49257788D01*
X45464594Y-49255895D01*
X45383854Y-49236511D01*
X45238524Y-49201620D01*
X45238518Y-49201619D01*
X45233711Y-49200465D01*
X44997000Y-49181835D01*
X44760289Y-49200465D01*
X44755482Y-49201619D01*
X44755476Y-49201620D01*
X44610146Y-49236511D01*
X44529406Y-49255895D01*
X44524835Y-49257788D01*
X44524833Y-49257789D01*
X44314611Y-49344865D01*
X44314607Y-49344867D01*
X44310037Y-49346760D01*
X44305817Y-49349346D01*
X44111798Y-49468241D01*
X44111792Y-49468245D01*
X44107584Y-49470824D01*
X43927031Y-49625031D01*
X43923823Y-49628787D01*
X43923818Y-49628792D01*
X43877311Y-49683245D01*
X43817861Y-49722054D01*
X43746866Y-49722562D01*
X43686867Y-49684606D01*
X43656914Y-49620237D01*
X43655500Y-49601415D01*
X43655500Y-44779500D01*
X43675502Y-44711379D01*
X43729158Y-44664886D01*
X43781500Y-44653500D01*
X122512500Y-44653500D01*
X122580621Y-44673502D01*
G37*
G04 #@! TD.AperFunction*
G04 #@! TA.AperFunction,Conductor*
G36*
X69571217Y-89321554D02*
G01*
X69628053Y-89364101D01*
X69641377Y-89386356D01*
X69663477Y-89433749D01*
X69698973Y-89484442D01*
X69767803Y-89582741D01*
X69794802Y-89621300D01*
X69956700Y-89783198D01*
X69961208Y-89786355D01*
X69961211Y-89786357D01*
X70039389Y-89841098D01*
X70144251Y-89914523D01*
X70149233Y-89916846D01*
X70149238Y-89916849D01*
X70183457Y-89932805D01*
X70236742Y-89979722D01*
X70256203Y-90047999D01*
X70235661Y-90115959D01*
X70183457Y-90161195D01*
X70149238Y-90177151D01*
X70149233Y-90177154D01*
X70144251Y-90179477D01*
X70039389Y-90252902D01*
X69961211Y-90307643D01*
X69961208Y-90307645D01*
X69956700Y-90310802D01*
X69794802Y-90472700D01*
X69663477Y-90660251D01*
X69661154Y-90665233D01*
X69661151Y-90665238D01*
X69585669Y-90827112D01*
X69566716Y-90867757D01*
X69565294Y-90873065D01*
X69565293Y-90873067D01*
X69512257Y-91071000D01*
X69507457Y-91088913D01*
X69487502Y-91317000D01*
X69507457Y-91545087D01*
X69508881Y-91550400D01*
X69508881Y-91550402D01*
X69517609Y-91582973D01*
X69566716Y-91766243D01*
X69569039Y-91771224D01*
X69569039Y-91771225D01*
X69661151Y-91968762D01*
X69661154Y-91968767D01*
X69663477Y-91973749D01*
X69721878Y-92057154D01*
X69786107Y-92148882D01*
X69794802Y-92161300D01*
X69956700Y-92323198D01*
X69961208Y-92326355D01*
X69961211Y-92326357D01*
X69963389Y-92327882D01*
X70144251Y-92454523D01*
X70149233Y-92456846D01*
X70149238Y-92456849D01*
X70183457Y-92472805D01*
X70236742Y-92519722D01*
X70256203Y-92587999D01*
X70235661Y-92655959D01*
X70183457Y-92701195D01*
X70149238Y-92717151D01*
X70149233Y-92717154D01*
X70144251Y-92719477D01*
X70039389Y-92792902D01*
X69961211Y-92847643D01*
X69961208Y-92847645D01*
X69956700Y-92850802D01*
X69794802Y-93012700D01*
X69663477Y-93200251D01*
X69661154Y-93205233D01*
X69661151Y-93205238D01*
X69569039Y-93402775D01*
X69566716Y-93407757D01*
X69507457Y-93628913D01*
X69487502Y-93857000D01*
X69507457Y-94085087D01*
X69508881Y-94090400D01*
X69508881Y-94090402D01*
X69560710Y-94283827D01*
X69566716Y-94306243D01*
X69569039Y-94311224D01*
X69569039Y-94311225D01*
X69661151Y-94508762D01*
X69661154Y-94508767D01*
X69663477Y-94513749D01*
X69703114Y-94570356D01*
X69779899Y-94680016D01*
X69794802Y-94701300D01*
X69956700Y-94863198D01*
X69961208Y-94866355D01*
X69961211Y-94866357D01*
X70025102Y-94911094D01*
X70144251Y-94994523D01*
X70149233Y-94996846D01*
X70149238Y-94996849D01*
X70183457Y-95012805D01*
X70236742Y-95059722D01*
X70256203Y-95127999D01*
X70235661Y-95195959D01*
X70183457Y-95241195D01*
X70149238Y-95257151D01*
X70149233Y-95257154D01*
X70144251Y-95259477D01*
X70039389Y-95332902D01*
X69961211Y-95387643D01*
X69961208Y-95387645D01*
X69956700Y-95390802D01*
X69794802Y-95552700D01*
X69663477Y-95740251D01*
X69661154Y-95745233D01*
X69661151Y-95745238D01*
X69594388Y-95888414D01*
X69566716Y-95947757D01*
X69565294Y-95953065D01*
X69565293Y-95953067D01*
X69513107Y-96147826D01*
X69507457Y-96168913D01*
X69487502Y-96397000D01*
X69507457Y-96625087D01*
X69508881Y-96630400D01*
X69508881Y-96630402D01*
X69522359Y-96680700D01*
X69566716Y-96846243D01*
X69569039Y-96851224D01*
X69569039Y-96851225D01*
X69661151Y-97048762D01*
X69661154Y-97048767D01*
X69663477Y-97053749D01*
X69794802Y-97241300D01*
X69956700Y-97403198D01*
X69961208Y-97406355D01*
X69961211Y-97406357D01*
X70011032Y-97441242D01*
X70144251Y-97534523D01*
X70149233Y-97536846D01*
X70149238Y-97536849D01*
X70183457Y-97552805D01*
X70236742Y-97599722D01*
X70256203Y-97667999D01*
X70235661Y-97735959D01*
X70183457Y-97781195D01*
X70149238Y-97797151D01*
X70149233Y-97797154D01*
X70144251Y-97799477D01*
X70039389Y-97872902D01*
X69961211Y-97927643D01*
X69961208Y-97927645D01*
X69956700Y-97930802D01*
X69794802Y-98092700D01*
X69791645Y-98097208D01*
X69791643Y-98097211D01*
X69746398Y-98161828D01*
X69663477Y-98280251D01*
X69661154Y-98285233D01*
X69661151Y-98285238D01*
X69598022Y-98420620D01*
X69566716Y-98487757D01*
X69565294Y-98493065D01*
X69565293Y-98493067D01*
X69512257Y-98691000D01*
X69507457Y-98708913D01*
X69487502Y-98937000D01*
X69507457Y-99165087D01*
X69508881Y-99170400D01*
X69508881Y-99170402D01*
X69517609Y-99202973D01*
X69566716Y-99386243D01*
X69569039Y-99391224D01*
X69569039Y-99391225D01*
X69661151Y-99588762D01*
X69661154Y-99588767D01*
X69663477Y-99593749D01*
X69794802Y-99781300D01*
X69956700Y-99943198D01*
X69961208Y-99946355D01*
X69961211Y-99946357D01*
X70039389Y-100001098D01*
X70144251Y-100074523D01*
X70149233Y-100076846D01*
X70149238Y-100076849D01*
X70183457Y-100092805D01*
X70236742Y-100139722D01*
X70256203Y-100207999D01*
X70235661Y-100275959D01*
X70183457Y-100321195D01*
X70149238Y-100337151D01*
X70149233Y-100337154D01*
X70144251Y-100339477D01*
X70039389Y-100412902D01*
X69961211Y-100467643D01*
X69961208Y-100467645D01*
X69956700Y-100470802D01*
X69794802Y-100632700D01*
X69791645Y-100637208D01*
X69791643Y-100637211D01*
X69736902Y-100715389D01*
X69663477Y-100820251D01*
X69661154Y-100825233D01*
X69661151Y-100825238D01*
X69657421Y-100833238D01*
X69566716Y-101027757D01*
X69565294Y-101033065D01*
X69565293Y-101033067D01*
X69508881Y-101243598D01*
X69507457Y-101248913D01*
X69487502Y-101477000D01*
X69507457Y-101705087D01*
X69508881Y-101710400D01*
X69508881Y-101710402D01*
X69555102Y-101882898D01*
X69566716Y-101926243D01*
X69569039Y-101931224D01*
X69569039Y-101931225D01*
X69661151Y-102128762D01*
X69661154Y-102128767D01*
X69663477Y-102133749D01*
X69794802Y-102321300D01*
X69956700Y-102483198D01*
X69961208Y-102486355D01*
X69961211Y-102486357D01*
X70039389Y-102541098D01*
X70144251Y-102614523D01*
X70149233Y-102616846D01*
X70149238Y-102616849D01*
X70346775Y-102708961D01*
X70351757Y-102711284D01*
X70357065Y-102712706D01*
X70357067Y-102712707D01*
X70567598Y-102769119D01*
X70567600Y-102769119D01*
X70572913Y-102770543D01*
X70801000Y-102790498D01*
X71029087Y-102770543D01*
X71034400Y-102769119D01*
X71034402Y-102769119D01*
X71244933Y-102712707D01*
X71244935Y-102712706D01*
X71250243Y-102711284D01*
X71255225Y-102708961D01*
X71452762Y-102616849D01*
X71452767Y-102616846D01*
X71457749Y-102614523D01*
X71562611Y-102541098D01*
X71640789Y-102486357D01*
X71640792Y-102486355D01*
X71645300Y-102483198D01*
X71807198Y-102321300D01*
X71938523Y-102133749D01*
X71940846Y-102128767D01*
X71940849Y-102128762D01*
X72032961Y-101931225D01*
X72032961Y-101931224D01*
X72035284Y-101926243D01*
X72046899Y-101882898D01*
X72093119Y-101710402D01*
X72093119Y-101710400D01*
X72094543Y-101705087D01*
X72114498Y-101477000D01*
X72094543Y-101248913D01*
X72093119Y-101243598D01*
X72036707Y-101033067D01*
X72036706Y-101033065D01*
X72035284Y-101027757D01*
X71944579Y-100833238D01*
X71940849Y-100825238D01*
X71940846Y-100825233D01*
X71938523Y-100820251D01*
X71865098Y-100715389D01*
X71810357Y-100637211D01*
X71810355Y-100637208D01*
X71807198Y-100632700D01*
X71645300Y-100470802D01*
X71640792Y-100467645D01*
X71640789Y-100467643D01*
X71562611Y-100412902D01*
X71457749Y-100339477D01*
X71452767Y-100337154D01*
X71452762Y-100337151D01*
X71418543Y-100321195D01*
X71365258Y-100274278D01*
X71345797Y-100206001D01*
X71366339Y-100138041D01*
X71418543Y-100092805D01*
X71452762Y-100076849D01*
X71452767Y-100076846D01*
X71457749Y-100074523D01*
X71562611Y-100001098D01*
X71640789Y-99946357D01*
X71640792Y-99946355D01*
X71645300Y-99943198D01*
X71807198Y-99781300D01*
X71938523Y-99593749D01*
X71940846Y-99588767D01*
X71940849Y-99588762D01*
X72032961Y-99391225D01*
X72032961Y-99391224D01*
X72035284Y-99386243D01*
X72084392Y-99202973D01*
X72093119Y-99170402D01*
X72093119Y-99170400D01*
X72094543Y-99165087D01*
X72114498Y-98937000D01*
X72094543Y-98708913D01*
X72089743Y-98691000D01*
X72036707Y-98493067D01*
X72036706Y-98493065D01*
X72035284Y-98487757D01*
X72003978Y-98420620D01*
X71940849Y-98285238D01*
X71940846Y-98285233D01*
X71938523Y-98280251D01*
X71855602Y-98161828D01*
X71810357Y-98097211D01*
X71810355Y-98097208D01*
X71807198Y-98092700D01*
X71645300Y-97930802D01*
X71640792Y-97927645D01*
X71640789Y-97927643D01*
X71562611Y-97872902D01*
X71457749Y-97799477D01*
X71452767Y-97797154D01*
X71452762Y-97797151D01*
X71418543Y-97781195D01*
X71365258Y-97734278D01*
X71345797Y-97666001D01*
X71366339Y-97598041D01*
X71418543Y-97552805D01*
X71452762Y-97536849D01*
X71452767Y-97536846D01*
X71457749Y-97534523D01*
X71590968Y-97441242D01*
X71640789Y-97406357D01*
X71640792Y-97406355D01*
X71645300Y-97403198D01*
X71807198Y-97241300D01*
X71938523Y-97053749D01*
X71940846Y-97048767D01*
X71940849Y-97048762D01*
X72032961Y-96851225D01*
X72032961Y-96851224D01*
X72035284Y-96846243D01*
X72079642Y-96680700D01*
X72093119Y-96630402D01*
X72093119Y-96630400D01*
X72094543Y-96625087D01*
X72114498Y-96397000D01*
X72094543Y-96168913D01*
X72088893Y-96147826D01*
X72036707Y-95953067D01*
X72036706Y-95953065D01*
X72035284Y-95947757D01*
X72007612Y-95888414D01*
X71940849Y-95745238D01*
X71940846Y-95745233D01*
X71938523Y-95740251D01*
X71807198Y-95552700D01*
X71645300Y-95390802D01*
X71640792Y-95387645D01*
X71640789Y-95387643D01*
X71562611Y-95332902D01*
X71457749Y-95259477D01*
X71452767Y-95257154D01*
X71452762Y-95257151D01*
X71418543Y-95241195D01*
X71365258Y-95194278D01*
X71345797Y-95126001D01*
X71366339Y-95058041D01*
X71418543Y-95012805D01*
X71452762Y-94996849D01*
X71452767Y-94996846D01*
X71457749Y-94994523D01*
X71576898Y-94911094D01*
X71640789Y-94866357D01*
X71640792Y-94866355D01*
X71645300Y-94863198D01*
X71807198Y-94701300D01*
X71822102Y-94680016D01*
X71898886Y-94570356D01*
X71938523Y-94513749D01*
X71940846Y-94508767D01*
X71940849Y-94508762D01*
X72032961Y-94311225D01*
X72032961Y-94311224D01*
X72035284Y-94306243D01*
X72041291Y-94283827D01*
X72093119Y-94090402D01*
X72093119Y-94090400D01*
X72094543Y-94085087D01*
X72114498Y-93857000D01*
X72094543Y-93628913D01*
X72035284Y-93407757D01*
X72032961Y-93402775D01*
X71940849Y-93205238D01*
X71940846Y-93205233D01*
X71938523Y-93200251D01*
X71807198Y-93012700D01*
X71645300Y-92850802D01*
X71640792Y-92847645D01*
X71640789Y-92847643D01*
X71562611Y-92792902D01*
X71457749Y-92719477D01*
X71452767Y-92717154D01*
X71452762Y-92717151D01*
X71418543Y-92701195D01*
X71365258Y-92654278D01*
X71345797Y-92586001D01*
X71366339Y-92518041D01*
X71418543Y-92472805D01*
X71452762Y-92456849D01*
X71452767Y-92456846D01*
X71457749Y-92454523D01*
X71638611Y-92327882D01*
X71640789Y-92326357D01*
X71640792Y-92326355D01*
X71645300Y-92323198D01*
X71807198Y-92161300D01*
X71813068Y-92152917D01*
X71917181Y-92004229D01*
X71972638Y-91959901D01*
X72020394Y-91950500D01*
X72701906Y-91950500D01*
X72770027Y-91970502D01*
X72791001Y-91987405D01*
X74795113Y-93991517D01*
X74829139Y-94053829D01*
X74824074Y-94124644D01*
X74781527Y-94181480D01*
X74732217Y-94203858D01*
X74569212Y-94238506D01*
X74563182Y-94241191D01*
X74563181Y-94241191D01*
X74400778Y-94313497D01*
X74400776Y-94313498D01*
X74394748Y-94316182D01*
X74389407Y-94320062D01*
X74389406Y-94320063D01*
X74339343Y-94356436D01*
X74240247Y-94428434D01*
X74235826Y-94433344D01*
X74235825Y-94433345D01*
X74138618Y-94541305D01*
X74112460Y-94570356D01*
X74016973Y-94735744D01*
X73957958Y-94917372D01*
X73957268Y-94923933D01*
X73957268Y-94923935D01*
X73950181Y-94991366D01*
X73937996Y-95107300D01*
X73957958Y-95297228D01*
X74016973Y-95478856D01*
X74112460Y-95644244D01*
X74116878Y-95649151D01*
X74116879Y-95649152D01*
X74198905Y-95740251D01*
X74240247Y-95786166D01*
X74274848Y-95811305D01*
X74380979Y-95888414D01*
X74394748Y-95898418D01*
X74400776Y-95901102D01*
X74400778Y-95901103D01*
X74563181Y-95973409D01*
X74569212Y-95976094D01*
X74646650Y-95992554D01*
X74749556Y-96014428D01*
X74749561Y-96014428D01*
X74756013Y-96015800D01*
X74811906Y-96015800D01*
X74880027Y-96035802D01*
X74901001Y-96052705D01*
X77052243Y-98203947D01*
X77059787Y-98212237D01*
X77063900Y-98218718D01*
X77069677Y-98224143D01*
X77113567Y-98265358D01*
X77116409Y-98268113D01*
X77136130Y-98287834D01*
X77139325Y-98290312D01*
X77148347Y-98298018D01*
X77164619Y-98313298D01*
X77170075Y-98318422D01*
X77206041Y-98379635D01*
X77203202Y-98450575D01*
X77198019Y-98463517D01*
X77186716Y-98487757D01*
X77127457Y-98708913D01*
X77107502Y-98937000D01*
X77127457Y-99165087D01*
X77128881Y-99170400D01*
X77128881Y-99170402D01*
X77137609Y-99202973D01*
X77186716Y-99386243D01*
X77189039Y-99391224D01*
X77189039Y-99391225D01*
X77281151Y-99588762D01*
X77281154Y-99588767D01*
X77283477Y-99593749D01*
X77414802Y-99781300D01*
X77576700Y-99943198D01*
X77581208Y-99946355D01*
X77581211Y-99946357D01*
X77659389Y-100001098D01*
X77764251Y-100074523D01*
X77769233Y-100076846D01*
X77769238Y-100076849D01*
X77803457Y-100092805D01*
X77856742Y-100139722D01*
X77876203Y-100207999D01*
X77855661Y-100275959D01*
X77803457Y-100321195D01*
X77769238Y-100337151D01*
X77769233Y-100337154D01*
X77764251Y-100339477D01*
X77659389Y-100412902D01*
X77581211Y-100467643D01*
X77581208Y-100467645D01*
X77576700Y-100470802D01*
X77414802Y-100632700D01*
X77411645Y-100637208D01*
X77411643Y-100637211D01*
X77356902Y-100715389D01*
X77283477Y-100820251D01*
X77281154Y-100825233D01*
X77281151Y-100825238D01*
X77277421Y-100833238D01*
X77186716Y-101027757D01*
X77185294Y-101033065D01*
X77185293Y-101033067D01*
X77128881Y-101243598D01*
X77127457Y-101248913D01*
X77107502Y-101477000D01*
X77127457Y-101705087D01*
X77128881Y-101710400D01*
X77128881Y-101710402D01*
X77175102Y-101882898D01*
X77186716Y-101926243D01*
X77189039Y-101931224D01*
X77189039Y-101931225D01*
X77281151Y-102128762D01*
X77281154Y-102128767D01*
X77283477Y-102133749D01*
X77414802Y-102321300D01*
X77576700Y-102483198D01*
X77581208Y-102486355D01*
X77581211Y-102486357D01*
X77659389Y-102541098D01*
X77764251Y-102614523D01*
X77769233Y-102616846D01*
X77769238Y-102616849D01*
X77966775Y-102708961D01*
X77971757Y-102711284D01*
X77977065Y-102712706D01*
X77977067Y-102712707D01*
X78187598Y-102769119D01*
X78187600Y-102769119D01*
X78192913Y-102770543D01*
X78421000Y-102790498D01*
X78649087Y-102770543D01*
X78654400Y-102769119D01*
X78654402Y-102769119D01*
X78864933Y-102712707D01*
X78864935Y-102712706D01*
X78870243Y-102711284D01*
X78875225Y-102708961D01*
X79072762Y-102616849D01*
X79072767Y-102616846D01*
X79077749Y-102614523D01*
X79182611Y-102541098D01*
X79260789Y-102486357D01*
X79260792Y-102486355D01*
X79265300Y-102483198D01*
X79427198Y-102321300D01*
X79558523Y-102133749D01*
X79560846Y-102128767D01*
X79560849Y-102128762D01*
X79652961Y-101931225D01*
X79652961Y-101931224D01*
X79655284Y-101926243D01*
X79666899Y-101882898D01*
X79713119Y-101710402D01*
X79713119Y-101710400D01*
X79714543Y-101705087D01*
X79734498Y-101477000D01*
X79714543Y-101248913D01*
X79713119Y-101243598D01*
X79656707Y-101033067D01*
X79656706Y-101033065D01*
X79655284Y-101027757D01*
X79564579Y-100833238D01*
X79560849Y-100825238D01*
X79560846Y-100825233D01*
X79558523Y-100820251D01*
X79485098Y-100715389D01*
X79430357Y-100637211D01*
X79430355Y-100637208D01*
X79427198Y-100632700D01*
X79265300Y-100470802D01*
X79260792Y-100467645D01*
X79260789Y-100467643D01*
X79182611Y-100412902D01*
X79077749Y-100339477D01*
X79072767Y-100337154D01*
X79072762Y-100337151D01*
X79038543Y-100321195D01*
X78985258Y-100274278D01*
X78965797Y-100206001D01*
X78986339Y-100138041D01*
X79038543Y-100092805D01*
X79072762Y-100076849D01*
X79072767Y-100076846D01*
X79077749Y-100074523D01*
X79182611Y-100001098D01*
X79260789Y-99946357D01*
X79260792Y-99946355D01*
X79265300Y-99943198D01*
X79427198Y-99781300D01*
X79558523Y-99593749D01*
X79560846Y-99588767D01*
X79560849Y-99588762D01*
X79652961Y-99391225D01*
X79652961Y-99391224D01*
X79655284Y-99386243D01*
X79704392Y-99202973D01*
X79713119Y-99170402D01*
X79713119Y-99170400D01*
X79714543Y-99165087D01*
X79734498Y-98937000D01*
X79714543Y-98708913D01*
X79709743Y-98691000D01*
X79656707Y-98493067D01*
X79656706Y-98493065D01*
X79655284Y-98487757D01*
X79623978Y-98420620D01*
X79560849Y-98285238D01*
X79560846Y-98285233D01*
X79558523Y-98280251D01*
X79475602Y-98161828D01*
X79430357Y-98097211D01*
X79430355Y-98097208D01*
X79427198Y-98092700D01*
X79265300Y-97930802D01*
X79260792Y-97927645D01*
X79260789Y-97927643D01*
X79103607Y-97817583D01*
X79059279Y-97762126D01*
X79050127Y-97722282D01*
X79048723Y-97699963D01*
X79048723Y-97699962D01*
X79048225Y-97692050D01*
X79045679Y-97684213D01*
X79040506Y-97661069D01*
X79040468Y-97660770D01*
X79039474Y-97652903D01*
X79039474Y-97652900D01*
X79040634Y-97652753D01*
X79042804Y-97589440D01*
X79083211Y-97531063D01*
X79090142Y-97525845D01*
X79260789Y-97406357D01*
X79260792Y-97406355D01*
X79265300Y-97403198D01*
X79427198Y-97241300D01*
X79558523Y-97053749D01*
X79560846Y-97048767D01*
X79560849Y-97048762D01*
X79652961Y-96851225D01*
X79652961Y-96851224D01*
X79655284Y-96846243D01*
X79699642Y-96680700D01*
X79713119Y-96630402D01*
X79713119Y-96630400D01*
X79714543Y-96625087D01*
X79734498Y-96397000D01*
X79714543Y-96168913D01*
X79704356Y-96130893D01*
X79665625Y-95986351D01*
X79655284Y-95947757D01*
X79652957Y-95942768D01*
X79651078Y-95937604D01*
X79654190Y-95936471D01*
X79644203Y-95880975D01*
X79671402Y-95815395D01*
X79729738Y-95774930D01*
X79769475Y-95768500D01*
X81982255Y-95768500D01*
X82050376Y-95788502D01*
X82096869Y-95842158D01*
X82106973Y-95912432D01*
X82096448Y-95947753D01*
X82092716Y-95955757D01*
X82091294Y-95961065D01*
X82091293Y-95961067D01*
X82034881Y-96171598D01*
X82033457Y-96176913D01*
X82013502Y-96405000D01*
X82033457Y-96633087D01*
X82034881Y-96638400D01*
X82034881Y-96638402D01*
X82089150Y-96840933D01*
X82092716Y-96854243D01*
X82095039Y-96859224D01*
X82095039Y-96859225D01*
X82187151Y-97056762D01*
X82187154Y-97056767D01*
X82189477Y-97061749D01*
X82220292Y-97105757D01*
X82312042Y-97236789D01*
X82320802Y-97249300D01*
X82482700Y-97411198D01*
X82487208Y-97414355D01*
X82487211Y-97414357D01*
X82525607Y-97441242D01*
X82670251Y-97542523D01*
X82675233Y-97544846D01*
X82675238Y-97544849D01*
X82710049Y-97561081D01*
X82763334Y-97607998D01*
X82782795Y-97676275D01*
X82762253Y-97744235D01*
X82710049Y-97789471D01*
X82675489Y-97805586D01*
X82665993Y-97811069D01*
X82487533Y-97936028D01*
X82479125Y-97943084D01*
X82325084Y-98097125D01*
X82318028Y-98105533D01*
X82193069Y-98283993D01*
X82187586Y-98293489D01*
X82095510Y-98490947D01*
X82091764Y-98501239D01*
X82045606Y-98673503D01*
X82045942Y-98687599D01*
X82053884Y-98691000D01*
X84594967Y-98691000D01*
X84608498Y-98687027D01*
X84609727Y-98678478D01*
X84562236Y-98501239D01*
X84558490Y-98490947D01*
X84466414Y-98293489D01*
X84460931Y-98283993D01*
X84335972Y-98105533D01*
X84328916Y-98097125D01*
X84174875Y-97943084D01*
X84166467Y-97936028D01*
X83988007Y-97811069D01*
X83978511Y-97805586D01*
X83943951Y-97789471D01*
X83890666Y-97742554D01*
X83871205Y-97674277D01*
X83891747Y-97606317D01*
X83943951Y-97561081D01*
X83978762Y-97544849D01*
X83978767Y-97544846D01*
X83983749Y-97542523D01*
X84128393Y-97441242D01*
X84166789Y-97414357D01*
X84166792Y-97414355D01*
X84171300Y-97411198D01*
X84277852Y-97304646D01*
X84340164Y-97270620D01*
X84410979Y-97275685D01*
X84456042Y-97304646D01*
X85073943Y-97922547D01*
X85081487Y-97930837D01*
X85085600Y-97937318D01*
X85091377Y-97942743D01*
X85135267Y-97983958D01*
X85138109Y-97986713D01*
X85157831Y-98006435D01*
X85160955Y-98008858D01*
X85160959Y-98008862D01*
X85161024Y-98008912D01*
X85170045Y-98016617D01*
X85202279Y-98046886D01*
X85209227Y-98050705D01*
X85209229Y-98050707D01*
X85220032Y-98056646D01*
X85236559Y-98067502D01*
X85246298Y-98075057D01*
X85246300Y-98075058D01*
X85252560Y-98079914D01*
X85293140Y-98097474D01*
X85303788Y-98102691D01*
X85328414Y-98116229D01*
X85342540Y-98123995D01*
X85350216Y-98125966D01*
X85350219Y-98125967D01*
X85362162Y-98129033D01*
X85380867Y-98135437D01*
X85399455Y-98143481D01*
X85407278Y-98144720D01*
X85407288Y-98144723D01*
X85443124Y-98150399D01*
X85454744Y-98152805D01*
X85489889Y-98161828D01*
X85497570Y-98163800D01*
X85517824Y-98163800D01*
X85537534Y-98165351D01*
X85557543Y-98168520D01*
X85565435Y-98167774D01*
X85591067Y-98165351D01*
X85601562Y-98164359D01*
X85613419Y-98163800D01*
X89669729Y-98163800D01*
X89737850Y-98183802D01*
X89784343Y-98237458D01*
X89794447Y-98307732D01*
X89783924Y-98343050D01*
X89718770Y-98482775D01*
X89712716Y-98495757D01*
X89711294Y-98501065D01*
X89711293Y-98501067D01*
X89654881Y-98711598D01*
X89653457Y-98716913D01*
X89633502Y-98945000D01*
X89653457Y-99173087D01*
X89654881Y-99178400D01*
X89654881Y-99178402D01*
X89709150Y-99380933D01*
X89712716Y-99394243D01*
X89715039Y-99399224D01*
X89715039Y-99399225D01*
X89807151Y-99596762D01*
X89807154Y-99596767D01*
X89809477Y-99601749D01*
X89812633Y-99606257D01*
X89812637Y-99606263D01*
X89925459Y-99767390D01*
X89948147Y-99834664D01*
X89930862Y-99903524D01*
X89911341Y-99928755D01*
X87523306Y-102316789D01*
X85150747Y-104689348D01*
X85142461Y-104696888D01*
X85135982Y-104701000D01*
X85130557Y-104706777D01*
X85089357Y-104750651D01*
X85086602Y-104753493D01*
X85066865Y-104773230D01*
X85064385Y-104776427D01*
X85056682Y-104785447D01*
X85026414Y-104817679D01*
X85022595Y-104824625D01*
X85022593Y-104824628D01*
X85016652Y-104835434D01*
X85005801Y-104851953D01*
X84993386Y-104867959D01*
X84990241Y-104875228D01*
X84990238Y-104875232D01*
X84975826Y-104908537D01*
X84970609Y-104919187D01*
X84949305Y-104957940D01*
X84947334Y-104965615D01*
X84947334Y-104965616D01*
X84944267Y-104977562D01*
X84937863Y-104996266D01*
X84935332Y-105002116D01*
X84929819Y-105014855D01*
X84928580Y-105022678D01*
X84928577Y-105022688D01*
X84922901Y-105058524D01*
X84920495Y-105070144D01*
X84913209Y-105098524D01*
X84909500Y-105112970D01*
X84909500Y-105133224D01*
X84907949Y-105152934D01*
X84904780Y-105172943D01*
X84905526Y-105180835D01*
X84908941Y-105216961D01*
X84909500Y-105228819D01*
X84909500Y-109583606D01*
X84889498Y-109651727D01*
X84855771Y-109686819D01*
X84703211Y-109793643D01*
X84703208Y-109793645D01*
X84698700Y-109796802D01*
X84536802Y-109958700D01*
X84533645Y-109963208D01*
X84533643Y-109963211D01*
X84478902Y-110041389D01*
X84405477Y-110146251D01*
X84403154Y-110151233D01*
X84403151Y-110151238D01*
X84378195Y-110204757D01*
X84308716Y-110353757D01*
X84307294Y-110359065D01*
X84307293Y-110359067D01*
X84250881Y-110569598D01*
X84249457Y-110574913D01*
X84229502Y-110803000D01*
X84249457Y-111031087D01*
X84250881Y-111036400D01*
X84250881Y-111036402D01*
X84288900Y-111178289D01*
X84287210Y-111249265D01*
X84247416Y-111308061D01*
X84182152Y-111336009D01*
X84167193Y-111336900D01*
X79831500Y-111336900D01*
X79763379Y-111316898D01*
X79716886Y-111263242D01*
X79705500Y-111210900D01*
X79705500Y-109996866D01*
X79698745Y-109934684D01*
X79647615Y-109798295D01*
X79560261Y-109681739D01*
X79443705Y-109594385D01*
X79307316Y-109543255D01*
X79245134Y-109536500D01*
X77548866Y-109536500D01*
X77486684Y-109543255D01*
X77470738Y-109549233D01*
X77358699Y-109591234D01*
X77358696Y-109591236D01*
X77350295Y-109594385D01*
X77343113Y-109599768D01*
X77335900Y-109603717D01*
X77266543Y-109618886D01*
X77199995Y-109594150D01*
X77186296Y-109582292D01*
X72668852Y-105064847D01*
X72661312Y-105056561D01*
X72657200Y-105050082D01*
X72607548Y-105003456D01*
X72604707Y-105000702D01*
X72584970Y-104980965D01*
X72581773Y-104978485D01*
X72572751Y-104970780D01*
X72567252Y-104965616D01*
X72540521Y-104940514D01*
X72533575Y-104936695D01*
X72533572Y-104936693D01*
X72522766Y-104930752D01*
X72506247Y-104919901D01*
X72498625Y-104913989D01*
X72490241Y-104907486D01*
X72482972Y-104904341D01*
X72482968Y-104904338D01*
X72449663Y-104889926D01*
X72439013Y-104884709D01*
X72400260Y-104863405D01*
X72380637Y-104858367D01*
X72361934Y-104851963D01*
X72350620Y-104847067D01*
X72350619Y-104847067D01*
X72343345Y-104843919D01*
X72335522Y-104842680D01*
X72335512Y-104842677D01*
X72299676Y-104837001D01*
X72288056Y-104834595D01*
X72252911Y-104825572D01*
X72252910Y-104825572D01*
X72245230Y-104823600D01*
X72224976Y-104823600D01*
X72205265Y-104822049D01*
X72193086Y-104820120D01*
X72185257Y-104818880D01*
X72161561Y-104821120D01*
X72141239Y-104823041D01*
X72129381Y-104823600D01*
X69538994Y-104823600D01*
X69470873Y-104803598D01*
X69449899Y-104786695D01*
X68688204Y-104025000D01*
X82013502Y-104025000D01*
X82033457Y-104253087D01*
X82034881Y-104258400D01*
X82034881Y-104258402D01*
X82089535Y-104462370D01*
X82092716Y-104474243D01*
X82095039Y-104479224D01*
X82095039Y-104479225D01*
X82187151Y-104676762D01*
X82187154Y-104676767D01*
X82189477Y-104681749D01*
X82253403Y-104773044D01*
X82317531Y-104864628D01*
X82320802Y-104869300D01*
X82482700Y-105031198D01*
X82487208Y-105034355D01*
X82487211Y-105034357D01*
X82538320Y-105070144D01*
X82670251Y-105162523D01*
X82675233Y-105164846D01*
X82675238Y-105164849D01*
X82795302Y-105220835D01*
X82877757Y-105259284D01*
X82883065Y-105260706D01*
X82883067Y-105260707D01*
X83093598Y-105317119D01*
X83093600Y-105317119D01*
X83098913Y-105318543D01*
X83327000Y-105338498D01*
X83555087Y-105318543D01*
X83560400Y-105317119D01*
X83560402Y-105317119D01*
X83770933Y-105260707D01*
X83770935Y-105260706D01*
X83776243Y-105259284D01*
X83858698Y-105220835D01*
X83978762Y-105164849D01*
X83978767Y-105164846D01*
X83983749Y-105162523D01*
X84115680Y-105070144D01*
X84166789Y-105034357D01*
X84166792Y-105034355D01*
X84171300Y-105031198D01*
X84333198Y-104869300D01*
X84336470Y-104864628D01*
X84400597Y-104773044D01*
X84464523Y-104681749D01*
X84466846Y-104676767D01*
X84466849Y-104676762D01*
X84558961Y-104479225D01*
X84558961Y-104479224D01*
X84561284Y-104474243D01*
X84564466Y-104462370D01*
X84619119Y-104258402D01*
X84619119Y-104258400D01*
X84620543Y-104253087D01*
X84640498Y-104025000D01*
X84620543Y-103796913D01*
X84606101Y-103743015D01*
X84562707Y-103581067D01*
X84562706Y-103581065D01*
X84561284Y-103575757D01*
X84519129Y-103485355D01*
X84466849Y-103373238D01*
X84466846Y-103373233D01*
X84464523Y-103368251D01*
X84333198Y-103180700D01*
X84171300Y-103018802D01*
X84166792Y-103015645D01*
X84166789Y-103015643D01*
X84088611Y-102960902D01*
X83983749Y-102887477D01*
X83978767Y-102885154D01*
X83978762Y-102885151D01*
X83944543Y-102869195D01*
X83891258Y-102822278D01*
X83871797Y-102754001D01*
X83892339Y-102686041D01*
X83944543Y-102640805D01*
X83978762Y-102624849D01*
X83978767Y-102624846D01*
X83983749Y-102622523D01*
X84088611Y-102549098D01*
X84166789Y-102494357D01*
X84166792Y-102494355D01*
X84171300Y-102491198D01*
X84333198Y-102329300D01*
X84341959Y-102316789D01*
X84461366Y-102146257D01*
X84464523Y-102141749D01*
X84466846Y-102136767D01*
X84466849Y-102136762D01*
X84558961Y-101939225D01*
X84558961Y-101939224D01*
X84561284Y-101934243D01*
X84564466Y-101922370D01*
X84619119Y-101718402D01*
X84619119Y-101718400D01*
X84620543Y-101713087D01*
X84640498Y-101485000D01*
X84620543Y-101256913D01*
X84619119Y-101251598D01*
X84562707Y-101041067D01*
X84562706Y-101041065D01*
X84561284Y-101035757D01*
X84557554Y-101027757D01*
X84466849Y-100833238D01*
X84466846Y-100833233D01*
X84464523Y-100828251D01*
X84333198Y-100640700D01*
X84171300Y-100478802D01*
X84166792Y-100475645D01*
X84166789Y-100475643D01*
X84083589Y-100417386D01*
X83983749Y-100347477D01*
X83978767Y-100345154D01*
X83978762Y-100345151D01*
X83943951Y-100328919D01*
X83890666Y-100282002D01*
X83871205Y-100213725D01*
X83891747Y-100145765D01*
X83943951Y-100100529D01*
X83978511Y-100084414D01*
X83988007Y-100078931D01*
X84166467Y-99953972D01*
X84174875Y-99946916D01*
X84328916Y-99792875D01*
X84335972Y-99784467D01*
X84460931Y-99606007D01*
X84466414Y-99596511D01*
X84558490Y-99399053D01*
X84562236Y-99388761D01*
X84608394Y-99216497D01*
X84608058Y-99202401D01*
X84600116Y-99199000D01*
X82059033Y-99199000D01*
X82045502Y-99202973D01*
X82044273Y-99211522D01*
X82091764Y-99388761D01*
X82095510Y-99399053D01*
X82187586Y-99596511D01*
X82193069Y-99606007D01*
X82318028Y-99784467D01*
X82325084Y-99792875D01*
X82479125Y-99946916D01*
X82487533Y-99953972D01*
X82665993Y-100078931D01*
X82675489Y-100084414D01*
X82710049Y-100100529D01*
X82763334Y-100147446D01*
X82782795Y-100215723D01*
X82762253Y-100283683D01*
X82710049Y-100328919D01*
X82675238Y-100345151D01*
X82675233Y-100345154D01*
X82670251Y-100347477D01*
X82570411Y-100417386D01*
X82487211Y-100475643D01*
X82487208Y-100475645D01*
X82482700Y-100478802D01*
X82320802Y-100640700D01*
X82189477Y-100828251D01*
X82187154Y-100833233D01*
X82187151Y-100833238D01*
X82096446Y-101027757D01*
X82092716Y-101035757D01*
X82091294Y-101041065D01*
X82091293Y-101041067D01*
X82034881Y-101251598D01*
X82033457Y-101256913D01*
X82013502Y-101485000D01*
X82033457Y-101713087D01*
X82034881Y-101718400D01*
X82034881Y-101718402D01*
X82089535Y-101922370D01*
X82092716Y-101934243D01*
X82095039Y-101939224D01*
X82095039Y-101939225D01*
X82187151Y-102136762D01*
X82187154Y-102136767D01*
X82189477Y-102141749D01*
X82192634Y-102146257D01*
X82312042Y-102316789D01*
X82320802Y-102329300D01*
X82482700Y-102491198D01*
X82487208Y-102494355D01*
X82487211Y-102494357D01*
X82565389Y-102549098D01*
X82670251Y-102622523D01*
X82675233Y-102624846D01*
X82675238Y-102624849D01*
X82709457Y-102640805D01*
X82762742Y-102687722D01*
X82782203Y-102755999D01*
X82761661Y-102823959D01*
X82709457Y-102869195D01*
X82675238Y-102885151D01*
X82675233Y-102885154D01*
X82670251Y-102887477D01*
X82565389Y-102960902D01*
X82487211Y-103015643D01*
X82487208Y-103015645D01*
X82482700Y-103018802D01*
X82320802Y-103180700D01*
X82189477Y-103368251D01*
X82187154Y-103373233D01*
X82187151Y-103373238D01*
X82134871Y-103485355D01*
X82092716Y-103575757D01*
X82091294Y-103581065D01*
X82091293Y-103581067D01*
X82047899Y-103743015D01*
X82033457Y-103796913D01*
X82013502Y-104025000D01*
X68688204Y-104025000D01*
X63700583Y-99037379D01*
X63666557Y-98975067D01*
X63671622Y-98904252D01*
X63714169Y-98847416D01*
X63757066Y-98826578D01*
X63890925Y-98790710D01*
X63890936Y-98790706D01*
X63896243Y-98789284D01*
X63910337Y-98782712D01*
X64098762Y-98694849D01*
X64098767Y-98694846D01*
X64103749Y-98692523D01*
X64247356Y-98591968D01*
X64286789Y-98564357D01*
X64286792Y-98564355D01*
X64291300Y-98561198D01*
X64453198Y-98399300D01*
X64474205Y-98369300D01*
X64529552Y-98290256D01*
X64584523Y-98211749D01*
X64586846Y-98206767D01*
X64586849Y-98206762D01*
X64678961Y-98009225D01*
X64678961Y-98009224D01*
X64681284Y-98004243D01*
X64686720Y-97983958D01*
X64739119Y-97788402D01*
X64739119Y-97788400D01*
X64740543Y-97783087D01*
X64760498Y-97555000D01*
X64740543Y-97326913D01*
X64733973Y-97302393D01*
X64682707Y-97111067D01*
X64682706Y-97111064D01*
X64681284Y-97105757D01*
X64659135Y-97058257D01*
X64586849Y-96903238D01*
X64586846Y-96903233D01*
X64584523Y-96898251D01*
X64453198Y-96710700D01*
X64291300Y-96548802D01*
X64286792Y-96545645D01*
X64286789Y-96545643D01*
X64184680Y-96474146D01*
X64103749Y-96417477D01*
X64098767Y-96415154D01*
X64098762Y-96415151D01*
X63901225Y-96323039D01*
X63901224Y-96323039D01*
X63896243Y-96320716D01*
X63890935Y-96319294D01*
X63890933Y-96319293D01*
X63680402Y-96262881D01*
X63680400Y-96262881D01*
X63675087Y-96261457D01*
X63447000Y-96241502D01*
X63218913Y-96261457D01*
X63213600Y-96262881D01*
X63213598Y-96262881D01*
X63003067Y-96319293D01*
X63003065Y-96319294D01*
X62997757Y-96320716D01*
X62992776Y-96323039D01*
X62992775Y-96323039D01*
X62795238Y-96415151D01*
X62795233Y-96415154D01*
X62790251Y-96417477D01*
X62709320Y-96474146D01*
X62607211Y-96545643D01*
X62607208Y-96545645D01*
X62602700Y-96548802D01*
X62440802Y-96710700D01*
X62309477Y-96898251D01*
X62307154Y-96903233D01*
X62307151Y-96903238D01*
X62234865Y-97058257D01*
X62212716Y-97105757D01*
X62211294Y-97111064D01*
X62203507Y-97140126D01*
X62166555Y-97200748D01*
X62102694Y-97231770D01*
X62032200Y-97223341D01*
X61977453Y-97178138D01*
X61955800Y-97107514D01*
X61955800Y-96884994D01*
X61975802Y-96816873D01*
X61992705Y-96795899D01*
X69438090Y-89350515D01*
X69500402Y-89316489D01*
X69571217Y-89321554D01*
G37*
G04 #@! TD.AperFunction*
M02*
