G04 #@! TF.GenerationSoftware,KiCad,Pcbnew,7.0.10*
G04 #@! TF.CreationDate,2024-01-02T22:15:01+01:00*
G04 #@! TF.ProjectId,p2000t-multicartridge-zif,70323030-3074-42d6-9d75-6c7469636172,rev?*
G04 #@! TF.SameCoordinates,Original*
G04 #@! TF.FileFunction,Copper,L1,Top*
G04 #@! TF.FilePolarity,Positive*
%FSLAX46Y46*%
G04 Gerber Fmt 4.6, Leading zero omitted, Abs format (unit mm)*
G04 Created by KiCad (PCBNEW 7.0.10) date 2024-01-02 22:15:01*
%MOMM*%
%LPD*%
G01*
G04 APERTURE LIST*
G04 #@! TA.AperFunction,ComponentPad*
%ADD10C,2.000000*%
G04 #@! TD*
G04 #@! TA.AperFunction,ComponentPad*
%ADD11R,1.600000X1.600000*%
G04 #@! TD*
G04 #@! TA.AperFunction,ComponentPad*
%ADD12O,1.600000X1.600000*%
G04 #@! TD*
G04 #@! TA.AperFunction,ComponentPad*
%ADD13C,1.600000*%
G04 #@! TD*
G04 #@! TA.AperFunction,SMDPad,CuDef*
%ADD14R,2.000000X10.000000*%
G04 #@! TD*
G04 #@! TA.AperFunction,ComponentPad*
%ADD15R,1.440000X2.000000*%
G04 #@! TD*
G04 #@! TA.AperFunction,ComponentPad*
%ADD16O,1.440000X2.000000*%
G04 #@! TD*
G04 #@! TA.AperFunction,ViaPad*
%ADD17C,0.800000*%
G04 #@! TD*
G04 #@! TA.AperFunction,Conductor*
%ADD18C,0.250000*%
G04 #@! TD*
G04 APERTURE END LIST*
D10*
X44997000Y-50695000D03*
X51497000Y-50695000D03*
X44997000Y-55195000D03*
X51497000Y-55195000D03*
D11*
X108077000Y-55245000D03*
D12*
X110617000Y-55245000D03*
X113157000Y-55245000D03*
X115697000Y-55245000D03*
X118237000Y-55245000D03*
X118237000Y-47625000D03*
X115697000Y-47625000D03*
X113157000Y-47625000D03*
X110617000Y-47625000D03*
X108077000Y-47625000D03*
D11*
X78421000Y-86237000D03*
D12*
X78421000Y-88777000D03*
X78421000Y-91317000D03*
X78421000Y-93857000D03*
X78421000Y-96397000D03*
X78421000Y-98937000D03*
X78421000Y-101477000D03*
X70801000Y-101477000D03*
X70801000Y-98937000D03*
X70801000Y-96397000D03*
X70801000Y-93857000D03*
X70801000Y-91317000D03*
X70801000Y-88777000D03*
X70801000Y-86237000D03*
D13*
X72071000Y-80903000D03*
X77071000Y-80903000D03*
X50947000Y-62045000D03*
X45947000Y-62045000D03*
D11*
X90947000Y-86245000D03*
D12*
X90947000Y-88785000D03*
X90947000Y-91325000D03*
X90947000Y-93865000D03*
X90947000Y-96405000D03*
X90947000Y-98945000D03*
X90947000Y-101485000D03*
X90947000Y-104025000D03*
X83327000Y-104025000D03*
X83327000Y-101485000D03*
X83327000Y-98945000D03*
X83327000Y-96405000D03*
X83327000Y-93865000D03*
X83327000Y-91325000D03*
X83327000Y-88785000D03*
X83327000Y-86245000D03*
D11*
X78397000Y-110845000D03*
D13*
X75897000Y-110845000D03*
X89597000Y-80945000D03*
X84597000Y-80945000D03*
X63447000Y-89935000D03*
D12*
X63447000Y-97555000D03*
D13*
X60197000Y-89935000D03*
D12*
X60197000Y-97555000D03*
D13*
X56897000Y-97525000D03*
D12*
X56897000Y-89905000D03*
D14*
X55465000Y-139192000D03*
X59425000Y-139192000D03*
X63385000Y-139192000D03*
X67345000Y-139192000D03*
X71305000Y-139192000D03*
X75265000Y-139192000D03*
X79225000Y-139192000D03*
X83185000Y-139192000D03*
X87145000Y-139192000D03*
X91105000Y-139192000D03*
X95065000Y-139192000D03*
X99025000Y-139192000D03*
X110905000Y-139192000D03*
D11*
X88043000Y-110803000D03*
D13*
X85543000Y-110803000D03*
D11*
X70872000Y-74845000D03*
D12*
X73412000Y-74845000D03*
X75952000Y-74845000D03*
X78492000Y-74845000D03*
X81032000Y-74845000D03*
X83572000Y-74845000D03*
X86112000Y-74845000D03*
X88652000Y-74845000D03*
X91192000Y-74845000D03*
D15*
X64207000Y-50152500D03*
D16*
X66747000Y-50152500D03*
X69287000Y-50152500D03*
X71827000Y-50152500D03*
X74367000Y-50152500D03*
X76907000Y-50152500D03*
X79447000Y-50152500D03*
X81987000Y-50152500D03*
X84527000Y-50152500D03*
X87067000Y-50152500D03*
X89607000Y-50152500D03*
X92147000Y-50152500D03*
X94687000Y-50152500D03*
X97227000Y-50152500D03*
X99767000Y-50152500D03*
X102307000Y-50152500D03*
X102307000Y-65392500D03*
X99767000Y-65392500D03*
X97227000Y-65392500D03*
X94687000Y-65392500D03*
X92147000Y-65392500D03*
X89607000Y-65392500D03*
X87067000Y-65392500D03*
X84527000Y-65392500D03*
X81987000Y-65392500D03*
X79447000Y-65392500D03*
X76907000Y-65392500D03*
X74367000Y-65392500D03*
X71827000Y-65392500D03*
X69287000Y-65392500D03*
X66747000Y-65392500D03*
X64207000Y-65392500D03*
D17*
X73173600Y-64290300D03*
X108750200Y-63771800D03*
X98994900Y-127099100D03*
X98357900Y-90661700D03*
X97617000Y-101482600D03*
X99781000Y-101106200D03*
X100784500Y-101813900D03*
X99107100Y-104411800D03*
X95452900Y-109944000D03*
X97148900Y-111982800D03*
X94804900Y-118551000D03*
X94344700Y-121316100D03*
X93297100Y-123584400D03*
X89392400Y-71474600D03*
X92862600Y-127089200D03*
X94100700Y-127117400D03*
X83871200Y-111948800D03*
X83559200Y-69504400D03*
X96157600Y-108320700D03*
X76081100Y-127082400D03*
X84174500Y-71982900D03*
X96998600Y-76909700D03*
X84930700Y-83921900D03*
X101514500Y-70437900D03*
X82926900Y-83971200D03*
X112040000Y-127126500D03*
X83281300Y-70504800D03*
D18*
X83112000Y-100359700D02*
X83327000Y-100359700D01*
X82157400Y-99405100D02*
X83112000Y-100359700D01*
X82157400Y-95885300D02*
X82157400Y-99405100D01*
X83052400Y-94990300D02*
X82157400Y-95885300D01*
X83327000Y-94990300D02*
X83052400Y-94990300D01*
X83327000Y-93865000D02*
X83327000Y-94990300D01*
X83327000Y-101485000D02*
X83327000Y-100359700D01*
X63447000Y-97555000D02*
X63447000Y-96429700D01*
X62321700Y-66019700D02*
X51497000Y-55195000D01*
X62321700Y-95304400D02*
X62321700Y-66019700D01*
X63447000Y-96429700D02*
X62321700Y-95304400D01*
X51497000Y-55195000D02*
X44997000Y-55195000D01*
X90665700Y-100070300D02*
X90947000Y-100070300D01*
X87481700Y-103254300D02*
X90665700Y-100070300D01*
X87481700Y-108864300D02*
X87481700Y-103254300D01*
X85543000Y-110803000D02*
X87481700Y-108864300D01*
X90947000Y-98945000D02*
X90947000Y-100070300D01*
X90947000Y-101485000D02*
X90947000Y-102610300D01*
X88043000Y-105233000D02*
X88043000Y-109677700D01*
X90665700Y-102610300D02*
X88043000Y-105233000D01*
X90947000Y-102610300D02*
X90665700Y-102610300D01*
X88043000Y-110803000D02*
X88043000Y-109677700D01*
X83045700Y-92450300D02*
X83327000Y-92450300D01*
X81548100Y-93947900D02*
X83045700Y-92450300D01*
X81548100Y-109755400D02*
X81548100Y-93947900D01*
X79333100Y-111970400D02*
X81548100Y-109755400D01*
X77022400Y-111970400D02*
X79333100Y-111970400D01*
X75897000Y-110845000D02*
X77022400Y-111970400D01*
X83327000Y-91325000D02*
X83327000Y-92450300D01*
X78397000Y-110845000D02*
X78397000Y-109719700D01*
X83327000Y-88785000D02*
X83327000Y-89910300D01*
X81097700Y-107019000D02*
X78397000Y-109719700D01*
X81097700Y-91858300D02*
X81097700Y-107019000D01*
X83045700Y-89910300D02*
X81097700Y-91858300D01*
X83327000Y-89910300D02*
X83045700Y-89910300D01*
X70801000Y-93857000D02*
X70801000Y-96397000D01*
X70801000Y-96397000D02*
X70801000Y-98937000D01*
X70519600Y-100351700D02*
X70801000Y-100351700D01*
X69675700Y-99507800D02*
X70519600Y-100351700D01*
X69675700Y-85564200D02*
X69675700Y-99507800D01*
X73205300Y-82034600D02*
X69675700Y-85564200D01*
X73205300Y-77149600D02*
X73205300Y-82034600D01*
X72277600Y-76221900D02*
X73205300Y-77149600D01*
X72277600Y-70448200D02*
X72277600Y-76221900D01*
X73173600Y-69552200D02*
X72277600Y-70448200D01*
X73173600Y-64290300D02*
X73173600Y-69552200D01*
X70801000Y-101477000D02*
X70801000Y-100351700D01*
X78702400Y-97811700D02*
X78421000Y-97811700D01*
X79546300Y-96967800D02*
X78702400Y-97811700D01*
X79546300Y-93348600D02*
X79546300Y-96967800D01*
X78784700Y-92587000D02*
X79546300Y-93348600D01*
X78022900Y-92587000D02*
X78784700Y-92587000D01*
X74682000Y-89246100D02*
X78022900Y-92587000D01*
X74682000Y-67032800D02*
X74682000Y-89246100D01*
X74367000Y-66717800D02*
X74682000Y-67032800D01*
X74367000Y-65392500D02*
X74367000Y-66717800D01*
X78421000Y-98937000D02*
X78421000Y-97811700D01*
X101855500Y-47898200D02*
X108077000Y-54119700D01*
X67212600Y-47898200D02*
X101855500Y-47898200D01*
X65252300Y-49858500D02*
X67212600Y-47898200D01*
X65252300Y-50152500D02*
X65252300Y-49858500D01*
X64207000Y-50152500D02*
X65252300Y-50152500D01*
X108077000Y-55245000D02*
X108077000Y-54119700D01*
X110617000Y-61905000D02*
X110617000Y-55245000D01*
X108750200Y-63771800D02*
X110617000Y-61905000D01*
X78421000Y-88777000D02*
X78421000Y-86237000D01*
X98357900Y-126462100D02*
X98357900Y-90661700D01*
X98994900Y-127099100D02*
X98357900Y-126462100D01*
X72215700Y-88777000D02*
X77295700Y-93857000D01*
X70801000Y-88777000D02*
X72215700Y-88777000D01*
X78421000Y-93857000D02*
X77295700Y-93857000D01*
X78421000Y-96397000D02*
X78421000Y-93857000D01*
X99025000Y-139192000D02*
X99025000Y-133866700D01*
X97874300Y-101739900D02*
X97617000Y-101482600D01*
X97874300Y-132716000D02*
X97874300Y-101739900D01*
X99025000Y-133866700D02*
X97874300Y-132716000D01*
X100789100Y-100098100D02*
X99781000Y-101106200D01*
X100789100Y-66717900D02*
X100789100Y-100098100D01*
X100857800Y-66649200D02*
X100789100Y-66717900D01*
X100857800Y-62966100D02*
X100857800Y-66649200D01*
X99172200Y-61280500D02*
X100857800Y-62966100D01*
X99172200Y-54637700D02*
X99172200Y-61280500D01*
X94687000Y-50152500D02*
X99172200Y-54637700D01*
X103368300Y-99230100D02*
X100784500Y-101813900D01*
X103368300Y-60277800D02*
X103368300Y-99230100D01*
X99767000Y-56676500D02*
X103368300Y-60277800D01*
X99767000Y-50152500D02*
X99767000Y-56676500D01*
X99767000Y-65392500D02*
X99767000Y-66717800D01*
X99032400Y-104337100D02*
X99107100Y-104411800D01*
X99032400Y-100660100D02*
X99032400Y-104337100D01*
X99767000Y-99925500D02*
X99032400Y-100660100D01*
X99767000Y-66717800D02*
X99767000Y-99925500D01*
X94687000Y-65392500D02*
X94687000Y-66717800D01*
X95432300Y-109923400D02*
X95452900Y-109944000D01*
X95432300Y-67463100D02*
X95432300Y-109923400D01*
X94687000Y-66717800D02*
X95432300Y-67463100D01*
X92147000Y-50152500D02*
X93192300Y-50152500D01*
X97148900Y-106636400D02*
X97148900Y-111982800D01*
X96878200Y-106365700D02*
X97148900Y-106636400D01*
X96878200Y-90960300D02*
X96878200Y-106365700D01*
X98289400Y-89549100D02*
X96878200Y-90960300D01*
X98289400Y-56294900D02*
X98289400Y-89549100D01*
X93192300Y-51197800D02*
X98289400Y-56294900D01*
X93192300Y-50152500D02*
X93192300Y-51197800D01*
X87067000Y-50152500D02*
X88112300Y-50152500D01*
X94727600Y-118473700D02*
X94804900Y-118551000D01*
X94727600Y-106389500D02*
X94727600Y-118473700D01*
X94892300Y-106224800D02*
X94727600Y-106389500D01*
X94892300Y-71326800D02*
X94892300Y-106224800D01*
X93474300Y-69908800D02*
X94892300Y-71326800D01*
X93474300Y-57833400D02*
X93474300Y-69908800D01*
X88112300Y-52471400D02*
X93474300Y-57833400D01*
X88112300Y-50152500D02*
X88112300Y-52471400D01*
X81987000Y-50152500D02*
X83032300Y-50152500D01*
X94052100Y-121023500D02*
X94344700Y-121316100D01*
X94052100Y-106125200D02*
X94052100Y-121023500D01*
X94441900Y-105735400D02*
X94052100Y-106125200D01*
X94441900Y-73688000D02*
X94441900Y-105735400D01*
X90731400Y-69977500D02*
X94441900Y-73688000D01*
X90731400Y-58896900D02*
X90731400Y-69977500D01*
X83032300Y-51197800D02*
X90731400Y-58896900D01*
X83032300Y-50152500D02*
X83032300Y-51197800D01*
X76907000Y-50152500D02*
X77952300Y-50152500D01*
X93151500Y-123438800D02*
X93297100Y-123584400D01*
X93151500Y-105752000D02*
X93151500Y-123438800D01*
X93494500Y-105409000D02*
X93151500Y-105752000D01*
X93494500Y-74127000D02*
X93494500Y-105409000D01*
X85637700Y-66270200D02*
X93494500Y-74127000D01*
X85637700Y-62514500D02*
X85637700Y-66270200D01*
X80717000Y-57593800D02*
X85637700Y-62514500D01*
X80717000Y-49637100D02*
X80717000Y-57593800D01*
X79878900Y-48799000D02*
X80717000Y-49637100D01*
X79011800Y-48799000D02*
X79878900Y-48799000D01*
X77952300Y-49858500D02*
X79011800Y-48799000D01*
X77952300Y-50152500D02*
X77952300Y-49858500D01*
X92571800Y-126798400D02*
X92862600Y-127089200D01*
X92571800Y-105694800D02*
X92571800Y-126798400D01*
X93044100Y-105222500D02*
X92571800Y-105694800D01*
X93044100Y-74439600D02*
X93044100Y-105222500D01*
X90079100Y-71474600D02*
X93044100Y-74439600D01*
X89392400Y-71474600D02*
X90079100Y-71474600D01*
X87067000Y-65392500D02*
X87067000Y-66717800D01*
X94100700Y-123362200D02*
X94100700Y-127117400D01*
X93601800Y-122863300D02*
X94100700Y-123362200D01*
X93601800Y-105938600D02*
X93601800Y-122863300D01*
X93991600Y-105548800D02*
X93601800Y-105938600D01*
X93991600Y-73910400D02*
X93991600Y-105548800D01*
X87067100Y-66985900D02*
X93991600Y-73910400D01*
X87067100Y-66717800D02*
X87067100Y-66985900D01*
X87067000Y-66717800D02*
X87067100Y-66717800D01*
X71827000Y-50152500D02*
X72872300Y-50152500D01*
X78421000Y-91317000D02*
X78421000Y-90191700D01*
X72872300Y-61648300D02*
X72872300Y-50152500D01*
X75796700Y-64572700D02*
X72872300Y-61648300D01*
X75796700Y-71083900D02*
X75796700Y-64572700D01*
X77090600Y-72377800D02*
X75796700Y-71083900D01*
X77090600Y-79092300D02*
X77090600Y-72377800D01*
X75901100Y-80281800D02*
X77090600Y-79092300D01*
X75901100Y-87876300D02*
X75901100Y-80281800D01*
X78216500Y-90191700D02*
X75901100Y-87876300D01*
X78421000Y-90191700D02*
X78216500Y-90191700D01*
X81987000Y-65392500D02*
X83032300Y-65392500D01*
X95065000Y-139192000D02*
X95065000Y-133866700D01*
X92121500Y-130923200D02*
X95065000Y-133866700D01*
X92121500Y-105508200D02*
X92121500Y-130923200D01*
X92593800Y-105035900D02*
X92121500Y-105508200D01*
X92593800Y-74648700D02*
X92593800Y-105035900D01*
X91551800Y-73606700D02*
X92593800Y-74648700D01*
X90498800Y-73606700D02*
X91551800Y-73606700D01*
X83032300Y-66140200D02*
X90498800Y-73606700D01*
X83032300Y-65392500D02*
X83032300Y-66140200D01*
X79447000Y-65392500D02*
X80492300Y-65392500D01*
X91105000Y-105887800D02*
X91105000Y-139192000D01*
X92105300Y-104887500D02*
X91105000Y-105887800D01*
X92105300Y-78153700D02*
X92105300Y-104887500D01*
X89922000Y-75970400D02*
X92105300Y-78153700D01*
X89922000Y-74105200D02*
X89922000Y-75970400D01*
X82534700Y-66717900D02*
X89922000Y-74105200D01*
X81523700Y-66717900D02*
X82534700Y-66717900D01*
X80492300Y-65686500D02*
X81523700Y-66717900D01*
X80492300Y-65392500D02*
X80492300Y-65686500D01*
X87145000Y-115222600D02*
X87145000Y-139192000D01*
X83871200Y-111948800D02*
X87145000Y-115222600D01*
X83185000Y-139192000D02*
X83185000Y-133866700D01*
X83145900Y-133827600D02*
X83185000Y-133866700D01*
X83145900Y-111489300D02*
X83145900Y-133827600D01*
X87031300Y-107603900D02*
X83145900Y-111489300D01*
X87031300Y-77917600D02*
X87031300Y-107603900D01*
X87256600Y-77692300D02*
X87031300Y-77917600D01*
X87256600Y-72137500D02*
X87256600Y-77692300D01*
X83856200Y-68737100D02*
X87256600Y-72137500D01*
X80962600Y-68737100D02*
X83856200Y-68737100D01*
X78382600Y-66157100D02*
X80962600Y-68737100D01*
X78382600Y-51216900D02*
X78382600Y-66157100D01*
X79447000Y-50152500D02*
X78382600Y-51216900D01*
X79225000Y-139192000D02*
X79225000Y-133866700D01*
X79225000Y-114654000D02*
X79225000Y-133866700D01*
X86218500Y-107660500D02*
X79225000Y-114654000D01*
X86218500Y-78620500D02*
X86218500Y-107660500D01*
X84986500Y-77388500D02*
X86218500Y-78620500D01*
X84986500Y-70931700D02*
X84986500Y-77388500D01*
X83559200Y-69504400D02*
X84986500Y-70931700D01*
X96157600Y-56703100D02*
X96157600Y-108320700D01*
X90652300Y-51197800D02*
X96157600Y-56703100D01*
X90652300Y-50152500D02*
X90652300Y-51197800D01*
X89607000Y-50152500D02*
X90652300Y-50152500D01*
X75265000Y-127898500D02*
X75265000Y-139192000D01*
X76081100Y-127082400D02*
X75265000Y-127898500D01*
X71305000Y-121937100D02*
X71305000Y-139192000D01*
X85727200Y-107514900D02*
X71305000Y-121937100D01*
X85727200Y-79563000D02*
X85727200Y-107514900D01*
X82420900Y-76256700D02*
X85727200Y-79563000D01*
X82420900Y-73736500D02*
X82420900Y-76256700D01*
X84174500Y-71982900D02*
X82420900Y-73736500D01*
X96998600Y-66946200D02*
X96998600Y-76909700D01*
X97227000Y-66717800D02*
X96998600Y-66946200D01*
X67345000Y-139192000D02*
X67345000Y-133866700D01*
X97227000Y-65392500D02*
X97227000Y-66717800D01*
X67345000Y-124886800D02*
X67345000Y-133866700D01*
X84930700Y-107301100D02*
X67345000Y-124886800D01*
X84930700Y-83921900D02*
X84930700Y-107301100D01*
X63385000Y-139192000D02*
X63385000Y-133866700D01*
X102307000Y-65392500D02*
X102307000Y-66717800D01*
X63385000Y-121413600D02*
X63385000Y-133866700D01*
X80647300Y-104151300D02*
X63385000Y-121413600D01*
X80647300Y-86250800D02*
X80647300Y-104151300D01*
X82926900Y-83971200D02*
X80647300Y-86250800D01*
X101514500Y-67510300D02*
X102307000Y-66717800D01*
X101514500Y-70437900D02*
X101514500Y-67510300D01*
X59425000Y-113838900D02*
X59425000Y-139192000D01*
X65620800Y-107643100D02*
X59425000Y-113838900D01*
X65620800Y-60756900D02*
X65620800Y-107643100D01*
X70557000Y-55820700D02*
X65620800Y-60756900D01*
X70557000Y-49656400D02*
X70557000Y-55820700D01*
X71864800Y-48348600D02*
X70557000Y-49656400D01*
X94671800Y-48348600D02*
X71864800Y-48348600D01*
X96181700Y-49858500D02*
X94671800Y-48348600D01*
X96181700Y-50152500D02*
X96181700Y-49858500D01*
X97227000Y-50152500D02*
X96181700Y-50152500D01*
X90947000Y-91325000D02*
X90947000Y-88785000D01*
X83561900Y-97819700D02*
X83327000Y-97819700D01*
X84453100Y-96928500D02*
X83561900Y-97819700D01*
X84453100Y-88215100D02*
X84453100Y-96928500D01*
X83608300Y-87370300D02*
X84453100Y-88215100D01*
X83327000Y-87370300D02*
X83608300Y-87370300D01*
X83327000Y-86245000D02*
X83327000Y-87370300D01*
X83327000Y-98945000D02*
X83327000Y-97819700D01*
X66747000Y-75579000D02*
X72071000Y-80903000D01*
X66747000Y-65392500D02*
X66747000Y-75579000D01*
X90243700Y-87659700D02*
X90947000Y-87659700D01*
X89597000Y-87013000D02*
X90243700Y-87659700D01*
X89597000Y-80945000D02*
X89597000Y-87013000D01*
X90947000Y-88785000D02*
X90947000Y-87659700D01*
X58024400Y-131307300D02*
X55465000Y-133866700D01*
X58024400Y-92157700D02*
X58024400Y-131307300D01*
X56897000Y-91030300D02*
X58024400Y-92157700D01*
X56897000Y-89905000D02*
X56897000Y-91030300D01*
X55465000Y-139192000D02*
X55465000Y-133866700D01*
X110905000Y-139192000D02*
X110905000Y-133866700D01*
X110905000Y-128261500D02*
X110905000Y-133866700D01*
X112040000Y-127126500D02*
X110905000Y-128261500D01*
X102307000Y-50152500D02*
X102307000Y-51477800D01*
X102307000Y-58354300D02*
X102307000Y-51477800D01*
X112040000Y-68087300D02*
X102307000Y-58354300D01*
X112040000Y-127126500D02*
X112040000Y-68087300D01*
X79901700Y-73884400D02*
X83281300Y-70504800D01*
X79901700Y-79557500D02*
X79901700Y-73884400D01*
X83209500Y-79557500D02*
X84597000Y-80945000D01*
X79901700Y-79557500D02*
X83209500Y-79557500D01*
X78421000Y-101477000D02*
X78421000Y-100351700D01*
X78608700Y-80850500D02*
X79901700Y-79557500D01*
X77123500Y-80850500D02*
X78608700Y-80850500D01*
X77071000Y-80903000D02*
X77123500Y-80850500D01*
X78702300Y-100351700D02*
X78421000Y-100351700D01*
X80031000Y-99023000D02*
X78702300Y-100351700D01*
X80031000Y-82272800D02*
X80031000Y-99023000D01*
X78608700Y-80850500D02*
X80031000Y-82272800D01*
X43671700Y-52020300D02*
X44997000Y-50695000D01*
X43671700Y-59769700D02*
X43671700Y-52020300D01*
X45947000Y-62045000D02*
X43671700Y-59769700D01*
M02*
