G04 #@! TF.GenerationSoftware,KiCad,Pcbnew,(5.1.10)-1*
G04 #@! TF.CreationDate,2022-09-21T08:41:53+02:00*
G04 #@! TF.ProjectId,Cartridge,43617274-7269-4646-9765-2e6b69636164,rev?*
G04 #@! TF.SameCoordinates,Original*
G04 #@! TF.FileFunction,Legend,Bot*
G04 #@! TF.FilePolarity,Positive*
%FSLAX46Y46*%
G04 Gerber Fmt 4.6, Leading zero omitted, Abs format (unit mm)*
G04 Created by KiCad (PCBNEW (5.1.10)-1) date 2022-09-21 08:41:53*
%MOMM*%
%LPD*%
G01*
G04 APERTURE LIST*
%ADD10C,0.150000*%
%ADD11C,0.300000*%
%ADD12C,0.120000*%
%ADD13C,0.100000*%
%ADD14C,0.010000*%
%ADD15C,1.422400*%
%ADD16R,1.422400X1.422400*%
%ADD17O,1.600000X1.600000*%
%ADD18R,1.600000X1.600000*%
%ADD19C,1.500000*%
%ADD20C,1.600000*%
%ADD21R,2.000000X10.000000*%
%ADD22C,2.000000*%
%ADD23O,1.700000X1.700000*%
%ADD24R,1.700000X1.700000*%
G04 APERTURE END LIST*
D10*
X93074219Y-53764047D02*
X94074219Y-53764047D01*
X94074219Y-53383095D01*
X94026600Y-53287857D01*
X93978980Y-53240238D01*
X93883742Y-53192619D01*
X93740885Y-53192619D01*
X93645647Y-53240238D01*
X93598028Y-53287857D01*
X93550409Y-53383095D01*
X93550409Y-53764047D01*
X93074219Y-52287857D02*
X93074219Y-52764047D01*
X94074219Y-52764047D01*
X93169457Y-51383095D02*
X93121838Y-51430714D01*
X93074219Y-51573571D01*
X93074219Y-51668809D01*
X93121838Y-51811666D01*
X93217076Y-51906904D01*
X93312314Y-51954523D01*
X93502790Y-52002142D01*
X93645647Y-52002142D01*
X93836123Y-51954523D01*
X93931361Y-51906904D01*
X94026600Y-51811666D01*
X94074219Y-51668809D01*
X94074219Y-51573571D01*
X94026600Y-51430714D01*
X93978980Y-51383095D01*
X93169457Y-50383095D02*
X93121838Y-50430714D01*
X93074219Y-50573571D01*
X93074219Y-50668809D01*
X93121838Y-50811666D01*
X93217076Y-50906904D01*
X93312314Y-50954523D01*
X93502790Y-51002142D01*
X93645647Y-51002142D01*
X93836123Y-50954523D01*
X93931361Y-50906904D01*
X94026600Y-50811666D01*
X94074219Y-50668809D01*
X94074219Y-50573571D01*
X94026600Y-50430714D01*
X93978980Y-50383095D01*
X94074219Y-50049761D02*
X94074219Y-49430714D01*
X93693266Y-49764047D01*
X93693266Y-49621190D01*
X93645647Y-49525952D01*
X93598028Y-49478333D01*
X93502790Y-49430714D01*
X93264695Y-49430714D01*
X93169457Y-49478333D01*
X93121838Y-49525952D01*
X93074219Y-49621190D01*
X93074219Y-49906904D01*
X93121838Y-50002142D01*
X93169457Y-50049761D01*
X93978980Y-49049761D02*
X94026600Y-49002142D01*
X94074219Y-48906904D01*
X94074219Y-48668809D01*
X94026600Y-48573571D01*
X93978980Y-48525952D01*
X93883742Y-48478333D01*
X93788504Y-48478333D01*
X93645647Y-48525952D01*
X93074219Y-49097380D01*
X93074219Y-48478333D01*
X92238676Y-51971380D02*
X92238676Y-50971380D01*
X91905342Y-51685666D01*
X91572009Y-50971380D01*
X91572009Y-51971380D01*
X91095819Y-50971380D02*
X91095819Y-51780904D01*
X91048200Y-51876142D01*
X91000580Y-51923761D01*
X90905342Y-51971380D01*
X90714866Y-51971380D01*
X90619628Y-51923761D01*
X90572009Y-51876142D01*
X90524390Y-51780904D01*
X90524390Y-50971380D01*
X89572009Y-51971380D02*
X90048200Y-51971380D01*
X90048200Y-50971380D01*
X89381533Y-50971380D02*
X88810104Y-50971380D01*
X89095819Y-51971380D02*
X89095819Y-50971380D01*
X88476771Y-51971380D02*
X88476771Y-50971380D01*
X87429152Y-51876142D02*
X87476771Y-51923761D01*
X87619628Y-51971380D01*
X87714866Y-51971380D01*
X87857723Y-51923761D01*
X87952961Y-51828523D01*
X88000580Y-51733285D01*
X88048200Y-51542809D01*
X88048200Y-51399952D01*
X88000580Y-51209476D01*
X87952961Y-51114238D01*
X87857723Y-51019000D01*
X87714866Y-50971380D01*
X87619628Y-50971380D01*
X87476771Y-51019000D01*
X87429152Y-51066619D01*
X87048200Y-51685666D02*
X86572009Y-51685666D01*
X87143438Y-51971380D02*
X86810104Y-50971380D01*
X86476771Y-51971380D01*
X85572009Y-51971380D02*
X85905342Y-51495190D01*
X86143438Y-51971380D02*
X86143438Y-50971380D01*
X85762485Y-50971380D01*
X85667247Y-51019000D01*
X85619628Y-51066619D01*
X85572009Y-51161857D01*
X85572009Y-51304714D01*
X85619628Y-51399952D01*
X85667247Y-51447571D01*
X85762485Y-51495190D01*
X86143438Y-51495190D01*
X85286295Y-50971380D02*
X84714866Y-50971380D01*
X85000580Y-51971380D02*
X85000580Y-50971380D01*
X92283209Y-52647780D02*
X91664161Y-52647780D01*
X91997495Y-53028733D01*
X91854638Y-53028733D01*
X91759400Y-53076352D01*
X91711780Y-53123971D01*
X91664161Y-53219209D01*
X91664161Y-53457304D01*
X91711780Y-53552542D01*
X91759400Y-53600161D01*
X91854638Y-53647780D01*
X92140352Y-53647780D01*
X92235590Y-53600161D01*
X92283209Y-53552542D01*
X91283209Y-52743019D02*
X91235590Y-52695400D01*
X91140352Y-52647780D01*
X90902257Y-52647780D01*
X90807019Y-52695400D01*
X90759400Y-52743019D01*
X90711780Y-52838257D01*
X90711780Y-52933495D01*
X90759400Y-53076352D01*
X91330828Y-53647780D01*
X90711780Y-53647780D01*
X90378447Y-53647780D02*
X89854638Y-52981114D01*
X90378447Y-52981114D02*
X89854638Y-53647780D01*
X88949876Y-53647780D02*
X89521304Y-53647780D01*
X89235590Y-53647780D02*
X89235590Y-52647780D01*
X89330828Y-52790638D01*
X89426066Y-52885876D01*
X89521304Y-52933495D01*
X88092733Y-52647780D02*
X88283209Y-52647780D01*
X88378447Y-52695400D01*
X88426066Y-52743019D01*
X88521304Y-52885876D01*
X88568923Y-53076352D01*
X88568923Y-53457304D01*
X88521304Y-53552542D01*
X88473685Y-53600161D01*
X88378447Y-53647780D01*
X88187971Y-53647780D01*
X88092733Y-53600161D01*
X88045114Y-53552542D01*
X87997495Y-53457304D01*
X87997495Y-53219209D01*
X88045114Y-53123971D01*
X88092733Y-53076352D01*
X88187971Y-53028733D01*
X88378447Y-53028733D01*
X88473685Y-53076352D01*
X88521304Y-53123971D01*
X88568923Y-53219209D01*
X87568923Y-53647780D02*
X87568923Y-52647780D01*
X87473685Y-53266828D02*
X87187971Y-53647780D01*
X87187971Y-52981114D02*
X87568923Y-53362066D01*
X86759400Y-53647780D02*
X86759400Y-52647780D01*
X86759400Y-53028733D02*
X86664161Y-52981114D01*
X86473685Y-52981114D01*
X86378447Y-53028733D01*
X86330828Y-53076352D01*
X86283209Y-53171590D01*
X86283209Y-53457304D01*
X86330828Y-53552542D01*
X86378447Y-53600161D01*
X86473685Y-53647780D01*
X86664161Y-53647780D01*
X86759400Y-53600161D01*
D11*
X92419809Y-50307761D02*
X92419809Y-48307761D01*
X91657904Y-48307761D01*
X91467428Y-48403000D01*
X91372190Y-48498238D01*
X91276952Y-48688714D01*
X91276952Y-48974428D01*
X91372190Y-49164904D01*
X91467428Y-49260142D01*
X91657904Y-49355380D01*
X92419809Y-49355380D01*
X90515047Y-48498238D02*
X90419809Y-48403000D01*
X90229333Y-48307761D01*
X89753142Y-48307761D01*
X89562666Y-48403000D01*
X89467428Y-48498238D01*
X89372190Y-48688714D01*
X89372190Y-48879190D01*
X89467428Y-49164904D01*
X90610285Y-50307761D01*
X89372190Y-50307761D01*
X88134095Y-48307761D02*
X87943619Y-48307761D01*
X87753142Y-48403000D01*
X87657904Y-48498238D01*
X87562666Y-48688714D01*
X87467428Y-49069666D01*
X87467428Y-49545857D01*
X87562666Y-49926809D01*
X87657904Y-50117285D01*
X87753142Y-50212523D01*
X87943619Y-50307761D01*
X88134095Y-50307761D01*
X88324571Y-50212523D01*
X88419809Y-50117285D01*
X88515047Y-49926809D01*
X88610285Y-49545857D01*
X88610285Y-49069666D01*
X88515047Y-48688714D01*
X88419809Y-48498238D01*
X88324571Y-48403000D01*
X88134095Y-48307761D01*
X86229333Y-48307761D02*
X86038857Y-48307761D01*
X85848380Y-48403000D01*
X85753142Y-48498238D01*
X85657904Y-48688714D01*
X85562666Y-49069666D01*
X85562666Y-49545857D01*
X85657904Y-49926809D01*
X85753142Y-50117285D01*
X85848380Y-50212523D01*
X86038857Y-50307761D01*
X86229333Y-50307761D01*
X86419809Y-50212523D01*
X86515047Y-50117285D01*
X86610285Y-49926809D01*
X86705523Y-49545857D01*
X86705523Y-49069666D01*
X86610285Y-48688714D01*
X86515047Y-48498238D01*
X86419809Y-48403000D01*
X86229333Y-48307761D01*
X84324571Y-48307761D02*
X84134095Y-48307761D01*
X83943619Y-48403000D01*
X83848380Y-48498238D01*
X83753142Y-48688714D01*
X83657904Y-49069666D01*
X83657904Y-49545857D01*
X83753142Y-49926809D01*
X83848380Y-50117285D01*
X83943619Y-50212523D01*
X84134095Y-50307761D01*
X84324571Y-50307761D01*
X84515047Y-50212523D01*
X84610285Y-50117285D01*
X84705523Y-49926809D01*
X84800761Y-49545857D01*
X84800761Y-49069666D01*
X84705523Y-48688714D01*
X84610285Y-48498238D01*
X84515047Y-48403000D01*
X84324571Y-48307761D01*
X104071000Y-131464571D02*
X104071000Y-129964571D01*
X102065285Y-130250285D02*
X101993857Y-130321714D01*
X101922428Y-130536000D01*
X101922428Y-130678857D01*
X101993857Y-130893142D01*
X102136714Y-131036000D01*
X102279571Y-131107428D01*
X102565285Y-131178857D01*
X102779571Y-131178857D01*
X103065285Y-131107428D01*
X103208142Y-131036000D01*
X103351000Y-130893142D01*
X103422428Y-130678857D01*
X103422428Y-130536000D01*
X103351000Y-130321714D01*
X103279571Y-130250285D01*
X104071000Y-129964571D02*
X104071000Y-128536000D01*
X101993857Y-129678857D02*
X101922428Y-129464571D01*
X101922428Y-129107428D01*
X101993857Y-128964571D01*
X102065285Y-128893142D01*
X102208142Y-128821714D01*
X102351000Y-128821714D01*
X102493857Y-128893142D01*
X102565285Y-128964571D01*
X102636714Y-129107428D01*
X102708142Y-129393142D01*
X102779571Y-129536000D01*
X102851000Y-129607428D01*
X102993857Y-129678857D01*
X103136714Y-129678857D01*
X103279571Y-129607428D01*
X103351000Y-129536000D01*
X103422428Y-129393142D01*
X103422428Y-129036000D01*
X103351000Y-128821714D01*
X104071000Y-128536000D02*
X104071000Y-127107428D01*
X101922428Y-127393142D02*
X101922428Y-128250285D01*
X101922428Y-127821714D02*
X103422428Y-127821714D01*
X103208142Y-127964571D01*
X103065285Y-128107428D01*
X102993857Y-128250285D01*
X98668000Y-131071714D02*
X98668000Y-130357428D01*
X98239428Y-131214571D02*
X99739428Y-130714571D01*
X98239428Y-130214571D01*
X98239428Y-128928857D02*
X98239428Y-129786000D01*
X98239428Y-129357428D02*
X99739428Y-129357428D01*
X99525142Y-129500285D01*
X99382285Y-129643142D01*
X99310857Y-129786000D01*
X99596571Y-128357428D02*
X99668000Y-128286000D01*
X99739428Y-128143142D01*
X99739428Y-127786000D01*
X99668000Y-127643142D01*
X99596571Y-127571714D01*
X99453714Y-127500285D01*
X99310857Y-127500285D01*
X99096571Y-127571714D01*
X98239428Y-128428857D01*
X98239428Y-127500285D01*
D10*
X110356000Y-128911095D02*
X110308380Y-128815857D01*
X110308380Y-128673000D01*
X110356000Y-128530142D01*
X110451238Y-128434904D01*
X110546476Y-128387285D01*
X110736952Y-128339666D01*
X110879809Y-128339666D01*
X111070285Y-128387285D01*
X111165523Y-128434904D01*
X111260761Y-128530142D01*
X111308380Y-128673000D01*
X111308380Y-128768238D01*
X111260761Y-128911095D01*
X111213142Y-128958714D01*
X110879809Y-128958714D01*
X110879809Y-128768238D01*
X111308380Y-129387285D02*
X110308380Y-129387285D01*
X111308380Y-129958714D01*
X110308380Y-129958714D01*
X111308380Y-130434904D02*
X110308380Y-130434904D01*
X110308380Y-130673000D01*
X110356000Y-130815857D01*
X110451238Y-130911095D01*
X110546476Y-130958714D01*
X110736952Y-131006333D01*
X110879809Y-131006333D01*
X111070285Y-130958714D01*
X111165523Y-130911095D01*
X111260761Y-130815857D01*
X111308380Y-130673000D01*
X111308380Y-130434904D01*
D12*
X109586000Y-131451000D02*
X109586000Y-127895000D01*
X109586000Y-127895000D02*
X111999000Y-127895000D01*
X111999000Y-127895000D02*
X111999000Y-131451000D01*
X111999000Y-131451000D02*
X109586000Y-131451000D01*
X54197000Y-131745000D02*
X54197000Y-128645000D01*
X56647000Y-131745000D02*
X54197000Y-131745000D01*
X56647000Y-128645000D02*
X56647000Y-131745000D01*
X54197000Y-128645000D02*
X56647000Y-128645000D01*
D10*
X56162000Y-131528333D02*
X56162000Y-130480714D01*
X54794619Y-131290238D02*
X55794619Y-131290238D01*
X54794619Y-130718809D01*
X55794619Y-130718809D01*
X56162000Y-130480714D02*
X56162000Y-129337857D01*
X54794619Y-130242619D02*
X55794619Y-130242619D01*
X55080333Y-129909285D01*
X55794619Y-129575952D01*
X54794619Y-129575952D01*
X56162000Y-129337857D02*
X56162000Y-128861666D01*
X54794619Y-129099761D02*
X55794619Y-129099761D01*
X55510666Y-133040380D02*
X56082095Y-133040380D01*
X55796380Y-133040380D02*
X55796380Y-132040380D01*
X55891619Y-132183238D01*
X55986857Y-132278476D01*
X56082095Y-132326095D01*
X54653523Y-133040380D02*
X54653523Y-132516571D01*
X54701142Y-132421333D01*
X54796380Y-132373714D01*
X54986857Y-132373714D01*
X55082095Y-132421333D01*
X54653523Y-132992761D02*
X54748761Y-133040380D01*
X54986857Y-133040380D01*
X55082095Y-132992761D01*
X55129714Y-132897523D01*
X55129714Y-132802285D01*
X55082095Y-132707047D01*
X54986857Y-132659428D01*
X54748761Y-132659428D01*
X54653523Y-132611809D01*
D13*
X65047333Y-70732000D02*
X65080666Y-70765333D01*
X65180666Y-70798666D01*
X65247333Y-70798666D01*
X65347333Y-70765333D01*
X65414000Y-70698666D01*
X65447333Y-70632000D01*
X65480666Y-70498666D01*
X65480666Y-70398666D01*
X65447333Y-70265333D01*
X65414000Y-70198666D01*
X65347333Y-70132000D01*
X65247333Y-70098666D01*
X65180666Y-70098666D01*
X65080666Y-70132000D01*
X65047333Y-70165333D01*
X64647333Y-70798666D02*
X64714000Y-70765333D01*
X64747333Y-70698666D01*
X64747333Y-70098666D01*
X64280666Y-70798666D02*
X64347333Y-70765333D01*
X64380666Y-70732000D01*
X64414000Y-70665333D01*
X64414000Y-70465333D01*
X64380666Y-70398666D01*
X64347333Y-70365333D01*
X64280666Y-70332000D01*
X64180666Y-70332000D01*
X64114000Y-70365333D01*
X64080666Y-70398666D01*
X64047333Y-70465333D01*
X64047333Y-70665333D01*
X64080666Y-70732000D01*
X64114000Y-70765333D01*
X64180666Y-70798666D01*
X64280666Y-70798666D01*
X63780666Y-70765333D02*
X63714000Y-70798666D01*
X63580666Y-70798666D01*
X63514000Y-70765333D01*
X63480666Y-70698666D01*
X63480666Y-70665333D01*
X63514000Y-70598666D01*
X63580666Y-70565333D01*
X63680666Y-70565333D01*
X63747333Y-70532000D01*
X63780666Y-70465333D01*
X63780666Y-70432000D01*
X63747333Y-70365333D01*
X63680666Y-70332000D01*
X63580666Y-70332000D01*
X63514000Y-70365333D01*
X62914000Y-70765333D02*
X62980666Y-70798666D01*
X63114000Y-70798666D01*
X63180666Y-70765333D01*
X63214000Y-70698666D01*
X63214000Y-70432000D01*
X63180666Y-70365333D01*
X63114000Y-70332000D01*
X62980666Y-70332000D01*
X62914000Y-70365333D01*
X62880666Y-70432000D01*
X62880666Y-70498666D01*
X63214000Y-70565333D01*
X62147333Y-70332000D02*
X61880666Y-70332000D01*
X62047333Y-70798666D02*
X62047333Y-70198666D01*
X62014000Y-70132000D01*
X61947333Y-70098666D01*
X61880666Y-70098666D01*
X61547333Y-70798666D02*
X61614000Y-70765333D01*
X61647333Y-70732000D01*
X61680666Y-70665333D01*
X61680666Y-70465333D01*
X61647333Y-70398666D01*
X61614000Y-70365333D01*
X61547333Y-70332000D01*
X61447333Y-70332000D01*
X61380666Y-70365333D01*
X61347333Y-70398666D01*
X61314000Y-70465333D01*
X61314000Y-70665333D01*
X61347333Y-70732000D01*
X61380666Y-70765333D01*
X61447333Y-70798666D01*
X61547333Y-70798666D01*
X61014000Y-70798666D02*
X61014000Y-70332000D01*
X61014000Y-70465333D02*
X60980666Y-70398666D01*
X60947333Y-70365333D01*
X60880666Y-70332000D01*
X60814000Y-70332000D01*
X60080666Y-70765333D02*
X59980666Y-70798666D01*
X59814000Y-70798666D01*
X59747333Y-70765333D01*
X59714000Y-70732000D01*
X59680666Y-70665333D01*
X59680666Y-70598666D01*
X59714000Y-70532000D01*
X59747333Y-70498666D01*
X59814000Y-70465333D01*
X59947333Y-70432000D01*
X60014000Y-70398666D01*
X60047333Y-70365333D01*
X60080666Y-70298666D01*
X60080666Y-70232000D01*
X60047333Y-70165333D01*
X60014000Y-70132000D01*
X59947333Y-70098666D01*
X59780666Y-70098666D01*
X59680666Y-70132000D01*
X59414000Y-70765333D02*
X59314000Y-70798666D01*
X59147333Y-70798666D01*
X59080666Y-70765333D01*
X59047333Y-70732000D01*
X59014000Y-70665333D01*
X59014000Y-70598666D01*
X59047333Y-70532000D01*
X59080666Y-70498666D01*
X59147333Y-70465333D01*
X59280666Y-70432000D01*
X59347333Y-70398666D01*
X59380666Y-70365333D01*
X59414000Y-70298666D01*
X59414000Y-70232000D01*
X59380666Y-70165333D01*
X59347333Y-70132000D01*
X59280666Y-70098666D01*
X59114000Y-70098666D01*
X59014000Y-70132000D01*
X58814000Y-70098666D02*
X58414000Y-70098666D01*
X58614000Y-70798666D02*
X58614000Y-70098666D01*
X58247333Y-70098666D02*
X57814000Y-70098666D01*
X58047333Y-70365333D01*
X57947333Y-70365333D01*
X57880666Y-70398666D01*
X57847333Y-70432000D01*
X57814000Y-70498666D01*
X57814000Y-70665333D01*
X57847333Y-70732000D01*
X57880666Y-70765333D01*
X57947333Y-70798666D01*
X58147333Y-70798666D01*
X58214000Y-70765333D01*
X58247333Y-70732000D01*
X57480666Y-70798666D02*
X57347333Y-70798666D01*
X57280666Y-70765333D01*
X57247333Y-70732000D01*
X57180666Y-70632000D01*
X57147333Y-70498666D01*
X57147333Y-70232000D01*
X57180666Y-70165333D01*
X57214000Y-70132000D01*
X57280666Y-70098666D01*
X57414000Y-70098666D01*
X57480666Y-70132000D01*
X57514000Y-70165333D01*
X57547333Y-70232000D01*
X57547333Y-70398666D01*
X57514000Y-70465333D01*
X57480666Y-70498666D01*
X57414000Y-70532000D01*
X57280666Y-70532000D01*
X57214000Y-70498666D01*
X57180666Y-70465333D01*
X57147333Y-70398666D01*
X56880666Y-70765333D02*
X56780666Y-70798666D01*
X56614000Y-70798666D01*
X56547333Y-70765333D01*
X56514000Y-70732000D01*
X56480666Y-70665333D01*
X56480666Y-70598666D01*
X56514000Y-70532000D01*
X56547333Y-70498666D01*
X56614000Y-70465333D01*
X56747333Y-70432000D01*
X56814000Y-70398666D01*
X56847333Y-70365333D01*
X56880666Y-70298666D01*
X56880666Y-70232000D01*
X56847333Y-70165333D01*
X56814000Y-70132000D01*
X56747333Y-70098666D01*
X56580666Y-70098666D01*
X56480666Y-70132000D01*
X55947333Y-70432000D02*
X56180666Y-70432000D01*
X56180666Y-70798666D02*
X56180666Y-70098666D01*
X55847333Y-70098666D01*
X55447333Y-70098666D02*
X55380666Y-70098666D01*
X55314000Y-70132000D01*
X55280666Y-70165333D01*
X55247333Y-70232000D01*
X55214000Y-70365333D01*
X55214000Y-70532000D01*
X55247333Y-70665333D01*
X55280666Y-70732000D01*
X55314000Y-70765333D01*
X55380666Y-70798666D01*
X55447333Y-70798666D01*
X55514000Y-70765333D01*
X55547333Y-70732000D01*
X55580666Y-70665333D01*
X55614000Y-70532000D01*
X55614000Y-70365333D01*
X55580666Y-70232000D01*
X55547333Y-70165333D01*
X55514000Y-70132000D01*
X55447333Y-70098666D01*
X54614000Y-70332000D02*
X54614000Y-70798666D01*
X54780666Y-70065333D02*
X54947333Y-70565333D01*
X54514000Y-70565333D01*
X54114000Y-70098666D02*
X54047333Y-70098666D01*
X53980666Y-70132000D01*
X53947333Y-70165333D01*
X53914000Y-70232000D01*
X53880666Y-70365333D01*
X53880666Y-70532000D01*
X53914000Y-70665333D01*
X53947333Y-70732000D01*
X53980666Y-70765333D01*
X54047333Y-70798666D01*
X54114000Y-70798666D01*
X54180666Y-70765333D01*
X54214000Y-70732000D01*
X54247333Y-70665333D01*
X54280666Y-70532000D01*
X54280666Y-70365333D01*
X54247333Y-70232000D01*
X54214000Y-70165333D01*
X54180666Y-70132000D01*
X54114000Y-70098666D01*
X65447333Y-71948666D02*
X65447333Y-71248666D01*
X65047333Y-71948666D02*
X65347333Y-71548666D01*
X65047333Y-71248666D02*
X65447333Y-71648666D01*
X64480666Y-71915333D02*
X64547333Y-71948666D01*
X64680666Y-71948666D01*
X64747333Y-71915333D01*
X64780666Y-71848666D01*
X64780666Y-71582000D01*
X64747333Y-71515333D01*
X64680666Y-71482000D01*
X64547333Y-71482000D01*
X64480666Y-71515333D01*
X64447333Y-71582000D01*
X64447333Y-71648666D01*
X64780666Y-71715333D01*
X63880666Y-71915333D02*
X63947333Y-71948666D01*
X64080666Y-71948666D01*
X64147333Y-71915333D01*
X64180666Y-71848666D01*
X64180666Y-71582000D01*
X64147333Y-71515333D01*
X64080666Y-71482000D01*
X63947333Y-71482000D01*
X63880666Y-71515333D01*
X63847333Y-71582000D01*
X63847333Y-71648666D01*
X64180666Y-71715333D01*
X63547333Y-71482000D02*
X63547333Y-72182000D01*
X63547333Y-71515333D02*
X63480666Y-71482000D01*
X63347333Y-71482000D01*
X63280666Y-71515333D01*
X63247333Y-71548666D01*
X63214000Y-71615333D01*
X63214000Y-71815333D01*
X63247333Y-71882000D01*
X63280666Y-71915333D01*
X63347333Y-71948666D01*
X63480666Y-71948666D01*
X63547333Y-71915333D01*
X62280666Y-71948666D02*
X62347333Y-71915333D01*
X62380666Y-71882000D01*
X62413999Y-71815333D01*
X62413999Y-71615333D01*
X62380666Y-71548666D01*
X62347333Y-71515333D01*
X62280666Y-71482000D01*
X62180666Y-71482000D01*
X62113999Y-71515333D01*
X62080666Y-71548666D01*
X62047333Y-71615333D01*
X62047333Y-71815333D01*
X62080666Y-71882000D01*
X62113999Y-71915333D01*
X62180666Y-71948666D01*
X62280666Y-71948666D01*
X61747333Y-71482000D02*
X61747333Y-72182000D01*
X61747333Y-71515333D02*
X61680666Y-71482000D01*
X61547333Y-71482000D01*
X61480666Y-71515333D01*
X61447333Y-71548666D01*
X61413999Y-71615333D01*
X61413999Y-71815333D01*
X61447333Y-71882000D01*
X61480666Y-71915333D01*
X61547333Y-71948666D01*
X61680666Y-71948666D01*
X61747333Y-71915333D01*
X60847333Y-71915333D02*
X60913999Y-71948666D01*
X61047333Y-71948666D01*
X61113999Y-71915333D01*
X61147333Y-71848666D01*
X61147333Y-71582000D01*
X61113999Y-71515333D01*
X61047333Y-71482000D01*
X60913999Y-71482000D01*
X60847333Y-71515333D01*
X60813999Y-71582000D01*
X60813999Y-71648666D01*
X61147333Y-71715333D01*
X60513999Y-71482000D02*
X60513999Y-71948666D01*
X60513999Y-71548666D02*
X60480666Y-71515333D01*
X60413999Y-71482000D01*
X60313999Y-71482000D01*
X60247333Y-71515333D01*
X60213999Y-71582000D01*
X60213999Y-71948666D01*
X59447333Y-71482000D02*
X59180666Y-71482000D01*
X59347333Y-71948666D02*
X59347333Y-71348666D01*
X59313999Y-71282000D01*
X59247333Y-71248666D01*
X59180666Y-71248666D01*
X58847333Y-71948666D02*
X58913999Y-71915333D01*
X58947333Y-71882000D01*
X58980666Y-71815333D01*
X58980666Y-71615333D01*
X58947333Y-71548666D01*
X58913999Y-71515333D01*
X58847333Y-71482000D01*
X58747333Y-71482000D01*
X58680666Y-71515333D01*
X58647333Y-71548666D01*
X58613999Y-71615333D01*
X58613999Y-71815333D01*
X58647333Y-71882000D01*
X58680666Y-71915333D01*
X58747333Y-71948666D01*
X58847333Y-71948666D01*
X58313999Y-71948666D02*
X58313999Y-71482000D01*
X58313999Y-71615333D02*
X58280666Y-71548666D01*
X58247333Y-71515333D01*
X58180666Y-71482000D01*
X58113999Y-71482000D01*
X57380666Y-71915333D02*
X57280666Y-71948666D01*
X57113999Y-71948666D01*
X57047333Y-71915333D01*
X57013999Y-71882000D01*
X56980666Y-71815333D01*
X56980666Y-71748666D01*
X57013999Y-71682000D01*
X57047333Y-71648666D01*
X57113999Y-71615333D01*
X57247333Y-71582000D01*
X57313999Y-71548666D01*
X57347333Y-71515333D01*
X57380666Y-71448666D01*
X57380666Y-71382000D01*
X57347333Y-71315333D01*
X57313999Y-71282000D01*
X57247333Y-71248666D01*
X57080666Y-71248666D01*
X56980666Y-71282000D01*
X56713999Y-71915333D02*
X56613999Y-71948666D01*
X56447333Y-71948666D01*
X56380666Y-71915333D01*
X56347333Y-71882000D01*
X56313999Y-71815333D01*
X56313999Y-71748666D01*
X56347333Y-71682000D01*
X56380666Y-71648666D01*
X56447333Y-71615333D01*
X56580666Y-71582000D01*
X56647333Y-71548666D01*
X56680666Y-71515333D01*
X56713999Y-71448666D01*
X56713999Y-71382000D01*
X56680666Y-71315333D01*
X56647333Y-71282000D01*
X56580666Y-71248666D01*
X56413999Y-71248666D01*
X56313999Y-71282000D01*
X56113999Y-71248666D02*
X55713999Y-71248666D01*
X55913999Y-71948666D02*
X55913999Y-71248666D01*
X55547333Y-71248666D02*
X55113999Y-71248666D01*
X55347333Y-71515333D01*
X55247333Y-71515333D01*
X55180666Y-71548666D01*
X55147333Y-71582000D01*
X55113999Y-71648666D01*
X55113999Y-71815333D01*
X55147333Y-71882000D01*
X55180666Y-71915333D01*
X55247333Y-71948666D01*
X55447333Y-71948666D01*
X55513999Y-71915333D01*
X55547333Y-71882000D01*
X54780666Y-71948666D02*
X54647333Y-71948666D01*
X54580666Y-71915333D01*
X54547333Y-71882000D01*
X54480666Y-71782000D01*
X54447333Y-71648666D01*
X54447333Y-71382000D01*
X54480666Y-71315333D01*
X54513999Y-71282000D01*
X54580666Y-71248666D01*
X54713999Y-71248666D01*
X54780666Y-71282000D01*
X54813999Y-71315333D01*
X54847333Y-71382000D01*
X54847333Y-71548666D01*
X54813999Y-71615333D01*
X54780666Y-71648666D01*
X54713999Y-71682000D01*
X54580666Y-71682000D01*
X54513999Y-71648666D01*
X54480666Y-71615333D01*
X54447333Y-71548666D01*
X54180666Y-71915333D02*
X54080666Y-71948666D01*
X53913999Y-71948666D01*
X53847333Y-71915333D01*
X53813999Y-71882000D01*
X53780666Y-71815333D01*
X53780666Y-71748666D01*
X53813999Y-71682000D01*
X53847333Y-71648666D01*
X53913999Y-71615333D01*
X54047333Y-71582000D01*
X54113999Y-71548666D01*
X54147333Y-71515333D01*
X54180666Y-71448666D01*
X54180666Y-71382000D01*
X54147333Y-71315333D01*
X54113999Y-71282000D01*
X54047333Y-71248666D01*
X53880666Y-71248666D01*
X53780666Y-71282000D01*
X53247333Y-71582000D02*
X53480666Y-71582000D01*
X53480666Y-71948666D02*
X53480666Y-71248666D01*
X53147333Y-71248666D01*
X52747333Y-71248666D02*
X52680666Y-71248666D01*
X52613999Y-71282000D01*
X52580666Y-71315333D01*
X52547333Y-71382000D01*
X52513999Y-71515333D01*
X52513999Y-71682000D01*
X52547333Y-71815333D01*
X52580666Y-71882000D01*
X52613999Y-71915333D01*
X52680666Y-71948666D01*
X52747333Y-71948666D01*
X52813999Y-71915333D01*
X52847333Y-71882000D01*
X52880666Y-71815333D01*
X52913999Y-71682000D01*
X52913999Y-71515333D01*
X52880666Y-71382000D01*
X52847333Y-71315333D01*
X52813999Y-71282000D01*
X52747333Y-71248666D01*
X52247333Y-71315333D02*
X52213999Y-71282000D01*
X52147333Y-71248666D01*
X51980666Y-71248666D01*
X51913999Y-71282000D01*
X51880666Y-71315333D01*
X51847333Y-71382000D01*
X51847333Y-71448666D01*
X51880666Y-71548666D01*
X52280666Y-71948666D01*
X51847333Y-71948666D01*
X51413999Y-71248666D02*
X51347333Y-71248666D01*
X51280666Y-71282000D01*
X51247333Y-71315333D01*
X51213999Y-71382000D01*
X51180666Y-71515333D01*
X51180666Y-71682000D01*
X51213999Y-71815333D01*
X51247333Y-71882000D01*
X51280666Y-71915333D01*
X51347333Y-71948666D01*
X51413999Y-71948666D01*
X51480666Y-71915333D01*
X51513999Y-71882000D01*
X51547333Y-71815333D01*
X51580666Y-71682000D01*
X51580666Y-71515333D01*
X51547333Y-71382000D01*
X51513999Y-71315333D01*
X51480666Y-71282000D01*
X51413999Y-71248666D01*
D10*
X113535904Y-68612380D02*
X114012095Y-68612380D01*
X114012095Y-67612380D01*
X113202571Y-68612380D02*
X113202571Y-67612380D01*
X112726380Y-68612380D02*
X112726380Y-67612380D01*
X112154952Y-68612380D01*
X112154952Y-67612380D01*
X111678761Y-68612380D02*
X111678761Y-67612380D01*
X111107333Y-68612380D02*
X111535904Y-68040952D01*
X111107333Y-67612380D02*
X111678761Y-68183809D01*
X109916857Y-68612380D02*
X109916857Y-67612380D01*
X109678761Y-67612380D01*
X109535904Y-67660000D01*
X109440666Y-67755238D01*
X109393047Y-67850476D01*
X109345428Y-68040952D01*
X109345428Y-68183809D01*
X109393047Y-68374285D01*
X109440666Y-68469523D01*
X109535904Y-68564761D01*
X109678761Y-68612380D01*
X109916857Y-68612380D01*
X108916857Y-68612380D02*
X108916857Y-67612380D01*
X108440666Y-68612380D02*
X108440666Y-67612380D01*
X108059714Y-67612380D01*
X107964476Y-67660000D01*
X107916857Y-67707619D01*
X107869238Y-67802857D01*
X107869238Y-67945714D01*
X107916857Y-68040952D01*
X107964476Y-68088571D01*
X108059714Y-68136190D01*
X108440666Y-68136190D01*
X107488285Y-68564761D02*
X107345428Y-68612380D01*
X107107333Y-68612380D01*
X107012095Y-68564761D01*
X106964476Y-68517142D01*
X106916857Y-68421904D01*
X106916857Y-68326666D01*
X106964476Y-68231428D01*
X107012095Y-68183809D01*
X107107333Y-68136190D01*
X107297809Y-68088571D01*
X107393047Y-68040952D01*
X107440666Y-67993333D01*
X107488285Y-67898095D01*
X107488285Y-67802857D01*
X107440666Y-67707619D01*
X107393047Y-67660000D01*
X107297809Y-67612380D01*
X107059714Y-67612380D01*
X106916857Y-67660000D01*
X106583523Y-67612380D02*
X106345428Y-68612380D01*
X106154952Y-67898095D01*
X105964476Y-68612380D01*
X105726380Y-67612380D01*
X105345428Y-68612380D02*
X105345428Y-67612380D01*
X105012095Y-67612380D02*
X104440666Y-67612380D01*
X104726380Y-68612380D02*
X104726380Y-67612380D01*
X103535904Y-68517142D02*
X103583523Y-68564761D01*
X103726380Y-68612380D01*
X103821619Y-68612380D01*
X103964476Y-68564761D01*
X104059714Y-68469523D01*
X104107333Y-68374285D01*
X104154952Y-68183809D01*
X104154952Y-68040952D01*
X104107333Y-67850476D01*
X104059714Y-67755238D01*
X103964476Y-67660000D01*
X103821619Y-67612380D01*
X103726380Y-67612380D01*
X103583523Y-67660000D01*
X103535904Y-67707619D01*
X103107333Y-68612380D02*
X103107333Y-67612380D01*
X103107333Y-68088571D02*
X102535904Y-68088571D01*
X102535904Y-68612380D02*
X102535904Y-67612380D01*
D12*
X115274000Y-67160000D02*
X100274000Y-67160000D01*
D10*
X114284619Y-66579333D02*
X113284619Y-66246000D01*
X114284619Y-65912666D01*
X113379857Y-65007904D02*
X113332238Y-65055523D01*
X113284619Y-65198380D01*
X113284619Y-65293619D01*
X113332238Y-65436476D01*
X113427476Y-65531714D01*
X113522714Y-65579333D01*
X113713190Y-65626952D01*
X113856047Y-65626952D01*
X114046523Y-65579333D01*
X114141761Y-65531714D01*
X114237000Y-65436476D01*
X114284619Y-65293619D01*
X114284619Y-65198380D01*
X114237000Y-65055523D01*
X114189380Y-65007904D01*
X113379857Y-64007904D02*
X113332238Y-64055523D01*
X113284619Y-64198380D01*
X113284619Y-64293619D01*
X113332238Y-64436476D01*
X113427476Y-64531714D01*
X113522714Y-64579333D01*
X113713190Y-64626952D01*
X113856047Y-64626952D01*
X114046523Y-64579333D01*
X114141761Y-64531714D01*
X114237000Y-64436476D01*
X114284619Y-64293619D01*
X114284619Y-64198380D01*
X114237000Y-64055523D01*
X114189380Y-64007904D01*
X111037333Y-66474476D02*
X111037333Y-65998285D01*
X110751619Y-66569714D02*
X111751619Y-66236380D01*
X110751619Y-65903047D01*
X110751619Y-65045904D02*
X110751619Y-65617333D01*
X110751619Y-65331619D02*
X111751619Y-65331619D01*
X111608761Y-65426857D01*
X111513523Y-65522095D01*
X111465904Y-65617333D01*
X111418285Y-64188761D02*
X110751619Y-64188761D01*
X111799238Y-64426857D02*
X111084952Y-64664952D01*
X111084952Y-64045904D01*
X108467133Y-66474476D02*
X108467133Y-65998285D01*
X108181419Y-66569714D02*
X109181419Y-66236380D01*
X108181419Y-65903047D01*
X108181419Y-65045904D02*
X108181419Y-65617333D01*
X108181419Y-65331619D02*
X109181419Y-65331619D01*
X109038561Y-65426857D01*
X108943323Y-65522095D01*
X108895704Y-65617333D01*
X109181419Y-64141142D02*
X109181419Y-64617333D01*
X108705228Y-64664952D01*
X108752847Y-64617333D01*
X108800466Y-64522095D01*
X108800466Y-64284000D01*
X108752847Y-64188761D01*
X108705228Y-64141142D01*
X108609990Y-64093523D01*
X108371895Y-64093523D01*
X108276657Y-64141142D01*
X108229038Y-64188761D01*
X108181419Y-64284000D01*
X108181419Y-64522095D01*
X108229038Y-64617333D01*
X108276657Y-64664952D01*
X105896933Y-66474476D02*
X105896933Y-65998285D01*
X105611219Y-66569714D02*
X106611219Y-66236380D01*
X105611219Y-65903047D01*
X105611219Y-65045904D02*
X105611219Y-65617333D01*
X105611219Y-65331619D02*
X106611219Y-65331619D01*
X106468361Y-65426857D01*
X106373123Y-65522095D01*
X106325504Y-65617333D01*
X106611219Y-64188761D02*
X106611219Y-64379238D01*
X106563600Y-64474476D01*
X106515980Y-64522095D01*
X106373123Y-64617333D01*
X106182647Y-64664952D01*
X105801695Y-64664952D01*
X105706457Y-64617333D01*
X105658838Y-64569714D01*
X105611219Y-64474476D01*
X105611219Y-64284000D01*
X105658838Y-64188761D01*
X105706457Y-64141142D01*
X105801695Y-64093523D01*
X106039790Y-64093523D01*
X106135028Y-64141142D01*
X106182647Y-64188761D01*
X106230266Y-64284000D01*
X106230266Y-64474476D01*
X106182647Y-64569714D01*
X106135028Y-64617333D01*
X106039790Y-64664952D01*
X103326733Y-66474476D02*
X103326733Y-65998285D01*
X103041019Y-66569714D02*
X104041019Y-66236380D01*
X103041019Y-65903047D01*
X103041019Y-65045904D02*
X103041019Y-65617333D01*
X103041019Y-65331619D02*
X104041019Y-65331619D01*
X103898161Y-65426857D01*
X103802923Y-65522095D01*
X103755304Y-65617333D01*
X104041019Y-64712571D02*
X104041019Y-64045904D01*
X103041019Y-64474476D01*
X100756533Y-66474476D02*
X100756533Y-65998285D01*
X100470819Y-66569714D02*
X101470819Y-66236380D01*
X100470819Y-65903047D01*
X100470819Y-65045904D02*
X100470819Y-65617333D01*
X100470819Y-65331619D02*
X101470819Y-65331619D01*
X101327961Y-65426857D01*
X101232723Y-65522095D01*
X101185104Y-65617333D01*
X101042247Y-64474476D02*
X101089866Y-64569714D01*
X101137485Y-64617333D01*
X101232723Y-64664952D01*
X101280342Y-64664952D01*
X101375580Y-64617333D01*
X101423200Y-64569714D01*
X101470819Y-64474476D01*
X101470819Y-64284000D01*
X101423200Y-64188761D01*
X101375580Y-64141142D01*
X101280342Y-64093523D01*
X101232723Y-64093523D01*
X101137485Y-64141142D01*
X101089866Y-64188761D01*
X101042247Y-64284000D01*
X101042247Y-64474476D01*
X100994628Y-64569714D01*
X100947009Y-64617333D01*
X100851771Y-64664952D01*
X100661295Y-64664952D01*
X100566057Y-64617333D01*
X100518438Y-64569714D01*
X100470819Y-64474476D01*
X100470819Y-64284000D01*
X100518438Y-64188761D01*
X100566057Y-64141142D01*
X100661295Y-64093523D01*
X100851771Y-64093523D01*
X100947009Y-64141142D01*
X100994628Y-64188761D01*
X101042247Y-64284000D01*
X68937619Y-130754380D02*
X68937619Y-129754380D01*
X68699523Y-129754380D01*
X68556666Y-129802000D01*
X68461428Y-129897238D01*
X68413809Y-129992476D01*
X68366190Y-130182952D01*
X68366190Y-130325809D01*
X68413809Y-130516285D01*
X68461428Y-130611523D01*
X68556666Y-130706761D01*
X68699523Y-130754380D01*
X68937619Y-130754380D01*
X67651904Y-131087714D02*
X67890000Y-131087714D01*
X67890000Y-129659142D01*
X67651904Y-129659142D01*
X66842380Y-129754380D02*
X67032857Y-129754380D01*
X67128095Y-129802000D01*
X67175714Y-129849619D01*
X67270952Y-129992476D01*
X67318571Y-130182952D01*
X67318571Y-130563904D01*
X67270952Y-130659142D01*
X67223333Y-130706761D01*
X67128095Y-130754380D01*
X66937619Y-130754380D01*
X66842380Y-130706761D01*
X66794761Y-130659142D01*
X66747142Y-130563904D01*
X66747142Y-130325809D01*
X66794761Y-130230571D01*
X66842380Y-130182952D01*
X66937619Y-130135333D01*
X67128095Y-130135333D01*
X67223333Y-130182952D01*
X67270952Y-130230571D01*
X67318571Y-130325809D01*
X66270952Y-130706761D02*
X66270952Y-130754380D01*
X66318571Y-130849619D01*
X66366190Y-130897238D01*
X65413809Y-130087714D02*
X65413809Y-130754380D01*
X65651904Y-129706761D02*
X65890000Y-130421047D01*
X65270952Y-130421047D01*
X64842380Y-130706761D02*
X64842380Y-130754380D01*
X64890000Y-130849619D01*
X64937619Y-130897238D01*
X64461428Y-129849619D02*
X64413809Y-129802000D01*
X64318571Y-129754380D01*
X64080476Y-129754380D01*
X63985238Y-129802000D01*
X63937619Y-129849619D01*
X63890000Y-129944857D01*
X63890000Y-130040095D01*
X63937619Y-130182952D01*
X64509047Y-130754380D01*
X63890000Y-130754380D01*
X63413809Y-130706761D02*
X63413809Y-130754380D01*
X63461428Y-130849619D01*
X63509047Y-130897238D01*
X62794761Y-129754380D02*
X62699523Y-129754380D01*
X62604285Y-129802000D01*
X62556666Y-129849619D01*
X62509047Y-129944857D01*
X62461428Y-130135333D01*
X62461428Y-130373428D01*
X62509047Y-130563904D01*
X62556666Y-130659142D01*
X62604285Y-130706761D01*
X62699523Y-130754380D01*
X62794761Y-130754380D01*
X62890000Y-130706761D01*
X62937619Y-130659142D01*
X62985238Y-130563904D01*
X63032857Y-130373428D01*
X63032857Y-130135333D01*
X62985238Y-129944857D01*
X62937619Y-129849619D01*
X62890000Y-129802000D01*
X62794761Y-129754380D01*
X62128095Y-131087714D02*
X61890000Y-131087714D01*
X61890000Y-129659142D01*
X62128095Y-129659142D01*
X91773571Y-130468666D02*
X91297380Y-130468666D01*
X91868809Y-130754380D02*
X91535476Y-129754380D01*
X91202142Y-130754380D01*
X90583095Y-131087714D02*
X90821190Y-131087714D01*
X90821190Y-129659142D01*
X90583095Y-129659142D01*
X89678333Y-130754380D02*
X90249761Y-130754380D01*
X89964047Y-130754380D02*
X89964047Y-129754380D01*
X90059285Y-129897238D01*
X90154523Y-129992476D01*
X90249761Y-130040095D01*
X89059285Y-129754380D02*
X88964047Y-129754380D01*
X88868809Y-129802000D01*
X88821190Y-129849619D01*
X88773571Y-129944857D01*
X88725952Y-130135333D01*
X88725952Y-130373428D01*
X88773571Y-130563904D01*
X88821190Y-130659142D01*
X88868809Y-130706761D01*
X88964047Y-130754380D01*
X89059285Y-130754380D01*
X89154523Y-130706761D01*
X89202142Y-130659142D01*
X89249761Y-130563904D01*
X89297380Y-130373428D01*
X89297380Y-130135333D01*
X89249761Y-129944857D01*
X89202142Y-129849619D01*
X89154523Y-129802000D01*
X89059285Y-129754380D01*
X88249761Y-130706761D02*
X88249761Y-130754380D01*
X88297380Y-130849619D01*
X88345000Y-130897238D01*
X87678333Y-130182952D02*
X87773571Y-130135333D01*
X87821190Y-130087714D01*
X87868809Y-129992476D01*
X87868809Y-129944857D01*
X87821190Y-129849619D01*
X87773571Y-129802000D01*
X87678333Y-129754380D01*
X87487857Y-129754380D01*
X87392619Y-129802000D01*
X87345000Y-129849619D01*
X87297380Y-129944857D01*
X87297380Y-129992476D01*
X87345000Y-130087714D01*
X87392619Y-130135333D01*
X87487857Y-130182952D01*
X87678333Y-130182952D01*
X87773571Y-130230571D01*
X87821190Y-130278190D01*
X87868809Y-130373428D01*
X87868809Y-130563904D01*
X87821190Y-130659142D01*
X87773571Y-130706761D01*
X87678333Y-130754380D01*
X87487857Y-130754380D01*
X87392619Y-130706761D01*
X87345000Y-130659142D01*
X87297380Y-130563904D01*
X87297380Y-130373428D01*
X87345000Y-130278190D01*
X87392619Y-130230571D01*
X87487857Y-130182952D01*
X86821190Y-130706761D02*
X86821190Y-130754380D01*
X86868809Y-130849619D01*
X86916428Y-130897238D01*
X85964047Y-129754380D02*
X86154523Y-129754380D01*
X86249761Y-129802000D01*
X86297380Y-129849619D01*
X86392619Y-129992476D01*
X86440238Y-130182952D01*
X86440238Y-130563904D01*
X86392619Y-130659142D01*
X86345000Y-130706761D01*
X86249761Y-130754380D01*
X86059285Y-130754380D01*
X85964047Y-130706761D01*
X85916428Y-130659142D01*
X85868809Y-130563904D01*
X85868809Y-130325809D01*
X85916428Y-130230571D01*
X85964047Y-130182952D01*
X86059285Y-130135333D01*
X86249761Y-130135333D01*
X86345000Y-130182952D01*
X86392619Y-130230571D01*
X86440238Y-130325809D01*
X85392619Y-130706761D02*
X85392619Y-130754380D01*
X85440238Y-130849619D01*
X85487857Y-130897238D01*
X84535476Y-130087714D02*
X84535476Y-130754380D01*
X84773571Y-129706761D02*
X85011666Y-130421047D01*
X84392619Y-130421047D01*
X83964047Y-130706761D02*
X83964047Y-130754380D01*
X84011666Y-130849619D01*
X84059285Y-130897238D01*
X83583095Y-129849619D02*
X83535476Y-129802000D01*
X83440238Y-129754380D01*
X83202142Y-129754380D01*
X83106904Y-129802000D01*
X83059285Y-129849619D01*
X83011666Y-129944857D01*
X83011666Y-130040095D01*
X83059285Y-130182952D01*
X83630714Y-130754380D01*
X83011666Y-130754380D01*
X82535476Y-130706761D02*
X82535476Y-130754380D01*
X82583095Y-130849619D01*
X82630714Y-130897238D01*
X81916428Y-129754380D02*
X81821190Y-129754380D01*
X81725952Y-129802000D01*
X81678333Y-129849619D01*
X81630714Y-129944857D01*
X81583095Y-130135333D01*
X81583095Y-130373428D01*
X81630714Y-130563904D01*
X81678333Y-130659142D01*
X81725952Y-130706761D01*
X81821190Y-130754380D01*
X81916428Y-130754380D01*
X82011666Y-130706761D01*
X82059285Y-130659142D01*
X82106904Y-130563904D01*
X82154523Y-130373428D01*
X82154523Y-130135333D01*
X82106904Y-129944857D01*
X82059285Y-129849619D01*
X82011666Y-129802000D01*
X81916428Y-129754380D01*
X81249761Y-131087714D02*
X81011666Y-131087714D01*
X81011666Y-129659142D01*
X81249761Y-129659142D01*
D12*
X72375000Y-131445000D02*
X58278000Y-131445000D01*
X96251000Y-131445000D02*
X74153000Y-131445000D01*
D10*
X111498857Y-133040380D02*
X112070285Y-133040380D01*
X111784571Y-133040380D02*
X111784571Y-132040380D01*
X111879809Y-132183238D01*
X111975047Y-132278476D01*
X112070285Y-132326095D01*
X110594095Y-132040380D02*
X111070285Y-132040380D01*
X111117904Y-132516571D01*
X111070285Y-132468952D01*
X110975047Y-132421333D01*
X110736952Y-132421333D01*
X110641714Y-132468952D01*
X110594095Y-132516571D01*
X110546476Y-132611809D01*
X110546476Y-132849904D01*
X110594095Y-132945142D01*
X110641714Y-132992761D01*
X110736952Y-133040380D01*
X110975047Y-133040380D01*
X111070285Y-132992761D01*
X111117904Y-132945142D01*
X109689333Y-133040380D02*
X109689333Y-132516571D01*
X109736952Y-132421333D01*
X109832190Y-132373714D01*
X110022666Y-132373714D01*
X110117904Y-132421333D01*
X109689333Y-132992761D02*
X109784571Y-133040380D01*
X110022666Y-133040380D01*
X110117904Y-132992761D01*
X110165523Y-132897523D01*
X110165523Y-132802285D01*
X110117904Y-132707047D01*
X110022666Y-132659428D01*
X109784571Y-132659428D01*
X109689333Y-132611809D01*
X103624857Y-133040380D02*
X104196285Y-133040380D01*
X103910571Y-133040380D02*
X103910571Y-132040380D01*
X104005809Y-132183238D01*
X104101047Y-132278476D01*
X104196285Y-132326095D01*
X103291523Y-132040380D02*
X102672476Y-132040380D01*
X103005809Y-132421333D01*
X102862952Y-132421333D01*
X102767714Y-132468952D01*
X102720095Y-132516571D01*
X102672476Y-132611809D01*
X102672476Y-132849904D01*
X102720095Y-132945142D01*
X102767714Y-132992761D01*
X102862952Y-133040380D01*
X103148666Y-133040380D01*
X103243904Y-132992761D01*
X103291523Y-132945142D01*
X101815333Y-133040380D02*
X101815333Y-132516571D01*
X101862952Y-132421333D01*
X101958190Y-132373714D01*
X102148666Y-132373714D01*
X102243904Y-132421333D01*
X101815333Y-132992761D02*
X101910571Y-133040380D01*
X102148666Y-133040380D01*
X102243904Y-132992761D01*
X102291523Y-132897523D01*
X102291523Y-132802285D01*
X102243904Y-132707047D01*
X102148666Y-132659428D01*
X101910571Y-132659428D01*
X101815333Y-132611809D01*
X99687857Y-133040380D02*
X100259285Y-133040380D01*
X99973571Y-133040380D02*
X99973571Y-132040380D01*
X100068809Y-132183238D01*
X100164047Y-132278476D01*
X100259285Y-132326095D01*
X99306904Y-132135619D02*
X99259285Y-132088000D01*
X99164047Y-132040380D01*
X98925952Y-132040380D01*
X98830714Y-132088000D01*
X98783095Y-132135619D01*
X98735476Y-132230857D01*
X98735476Y-132326095D01*
X98783095Y-132468952D01*
X99354523Y-133040380D01*
X98735476Y-133040380D01*
X97878333Y-133040380D02*
X97878333Y-132516571D01*
X97925952Y-132421333D01*
X98021190Y-132373714D01*
X98211666Y-132373714D01*
X98306904Y-132421333D01*
X97878333Y-132992761D02*
X97973571Y-133040380D01*
X98211666Y-133040380D01*
X98306904Y-132992761D01*
X98354523Y-132897523D01*
X98354523Y-132802285D01*
X98306904Y-132707047D01*
X98211666Y-132659428D01*
X97973571Y-132659428D01*
X97878333Y-132611809D01*
X95750857Y-133040380D02*
X96322285Y-133040380D01*
X96036571Y-133040380D02*
X96036571Y-132040380D01*
X96131809Y-132183238D01*
X96227047Y-132278476D01*
X96322285Y-132326095D01*
X94798476Y-133040380D02*
X95369904Y-133040380D01*
X95084190Y-133040380D02*
X95084190Y-132040380D01*
X95179428Y-132183238D01*
X95274666Y-132278476D01*
X95369904Y-132326095D01*
X93941333Y-133040380D02*
X93941333Y-132516571D01*
X93988952Y-132421333D01*
X94084190Y-132373714D01*
X94274666Y-132373714D01*
X94369904Y-132421333D01*
X93941333Y-132992761D02*
X94036571Y-133040380D01*
X94274666Y-133040380D01*
X94369904Y-132992761D01*
X94417523Y-132897523D01*
X94417523Y-132802285D01*
X94369904Y-132707047D01*
X94274666Y-132659428D01*
X94036571Y-132659428D01*
X93941333Y-132611809D01*
X91686857Y-133040380D02*
X92258285Y-133040380D01*
X91972571Y-133040380D02*
X91972571Y-132040380D01*
X92067809Y-132183238D01*
X92163047Y-132278476D01*
X92258285Y-132326095D01*
X91067809Y-132040380D02*
X90972571Y-132040380D01*
X90877333Y-132088000D01*
X90829714Y-132135619D01*
X90782095Y-132230857D01*
X90734476Y-132421333D01*
X90734476Y-132659428D01*
X90782095Y-132849904D01*
X90829714Y-132945142D01*
X90877333Y-132992761D01*
X90972571Y-133040380D01*
X91067809Y-133040380D01*
X91163047Y-132992761D01*
X91210666Y-132945142D01*
X91258285Y-132849904D01*
X91305904Y-132659428D01*
X91305904Y-132421333D01*
X91258285Y-132230857D01*
X91210666Y-132135619D01*
X91163047Y-132088000D01*
X91067809Y-132040380D01*
X89877333Y-133040380D02*
X89877333Y-132516571D01*
X89924952Y-132421333D01*
X90020190Y-132373714D01*
X90210666Y-132373714D01*
X90305904Y-132421333D01*
X89877333Y-132992761D02*
X89972571Y-133040380D01*
X90210666Y-133040380D01*
X90305904Y-132992761D01*
X90353523Y-132897523D01*
X90353523Y-132802285D01*
X90305904Y-132707047D01*
X90210666Y-132659428D01*
X89972571Y-132659428D01*
X89877333Y-132611809D01*
X87749857Y-133040380D02*
X87559380Y-133040380D01*
X87464142Y-132992761D01*
X87416523Y-132945142D01*
X87321285Y-132802285D01*
X87273666Y-132611809D01*
X87273666Y-132230857D01*
X87321285Y-132135619D01*
X87368904Y-132088000D01*
X87464142Y-132040380D01*
X87654619Y-132040380D01*
X87749857Y-132088000D01*
X87797476Y-132135619D01*
X87845095Y-132230857D01*
X87845095Y-132468952D01*
X87797476Y-132564190D01*
X87749857Y-132611809D01*
X87654619Y-132659428D01*
X87464142Y-132659428D01*
X87368904Y-132611809D01*
X87321285Y-132564190D01*
X87273666Y-132468952D01*
X86416523Y-133040380D02*
X86416523Y-132516571D01*
X86464142Y-132421333D01*
X86559380Y-132373714D01*
X86749857Y-132373714D01*
X86845095Y-132421333D01*
X86416523Y-132992761D02*
X86511761Y-133040380D01*
X86749857Y-133040380D01*
X86845095Y-132992761D01*
X86892714Y-132897523D01*
X86892714Y-132802285D01*
X86845095Y-132707047D01*
X86749857Y-132659428D01*
X86511761Y-132659428D01*
X86416523Y-132611809D01*
X83717619Y-132468952D02*
X83812857Y-132421333D01*
X83860476Y-132373714D01*
X83908095Y-132278476D01*
X83908095Y-132230857D01*
X83860476Y-132135619D01*
X83812857Y-132088000D01*
X83717619Y-132040380D01*
X83527142Y-132040380D01*
X83431904Y-132088000D01*
X83384285Y-132135619D01*
X83336666Y-132230857D01*
X83336666Y-132278476D01*
X83384285Y-132373714D01*
X83431904Y-132421333D01*
X83527142Y-132468952D01*
X83717619Y-132468952D01*
X83812857Y-132516571D01*
X83860476Y-132564190D01*
X83908095Y-132659428D01*
X83908095Y-132849904D01*
X83860476Y-132945142D01*
X83812857Y-132992761D01*
X83717619Y-133040380D01*
X83527142Y-133040380D01*
X83431904Y-132992761D01*
X83384285Y-132945142D01*
X83336666Y-132849904D01*
X83336666Y-132659428D01*
X83384285Y-132564190D01*
X83431904Y-132516571D01*
X83527142Y-132468952D01*
X82479523Y-133040380D02*
X82479523Y-132516571D01*
X82527142Y-132421333D01*
X82622380Y-132373714D01*
X82812857Y-132373714D01*
X82908095Y-132421333D01*
X82479523Y-132992761D02*
X82574761Y-133040380D01*
X82812857Y-133040380D01*
X82908095Y-132992761D01*
X82955714Y-132897523D01*
X82955714Y-132802285D01*
X82908095Y-132707047D01*
X82812857Y-132659428D01*
X82574761Y-132659428D01*
X82479523Y-132611809D01*
X79891714Y-132040380D02*
X79225047Y-132040380D01*
X79653619Y-133040380D01*
X78415523Y-133040380D02*
X78415523Y-132516571D01*
X78463142Y-132421333D01*
X78558380Y-132373714D01*
X78748857Y-132373714D01*
X78844095Y-132421333D01*
X78415523Y-132992761D02*
X78510761Y-133040380D01*
X78748857Y-133040380D01*
X78844095Y-132992761D01*
X78891714Y-132897523D01*
X78891714Y-132802285D01*
X78844095Y-132707047D01*
X78748857Y-132659428D01*
X78510761Y-132659428D01*
X78415523Y-132611809D01*
X75430904Y-132040380D02*
X75621380Y-132040380D01*
X75716619Y-132088000D01*
X75764238Y-132135619D01*
X75859476Y-132278476D01*
X75907095Y-132468952D01*
X75907095Y-132849904D01*
X75859476Y-132945142D01*
X75811857Y-132992761D01*
X75716619Y-133040380D01*
X75526142Y-133040380D01*
X75430904Y-132992761D01*
X75383285Y-132945142D01*
X75335666Y-132849904D01*
X75335666Y-132611809D01*
X75383285Y-132516571D01*
X75430904Y-132468952D01*
X75526142Y-132421333D01*
X75716619Y-132421333D01*
X75811857Y-132468952D01*
X75859476Y-132516571D01*
X75907095Y-132611809D01*
X74478523Y-133040380D02*
X74478523Y-132516571D01*
X74526142Y-132421333D01*
X74621380Y-132373714D01*
X74811857Y-132373714D01*
X74907095Y-132421333D01*
X74478523Y-132992761D02*
X74573761Y-133040380D01*
X74811857Y-133040380D01*
X74907095Y-132992761D01*
X74954714Y-132897523D01*
X74954714Y-132802285D01*
X74907095Y-132707047D01*
X74811857Y-132659428D01*
X74573761Y-132659428D01*
X74478523Y-132611809D01*
X71446285Y-132040380D02*
X71922476Y-132040380D01*
X71970095Y-132516571D01*
X71922476Y-132468952D01*
X71827238Y-132421333D01*
X71589142Y-132421333D01*
X71493904Y-132468952D01*
X71446285Y-132516571D01*
X71398666Y-132611809D01*
X71398666Y-132849904D01*
X71446285Y-132945142D01*
X71493904Y-132992761D01*
X71589142Y-133040380D01*
X71827238Y-133040380D01*
X71922476Y-132992761D01*
X71970095Y-132945142D01*
X70541523Y-133040380D02*
X70541523Y-132516571D01*
X70589142Y-132421333D01*
X70684380Y-132373714D01*
X70874857Y-132373714D01*
X70970095Y-132421333D01*
X70541523Y-132992761D02*
X70636761Y-133040380D01*
X70874857Y-133040380D01*
X70970095Y-132992761D01*
X71017714Y-132897523D01*
X71017714Y-132802285D01*
X70970095Y-132707047D01*
X70874857Y-132659428D01*
X70636761Y-132659428D01*
X70541523Y-132611809D01*
X67556904Y-132373714D02*
X67556904Y-133040380D01*
X67795000Y-131992761D02*
X68033095Y-132707047D01*
X67414047Y-132707047D01*
X66604523Y-133040380D02*
X66604523Y-132516571D01*
X66652142Y-132421333D01*
X66747380Y-132373714D01*
X66937857Y-132373714D01*
X67033095Y-132421333D01*
X66604523Y-132992761D02*
X66699761Y-133040380D01*
X66937857Y-133040380D01*
X67033095Y-132992761D01*
X67080714Y-132897523D01*
X67080714Y-132802285D01*
X67033095Y-132707047D01*
X66937857Y-132659428D01*
X66699761Y-132659428D01*
X66604523Y-132611809D01*
X64143714Y-132040380D02*
X63524666Y-132040380D01*
X63858000Y-132421333D01*
X63715142Y-132421333D01*
X63619904Y-132468952D01*
X63572285Y-132516571D01*
X63524666Y-132611809D01*
X63524666Y-132849904D01*
X63572285Y-132945142D01*
X63619904Y-132992761D01*
X63715142Y-133040380D01*
X64000857Y-133040380D01*
X64096095Y-132992761D01*
X64143714Y-132945142D01*
X62667523Y-133040380D02*
X62667523Y-132516571D01*
X62715142Y-132421333D01*
X62810380Y-132373714D01*
X63000857Y-132373714D01*
X63096095Y-132421333D01*
X62667523Y-132992761D02*
X62762761Y-133040380D01*
X63000857Y-133040380D01*
X63096095Y-132992761D01*
X63143714Y-132897523D01*
X63143714Y-132802285D01*
X63096095Y-132707047D01*
X63000857Y-132659428D01*
X62762761Y-132659428D01*
X62667523Y-132611809D01*
X60032095Y-132135619D02*
X59984476Y-132088000D01*
X59889238Y-132040380D01*
X59651142Y-132040380D01*
X59555904Y-132088000D01*
X59508285Y-132135619D01*
X59460666Y-132230857D01*
X59460666Y-132326095D01*
X59508285Y-132468952D01*
X60079714Y-133040380D01*
X59460666Y-133040380D01*
X58603523Y-133040380D02*
X58603523Y-132516571D01*
X58651142Y-132421333D01*
X58746380Y-132373714D01*
X58936857Y-132373714D01*
X59032095Y-132421333D01*
X58603523Y-132992761D02*
X58698761Y-133040380D01*
X58936857Y-133040380D01*
X59032095Y-132992761D01*
X59079714Y-132897523D01*
X59079714Y-132802285D01*
X59032095Y-132707047D01*
X58936857Y-132659428D01*
X58698761Y-132659428D01*
X58603523Y-132611809D01*
D12*
X75292000Y-84825000D02*
X83417000Y-84825000D01*
X75292000Y-105625000D02*
X75292000Y-84825000D01*
X93542000Y-105625000D02*
X75292000Y-105625000D01*
X93542000Y-85825000D02*
X93542000Y-105625000D01*
X92542000Y-84825000D02*
X93542000Y-85825000D01*
X85417000Y-84825000D02*
X92542000Y-84825000D01*
D14*
G36*
X80881787Y-50303205D02*
G01*
X80867535Y-50306985D01*
X80777977Y-50348724D01*
X80669381Y-50425227D01*
X80554527Y-50524637D01*
X80446196Y-50635097D01*
X80357169Y-50744749D01*
X80306851Y-50827152D01*
X80267424Y-50922982D01*
X80247748Y-51015289D01*
X80249536Y-51113301D01*
X80274498Y-51226250D01*
X80324345Y-51363364D01*
X80400789Y-51533875D01*
X80460753Y-51657304D01*
X80671618Y-52083439D01*
X80594809Y-52099844D01*
X80463568Y-52133723D01*
X80354070Y-52178516D01*
X80251994Y-52243070D01*
X80143018Y-52336233D01*
X80030439Y-52448489D01*
X79860779Y-52640936D01*
X79736911Y-52821513D01*
X79652847Y-53000818D01*
X79602600Y-53189450D01*
X79598618Y-53212844D01*
X79584956Y-53466905D01*
X79622602Y-53716631D01*
X79706943Y-53954388D01*
X79833363Y-54172539D01*
X79997249Y-54363450D01*
X80193986Y-54519484D01*
X80418960Y-54633004D01*
X80467070Y-54649979D01*
X80651769Y-54692121D01*
X80857590Y-54708937D01*
X81062837Y-54700386D01*
X81245809Y-54666427D01*
X81292375Y-54651545D01*
X81430010Y-54593277D01*
X81564535Y-54516020D01*
X81709850Y-54410931D01*
X81842165Y-54301776D01*
X81984648Y-54175543D01*
X82091711Y-54069417D01*
X82173958Y-53970826D01*
X82241993Y-53867198D01*
X82299960Y-53758985D01*
X82385561Y-53525885D01*
X82421787Y-53274700D01*
X82417156Y-53190849D01*
X82309776Y-53190849D01*
X82282235Y-53440125D01*
X82203753Y-53675115D01*
X82078833Y-53887527D01*
X81911980Y-54069065D01*
X81778250Y-54169757D01*
X81536633Y-54294881D01*
X81289508Y-54364093D01*
X81038047Y-54377240D01*
X80783421Y-54334167D01*
X80708977Y-54311077D01*
X80486727Y-54206755D01*
X80295222Y-54060422D01*
X80138144Y-53879600D01*
X80019178Y-53671815D01*
X79942008Y-53444589D01*
X79910318Y-53205446D01*
X79927793Y-52961911D01*
X79968934Y-52799747D01*
X80011834Y-52687321D01*
X80062959Y-52596740D01*
X80135923Y-52507013D01*
X80205075Y-52435661D01*
X80344713Y-52313934D01*
X80476566Y-52238240D01*
X80613856Y-52202219D01*
X80701444Y-52197000D01*
X80858951Y-52218535D01*
X81005981Y-52277738D01*
X81132543Y-52366507D01*
X81228644Y-52476740D01*
X81284294Y-52600334D01*
X81294111Y-52677601D01*
X81288627Y-52713363D01*
X81262278Y-52726681D01*
X81200214Y-52722414D01*
X81170291Y-52718113D01*
X81022165Y-52722916D01*
X80877781Y-52776394D01*
X80752283Y-52871941D01*
X80712964Y-52917555D01*
X80649904Y-53043840D01*
X80630088Y-53189004D01*
X80651028Y-53338838D01*
X80710235Y-53479136D01*
X80805222Y-53595691D01*
X80836127Y-53620839D01*
X80930874Y-53664332D01*
X81054864Y-53686911D01*
X81184301Y-53686972D01*
X81295390Y-53662911D01*
X81316905Y-53653252D01*
X81448492Y-53555183D01*
X81508799Y-53469357D01*
X81265853Y-53469357D01*
X81257864Y-53539067D01*
X81247074Y-53561074D01*
X81209453Y-53572683D01*
X81137590Y-53579301D01*
X81106945Y-53579889D01*
X81006487Y-53567746D01*
X80922888Y-53523014D01*
X80890744Y-53496578D01*
X80807194Y-53396707D01*
X80756886Y-53281132D01*
X80745878Y-53167372D01*
X80758231Y-53113322D01*
X80779833Y-53067515D01*
X80810181Y-53048195D01*
X80867349Y-53049036D01*
X80920835Y-53056406D01*
X81015287Y-53069555D01*
X81095720Y-53079150D01*
X81117481Y-53081168D01*
X81172700Y-53106617D01*
X81217729Y-53178963D01*
X81223314Y-53192405D01*
X81247338Y-53276786D01*
X81261931Y-53375517D01*
X81265853Y-53469357D01*
X81508799Y-53469357D01*
X81541576Y-53422712D01*
X81590390Y-53267418D01*
X81589869Y-53105181D01*
X81573931Y-53057296D01*
X81535531Y-52965077D01*
X81477496Y-52834650D01*
X81402658Y-52672143D01*
X81313847Y-52483680D01*
X81213892Y-52275389D01*
X81105624Y-52053396D01*
X81079056Y-51999445D01*
X80952248Y-51740233D01*
X80840270Y-51506904D01*
X80745065Y-51303722D01*
X80668576Y-51134947D01*
X80612747Y-51004844D01*
X80579522Y-50917674D01*
X80570776Y-50884667D01*
X80580449Y-50749573D01*
X80635915Y-50617753D01*
X80728181Y-50506078D01*
X80800222Y-50454186D01*
X80849946Y-50425732D01*
X80892426Y-50404338D01*
X80930593Y-50393820D01*
X80967381Y-50397990D01*
X81005721Y-50420663D01*
X81048546Y-50465652D01*
X81098788Y-50536772D01*
X81159380Y-50637836D01*
X81233252Y-50772658D01*
X81323339Y-50945052D01*
X81432571Y-51158833D01*
X81563882Y-51417813D01*
X81607978Y-51504811D01*
X81766377Y-51818830D01*
X81899996Y-52087787D01*
X82010777Y-52316344D01*
X82100658Y-52509160D01*
X82171579Y-52670895D01*
X82225480Y-52806208D01*
X82264300Y-52919760D01*
X82289980Y-53016210D01*
X82304457Y-53100217D01*
X82309673Y-53176443D01*
X82309776Y-53190849D01*
X82417156Y-53190849D01*
X82407532Y-53016604D01*
X82384694Y-52902556D01*
X82362913Y-52840526D01*
X82318527Y-52734959D01*
X82254787Y-52592486D01*
X82174947Y-52419744D01*
X82082260Y-52223365D01*
X81979979Y-52009984D01*
X81871358Y-51786235D01*
X81759649Y-51558752D01*
X81648106Y-51334168D01*
X81539982Y-51119119D01*
X81438529Y-50920237D01*
X81347001Y-50744157D01*
X81268652Y-50597514D01*
X81206733Y-50486940D01*
X81173090Y-50431757D01*
X81107622Y-50341563D01*
X81049073Y-50294901D01*
X80979707Y-50284529D01*
X80881787Y-50303205D01*
G37*
X80881787Y-50303205D02*
X80867535Y-50306985D01*
X80777977Y-50348724D01*
X80669381Y-50425227D01*
X80554527Y-50524637D01*
X80446196Y-50635097D01*
X80357169Y-50744749D01*
X80306851Y-50827152D01*
X80267424Y-50922982D01*
X80247748Y-51015289D01*
X80249536Y-51113301D01*
X80274498Y-51226250D01*
X80324345Y-51363364D01*
X80400789Y-51533875D01*
X80460753Y-51657304D01*
X80671618Y-52083439D01*
X80594809Y-52099844D01*
X80463568Y-52133723D01*
X80354070Y-52178516D01*
X80251994Y-52243070D01*
X80143018Y-52336233D01*
X80030439Y-52448489D01*
X79860779Y-52640936D01*
X79736911Y-52821513D01*
X79652847Y-53000818D01*
X79602600Y-53189450D01*
X79598618Y-53212844D01*
X79584956Y-53466905D01*
X79622602Y-53716631D01*
X79706943Y-53954388D01*
X79833363Y-54172539D01*
X79997249Y-54363450D01*
X80193986Y-54519484D01*
X80418960Y-54633004D01*
X80467070Y-54649979D01*
X80651769Y-54692121D01*
X80857590Y-54708937D01*
X81062837Y-54700386D01*
X81245809Y-54666427D01*
X81292375Y-54651545D01*
X81430010Y-54593277D01*
X81564535Y-54516020D01*
X81709850Y-54410931D01*
X81842165Y-54301776D01*
X81984648Y-54175543D01*
X82091711Y-54069417D01*
X82173958Y-53970826D01*
X82241993Y-53867198D01*
X82299960Y-53758985D01*
X82385561Y-53525885D01*
X82421787Y-53274700D01*
X82417156Y-53190849D01*
X82309776Y-53190849D01*
X82282235Y-53440125D01*
X82203753Y-53675115D01*
X82078833Y-53887527D01*
X81911980Y-54069065D01*
X81778250Y-54169757D01*
X81536633Y-54294881D01*
X81289508Y-54364093D01*
X81038047Y-54377240D01*
X80783421Y-54334167D01*
X80708977Y-54311077D01*
X80486727Y-54206755D01*
X80295222Y-54060422D01*
X80138144Y-53879600D01*
X80019178Y-53671815D01*
X79942008Y-53444589D01*
X79910318Y-53205446D01*
X79927793Y-52961911D01*
X79968934Y-52799747D01*
X80011834Y-52687321D01*
X80062959Y-52596740D01*
X80135923Y-52507013D01*
X80205075Y-52435661D01*
X80344713Y-52313934D01*
X80476566Y-52238240D01*
X80613856Y-52202219D01*
X80701444Y-52197000D01*
X80858951Y-52218535D01*
X81005981Y-52277738D01*
X81132543Y-52366507D01*
X81228644Y-52476740D01*
X81284294Y-52600334D01*
X81294111Y-52677601D01*
X81288627Y-52713363D01*
X81262278Y-52726681D01*
X81200214Y-52722414D01*
X81170291Y-52718113D01*
X81022165Y-52722916D01*
X80877781Y-52776394D01*
X80752283Y-52871941D01*
X80712964Y-52917555D01*
X80649904Y-53043840D01*
X80630088Y-53189004D01*
X80651028Y-53338838D01*
X80710235Y-53479136D01*
X80805222Y-53595691D01*
X80836127Y-53620839D01*
X80930874Y-53664332D01*
X81054864Y-53686911D01*
X81184301Y-53686972D01*
X81295390Y-53662911D01*
X81316905Y-53653252D01*
X81448492Y-53555183D01*
X81508799Y-53469357D01*
X81265853Y-53469357D01*
X81257864Y-53539067D01*
X81247074Y-53561074D01*
X81209453Y-53572683D01*
X81137590Y-53579301D01*
X81106945Y-53579889D01*
X81006487Y-53567746D01*
X80922888Y-53523014D01*
X80890744Y-53496578D01*
X80807194Y-53396707D01*
X80756886Y-53281132D01*
X80745878Y-53167372D01*
X80758231Y-53113322D01*
X80779833Y-53067515D01*
X80810181Y-53048195D01*
X80867349Y-53049036D01*
X80920835Y-53056406D01*
X81015287Y-53069555D01*
X81095720Y-53079150D01*
X81117481Y-53081168D01*
X81172700Y-53106617D01*
X81217729Y-53178963D01*
X81223314Y-53192405D01*
X81247338Y-53276786D01*
X81261931Y-53375517D01*
X81265853Y-53469357D01*
X81508799Y-53469357D01*
X81541576Y-53422712D01*
X81590390Y-53267418D01*
X81589869Y-53105181D01*
X81573931Y-53057296D01*
X81535531Y-52965077D01*
X81477496Y-52834650D01*
X81402658Y-52672143D01*
X81313847Y-52483680D01*
X81213892Y-52275389D01*
X81105624Y-52053396D01*
X81079056Y-51999445D01*
X80952248Y-51740233D01*
X80840270Y-51506904D01*
X80745065Y-51303722D01*
X80668576Y-51134947D01*
X80612747Y-51004844D01*
X80579522Y-50917674D01*
X80570776Y-50884667D01*
X80580449Y-50749573D01*
X80635915Y-50617753D01*
X80728181Y-50506078D01*
X80800222Y-50454186D01*
X80849946Y-50425732D01*
X80892426Y-50404338D01*
X80930593Y-50393820D01*
X80967381Y-50397990D01*
X81005721Y-50420663D01*
X81048546Y-50465652D01*
X81098788Y-50536772D01*
X81159380Y-50637836D01*
X81233252Y-50772658D01*
X81323339Y-50945052D01*
X81432571Y-51158833D01*
X81563882Y-51417813D01*
X81607978Y-51504811D01*
X81766377Y-51818830D01*
X81899996Y-52087787D01*
X82010777Y-52316344D01*
X82100658Y-52509160D01*
X82171579Y-52670895D01*
X82225480Y-52806208D01*
X82264300Y-52919760D01*
X82289980Y-53016210D01*
X82304457Y-53100217D01*
X82309673Y-53176443D01*
X82309776Y-53190849D01*
X82417156Y-53190849D01*
X82407532Y-53016604D01*
X82384694Y-52902556D01*
X82362913Y-52840526D01*
X82318527Y-52734959D01*
X82254787Y-52592486D01*
X82174947Y-52419744D01*
X82082260Y-52223365D01*
X81979979Y-52009984D01*
X81871358Y-51786235D01*
X81759649Y-51558752D01*
X81648106Y-51334168D01*
X81539982Y-51119119D01*
X81438529Y-50920237D01*
X81347001Y-50744157D01*
X81268652Y-50597514D01*
X81206733Y-50486940D01*
X81173090Y-50431757D01*
X81107622Y-50341563D01*
X81049073Y-50294901D01*
X80979707Y-50284529D01*
X80881787Y-50303205D01*
G36*
X76524611Y-50387549D02*
G01*
X76403874Y-50497914D01*
X76417312Y-50707297D01*
X76451585Y-50913538D01*
X76523893Y-51090383D01*
X76630523Y-51230317D01*
X76705487Y-51290847D01*
X76751166Y-51319041D01*
X76796567Y-51339407D01*
X76852247Y-51353631D01*
X76928764Y-51363398D01*
X77036675Y-51370392D01*
X77186539Y-51376299D01*
X77255011Y-51378556D01*
X77693386Y-51392667D01*
X77712935Y-51463223D01*
X77732096Y-51545567D01*
X77726594Y-51595705D01*
X77687106Y-51625609D01*
X77604306Y-51647252D01*
X77563505Y-51655065D01*
X77352436Y-51715044D01*
X77153660Y-51816135D01*
X76961843Y-51962250D01*
X76771649Y-52157297D01*
X76621023Y-52345879D01*
X76529111Y-52478165D01*
X76462270Y-52599608D01*
X76416740Y-52723645D01*
X76388760Y-52863711D01*
X76374569Y-53033244D01*
X76370415Y-53241223D01*
X76370964Y-53408016D01*
X76374421Y-53531100D01*
X76382234Y-53623189D01*
X76395852Y-53696999D01*
X76416723Y-53765246D01*
X76435737Y-53814817D01*
X76559292Y-54048574D01*
X76728290Y-54258197D01*
X76934031Y-54435502D01*
X77167812Y-54572307D01*
X77296534Y-54624366D01*
X77435870Y-54659618D01*
X77608428Y-54684528D01*
X77793129Y-54697695D01*
X77968891Y-54697717D01*
X78114634Y-54683193D01*
X78131629Y-54679880D01*
X78302805Y-54624876D01*
X78492027Y-54532695D01*
X78685565Y-54412808D01*
X78869687Y-54274686D01*
X79030662Y-54127801D01*
X79154761Y-53981626D01*
X79164739Y-53967227D01*
X79265100Y-53779138D01*
X79313854Y-53594543D01*
X79313965Y-53487108D01*
X79205046Y-53487108D01*
X79180345Y-53647957D01*
X79109539Y-53813082D01*
X79000755Y-53971109D01*
X78862120Y-54110661D01*
X78701759Y-54220362D01*
X78669444Y-54236921D01*
X78417617Y-54337204D01*
X78173903Y-54386748D01*
X77925434Y-54387217D01*
X77734668Y-54357740D01*
X77473048Y-54275296D01*
X77239055Y-54147257D01*
X77037909Y-53978518D01*
X76874831Y-53773980D01*
X76755041Y-53538538D01*
X76708928Y-53395458D01*
X76668144Y-53146024D01*
X76671866Y-52895730D01*
X76716675Y-52652409D01*
X76799153Y-52423892D01*
X76915880Y-52218010D01*
X77063437Y-52042595D01*
X77238405Y-51905477D01*
X77392448Y-51829873D01*
X77558274Y-51782957D01*
X77739629Y-51756248D01*
X77913725Y-51751918D01*
X78041500Y-51768034D01*
X78113367Y-51781115D01*
X78155324Y-51781747D01*
X78159899Y-51777723D01*
X78153256Y-51744725D01*
X78136268Y-51668012D01*
X78111466Y-51558825D01*
X78081377Y-51428406D01*
X78079630Y-51420889D01*
X78000906Y-51082223D01*
X77537897Y-51068112D01*
X77362756Y-51062148D01*
X77234000Y-51055621D01*
X77141577Y-51047136D01*
X77075434Y-51035297D01*
X77025518Y-51018708D01*
X76981776Y-50995976D01*
X76971058Y-50989436D01*
X76868232Y-50894483D01*
X76789032Y-50757294D01*
X76739467Y-50589258D01*
X76731346Y-50535138D01*
X76714249Y-50390778D01*
X78547110Y-50390778D01*
X78747224Y-51286834D01*
X78947338Y-52182889D01*
X78702557Y-52412978D01*
X78457777Y-52643067D01*
X78387222Y-52576753D01*
X78247088Y-52481430D01*
X78087206Y-52432717D01*
X77919821Y-52430722D01*
X77757180Y-52475554D01*
X77611530Y-52567324D01*
X77608677Y-52569812D01*
X77492975Y-52698873D01*
X77425045Y-52845713D01*
X77399849Y-53021921D01*
X77399444Y-53051113D01*
X77423495Y-53248089D01*
X77491768Y-53414555D01*
X77598445Y-53546111D01*
X77737707Y-53638358D01*
X77903734Y-53686897D01*
X78090707Y-53687328D01*
X78208962Y-53663104D01*
X78356133Y-53597259D01*
X78478814Y-53494921D01*
X78569078Y-53367201D01*
X78618999Y-53225212D01*
X78621458Y-53084859D01*
X78614522Y-53019658D01*
X78630476Y-52993049D01*
X78680629Y-52988379D01*
X78686918Y-52988461D01*
X78799098Y-53005473D01*
X78919744Y-53046593D01*
X79020543Y-53101449D01*
X79042187Y-53118595D01*
X79108628Y-53202467D01*
X79164996Y-53316239D01*
X79199570Y-53433389D01*
X79205046Y-53487108D01*
X79313965Y-53487108D01*
X79314035Y-53419593D01*
X79268676Y-53260437D01*
X79180811Y-53123226D01*
X79053473Y-53014109D01*
X78889696Y-52939237D01*
X78692513Y-52904759D01*
X78639894Y-52903176D01*
X78538071Y-52904819D01*
X78471808Y-52915841D01*
X78420239Y-52944110D01*
X78362499Y-52997493D01*
X78346489Y-53013805D01*
X78284944Y-53079258D01*
X78256279Y-53125430D01*
X78253900Y-53173389D01*
X78271216Y-53244201D01*
X78272713Y-53249546D01*
X78299483Y-53368543D01*
X78296563Y-53448319D01*
X78258784Y-53500492D01*
X78180975Y-53536682D01*
X78139599Y-53548724D01*
X77972038Y-53567904D01*
X77820136Y-53536993D01*
X77691101Y-53461707D01*
X77592142Y-53347762D01*
X77530468Y-53200877D01*
X77512749Y-53051629D01*
X77527409Y-52911828D01*
X77572223Y-52816278D01*
X77649958Y-52759875D01*
X77675625Y-52751072D01*
X77805934Y-52742273D01*
X77940664Y-52786709D01*
X78073760Y-52882150D01*
X78099588Y-52907101D01*
X78216379Y-53025060D01*
X78379412Y-52873289D01*
X78466651Y-52791726D01*
X78579456Y-52685762D01*
X78702456Y-52569856D01*
X78806916Y-52471126D01*
X79071388Y-52220733D01*
X79024799Y-51990144D01*
X79005707Y-51898579D01*
X78976529Y-51762403D01*
X78939546Y-51592078D01*
X78897038Y-51398069D01*
X78851285Y-51190836D01*
X78814597Y-51025778D01*
X78650983Y-50292000D01*
X77648165Y-50284593D01*
X76645348Y-50277185D01*
X76524611Y-50387549D01*
G37*
X76524611Y-50387549D02*
X76403874Y-50497914D01*
X76417312Y-50707297D01*
X76451585Y-50913538D01*
X76523893Y-51090383D01*
X76630523Y-51230317D01*
X76705487Y-51290847D01*
X76751166Y-51319041D01*
X76796567Y-51339407D01*
X76852247Y-51353631D01*
X76928764Y-51363398D01*
X77036675Y-51370392D01*
X77186539Y-51376299D01*
X77255011Y-51378556D01*
X77693386Y-51392667D01*
X77712935Y-51463223D01*
X77732096Y-51545567D01*
X77726594Y-51595705D01*
X77687106Y-51625609D01*
X77604306Y-51647252D01*
X77563505Y-51655065D01*
X77352436Y-51715044D01*
X77153660Y-51816135D01*
X76961843Y-51962250D01*
X76771649Y-52157297D01*
X76621023Y-52345879D01*
X76529111Y-52478165D01*
X76462270Y-52599608D01*
X76416740Y-52723645D01*
X76388760Y-52863711D01*
X76374569Y-53033244D01*
X76370415Y-53241223D01*
X76370964Y-53408016D01*
X76374421Y-53531100D01*
X76382234Y-53623189D01*
X76395852Y-53696999D01*
X76416723Y-53765246D01*
X76435737Y-53814817D01*
X76559292Y-54048574D01*
X76728290Y-54258197D01*
X76934031Y-54435502D01*
X77167812Y-54572307D01*
X77296534Y-54624366D01*
X77435870Y-54659618D01*
X77608428Y-54684528D01*
X77793129Y-54697695D01*
X77968891Y-54697717D01*
X78114634Y-54683193D01*
X78131629Y-54679880D01*
X78302805Y-54624876D01*
X78492027Y-54532695D01*
X78685565Y-54412808D01*
X78869687Y-54274686D01*
X79030662Y-54127801D01*
X79154761Y-53981626D01*
X79164739Y-53967227D01*
X79265100Y-53779138D01*
X79313854Y-53594543D01*
X79313965Y-53487108D01*
X79205046Y-53487108D01*
X79180345Y-53647957D01*
X79109539Y-53813082D01*
X79000755Y-53971109D01*
X78862120Y-54110661D01*
X78701759Y-54220362D01*
X78669444Y-54236921D01*
X78417617Y-54337204D01*
X78173903Y-54386748D01*
X77925434Y-54387217D01*
X77734668Y-54357740D01*
X77473048Y-54275296D01*
X77239055Y-54147257D01*
X77037909Y-53978518D01*
X76874831Y-53773980D01*
X76755041Y-53538538D01*
X76708928Y-53395458D01*
X76668144Y-53146024D01*
X76671866Y-52895730D01*
X76716675Y-52652409D01*
X76799153Y-52423892D01*
X76915880Y-52218010D01*
X77063437Y-52042595D01*
X77238405Y-51905477D01*
X77392448Y-51829873D01*
X77558274Y-51782957D01*
X77739629Y-51756248D01*
X77913725Y-51751918D01*
X78041500Y-51768034D01*
X78113367Y-51781115D01*
X78155324Y-51781747D01*
X78159899Y-51777723D01*
X78153256Y-51744725D01*
X78136268Y-51668012D01*
X78111466Y-51558825D01*
X78081377Y-51428406D01*
X78079630Y-51420889D01*
X78000906Y-51082223D01*
X77537897Y-51068112D01*
X77362756Y-51062148D01*
X77234000Y-51055621D01*
X77141577Y-51047136D01*
X77075434Y-51035297D01*
X77025518Y-51018708D01*
X76981776Y-50995976D01*
X76971058Y-50989436D01*
X76868232Y-50894483D01*
X76789032Y-50757294D01*
X76739467Y-50589258D01*
X76731346Y-50535138D01*
X76714249Y-50390778D01*
X78547110Y-50390778D01*
X78747224Y-51286834D01*
X78947338Y-52182889D01*
X78702557Y-52412978D01*
X78457777Y-52643067D01*
X78387222Y-52576753D01*
X78247088Y-52481430D01*
X78087206Y-52432717D01*
X77919821Y-52430722D01*
X77757180Y-52475554D01*
X77611530Y-52567324D01*
X77608677Y-52569812D01*
X77492975Y-52698873D01*
X77425045Y-52845713D01*
X77399849Y-53021921D01*
X77399444Y-53051113D01*
X77423495Y-53248089D01*
X77491768Y-53414555D01*
X77598445Y-53546111D01*
X77737707Y-53638358D01*
X77903734Y-53686897D01*
X78090707Y-53687328D01*
X78208962Y-53663104D01*
X78356133Y-53597259D01*
X78478814Y-53494921D01*
X78569078Y-53367201D01*
X78618999Y-53225212D01*
X78621458Y-53084859D01*
X78614522Y-53019658D01*
X78630476Y-52993049D01*
X78680629Y-52988379D01*
X78686918Y-52988461D01*
X78799098Y-53005473D01*
X78919744Y-53046593D01*
X79020543Y-53101449D01*
X79042187Y-53118595D01*
X79108628Y-53202467D01*
X79164996Y-53316239D01*
X79199570Y-53433389D01*
X79205046Y-53487108D01*
X79313965Y-53487108D01*
X79314035Y-53419593D01*
X79268676Y-53260437D01*
X79180811Y-53123226D01*
X79053473Y-53014109D01*
X78889696Y-52939237D01*
X78692513Y-52904759D01*
X78639894Y-52903176D01*
X78538071Y-52904819D01*
X78471808Y-52915841D01*
X78420239Y-52944110D01*
X78362499Y-52997493D01*
X78346489Y-53013805D01*
X78284944Y-53079258D01*
X78256279Y-53125430D01*
X78253900Y-53173389D01*
X78271216Y-53244201D01*
X78272713Y-53249546D01*
X78299483Y-53368543D01*
X78296563Y-53448319D01*
X78258784Y-53500492D01*
X78180975Y-53536682D01*
X78139599Y-53548724D01*
X77972038Y-53567904D01*
X77820136Y-53536993D01*
X77691101Y-53461707D01*
X77592142Y-53347762D01*
X77530468Y-53200877D01*
X77512749Y-53051629D01*
X77527409Y-52911828D01*
X77572223Y-52816278D01*
X77649958Y-52759875D01*
X77675625Y-52751072D01*
X77805934Y-52742273D01*
X77940664Y-52786709D01*
X78073760Y-52882150D01*
X78099588Y-52907101D01*
X78216379Y-53025060D01*
X78379412Y-52873289D01*
X78466651Y-52791726D01*
X78579456Y-52685762D01*
X78702456Y-52569856D01*
X78806916Y-52471126D01*
X79071388Y-52220733D01*
X79024799Y-51990144D01*
X79005707Y-51898579D01*
X78976529Y-51762403D01*
X78939546Y-51592078D01*
X78897038Y-51398069D01*
X78851285Y-51190836D01*
X78814597Y-51025778D01*
X78650983Y-50292000D01*
X77648165Y-50284593D01*
X76645348Y-50277185D01*
X76524611Y-50387549D01*
G36*
X74383295Y-50206157D02*
G01*
X74175212Y-50248464D01*
X73986224Y-50325404D01*
X73804783Y-50442235D01*
X73619343Y-50604215D01*
X73537210Y-50687266D01*
X73379849Y-50863972D01*
X73252392Y-51037349D01*
X73151811Y-51216188D01*
X73075074Y-51409276D01*
X73019154Y-51625403D01*
X72981019Y-51873357D01*
X72957640Y-52161929D01*
X72948359Y-52395468D01*
X72944757Y-52742450D01*
X72954974Y-53042458D01*
X72980168Y-53303525D01*
X73021495Y-53533684D01*
X73080109Y-53740966D01*
X73157167Y-53933405D01*
X73175144Y-53971332D01*
X73308709Y-54190051D01*
X73478536Y-54378539D01*
X73675902Y-54529636D01*
X73892089Y-54636184D01*
X74035333Y-54677488D01*
X74196199Y-54698813D01*
X74385951Y-54705256D01*
X74579106Y-54697095D01*
X74750180Y-54674605D01*
X74774777Y-54669478D01*
X74946328Y-54616995D01*
X75114033Y-54534107D01*
X75289741Y-54414117D01*
X75430340Y-54298836D01*
X75608785Y-54127064D01*
X75754468Y-53946439D01*
X75870210Y-53749633D01*
X75958837Y-53529316D01*
X76023170Y-53278161D01*
X76066033Y-52988839D01*
X76090248Y-52654020D01*
X76093203Y-52578000D01*
X76094357Y-52361939D01*
X75975472Y-52361939D01*
X75971689Y-52586754D01*
X75962793Y-52800410D01*
X75948911Y-52989539D01*
X75930170Y-53140772D01*
X75921960Y-53184778D01*
X75834651Y-53498240D01*
X75715760Y-53765334D01*
X75565438Y-53985875D01*
X75383837Y-54159675D01*
X75171111Y-54286550D01*
X74959392Y-54358967D01*
X74754713Y-54389452D01*
X74529290Y-54391069D01*
X74310800Y-54363954D01*
X74272434Y-54355584D01*
X74115826Y-54311760D01*
X73992683Y-54257505D01*
X73880053Y-54180639D01*
X73783723Y-54096205D01*
X73636637Y-53936763D01*
X73516851Y-53756341D01*
X73422264Y-53548778D01*
X73350775Y-53307914D01*
X73300284Y-53027591D01*
X73268690Y-52701648D01*
X73261172Y-52563889D01*
X73258036Y-52154758D01*
X73286182Y-51779420D01*
X73344990Y-51441883D01*
X73433836Y-51146155D01*
X73507280Y-50978487D01*
X73648995Y-50756151D01*
X73826371Y-50576191D01*
X74035452Y-50440777D01*
X74272284Y-50352079D01*
X74532911Y-50312268D01*
X74718333Y-50313988D01*
X74984035Y-50357338D01*
X75219023Y-50447882D01*
X75423361Y-50585686D01*
X75597111Y-50770819D01*
X75740337Y-51003349D01*
X75853103Y-51283343D01*
X75935471Y-51610870D01*
X75936911Y-51618445D01*
X75954860Y-51754218D01*
X75967185Y-51932304D01*
X75974013Y-52139333D01*
X75975472Y-52361939D01*
X76094357Y-52361939D01*
X76095461Y-52155600D01*
X76071419Y-51780799D01*
X76020394Y-51450904D01*
X75941706Y-51163218D01*
X75834671Y-50915046D01*
X75698609Y-50703693D01*
X75587336Y-50577807D01*
X75383689Y-50408131D01*
X75161659Y-50289005D01*
X74915532Y-50218153D01*
X74639597Y-50193301D01*
X74622018Y-50193223D01*
X74383295Y-50206157D01*
G37*
X74383295Y-50206157D02*
X74175212Y-50248464D01*
X73986224Y-50325404D01*
X73804783Y-50442235D01*
X73619343Y-50604215D01*
X73537210Y-50687266D01*
X73379849Y-50863972D01*
X73252392Y-51037349D01*
X73151811Y-51216188D01*
X73075074Y-51409276D01*
X73019154Y-51625403D01*
X72981019Y-51873357D01*
X72957640Y-52161929D01*
X72948359Y-52395468D01*
X72944757Y-52742450D01*
X72954974Y-53042458D01*
X72980168Y-53303525D01*
X73021495Y-53533684D01*
X73080109Y-53740966D01*
X73157167Y-53933405D01*
X73175144Y-53971332D01*
X73308709Y-54190051D01*
X73478536Y-54378539D01*
X73675902Y-54529636D01*
X73892089Y-54636184D01*
X74035333Y-54677488D01*
X74196199Y-54698813D01*
X74385951Y-54705256D01*
X74579106Y-54697095D01*
X74750180Y-54674605D01*
X74774777Y-54669478D01*
X74946328Y-54616995D01*
X75114033Y-54534107D01*
X75289741Y-54414117D01*
X75430340Y-54298836D01*
X75608785Y-54127064D01*
X75754468Y-53946439D01*
X75870210Y-53749633D01*
X75958837Y-53529316D01*
X76023170Y-53278161D01*
X76066033Y-52988839D01*
X76090248Y-52654020D01*
X76093203Y-52578000D01*
X76094357Y-52361939D01*
X75975472Y-52361939D01*
X75971689Y-52586754D01*
X75962793Y-52800410D01*
X75948911Y-52989539D01*
X75930170Y-53140772D01*
X75921960Y-53184778D01*
X75834651Y-53498240D01*
X75715760Y-53765334D01*
X75565438Y-53985875D01*
X75383837Y-54159675D01*
X75171111Y-54286550D01*
X74959392Y-54358967D01*
X74754713Y-54389452D01*
X74529290Y-54391069D01*
X74310800Y-54363954D01*
X74272434Y-54355584D01*
X74115826Y-54311760D01*
X73992683Y-54257505D01*
X73880053Y-54180639D01*
X73783723Y-54096205D01*
X73636637Y-53936763D01*
X73516851Y-53756341D01*
X73422264Y-53548778D01*
X73350775Y-53307914D01*
X73300284Y-53027591D01*
X73268690Y-52701648D01*
X73261172Y-52563889D01*
X73258036Y-52154758D01*
X73286182Y-51779420D01*
X73344990Y-51441883D01*
X73433836Y-51146155D01*
X73507280Y-50978487D01*
X73648995Y-50756151D01*
X73826371Y-50576191D01*
X74035452Y-50440777D01*
X74272284Y-50352079D01*
X74532911Y-50312268D01*
X74718333Y-50313988D01*
X74984035Y-50357338D01*
X75219023Y-50447882D01*
X75423361Y-50585686D01*
X75597111Y-50770819D01*
X75740337Y-51003349D01*
X75853103Y-51283343D01*
X75935471Y-51610870D01*
X75936911Y-51618445D01*
X75954860Y-51754218D01*
X75967185Y-51932304D01*
X75974013Y-52139333D01*
X75975472Y-52361939D01*
X76094357Y-52361939D01*
X76095461Y-52155600D01*
X76071419Y-51780799D01*
X76020394Y-51450904D01*
X75941706Y-51163218D01*
X75834671Y-50915046D01*
X75698609Y-50703693D01*
X75587336Y-50577807D01*
X75383689Y-50408131D01*
X75161659Y-50289005D01*
X74915532Y-50218153D01*
X74639597Y-50193301D01*
X74622018Y-50193223D01*
X74383295Y-50206157D01*
G36*
X71024568Y-50206096D02*
G01*
X70755934Y-50255545D01*
X70505914Y-50346449D01*
X70505085Y-50346841D01*
X70404078Y-50409317D01*
X70281637Y-50507686D01*
X70148463Y-50631442D01*
X70015262Y-50770077D01*
X69892735Y-50913084D01*
X69796855Y-51042111D01*
X69671261Y-51272722D01*
X69599375Y-51514220D01*
X69581320Y-51767082D01*
X69617216Y-52031779D01*
X69707186Y-52308788D01*
X69851352Y-52598581D01*
X70049836Y-52901633D01*
X70302761Y-53218419D01*
X70378920Y-53304723D01*
X70575646Y-53523445D01*
X69788631Y-53523445D01*
X69671149Y-53635203D01*
X69553666Y-53746962D01*
X69553666Y-54624112D01*
X72446444Y-54622700D01*
X72566388Y-54509498D01*
X72638759Y-54431985D01*
X72676943Y-54359440D01*
X72680805Y-54313667D01*
X72573444Y-54313667D01*
X69864111Y-54313667D01*
X69864111Y-53637320D01*
X70560072Y-53629771D01*
X71256033Y-53622223D01*
X70898350Y-53244440D01*
X70652482Y-52976826D01*
X70448651Y-52736389D01*
X70283176Y-52517204D01*
X70152374Y-52313345D01*
X70052565Y-52118888D01*
X69980067Y-51927907D01*
X69931198Y-51734475D01*
X69919639Y-51669157D01*
X69908563Y-51425599D01*
X69951369Y-51186079D01*
X70045593Y-50957961D01*
X70188773Y-50748605D01*
X70250502Y-50680605D01*
X70431986Y-50532865D01*
X70645440Y-50422809D01*
X70881492Y-50350381D01*
X71130773Y-50315527D01*
X71383910Y-50318192D01*
X71631533Y-50358320D01*
X71864271Y-50435856D01*
X72072752Y-50550746D01*
X72237803Y-50692290D01*
X72365109Y-50859311D01*
X72437651Y-51031280D01*
X72457107Y-51212473D01*
X72455107Y-51246315D01*
X72416284Y-51432824D01*
X72334531Y-51583514D01*
X72211202Y-51696692D01*
X72047653Y-51770664D01*
X72031572Y-51775188D01*
X71927616Y-51796518D01*
X71864323Y-51787361D01*
X71833641Y-51740571D01*
X71827523Y-51649000D01*
X71830275Y-51596429D01*
X71821864Y-51429834D01*
X71768235Y-51290701D01*
X71665000Y-51170109D01*
X71592629Y-51113430D01*
X71443778Y-51040941D01*
X71279143Y-51013974D01*
X71111651Y-51030161D01*
X70954230Y-51087133D01*
X70819809Y-51182521D01*
X70748112Y-51268159D01*
X70704220Y-51342730D01*
X70680169Y-51413129D01*
X70670478Y-51501609D01*
X70669313Y-51588162D01*
X70674758Y-51693379D01*
X70692262Y-51794941D01*
X70724994Y-51897461D01*
X70776121Y-52005551D01*
X70848812Y-52123825D01*
X70946237Y-52256896D01*
X71071564Y-52409378D01*
X71227961Y-52585884D01*
X71418597Y-52791027D01*
X71646641Y-53029420D01*
X71690123Y-53074376D01*
X71837058Y-53226856D01*
X71976428Y-53372898D01*
X72101718Y-53505567D01*
X72206414Y-53617926D01*
X72284001Y-53703041D01*
X72325072Y-53750377D01*
X72400667Y-53855814D01*
X72471058Y-53975971D01*
X72528326Y-54094900D01*
X72564556Y-54196652D01*
X72573168Y-54250167D01*
X72573444Y-54313667D01*
X72680805Y-54313667D01*
X72684015Y-54275643D01*
X72663048Y-54164377D01*
X72644381Y-54097977D01*
X72611938Y-54007147D01*
X72565877Y-53912649D01*
X72502329Y-53809497D01*
X72417427Y-53692708D01*
X72307304Y-53557299D01*
X72168093Y-53398285D01*
X71995927Y-53210682D01*
X71786938Y-52989507D01*
X71772610Y-52974502D01*
X71548510Y-52738487D01*
X71361248Y-52537431D01*
X71207417Y-52366715D01*
X71083613Y-52221721D01*
X70986429Y-52097828D01*
X70912461Y-51990418D01*
X70858302Y-51894870D01*
X70820548Y-51806567D01*
X70795792Y-51720887D01*
X70780630Y-51633213D01*
X70779984Y-51628058D01*
X70780531Y-51500080D01*
X70820252Y-51411005D01*
X70901357Y-51357081D01*
X70947043Y-51344269D01*
X71085952Y-51338388D01*
X71219280Y-51373126D01*
X71338453Y-51440521D01*
X71434897Y-51532606D01*
X71500037Y-51641417D01*
X71525298Y-51758990D01*
X71507255Y-51864648D01*
X71491741Y-51967851D01*
X71524943Y-52049188D01*
X71600624Y-52099680D01*
X71679002Y-52111902D01*
X71810167Y-52100670D01*
X71933127Y-52061507D01*
X72060509Y-51988489D01*
X72204939Y-51875698D01*
X72231163Y-51852960D01*
X72374265Y-51717645D01*
X72473578Y-51596207D01*
X72535163Y-51476040D01*
X72565076Y-51344539D01*
X72569378Y-51189098D01*
X72567635Y-51152930D01*
X72529938Y-50929026D01*
X72444355Y-50734879D01*
X72310649Y-50569989D01*
X72278010Y-50540389D01*
X72074425Y-50399828D01*
X71836746Y-50294967D01*
X71575516Y-50226957D01*
X71301276Y-50196950D01*
X71024568Y-50206096D01*
G37*
X71024568Y-50206096D02*
X70755934Y-50255545D01*
X70505914Y-50346449D01*
X70505085Y-50346841D01*
X70404078Y-50409317D01*
X70281637Y-50507686D01*
X70148463Y-50631442D01*
X70015262Y-50770077D01*
X69892735Y-50913084D01*
X69796855Y-51042111D01*
X69671261Y-51272722D01*
X69599375Y-51514220D01*
X69581320Y-51767082D01*
X69617216Y-52031779D01*
X69707186Y-52308788D01*
X69851352Y-52598581D01*
X70049836Y-52901633D01*
X70302761Y-53218419D01*
X70378920Y-53304723D01*
X70575646Y-53523445D01*
X69788631Y-53523445D01*
X69671149Y-53635203D01*
X69553666Y-53746962D01*
X69553666Y-54624112D01*
X72446444Y-54622700D01*
X72566388Y-54509498D01*
X72638759Y-54431985D01*
X72676943Y-54359440D01*
X72680805Y-54313667D01*
X72573444Y-54313667D01*
X69864111Y-54313667D01*
X69864111Y-53637320D01*
X70560072Y-53629771D01*
X71256033Y-53622223D01*
X70898350Y-53244440D01*
X70652482Y-52976826D01*
X70448651Y-52736389D01*
X70283176Y-52517204D01*
X70152374Y-52313345D01*
X70052565Y-52118888D01*
X69980067Y-51927907D01*
X69931198Y-51734475D01*
X69919639Y-51669157D01*
X69908563Y-51425599D01*
X69951369Y-51186079D01*
X70045593Y-50957961D01*
X70188773Y-50748605D01*
X70250502Y-50680605D01*
X70431986Y-50532865D01*
X70645440Y-50422809D01*
X70881492Y-50350381D01*
X71130773Y-50315527D01*
X71383910Y-50318192D01*
X71631533Y-50358320D01*
X71864271Y-50435856D01*
X72072752Y-50550746D01*
X72237803Y-50692290D01*
X72365109Y-50859311D01*
X72437651Y-51031280D01*
X72457107Y-51212473D01*
X72455107Y-51246315D01*
X72416284Y-51432824D01*
X72334531Y-51583514D01*
X72211202Y-51696692D01*
X72047653Y-51770664D01*
X72031572Y-51775188D01*
X71927616Y-51796518D01*
X71864323Y-51787361D01*
X71833641Y-51740571D01*
X71827523Y-51649000D01*
X71830275Y-51596429D01*
X71821864Y-51429834D01*
X71768235Y-51290701D01*
X71665000Y-51170109D01*
X71592629Y-51113430D01*
X71443778Y-51040941D01*
X71279143Y-51013974D01*
X71111651Y-51030161D01*
X70954230Y-51087133D01*
X70819809Y-51182521D01*
X70748112Y-51268159D01*
X70704220Y-51342730D01*
X70680169Y-51413129D01*
X70670478Y-51501609D01*
X70669313Y-51588162D01*
X70674758Y-51693379D01*
X70692262Y-51794941D01*
X70724994Y-51897461D01*
X70776121Y-52005551D01*
X70848812Y-52123825D01*
X70946237Y-52256896D01*
X71071564Y-52409378D01*
X71227961Y-52585884D01*
X71418597Y-52791027D01*
X71646641Y-53029420D01*
X71690123Y-53074376D01*
X71837058Y-53226856D01*
X71976428Y-53372898D01*
X72101718Y-53505567D01*
X72206414Y-53617926D01*
X72284001Y-53703041D01*
X72325072Y-53750377D01*
X72400667Y-53855814D01*
X72471058Y-53975971D01*
X72528326Y-54094900D01*
X72564556Y-54196652D01*
X72573168Y-54250167D01*
X72573444Y-54313667D01*
X72680805Y-54313667D01*
X72684015Y-54275643D01*
X72663048Y-54164377D01*
X72644381Y-54097977D01*
X72611938Y-54007147D01*
X72565877Y-53912649D01*
X72502329Y-53809497D01*
X72417427Y-53692708D01*
X72307304Y-53557299D01*
X72168093Y-53398285D01*
X71995927Y-53210682D01*
X71786938Y-52989507D01*
X71772610Y-52974502D01*
X71548510Y-52738487D01*
X71361248Y-52537431D01*
X71207417Y-52366715D01*
X71083613Y-52221721D01*
X70986429Y-52097828D01*
X70912461Y-51990418D01*
X70858302Y-51894870D01*
X70820548Y-51806567D01*
X70795792Y-51720887D01*
X70780630Y-51633213D01*
X70779984Y-51628058D01*
X70780531Y-51500080D01*
X70820252Y-51411005D01*
X70901357Y-51357081D01*
X70947043Y-51344269D01*
X71085952Y-51338388D01*
X71219280Y-51373126D01*
X71338453Y-51440521D01*
X71434897Y-51532606D01*
X71500037Y-51641417D01*
X71525298Y-51758990D01*
X71507255Y-51864648D01*
X71491741Y-51967851D01*
X71524943Y-52049188D01*
X71600624Y-52099680D01*
X71679002Y-52111902D01*
X71810167Y-52100670D01*
X71933127Y-52061507D01*
X72060509Y-51988489D01*
X72204939Y-51875698D01*
X72231163Y-51852960D01*
X72374265Y-51717645D01*
X72473578Y-51596207D01*
X72535163Y-51476040D01*
X72565076Y-51344539D01*
X72569378Y-51189098D01*
X72567635Y-51152930D01*
X72529938Y-50929026D01*
X72444355Y-50734879D01*
X72310649Y-50569989D01*
X72278010Y-50540389D01*
X72074425Y-50399828D01*
X71836746Y-50294967D01*
X71575516Y-50226957D01*
X71301276Y-50196950D01*
X71024568Y-50206096D01*
G36*
X71625195Y-46641539D02*
G01*
X71487259Y-46649031D01*
X71384542Y-46661754D01*
X71295817Y-46684677D01*
X71199860Y-46722766D01*
X71119688Y-46759846D01*
X70930925Y-46871778D01*
X70740512Y-47024272D01*
X70562218Y-47203595D01*
X70409810Y-47396012D01*
X70303860Y-47573676D01*
X70205980Y-47831516D01*
X70159230Y-48094581D01*
X70160955Y-48356443D01*
X70208496Y-48610670D01*
X70299199Y-48850832D01*
X70430405Y-49070500D01*
X70599459Y-49263244D01*
X70803703Y-49422632D01*
X71040482Y-49542235D01*
X71130028Y-49573346D01*
X71277367Y-49604950D01*
X71456901Y-49622795D01*
X71647253Y-49626503D01*
X71827045Y-49615695D01*
X71974899Y-49589994D01*
X71980777Y-49588393D01*
X72154655Y-49527168D01*
X72318696Y-49440144D01*
X72484605Y-49319791D01*
X72664085Y-49158581D01*
X72693354Y-49129963D01*
X72880785Y-48910095D01*
X73022792Y-48668242D01*
X73116458Y-48411748D01*
X73158867Y-48147958D01*
X73157036Y-48001751D01*
X72995560Y-48001751D01*
X72986900Y-48222095D01*
X72948541Y-48440929D01*
X72881443Y-48642387D01*
X72854402Y-48699924D01*
X72726517Y-48891121D01*
X72554440Y-49058185D01*
X72347280Y-49195551D01*
X72114147Y-49297657D01*
X71864150Y-49358941D01*
X71755000Y-49371266D01*
X71706350Y-49368698D01*
X71621369Y-49358947D01*
X71529222Y-49345746D01*
X71301377Y-49285995D01*
X71080360Y-49183322D01*
X70884582Y-49047285D01*
X70799023Y-48966701D01*
X70639207Y-48759363D01*
X70528135Y-48532234D01*
X70464975Y-48292509D01*
X70448896Y-48047384D01*
X70479065Y-47804054D01*
X70554651Y-47569712D01*
X70674822Y-47351555D01*
X70838746Y-47156777D01*
X71025749Y-47005571D01*
X71256686Y-46884037D01*
X71503619Y-46814189D01*
X71759770Y-46796069D01*
X72018362Y-46829716D01*
X72272616Y-46915171D01*
X72430078Y-46997158D01*
X72559333Y-47074608D01*
X72361777Y-47090483D01*
X72250826Y-47104185D01*
X72153525Y-47124518D01*
X72093666Y-47145868D01*
X72026871Y-47167662D01*
X71920747Y-47177741D01*
X71769111Y-47176950D01*
X71644138Y-47174228D01*
X71555775Y-47178606D01*
X71484280Y-47193981D01*
X71409908Y-47224249D01*
X71332537Y-47263119D01*
X71146417Y-47388655D01*
X71004774Y-47547937D01*
X70909178Y-47738043D01*
X70861195Y-47956048D01*
X70858096Y-48147828D01*
X70895043Y-48369131D01*
X70977498Y-48560567D01*
X71108856Y-48729854D01*
X71118521Y-48739629D01*
X71243329Y-48847284D01*
X71371665Y-48917708D01*
X71520853Y-48958026D01*
X71689842Y-48974582D01*
X71815914Y-48977768D01*
X71907687Y-48971091D01*
X71986932Y-48951172D01*
X72075017Y-48914819D01*
X72241247Y-48814498D01*
X72387967Y-48680136D01*
X72499315Y-48527197D01*
X72525328Y-48475877D01*
X72564312Y-48350824D01*
X72567162Y-48330073D01*
X72297401Y-48330073D01*
X72270318Y-48470687D01*
X72216933Y-48593776D01*
X72138855Y-48683468D01*
X72130904Y-48689200D01*
X71949966Y-48783516D01*
X71762631Y-48821773D01*
X71569616Y-48803892D01*
X71444555Y-48763412D01*
X71286091Y-48669263D01*
X71159197Y-48535373D01*
X71068412Y-48371553D01*
X71018270Y-48187610D01*
X71013308Y-47993354D01*
X71033986Y-47875609D01*
X71084859Y-47720427D01*
X71149924Y-47610292D01*
X71237262Y-47534138D01*
X71310136Y-47497483D01*
X71390760Y-47474051D01*
X71493195Y-47456968D01*
X71600149Y-47447479D01*
X71694327Y-47446829D01*
X71758437Y-47456263D01*
X71772909Y-47464170D01*
X71775457Y-47499729D01*
X71757571Y-47562192D01*
X71755060Y-47568409D01*
X71739553Y-47638934D01*
X71732451Y-47741584D01*
X71733275Y-47856898D01*
X71741542Y-47965411D01*
X71756771Y-48047662D01*
X71767568Y-48074059D01*
X71797868Y-48081087D01*
X71858266Y-48047570D01*
X71910416Y-48007351D01*
X72014056Y-47935593D01*
X72097101Y-47910839D01*
X72168117Y-47931765D01*
X72204723Y-47961835D01*
X72266215Y-48059773D01*
X72296570Y-48187810D01*
X72297401Y-48330073D01*
X72567162Y-48330073D01*
X72584646Y-48202822D01*
X72585970Y-48051551D01*
X72567921Y-47916689D01*
X72537195Y-47829877D01*
X72449019Y-47721580D01*
X72331138Y-47656462D01*
X72194291Y-47638328D01*
X72068327Y-47663677D01*
X72023566Y-47675841D01*
X72009795Y-47658798D01*
X72018221Y-47600086D01*
X72019372Y-47594306D01*
X72067573Y-47476656D01*
X72152108Y-47391289D01*
X72263206Y-47337927D01*
X72391096Y-47316290D01*
X72526007Y-47326100D01*
X72658167Y-47367078D01*
X72777805Y-47438945D01*
X72875150Y-47541423D01*
X72919927Y-47619996D01*
X72973556Y-47795763D01*
X72995560Y-48001751D01*
X73157036Y-48001751D01*
X73156559Y-47963667D01*
X73119457Y-47724579D01*
X73053595Y-47529423D01*
X72959936Y-47380983D01*
X72952494Y-47372558D01*
X72896927Y-47300143D01*
X72870427Y-47242167D01*
X72870787Y-47223323D01*
X72859159Y-47182450D01*
X72810273Y-47118852D01*
X72733762Y-47041220D01*
X72639261Y-46958248D01*
X72536404Y-46878627D01*
X72434825Y-46811050D01*
X72380372Y-46780840D01*
X72200327Y-46704872D01*
X72014658Y-46658960D01*
X71806428Y-46639978D01*
X71625195Y-46641539D01*
G37*
X71625195Y-46641539D02*
X71487259Y-46649031D01*
X71384542Y-46661754D01*
X71295817Y-46684677D01*
X71199860Y-46722766D01*
X71119688Y-46759846D01*
X70930925Y-46871778D01*
X70740512Y-47024272D01*
X70562218Y-47203595D01*
X70409810Y-47396012D01*
X70303860Y-47573676D01*
X70205980Y-47831516D01*
X70159230Y-48094581D01*
X70160955Y-48356443D01*
X70208496Y-48610670D01*
X70299199Y-48850832D01*
X70430405Y-49070500D01*
X70599459Y-49263244D01*
X70803703Y-49422632D01*
X71040482Y-49542235D01*
X71130028Y-49573346D01*
X71277367Y-49604950D01*
X71456901Y-49622795D01*
X71647253Y-49626503D01*
X71827045Y-49615695D01*
X71974899Y-49589994D01*
X71980777Y-49588393D01*
X72154655Y-49527168D01*
X72318696Y-49440144D01*
X72484605Y-49319791D01*
X72664085Y-49158581D01*
X72693354Y-49129963D01*
X72880785Y-48910095D01*
X73022792Y-48668242D01*
X73116458Y-48411748D01*
X73158867Y-48147958D01*
X73157036Y-48001751D01*
X72995560Y-48001751D01*
X72986900Y-48222095D01*
X72948541Y-48440929D01*
X72881443Y-48642387D01*
X72854402Y-48699924D01*
X72726517Y-48891121D01*
X72554440Y-49058185D01*
X72347280Y-49195551D01*
X72114147Y-49297657D01*
X71864150Y-49358941D01*
X71755000Y-49371266D01*
X71706350Y-49368698D01*
X71621369Y-49358947D01*
X71529222Y-49345746D01*
X71301377Y-49285995D01*
X71080360Y-49183322D01*
X70884582Y-49047285D01*
X70799023Y-48966701D01*
X70639207Y-48759363D01*
X70528135Y-48532234D01*
X70464975Y-48292509D01*
X70448896Y-48047384D01*
X70479065Y-47804054D01*
X70554651Y-47569712D01*
X70674822Y-47351555D01*
X70838746Y-47156777D01*
X71025749Y-47005571D01*
X71256686Y-46884037D01*
X71503619Y-46814189D01*
X71759770Y-46796069D01*
X72018362Y-46829716D01*
X72272616Y-46915171D01*
X72430078Y-46997158D01*
X72559333Y-47074608D01*
X72361777Y-47090483D01*
X72250826Y-47104185D01*
X72153525Y-47124518D01*
X72093666Y-47145868D01*
X72026871Y-47167662D01*
X71920747Y-47177741D01*
X71769111Y-47176950D01*
X71644138Y-47174228D01*
X71555775Y-47178606D01*
X71484280Y-47193981D01*
X71409908Y-47224249D01*
X71332537Y-47263119D01*
X71146417Y-47388655D01*
X71004774Y-47547937D01*
X70909178Y-47738043D01*
X70861195Y-47956048D01*
X70858096Y-48147828D01*
X70895043Y-48369131D01*
X70977498Y-48560567D01*
X71108856Y-48729854D01*
X71118521Y-48739629D01*
X71243329Y-48847284D01*
X71371665Y-48917708D01*
X71520853Y-48958026D01*
X71689842Y-48974582D01*
X71815914Y-48977768D01*
X71907687Y-48971091D01*
X71986932Y-48951172D01*
X72075017Y-48914819D01*
X72241247Y-48814498D01*
X72387967Y-48680136D01*
X72499315Y-48527197D01*
X72525328Y-48475877D01*
X72564312Y-48350824D01*
X72567162Y-48330073D01*
X72297401Y-48330073D01*
X72270318Y-48470687D01*
X72216933Y-48593776D01*
X72138855Y-48683468D01*
X72130904Y-48689200D01*
X71949966Y-48783516D01*
X71762631Y-48821773D01*
X71569616Y-48803892D01*
X71444555Y-48763412D01*
X71286091Y-48669263D01*
X71159197Y-48535373D01*
X71068412Y-48371553D01*
X71018270Y-48187610D01*
X71013308Y-47993354D01*
X71033986Y-47875609D01*
X71084859Y-47720427D01*
X71149924Y-47610292D01*
X71237262Y-47534138D01*
X71310136Y-47497483D01*
X71390760Y-47474051D01*
X71493195Y-47456968D01*
X71600149Y-47447479D01*
X71694327Y-47446829D01*
X71758437Y-47456263D01*
X71772909Y-47464170D01*
X71775457Y-47499729D01*
X71757571Y-47562192D01*
X71755060Y-47568409D01*
X71739553Y-47638934D01*
X71732451Y-47741584D01*
X71733275Y-47856898D01*
X71741542Y-47965411D01*
X71756771Y-48047662D01*
X71767568Y-48074059D01*
X71797868Y-48081087D01*
X71858266Y-48047570D01*
X71910416Y-48007351D01*
X72014056Y-47935593D01*
X72097101Y-47910839D01*
X72168117Y-47931765D01*
X72204723Y-47961835D01*
X72266215Y-48059773D01*
X72296570Y-48187810D01*
X72297401Y-48330073D01*
X72567162Y-48330073D01*
X72584646Y-48202822D01*
X72585970Y-48051551D01*
X72567921Y-47916689D01*
X72537195Y-47829877D01*
X72449019Y-47721580D01*
X72331138Y-47656462D01*
X72194291Y-47638328D01*
X72068327Y-47663677D01*
X72023566Y-47675841D01*
X72009795Y-47658798D01*
X72018221Y-47600086D01*
X72019372Y-47594306D01*
X72067573Y-47476656D01*
X72152108Y-47391289D01*
X72263206Y-47337927D01*
X72391096Y-47316290D01*
X72526007Y-47326100D01*
X72658167Y-47367078D01*
X72777805Y-47438945D01*
X72875150Y-47541423D01*
X72919927Y-47619996D01*
X72973556Y-47795763D01*
X72995560Y-48001751D01*
X73157036Y-48001751D01*
X73156559Y-47963667D01*
X73119457Y-47724579D01*
X73053595Y-47529423D01*
X72959936Y-47380983D01*
X72952494Y-47372558D01*
X72896927Y-47300143D01*
X72870427Y-47242167D01*
X72870787Y-47223323D01*
X72859159Y-47182450D01*
X72810273Y-47118852D01*
X72733762Y-47041220D01*
X72639261Y-46958248D01*
X72536404Y-46878627D01*
X72434825Y-46811050D01*
X72380372Y-46780840D01*
X72200327Y-46704872D01*
X72014658Y-46658960D01*
X71806428Y-46639978D01*
X71625195Y-46641539D01*
G36*
X80784593Y-46665764D02*
G01*
X80649943Y-46667462D01*
X80550944Y-46671800D01*
X80477198Y-46680017D01*
X80418309Y-46693353D01*
X80363880Y-46713045D01*
X80303515Y-46740332D01*
X80292222Y-46745670D01*
X80147256Y-46835229D01*
X79999703Y-46962193D01*
X79865361Y-47110597D01*
X79760029Y-47264480D01*
X79738477Y-47305173D01*
X79708545Y-47372581D01*
X79688988Y-47438992D01*
X79677682Y-47518992D01*
X79672506Y-47627172D01*
X79671333Y-47766705D01*
X79672219Y-47909657D01*
X79676775Y-48011945D01*
X79687846Y-48089342D01*
X79708279Y-48157622D01*
X79740917Y-48232559D01*
X79763918Y-48279921D01*
X79868689Y-48451272D01*
X79995123Y-48592619D01*
X80133743Y-48717250D01*
X79801648Y-49137737D01*
X79469553Y-49558223D01*
X79889636Y-49566022D01*
X80051096Y-49569137D01*
X80173832Y-49567998D01*
X80268362Y-49557150D01*
X80345200Y-49531139D01*
X80414863Y-49484510D01*
X80487866Y-49411807D01*
X80574725Y-49307576D01*
X80685955Y-49166360D01*
X80703804Y-49143667D01*
X80941333Y-48842001D01*
X80949208Y-49207167D01*
X80957082Y-49572334D01*
X81301985Y-49571442D01*
X81448156Y-49570381D01*
X81549521Y-49566806D01*
X81617715Y-49558790D01*
X81664374Y-49544405D01*
X81701132Y-49521725D01*
X81725620Y-49501276D01*
X81804352Y-49432002D01*
X81796236Y-48205908D01*
X81658853Y-48205908D01*
X81658826Y-48446930D01*
X81657822Y-48670136D01*
X81655945Y-48869249D01*
X81653296Y-49037996D01*
X81649978Y-49170100D01*
X81646092Y-49259286D01*
X81641741Y-49299280D01*
X81641029Y-49300675D01*
X81604486Y-49309746D01*
X81528552Y-49313893D01*
X81436418Y-49312434D01*
X81251777Y-49304223D01*
X81241996Y-47933831D01*
X80955444Y-47933831D01*
X80863722Y-47960022D01*
X80742691Y-47974004D01*
X80641855Y-47938155D01*
X80609478Y-47913401D01*
X80559764Y-47842561D01*
X80523575Y-47742635D01*
X80508874Y-47640708D01*
X80513990Y-47588596D01*
X80539675Y-47537603D01*
X80592340Y-47505544D01*
X80681796Y-47488928D01*
X80807277Y-47484275D01*
X80955444Y-47483889D01*
X80955444Y-47933831D01*
X81241996Y-47933831D01*
X81236971Y-47229889D01*
X80939584Y-47229889D01*
X80766966Y-47234280D01*
X80639625Y-47249873D01*
X80546904Y-47280301D01*
X80478146Y-47329198D01*
X80422694Y-47400195D01*
X80418079Y-47407648D01*
X80380648Y-47507842D01*
X80363697Y-47636611D01*
X80367911Y-47769670D01*
X80393971Y-47882737D01*
X80404097Y-47905262D01*
X80454226Y-47977561D01*
X80523008Y-48050163D01*
X80533262Y-48059083D01*
X80588776Y-48099417D01*
X80647030Y-48121846D01*
X80727245Y-48131352D01*
X80818354Y-48133000D01*
X80925722Y-48129042D01*
X81016059Y-48118675D01*
X81068857Y-48104498D01*
X81105447Y-48092736D01*
X81126412Y-48116227D01*
X81141045Y-48176902D01*
X81147299Y-48260186D01*
X81137162Y-48327838D01*
X81135321Y-48332331D01*
X81110948Y-48370238D01*
X81057028Y-48444812D01*
X80979189Y-48548578D01*
X80883057Y-48674060D01*
X80774259Y-48813781D01*
X80743777Y-48852551D01*
X80376888Y-49318249D01*
X80144055Y-49318291D01*
X80037409Y-49316493D01*
X79956457Y-49311667D01*
X79914352Y-49304730D01*
X79911222Y-49302073D01*
X79927847Y-49275671D01*
X79973942Y-49212596D01*
X80043839Y-49120346D01*
X80131868Y-49006421D01*
X80213708Y-48901957D01*
X80310221Y-48776820D01*
X80390486Y-48667581D01*
X80449487Y-48581505D01*
X80482211Y-48525859D01*
X80485649Y-48507921D01*
X80389449Y-48459176D01*
X80281247Y-48379391D01*
X80180369Y-48284478D01*
X80112971Y-48201034D01*
X80016530Y-48014792D01*
X79959996Y-47815016D01*
X79942550Y-47611725D01*
X79963373Y-47414936D01*
X80021646Y-47234667D01*
X80116549Y-47080936D01*
X80212118Y-46988433D01*
X80294236Y-46929597D01*
X80370989Y-46886419D01*
X80453324Y-46856501D01*
X80552191Y-46837447D01*
X80678536Y-46826859D01*
X80843308Y-46822341D01*
X80974451Y-46821527D01*
X81147046Y-46821756D01*
X81272796Y-46823875D01*
X81361291Y-46828911D01*
X81422125Y-46837891D01*
X81464889Y-46851839D01*
X81499175Y-46871783D01*
X81508679Y-46878669D01*
X81544447Y-46907613D01*
X81573950Y-46939744D01*
X81597804Y-46980490D01*
X81616623Y-47035279D01*
X81631021Y-47109541D01*
X81641613Y-47208705D01*
X81649012Y-47338198D01*
X81653834Y-47503450D01*
X81656691Y-47709890D01*
X81658199Y-47962946D01*
X81658853Y-48205908D01*
X81796236Y-48205908D01*
X81796176Y-48196890D01*
X81794164Y-47900757D01*
X81792220Y-47655727D01*
X81790056Y-47456461D01*
X81787384Y-47297619D01*
X81783916Y-47173860D01*
X81779365Y-47079844D01*
X81773442Y-47010233D01*
X81765859Y-46959685D01*
X81756329Y-46922861D01*
X81744564Y-46894421D01*
X81730276Y-46869025D01*
X81724055Y-46858949D01*
X81679681Y-46795550D01*
X81630377Y-46747578D01*
X81567901Y-46712929D01*
X81484011Y-46689503D01*
X81370462Y-46675197D01*
X81219012Y-46667909D01*
X81021418Y-46665538D01*
X80965290Y-46665467D01*
X80784593Y-46665764D01*
G37*
X80784593Y-46665764D02*
X80649943Y-46667462D01*
X80550944Y-46671800D01*
X80477198Y-46680017D01*
X80418309Y-46693353D01*
X80363880Y-46713045D01*
X80303515Y-46740332D01*
X80292222Y-46745670D01*
X80147256Y-46835229D01*
X79999703Y-46962193D01*
X79865361Y-47110597D01*
X79760029Y-47264480D01*
X79738477Y-47305173D01*
X79708545Y-47372581D01*
X79688988Y-47438992D01*
X79677682Y-47518992D01*
X79672506Y-47627172D01*
X79671333Y-47766705D01*
X79672219Y-47909657D01*
X79676775Y-48011945D01*
X79687846Y-48089342D01*
X79708279Y-48157622D01*
X79740917Y-48232559D01*
X79763918Y-48279921D01*
X79868689Y-48451272D01*
X79995123Y-48592619D01*
X80133743Y-48717250D01*
X79801648Y-49137737D01*
X79469553Y-49558223D01*
X79889636Y-49566022D01*
X80051096Y-49569137D01*
X80173832Y-49567998D01*
X80268362Y-49557150D01*
X80345200Y-49531139D01*
X80414863Y-49484510D01*
X80487866Y-49411807D01*
X80574725Y-49307576D01*
X80685955Y-49166360D01*
X80703804Y-49143667D01*
X80941333Y-48842001D01*
X80949208Y-49207167D01*
X80957082Y-49572334D01*
X81301985Y-49571442D01*
X81448156Y-49570381D01*
X81549521Y-49566806D01*
X81617715Y-49558790D01*
X81664374Y-49544405D01*
X81701132Y-49521725D01*
X81725620Y-49501276D01*
X81804352Y-49432002D01*
X81796236Y-48205908D01*
X81658853Y-48205908D01*
X81658826Y-48446930D01*
X81657822Y-48670136D01*
X81655945Y-48869249D01*
X81653296Y-49037996D01*
X81649978Y-49170100D01*
X81646092Y-49259286D01*
X81641741Y-49299280D01*
X81641029Y-49300675D01*
X81604486Y-49309746D01*
X81528552Y-49313893D01*
X81436418Y-49312434D01*
X81251777Y-49304223D01*
X81241996Y-47933831D01*
X80955444Y-47933831D01*
X80863722Y-47960022D01*
X80742691Y-47974004D01*
X80641855Y-47938155D01*
X80609478Y-47913401D01*
X80559764Y-47842561D01*
X80523575Y-47742635D01*
X80508874Y-47640708D01*
X80513990Y-47588596D01*
X80539675Y-47537603D01*
X80592340Y-47505544D01*
X80681796Y-47488928D01*
X80807277Y-47484275D01*
X80955444Y-47483889D01*
X80955444Y-47933831D01*
X81241996Y-47933831D01*
X81236971Y-47229889D01*
X80939584Y-47229889D01*
X80766966Y-47234280D01*
X80639625Y-47249873D01*
X80546904Y-47280301D01*
X80478146Y-47329198D01*
X80422694Y-47400195D01*
X80418079Y-47407648D01*
X80380648Y-47507842D01*
X80363697Y-47636611D01*
X80367911Y-47769670D01*
X80393971Y-47882737D01*
X80404097Y-47905262D01*
X80454226Y-47977561D01*
X80523008Y-48050163D01*
X80533262Y-48059083D01*
X80588776Y-48099417D01*
X80647030Y-48121846D01*
X80727245Y-48131352D01*
X80818354Y-48133000D01*
X80925722Y-48129042D01*
X81016059Y-48118675D01*
X81068857Y-48104498D01*
X81105447Y-48092736D01*
X81126412Y-48116227D01*
X81141045Y-48176902D01*
X81147299Y-48260186D01*
X81137162Y-48327838D01*
X81135321Y-48332331D01*
X81110948Y-48370238D01*
X81057028Y-48444812D01*
X80979189Y-48548578D01*
X80883057Y-48674060D01*
X80774259Y-48813781D01*
X80743777Y-48852551D01*
X80376888Y-49318249D01*
X80144055Y-49318291D01*
X80037409Y-49316493D01*
X79956457Y-49311667D01*
X79914352Y-49304730D01*
X79911222Y-49302073D01*
X79927847Y-49275671D01*
X79973942Y-49212596D01*
X80043839Y-49120346D01*
X80131868Y-49006421D01*
X80213708Y-48901957D01*
X80310221Y-48776820D01*
X80390486Y-48667581D01*
X80449487Y-48581505D01*
X80482211Y-48525859D01*
X80485649Y-48507921D01*
X80389449Y-48459176D01*
X80281247Y-48379391D01*
X80180369Y-48284478D01*
X80112971Y-48201034D01*
X80016530Y-48014792D01*
X79959996Y-47815016D01*
X79942550Y-47611725D01*
X79963373Y-47414936D01*
X80021646Y-47234667D01*
X80116549Y-47080936D01*
X80212118Y-46988433D01*
X80294236Y-46929597D01*
X80370989Y-46886419D01*
X80453324Y-46856501D01*
X80552191Y-46837447D01*
X80678536Y-46826859D01*
X80843308Y-46822341D01*
X80974451Y-46821527D01*
X81147046Y-46821756D01*
X81272796Y-46823875D01*
X81361291Y-46828911D01*
X81422125Y-46837891D01*
X81464889Y-46851839D01*
X81499175Y-46871783D01*
X81508679Y-46878669D01*
X81544447Y-46907613D01*
X81573950Y-46939744D01*
X81597804Y-46980490D01*
X81616623Y-47035279D01*
X81631021Y-47109541D01*
X81641613Y-47208705D01*
X81649012Y-47338198D01*
X81653834Y-47503450D01*
X81656691Y-47709890D01*
X81658199Y-47962946D01*
X81658853Y-48205908D01*
X81796236Y-48205908D01*
X81796176Y-48196890D01*
X81794164Y-47900757D01*
X81792220Y-47655727D01*
X81790056Y-47456461D01*
X81787384Y-47297619D01*
X81783916Y-47173860D01*
X81779365Y-47079844D01*
X81773442Y-47010233D01*
X81765859Y-46959685D01*
X81756329Y-46922861D01*
X81744564Y-46894421D01*
X81730276Y-46869025D01*
X81724055Y-46858949D01*
X81679681Y-46795550D01*
X81630377Y-46747578D01*
X81567901Y-46712929D01*
X81484011Y-46689503D01*
X81370462Y-46675197D01*
X81219012Y-46667909D01*
X81021418Y-46665538D01*
X80965290Y-46665467D01*
X80784593Y-46665764D01*
G36*
X77732599Y-46741281D02*
G01*
X77698983Y-46775509D01*
X77676552Y-46809417D01*
X77663045Y-46854699D01*
X77656200Y-46923050D01*
X77653754Y-47026166D01*
X77653444Y-47150503D01*
X77653444Y-47483889D01*
X78641222Y-47483889D01*
X78641222Y-47709667D01*
X77805115Y-47709667D01*
X77725794Y-47792461D01*
X77679757Y-47846280D01*
X77659318Y-47896003D01*
X77658547Y-47964452D01*
X77665240Y-48025465D01*
X77708205Y-48198699D01*
X77786998Y-48346701D01*
X77894495Y-48456451D01*
X77904992Y-48463777D01*
X77952726Y-48492189D01*
X78003767Y-48510816D01*
X78071120Y-48521670D01*
X78167790Y-48526762D01*
X78306781Y-48528106D01*
X78320840Y-48528112D01*
X78641222Y-48528112D01*
X78641222Y-48753889D01*
X77805115Y-48753889D01*
X77729280Y-48833045D01*
X77696865Y-48869432D01*
X77675310Y-48906010D01*
X77662404Y-48954716D01*
X77655934Y-49027487D01*
X77653688Y-49136261D01*
X77653444Y-49242267D01*
X77653444Y-49572334D01*
X79332666Y-49570550D01*
X79487888Y-49433930D01*
X79487888Y-48626673D01*
X79343137Y-48626673D01*
X79342999Y-48829388D01*
X79342102Y-49002322D01*
X79340482Y-49139093D01*
X79338176Y-49233318D01*
X79335220Y-49278616D01*
X79334631Y-49281057D01*
X79320319Y-49293299D01*
X79284017Y-49302442D01*
X79219700Y-49308751D01*
X79121345Y-49312491D01*
X78982926Y-49313925D01*
X78798418Y-49313319D01*
X78634859Y-49311781D01*
X77949777Y-49304223D01*
X77949777Y-48909112D01*
X78436611Y-48901390D01*
X78923444Y-48893668D01*
X78923444Y-48274112D01*
X78605944Y-48272519D01*
X78466812Y-48268872D01*
X78338864Y-48260258D01*
X78238486Y-48248067D01*
X78190644Y-48237241D01*
X78096141Y-48180124D01*
X78018010Y-48089432D01*
X77971063Y-47985149D01*
X77963888Y-47931271D01*
X77963888Y-47850778D01*
X78923444Y-47850778D01*
X78923444Y-47231222D01*
X78436611Y-47223500D01*
X77949777Y-47215778D01*
X77949777Y-46820667D01*
X78515549Y-46820667D01*
X78704322Y-46819715D01*
X78861584Y-46819992D01*
X78990238Y-46826198D01*
X79093185Y-46843033D01*
X79173328Y-46875197D01*
X79233569Y-46927389D01*
X79276810Y-47004309D01*
X79305953Y-47110657D01*
X79323900Y-47251133D01*
X79333554Y-47430436D01*
X79337816Y-47653267D01*
X79339588Y-47924326D01*
X79340994Y-48157426D01*
X79342481Y-48400558D01*
X79343137Y-48626673D01*
X79487888Y-48626673D01*
X79487888Y-48239112D01*
X79487829Y-47948166D01*
X79487472Y-47708121D01*
X79486552Y-47513433D01*
X79484802Y-47358557D01*
X79481956Y-47237951D01*
X79477746Y-47146070D01*
X79471906Y-47077370D01*
X79464170Y-47026308D01*
X79454271Y-46987339D01*
X79441943Y-46954921D01*
X79426919Y-46923508D01*
X79424388Y-46918485D01*
X79331795Y-46791690D01*
X79248000Y-46729525D01*
X79209543Y-46709422D01*
X79170064Y-46694096D01*
X79121612Y-46682895D01*
X79056236Y-46675166D01*
X78965987Y-46670255D01*
X78842913Y-46667510D01*
X78679065Y-46666277D01*
X78473433Y-46665909D01*
X77811755Y-46665445D01*
X77732599Y-46741281D01*
G37*
X77732599Y-46741281D02*
X77698983Y-46775509D01*
X77676552Y-46809417D01*
X77663045Y-46854699D01*
X77656200Y-46923050D01*
X77653754Y-47026166D01*
X77653444Y-47150503D01*
X77653444Y-47483889D01*
X78641222Y-47483889D01*
X78641222Y-47709667D01*
X77805115Y-47709667D01*
X77725794Y-47792461D01*
X77679757Y-47846280D01*
X77659318Y-47896003D01*
X77658547Y-47964452D01*
X77665240Y-48025465D01*
X77708205Y-48198699D01*
X77786998Y-48346701D01*
X77894495Y-48456451D01*
X77904992Y-48463777D01*
X77952726Y-48492189D01*
X78003767Y-48510816D01*
X78071120Y-48521670D01*
X78167790Y-48526762D01*
X78306781Y-48528106D01*
X78320840Y-48528112D01*
X78641222Y-48528112D01*
X78641222Y-48753889D01*
X77805115Y-48753889D01*
X77729280Y-48833045D01*
X77696865Y-48869432D01*
X77675310Y-48906010D01*
X77662404Y-48954716D01*
X77655934Y-49027487D01*
X77653688Y-49136261D01*
X77653444Y-49242267D01*
X77653444Y-49572334D01*
X79332666Y-49570550D01*
X79487888Y-49433930D01*
X79487888Y-48626673D01*
X79343137Y-48626673D01*
X79342999Y-48829388D01*
X79342102Y-49002322D01*
X79340482Y-49139093D01*
X79338176Y-49233318D01*
X79335220Y-49278616D01*
X79334631Y-49281057D01*
X79320319Y-49293299D01*
X79284017Y-49302442D01*
X79219700Y-49308751D01*
X79121345Y-49312491D01*
X78982926Y-49313925D01*
X78798418Y-49313319D01*
X78634859Y-49311781D01*
X77949777Y-49304223D01*
X77949777Y-48909112D01*
X78436611Y-48901390D01*
X78923444Y-48893668D01*
X78923444Y-48274112D01*
X78605944Y-48272519D01*
X78466812Y-48268872D01*
X78338864Y-48260258D01*
X78238486Y-48248067D01*
X78190644Y-48237241D01*
X78096141Y-48180124D01*
X78018010Y-48089432D01*
X77971063Y-47985149D01*
X77963888Y-47931271D01*
X77963888Y-47850778D01*
X78923444Y-47850778D01*
X78923444Y-47231222D01*
X78436611Y-47223500D01*
X77949777Y-47215778D01*
X77949777Y-46820667D01*
X78515549Y-46820667D01*
X78704322Y-46819715D01*
X78861584Y-46819992D01*
X78990238Y-46826198D01*
X79093185Y-46843033D01*
X79173328Y-46875197D01*
X79233569Y-46927389D01*
X79276810Y-47004309D01*
X79305953Y-47110657D01*
X79323900Y-47251133D01*
X79333554Y-47430436D01*
X79337816Y-47653267D01*
X79339588Y-47924326D01*
X79340994Y-48157426D01*
X79342481Y-48400558D01*
X79343137Y-48626673D01*
X79487888Y-48626673D01*
X79487888Y-48239112D01*
X79487829Y-47948166D01*
X79487472Y-47708121D01*
X79486552Y-47513433D01*
X79484802Y-47358557D01*
X79481956Y-47237951D01*
X79477746Y-47146070D01*
X79471906Y-47077370D01*
X79464170Y-47026308D01*
X79454271Y-46987339D01*
X79441943Y-46954921D01*
X79426919Y-46923508D01*
X79424388Y-46918485D01*
X79331795Y-46791690D01*
X79248000Y-46729525D01*
X79209543Y-46709422D01*
X79170064Y-46694096D01*
X79121612Y-46682895D01*
X79056236Y-46675166D01*
X78965987Y-46670255D01*
X78842913Y-46667510D01*
X78679065Y-46666277D01*
X78473433Y-46665909D01*
X77811755Y-46665445D01*
X77732599Y-46741281D01*
G36*
X75523930Y-46748793D02*
G01*
X75475407Y-46806473D01*
X75455997Y-46859911D01*
X75458429Y-46934812D01*
X75462446Y-46966159D01*
X75501591Y-47126756D01*
X75568521Y-47269954D01*
X75654843Y-47379336D01*
X75687364Y-47406081D01*
X75783201Y-47453210D01*
X75915256Y-47479674D01*
X75960109Y-47483889D01*
X76143555Y-47498000D01*
X76150958Y-48535167D01*
X76158362Y-49572334D01*
X76503736Y-49571442D01*
X76650177Y-49570358D01*
X76751766Y-49566740D01*
X76820093Y-49558699D01*
X76866747Y-49544345D01*
X76903317Y-49521791D01*
X76926349Y-49502560D01*
X77003588Y-49434571D01*
X77011016Y-48466286D01*
X77018444Y-47498000D01*
X77217040Y-47483889D01*
X77349072Y-47468213D01*
X77440328Y-47440823D01*
X77492207Y-47409272D01*
X77524377Y-47381968D01*
X77545978Y-47352990D01*
X77559113Y-47311283D01*
X77565888Y-47245790D01*
X77568408Y-47145457D01*
X77568777Y-47007105D01*
X77568777Y-46820667D01*
X77413555Y-46820667D01*
X77413555Y-47215778D01*
X77138388Y-47223856D01*
X76863222Y-47231933D01*
X76863222Y-48256319D01*
X76862721Y-48491424D01*
X76861294Y-48708549D01*
X76859059Y-48901269D01*
X76856130Y-49063158D01*
X76852624Y-49187789D01*
X76848657Y-49268737D01*
X76844407Y-49299519D01*
X76808591Y-49308983D01*
X76732732Y-49315741D01*
X76633220Y-49318334D01*
X76439888Y-49318334D01*
X76439888Y-47237142D01*
X76220835Y-47224461D01*
X76065640Y-47207625D01*
X75957143Y-47178416D01*
X75926933Y-47162737D01*
X75853658Y-47090452D01*
X75794475Y-46990082D01*
X75763984Y-46888040D01*
X75762555Y-46865364D01*
X75763615Y-46848235D01*
X75770811Y-46834804D01*
X75790169Y-46824692D01*
X75827713Y-46817518D01*
X75889469Y-46812901D01*
X75981462Y-46810459D01*
X76109716Y-46809813D01*
X76280259Y-46810581D01*
X76499113Y-46812383D01*
X76588055Y-46813185D01*
X77413555Y-46820667D01*
X77568777Y-46820667D01*
X77568777Y-46665445D01*
X75603782Y-46665445D01*
X75523930Y-46748793D01*
G37*
X75523930Y-46748793D02*
X75475407Y-46806473D01*
X75455997Y-46859911D01*
X75458429Y-46934812D01*
X75462446Y-46966159D01*
X75501591Y-47126756D01*
X75568521Y-47269954D01*
X75654843Y-47379336D01*
X75687364Y-47406081D01*
X75783201Y-47453210D01*
X75915256Y-47479674D01*
X75960109Y-47483889D01*
X76143555Y-47498000D01*
X76150958Y-48535167D01*
X76158362Y-49572334D01*
X76503736Y-49571442D01*
X76650177Y-49570358D01*
X76751766Y-49566740D01*
X76820093Y-49558699D01*
X76866747Y-49544345D01*
X76903317Y-49521791D01*
X76926349Y-49502560D01*
X77003588Y-49434571D01*
X77011016Y-48466286D01*
X77018444Y-47498000D01*
X77217040Y-47483889D01*
X77349072Y-47468213D01*
X77440328Y-47440823D01*
X77492207Y-47409272D01*
X77524377Y-47381968D01*
X77545978Y-47352990D01*
X77559113Y-47311283D01*
X77565888Y-47245790D01*
X77568408Y-47145457D01*
X77568777Y-47007105D01*
X77568777Y-46820667D01*
X77413555Y-46820667D01*
X77413555Y-47215778D01*
X77138388Y-47223856D01*
X76863222Y-47231933D01*
X76863222Y-48256319D01*
X76862721Y-48491424D01*
X76861294Y-48708549D01*
X76859059Y-48901269D01*
X76856130Y-49063158D01*
X76852624Y-49187789D01*
X76848657Y-49268737D01*
X76844407Y-49299519D01*
X76808591Y-49308983D01*
X76732732Y-49315741D01*
X76633220Y-49318334D01*
X76439888Y-49318334D01*
X76439888Y-47237142D01*
X76220835Y-47224461D01*
X76065640Y-47207625D01*
X75957143Y-47178416D01*
X75926933Y-47162737D01*
X75853658Y-47090452D01*
X75794475Y-46990082D01*
X75763984Y-46888040D01*
X75762555Y-46865364D01*
X75763615Y-46848235D01*
X75770811Y-46834804D01*
X75790169Y-46824692D01*
X75827713Y-46817518D01*
X75889469Y-46812901D01*
X75981462Y-46810459D01*
X76109716Y-46809813D01*
X76280259Y-46810581D01*
X76499113Y-46812383D01*
X76588055Y-46813185D01*
X77413555Y-46820667D01*
X77568777Y-46820667D01*
X77568777Y-46665445D01*
X75603782Y-46665445D01*
X75523930Y-46748793D01*
G36*
X74378148Y-46665764D02*
G01*
X74243499Y-46667462D01*
X74144499Y-46671800D01*
X74070754Y-46680017D01*
X74011865Y-46693353D01*
X73957436Y-46713045D01*
X73897070Y-46740332D01*
X73885777Y-46745670D01*
X73740811Y-46835229D01*
X73593258Y-46962193D01*
X73458917Y-47110597D01*
X73353585Y-47264480D01*
X73332033Y-47305173D01*
X73302101Y-47372581D01*
X73282543Y-47438992D01*
X73271238Y-47518992D01*
X73266062Y-47627172D01*
X73264888Y-47766705D01*
X73265775Y-47909657D01*
X73270331Y-48011945D01*
X73281402Y-48089342D01*
X73301834Y-48157622D01*
X73334473Y-48232559D01*
X73357474Y-48279921D01*
X73462244Y-48451272D01*
X73588679Y-48592619D01*
X73727299Y-48717250D01*
X73395204Y-49137737D01*
X73063109Y-49558223D01*
X73483192Y-49566022D01*
X73644651Y-49569137D01*
X73767388Y-49567998D01*
X73861918Y-49557150D01*
X73938756Y-49531139D01*
X74008419Y-49484510D01*
X74081422Y-49411807D01*
X74168280Y-49307576D01*
X74279511Y-49166360D01*
X74297360Y-49143667D01*
X74534888Y-48842001D01*
X74542763Y-49207167D01*
X74550638Y-49572334D01*
X74895541Y-49571442D01*
X75041712Y-49570381D01*
X75143077Y-49566806D01*
X75211271Y-49558790D01*
X75257929Y-49544405D01*
X75294688Y-49521725D01*
X75319176Y-49501276D01*
X75397908Y-49432002D01*
X75389791Y-48205908D01*
X75252408Y-48205908D01*
X75252381Y-48446930D01*
X75251378Y-48670136D01*
X75249501Y-48869249D01*
X75246852Y-49037996D01*
X75243533Y-49170100D01*
X75239648Y-49259286D01*
X75235296Y-49299280D01*
X75234584Y-49300675D01*
X75198041Y-49309746D01*
X75122108Y-49313893D01*
X75029973Y-49312434D01*
X74845333Y-49304223D01*
X74837930Y-48267056D01*
X74835552Y-47933831D01*
X74549000Y-47933831D01*
X74457277Y-47960022D01*
X74336247Y-47974004D01*
X74235411Y-47938155D01*
X74203034Y-47913401D01*
X74153320Y-47842561D01*
X74117131Y-47742635D01*
X74102430Y-47640708D01*
X74107545Y-47588596D01*
X74133231Y-47537603D01*
X74185895Y-47505544D01*
X74275352Y-47488928D01*
X74400833Y-47484275D01*
X74549000Y-47483889D01*
X74549000Y-47933831D01*
X74835552Y-47933831D01*
X74830526Y-47229889D01*
X74533139Y-47229889D01*
X74360521Y-47234280D01*
X74233180Y-47249873D01*
X74140460Y-47280301D01*
X74071702Y-47329198D01*
X74016249Y-47400195D01*
X74011635Y-47407648D01*
X73974203Y-47507842D01*
X73957253Y-47636611D01*
X73961467Y-47769670D01*
X73987527Y-47882737D01*
X73997653Y-47905262D01*
X74047782Y-47977561D01*
X74116564Y-48050163D01*
X74126818Y-48059083D01*
X74182331Y-48099417D01*
X74240586Y-48121846D01*
X74320801Y-48131352D01*
X74411909Y-48133000D01*
X74519278Y-48129042D01*
X74609615Y-48118675D01*
X74662412Y-48104498D01*
X74699003Y-48092736D01*
X74719968Y-48116227D01*
X74734600Y-48176902D01*
X74740854Y-48260186D01*
X74730718Y-48327838D01*
X74728876Y-48332331D01*
X74704504Y-48370238D01*
X74650584Y-48444812D01*
X74572745Y-48548578D01*
X74476612Y-48674060D01*
X74367815Y-48813781D01*
X74337333Y-48852551D01*
X73970444Y-49318249D01*
X73737611Y-49318291D01*
X73630965Y-49316493D01*
X73550013Y-49311667D01*
X73507907Y-49304730D01*
X73504777Y-49302073D01*
X73521402Y-49275671D01*
X73567498Y-49212596D01*
X73637394Y-49120346D01*
X73725423Y-49006421D01*
X73807264Y-48901957D01*
X73903777Y-48776820D01*
X73984041Y-48667581D01*
X74043043Y-48581505D01*
X74075767Y-48525859D01*
X74079205Y-48507921D01*
X73983004Y-48459176D01*
X73874803Y-48379391D01*
X73773925Y-48284478D01*
X73706527Y-48201034D01*
X73610086Y-48014792D01*
X73553552Y-47815016D01*
X73536106Y-47611725D01*
X73556929Y-47414936D01*
X73615201Y-47234667D01*
X73710104Y-47080936D01*
X73805674Y-46988433D01*
X73887791Y-46929597D01*
X73964544Y-46886419D01*
X74046880Y-46856501D01*
X74145747Y-46837447D01*
X74272092Y-46826859D01*
X74436864Y-46822341D01*
X74568006Y-46821527D01*
X74740602Y-46821756D01*
X74866351Y-46823875D01*
X74954847Y-46828911D01*
X75015680Y-46837891D01*
X75058444Y-46851839D01*
X75092730Y-46871783D01*
X75102235Y-46878669D01*
X75138002Y-46907613D01*
X75167506Y-46939744D01*
X75191360Y-46980490D01*
X75210179Y-47035279D01*
X75224577Y-47109541D01*
X75235169Y-47208705D01*
X75242568Y-47338198D01*
X75247389Y-47503450D01*
X75250246Y-47709890D01*
X75251754Y-47962946D01*
X75252408Y-48205908D01*
X75389791Y-48205908D01*
X75389731Y-48196890D01*
X75387720Y-47900757D01*
X75385776Y-47655727D01*
X75383612Y-47456461D01*
X75380940Y-47297619D01*
X75377472Y-47173860D01*
X75372920Y-47079844D01*
X75366997Y-47010233D01*
X75359414Y-46959685D01*
X75349884Y-46922861D01*
X75338119Y-46894421D01*
X75323831Y-46869025D01*
X75317610Y-46858949D01*
X75273236Y-46795550D01*
X75223933Y-46747578D01*
X75161457Y-46712929D01*
X75077566Y-46689503D01*
X74964017Y-46675197D01*
X74812567Y-46667909D01*
X74614973Y-46665538D01*
X74558846Y-46665467D01*
X74378148Y-46665764D01*
G37*
X74378148Y-46665764D02*
X74243499Y-46667462D01*
X74144499Y-46671800D01*
X74070754Y-46680017D01*
X74011865Y-46693353D01*
X73957436Y-46713045D01*
X73897070Y-46740332D01*
X73885777Y-46745670D01*
X73740811Y-46835229D01*
X73593258Y-46962193D01*
X73458917Y-47110597D01*
X73353585Y-47264480D01*
X73332033Y-47305173D01*
X73302101Y-47372581D01*
X73282543Y-47438992D01*
X73271238Y-47518992D01*
X73266062Y-47627172D01*
X73264888Y-47766705D01*
X73265775Y-47909657D01*
X73270331Y-48011945D01*
X73281402Y-48089342D01*
X73301834Y-48157622D01*
X73334473Y-48232559D01*
X73357474Y-48279921D01*
X73462244Y-48451272D01*
X73588679Y-48592619D01*
X73727299Y-48717250D01*
X73395204Y-49137737D01*
X73063109Y-49558223D01*
X73483192Y-49566022D01*
X73644651Y-49569137D01*
X73767388Y-49567998D01*
X73861918Y-49557150D01*
X73938756Y-49531139D01*
X74008419Y-49484510D01*
X74081422Y-49411807D01*
X74168280Y-49307576D01*
X74279511Y-49166360D01*
X74297360Y-49143667D01*
X74534888Y-48842001D01*
X74542763Y-49207167D01*
X74550638Y-49572334D01*
X74895541Y-49571442D01*
X75041712Y-49570381D01*
X75143077Y-49566806D01*
X75211271Y-49558790D01*
X75257929Y-49544405D01*
X75294688Y-49521725D01*
X75319176Y-49501276D01*
X75397908Y-49432002D01*
X75389791Y-48205908D01*
X75252408Y-48205908D01*
X75252381Y-48446930D01*
X75251378Y-48670136D01*
X75249501Y-48869249D01*
X75246852Y-49037996D01*
X75243533Y-49170100D01*
X75239648Y-49259286D01*
X75235296Y-49299280D01*
X75234584Y-49300675D01*
X75198041Y-49309746D01*
X75122108Y-49313893D01*
X75029973Y-49312434D01*
X74845333Y-49304223D01*
X74837930Y-48267056D01*
X74835552Y-47933831D01*
X74549000Y-47933831D01*
X74457277Y-47960022D01*
X74336247Y-47974004D01*
X74235411Y-47938155D01*
X74203034Y-47913401D01*
X74153320Y-47842561D01*
X74117131Y-47742635D01*
X74102430Y-47640708D01*
X74107545Y-47588596D01*
X74133231Y-47537603D01*
X74185895Y-47505544D01*
X74275352Y-47488928D01*
X74400833Y-47484275D01*
X74549000Y-47483889D01*
X74549000Y-47933831D01*
X74835552Y-47933831D01*
X74830526Y-47229889D01*
X74533139Y-47229889D01*
X74360521Y-47234280D01*
X74233180Y-47249873D01*
X74140460Y-47280301D01*
X74071702Y-47329198D01*
X74016249Y-47400195D01*
X74011635Y-47407648D01*
X73974203Y-47507842D01*
X73957253Y-47636611D01*
X73961467Y-47769670D01*
X73987527Y-47882737D01*
X73997653Y-47905262D01*
X74047782Y-47977561D01*
X74116564Y-48050163D01*
X74126818Y-48059083D01*
X74182331Y-48099417D01*
X74240586Y-48121846D01*
X74320801Y-48131352D01*
X74411909Y-48133000D01*
X74519278Y-48129042D01*
X74609615Y-48118675D01*
X74662412Y-48104498D01*
X74699003Y-48092736D01*
X74719968Y-48116227D01*
X74734600Y-48176902D01*
X74740854Y-48260186D01*
X74730718Y-48327838D01*
X74728876Y-48332331D01*
X74704504Y-48370238D01*
X74650584Y-48444812D01*
X74572745Y-48548578D01*
X74476612Y-48674060D01*
X74367815Y-48813781D01*
X74337333Y-48852551D01*
X73970444Y-49318249D01*
X73737611Y-49318291D01*
X73630965Y-49316493D01*
X73550013Y-49311667D01*
X73507907Y-49304730D01*
X73504777Y-49302073D01*
X73521402Y-49275671D01*
X73567498Y-49212596D01*
X73637394Y-49120346D01*
X73725423Y-49006421D01*
X73807264Y-48901957D01*
X73903777Y-48776820D01*
X73984041Y-48667581D01*
X74043043Y-48581505D01*
X74075767Y-48525859D01*
X74079205Y-48507921D01*
X73983004Y-48459176D01*
X73874803Y-48379391D01*
X73773925Y-48284478D01*
X73706527Y-48201034D01*
X73610086Y-48014792D01*
X73553552Y-47815016D01*
X73536106Y-47611725D01*
X73556929Y-47414936D01*
X73615201Y-47234667D01*
X73710104Y-47080936D01*
X73805674Y-46988433D01*
X73887791Y-46929597D01*
X73964544Y-46886419D01*
X74046880Y-46856501D01*
X74145747Y-46837447D01*
X74272092Y-46826859D01*
X74436864Y-46822341D01*
X74568006Y-46821527D01*
X74740602Y-46821756D01*
X74866351Y-46823875D01*
X74954847Y-46828911D01*
X75015680Y-46837891D01*
X75058444Y-46851839D01*
X75092730Y-46871783D01*
X75102235Y-46878669D01*
X75138002Y-46907613D01*
X75167506Y-46939744D01*
X75191360Y-46980490D01*
X75210179Y-47035279D01*
X75224577Y-47109541D01*
X75235169Y-47208705D01*
X75242568Y-47338198D01*
X75247389Y-47503450D01*
X75250246Y-47709890D01*
X75251754Y-47962946D01*
X75252408Y-48205908D01*
X75389791Y-48205908D01*
X75389731Y-48196890D01*
X75387720Y-47900757D01*
X75385776Y-47655727D01*
X75383612Y-47456461D01*
X75380940Y-47297619D01*
X75377472Y-47173860D01*
X75372920Y-47079844D01*
X75366997Y-47010233D01*
X75359414Y-46959685D01*
X75349884Y-46922861D01*
X75338119Y-46894421D01*
X75323831Y-46869025D01*
X75317610Y-46858949D01*
X75273236Y-46795550D01*
X75223933Y-46747578D01*
X75161457Y-46712929D01*
X75077566Y-46689503D01*
X74964017Y-46675197D01*
X74812567Y-46667909D01*
X74614973Y-46665538D01*
X74558846Y-46665467D01*
X74378148Y-46665764D01*
G36*
X74453054Y-51038367D02*
G01*
X74317039Y-51116391D01*
X74202584Y-51242628D01*
X74113007Y-51413966D01*
X74081899Y-51504279D01*
X74040226Y-51690504D01*
X74011562Y-51916912D01*
X73996009Y-52168738D01*
X73993670Y-52431216D01*
X74004648Y-52689580D01*
X74029046Y-52929065D01*
X74066966Y-53134903D01*
X74070446Y-53148922D01*
X74141884Y-53359196D01*
X74236822Y-53523583D01*
X74353202Y-53639867D01*
X74488963Y-53705834D01*
X74602562Y-53720957D01*
X74707372Y-53709596D01*
X74807352Y-53681390D01*
X74829215Y-53671568D01*
X74952022Y-53584000D01*
X75051478Y-53456687D01*
X75129081Y-53286229D01*
X75186330Y-53069222D01*
X75224722Y-52802267D01*
X75228210Y-52765870D01*
X75232304Y-52696181D01*
X74909714Y-52696181D01*
X74908485Y-52742080D01*
X74896252Y-53004728D01*
X74876380Y-53214767D01*
X74848227Y-53375599D01*
X74811152Y-53490624D01*
X74764514Y-53563244D01*
X74751441Y-53575049D01*
X74679881Y-53601084D01*
X74582664Y-53599556D01*
X74481391Y-53573768D01*
X74397662Y-53527026D01*
X74389274Y-53519658D01*
X74296034Y-53404001D01*
X74222005Y-53247291D01*
X74166156Y-53046025D01*
X74127457Y-52796697D01*
X74108358Y-52563889D01*
X74103372Y-52335171D01*
X74112313Y-52096262D01*
X74133676Y-51864467D01*
X74165954Y-51657087D01*
X74199360Y-51517905D01*
X74248035Y-51405344D01*
X74316161Y-51342996D01*
X74410996Y-51325964D01*
X74472847Y-51333311D01*
X74598106Y-51382048D01*
X74701921Y-51477842D01*
X74784589Y-51621649D01*
X74846406Y-51814429D01*
X74887669Y-52057139D01*
X74908673Y-52350737D01*
X74909714Y-52696181D01*
X75232304Y-52696181D01*
X75241065Y-52547078D01*
X75242444Y-52313775D01*
X75233249Y-52079443D01*
X75214381Y-51857567D01*
X75186742Y-51661630D01*
X75151233Y-51505116D01*
X75141957Y-51475847D01*
X75056155Y-51285830D01*
X74945362Y-51144743D01*
X74810796Y-51053645D01*
X74653676Y-51013592D01*
X74607308Y-51011667D01*
X74453054Y-51038367D01*
G37*
X74453054Y-51038367D02*
X74317039Y-51116391D01*
X74202584Y-51242628D01*
X74113007Y-51413966D01*
X74081899Y-51504279D01*
X74040226Y-51690504D01*
X74011562Y-51916912D01*
X73996009Y-52168738D01*
X73993670Y-52431216D01*
X74004648Y-52689580D01*
X74029046Y-52929065D01*
X74066966Y-53134903D01*
X74070446Y-53148922D01*
X74141884Y-53359196D01*
X74236822Y-53523583D01*
X74353202Y-53639867D01*
X74488963Y-53705834D01*
X74602562Y-53720957D01*
X74707372Y-53709596D01*
X74807352Y-53681390D01*
X74829215Y-53671568D01*
X74952022Y-53584000D01*
X75051478Y-53456687D01*
X75129081Y-53286229D01*
X75186330Y-53069222D01*
X75224722Y-52802267D01*
X75228210Y-52765870D01*
X75232304Y-52696181D01*
X74909714Y-52696181D01*
X74908485Y-52742080D01*
X74896252Y-53004728D01*
X74876380Y-53214767D01*
X74848227Y-53375599D01*
X74811152Y-53490624D01*
X74764514Y-53563244D01*
X74751441Y-53575049D01*
X74679881Y-53601084D01*
X74582664Y-53599556D01*
X74481391Y-53573768D01*
X74397662Y-53527026D01*
X74389274Y-53519658D01*
X74296034Y-53404001D01*
X74222005Y-53247291D01*
X74166156Y-53046025D01*
X74127457Y-52796697D01*
X74108358Y-52563889D01*
X74103372Y-52335171D01*
X74112313Y-52096262D01*
X74133676Y-51864467D01*
X74165954Y-51657087D01*
X74199360Y-51517905D01*
X74248035Y-51405344D01*
X74316161Y-51342996D01*
X74410996Y-51325964D01*
X74472847Y-51333311D01*
X74598106Y-51382048D01*
X74701921Y-51477842D01*
X74784589Y-51621649D01*
X74846406Y-51814429D01*
X74887669Y-52057139D01*
X74908673Y-52350737D01*
X74909714Y-52696181D01*
X75232304Y-52696181D01*
X75241065Y-52547078D01*
X75242444Y-52313775D01*
X75233249Y-52079443D01*
X75214381Y-51857567D01*
X75186742Y-51661630D01*
X75151233Y-51505116D01*
X75141957Y-51475847D01*
X75056155Y-51285830D01*
X74945362Y-51144743D01*
X74810796Y-51053645D01*
X74653676Y-51013592D01*
X74607308Y-51011667D01*
X74453054Y-51038367D01*
D12*
X96223000Y-77981000D02*
X96223000Y-75181000D01*
X96223000Y-75181000D02*
X119423000Y-75181000D01*
X119423000Y-75181000D02*
X119423000Y-77981000D01*
X119423000Y-77981000D02*
X96223000Y-77981000D01*
X98933000Y-77981000D02*
X98933000Y-75181000D01*
X117463000Y-112903000D02*
G75*
G03*
X117463000Y-112903000I-3270000J0D01*
G01*
X114193000Y-109673000D02*
X114193000Y-116133000D01*
X114153000Y-109673000D02*
X114153000Y-116133000D01*
X114113000Y-109673000D02*
X114113000Y-116133000D01*
X114073000Y-109675000D02*
X114073000Y-116131000D01*
X114033000Y-109676000D02*
X114033000Y-116130000D01*
X113993000Y-109679000D02*
X113993000Y-116127000D01*
X113953000Y-109681000D02*
X113953000Y-111863000D01*
X113953000Y-113943000D02*
X113953000Y-116125000D01*
X113913000Y-109685000D02*
X113913000Y-111863000D01*
X113913000Y-113943000D02*
X113913000Y-116121000D01*
X113873000Y-109688000D02*
X113873000Y-111863000D01*
X113873000Y-113943000D02*
X113873000Y-116118000D01*
X113833000Y-109692000D02*
X113833000Y-111863000D01*
X113833000Y-113943000D02*
X113833000Y-116114000D01*
X113793000Y-109697000D02*
X113793000Y-111863000D01*
X113793000Y-113943000D02*
X113793000Y-116109000D01*
X113753000Y-109702000D02*
X113753000Y-111863000D01*
X113753000Y-113943000D02*
X113753000Y-116104000D01*
X113713000Y-109708000D02*
X113713000Y-111863000D01*
X113713000Y-113943000D02*
X113713000Y-116098000D01*
X113673000Y-109714000D02*
X113673000Y-111863000D01*
X113673000Y-113943000D02*
X113673000Y-116092000D01*
X113633000Y-109721000D02*
X113633000Y-111863000D01*
X113633000Y-113943000D02*
X113633000Y-116085000D01*
X113593000Y-109728000D02*
X113593000Y-111863000D01*
X113593000Y-113943000D02*
X113593000Y-116078000D01*
X113553000Y-109736000D02*
X113553000Y-111863000D01*
X113553000Y-113943000D02*
X113553000Y-116070000D01*
X113513000Y-109744000D02*
X113513000Y-111863000D01*
X113513000Y-113943000D02*
X113513000Y-116062000D01*
X113472000Y-109753000D02*
X113472000Y-111863000D01*
X113472000Y-113943000D02*
X113472000Y-116053000D01*
X113432000Y-109762000D02*
X113432000Y-111863000D01*
X113432000Y-113943000D02*
X113432000Y-116044000D01*
X113392000Y-109772000D02*
X113392000Y-111863000D01*
X113392000Y-113943000D02*
X113392000Y-116034000D01*
X113352000Y-109782000D02*
X113352000Y-111863000D01*
X113352000Y-113943000D02*
X113352000Y-116024000D01*
X113312000Y-109793000D02*
X113312000Y-111863000D01*
X113312000Y-113943000D02*
X113312000Y-116013000D01*
X113272000Y-109805000D02*
X113272000Y-111863000D01*
X113272000Y-113943000D02*
X113272000Y-116001000D01*
X113232000Y-109817000D02*
X113232000Y-111863000D01*
X113232000Y-113943000D02*
X113232000Y-115989000D01*
X113192000Y-109829000D02*
X113192000Y-111863000D01*
X113192000Y-113943000D02*
X113192000Y-115977000D01*
X113152000Y-109842000D02*
X113152000Y-111863000D01*
X113152000Y-113943000D02*
X113152000Y-115964000D01*
X113112000Y-109856000D02*
X113112000Y-111863000D01*
X113112000Y-113943000D02*
X113112000Y-115950000D01*
X113072000Y-109870000D02*
X113072000Y-111863000D01*
X113072000Y-113943000D02*
X113072000Y-115936000D01*
X113032000Y-109885000D02*
X113032000Y-111863000D01*
X113032000Y-113943000D02*
X113032000Y-115921000D01*
X112992000Y-109901000D02*
X112992000Y-111863000D01*
X112992000Y-113943000D02*
X112992000Y-115905000D01*
X112952000Y-109917000D02*
X112952000Y-111863000D01*
X112952000Y-113943000D02*
X112952000Y-115889000D01*
X112912000Y-109933000D02*
X112912000Y-111863000D01*
X112912000Y-113943000D02*
X112912000Y-115873000D01*
X112872000Y-109951000D02*
X112872000Y-111863000D01*
X112872000Y-113943000D02*
X112872000Y-115855000D01*
X112832000Y-109969000D02*
X112832000Y-111863000D01*
X112832000Y-113943000D02*
X112832000Y-115837000D01*
X112792000Y-109987000D02*
X112792000Y-111863000D01*
X112792000Y-113943000D02*
X112792000Y-115819000D01*
X112752000Y-110007000D02*
X112752000Y-111863000D01*
X112752000Y-113943000D02*
X112752000Y-115799000D01*
X112712000Y-110027000D02*
X112712000Y-111863000D01*
X112712000Y-113943000D02*
X112712000Y-115779000D01*
X112672000Y-110047000D02*
X112672000Y-111863000D01*
X112672000Y-113943000D02*
X112672000Y-115759000D01*
X112632000Y-110069000D02*
X112632000Y-111863000D01*
X112632000Y-113943000D02*
X112632000Y-115737000D01*
X112592000Y-110091000D02*
X112592000Y-111863000D01*
X112592000Y-113943000D02*
X112592000Y-115715000D01*
X112552000Y-110113000D02*
X112552000Y-111863000D01*
X112552000Y-113943000D02*
X112552000Y-115693000D01*
X112512000Y-110137000D02*
X112512000Y-111863000D01*
X112512000Y-113943000D02*
X112512000Y-115669000D01*
X112472000Y-110161000D02*
X112472000Y-111863000D01*
X112472000Y-113943000D02*
X112472000Y-115645000D01*
X112432000Y-110187000D02*
X112432000Y-111863000D01*
X112432000Y-113943000D02*
X112432000Y-115619000D01*
X112392000Y-110213000D02*
X112392000Y-111863000D01*
X112392000Y-113943000D02*
X112392000Y-115593000D01*
X112352000Y-110239000D02*
X112352000Y-111863000D01*
X112352000Y-113943000D02*
X112352000Y-115567000D01*
X112312000Y-110267000D02*
X112312000Y-111863000D01*
X112312000Y-113943000D02*
X112312000Y-115539000D01*
X112272000Y-110296000D02*
X112272000Y-111863000D01*
X112272000Y-113943000D02*
X112272000Y-115510000D01*
X112232000Y-110325000D02*
X112232000Y-111863000D01*
X112232000Y-113943000D02*
X112232000Y-115481000D01*
X112192000Y-110355000D02*
X112192000Y-111863000D01*
X112192000Y-113943000D02*
X112192000Y-115451000D01*
X112152000Y-110387000D02*
X112152000Y-111863000D01*
X112152000Y-113943000D02*
X112152000Y-115419000D01*
X112112000Y-110419000D02*
X112112000Y-111863000D01*
X112112000Y-113943000D02*
X112112000Y-115387000D01*
X112072000Y-110453000D02*
X112072000Y-111863000D01*
X112072000Y-113943000D02*
X112072000Y-115353000D01*
X112032000Y-110487000D02*
X112032000Y-111863000D01*
X112032000Y-113943000D02*
X112032000Y-115319000D01*
X111992000Y-110523000D02*
X111992000Y-111863000D01*
X111992000Y-113943000D02*
X111992000Y-115283000D01*
X111952000Y-110560000D02*
X111952000Y-111863000D01*
X111952000Y-113943000D02*
X111952000Y-115246000D01*
X111912000Y-110598000D02*
X111912000Y-111863000D01*
X111912000Y-113943000D02*
X111912000Y-115208000D01*
X111872000Y-110638000D02*
X111872000Y-115168000D01*
X111832000Y-110679000D02*
X111832000Y-115127000D01*
X111792000Y-110721000D02*
X111792000Y-115085000D01*
X111752000Y-110766000D02*
X111752000Y-115040000D01*
X111712000Y-110811000D02*
X111712000Y-114995000D01*
X111672000Y-110859000D02*
X111672000Y-114947000D01*
X111632000Y-110908000D02*
X111632000Y-114898000D01*
X111592000Y-110959000D02*
X111592000Y-114847000D01*
X111552000Y-111013000D02*
X111552000Y-114793000D01*
X111512000Y-111069000D02*
X111512000Y-114737000D01*
X111472000Y-111127000D02*
X111472000Y-114679000D01*
X111432000Y-111189000D02*
X111432000Y-114617000D01*
X111392000Y-111253000D02*
X111392000Y-114553000D01*
X111352000Y-111322000D02*
X111352000Y-114484000D01*
X111312000Y-111394000D02*
X111312000Y-114412000D01*
X111272000Y-111471000D02*
X111272000Y-114335000D01*
X111232000Y-111553000D02*
X111232000Y-114253000D01*
X111192000Y-111641000D02*
X111192000Y-114165000D01*
X111152000Y-111738000D02*
X111152000Y-114068000D01*
X111112000Y-111844000D02*
X111112000Y-113962000D01*
X111072000Y-111963000D02*
X111072000Y-113843000D01*
X111032000Y-112101000D02*
X111032000Y-113705000D01*
X110992000Y-112270000D02*
X110992000Y-113536000D01*
X110952000Y-112501000D02*
X110952000Y-113305000D01*
X117693241Y-111064000D02*
X117063241Y-111064000D01*
X117378241Y-110749000D02*
X117378241Y-111379000D01*
X62245000Y-81893000D02*
X62575000Y-81893000D01*
X62245000Y-88433000D02*
X62245000Y-81893000D01*
X62575000Y-88433000D02*
X62245000Y-88433000D01*
X64985000Y-81893000D02*
X64655000Y-81893000D01*
X64985000Y-88433000D02*
X64985000Y-81893000D01*
X64655000Y-88433000D02*
X64985000Y-88433000D01*
X68285000Y-88463000D02*
X67955000Y-88463000D01*
X68285000Y-81923000D02*
X68285000Y-88463000D01*
X67955000Y-81923000D02*
X68285000Y-81923000D01*
X65545000Y-88463000D02*
X65875000Y-88463000D01*
X65545000Y-81923000D02*
X65545000Y-88463000D01*
X65875000Y-81923000D02*
X65545000Y-81923000D01*
X71535000Y-88463000D02*
X71205000Y-88463000D01*
X71535000Y-81923000D02*
X71535000Y-88463000D01*
X71205000Y-81923000D02*
X71535000Y-81923000D01*
X68795000Y-88463000D02*
X69125000Y-88463000D01*
X68795000Y-81923000D02*
X68795000Y-88463000D01*
X69125000Y-81923000D02*
X68795000Y-81923000D01*
X111877000Y-84100000D02*
X111877000Y-84415000D01*
X111877000Y-81675000D02*
X111877000Y-81990000D01*
X117117000Y-84100000D02*
X117117000Y-84415000D01*
X117117000Y-81675000D02*
X117117000Y-81990000D01*
X117117000Y-84415000D02*
X111877000Y-84415000D01*
X117117000Y-81675000D02*
X111877000Y-81675000D01*
X107732241Y-110791000D02*
X107732241Y-111421000D01*
X108047241Y-111106000D02*
X107417241Y-111106000D01*
X101306000Y-112543000D02*
X101306000Y-113347000D01*
X101346000Y-112312000D02*
X101346000Y-113578000D01*
X101386000Y-112143000D02*
X101386000Y-113747000D01*
X101426000Y-112005000D02*
X101426000Y-113885000D01*
X101466000Y-111886000D02*
X101466000Y-114004000D01*
X101506000Y-111780000D02*
X101506000Y-114110000D01*
X101546000Y-111683000D02*
X101546000Y-114207000D01*
X101586000Y-111595000D02*
X101586000Y-114295000D01*
X101626000Y-111513000D02*
X101626000Y-114377000D01*
X101666000Y-111436000D02*
X101666000Y-114454000D01*
X101706000Y-111364000D02*
X101706000Y-114526000D01*
X101746000Y-111295000D02*
X101746000Y-114595000D01*
X101786000Y-111231000D02*
X101786000Y-114659000D01*
X101826000Y-111169000D02*
X101826000Y-114721000D01*
X101866000Y-111111000D02*
X101866000Y-114779000D01*
X101906000Y-111055000D02*
X101906000Y-114835000D01*
X101946000Y-111001000D02*
X101946000Y-114889000D01*
X101986000Y-110950000D02*
X101986000Y-114940000D01*
X102026000Y-110901000D02*
X102026000Y-114989000D01*
X102066000Y-110853000D02*
X102066000Y-115037000D01*
X102106000Y-110808000D02*
X102106000Y-115082000D01*
X102146000Y-110763000D02*
X102146000Y-115127000D01*
X102186000Y-110721000D02*
X102186000Y-115169000D01*
X102226000Y-110680000D02*
X102226000Y-115210000D01*
X102266000Y-113985000D02*
X102266000Y-115250000D01*
X102266000Y-110640000D02*
X102266000Y-111905000D01*
X102306000Y-113985000D02*
X102306000Y-115288000D01*
X102306000Y-110602000D02*
X102306000Y-111905000D01*
X102346000Y-113985000D02*
X102346000Y-115325000D01*
X102346000Y-110565000D02*
X102346000Y-111905000D01*
X102386000Y-113985000D02*
X102386000Y-115361000D01*
X102386000Y-110529000D02*
X102386000Y-111905000D01*
X102426000Y-113985000D02*
X102426000Y-115395000D01*
X102426000Y-110495000D02*
X102426000Y-111905000D01*
X102466000Y-113985000D02*
X102466000Y-115429000D01*
X102466000Y-110461000D02*
X102466000Y-111905000D01*
X102506000Y-113985000D02*
X102506000Y-115461000D01*
X102506000Y-110429000D02*
X102506000Y-111905000D01*
X102546000Y-113985000D02*
X102546000Y-115493000D01*
X102546000Y-110397000D02*
X102546000Y-111905000D01*
X102586000Y-113985000D02*
X102586000Y-115523000D01*
X102586000Y-110367000D02*
X102586000Y-111905000D01*
X102626000Y-113985000D02*
X102626000Y-115552000D01*
X102626000Y-110338000D02*
X102626000Y-111905000D01*
X102666000Y-113985000D02*
X102666000Y-115581000D01*
X102666000Y-110309000D02*
X102666000Y-111905000D01*
X102706000Y-113985000D02*
X102706000Y-115609000D01*
X102706000Y-110281000D02*
X102706000Y-111905000D01*
X102746000Y-113985000D02*
X102746000Y-115635000D01*
X102746000Y-110255000D02*
X102746000Y-111905000D01*
X102786000Y-113985000D02*
X102786000Y-115661000D01*
X102786000Y-110229000D02*
X102786000Y-111905000D01*
X102826000Y-113985000D02*
X102826000Y-115687000D01*
X102826000Y-110203000D02*
X102826000Y-111905000D01*
X102866000Y-113985000D02*
X102866000Y-115711000D01*
X102866000Y-110179000D02*
X102866000Y-111905000D01*
X102906000Y-113985000D02*
X102906000Y-115735000D01*
X102906000Y-110155000D02*
X102906000Y-111905000D01*
X102946000Y-113985000D02*
X102946000Y-115757000D01*
X102946000Y-110133000D02*
X102946000Y-111905000D01*
X102986000Y-113985000D02*
X102986000Y-115779000D01*
X102986000Y-110111000D02*
X102986000Y-111905000D01*
X103026000Y-113985000D02*
X103026000Y-115801000D01*
X103026000Y-110089000D02*
X103026000Y-111905000D01*
X103066000Y-113985000D02*
X103066000Y-115821000D01*
X103066000Y-110069000D02*
X103066000Y-111905000D01*
X103106000Y-113985000D02*
X103106000Y-115841000D01*
X103106000Y-110049000D02*
X103106000Y-111905000D01*
X103146000Y-113985000D02*
X103146000Y-115861000D01*
X103146000Y-110029000D02*
X103146000Y-111905000D01*
X103186000Y-113985000D02*
X103186000Y-115879000D01*
X103186000Y-110011000D02*
X103186000Y-111905000D01*
X103226000Y-113985000D02*
X103226000Y-115897000D01*
X103226000Y-109993000D02*
X103226000Y-111905000D01*
X103266000Y-113985000D02*
X103266000Y-115915000D01*
X103266000Y-109975000D02*
X103266000Y-111905000D01*
X103306000Y-113985000D02*
X103306000Y-115931000D01*
X103306000Y-109959000D02*
X103306000Y-111905000D01*
X103346000Y-113985000D02*
X103346000Y-115947000D01*
X103346000Y-109943000D02*
X103346000Y-111905000D01*
X103386000Y-113985000D02*
X103386000Y-115963000D01*
X103386000Y-109927000D02*
X103386000Y-111905000D01*
X103426000Y-113985000D02*
X103426000Y-115978000D01*
X103426000Y-109912000D02*
X103426000Y-111905000D01*
X103466000Y-113985000D02*
X103466000Y-115992000D01*
X103466000Y-109898000D02*
X103466000Y-111905000D01*
X103506000Y-113985000D02*
X103506000Y-116006000D01*
X103506000Y-109884000D02*
X103506000Y-111905000D01*
X103546000Y-113985000D02*
X103546000Y-116019000D01*
X103546000Y-109871000D02*
X103546000Y-111905000D01*
X103586000Y-113985000D02*
X103586000Y-116031000D01*
X103586000Y-109859000D02*
X103586000Y-111905000D01*
X103626000Y-113985000D02*
X103626000Y-116043000D01*
X103626000Y-109847000D02*
X103626000Y-111905000D01*
X103666000Y-113985000D02*
X103666000Y-116055000D01*
X103666000Y-109835000D02*
X103666000Y-111905000D01*
X103706000Y-113985000D02*
X103706000Y-116066000D01*
X103706000Y-109824000D02*
X103706000Y-111905000D01*
X103746000Y-113985000D02*
X103746000Y-116076000D01*
X103746000Y-109814000D02*
X103746000Y-111905000D01*
X103786000Y-113985000D02*
X103786000Y-116086000D01*
X103786000Y-109804000D02*
X103786000Y-111905000D01*
X103826000Y-113985000D02*
X103826000Y-116095000D01*
X103826000Y-109795000D02*
X103826000Y-111905000D01*
X103867000Y-113985000D02*
X103867000Y-116104000D01*
X103867000Y-109786000D02*
X103867000Y-111905000D01*
X103907000Y-113985000D02*
X103907000Y-116112000D01*
X103907000Y-109778000D02*
X103907000Y-111905000D01*
X103947000Y-113985000D02*
X103947000Y-116120000D01*
X103947000Y-109770000D02*
X103947000Y-111905000D01*
X103987000Y-113985000D02*
X103987000Y-116127000D01*
X103987000Y-109763000D02*
X103987000Y-111905000D01*
X104027000Y-113985000D02*
X104027000Y-116134000D01*
X104027000Y-109756000D02*
X104027000Y-111905000D01*
X104067000Y-113985000D02*
X104067000Y-116140000D01*
X104067000Y-109750000D02*
X104067000Y-111905000D01*
X104107000Y-113985000D02*
X104107000Y-116146000D01*
X104107000Y-109744000D02*
X104107000Y-111905000D01*
X104147000Y-113985000D02*
X104147000Y-116151000D01*
X104147000Y-109739000D02*
X104147000Y-111905000D01*
X104187000Y-113985000D02*
X104187000Y-116156000D01*
X104187000Y-109734000D02*
X104187000Y-111905000D01*
X104227000Y-113985000D02*
X104227000Y-116160000D01*
X104227000Y-109730000D02*
X104227000Y-111905000D01*
X104267000Y-113985000D02*
X104267000Y-116163000D01*
X104267000Y-109727000D02*
X104267000Y-111905000D01*
X104307000Y-113985000D02*
X104307000Y-116167000D01*
X104307000Y-109723000D02*
X104307000Y-111905000D01*
X104347000Y-109721000D02*
X104347000Y-116169000D01*
X104387000Y-109718000D02*
X104387000Y-116172000D01*
X104427000Y-109717000D02*
X104427000Y-116173000D01*
X104467000Y-109715000D02*
X104467000Y-116175000D01*
X104507000Y-109715000D02*
X104507000Y-116175000D01*
X104547000Y-109715000D02*
X104547000Y-116175000D01*
X107817000Y-112945000D02*
G75*
G03*
X107817000Y-112945000I-3270000J0D01*
G01*
X109397000Y-86955000D02*
X119677000Y-86955000D01*
X109397000Y-107515000D02*
X109397000Y-86955000D01*
X119677000Y-107515000D02*
X109397000Y-107515000D01*
X119677000Y-86955000D02*
X119677000Y-107515000D01*
X111887000Y-87015000D02*
X113537000Y-87015000D01*
X111887000Y-107455000D02*
X111887000Y-87015000D01*
X117187000Y-107455000D02*
X111887000Y-107455000D01*
X117187000Y-87015000D02*
X117187000Y-107455000D01*
X115537000Y-87015000D02*
X117187000Y-87015000D01*
X113537000Y-87015000D02*
G75*
G03*
X115537000Y-87015000I1000000J0D01*
G01*
X62279000Y-67557000D02*
X62279000Y-69557000D01*
X65079000Y-67557000D02*
X62279000Y-67557000D01*
X65079000Y-69557000D02*
X65079000Y-67557000D01*
X62279000Y-69557000D02*
X65079000Y-69557000D01*
X115122000Y-63179000D02*
X115122000Y-61849000D01*
X113792000Y-63179000D02*
X115122000Y-63179000D01*
X112522000Y-63179000D02*
X112522000Y-60519000D01*
X112522000Y-60519000D02*
X99762000Y-60519000D01*
X112522000Y-63179000D02*
X99762000Y-63179000D01*
X99762000Y-63179000D02*
X99762000Y-60519000D01*
X96871000Y-86947000D02*
X107151000Y-86947000D01*
X96871000Y-104967000D02*
X96871000Y-86947000D01*
X107151000Y-104967000D02*
X96871000Y-104967000D01*
X107151000Y-86947000D02*
X107151000Y-104967000D01*
X99361000Y-87007000D02*
X101011000Y-87007000D01*
X99361000Y-104907000D02*
X99361000Y-87007000D01*
X104661000Y-104907000D02*
X99361000Y-104907000D01*
X104661000Y-87007000D02*
X104661000Y-104907000D01*
X103011000Y-87007000D02*
X104661000Y-87007000D01*
X101011000Y-87007000D02*
G75*
G03*
X103011000Y-87007000I1000000J0D01*
G01*
X104591000Y-81948000D02*
X104591000Y-81633000D01*
X104591000Y-84373000D02*
X104591000Y-84058000D01*
X99351000Y-81948000D02*
X99351000Y-81633000D01*
X99351000Y-84373000D02*
X99351000Y-84058000D01*
X99351000Y-81633000D02*
X104591000Y-81633000D01*
X99351000Y-84373000D02*
X104591000Y-84373000D01*
X81527000Y-81700000D02*
X81527000Y-82015000D01*
X81527000Y-79275000D02*
X81527000Y-79590000D01*
X86767000Y-81700000D02*
X86767000Y-82015000D01*
X86767000Y-79275000D02*
X86767000Y-79590000D01*
X86767000Y-82015000D02*
X81527000Y-82015000D01*
X86767000Y-79275000D02*
X81527000Y-79275000D01*
D10*
X85178904Y-83377380D02*
X85178904Y-84186904D01*
X85131285Y-84282142D01*
X85083666Y-84329761D01*
X84988428Y-84377380D01*
X84797952Y-84377380D01*
X84702714Y-84329761D01*
X84655095Y-84282142D01*
X84607476Y-84186904D01*
X84607476Y-83377380D01*
X83607476Y-84377380D02*
X84178904Y-84377380D01*
X83893190Y-84377380D02*
X83893190Y-83377380D01*
X83988428Y-83520238D01*
X84083666Y-83615476D01*
X84178904Y-83663095D01*
X109783476Y-79433380D02*
X110116809Y-78957190D01*
X110354904Y-79433380D02*
X110354904Y-78433380D01*
X109973952Y-78433380D01*
X109878714Y-78481000D01*
X109831095Y-78528619D01*
X109783476Y-78623857D01*
X109783476Y-78766714D01*
X109831095Y-78861952D01*
X109878714Y-78909571D01*
X109973952Y-78957190D01*
X110354904Y-78957190D01*
X109354904Y-79433380D02*
X109354904Y-78433380D01*
X108783476Y-79433380D01*
X108783476Y-78433380D01*
X107783476Y-79433380D02*
X108354904Y-79433380D01*
X108069190Y-79433380D02*
X108069190Y-78433380D01*
X108164428Y-78576238D01*
X108259666Y-78671476D01*
X108354904Y-78719095D01*
X114339666Y-117832142D02*
X114387285Y-117879761D01*
X114530142Y-117927380D01*
X114625380Y-117927380D01*
X114768238Y-117879761D01*
X114863476Y-117784523D01*
X114911095Y-117689285D01*
X114958714Y-117498809D01*
X114958714Y-117355952D01*
X114911095Y-117165476D01*
X114863476Y-117070238D01*
X114768238Y-116975000D01*
X114625380Y-116927380D01*
X114530142Y-116927380D01*
X114387285Y-116975000D01*
X114339666Y-117022619D01*
X113482523Y-117260714D02*
X113482523Y-117927380D01*
X113720619Y-116879761D02*
X113958714Y-117594047D01*
X113339666Y-117594047D01*
X63881666Y-79855380D02*
X64215000Y-79379190D01*
X64453095Y-79855380D02*
X64453095Y-78855380D01*
X64072142Y-78855380D01*
X63976904Y-78903000D01*
X63929285Y-78950619D01*
X63881666Y-79045857D01*
X63881666Y-79188714D01*
X63929285Y-79283952D01*
X63976904Y-79331571D01*
X64072142Y-79379190D01*
X64453095Y-79379190D01*
X63548333Y-78855380D02*
X62929285Y-78855380D01*
X63262619Y-79236333D01*
X63119761Y-79236333D01*
X63024523Y-79283952D01*
X62976904Y-79331571D01*
X62929285Y-79426809D01*
X62929285Y-79664904D01*
X62976904Y-79760142D01*
X63024523Y-79807761D01*
X63119761Y-79855380D01*
X63405476Y-79855380D01*
X63500714Y-79807761D01*
X63548333Y-79760142D01*
X67081666Y-79855380D02*
X67415000Y-79379190D01*
X67653095Y-79855380D02*
X67653095Y-78855380D01*
X67272142Y-78855380D01*
X67176904Y-78903000D01*
X67129285Y-78950619D01*
X67081666Y-79045857D01*
X67081666Y-79188714D01*
X67129285Y-79283952D01*
X67176904Y-79331571D01*
X67272142Y-79379190D01*
X67653095Y-79379190D01*
X66700714Y-78950619D02*
X66653095Y-78903000D01*
X66557857Y-78855380D01*
X66319761Y-78855380D01*
X66224523Y-78903000D01*
X66176904Y-78950619D01*
X66129285Y-79045857D01*
X66129285Y-79141095D01*
X66176904Y-79283952D01*
X66748333Y-79855380D01*
X66129285Y-79855380D01*
X70381666Y-79805380D02*
X70715000Y-79329190D01*
X70953095Y-79805380D02*
X70953095Y-78805380D01*
X70572142Y-78805380D01*
X70476904Y-78853000D01*
X70429285Y-78900619D01*
X70381666Y-78995857D01*
X70381666Y-79138714D01*
X70429285Y-79233952D01*
X70476904Y-79281571D01*
X70572142Y-79329190D01*
X70953095Y-79329190D01*
X69429285Y-79805380D02*
X70000714Y-79805380D01*
X69715000Y-79805380D02*
X69715000Y-78805380D01*
X69810238Y-78948238D01*
X69905476Y-79043476D01*
X70000714Y-79091095D01*
X114663666Y-80902142D02*
X114711285Y-80949761D01*
X114854142Y-80997380D01*
X114949380Y-80997380D01*
X115092238Y-80949761D01*
X115187476Y-80854523D01*
X115235095Y-80759285D01*
X115282714Y-80568809D01*
X115282714Y-80425952D01*
X115235095Y-80235476D01*
X115187476Y-80140238D01*
X115092238Y-80045000D01*
X114949380Y-79997380D01*
X114854142Y-79997380D01*
X114711285Y-80045000D01*
X114663666Y-80092619D01*
X114330333Y-79997380D02*
X113711285Y-79997380D01*
X114044619Y-80378333D01*
X113901761Y-80378333D01*
X113806523Y-80425952D01*
X113758904Y-80473571D01*
X113711285Y-80568809D01*
X113711285Y-80806904D01*
X113758904Y-80902142D01*
X113806523Y-80949761D01*
X113901761Y-80997380D01*
X114187476Y-80997380D01*
X114282714Y-80949761D01*
X114330333Y-80902142D01*
X104713666Y-117832142D02*
X104761285Y-117879761D01*
X104904142Y-117927380D01*
X104999380Y-117927380D01*
X105142238Y-117879761D01*
X105237476Y-117784523D01*
X105285095Y-117689285D01*
X105332714Y-117498809D01*
X105332714Y-117355952D01*
X105285095Y-117165476D01*
X105237476Y-117070238D01*
X105142238Y-116975000D01*
X104999380Y-116927380D01*
X104904142Y-116927380D01*
X104761285Y-116975000D01*
X104713666Y-117022619D01*
X103761285Y-117927380D02*
X104332714Y-117927380D01*
X104047000Y-117927380D02*
X104047000Y-116927380D01*
X104142238Y-117070238D01*
X104237476Y-117165476D01*
X104332714Y-117213095D01*
X115298904Y-85467380D02*
X115298904Y-86276904D01*
X115251285Y-86372142D01*
X115203666Y-86419761D01*
X115108428Y-86467380D01*
X114917952Y-86467380D01*
X114822714Y-86419761D01*
X114775095Y-86372142D01*
X114727476Y-86276904D01*
X114727476Y-85467380D01*
X114298904Y-85562619D02*
X114251285Y-85515000D01*
X114156047Y-85467380D01*
X113917952Y-85467380D01*
X113822714Y-85515000D01*
X113775095Y-85562619D01*
X113727476Y-85657857D01*
X113727476Y-85753095D01*
X113775095Y-85895952D01*
X114346523Y-86467380D01*
X113727476Y-86467380D01*
X64512333Y-66009380D02*
X64512333Y-66723666D01*
X64559952Y-66866523D01*
X64655190Y-66961761D01*
X64798047Y-67009380D01*
X64893285Y-67009380D01*
X64036142Y-67009380D02*
X64036142Y-66009380D01*
X63655190Y-66009380D01*
X63559952Y-66057000D01*
X63512333Y-66104619D01*
X63464714Y-66199857D01*
X63464714Y-66342714D01*
X63512333Y-66437952D01*
X63559952Y-66485571D01*
X63655190Y-66533190D01*
X64036142Y-66533190D01*
X62512333Y-67009380D02*
X63083761Y-67009380D01*
X62798047Y-67009380D02*
X62798047Y-66009380D01*
X62893285Y-66152238D01*
X62988523Y-66247476D01*
X63083761Y-66295095D01*
X115574380Y-61515666D02*
X116288666Y-61515666D01*
X116431523Y-61468047D01*
X116526761Y-61372809D01*
X116574380Y-61229952D01*
X116574380Y-61134714D01*
X115669619Y-61944238D02*
X115622000Y-61991857D01*
X115574380Y-62087095D01*
X115574380Y-62325190D01*
X115622000Y-62420428D01*
X115669619Y-62468047D01*
X115764857Y-62515666D01*
X115860095Y-62515666D01*
X116002952Y-62468047D01*
X116574380Y-61896619D01*
X116574380Y-62515666D01*
X102772904Y-85459380D02*
X102772904Y-86268904D01*
X102725285Y-86364142D01*
X102677666Y-86411761D01*
X102582428Y-86459380D01*
X102391952Y-86459380D01*
X102296714Y-86411761D01*
X102249095Y-86364142D01*
X102201476Y-86268904D01*
X102201476Y-85459380D01*
X101820523Y-85459380D02*
X101201476Y-85459380D01*
X101534809Y-85840333D01*
X101391952Y-85840333D01*
X101296714Y-85887952D01*
X101249095Y-85935571D01*
X101201476Y-86030809D01*
X101201476Y-86268904D01*
X101249095Y-86364142D01*
X101296714Y-86411761D01*
X101391952Y-86459380D01*
X101677666Y-86459380D01*
X101772904Y-86411761D01*
X101820523Y-86364142D01*
X102177666Y-81074142D02*
X102225285Y-81121761D01*
X102368142Y-81169380D01*
X102463380Y-81169380D01*
X102606238Y-81121761D01*
X102701476Y-81026523D01*
X102749095Y-80931285D01*
X102796714Y-80740809D01*
X102796714Y-80597952D01*
X102749095Y-80407476D01*
X102701476Y-80312238D01*
X102606238Y-80217000D01*
X102463380Y-80169380D01*
X102368142Y-80169380D01*
X102225285Y-80217000D01*
X102177666Y-80264619D01*
X101272904Y-80169380D02*
X101749095Y-80169380D01*
X101796714Y-80645571D01*
X101749095Y-80597952D01*
X101653857Y-80550333D01*
X101415761Y-80550333D01*
X101320523Y-80597952D01*
X101272904Y-80645571D01*
X101225285Y-80740809D01*
X101225285Y-80978904D01*
X101272904Y-81074142D01*
X101320523Y-81121761D01*
X101415761Y-81169380D01*
X101653857Y-81169380D01*
X101749095Y-81121761D01*
X101796714Y-81074142D01*
X84400666Y-78335142D02*
X84448285Y-78382761D01*
X84591142Y-78430380D01*
X84686380Y-78430380D01*
X84829238Y-78382761D01*
X84924476Y-78287523D01*
X84972095Y-78192285D01*
X85019714Y-78001809D01*
X85019714Y-77858952D01*
X84972095Y-77668476D01*
X84924476Y-77573238D01*
X84829238Y-77478000D01*
X84686380Y-77430380D01*
X84591142Y-77430380D01*
X84448285Y-77478000D01*
X84400666Y-77525619D01*
X84019714Y-77525619D02*
X83972095Y-77478000D01*
X83876857Y-77430380D01*
X83638761Y-77430380D01*
X83543523Y-77478000D01*
X83495904Y-77525619D01*
X83448285Y-77620857D01*
X83448285Y-77716095D01*
X83495904Y-77858952D01*
X84067333Y-78430380D01*
X83448285Y-78430380D01*
%LPC*%
D15*
X78067000Y-90145000D03*
X78067000Y-92685000D03*
X78067000Y-95225000D03*
X78067000Y-97765000D03*
X80607000Y-92685000D03*
X80607000Y-95225000D03*
X80607000Y-97765000D03*
X80607000Y-100305000D03*
X80607000Y-102845000D03*
X83147000Y-102845000D03*
X85687000Y-102845000D03*
X88227000Y-102845000D03*
X78067000Y-100305000D03*
X83147000Y-100305000D03*
X85687000Y-100305000D03*
X88227000Y-100305000D03*
X90767000Y-100305000D03*
X90767000Y-97765000D03*
X90767000Y-95225000D03*
X90767000Y-92685000D03*
X90767000Y-90145000D03*
X88227000Y-97765000D03*
X88227000Y-95225000D03*
X88227000Y-92685000D03*
X88227000Y-90145000D03*
X80607000Y-87605000D03*
X83147000Y-87605000D03*
X88227000Y-87605000D03*
X85687000Y-87605000D03*
X80607000Y-90145000D03*
X85687000Y-90145000D03*
D16*
X83147000Y-90145000D03*
D17*
X117983000Y-76581000D03*
X115443000Y-76581000D03*
X112903000Y-76581000D03*
X110363000Y-76581000D03*
X107823000Y-76581000D03*
X105283000Y-76581000D03*
X102743000Y-76581000D03*
X100203000Y-76581000D03*
D18*
X97663000Y-76581000D03*
D19*
X53467000Y-81407000D03*
D20*
X112943000Y-112903000D03*
D18*
X115443000Y-112903000D03*
D19*
X53445000Y-88370000D03*
X47498000Y-88370000D03*
X47498000Y-81661000D03*
D21*
X55465000Y-139192000D03*
X59425000Y-139192000D03*
X63385000Y-139192000D03*
X67345000Y-139192000D03*
X71305000Y-139192000D03*
X75265000Y-139192000D03*
X79225000Y-139192000D03*
X83185000Y-139192000D03*
X87145000Y-139192000D03*
X91105000Y-139192000D03*
X95065000Y-139192000D03*
X99025000Y-139192000D03*
X110905000Y-139192000D03*
X102985000Y-139192000D03*
D17*
X63615000Y-81353000D03*
D20*
X63615000Y-88973000D03*
D17*
X66915000Y-89003000D03*
D20*
X66915000Y-81383000D03*
D17*
X70165000Y-89003000D03*
D20*
X70165000Y-81383000D03*
X111997000Y-83045000D03*
X116997000Y-83045000D03*
X103297000Y-112945000D03*
D18*
X105797000Y-112945000D03*
D17*
X110727000Y-88345000D03*
X118347000Y-106125000D03*
X110727000Y-90885000D03*
X118347000Y-103585000D03*
X110727000Y-93425000D03*
X118347000Y-101045000D03*
X110727000Y-95965000D03*
X118347000Y-98505000D03*
X110727000Y-98505000D03*
X118347000Y-95965000D03*
X110727000Y-101045000D03*
X118347000Y-93425000D03*
X110727000Y-103585000D03*
X118347000Y-90885000D03*
X110727000Y-106125000D03*
D18*
X118347000Y-88345000D03*
D22*
X55247000Y-52345000D03*
X55247000Y-56845000D03*
X48747000Y-52345000D03*
X48747000Y-56845000D03*
D13*
G36*
X63954000Y-68557000D02*
G01*
X63454000Y-69307000D01*
X62454000Y-69307000D01*
X62454000Y-67807000D01*
X63454000Y-67807000D01*
X63954000Y-68557000D01*
G37*
G36*
X64904000Y-69307000D02*
G01*
X63754000Y-69307000D01*
X64254000Y-68557000D01*
X63754000Y-67807000D01*
X64904000Y-67807000D01*
X64904000Y-69307000D01*
G37*
D23*
X101092000Y-61849000D03*
X103632000Y-61849000D03*
X106172000Y-61849000D03*
X108712000Y-61849000D03*
X111252000Y-61849000D03*
D24*
X113792000Y-61849000D03*
D17*
X98201000Y-88337000D03*
X105821000Y-103577000D03*
X98201000Y-90877000D03*
X105821000Y-101037000D03*
X98201000Y-93417000D03*
X105821000Y-98497000D03*
X98201000Y-95957000D03*
X105821000Y-95957000D03*
X98201000Y-98497000D03*
X105821000Y-93417000D03*
X98201000Y-101037000D03*
X105821000Y-90877000D03*
X98201000Y-103577000D03*
D18*
X105821000Y-88337000D03*
D20*
X104471000Y-83003000D03*
X99471000Y-83003000D03*
X81647000Y-80645000D03*
X86647000Y-80645000D03*
M02*
