G04 #@! TF.GenerationSoftware,KiCad,Pcbnew,(5.1.10)-1*
G04 #@! TF.CreationDate,2022-09-21T08:41:53+02:00*
G04 #@! TF.ProjectId,Cartridge,43617274-7269-4646-9765-2e6b69636164,rev?*
G04 #@! TF.SameCoordinates,Original*
G04 #@! TF.FileFunction,Legend,Top*
G04 #@! TF.FilePolarity,Positive*
%FSLAX46Y46*%
G04 Gerber Fmt 4.6, Leading zero omitted, Abs format (unit mm)*
G04 Created by KiCad (PCBNEW (5.1.10)-1) date 2022-09-21 08:41:53*
%MOMM*%
%LPD*%
G01*
G04 APERTURE LIST*
%ADD10C,0.150000*%
%ADD11C,0.300000*%
%ADD12C,0.120000*%
%ADD13C,0.010000*%
%ADD14C,1.422400*%
%ADD15R,1.422400X1.422400*%
%ADD16O,1.600000X1.600000*%
%ADD17R,1.600000X1.600000*%
%ADD18C,1.500000*%
%ADD19C,1.600000*%
%ADD20R,2.000000X10.000000*%
%ADD21C,2.000000*%
%ADD22O,1.700000X1.700000*%
%ADD23R,1.700000X1.700000*%
G04 APERTURE END LIST*
D10*
X85262790Y-52647780D02*
X85881838Y-52647780D01*
X85548504Y-53028733D01*
X85691361Y-53028733D01*
X85786600Y-53076352D01*
X85834219Y-53123971D01*
X85881838Y-53219209D01*
X85881838Y-53457304D01*
X85834219Y-53552542D01*
X85786600Y-53600161D01*
X85691361Y-53647780D01*
X85405647Y-53647780D01*
X85310409Y-53600161D01*
X85262790Y-53552542D01*
X86262790Y-52743019D02*
X86310409Y-52695400D01*
X86405647Y-52647780D01*
X86643742Y-52647780D01*
X86738980Y-52695400D01*
X86786600Y-52743019D01*
X86834219Y-52838257D01*
X86834219Y-52933495D01*
X86786600Y-53076352D01*
X86215171Y-53647780D01*
X86834219Y-53647780D01*
X87167552Y-53647780D02*
X87691361Y-52981114D01*
X87167552Y-52981114D02*
X87691361Y-53647780D01*
X88596123Y-53647780D02*
X88024695Y-53647780D01*
X88310409Y-53647780D02*
X88310409Y-52647780D01*
X88215171Y-52790638D01*
X88119933Y-52885876D01*
X88024695Y-52933495D01*
X89453266Y-52647780D02*
X89262790Y-52647780D01*
X89167552Y-52695400D01*
X89119933Y-52743019D01*
X89024695Y-52885876D01*
X88977076Y-53076352D01*
X88977076Y-53457304D01*
X89024695Y-53552542D01*
X89072314Y-53600161D01*
X89167552Y-53647780D01*
X89358028Y-53647780D01*
X89453266Y-53600161D01*
X89500885Y-53552542D01*
X89548504Y-53457304D01*
X89548504Y-53219209D01*
X89500885Y-53123971D01*
X89453266Y-53076352D01*
X89358028Y-53028733D01*
X89167552Y-53028733D01*
X89072314Y-53076352D01*
X89024695Y-53123971D01*
X88977076Y-53219209D01*
X89977076Y-53647780D02*
X89977076Y-52647780D01*
X90072314Y-53266828D02*
X90358028Y-53647780D01*
X90358028Y-52981114D02*
X89977076Y-53362066D01*
X90786600Y-53647780D02*
X90786600Y-52647780D01*
X90786600Y-53028733D02*
X90881838Y-52981114D01*
X91072314Y-52981114D01*
X91167552Y-53028733D01*
X91215171Y-53076352D01*
X91262790Y-53171590D01*
X91262790Y-53457304D01*
X91215171Y-53552542D01*
X91167552Y-53600161D01*
X91072314Y-53647780D01*
X90881838Y-53647780D01*
X90786600Y-53600161D01*
D11*
X85484790Y-50298761D02*
X85484790Y-48298761D01*
X86246695Y-48298761D01*
X86437171Y-48394000D01*
X86532409Y-48489238D01*
X86627647Y-48679714D01*
X86627647Y-48965428D01*
X86532409Y-49155904D01*
X86437171Y-49251142D01*
X86246695Y-49346380D01*
X85484790Y-49346380D01*
X87389552Y-48489238D02*
X87484790Y-48394000D01*
X87675266Y-48298761D01*
X88151457Y-48298761D01*
X88341933Y-48394000D01*
X88437171Y-48489238D01*
X88532409Y-48679714D01*
X88532409Y-48870190D01*
X88437171Y-49155904D01*
X87294314Y-50298761D01*
X88532409Y-50298761D01*
X89770504Y-48298761D02*
X89960980Y-48298761D01*
X90151457Y-48394000D01*
X90246695Y-48489238D01*
X90341933Y-48679714D01*
X90437171Y-49060666D01*
X90437171Y-49536857D01*
X90341933Y-49917809D01*
X90246695Y-50108285D01*
X90151457Y-50203523D01*
X89960980Y-50298761D01*
X89770504Y-50298761D01*
X89580028Y-50203523D01*
X89484790Y-50108285D01*
X89389552Y-49917809D01*
X89294314Y-49536857D01*
X89294314Y-49060666D01*
X89389552Y-48679714D01*
X89484790Y-48489238D01*
X89580028Y-48394000D01*
X89770504Y-48298761D01*
X91675266Y-48298761D02*
X91865742Y-48298761D01*
X92056219Y-48394000D01*
X92151457Y-48489238D01*
X92246695Y-48679714D01*
X92341933Y-49060666D01*
X92341933Y-49536857D01*
X92246695Y-49917809D01*
X92151457Y-50108285D01*
X92056219Y-50203523D01*
X91865742Y-50298761D01*
X91675266Y-50298761D01*
X91484790Y-50203523D01*
X91389552Y-50108285D01*
X91294314Y-49917809D01*
X91199076Y-49536857D01*
X91199076Y-49060666D01*
X91294314Y-48679714D01*
X91389552Y-48489238D01*
X91484790Y-48394000D01*
X91675266Y-48298761D01*
X93580028Y-48298761D02*
X93770504Y-48298761D01*
X93960980Y-48394000D01*
X94056219Y-48489238D01*
X94151457Y-48679714D01*
X94246695Y-49060666D01*
X94246695Y-49536857D01*
X94151457Y-49917809D01*
X94056219Y-50108285D01*
X93960980Y-50203523D01*
X93770504Y-50298761D01*
X93580028Y-50298761D01*
X93389552Y-50203523D01*
X93294314Y-50108285D01*
X93199076Y-49917809D01*
X93103838Y-49536857D01*
X93103838Y-49060666D01*
X93199076Y-48679714D01*
X93294314Y-48489238D01*
X93389552Y-48394000D01*
X93580028Y-48298761D01*
D10*
X85307323Y-51971380D02*
X85307323Y-50971380D01*
X85640657Y-51685666D01*
X85973990Y-50971380D01*
X85973990Y-51971380D01*
X86450180Y-50971380D02*
X86450180Y-51780904D01*
X86497800Y-51876142D01*
X86545419Y-51923761D01*
X86640657Y-51971380D01*
X86831133Y-51971380D01*
X86926371Y-51923761D01*
X86973990Y-51876142D01*
X87021609Y-51780904D01*
X87021609Y-50971380D01*
X87973990Y-51971380D02*
X87497800Y-51971380D01*
X87497800Y-50971380D01*
X88164466Y-50971380D02*
X88735895Y-50971380D01*
X88450180Y-51971380D02*
X88450180Y-50971380D01*
X89069228Y-51971380D02*
X89069228Y-50971380D01*
X90116847Y-51876142D02*
X90069228Y-51923761D01*
X89926371Y-51971380D01*
X89831133Y-51971380D01*
X89688276Y-51923761D01*
X89593038Y-51828523D01*
X89545419Y-51733285D01*
X89497800Y-51542809D01*
X89497800Y-51399952D01*
X89545419Y-51209476D01*
X89593038Y-51114238D01*
X89688276Y-51019000D01*
X89831133Y-50971380D01*
X89926371Y-50971380D01*
X90069228Y-51019000D01*
X90116847Y-51066619D01*
X90497800Y-51685666D02*
X90973990Y-51685666D01*
X90402561Y-51971380D02*
X90735895Y-50971380D01*
X91069228Y-51971380D01*
X91973990Y-51971380D02*
X91640657Y-51495190D01*
X91402561Y-51971380D02*
X91402561Y-50971380D01*
X91783514Y-50971380D01*
X91878752Y-51019000D01*
X91926371Y-51066619D01*
X91973990Y-51161857D01*
X91973990Y-51304714D01*
X91926371Y-51399952D01*
X91878752Y-51447571D01*
X91783514Y-51495190D01*
X91402561Y-51495190D01*
X92259704Y-50971380D02*
X92831133Y-50971380D01*
X92545419Y-51971380D02*
X92545419Y-50971380D01*
X84599380Y-53764047D02*
X83599380Y-53764047D01*
X83599380Y-53383095D01*
X83647000Y-53287857D01*
X83694619Y-53240238D01*
X83789857Y-53192619D01*
X83932714Y-53192619D01*
X84027952Y-53240238D01*
X84075571Y-53287857D01*
X84123190Y-53383095D01*
X84123190Y-53764047D01*
X84599380Y-52287857D02*
X84599380Y-52764047D01*
X83599380Y-52764047D01*
X84504142Y-51383095D02*
X84551761Y-51430714D01*
X84599380Y-51573571D01*
X84599380Y-51668809D01*
X84551761Y-51811666D01*
X84456523Y-51906904D01*
X84361285Y-51954523D01*
X84170809Y-52002142D01*
X84027952Y-52002142D01*
X83837476Y-51954523D01*
X83742238Y-51906904D01*
X83647000Y-51811666D01*
X83599380Y-51668809D01*
X83599380Y-51573571D01*
X83647000Y-51430714D01*
X83694619Y-51383095D01*
X84504142Y-50383095D02*
X84551761Y-50430714D01*
X84599380Y-50573571D01*
X84599380Y-50668809D01*
X84551761Y-50811666D01*
X84456523Y-50906904D01*
X84361285Y-50954523D01*
X84170809Y-51002142D01*
X84027952Y-51002142D01*
X83837476Y-50954523D01*
X83742238Y-50906904D01*
X83647000Y-50811666D01*
X83599380Y-50668809D01*
X83599380Y-50573571D01*
X83647000Y-50430714D01*
X83694619Y-50383095D01*
X83599380Y-50049761D02*
X83599380Y-49430714D01*
X83980333Y-49764047D01*
X83980333Y-49621190D01*
X84027952Y-49525952D01*
X84075571Y-49478333D01*
X84170809Y-49430714D01*
X84408904Y-49430714D01*
X84504142Y-49478333D01*
X84551761Y-49525952D01*
X84599380Y-49621190D01*
X84599380Y-49906904D01*
X84551761Y-50002142D01*
X84504142Y-50049761D01*
X83694619Y-49049761D02*
X83647000Y-49002142D01*
X83599380Y-48906904D01*
X83599380Y-48668809D01*
X83647000Y-48573571D01*
X83694619Y-48525952D01*
X83789857Y-48478333D01*
X83885095Y-48478333D01*
X84027952Y-48525952D01*
X84599380Y-49097380D01*
X84599380Y-48478333D01*
D12*
X44323000Y-78105000D02*
X44450000Y-78105000D01*
X44323000Y-92202000D02*
X44323000Y-78105000D01*
X45847000Y-92202000D02*
X44323000Y-92202000D01*
X56769000Y-92202000D02*
X45847000Y-92202000D01*
X56769000Y-78105000D02*
X56769000Y-92202000D01*
X44450000Y-78105000D02*
X56769000Y-78105000D01*
D11*
X97702000Y-131464571D02*
X97702000Y-129964571D01*
X99707714Y-130250285D02*
X99779142Y-130321714D01*
X99850571Y-130536000D01*
X99850571Y-130678857D01*
X99779142Y-130893142D01*
X99636285Y-131036000D01*
X99493428Y-131107428D01*
X99207714Y-131178857D01*
X98993428Y-131178857D01*
X98707714Y-131107428D01*
X98564857Y-131036000D01*
X98422000Y-130893142D01*
X98350571Y-130678857D01*
X98350571Y-130536000D01*
X98422000Y-130321714D01*
X98493428Y-130250285D01*
X97702000Y-129964571D02*
X97702000Y-128536000D01*
X99779142Y-129678857D02*
X99850571Y-129464571D01*
X99850571Y-129107428D01*
X99779142Y-128964571D01*
X99707714Y-128893142D01*
X99564857Y-128821714D01*
X99422000Y-128821714D01*
X99279142Y-128893142D01*
X99207714Y-128964571D01*
X99136285Y-129107428D01*
X99064857Y-129393142D01*
X98993428Y-129536000D01*
X98922000Y-129607428D01*
X98779142Y-129678857D01*
X98636285Y-129678857D01*
X98493428Y-129607428D01*
X98422000Y-129536000D01*
X98350571Y-129393142D01*
X98350571Y-129036000D01*
X98422000Y-128821714D01*
X97702000Y-128536000D02*
X97702000Y-127107428D01*
X98493428Y-128250285D02*
X98422000Y-128178857D01*
X98350571Y-128036000D01*
X98350571Y-127678857D01*
X98422000Y-127536000D01*
X98493428Y-127464571D01*
X98636285Y-127393142D01*
X98779142Y-127393142D01*
X98993428Y-127464571D01*
X99850571Y-128321714D01*
X99850571Y-127393142D01*
D10*
X103641266Y-66436476D02*
X103641266Y-65960285D01*
X103926980Y-66531714D02*
X102926980Y-66198380D01*
X103926980Y-65865047D01*
X103926980Y-65007904D02*
X103926980Y-65579333D01*
X103926980Y-65293619D02*
X102926980Y-65293619D01*
X103069838Y-65388857D01*
X103165076Y-65484095D01*
X103212695Y-65579333D01*
X102926980Y-64674571D02*
X102926980Y-64007904D01*
X103926980Y-64436476D01*
X108762866Y-66436476D02*
X108762866Y-65960285D01*
X109048580Y-66531714D02*
X108048580Y-66198380D01*
X109048580Y-65865047D01*
X109048580Y-65007904D02*
X109048580Y-65579333D01*
X109048580Y-65293619D02*
X108048580Y-65293619D01*
X108191438Y-65388857D01*
X108286676Y-65484095D01*
X108334295Y-65579333D01*
X108048580Y-64103142D02*
X108048580Y-64579333D01*
X108524771Y-64626952D01*
X108477152Y-64579333D01*
X108429533Y-64484095D01*
X108429533Y-64246000D01*
X108477152Y-64150761D01*
X108524771Y-64103142D01*
X108620009Y-64055523D01*
X108858104Y-64055523D01*
X108953342Y-64103142D01*
X109000961Y-64150761D01*
X109048580Y-64246000D01*
X109048580Y-64484095D01*
X109000961Y-64579333D01*
X108953342Y-64626952D01*
X111323666Y-66436476D02*
X111323666Y-65960285D01*
X111609380Y-66531714D02*
X110609380Y-66198380D01*
X111609380Y-65865047D01*
X111609380Y-65007904D02*
X111609380Y-65579333D01*
X111609380Y-65293619D02*
X110609380Y-65293619D01*
X110752238Y-65388857D01*
X110847476Y-65484095D01*
X110895095Y-65579333D01*
X110942714Y-64150761D02*
X111609380Y-64150761D01*
X110561761Y-64388857D02*
X111276047Y-64626952D01*
X111276047Y-64007904D01*
X106202066Y-66436476D02*
X106202066Y-65960285D01*
X106487780Y-66531714D02*
X105487780Y-66198380D01*
X106487780Y-65865047D01*
X106487780Y-65007904D02*
X106487780Y-65579333D01*
X106487780Y-65293619D02*
X105487780Y-65293619D01*
X105630638Y-65388857D01*
X105725876Y-65484095D01*
X105773495Y-65579333D01*
X105487780Y-64150761D02*
X105487780Y-64341238D01*
X105535400Y-64436476D01*
X105583019Y-64484095D01*
X105725876Y-64579333D01*
X105916352Y-64626952D01*
X106297304Y-64626952D01*
X106392542Y-64579333D01*
X106440161Y-64531714D01*
X106487780Y-64436476D01*
X106487780Y-64246000D01*
X106440161Y-64150761D01*
X106392542Y-64103142D01*
X106297304Y-64055523D01*
X106059209Y-64055523D01*
X105963971Y-64103142D01*
X105916352Y-64150761D01*
X105868733Y-64246000D01*
X105868733Y-64436476D01*
X105916352Y-64531714D01*
X105963971Y-64579333D01*
X106059209Y-64626952D01*
X101080466Y-66436476D02*
X101080466Y-65960285D01*
X101366180Y-66531714D02*
X100366180Y-66198380D01*
X101366180Y-65865047D01*
X101366180Y-65007904D02*
X101366180Y-65579333D01*
X101366180Y-65293619D02*
X100366180Y-65293619D01*
X100509038Y-65388857D01*
X100604276Y-65484095D01*
X100651895Y-65579333D01*
X100794752Y-64436476D02*
X100747133Y-64531714D01*
X100699514Y-64579333D01*
X100604276Y-64626952D01*
X100556657Y-64626952D01*
X100461419Y-64579333D01*
X100413800Y-64531714D01*
X100366180Y-64436476D01*
X100366180Y-64246000D01*
X100413800Y-64150761D01*
X100461419Y-64103142D01*
X100556657Y-64055523D01*
X100604276Y-64055523D01*
X100699514Y-64103142D01*
X100747133Y-64150761D01*
X100794752Y-64246000D01*
X100794752Y-64436476D01*
X100842371Y-64531714D01*
X100889990Y-64579333D01*
X100985228Y-64626952D01*
X101175704Y-64626952D01*
X101270942Y-64579333D01*
X101318561Y-64531714D01*
X101366180Y-64436476D01*
X101366180Y-64246000D01*
X101318561Y-64150761D01*
X101270942Y-64103142D01*
X101175704Y-64055523D01*
X100985228Y-64055523D01*
X100889990Y-64103142D01*
X100842371Y-64150761D01*
X100794752Y-64246000D01*
D12*
X100147000Y-67145000D02*
X115147000Y-67145000D01*
D10*
X101885095Y-68597380D02*
X101408904Y-68597380D01*
X101408904Y-67597380D01*
X102218428Y-68597380D02*
X102218428Y-67597380D01*
X102694619Y-68597380D02*
X102694619Y-67597380D01*
X103266047Y-68597380D01*
X103266047Y-67597380D01*
X103742238Y-68597380D02*
X103742238Y-67597380D01*
X104313666Y-68597380D02*
X103885095Y-68025952D01*
X104313666Y-67597380D02*
X103742238Y-68168809D01*
X105504142Y-68597380D02*
X105504142Y-67597380D01*
X105742238Y-67597380D01*
X105885095Y-67645000D01*
X105980333Y-67740238D01*
X106027952Y-67835476D01*
X106075571Y-68025952D01*
X106075571Y-68168809D01*
X106027952Y-68359285D01*
X105980333Y-68454523D01*
X105885095Y-68549761D01*
X105742238Y-68597380D01*
X105504142Y-68597380D01*
X106504142Y-68597380D02*
X106504142Y-67597380D01*
X106980333Y-68597380D02*
X106980333Y-67597380D01*
X107361285Y-67597380D01*
X107456523Y-67645000D01*
X107504142Y-67692619D01*
X107551761Y-67787857D01*
X107551761Y-67930714D01*
X107504142Y-68025952D01*
X107456523Y-68073571D01*
X107361285Y-68121190D01*
X106980333Y-68121190D01*
X107932714Y-68549761D02*
X108075571Y-68597380D01*
X108313666Y-68597380D01*
X108408904Y-68549761D01*
X108456523Y-68502142D01*
X108504142Y-68406904D01*
X108504142Y-68311666D01*
X108456523Y-68216428D01*
X108408904Y-68168809D01*
X108313666Y-68121190D01*
X108123190Y-68073571D01*
X108027952Y-68025952D01*
X107980333Y-67978333D01*
X107932714Y-67883095D01*
X107932714Y-67787857D01*
X107980333Y-67692619D01*
X108027952Y-67645000D01*
X108123190Y-67597380D01*
X108361285Y-67597380D01*
X108504142Y-67645000D01*
X108837476Y-67597380D02*
X109075571Y-68597380D01*
X109266047Y-67883095D01*
X109456523Y-68597380D01*
X109694619Y-67597380D01*
X110075571Y-68597380D02*
X110075571Y-67597380D01*
X110408904Y-67597380D02*
X110980333Y-67597380D01*
X110694619Y-68597380D02*
X110694619Y-67597380D01*
X111885095Y-68502142D02*
X111837476Y-68549761D01*
X111694619Y-68597380D01*
X111599380Y-68597380D01*
X111456523Y-68549761D01*
X111361285Y-68454523D01*
X111313666Y-68359285D01*
X111266047Y-68168809D01*
X111266047Y-68025952D01*
X111313666Y-67835476D01*
X111361285Y-67740238D01*
X111456523Y-67645000D01*
X111599380Y-67597380D01*
X111694619Y-67597380D01*
X111837476Y-67645000D01*
X111885095Y-67692619D01*
X112313666Y-68597380D02*
X112313666Y-67597380D01*
X112313666Y-68073571D02*
X112885095Y-68073571D01*
X112885095Y-68597380D02*
X112885095Y-67597380D01*
X113189380Y-66617333D02*
X114189380Y-66284000D01*
X113189380Y-65950666D01*
X114094142Y-65045904D02*
X114141761Y-65093523D01*
X114189380Y-65236380D01*
X114189380Y-65331619D01*
X114141761Y-65474476D01*
X114046523Y-65569714D01*
X113951285Y-65617333D01*
X113760809Y-65664952D01*
X113617952Y-65664952D01*
X113427476Y-65617333D01*
X113332238Y-65569714D01*
X113237000Y-65474476D01*
X113189380Y-65331619D01*
X113189380Y-65236380D01*
X113237000Y-65093523D01*
X113284619Y-65045904D01*
X114094142Y-64045904D02*
X114141761Y-64093523D01*
X114189380Y-64236380D01*
X114189380Y-64331619D01*
X114141761Y-64474476D01*
X114046523Y-64569714D01*
X113951285Y-64617333D01*
X113760809Y-64664952D01*
X113617952Y-64664952D01*
X113427476Y-64617333D01*
X113332238Y-64569714D01*
X113237000Y-64474476D01*
X113189380Y-64331619D01*
X113189380Y-64236380D01*
X113237000Y-64093523D01*
X113284619Y-64045904D01*
D12*
X109586000Y-127889000D02*
X109586000Y-131445000D01*
X111999000Y-127889000D02*
X109586000Y-127889000D01*
X111999000Y-131445000D02*
X111999000Y-127889000D01*
D10*
X110356000Y-130428904D02*
X110308380Y-130524142D01*
X110308380Y-130667000D01*
X110356000Y-130809857D01*
X110451238Y-130905095D01*
X110546476Y-130952714D01*
X110736952Y-131000333D01*
X110879809Y-131000333D01*
X111070285Y-130952714D01*
X111165523Y-130905095D01*
X111260761Y-130809857D01*
X111308380Y-130667000D01*
X111308380Y-130571761D01*
X111260761Y-130428904D01*
X111213142Y-130381285D01*
X110879809Y-130381285D01*
X110879809Y-130571761D01*
X111308380Y-129952714D02*
X110308380Y-129952714D01*
X111308380Y-129381285D01*
X110308380Y-129381285D01*
X111308380Y-128905095D02*
X110308380Y-128905095D01*
X110308380Y-128667000D01*
X110356000Y-128524142D01*
X110451238Y-128428904D01*
X110546476Y-128381285D01*
X110736952Y-128333666D01*
X110879809Y-128333666D01*
X111070285Y-128381285D01*
X111165523Y-128428904D01*
X111260761Y-128524142D01*
X111308380Y-128667000D01*
X111308380Y-128905095D01*
D12*
X109586000Y-131445000D02*
X111999000Y-131445000D01*
X54214000Y-128905000D02*
X54214000Y-131445000D01*
X56627000Y-128905000D02*
X54214000Y-128905000D01*
X56627000Y-131445000D02*
X56627000Y-128905000D01*
X54214000Y-131445000D02*
X56627000Y-131445000D01*
D10*
X54936380Y-130365476D02*
X54936380Y-130841666D01*
X55412571Y-130889285D01*
X55364952Y-130841666D01*
X55317333Y-130746428D01*
X55317333Y-130508333D01*
X55364952Y-130413095D01*
X55412571Y-130365476D01*
X55507809Y-130317857D01*
X55745904Y-130317857D01*
X55841142Y-130365476D01*
X55888761Y-130413095D01*
X55936380Y-130508333D01*
X55936380Y-130746428D01*
X55888761Y-130841666D01*
X55841142Y-130889285D01*
X54936380Y-130032142D02*
X55936380Y-129698809D01*
X54936380Y-129365476D01*
X78630428Y-130468666D02*
X79106619Y-130468666D01*
X78535190Y-130754380D02*
X78868523Y-129754380D01*
X79201857Y-130754380D01*
X79820904Y-131087714D02*
X79582809Y-131087714D01*
X79582809Y-129659142D01*
X79820904Y-129659142D01*
X80725666Y-130754380D02*
X80154238Y-130754380D01*
X80439952Y-130754380D02*
X80439952Y-129754380D01*
X80344714Y-129897238D01*
X80249476Y-129992476D01*
X80154238Y-130040095D01*
X81201857Y-130706761D02*
X81201857Y-130754380D01*
X81154238Y-130849619D01*
X81106619Y-130897238D01*
X81535190Y-129754380D02*
X82154238Y-129754380D01*
X81820904Y-130135333D01*
X81963761Y-130135333D01*
X82059000Y-130182952D01*
X82106619Y-130230571D01*
X82154238Y-130325809D01*
X82154238Y-130563904D01*
X82106619Y-130659142D01*
X82059000Y-130706761D01*
X81963761Y-130754380D01*
X81678047Y-130754380D01*
X81582809Y-130706761D01*
X81535190Y-130659142D01*
X82630428Y-130706761D02*
X82630428Y-130754380D01*
X82582809Y-130849619D01*
X82535190Y-130897238D01*
X83535190Y-129754380D02*
X83059000Y-129754380D01*
X83011380Y-130230571D01*
X83059000Y-130182952D01*
X83154238Y-130135333D01*
X83392333Y-130135333D01*
X83487571Y-130182952D01*
X83535190Y-130230571D01*
X83582809Y-130325809D01*
X83582809Y-130563904D01*
X83535190Y-130659142D01*
X83487571Y-130706761D01*
X83392333Y-130754380D01*
X83154238Y-130754380D01*
X83059000Y-130706761D01*
X83011380Y-130659142D01*
X84059000Y-130706761D02*
X84059000Y-130754380D01*
X84011380Y-130849619D01*
X83963761Y-130897238D01*
X84392333Y-129754380D02*
X85059000Y-129754380D01*
X84630428Y-130754380D01*
X85487571Y-130706761D02*
X85487571Y-130754380D01*
X85439952Y-130849619D01*
X85392333Y-130897238D01*
X85963761Y-130754380D02*
X86154238Y-130754380D01*
X86249476Y-130706761D01*
X86297095Y-130659142D01*
X86392333Y-130516285D01*
X86439952Y-130325809D01*
X86439952Y-129944857D01*
X86392333Y-129849619D01*
X86344714Y-129802000D01*
X86249476Y-129754380D01*
X86059000Y-129754380D01*
X85963761Y-129802000D01*
X85916142Y-129849619D01*
X85868523Y-129944857D01*
X85868523Y-130182952D01*
X85916142Y-130278190D01*
X85963761Y-130325809D01*
X86059000Y-130373428D01*
X86249476Y-130373428D01*
X86344714Y-130325809D01*
X86392333Y-130278190D01*
X86439952Y-130182952D01*
X86916142Y-130706761D02*
X86916142Y-130754380D01*
X86868523Y-130849619D01*
X86820904Y-130897238D01*
X87868523Y-130754380D02*
X87297095Y-130754380D01*
X87582809Y-130754380D02*
X87582809Y-129754380D01*
X87487571Y-129897238D01*
X87392333Y-129992476D01*
X87297095Y-130040095D01*
X88820904Y-130754380D02*
X88249476Y-130754380D01*
X88535190Y-130754380D02*
X88535190Y-129754380D01*
X88439952Y-129897238D01*
X88344714Y-129992476D01*
X88249476Y-130040095D01*
X89154238Y-131087714D02*
X89392333Y-131087714D01*
X89392333Y-129659142D01*
X89154238Y-129659142D01*
D12*
X74153000Y-131445000D02*
X96251000Y-131445000D01*
D10*
X61715380Y-130754380D02*
X61715380Y-129754380D01*
X61953476Y-129754380D01*
X62096333Y-129802000D01*
X62191571Y-129897238D01*
X62239190Y-129992476D01*
X62286809Y-130182952D01*
X62286809Y-130325809D01*
X62239190Y-130516285D01*
X62191571Y-130611523D01*
X62096333Y-130706761D01*
X61953476Y-130754380D01*
X61715380Y-130754380D01*
X63001095Y-131087714D02*
X62763000Y-131087714D01*
X62763000Y-129659142D01*
X63001095Y-129659142D01*
X63905857Y-130754380D02*
X63334428Y-130754380D01*
X63620142Y-130754380D02*
X63620142Y-129754380D01*
X63524904Y-129897238D01*
X63429666Y-129992476D01*
X63334428Y-130040095D01*
X64382047Y-130706761D02*
X64382047Y-130754380D01*
X64334428Y-130849619D01*
X64286809Y-130897238D01*
X64715380Y-129754380D02*
X65334428Y-129754380D01*
X65001095Y-130135333D01*
X65143952Y-130135333D01*
X65239190Y-130182952D01*
X65286809Y-130230571D01*
X65334428Y-130325809D01*
X65334428Y-130563904D01*
X65286809Y-130659142D01*
X65239190Y-130706761D01*
X65143952Y-130754380D01*
X64858238Y-130754380D01*
X64763000Y-130706761D01*
X64715380Y-130659142D01*
X65810619Y-130706761D02*
X65810619Y-130754380D01*
X65763000Y-130849619D01*
X65715380Y-130897238D01*
X66715380Y-129754380D02*
X66239190Y-129754380D01*
X66191571Y-130230571D01*
X66239190Y-130182952D01*
X66334428Y-130135333D01*
X66572523Y-130135333D01*
X66667761Y-130182952D01*
X66715380Y-130230571D01*
X66763000Y-130325809D01*
X66763000Y-130563904D01*
X66715380Y-130659142D01*
X66667761Y-130706761D01*
X66572523Y-130754380D01*
X66334428Y-130754380D01*
X66239190Y-130706761D01*
X66191571Y-130659142D01*
X67239190Y-130706761D02*
X67239190Y-130754380D01*
X67191571Y-130849619D01*
X67143952Y-130897238D01*
X67572523Y-129754380D02*
X68239190Y-129754380D01*
X67810619Y-130754380D01*
X68524904Y-131087714D02*
X68763000Y-131087714D01*
X68763000Y-129659142D01*
X68524904Y-129659142D01*
D12*
X58278000Y-131445000D02*
X72375000Y-131445000D01*
D10*
X46242238Y-93930714D02*
X46242238Y-94787857D01*
X46194619Y-94883095D01*
X46099380Y-94930714D01*
X46051761Y-94930714D01*
X46242238Y-93597380D02*
X46194619Y-93645000D01*
X46242238Y-93692619D01*
X46289857Y-93645000D01*
X46242238Y-93597380D01*
X46242238Y-93692619D01*
X46861285Y-94597380D02*
X46766047Y-94549761D01*
X46718428Y-94454523D01*
X46718428Y-93597380D01*
X47670809Y-94549761D02*
X47575571Y-94597380D01*
X47385095Y-94597380D01*
X47289857Y-94549761D01*
X47242238Y-94502142D01*
X47194619Y-94406904D01*
X47194619Y-94121190D01*
X47242238Y-94025952D01*
X47289857Y-93978333D01*
X47385095Y-93930714D01*
X47575571Y-93930714D01*
X47670809Y-93978333D01*
X48099380Y-93930714D02*
X48099380Y-94787857D01*
X48051761Y-94883095D01*
X47956523Y-94930714D01*
X47908904Y-94930714D01*
X48099380Y-93597380D02*
X48051761Y-93645000D01*
X48099380Y-93692619D01*
X48147000Y-93645000D01*
X48099380Y-93597380D01*
X48099380Y-93692619D01*
X48718428Y-94597380D02*
X48623190Y-94549761D01*
X48575571Y-94454523D01*
X48575571Y-93597380D01*
X49527952Y-94549761D02*
X49432714Y-94597380D01*
X49242238Y-94597380D01*
X49147000Y-94549761D01*
X49099380Y-94502142D01*
X49051761Y-94406904D01*
X49051761Y-94121190D01*
X49099380Y-94025952D01*
X49147000Y-93978333D01*
X49242238Y-93930714D01*
X49432714Y-93930714D01*
X49527952Y-93978333D01*
X49956523Y-93930714D02*
X49956523Y-94787857D01*
X49908904Y-94883095D01*
X49813666Y-94930714D01*
X49766047Y-94930714D01*
X49956523Y-93597380D02*
X49908904Y-93645000D01*
X49956523Y-93692619D01*
X50004142Y-93645000D01*
X49956523Y-93597380D01*
X49956523Y-93692619D01*
X50575571Y-94597380D02*
X50480333Y-94549761D01*
X50432714Y-94454523D01*
X50432714Y-93597380D01*
X51385095Y-94549761D02*
X51289857Y-94597380D01*
X51099380Y-94597380D01*
X51004142Y-94549761D01*
X50956523Y-94502142D01*
X50908904Y-94406904D01*
X50908904Y-94121190D01*
X50956523Y-94025952D01*
X51004142Y-93978333D01*
X51099380Y-93930714D01*
X51289857Y-93930714D01*
X51385095Y-93978333D01*
X51813666Y-93930714D02*
X51813666Y-94787857D01*
X51766047Y-94883095D01*
X51670809Y-94930714D01*
X51623190Y-94930714D01*
X51813666Y-93597380D02*
X51766047Y-93645000D01*
X51813666Y-93692619D01*
X51861285Y-93645000D01*
X51813666Y-93597380D01*
X51813666Y-93692619D01*
X52432714Y-94597380D02*
X52337476Y-94549761D01*
X52289857Y-94454523D01*
X52289857Y-93597380D01*
X53242238Y-94549761D02*
X53147000Y-94597380D01*
X52956523Y-94597380D01*
X52861285Y-94549761D01*
X52813666Y-94502142D01*
X52766047Y-94406904D01*
X52766047Y-94121190D01*
X52813666Y-94025952D01*
X52861285Y-93978333D01*
X52956523Y-93930714D01*
X53147000Y-93930714D01*
X53242238Y-93978333D01*
X53670809Y-93930714D02*
X53670809Y-94787857D01*
X53623190Y-94883095D01*
X53527952Y-94930714D01*
X53480333Y-94930714D01*
X53670809Y-93597380D02*
X53623190Y-93645000D01*
X53670809Y-93692619D01*
X53718428Y-93645000D01*
X53670809Y-93597380D01*
X53670809Y-93692619D01*
X54289857Y-94597380D02*
X54194619Y-94549761D01*
X54147000Y-94454523D01*
X54147000Y-93597380D01*
X55099380Y-94549761D02*
X55004142Y-94597380D01*
X54813666Y-94597380D01*
X54718428Y-94549761D01*
X54670809Y-94502142D01*
X54623190Y-94406904D01*
X54623190Y-94121190D01*
X54670809Y-94025952D01*
X54718428Y-93978333D01*
X54813666Y-93930714D01*
X55004142Y-93930714D01*
X55099380Y-93978333D01*
X110213142Y-133040380D02*
X109641714Y-133040380D01*
X109927428Y-133040380D02*
X109927428Y-132040380D01*
X109832190Y-132183238D01*
X109736952Y-132278476D01*
X109641714Y-132326095D01*
X111117904Y-132040380D02*
X110641714Y-132040380D01*
X110594095Y-132516571D01*
X110641714Y-132468952D01*
X110736952Y-132421333D01*
X110975047Y-132421333D01*
X111070285Y-132468952D01*
X111117904Y-132516571D01*
X111165523Y-132611809D01*
X111165523Y-132849904D01*
X111117904Y-132945142D01*
X111070285Y-132992761D01*
X110975047Y-133040380D01*
X110736952Y-133040380D01*
X110641714Y-132992761D01*
X110594095Y-132945142D01*
X111594095Y-133040380D02*
X111594095Y-132040380D01*
X111594095Y-132421333D02*
X111689333Y-132373714D01*
X111879809Y-132373714D01*
X111975047Y-132421333D01*
X112022666Y-132468952D01*
X112070285Y-132564190D01*
X112070285Y-132849904D01*
X112022666Y-132945142D01*
X111975047Y-132992761D01*
X111879809Y-133040380D01*
X111689333Y-133040380D01*
X111594095Y-132992761D01*
X98402142Y-133040380D02*
X97830714Y-133040380D01*
X98116428Y-133040380D02*
X98116428Y-132040380D01*
X98021190Y-132183238D01*
X97925952Y-132278476D01*
X97830714Y-132326095D01*
X98783095Y-132135619D02*
X98830714Y-132088000D01*
X98925952Y-132040380D01*
X99164047Y-132040380D01*
X99259285Y-132088000D01*
X99306904Y-132135619D01*
X99354523Y-132230857D01*
X99354523Y-132326095D01*
X99306904Y-132468952D01*
X98735476Y-133040380D01*
X99354523Y-133040380D01*
X99783095Y-133040380D02*
X99783095Y-132040380D01*
X99783095Y-132421333D02*
X99878333Y-132373714D01*
X100068809Y-132373714D01*
X100164047Y-132421333D01*
X100211666Y-132468952D01*
X100259285Y-132564190D01*
X100259285Y-132849904D01*
X100211666Y-132945142D01*
X100164047Y-132992761D01*
X100068809Y-133040380D01*
X99878333Y-133040380D01*
X99783095Y-132992761D01*
X94465142Y-133040380D02*
X93893714Y-133040380D01*
X94179428Y-133040380D02*
X94179428Y-132040380D01*
X94084190Y-132183238D01*
X93988952Y-132278476D01*
X93893714Y-132326095D01*
X95417523Y-133040380D02*
X94846095Y-133040380D01*
X95131809Y-133040380D02*
X95131809Y-132040380D01*
X95036571Y-132183238D01*
X94941333Y-132278476D01*
X94846095Y-132326095D01*
X95846095Y-133040380D02*
X95846095Y-132040380D01*
X95846095Y-132421333D02*
X95941333Y-132373714D01*
X96131809Y-132373714D01*
X96227047Y-132421333D01*
X96274666Y-132468952D01*
X96322285Y-132564190D01*
X96322285Y-132849904D01*
X96274666Y-132945142D01*
X96227047Y-132992761D01*
X96131809Y-133040380D01*
X95941333Y-133040380D01*
X95846095Y-132992761D01*
X90401142Y-133040380D02*
X89829714Y-133040380D01*
X90115428Y-133040380D02*
X90115428Y-132040380D01*
X90020190Y-132183238D01*
X89924952Y-132278476D01*
X89829714Y-132326095D01*
X91020190Y-132040380D02*
X91115428Y-132040380D01*
X91210666Y-132088000D01*
X91258285Y-132135619D01*
X91305904Y-132230857D01*
X91353523Y-132421333D01*
X91353523Y-132659428D01*
X91305904Y-132849904D01*
X91258285Y-132945142D01*
X91210666Y-132992761D01*
X91115428Y-133040380D01*
X91020190Y-133040380D01*
X90924952Y-132992761D01*
X90877333Y-132945142D01*
X90829714Y-132849904D01*
X90782095Y-132659428D01*
X90782095Y-132421333D01*
X90829714Y-132230857D01*
X90877333Y-132135619D01*
X90924952Y-132088000D01*
X91020190Y-132040380D01*
X91782095Y-133040380D02*
X91782095Y-132040380D01*
X91782095Y-132421333D02*
X91877333Y-132373714D01*
X92067809Y-132373714D01*
X92163047Y-132421333D01*
X92210666Y-132468952D01*
X92258285Y-132564190D01*
X92258285Y-132849904D01*
X92210666Y-132945142D01*
X92163047Y-132992761D01*
X92067809Y-133040380D01*
X91877333Y-133040380D01*
X91782095Y-132992761D01*
X86464142Y-133040380D02*
X86654619Y-133040380D01*
X86749857Y-132992761D01*
X86797476Y-132945142D01*
X86892714Y-132802285D01*
X86940333Y-132611809D01*
X86940333Y-132230857D01*
X86892714Y-132135619D01*
X86845095Y-132088000D01*
X86749857Y-132040380D01*
X86559380Y-132040380D01*
X86464142Y-132088000D01*
X86416523Y-132135619D01*
X86368904Y-132230857D01*
X86368904Y-132468952D01*
X86416523Y-132564190D01*
X86464142Y-132611809D01*
X86559380Y-132659428D01*
X86749857Y-132659428D01*
X86845095Y-132611809D01*
X86892714Y-132564190D01*
X86940333Y-132468952D01*
X87368904Y-133040380D02*
X87368904Y-132040380D01*
X87368904Y-132421333D02*
X87464142Y-132373714D01*
X87654619Y-132373714D01*
X87749857Y-132421333D01*
X87797476Y-132468952D01*
X87845095Y-132564190D01*
X87845095Y-132849904D01*
X87797476Y-132945142D01*
X87749857Y-132992761D01*
X87654619Y-133040380D01*
X87464142Y-133040380D01*
X87368904Y-132992761D01*
X82622380Y-132468952D02*
X82527142Y-132421333D01*
X82479523Y-132373714D01*
X82431904Y-132278476D01*
X82431904Y-132230857D01*
X82479523Y-132135619D01*
X82527142Y-132088000D01*
X82622380Y-132040380D01*
X82812857Y-132040380D01*
X82908095Y-132088000D01*
X82955714Y-132135619D01*
X83003333Y-132230857D01*
X83003333Y-132278476D01*
X82955714Y-132373714D01*
X82908095Y-132421333D01*
X82812857Y-132468952D01*
X82622380Y-132468952D01*
X82527142Y-132516571D01*
X82479523Y-132564190D01*
X82431904Y-132659428D01*
X82431904Y-132849904D01*
X82479523Y-132945142D01*
X82527142Y-132992761D01*
X82622380Y-133040380D01*
X82812857Y-133040380D01*
X82908095Y-132992761D01*
X82955714Y-132945142D01*
X83003333Y-132849904D01*
X83003333Y-132659428D01*
X82955714Y-132564190D01*
X82908095Y-132516571D01*
X82812857Y-132468952D01*
X83431904Y-133040380D02*
X83431904Y-132040380D01*
X83431904Y-132421333D02*
X83527142Y-132373714D01*
X83717619Y-132373714D01*
X83812857Y-132421333D01*
X83860476Y-132468952D01*
X83908095Y-132564190D01*
X83908095Y-132849904D01*
X83860476Y-132945142D01*
X83812857Y-132992761D01*
X83717619Y-133040380D01*
X83527142Y-133040380D01*
X83431904Y-132992761D01*
X78320285Y-132040380D02*
X78986952Y-132040380D01*
X78558380Y-133040380D01*
X79367904Y-133040380D02*
X79367904Y-132040380D01*
X79367904Y-132421333D02*
X79463142Y-132373714D01*
X79653619Y-132373714D01*
X79748857Y-132421333D01*
X79796476Y-132468952D01*
X79844095Y-132564190D01*
X79844095Y-132849904D01*
X79796476Y-132945142D01*
X79748857Y-132992761D01*
X79653619Y-133040380D01*
X79463142Y-133040380D01*
X79367904Y-132992761D01*
X74907095Y-132040380D02*
X74716619Y-132040380D01*
X74621380Y-132088000D01*
X74573761Y-132135619D01*
X74478523Y-132278476D01*
X74430904Y-132468952D01*
X74430904Y-132849904D01*
X74478523Y-132945142D01*
X74526142Y-132992761D01*
X74621380Y-133040380D01*
X74811857Y-133040380D01*
X74907095Y-132992761D01*
X74954714Y-132945142D01*
X75002333Y-132849904D01*
X75002333Y-132611809D01*
X74954714Y-132516571D01*
X74907095Y-132468952D01*
X74811857Y-132421333D01*
X74621380Y-132421333D01*
X74526142Y-132468952D01*
X74478523Y-132516571D01*
X74430904Y-132611809D01*
X75430904Y-133040380D02*
X75430904Y-132040380D01*
X75430904Y-132421333D02*
X75526142Y-132373714D01*
X75716619Y-132373714D01*
X75811857Y-132421333D01*
X75859476Y-132468952D01*
X75907095Y-132564190D01*
X75907095Y-132849904D01*
X75859476Y-132945142D01*
X75811857Y-132992761D01*
X75716619Y-133040380D01*
X75526142Y-133040380D01*
X75430904Y-132992761D01*
X71017714Y-132040380D02*
X70541523Y-132040380D01*
X70493904Y-132516571D01*
X70541523Y-132468952D01*
X70636761Y-132421333D01*
X70874857Y-132421333D01*
X70970095Y-132468952D01*
X71017714Y-132516571D01*
X71065333Y-132611809D01*
X71065333Y-132849904D01*
X71017714Y-132945142D01*
X70970095Y-132992761D01*
X70874857Y-133040380D01*
X70636761Y-133040380D01*
X70541523Y-132992761D01*
X70493904Y-132945142D01*
X71493904Y-133040380D02*
X71493904Y-132040380D01*
X71493904Y-132421333D02*
X71589142Y-132373714D01*
X71779619Y-132373714D01*
X71874857Y-132421333D01*
X71922476Y-132468952D01*
X71970095Y-132564190D01*
X71970095Y-132849904D01*
X71922476Y-132945142D01*
X71874857Y-132992761D01*
X71779619Y-133040380D01*
X71589142Y-133040380D01*
X71493904Y-132992761D01*
X67033095Y-132373714D02*
X67033095Y-133040380D01*
X66795000Y-131992761D02*
X66556904Y-132707047D01*
X67175952Y-132707047D01*
X67556904Y-133040380D02*
X67556904Y-132040380D01*
X67556904Y-132421333D02*
X67652142Y-132373714D01*
X67842619Y-132373714D01*
X67937857Y-132421333D01*
X67985476Y-132468952D01*
X68033095Y-132564190D01*
X68033095Y-132849904D01*
X67985476Y-132945142D01*
X67937857Y-132992761D01*
X67842619Y-133040380D01*
X67652142Y-133040380D01*
X67556904Y-132992761D01*
X62572285Y-132040380D02*
X63191333Y-132040380D01*
X62858000Y-132421333D01*
X63000857Y-132421333D01*
X63096095Y-132468952D01*
X63143714Y-132516571D01*
X63191333Y-132611809D01*
X63191333Y-132849904D01*
X63143714Y-132945142D01*
X63096095Y-132992761D01*
X63000857Y-133040380D01*
X62715142Y-133040380D01*
X62619904Y-132992761D01*
X62572285Y-132945142D01*
X63619904Y-133040380D02*
X63619904Y-132040380D01*
X63619904Y-132421333D02*
X63715142Y-132373714D01*
X63905619Y-132373714D01*
X64000857Y-132421333D01*
X64048476Y-132468952D01*
X64096095Y-132564190D01*
X64096095Y-132849904D01*
X64048476Y-132945142D01*
X64000857Y-132992761D01*
X63905619Y-133040380D01*
X63715142Y-133040380D01*
X63619904Y-132992761D01*
X58555904Y-132135619D02*
X58603523Y-132088000D01*
X58698761Y-132040380D01*
X58936857Y-132040380D01*
X59032095Y-132088000D01*
X59079714Y-132135619D01*
X59127333Y-132230857D01*
X59127333Y-132326095D01*
X59079714Y-132468952D01*
X58508285Y-133040380D01*
X59127333Y-133040380D01*
X59555904Y-133040380D02*
X59555904Y-132040380D01*
X59555904Y-132421333D02*
X59651142Y-132373714D01*
X59841619Y-132373714D01*
X59936857Y-132421333D01*
X59984476Y-132468952D01*
X60032095Y-132564190D01*
X60032095Y-132849904D01*
X59984476Y-132945142D01*
X59936857Y-132992761D01*
X59841619Y-133040380D01*
X59651142Y-133040380D01*
X59555904Y-132992761D01*
X55190333Y-133040380D02*
X54618904Y-133040380D01*
X54904619Y-133040380D02*
X54904619Y-132040380D01*
X54809380Y-132183238D01*
X54714142Y-132278476D01*
X54618904Y-132326095D01*
X55618904Y-133040380D02*
X55618904Y-132040380D01*
X55618904Y-132421333D02*
X55714142Y-132373714D01*
X55904619Y-132373714D01*
X55999857Y-132421333D01*
X56047476Y-132468952D01*
X56095095Y-132564190D01*
X56095095Y-132849904D01*
X56047476Y-132945142D01*
X55999857Y-132992761D01*
X55904619Y-133040380D01*
X55714142Y-133040380D01*
X55618904Y-132992761D01*
D13*
G36*
X71010213Y-50303205D02*
G01*
X71024465Y-50306985D01*
X71114023Y-50348724D01*
X71222619Y-50425227D01*
X71337473Y-50524637D01*
X71445804Y-50635097D01*
X71534831Y-50744749D01*
X71585149Y-50827152D01*
X71624576Y-50922982D01*
X71644252Y-51015289D01*
X71642464Y-51113301D01*
X71617502Y-51226250D01*
X71567655Y-51363364D01*
X71491211Y-51533875D01*
X71431247Y-51657304D01*
X71220382Y-52083439D01*
X71297191Y-52099844D01*
X71428432Y-52133723D01*
X71537930Y-52178516D01*
X71640006Y-52243070D01*
X71748982Y-52336233D01*
X71861561Y-52448489D01*
X72031221Y-52640936D01*
X72155089Y-52821513D01*
X72239153Y-53000818D01*
X72289400Y-53189450D01*
X72293382Y-53212844D01*
X72307044Y-53466905D01*
X72269398Y-53716631D01*
X72185057Y-53954388D01*
X72058637Y-54172539D01*
X71894751Y-54363450D01*
X71698014Y-54519484D01*
X71473040Y-54633004D01*
X71424930Y-54649979D01*
X71240231Y-54692121D01*
X71034410Y-54708937D01*
X70829163Y-54700386D01*
X70646191Y-54666427D01*
X70599625Y-54651545D01*
X70461990Y-54593277D01*
X70327465Y-54516020D01*
X70182150Y-54410931D01*
X70049835Y-54301776D01*
X69907352Y-54175543D01*
X69800289Y-54069417D01*
X69718042Y-53970826D01*
X69650007Y-53867198D01*
X69592040Y-53758985D01*
X69506439Y-53525885D01*
X69470213Y-53274700D01*
X69474844Y-53190849D01*
X69582224Y-53190849D01*
X69609765Y-53440125D01*
X69688247Y-53675115D01*
X69813167Y-53887527D01*
X69980020Y-54069065D01*
X70113750Y-54169757D01*
X70355367Y-54294881D01*
X70602492Y-54364093D01*
X70853953Y-54377240D01*
X71108579Y-54334167D01*
X71183023Y-54311077D01*
X71405273Y-54206755D01*
X71596778Y-54060422D01*
X71753856Y-53879600D01*
X71872822Y-53671815D01*
X71949992Y-53444589D01*
X71981682Y-53205446D01*
X71964207Y-52961911D01*
X71923066Y-52799747D01*
X71880166Y-52687321D01*
X71829041Y-52596740D01*
X71756077Y-52507013D01*
X71686925Y-52435661D01*
X71547287Y-52313934D01*
X71415434Y-52238240D01*
X71278144Y-52202219D01*
X71190556Y-52197000D01*
X71033049Y-52218535D01*
X70886019Y-52277738D01*
X70759457Y-52366507D01*
X70663356Y-52476740D01*
X70607706Y-52600334D01*
X70597889Y-52677601D01*
X70603373Y-52713363D01*
X70629722Y-52726681D01*
X70691786Y-52722414D01*
X70721709Y-52718113D01*
X70869835Y-52722916D01*
X71014219Y-52776394D01*
X71139717Y-52871941D01*
X71179036Y-52917555D01*
X71242096Y-53043840D01*
X71261912Y-53189004D01*
X71240972Y-53338838D01*
X71181765Y-53479136D01*
X71086778Y-53595691D01*
X71055873Y-53620839D01*
X70961126Y-53664332D01*
X70837136Y-53686911D01*
X70707699Y-53686972D01*
X70596610Y-53662911D01*
X70575095Y-53653252D01*
X70443508Y-53555183D01*
X70383201Y-53469357D01*
X70626147Y-53469357D01*
X70634136Y-53539067D01*
X70644926Y-53561074D01*
X70682547Y-53572683D01*
X70754410Y-53579301D01*
X70785055Y-53579889D01*
X70885513Y-53567746D01*
X70969112Y-53523014D01*
X71001256Y-53496578D01*
X71084806Y-53396707D01*
X71135114Y-53281132D01*
X71146122Y-53167372D01*
X71133769Y-53113322D01*
X71112167Y-53067515D01*
X71081819Y-53048195D01*
X71024651Y-53049036D01*
X70971165Y-53056406D01*
X70876713Y-53069555D01*
X70796280Y-53079150D01*
X70774519Y-53081168D01*
X70719300Y-53106617D01*
X70674271Y-53178963D01*
X70668686Y-53192405D01*
X70644662Y-53276786D01*
X70630069Y-53375517D01*
X70626147Y-53469357D01*
X70383201Y-53469357D01*
X70350424Y-53422712D01*
X70301610Y-53267418D01*
X70302131Y-53105181D01*
X70318069Y-53057296D01*
X70356469Y-52965077D01*
X70414504Y-52834650D01*
X70489342Y-52672143D01*
X70578153Y-52483680D01*
X70678108Y-52275389D01*
X70786376Y-52053396D01*
X70812944Y-51999445D01*
X70939752Y-51740233D01*
X71051730Y-51506904D01*
X71146935Y-51303722D01*
X71223424Y-51134947D01*
X71279253Y-51004844D01*
X71312478Y-50917674D01*
X71321224Y-50884667D01*
X71311551Y-50749573D01*
X71256085Y-50617753D01*
X71163819Y-50506078D01*
X71091778Y-50454186D01*
X71042054Y-50425732D01*
X70999574Y-50404338D01*
X70961407Y-50393820D01*
X70924619Y-50397990D01*
X70886279Y-50420663D01*
X70843454Y-50465652D01*
X70793212Y-50536772D01*
X70732620Y-50637836D01*
X70658748Y-50772658D01*
X70568661Y-50945052D01*
X70459429Y-51158833D01*
X70328118Y-51417813D01*
X70284022Y-51504811D01*
X70125623Y-51818830D01*
X69992004Y-52087787D01*
X69881223Y-52316344D01*
X69791342Y-52509160D01*
X69720421Y-52670895D01*
X69666520Y-52806208D01*
X69627700Y-52919760D01*
X69602020Y-53016210D01*
X69587543Y-53100217D01*
X69582327Y-53176443D01*
X69582224Y-53190849D01*
X69474844Y-53190849D01*
X69484468Y-53016604D01*
X69507306Y-52902556D01*
X69529087Y-52840526D01*
X69573473Y-52734959D01*
X69637213Y-52592486D01*
X69717053Y-52419744D01*
X69809740Y-52223365D01*
X69912021Y-52009984D01*
X70020642Y-51786235D01*
X70132351Y-51558752D01*
X70243894Y-51334168D01*
X70352018Y-51119119D01*
X70453471Y-50920237D01*
X70544999Y-50744157D01*
X70623348Y-50597514D01*
X70685267Y-50486940D01*
X70718910Y-50431757D01*
X70784378Y-50341563D01*
X70842927Y-50294901D01*
X70912293Y-50284529D01*
X71010213Y-50303205D01*
G37*
X71010213Y-50303205D02*
X71024465Y-50306985D01*
X71114023Y-50348724D01*
X71222619Y-50425227D01*
X71337473Y-50524637D01*
X71445804Y-50635097D01*
X71534831Y-50744749D01*
X71585149Y-50827152D01*
X71624576Y-50922982D01*
X71644252Y-51015289D01*
X71642464Y-51113301D01*
X71617502Y-51226250D01*
X71567655Y-51363364D01*
X71491211Y-51533875D01*
X71431247Y-51657304D01*
X71220382Y-52083439D01*
X71297191Y-52099844D01*
X71428432Y-52133723D01*
X71537930Y-52178516D01*
X71640006Y-52243070D01*
X71748982Y-52336233D01*
X71861561Y-52448489D01*
X72031221Y-52640936D01*
X72155089Y-52821513D01*
X72239153Y-53000818D01*
X72289400Y-53189450D01*
X72293382Y-53212844D01*
X72307044Y-53466905D01*
X72269398Y-53716631D01*
X72185057Y-53954388D01*
X72058637Y-54172539D01*
X71894751Y-54363450D01*
X71698014Y-54519484D01*
X71473040Y-54633004D01*
X71424930Y-54649979D01*
X71240231Y-54692121D01*
X71034410Y-54708937D01*
X70829163Y-54700386D01*
X70646191Y-54666427D01*
X70599625Y-54651545D01*
X70461990Y-54593277D01*
X70327465Y-54516020D01*
X70182150Y-54410931D01*
X70049835Y-54301776D01*
X69907352Y-54175543D01*
X69800289Y-54069417D01*
X69718042Y-53970826D01*
X69650007Y-53867198D01*
X69592040Y-53758985D01*
X69506439Y-53525885D01*
X69470213Y-53274700D01*
X69474844Y-53190849D01*
X69582224Y-53190849D01*
X69609765Y-53440125D01*
X69688247Y-53675115D01*
X69813167Y-53887527D01*
X69980020Y-54069065D01*
X70113750Y-54169757D01*
X70355367Y-54294881D01*
X70602492Y-54364093D01*
X70853953Y-54377240D01*
X71108579Y-54334167D01*
X71183023Y-54311077D01*
X71405273Y-54206755D01*
X71596778Y-54060422D01*
X71753856Y-53879600D01*
X71872822Y-53671815D01*
X71949992Y-53444589D01*
X71981682Y-53205446D01*
X71964207Y-52961911D01*
X71923066Y-52799747D01*
X71880166Y-52687321D01*
X71829041Y-52596740D01*
X71756077Y-52507013D01*
X71686925Y-52435661D01*
X71547287Y-52313934D01*
X71415434Y-52238240D01*
X71278144Y-52202219D01*
X71190556Y-52197000D01*
X71033049Y-52218535D01*
X70886019Y-52277738D01*
X70759457Y-52366507D01*
X70663356Y-52476740D01*
X70607706Y-52600334D01*
X70597889Y-52677601D01*
X70603373Y-52713363D01*
X70629722Y-52726681D01*
X70691786Y-52722414D01*
X70721709Y-52718113D01*
X70869835Y-52722916D01*
X71014219Y-52776394D01*
X71139717Y-52871941D01*
X71179036Y-52917555D01*
X71242096Y-53043840D01*
X71261912Y-53189004D01*
X71240972Y-53338838D01*
X71181765Y-53479136D01*
X71086778Y-53595691D01*
X71055873Y-53620839D01*
X70961126Y-53664332D01*
X70837136Y-53686911D01*
X70707699Y-53686972D01*
X70596610Y-53662911D01*
X70575095Y-53653252D01*
X70443508Y-53555183D01*
X70383201Y-53469357D01*
X70626147Y-53469357D01*
X70634136Y-53539067D01*
X70644926Y-53561074D01*
X70682547Y-53572683D01*
X70754410Y-53579301D01*
X70785055Y-53579889D01*
X70885513Y-53567746D01*
X70969112Y-53523014D01*
X71001256Y-53496578D01*
X71084806Y-53396707D01*
X71135114Y-53281132D01*
X71146122Y-53167372D01*
X71133769Y-53113322D01*
X71112167Y-53067515D01*
X71081819Y-53048195D01*
X71024651Y-53049036D01*
X70971165Y-53056406D01*
X70876713Y-53069555D01*
X70796280Y-53079150D01*
X70774519Y-53081168D01*
X70719300Y-53106617D01*
X70674271Y-53178963D01*
X70668686Y-53192405D01*
X70644662Y-53276786D01*
X70630069Y-53375517D01*
X70626147Y-53469357D01*
X70383201Y-53469357D01*
X70350424Y-53422712D01*
X70301610Y-53267418D01*
X70302131Y-53105181D01*
X70318069Y-53057296D01*
X70356469Y-52965077D01*
X70414504Y-52834650D01*
X70489342Y-52672143D01*
X70578153Y-52483680D01*
X70678108Y-52275389D01*
X70786376Y-52053396D01*
X70812944Y-51999445D01*
X70939752Y-51740233D01*
X71051730Y-51506904D01*
X71146935Y-51303722D01*
X71223424Y-51134947D01*
X71279253Y-51004844D01*
X71312478Y-50917674D01*
X71321224Y-50884667D01*
X71311551Y-50749573D01*
X71256085Y-50617753D01*
X71163819Y-50506078D01*
X71091778Y-50454186D01*
X71042054Y-50425732D01*
X70999574Y-50404338D01*
X70961407Y-50393820D01*
X70924619Y-50397990D01*
X70886279Y-50420663D01*
X70843454Y-50465652D01*
X70793212Y-50536772D01*
X70732620Y-50637836D01*
X70658748Y-50772658D01*
X70568661Y-50945052D01*
X70459429Y-51158833D01*
X70328118Y-51417813D01*
X70284022Y-51504811D01*
X70125623Y-51818830D01*
X69992004Y-52087787D01*
X69881223Y-52316344D01*
X69791342Y-52509160D01*
X69720421Y-52670895D01*
X69666520Y-52806208D01*
X69627700Y-52919760D01*
X69602020Y-53016210D01*
X69587543Y-53100217D01*
X69582327Y-53176443D01*
X69582224Y-53190849D01*
X69474844Y-53190849D01*
X69484468Y-53016604D01*
X69507306Y-52902556D01*
X69529087Y-52840526D01*
X69573473Y-52734959D01*
X69637213Y-52592486D01*
X69717053Y-52419744D01*
X69809740Y-52223365D01*
X69912021Y-52009984D01*
X70020642Y-51786235D01*
X70132351Y-51558752D01*
X70243894Y-51334168D01*
X70352018Y-51119119D01*
X70453471Y-50920237D01*
X70544999Y-50744157D01*
X70623348Y-50597514D01*
X70685267Y-50486940D01*
X70718910Y-50431757D01*
X70784378Y-50341563D01*
X70842927Y-50294901D01*
X70912293Y-50284529D01*
X71010213Y-50303205D01*
G36*
X75367389Y-50387549D02*
G01*
X75488126Y-50497914D01*
X75474688Y-50707297D01*
X75440415Y-50913538D01*
X75368107Y-51090383D01*
X75261477Y-51230317D01*
X75186513Y-51290847D01*
X75140834Y-51319041D01*
X75095433Y-51339407D01*
X75039753Y-51353631D01*
X74963236Y-51363398D01*
X74855325Y-51370392D01*
X74705461Y-51376299D01*
X74636989Y-51378556D01*
X74198614Y-51392667D01*
X74179065Y-51463223D01*
X74159904Y-51545567D01*
X74165406Y-51595705D01*
X74204894Y-51625609D01*
X74287694Y-51647252D01*
X74328495Y-51655065D01*
X74539564Y-51715044D01*
X74738340Y-51816135D01*
X74930157Y-51962250D01*
X75120351Y-52157297D01*
X75270977Y-52345879D01*
X75362889Y-52478165D01*
X75429730Y-52599608D01*
X75475260Y-52723645D01*
X75503240Y-52863711D01*
X75517431Y-53033244D01*
X75521585Y-53241223D01*
X75521036Y-53408016D01*
X75517579Y-53531100D01*
X75509766Y-53623189D01*
X75496148Y-53696999D01*
X75475277Y-53765246D01*
X75456263Y-53814817D01*
X75332708Y-54048574D01*
X75163710Y-54258197D01*
X74957969Y-54435502D01*
X74724188Y-54572307D01*
X74595466Y-54624366D01*
X74456130Y-54659618D01*
X74283572Y-54684528D01*
X74098871Y-54697695D01*
X73923109Y-54697717D01*
X73777366Y-54683193D01*
X73760371Y-54679880D01*
X73589195Y-54624876D01*
X73399973Y-54532695D01*
X73206435Y-54412808D01*
X73022313Y-54274686D01*
X72861338Y-54127801D01*
X72737239Y-53981626D01*
X72727261Y-53967227D01*
X72626900Y-53779138D01*
X72578146Y-53594543D01*
X72578035Y-53487108D01*
X72686954Y-53487108D01*
X72711655Y-53647957D01*
X72782461Y-53813082D01*
X72891245Y-53971109D01*
X73029880Y-54110661D01*
X73190241Y-54220362D01*
X73222556Y-54236921D01*
X73474383Y-54337204D01*
X73718097Y-54386748D01*
X73966566Y-54387217D01*
X74157332Y-54357740D01*
X74418952Y-54275296D01*
X74652945Y-54147257D01*
X74854091Y-53978518D01*
X75017169Y-53773980D01*
X75136959Y-53538538D01*
X75183072Y-53395458D01*
X75223856Y-53146024D01*
X75220134Y-52895730D01*
X75175325Y-52652409D01*
X75092847Y-52423892D01*
X74976120Y-52218010D01*
X74828563Y-52042595D01*
X74653595Y-51905477D01*
X74499552Y-51829873D01*
X74333726Y-51782957D01*
X74152371Y-51756248D01*
X73978275Y-51751918D01*
X73850500Y-51768034D01*
X73778633Y-51781115D01*
X73736676Y-51781747D01*
X73732101Y-51777723D01*
X73738744Y-51744725D01*
X73755732Y-51668012D01*
X73780534Y-51558825D01*
X73810623Y-51428406D01*
X73812370Y-51420889D01*
X73891094Y-51082223D01*
X74354103Y-51068112D01*
X74529244Y-51062148D01*
X74658000Y-51055621D01*
X74750423Y-51047136D01*
X74816566Y-51035297D01*
X74866482Y-51018708D01*
X74910224Y-50995976D01*
X74920942Y-50989436D01*
X75023768Y-50894483D01*
X75102968Y-50757294D01*
X75152533Y-50589258D01*
X75160654Y-50535138D01*
X75177751Y-50390778D01*
X73344890Y-50390778D01*
X73144776Y-51286834D01*
X72944662Y-52182889D01*
X73189443Y-52412978D01*
X73434223Y-52643067D01*
X73504778Y-52576753D01*
X73644912Y-52481430D01*
X73804794Y-52432717D01*
X73972179Y-52430722D01*
X74134820Y-52475554D01*
X74280470Y-52567324D01*
X74283323Y-52569812D01*
X74399025Y-52698873D01*
X74466955Y-52845713D01*
X74492151Y-53021921D01*
X74492556Y-53051113D01*
X74468505Y-53248089D01*
X74400232Y-53414555D01*
X74293555Y-53546111D01*
X74154293Y-53638358D01*
X73988266Y-53686897D01*
X73801293Y-53687328D01*
X73683038Y-53663104D01*
X73535867Y-53597259D01*
X73413186Y-53494921D01*
X73322922Y-53367201D01*
X73273001Y-53225212D01*
X73270542Y-53084859D01*
X73277478Y-53019658D01*
X73261524Y-52993049D01*
X73211371Y-52988379D01*
X73205082Y-52988461D01*
X73092902Y-53005473D01*
X72972256Y-53046593D01*
X72871457Y-53101449D01*
X72849813Y-53118595D01*
X72783372Y-53202467D01*
X72727004Y-53316239D01*
X72692430Y-53433389D01*
X72686954Y-53487108D01*
X72578035Y-53487108D01*
X72577965Y-53419593D01*
X72623324Y-53260437D01*
X72711189Y-53123226D01*
X72838527Y-53014109D01*
X73002304Y-52939237D01*
X73199487Y-52904759D01*
X73252106Y-52903176D01*
X73353929Y-52904819D01*
X73420192Y-52915841D01*
X73471761Y-52944110D01*
X73529501Y-52997493D01*
X73545511Y-53013805D01*
X73607056Y-53079258D01*
X73635721Y-53125430D01*
X73638100Y-53173389D01*
X73620784Y-53244201D01*
X73619287Y-53249546D01*
X73592517Y-53368543D01*
X73595437Y-53448319D01*
X73633216Y-53500492D01*
X73711025Y-53536682D01*
X73752401Y-53548724D01*
X73919962Y-53567904D01*
X74071864Y-53536993D01*
X74200899Y-53461707D01*
X74299858Y-53347762D01*
X74361532Y-53200877D01*
X74379251Y-53051629D01*
X74364591Y-52911828D01*
X74319777Y-52816278D01*
X74242042Y-52759875D01*
X74216375Y-52751072D01*
X74086066Y-52742273D01*
X73951336Y-52786709D01*
X73818240Y-52882150D01*
X73792412Y-52907101D01*
X73675621Y-53025060D01*
X73512588Y-52873289D01*
X73425349Y-52791726D01*
X73312544Y-52685762D01*
X73189544Y-52569856D01*
X73085084Y-52471126D01*
X72820612Y-52220733D01*
X72867201Y-51990144D01*
X72886293Y-51898579D01*
X72915471Y-51762403D01*
X72952454Y-51592078D01*
X72994962Y-51398069D01*
X73040715Y-51190836D01*
X73077403Y-51025778D01*
X73241017Y-50292000D01*
X74243835Y-50284593D01*
X75246652Y-50277185D01*
X75367389Y-50387549D01*
G37*
X75367389Y-50387549D02*
X75488126Y-50497914D01*
X75474688Y-50707297D01*
X75440415Y-50913538D01*
X75368107Y-51090383D01*
X75261477Y-51230317D01*
X75186513Y-51290847D01*
X75140834Y-51319041D01*
X75095433Y-51339407D01*
X75039753Y-51353631D01*
X74963236Y-51363398D01*
X74855325Y-51370392D01*
X74705461Y-51376299D01*
X74636989Y-51378556D01*
X74198614Y-51392667D01*
X74179065Y-51463223D01*
X74159904Y-51545567D01*
X74165406Y-51595705D01*
X74204894Y-51625609D01*
X74287694Y-51647252D01*
X74328495Y-51655065D01*
X74539564Y-51715044D01*
X74738340Y-51816135D01*
X74930157Y-51962250D01*
X75120351Y-52157297D01*
X75270977Y-52345879D01*
X75362889Y-52478165D01*
X75429730Y-52599608D01*
X75475260Y-52723645D01*
X75503240Y-52863711D01*
X75517431Y-53033244D01*
X75521585Y-53241223D01*
X75521036Y-53408016D01*
X75517579Y-53531100D01*
X75509766Y-53623189D01*
X75496148Y-53696999D01*
X75475277Y-53765246D01*
X75456263Y-53814817D01*
X75332708Y-54048574D01*
X75163710Y-54258197D01*
X74957969Y-54435502D01*
X74724188Y-54572307D01*
X74595466Y-54624366D01*
X74456130Y-54659618D01*
X74283572Y-54684528D01*
X74098871Y-54697695D01*
X73923109Y-54697717D01*
X73777366Y-54683193D01*
X73760371Y-54679880D01*
X73589195Y-54624876D01*
X73399973Y-54532695D01*
X73206435Y-54412808D01*
X73022313Y-54274686D01*
X72861338Y-54127801D01*
X72737239Y-53981626D01*
X72727261Y-53967227D01*
X72626900Y-53779138D01*
X72578146Y-53594543D01*
X72578035Y-53487108D01*
X72686954Y-53487108D01*
X72711655Y-53647957D01*
X72782461Y-53813082D01*
X72891245Y-53971109D01*
X73029880Y-54110661D01*
X73190241Y-54220362D01*
X73222556Y-54236921D01*
X73474383Y-54337204D01*
X73718097Y-54386748D01*
X73966566Y-54387217D01*
X74157332Y-54357740D01*
X74418952Y-54275296D01*
X74652945Y-54147257D01*
X74854091Y-53978518D01*
X75017169Y-53773980D01*
X75136959Y-53538538D01*
X75183072Y-53395458D01*
X75223856Y-53146024D01*
X75220134Y-52895730D01*
X75175325Y-52652409D01*
X75092847Y-52423892D01*
X74976120Y-52218010D01*
X74828563Y-52042595D01*
X74653595Y-51905477D01*
X74499552Y-51829873D01*
X74333726Y-51782957D01*
X74152371Y-51756248D01*
X73978275Y-51751918D01*
X73850500Y-51768034D01*
X73778633Y-51781115D01*
X73736676Y-51781747D01*
X73732101Y-51777723D01*
X73738744Y-51744725D01*
X73755732Y-51668012D01*
X73780534Y-51558825D01*
X73810623Y-51428406D01*
X73812370Y-51420889D01*
X73891094Y-51082223D01*
X74354103Y-51068112D01*
X74529244Y-51062148D01*
X74658000Y-51055621D01*
X74750423Y-51047136D01*
X74816566Y-51035297D01*
X74866482Y-51018708D01*
X74910224Y-50995976D01*
X74920942Y-50989436D01*
X75023768Y-50894483D01*
X75102968Y-50757294D01*
X75152533Y-50589258D01*
X75160654Y-50535138D01*
X75177751Y-50390778D01*
X73344890Y-50390778D01*
X73144776Y-51286834D01*
X72944662Y-52182889D01*
X73189443Y-52412978D01*
X73434223Y-52643067D01*
X73504778Y-52576753D01*
X73644912Y-52481430D01*
X73804794Y-52432717D01*
X73972179Y-52430722D01*
X74134820Y-52475554D01*
X74280470Y-52567324D01*
X74283323Y-52569812D01*
X74399025Y-52698873D01*
X74466955Y-52845713D01*
X74492151Y-53021921D01*
X74492556Y-53051113D01*
X74468505Y-53248089D01*
X74400232Y-53414555D01*
X74293555Y-53546111D01*
X74154293Y-53638358D01*
X73988266Y-53686897D01*
X73801293Y-53687328D01*
X73683038Y-53663104D01*
X73535867Y-53597259D01*
X73413186Y-53494921D01*
X73322922Y-53367201D01*
X73273001Y-53225212D01*
X73270542Y-53084859D01*
X73277478Y-53019658D01*
X73261524Y-52993049D01*
X73211371Y-52988379D01*
X73205082Y-52988461D01*
X73092902Y-53005473D01*
X72972256Y-53046593D01*
X72871457Y-53101449D01*
X72849813Y-53118595D01*
X72783372Y-53202467D01*
X72727004Y-53316239D01*
X72692430Y-53433389D01*
X72686954Y-53487108D01*
X72578035Y-53487108D01*
X72577965Y-53419593D01*
X72623324Y-53260437D01*
X72711189Y-53123226D01*
X72838527Y-53014109D01*
X73002304Y-52939237D01*
X73199487Y-52904759D01*
X73252106Y-52903176D01*
X73353929Y-52904819D01*
X73420192Y-52915841D01*
X73471761Y-52944110D01*
X73529501Y-52997493D01*
X73545511Y-53013805D01*
X73607056Y-53079258D01*
X73635721Y-53125430D01*
X73638100Y-53173389D01*
X73620784Y-53244201D01*
X73619287Y-53249546D01*
X73592517Y-53368543D01*
X73595437Y-53448319D01*
X73633216Y-53500492D01*
X73711025Y-53536682D01*
X73752401Y-53548724D01*
X73919962Y-53567904D01*
X74071864Y-53536993D01*
X74200899Y-53461707D01*
X74299858Y-53347762D01*
X74361532Y-53200877D01*
X74379251Y-53051629D01*
X74364591Y-52911828D01*
X74319777Y-52816278D01*
X74242042Y-52759875D01*
X74216375Y-52751072D01*
X74086066Y-52742273D01*
X73951336Y-52786709D01*
X73818240Y-52882150D01*
X73792412Y-52907101D01*
X73675621Y-53025060D01*
X73512588Y-52873289D01*
X73425349Y-52791726D01*
X73312544Y-52685762D01*
X73189544Y-52569856D01*
X73085084Y-52471126D01*
X72820612Y-52220733D01*
X72867201Y-51990144D01*
X72886293Y-51898579D01*
X72915471Y-51762403D01*
X72952454Y-51592078D01*
X72994962Y-51398069D01*
X73040715Y-51190836D01*
X73077403Y-51025778D01*
X73241017Y-50292000D01*
X74243835Y-50284593D01*
X75246652Y-50277185D01*
X75367389Y-50387549D01*
G36*
X77508705Y-50206157D02*
G01*
X77716788Y-50248464D01*
X77905776Y-50325404D01*
X78087217Y-50442235D01*
X78272657Y-50604215D01*
X78354790Y-50687266D01*
X78512151Y-50863972D01*
X78639608Y-51037349D01*
X78740189Y-51216188D01*
X78816926Y-51409276D01*
X78872846Y-51625403D01*
X78910981Y-51873357D01*
X78934360Y-52161929D01*
X78943641Y-52395468D01*
X78947243Y-52742450D01*
X78937026Y-53042458D01*
X78911832Y-53303525D01*
X78870505Y-53533684D01*
X78811891Y-53740966D01*
X78734833Y-53933405D01*
X78716856Y-53971332D01*
X78583291Y-54190051D01*
X78413464Y-54378539D01*
X78216098Y-54529636D01*
X77999911Y-54636184D01*
X77856667Y-54677488D01*
X77695801Y-54698813D01*
X77506049Y-54705256D01*
X77312894Y-54697095D01*
X77141820Y-54674605D01*
X77117223Y-54669478D01*
X76945672Y-54616995D01*
X76777967Y-54534107D01*
X76602259Y-54414117D01*
X76461660Y-54298836D01*
X76283215Y-54127064D01*
X76137532Y-53946439D01*
X76021790Y-53749633D01*
X75933163Y-53529316D01*
X75868830Y-53278161D01*
X75825967Y-52988839D01*
X75801752Y-52654020D01*
X75798797Y-52578000D01*
X75797643Y-52361939D01*
X75916528Y-52361939D01*
X75920311Y-52586754D01*
X75929207Y-52800410D01*
X75943089Y-52989539D01*
X75961830Y-53140772D01*
X75970040Y-53184778D01*
X76057349Y-53498240D01*
X76176240Y-53765334D01*
X76326562Y-53985875D01*
X76508163Y-54159675D01*
X76720889Y-54286550D01*
X76932608Y-54358967D01*
X77137287Y-54389452D01*
X77362710Y-54391069D01*
X77581200Y-54363954D01*
X77619566Y-54355584D01*
X77776174Y-54311760D01*
X77899317Y-54257505D01*
X78011947Y-54180639D01*
X78108277Y-54096205D01*
X78255363Y-53936763D01*
X78375149Y-53756341D01*
X78469736Y-53548778D01*
X78541225Y-53307914D01*
X78591716Y-53027591D01*
X78623310Y-52701648D01*
X78630828Y-52563889D01*
X78633964Y-52154758D01*
X78605818Y-51779420D01*
X78547010Y-51441883D01*
X78458164Y-51146155D01*
X78384720Y-50978487D01*
X78243005Y-50756151D01*
X78065629Y-50576191D01*
X77856548Y-50440777D01*
X77619716Y-50352079D01*
X77359089Y-50312268D01*
X77173667Y-50313988D01*
X76907965Y-50357338D01*
X76672977Y-50447882D01*
X76468639Y-50585686D01*
X76294889Y-50770819D01*
X76151663Y-51003349D01*
X76038897Y-51283343D01*
X75956529Y-51610870D01*
X75955089Y-51618445D01*
X75937140Y-51754218D01*
X75924815Y-51932304D01*
X75917987Y-52139333D01*
X75916528Y-52361939D01*
X75797643Y-52361939D01*
X75796539Y-52155600D01*
X75820581Y-51780799D01*
X75871606Y-51450904D01*
X75950294Y-51163218D01*
X76057329Y-50915046D01*
X76193391Y-50703693D01*
X76304664Y-50577807D01*
X76508311Y-50408131D01*
X76730341Y-50289005D01*
X76976468Y-50218153D01*
X77252403Y-50193301D01*
X77269982Y-50193223D01*
X77508705Y-50206157D01*
G37*
X77508705Y-50206157D02*
X77716788Y-50248464D01*
X77905776Y-50325404D01*
X78087217Y-50442235D01*
X78272657Y-50604215D01*
X78354790Y-50687266D01*
X78512151Y-50863972D01*
X78639608Y-51037349D01*
X78740189Y-51216188D01*
X78816926Y-51409276D01*
X78872846Y-51625403D01*
X78910981Y-51873357D01*
X78934360Y-52161929D01*
X78943641Y-52395468D01*
X78947243Y-52742450D01*
X78937026Y-53042458D01*
X78911832Y-53303525D01*
X78870505Y-53533684D01*
X78811891Y-53740966D01*
X78734833Y-53933405D01*
X78716856Y-53971332D01*
X78583291Y-54190051D01*
X78413464Y-54378539D01*
X78216098Y-54529636D01*
X77999911Y-54636184D01*
X77856667Y-54677488D01*
X77695801Y-54698813D01*
X77506049Y-54705256D01*
X77312894Y-54697095D01*
X77141820Y-54674605D01*
X77117223Y-54669478D01*
X76945672Y-54616995D01*
X76777967Y-54534107D01*
X76602259Y-54414117D01*
X76461660Y-54298836D01*
X76283215Y-54127064D01*
X76137532Y-53946439D01*
X76021790Y-53749633D01*
X75933163Y-53529316D01*
X75868830Y-53278161D01*
X75825967Y-52988839D01*
X75801752Y-52654020D01*
X75798797Y-52578000D01*
X75797643Y-52361939D01*
X75916528Y-52361939D01*
X75920311Y-52586754D01*
X75929207Y-52800410D01*
X75943089Y-52989539D01*
X75961830Y-53140772D01*
X75970040Y-53184778D01*
X76057349Y-53498240D01*
X76176240Y-53765334D01*
X76326562Y-53985875D01*
X76508163Y-54159675D01*
X76720889Y-54286550D01*
X76932608Y-54358967D01*
X77137287Y-54389452D01*
X77362710Y-54391069D01*
X77581200Y-54363954D01*
X77619566Y-54355584D01*
X77776174Y-54311760D01*
X77899317Y-54257505D01*
X78011947Y-54180639D01*
X78108277Y-54096205D01*
X78255363Y-53936763D01*
X78375149Y-53756341D01*
X78469736Y-53548778D01*
X78541225Y-53307914D01*
X78591716Y-53027591D01*
X78623310Y-52701648D01*
X78630828Y-52563889D01*
X78633964Y-52154758D01*
X78605818Y-51779420D01*
X78547010Y-51441883D01*
X78458164Y-51146155D01*
X78384720Y-50978487D01*
X78243005Y-50756151D01*
X78065629Y-50576191D01*
X77856548Y-50440777D01*
X77619716Y-50352079D01*
X77359089Y-50312268D01*
X77173667Y-50313988D01*
X76907965Y-50357338D01*
X76672977Y-50447882D01*
X76468639Y-50585686D01*
X76294889Y-50770819D01*
X76151663Y-51003349D01*
X76038897Y-51283343D01*
X75956529Y-51610870D01*
X75955089Y-51618445D01*
X75937140Y-51754218D01*
X75924815Y-51932304D01*
X75917987Y-52139333D01*
X75916528Y-52361939D01*
X75797643Y-52361939D01*
X75796539Y-52155600D01*
X75820581Y-51780799D01*
X75871606Y-51450904D01*
X75950294Y-51163218D01*
X76057329Y-50915046D01*
X76193391Y-50703693D01*
X76304664Y-50577807D01*
X76508311Y-50408131D01*
X76730341Y-50289005D01*
X76976468Y-50218153D01*
X77252403Y-50193301D01*
X77269982Y-50193223D01*
X77508705Y-50206157D01*
G36*
X80867432Y-50206096D02*
G01*
X81136066Y-50255545D01*
X81386086Y-50346449D01*
X81386915Y-50346841D01*
X81487922Y-50409317D01*
X81610363Y-50507686D01*
X81743537Y-50631442D01*
X81876738Y-50770077D01*
X81999265Y-50913084D01*
X82095145Y-51042111D01*
X82220739Y-51272722D01*
X82292625Y-51514220D01*
X82310680Y-51767082D01*
X82274784Y-52031779D01*
X82184814Y-52308788D01*
X82040648Y-52598581D01*
X81842164Y-52901633D01*
X81589239Y-53218419D01*
X81513080Y-53304723D01*
X81316354Y-53523445D01*
X82103369Y-53523445D01*
X82220851Y-53635203D01*
X82338334Y-53746962D01*
X82338334Y-54624112D01*
X79445556Y-54622700D01*
X79325612Y-54509498D01*
X79253241Y-54431985D01*
X79215057Y-54359440D01*
X79211195Y-54313667D01*
X79318556Y-54313667D01*
X82027889Y-54313667D01*
X82027889Y-53637320D01*
X81331928Y-53629771D01*
X80635967Y-53622223D01*
X80993650Y-53244440D01*
X81239518Y-52976826D01*
X81443349Y-52736389D01*
X81608824Y-52517204D01*
X81739626Y-52313345D01*
X81839435Y-52118888D01*
X81911933Y-51927907D01*
X81960802Y-51734475D01*
X81972361Y-51669157D01*
X81983437Y-51425599D01*
X81940631Y-51186079D01*
X81846407Y-50957961D01*
X81703227Y-50748605D01*
X81641498Y-50680605D01*
X81460014Y-50532865D01*
X81246560Y-50422809D01*
X81010508Y-50350381D01*
X80761227Y-50315527D01*
X80508090Y-50318192D01*
X80260467Y-50358320D01*
X80027729Y-50435856D01*
X79819248Y-50550746D01*
X79654197Y-50692290D01*
X79526891Y-50859311D01*
X79454349Y-51031280D01*
X79434893Y-51212473D01*
X79436893Y-51246315D01*
X79475716Y-51432824D01*
X79557469Y-51583514D01*
X79680798Y-51696692D01*
X79844347Y-51770664D01*
X79860428Y-51775188D01*
X79964384Y-51796518D01*
X80027677Y-51787361D01*
X80058359Y-51740571D01*
X80064477Y-51649000D01*
X80061725Y-51596429D01*
X80070136Y-51429834D01*
X80123765Y-51290701D01*
X80227000Y-51170109D01*
X80299371Y-51113430D01*
X80448222Y-51040941D01*
X80612857Y-51013974D01*
X80780349Y-51030161D01*
X80937770Y-51087133D01*
X81072191Y-51182521D01*
X81143888Y-51268159D01*
X81187780Y-51342730D01*
X81211831Y-51413129D01*
X81221522Y-51501609D01*
X81222687Y-51588162D01*
X81217242Y-51693379D01*
X81199738Y-51794941D01*
X81167006Y-51897461D01*
X81115879Y-52005551D01*
X81043188Y-52123825D01*
X80945763Y-52256896D01*
X80820436Y-52409378D01*
X80664039Y-52585884D01*
X80473403Y-52791027D01*
X80245359Y-53029420D01*
X80201877Y-53074376D01*
X80054942Y-53226856D01*
X79915572Y-53372898D01*
X79790282Y-53505567D01*
X79685586Y-53617926D01*
X79607999Y-53703041D01*
X79566928Y-53750377D01*
X79491333Y-53855814D01*
X79420942Y-53975971D01*
X79363674Y-54094900D01*
X79327444Y-54196652D01*
X79318832Y-54250167D01*
X79318556Y-54313667D01*
X79211195Y-54313667D01*
X79207985Y-54275643D01*
X79228952Y-54164377D01*
X79247619Y-54097977D01*
X79280062Y-54007147D01*
X79326123Y-53912649D01*
X79389671Y-53809497D01*
X79474573Y-53692708D01*
X79584696Y-53557299D01*
X79723907Y-53398285D01*
X79896073Y-53210682D01*
X80105062Y-52989507D01*
X80119390Y-52974502D01*
X80343490Y-52738487D01*
X80530752Y-52537431D01*
X80684583Y-52366715D01*
X80808387Y-52221721D01*
X80905571Y-52097828D01*
X80979539Y-51990418D01*
X81033698Y-51894870D01*
X81071452Y-51806567D01*
X81096208Y-51720887D01*
X81111370Y-51633213D01*
X81112016Y-51628058D01*
X81111469Y-51500080D01*
X81071748Y-51411005D01*
X80990643Y-51357081D01*
X80944957Y-51344269D01*
X80806048Y-51338388D01*
X80672720Y-51373126D01*
X80553547Y-51440521D01*
X80457103Y-51532606D01*
X80391963Y-51641417D01*
X80366702Y-51758990D01*
X80384745Y-51864648D01*
X80400259Y-51967851D01*
X80367057Y-52049188D01*
X80291376Y-52099680D01*
X80212998Y-52111902D01*
X80081833Y-52100670D01*
X79958873Y-52061507D01*
X79831491Y-51988489D01*
X79687061Y-51875698D01*
X79660837Y-51852960D01*
X79517735Y-51717645D01*
X79418422Y-51596207D01*
X79356837Y-51476040D01*
X79326924Y-51344539D01*
X79322622Y-51189098D01*
X79324365Y-51152930D01*
X79362062Y-50929026D01*
X79447645Y-50734879D01*
X79581351Y-50569989D01*
X79613990Y-50540389D01*
X79817575Y-50399828D01*
X80055254Y-50294967D01*
X80316484Y-50226957D01*
X80590724Y-50196950D01*
X80867432Y-50206096D01*
G37*
X80867432Y-50206096D02*
X81136066Y-50255545D01*
X81386086Y-50346449D01*
X81386915Y-50346841D01*
X81487922Y-50409317D01*
X81610363Y-50507686D01*
X81743537Y-50631442D01*
X81876738Y-50770077D01*
X81999265Y-50913084D01*
X82095145Y-51042111D01*
X82220739Y-51272722D01*
X82292625Y-51514220D01*
X82310680Y-51767082D01*
X82274784Y-52031779D01*
X82184814Y-52308788D01*
X82040648Y-52598581D01*
X81842164Y-52901633D01*
X81589239Y-53218419D01*
X81513080Y-53304723D01*
X81316354Y-53523445D01*
X82103369Y-53523445D01*
X82220851Y-53635203D01*
X82338334Y-53746962D01*
X82338334Y-54624112D01*
X79445556Y-54622700D01*
X79325612Y-54509498D01*
X79253241Y-54431985D01*
X79215057Y-54359440D01*
X79211195Y-54313667D01*
X79318556Y-54313667D01*
X82027889Y-54313667D01*
X82027889Y-53637320D01*
X81331928Y-53629771D01*
X80635967Y-53622223D01*
X80993650Y-53244440D01*
X81239518Y-52976826D01*
X81443349Y-52736389D01*
X81608824Y-52517204D01*
X81739626Y-52313345D01*
X81839435Y-52118888D01*
X81911933Y-51927907D01*
X81960802Y-51734475D01*
X81972361Y-51669157D01*
X81983437Y-51425599D01*
X81940631Y-51186079D01*
X81846407Y-50957961D01*
X81703227Y-50748605D01*
X81641498Y-50680605D01*
X81460014Y-50532865D01*
X81246560Y-50422809D01*
X81010508Y-50350381D01*
X80761227Y-50315527D01*
X80508090Y-50318192D01*
X80260467Y-50358320D01*
X80027729Y-50435856D01*
X79819248Y-50550746D01*
X79654197Y-50692290D01*
X79526891Y-50859311D01*
X79454349Y-51031280D01*
X79434893Y-51212473D01*
X79436893Y-51246315D01*
X79475716Y-51432824D01*
X79557469Y-51583514D01*
X79680798Y-51696692D01*
X79844347Y-51770664D01*
X79860428Y-51775188D01*
X79964384Y-51796518D01*
X80027677Y-51787361D01*
X80058359Y-51740571D01*
X80064477Y-51649000D01*
X80061725Y-51596429D01*
X80070136Y-51429834D01*
X80123765Y-51290701D01*
X80227000Y-51170109D01*
X80299371Y-51113430D01*
X80448222Y-51040941D01*
X80612857Y-51013974D01*
X80780349Y-51030161D01*
X80937770Y-51087133D01*
X81072191Y-51182521D01*
X81143888Y-51268159D01*
X81187780Y-51342730D01*
X81211831Y-51413129D01*
X81221522Y-51501609D01*
X81222687Y-51588162D01*
X81217242Y-51693379D01*
X81199738Y-51794941D01*
X81167006Y-51897461D01*
X81115879Y-52005551D01*
X81043188Y-52123825D01*
X80945763Y-52256896D01*
X80820436Y-52409378D01*
X80664039Y-52585884D01*
X80473403Y-52791027D01*
X80245359Y-53029420D01*
X80201877Y-53074376D01*
X80054942Y-53226856D01*
X79915572Y-53372898D01*
X79790282Y-53505567D01*
X79685586Y-53617926D01*
X79607999Y-53703041D01*
X79566928Y-53750377D01*
X79491333Y-53855814D01*
X79420942Y-53975971D01*
X79363674Y-54094900D01*
X79327444Y-54196652D01*
X79318832Y-54250167D01*
X79318556Y-54313667D01*
X79211195Y-54313667D01*
X79207985Y-54275643D01*
X79228952Y-54164377D01*
X79247619Y-54097977D01*
X79280062Y-54007147D01*
X79326123Y-53912649D01*
X79389671Y-53809497D01*
X79474573Y-53692708D01*
X79584696Y-53557299D01*
X79723907Y-53398285D01*
X79896073Y-53210682D01*
X80105062Y-52989507D01*
X80119390Y-52974502D01*
X80343490Y-52738487D01*
X80530752Y-52537431D01*
X80684583Y-52366715D01*
X80808387Y-52221721D01*
X80905571Y-52097828D01*
X80979539Y-51990418D01*
X81033698Y-51894870D01*
X81071452Y-51806567D01*
X81096208Y-51720887D01*
X81111370Y-51633213D01*
X81112016Y-51628058D01*
X81111469Y-51500080D01*
X81071748Y-51411005D01*
X80990643Y-51357081D01*
X80944957Y-51344269D01*
X80806048Y-51338388D01*
X80672720Y-51373126D01*
X80553547Y-51440521D01*
X80457103Y-51532606D01*
X80391963Y-51641417D01*
X80366702Y-51758990D01*
X80384745Y-51864648D01*
X80400259Y-51967851D01*
X80367057Y-52049188D01*
X80291376Y-52099680D01*
X80212998Y-52111902D01*
X80081833Y-52100670D01*
X79958873Y-52061507D01*
X79831491Y-51988489D01*
X79687061Y-51875698D01*
X79660837Y-51852960D01*
X79517735Y-51717645D01*
X79418422Y-51596207D01*
X79356837Y-51476040D01*
X79326924Y-51344539D01*
X79322622Y-51189098D01*
X79324365Y-51152930D01*
X79362062Y-50929026D01*
X79447645Y-50734879D01*
X79581351Y-50569989D01*
X79613990Y-50540389D01*
X79817575Y-50399828D01*
X80055254Y-50294967D01*
X80316484Y-50226957D01*
X80590724Y-50196950D01*
X80867432Y-50206096D01*
G36*
X80266805Y-46641539D02*
G01*
X80404741Y-46649031D01*
X80507458Y-46661754D01*
X80596183Y-46684677D01*
X80692140Y-46722766D01*
X80772312Y-46759846D01*
X80961075Y-46871778D01*
X81151488Y-47024272D01*
X81329782Y-47203595D01*
X81482190Y-47396012D01*
X81588140Y-47573676D01*
X81686020Y-47831516D01*
X81732770Y-48094581D01*
X81731045Y-48356443D01*
X81683504Y-48610670D01*
X81592801Y-48850832D01*
X81461595Y-49070500D01*
X81292541Y-49263244D01*
X81088297Y-49422632D01*
X80851518Y-49542235D01*
X80761972Y-49573346D01*
X80614633Y-49604950D01*
X80435099Y-49622795D01*
X80244747Y-49626503D01*
X80064955Y-49615695D01*
X79917101Y-49589994D01*
X79911223Y-49588393D01*
X79737345Y-49527168D01*
X79573304Y-49440144D01*
X79407395Y-49319791D01*
X79227915Y-49158581D01*
X79198646Y-49129963D01*
X79011215Y-48910095D01*
X78869208Y-48668242D01*
X78775542Y-48411748D01*
X78733133Y-48147958D01*
X78734964Y-48001751D01*
X78896440Y-48001751D01*
X78905100Y-48222095D01*
X78943459Y-48440929D01*
X79010557Y-48642387D01*
X79037598Y-48699924D01*
X79165483Y-48891121D01*
X79337560Y-49058185D01*
X79544720Y-49195551D01*
X79777853Y-49297657D01*
X80027850Y-49358941D01*
X80137000Y-49371266D01*
X80185650Y-49368698D01*
X80270631Y-49358947D01*
X80362778Y-49345746D01*
X80590623Y-49285995D01*
X80811640Y-49183322D01*
X81007418Y-49047285D01*
X81092977Y-48966701D01*
X81252793Y-48759363D01*
X81363865Y-48532234D01*
X81427025Y-48292509D01*
X81443104Y-48047384D01*
X81412935Y-47804054D01*
X81337349Y-47569712D01*
X81217178Y-47351555D01*
X81053254Y-47156777D01*
X80866251Y-47005571D01*
X80635314Y-46884037D01*
X80388381Y-46814189D01*
X80132230Y-46796069D01*
X79873638Y-46829716D01*
X79619384Y-46915171D01*
X79461922Y-46997158D01*
X79332667Y-47074608D01*
X79530223Y-47090483D01*
X79641174Y-47104185D01*
X79738475Y-47124518D01*
X79798334Y-47145868D01*
X79865129Y-47167662D01*
X79971253Y-47177741D01*
X80122889Y-47176950D01*
X80247862Y-47174228D01*
X80336225Y-47178606D01*
X80407720Y-47193981D01*
X80482092Y-47224249D01*
X80559463Y-47263119D01*
X80745583Y-47388655D01*
X80887226Y-47547937D01*
X80982822Y-47738043D01*
X81030805Y-47956048D01*
X81033904Y-48147828D01*
X80996957Y-48369131D01*
X80914502Y-48560567D01*
X80783144Y-48729854D01*
X80773479Y-48739629D01*
X80648671Y-48847284D01*
X80520335Y-48917708D01*
X80371147Y-48958026D01*
X80202158Y-48974582D01*
X80076086Y-48977768D01*
X79984313Y-48971091D01*
X79905068Y-48951172D01*
X79816983Y-48914819D01*
X79650753Y-48814498D01*
X79504033Y-48680136D01*
X79392685Y-48527197D01*
X79366672Y-48475877D01*
X79327688Y-48350824D01*
X79324838Y-48330073D01*
X79594599Y-48330073D01*
X79621682Y-48470687D01*
X79675067Y-48593776D01*
X79753145Y-48683468D01*
X79761096Y-48689200D01*
X79942034Y-48783516D01*
X80129369Y-48821773D01*
X80322384Y-48803892D01*
X80447445Y-48763412D01*
X80605909Y-48669263D01*
X80732803Y-48535373D01*
X80823588Y-48371553D01*
X80873730Y-48187610D01*
X80878692Y-47993354D01*
X80858014Y-47875609D01*
X80807141Y-47720427D01*
X80742076Y-47610292D01*
X80654738Y-47534138D01*
X80581864Y-47497483D01*
X80501240Y-47474051D01*
X80398805Y-47456968D01*
X80291851Y-47447479D01*
X80197673Y-47446829D01*
X80133563Y-47456263D01*
X80119091Y-47464170D01*
X80116543Y-47499729D01*
X80134429Y-47562192D01*
X80136940Y-47568409D01*
X80152447Y-47638934D01*
X80159549Y-47741584D01*
X80158725Y-47856898D01*
X80150458Y-47965411D01*
X80135229Y-48047662D01*
X80124432Y-48074059D01*
X80094132Y-48081087D01*
X80033734Y-48047570D01*
X79981584Y-48007351D01*
X79877944Y-47935593D01*
X79794899Y-47910839D01*
X79723883Y-47931765D01*
X79687277Y-47961835D01*
X79625785Y-48059773D01*
X79595430Y-48187810D01*
X79594599Y-48330073D01*
X79324838Y-48330073D01*
X79307354Y-48202822D01*
X79306030Y-48051551D01*
X79324079Y-47916689D01*
X79354805Y-47829877D01*
X79442981Y-47721580D01*
X79560862Y-47656462D01*
X79697709Y-47638328D01*
X79823673Y-47663677D01*
X79868434Y-47675841D01*
X79882205Y-47658798D01*
X79873779Y-47600086D01*
X79872628Y-47594306D01*
X79824427Y-47476656D01*
X79739892Y-47391289D01*
X79628794Y-47337927D01*
X79500904Y-47316290D01*
X79365993Y-47326100D01*
X79233833Y-47367078D01*
X79114195Y-47438945D01*
X79016850Y-47541423D01*
X78972073Y-47619996D01*
X78918444Y-47795763D01*
X78896440Y-48001751D01*
X78734964Y-48001751D01*
X78735441Y-47963667D01*
X78772543Y-47724579D01*
X78838405Y-47529423D01*
X78932064Y-47380983D01*
X78939506Y-47372558D01*
X78995073Y-47300143D01*
X79021573Y-47242167D01*
X79021213Y-47223323D01*
X79032841Y-47182450D01*
X79081727Y-47118852D01*
X79158238Y-47041220D01*
X79252739Y-46958248D01*
X79355596Y-46878627D01*
X79457175Y-46811050D01*
X79511628Y-46780840D01*
X79691673Y-46704872D01*
X79877342Y-46658960D01*
X80085572Y-46639978D01*
X80266805Y-46641539D01*
G37*
X80266805Y-46641539D02*
X80404741Y-46649031D01*
X80507458Y-46661754D01*
X80596183Y-46684677D01*
X80692140Y-46722766D01*
X80772312Y-46759846D01*
X80961075Y-46871778D01*
X81151488Y-47024272D01*
X81329782Y-47203595D01*
X81482190Y-47396012D01*
X81588140Y-47573676D01*
X81686020Y-47831516D01*
X81732770Y-48094581D01*
X81731045Y-48356443D01*
X81683504Y-48610670D01*
X81592801Y-48850832D01*
X81461595Y-49070500D01*
X81292541Y-49263244D01*
X81088297Y-49422632D01*
X80851518Y-49542235D01*
X80761972Y-49573346D01*
X80614633Y-49604950D01*
X80435099Y-49622795D01*
X80244747Y-49626503D01*
X80064955Y-49615695D01*
X79917101Y-49589994D01*
X79911223Y-49588393D01*
X79737345Y-49527168D01*
X79573304Y-49440144D01*
X79407395Y-49319791D01*
X79227915Y-49158581D01*
X79198646Y-49129963D01*
X79011215Y-48910095D01*
X78869208Y-48668242D01*
X78775542Y-48411748D01*
X78733133Y-48147958D01*
X78734964Y-48001751D01*
X78896440Y-48001751D01*
X78905100Y-48222095D01*
X78943459Y-48440929D01*
X79010557Y-48642387D01*
X79037598Y-48699924D01*
X79165483Y-48891121D01*
X79337560Y-49058185D01*
X79544720Y-49195551D01*
X79777853Y-49297657D01*
X80027850Y-49358941D01*
X80137000Y-49371266D01*
X80185650Y-49368698D01*
X80270631Y-49358947D01*
X80362778Y-49345746D01*
X80590623Y-49285995D01*
X80811640Y-49183322D01*
X81007418Y-49047285D01*
X81092977Y-48966701D01*
X81252793Y-48759363D01*
X81363865Y-48532234D01*
X81427025Y-48292509D01*
X81443104Y-48047384D01*
X81412935Y-47804054D01*
X81337349Y-47569712D01*
X81217178Y-47351555D01*
X81053254Y-47156777D01*
X80866251Y-47005571D01*
X80635314Y-46884037D01*
X80388381Y-46814189D01*
X80132230Y-46796069D01*
X79873638Y-46829716D01*
X79619384Y-46915171D01*
X79461922Y-46997158D01*
X79332667Y-47074608D01*
X79530223Y-47090483D01*
X79641174Y-47104185D01*
X79738475Y-47124518D01*
X79798334Y-47145868D01*
X79865129Y-47167662D01*
X79971253Y-47177741D01*
X80122889Y-47176950D01*
X80247862Y-47174228D01*
X80336225Y-47178606D01*
X80407720Y-47193981D01*
X80482092Y-47224249D01*
X80559463Y-47263119D01*
X80745583Y-47388655D01*
X80887226Y-47547937D01*
X80982822Y-47738043D01*
X81030805Y-47956048D01*
X81033904Y-48147828D01*
X80996957Y-48369131D01*
X80914502Y-48560567D01*
X80783144Y-48729854D01*
X80773479Y-48739629D01*
X80648671Y-48847284D01*
X80520335Y-48917708D01*
X80371147Y-48958026D01*
X80202158Y-48974582D01*
X80076086Y-48977768D01*
X79984313Y-48971091D01*
X79905068Y-48951172D01*
X79816983Y-48914819D01*
X79650753Y-48814498D01*
X79504033Y-48680136D01*
X79392685Y-48527197D01*
X79366672Y-48475877D01*
X79327688Y-48350824D01*
X79324838Y-48330073D01*
X79594599Y-48330073D01*
X79621682Y-48470687D01*
X79675067Y-48593776D01*
X79753145Y-48683468D01*
X79761096Y-48689200D01*
X79942034Y-48783516D01*
X80129369Y-48821773D01*
X80322384Y-48803892D01*
X80447445Y-48763412D01*
X80605909Y-48669263D01*
X80732803Y-48535373D01*
X80823588Y-48371553D01*
X80873730Y-48187610D01*
X80878692Y-47993354D01*
X80858014Y-47875609D01*
X80807141Y-47720427D01*
X80742076Y-47610292D01*
X80654738Y-47534138D01*
X80581864Y-47497483D01*
X80501240Y-47474051D01*
X80398805Y-47456968D01*
X80291851Y-47447479D01*
X80197673Y-47446829D01*
X80133563Y-47456263D01*
X80119091Y-47464170D01*
X80116543Y-47499729D01*
X80134429Y-47562192D01*
X80136940Y-47568409D01*
X80152447Y-47638934D01*
X80159549Y-47741584D01*
X80158725Y-47856898D01*
X80150458Y-47965411D01*
X80135229Y-48047662D01*
X80124432Y-48074059D01*
X80094132Y-48081087D01*
X80033734Y-48047570D01*
X79981584Y-48007351D01*
X79877944Y-47935593D01*
X79794899Y-47910839D01*
X79723883Y-47931765D01*
X79687277Y-47961835D01*
X79625785Y-48059773D01*
X79595430Y-48187810D01*
X79594599Y-48330073D01*
X79324838Y-48330073D01*
X79307354Y-48202822D01*
X79306030Y-48051551D01*
X79324079Y-47916689D01*
X79354805Y-47829877D01*
X79442981Y-47721580D01*
X79560862Y-47656462D01*
X79697709Y-47638328D01*
X79823673Y-47663677D01*
X79868434Y-47675841D01*
X79882205Y-47658798D01*
X79873779Y-47600086D01*
X79872628Y-47594306D01*
X79824427Y-47476656D01*
X79739892Y-47391289D01*
X79628794Y-47337927D01*
X79500904Y-47316290D01*
X79365993Y-47326100D01*
X79233833Y-47367078D01*
X79114195Y-47438945D01*
X79016850Y-47541423D01*
X78972073Y-47619996D01*
X78918444Y-47795763D01*
X78896440Y-48001751D01*
X78734964Y-48001751D01*
X78735441Y-47963667D01*
X78772543Y-47724579D01*
X78838405Y-47529423D01*
X78932064Y-47380983D01*
X78939506Y-47372558D01*
X78995073Y-47300143D01*
X79021573Y-47242167D01*
X79021213Y-47223323D01*
X79032841Y-47182450D01*
X79081727Y-47118852D01*
X79158238Y-47041220D01*
X79252739Y-46958248D01*
X79355596Y-46878627D01*
X79457175Y-46811050D01*
X79511628Y-46780840D01*
X79691673Y-46704872D01*
X79877342Y-46658960D01*
X80085572Y-46639978D01*
X80266805Y-46641539D01*
G36*
X71107407Y-46665764D02*
G01*
X71242057Y-46667462D01*
X71341056Y-46671800D01*
X71414802Y-46680017D01*
X71473691Y-46693353D01*
X71528120Y-46713045D01*
X71588485Y-46740332D01*
X71599778Y-46745670D01*
X71744744Y-46835229D01*
X71892297Y-46962193D01*
X72026639Y-47110597D01*
X72131971Y-47264480D01*
X72153523Y-47305173D01*
X72183455Y-47372581D01*
X72203012Y-47438992D01*
X72214318Y-47518992D01*
X72219494Y-47627172D01*
X72220667Y-47766705D01*
X72219781Y-47909657D01*
X72215225Y-48011945D01*
X72204154Y-48089342D01*
X72183721Y-48157622D01*
X72151083Y-48232559D01*
X72128082Y-48279921D01*
X72023311Y-48451272D01*
X71896877Y-48592619D01*
X71758257Y-48717250D01*
X72090352Y-49137737D01*
X72422447Y-49558223D01*
X72002364Y-49566022D01*
X71840904Y-49569137D01*
X71718168Y-49567998D01*
X71623638Y-49557150D01*
X71546800Y-49531139D01*
X71477137Y-49484510D01*
X71404134Y-49411807D01*
X71317275Y-49307576D01*
X71206045Y-49166360D01*
X71188196Y-49143667D01*
X70950667Y-48842001D01*
X70942792Y-49207167D01*
X70934918Y-49572334D01*
X70590015Y-49571442D01*
X70443844Y-49570381D01*
X70342479Y-49566806D01*
X70274285Y-49558790D01*
X70227626Y-49544405D01*
X70190868Y-49521725D01*
X70166380Y-49501276D01*
X70087648Y-49432002D01*
X70095764Y-48205908D01*
X70233147Y-48205908D01*
X70233174Y-48446930D01*
X70234178Y-48670136D01*
X70236055Y-48869249D01*
X70238704Y-49037996D01*
X70242022Y-49170100D01*
X70245908Y-49259286D01*
X70250259Y-49299280D01*
X70250971Y-49300675D01*
X70287514Y-49309746D01*
X70363448Y-49313893D01*
X70455582Y-49312434D01*
X70640223Y-49304223D01*
X70650004Y-47933831D01*
X70936556Y-47933831D01*
X71028278Y-47960022D01*
X71149309Y-47974004D01*
X71250145Y-47938155D01*
X71282522Y-47913401D01*
X71332236Y-47842561D01*
X71368425Y-47742635D01*
X71383126Y-47640708D01*
X71378010Y-47588596D01*
X71352325Y-47537603D01*
X71299660Y-47505544D01*
X71210204Y-47488928D01*
X71084723Y-47484275D01*
X70936556Y-47483889D01*
X70936556Y-47933831D01*
X70650004Y-47933831D01*
X70655029Y-47229889D01*
X70952416Y-47229889D01*
X71125034Y-47234280D01*
X71252375Y-47249873D01*
X71345096Y-47280301D01*
X71413854Y-47329198D01*
X71469306Y-47400195D01*
X71473921Y-47407648D01*
X71511352Y-47507842D01*
X71528303Y-47636611D01*
X71524089Y-47769670D01*
X71498029Y-47882737D01*
X71487903Y-47905262D01*
X71437774Y-47977561D01*
X71368992Y-48050163D01*
X71358738Y-48059083D01*
X71303224Y-48099417D01*
X71244970Y-48121846D01*
X71164755Y-48131352D01*
X71073646Y-48133000D01*
X70966278Y-48129042D01*
X70875941Y-48118675D01*
X70823143Y-48104498D01*
X70786553Y-48092736D01*
X70765588Y-48116227D01*
X70750955Y-48176902D01*
X70744701Y-48260186D01*
X70754838Y-48327838D01*
X70756679Y-48332331D01*
X70781052Y-48370238D01*
X70834972Y-48444812D01*
X70912811Y-48548578D01*
X71008943Y-48674060D01*
X71117741Y-48813781D01*
X71148223Y-48852551D01*
X71515112Y-49318249D01*
X71747945Y-49318291D01*
X71854591Y-49316493D01*
X71935543Y-49311667D01*
X71977648Y-49304730D01*
X71980778Y-49302073D01*
X71964153Y-49275671D01*
X71918058Y-49212596D01*
X71848161Y-49120346D01*
X71760132Y-49006421D01*
X71678292Y-48901957D01*
X71581779Y-48776820D01*
X71501514Y-48667581D01*
X71442513Y-48581505D01*
X71409789Y-48525859D01*
X71406351Y-48507921D01*
X71502551Y-48459176D01*
X71610753Y-48379391D01*
X71711631Y-48284478D01*
X71779029Y-48201034D01*
X71875470Y-48014792D01*
X71932004Y-47815016D01*
X71949450Y-47611725D01*
X71928627Y-47414936D01*
X71870354Y-47234667D01*
X71775451Y-47080936D01*
X71679882Y-46988433D01*
X71597764Y-46929597D01*
X71521011Y-46886419D01*
X71438676Y-46856501D01*
X71339809Y-46837447D01*
X71213464Y-46826859D01*
X71048692Y-46822341D01*
X70917549Y-46821527D01*
X70744954Y-46821756D01*
X70619204Y-46823875D01*
X70530709Y-46828911D01*
X70469875Y-46837891D01*
X70427111Y-46851839D01*
X70392825Y-46871783D01*
X70383321Y-46878669D01*
X70347553Y-46907613D01*
X70318050Y-46939744D01*
X70294196Y-46980490D01*
X70275377Y-47035279D01*
X70260979Y-47109541D01*
X70250387Y-47208705D01*
X70242988Y-47338198D01*
X70238166Y-47503450D01*
X70235309Y-47709890D01*
X70233801Y-47962946D01*
X70233147Y-48205908D01*
X70095764Y-48205908D01*
X70095824Y-48196890D01*
X70097836Y-47900757D01*
X70099780Y-47655727D01*
X70101944Y-47456461D01*
X70104616Y-47297619D01*
X70108084Y-47173860D01*
X70112635Y-47079844D01*
X70118558Y-47010233D01*
X70126141Y-46959685D01*
X70135671Y-46922861D01*
X70147436Y-46894421D01*
X70161724Y-46869025D01*
X70167945Y-46858949D01*
X70212319Y-46795550D01*
X70261623Y-46747578D01*
X70324099Y-46712929D01*
X70407989Y-46689503D01*
X70521538Y-46675197D01*
X70672988Y-46667909D01*
X70870582Y-46665538D01*
X70926710Y-46665467D01*
X71107407Y-46665764D01*
G37*
X71107407Y-46665764D02*
X71242057Y-46667462D01*
X71341056Y-46671800D01*
X71414802Y-46680017D01*
X71473691Y-46693353D01*
X71528120Y-46713045D01*
X71588485Y-46740332D01*
X71599778Y-46745670D01*
X71744744Y-46835229D01*
X71892297Y-46962193D01*
X72026639Y-47110597D01*
X72131971Y-47264480D01*
X72153523Y-47305173D01*
X72183455Y-47372581D01*
X72203012Y-47438992D01*
X72214318Y-47518992D01*
X72219494Y-47627172D01*
X72220667Y-47766705D01*
X72219781Y-47909657D01*
X72215225Y-48011945D01*
X72204154Y-48089342D01*
X72183721Y-48157622D01*
X72151083Y-48232559D01*
X72128082Y-48279921D01*
X72023311Y-48451272D01*
X71896877Y-48592619D01*
X71758257Y-48717250D01*
X72090352Y-49137737D01*
X72422447Y-49558223D01*
X72002364Y-49566022D01*
X71840904Y-49569137D01*
X71718168Y-49567998D01*
X71623638Y-49557150D01*
X71546800Y-49531139D01*
X71477137Y-49484510D01*
X71404134Y-49411807D01*
X71317275Y-49307576D01*
X71206045Y-49166360D01*
X71188196Y-49143667D01*
X70950667Y-48842001D01*
X70942792Y-49207167D01*
X70934918Y-49572334D01*
X70590015Y-49571442D01*
X70443844Y-49570381D01*
X70342479Y-49566806D01*
X70274285Y-49558790D01*
X70227626Y-49544405D01*
X70190868Y-49521725D01*
X70166380Y-49501276D01*
X70087648Y-49432002D01*
X70095764Y-48205908D01*
X70233147Y-48205908D01*
X70233174Y-48446930D01*
X70234178Y-48670136D01*
X70236055Y-48869249D01*
X70238704Y-49037996D01*
X70242022Y-49170100D01*
X70245908Y-49259286D01*
X70250259Y-49299280D01*
X70250971Y-49300675D01*
X70287514Y-49309746D01*
X70363448Y-49313893D01*
X70455582Y-49312434D01*
X70640223Y-49304223D01*
X70650004Y-47933831D01*
X70936556Y-47933831D01*
X71028278Y-47960022D01*
X71149309Y-47974004D01*
X71250145Y-47938155D01*
X71282522Y-47913401D01*
X71332236Y-47842561D01*
X71368425Y-47742635D01*
X71383126Y-47640708D01*
X71378010Y-47588596D01*
X71352325Y-47537603D01*
X71299660Y-47505544D01*
X71210204Y-47488928D01*
X71084723Y-47484275D01*
X70936556Y-47483889D01*
X70936556Y-47933831D01*
X70650004Y-47933831D01*
X70655029Y-47229889D01*
X70952416Y-47229889D01*
X71125034Y-47234280D01*
X71252375Y-47249873D01*
X71345096Y-47280301D01*
X71413854Y-47329198D01*
X71469306Y-47400195D01*
X71473921Y-47407648D01*
X71511352Y-47507842D01*
X71528303Y-47636611D01*
X71524089Y-47769670D01*
X71498029Y-47882737D01*
X71487903Y-47905262D01*
X71437774Y-47977561D01*
X71368992Y-48050163D01*
X71358738Y-48059083D01*
X71303224Y-48099417D01*
X71244970Y-48121846D01*
X71164755Y-48131352D01*
X71073646Y-48133000D01*
X70966278Y-48129042D01*
X70875941Y-48118675D01*
X70823143Y-48104498D01*
X70786553Y-48092736D01*
X70765588Y-48116227D01*
X70750955Y-48176902D01*
X70744701Y-48260186D01*
X70754838Y-48327838D01*
X70756679Y-48332331D01*
X70781052Y-48370238D01*
X70834972Y-48444812D01*
X70912811Y-48548578D01*
X71008943Y-48674060D01*
X71117741Y-48813781D01*
X71148223Y-48852551D01*
X71515112Y-49318249D01*
X71747945Y-49318291D01*
X71854591Y-49316493D01*
X71935543Y-49311667D01*
X71977648Y-49304730D01*
X71980778Y-49302073D01*
X71964153Y-49275671D01*
X71918058Y-49212596D01*
X71848161Y-49120346D01*
X71760132Y-49006421D01*
X71678292Y-48901957D01*
X71581779Y-48776820D01*
X71501514Y-48667581D01*
X71442513Y-48581505D01*
X71409789Y-48525859D01*
X71406351Y-48507921D01*
X71502551Y-48459176D01*
X71610753Y-48379391D01*
X71711631Y-48284478D01*
X71779029Y-48201034D01*
X71875470Y-48014792D01*
X71932004Y-47815016D01*
X71949450Y-47611725D01*
X71928627Y-47414936D01*
X71870354Y-47234667D01*
X71775451Y-47080936D01*
X71679882Y-46988433D01*
X71597764Y-46929597D01*
X71521011Y-46886419D01*
X71438676Y-46856501D01*
X71339809Y-46837447D01*
X71213464Y-46826859D01*
X71048692Y-46822341D01*
X70917549Y-46821527D01*
X70744954Y-46821756D01*
X70619204Y-46823875D01*
X70530709Y-46828911D01*
X70469875Y-46837891D01*
X70427111Y-46851839D01*
X70392825Y-46871783D01*
X70383321Y-46878669D01*
X70347553Y-46907613D01*
X70318050Y-46939744D01*
X70294196Y-46980490D01*
X70275377Y-47035279D01*
X70260979Y-47109541D01*
X70250387Y-47208705D01*
X70242988Y-47338198D01*
X70238166Y-47503450D01*
X70235309Y-47709890D01*
X70233801Y-47962946D01*
X70233147Y-48205908D01*
X70095764Y-48205908D01*
X70095824Y-48196890D01*
X70097836Y-47900757D01*
X70099780Y-47655727D01*
X70101944Y-47456461D01*
X70104616Y-47297619D01*
X70108084Y-47173860D01*
X70112635Y-47079844D01*
X70118558Y-47010233D01*
X70126141Y-46959685D01*
X70135671Y-46922861D01*
X70147436Y-46894421D01*
X70161724Y-46869025D01*
X70167945Y-46858949D01*
X70212319Y-46795550D01*
X70261623Y-46747578D01*
X70324099Y-46712929D01*
X70407989Y-46689503D01*
X70521538Y-46675197D01*
X70672988Y-46667909D01*
X70870582Y-46665538D01*
X70926710Y-46665467D01*
X71107407Y-46665764D01*
G36*
X74159401Y-46741281D02*
G01*
X74193017Y-46775509D01*
X74215448Y-46809417D01*
X74228955Y-46854699D01*
X74235800Y-46923050D01*
X74238246Y-47026166D01*
X74238556Y-47150503D01*
X74238556Y-47483889D01*
X73250778Y-47483889D01*
X73250778Y-47709667D01*
X74086885Y-47709667D01*
X74166206Y-47792461D01*
X74212243Y-47846280D01*
X74232682Y-47896003D01*
X74233453Y-47964452D01*
X74226760Y-48025465D01*
X74183795Y-48198699D01*
X74105002Y-48346701D01*
X73997505Y-48456451D01*
X73987008Y-48463777D01*
X73939274Y-48492189D01*
X73888233Y-48510816D01*
X73820880Y-48521670D01*
X73724210Y-48526762D01*
X73585219Y-48528106D01*
X73571160Y-48528112D01*
X73250778Y-48528112D01*
X73250778Y-48753889D01*
X74086885Y-48753889D01*
X74162720Y-48833045D01*
X74195135Y-48869432D01*
X74216690Y-48906010D01*
X74229596Y-48954716D01*
X74236066Y-49027487D01*
X74238312Y-49136261D01*
X74238556Y-49242267D01*
X74238556Y-49572334D01*
X72559334Y-49570550D01*
X72404112Y-49433930D01*
X72404112Y-48626673D01*
X72548863Y-48626673D01*
X72549001Y-48829388D01*
X72549898Y-49002322D01*
X72551518Y-49139093D01*
X72553824Y-49233318D01*
X72556780Y-49278616D01*
X72557369Y-49281057D01*
X72571681Y-49293299D01*
X72607983Y-49302442D01*
X72672300Y-49308751D01*
X72770655Y-49312491D01*
X72909074Y-49313925D01*
X73093582Y-49313319D01*
X73257141Y-49311781D01*
X73942223Y-49304223D01*
X73942223Y-48909112D01*
X73455389Y-48901390D01*
X72968556Y-48893668D01*
X72968556Y-48274112D01*
X73286056Y-48272519D01*
X73425188Y-48268872D01*
X73553136Y-48260258D01*
X73653514Y-48248067D01*
X73701356Y-48237241D01*
X73795859Y-48180124D01*
X73873990Y-48089432D01*
X73920937Y-47985149D01*
X73928112Y-47931271D01*
X73928112Y-47850778D01*
X72968556Y-47850778D01*
X72968556Y-47231222D01*
X73455389Y-47223500D01*
X73942223Y-47215778D01*
X73942223Y-46820667D01*
X73376451Y-46820667D01*
X73187678Y-46819715D01*
X73030416Y-46819992D01*
X72901762Y-46826198D01*
X72798815Y-46843033D01*
X72718672Y-46875197D01*
X72658431Y-46927389D01*
X72615190Y-47004309D01*
X72586047Y-47110657D01*
X72568100Y-47251133D01*
X72558446Y-47430436D01*
X72554184Y-47653267D01*
X72552412Y-47924326D01*
X72551006Y-48157426D01*
X72549519Y-48400558D01*
X72548863Y-48626673D01*
X72404112Y-48626673D01*
X72404112Y-48239112D01*
X72404171Y-47948166D01*
X72404528Y-47708121D01*
X72405448Y-47513433D01*
X72407198Y-47358557D01*
X72410044Y-47237951D01*
X72414254Y-47146070D01*
X72420094Y-47077370D01*
X72427830Y-47026308D01*
X72437729Y-46987339D01*
X72450057Y-46954921D01*
X72465081Y-46923508D01*
X72467612Y-46918485D01*
X72560205Y-46791690D01*
X72644000Y-46729525D01*
X72682457Y-46709422D01*
X72721936Y-46694096D01*
X72770388Y-46682895D01*
X72835764Y-46675166D01*
X72926013Y-46670255D01*
X73049087Y-46667510D01*
X73212935Y-46666277D01*
X73418567Y-46665909D01*
X74080245Y-46665445D01*
X74159401Y-46741281D01*
G37*
X74159401Y-46741281D02*
X74193017Y-46775509D01*
X74215448Y-46809417D01*
X74228955Y-46854699D01*
X74235800Y-46923050D01*
X74238246Y-47026166D01*
X74238556Y-47150503D01*
X74238556Y-47483889D01*
X73250778Y-47483889D01*
X73250778Y-47709667D01*
X74086885Y-47709667D01*
X74166206Y-47792461D01*
X74212243Y-47846280D01*
X74232682Y-47896003D01*
X74233453Y-47964452D01*
X74226760Y-48025465D01*
X74183795Y-48198699D01*
X74105002Y-48346701D01*
X73997505Y-48456451D01*
X73987008Y-48463777D01*
X73939274Y-48492189D01*
X73888233Y-48510816D01*
X73820880Y-48521670D01*
X73724210Y-48526762D01*
X73585219Y-48528106D01*
X73571160Y-48528112D01*
X73250778Y-48528112D01*
X73250778Y-48753889D01*
X74086885Y-48753889D01*
X74162720Y-48833045D01*
X74195135Y-48869432D01*
X74216690Y-48906010D01*
X74229596Y-48954716D01*
X74236066Y-49027487D01*
X74238312Y-49136261D01*
X74238556Y-49242267D01*
X74238556Y-49572334D01*
X72559334Y-49570550D01*
X72404112Y-49433930D01*
X72404112Y-48626673D01*
X72548863Y-48626673D01*
X72549001Y-48829388D01*
X72549898Y-49002322D01*
X72551518Y-49139093D01*
X72553824Y-49233318D01*
X72556780Y-49278616D01*
X72557369Y-49281057D01*
X72571681Y-49293299D01*
X72607983Y-49302442D01*
X72672300Y-49308751D01*
X72770655Y-49312491D01*
X72909074Y-49313925D01*
X73093582Y-49313319D01*
X73257141Y-49311781D01*
X73942223Y-49304223D01*
X73942223Y-48909112D01*
X73455389Y-48901390D01*
X72968556Y-48893668D01*
X72968556Y-48274112D01*
X73286056Y-48272519D01*
X73425188Y-48268872D01*
X73553136Y-48260258D01*
X73653514Y-48248067D01*
X73701356Y-48237241D01*
X73795859Y-48180124D01*
X73873990Y-48089432D01*
X73920937Y-47985149D01*
X73928112Y-47931271D01*
X73928112Y-47850778D01*
X72968556Y-47850778D01*
X72968556Y-47231222D01*
X73455389Y-47223500D01*
X73942223Y-47215778D01*
X73942223Y-46820667D01*
X73376451Y-46820667D01*
X73187678Y-46819715D01*
X73030416Y-46819992D01*
X72901762Y-46826198D01*
X72798815Y-46843033D01*
X72718672Y-46875197D01*
X72658431Y-46927389D01*
X72615190Y-47004309D01*
X72586047Y-47110657D01*
X72568100Y-47251133D01*
X72558446Y-47430436D01*
X72554184Y-47653267D01*
X72552412Y-47924326D01*
X72551006Y-48157426D01*
X72549519Y-48400558D01*
X72548863Y-48626673D01*
X72404112Y-48626673D01*
X72404112Y-48239112D01*
X72404171Y-47948166D01*
X72404528Y-47708121D01*
X72405448Y-47513433D01*
X72407198Y-47358557D01*
X72410044Y-47237951D01*
X72414254Y-47146070D01*
X72420094Y-47077370D01*
X72427830Y-47026308D01*
X72437729Y-46987339D01*
X72450057Y-46954921D01*
X72465081Y-46923508D01*
X72467612Y-46918485D01*
X72560205Y-46791690D01*
X72644000Y-46729525D01*
X72682457Y-46709422D01*
X72721936Y-46694096D01*
X72770388Y-46682895D01*
X72835764Y-46675166D01*
X72926013Y-46670255D01*
X73049087Y-46667510D01*
X73212935Y-46666277D01*
X73418567Y-46665909D01*
X74080245Y-46665445D01*
X74159401Y-46741281D01*
G36*
X76368070Y-46748793D02*
G01*
X76416593Y-46806473D01*
X76436003Y-46859911D01*
X76433571Y-46934812D01*
X76429554Y-46966159D01*
X76390409Y-47126756D01*
X76323479Y-47269954D01*
X76237157Y-47379336D01*
X76204636Y-47406081D01*
X76108799Y-47453210D01*
X75976744Y-47479674D01*
X75931891Y-47483889D01*
X75748445Y-47498000D01*
X75741042Y-48535167D01*
X75733638Y-49572334D01*
X75388264Y-49571442D01*
X75241823Y-49570358D01*
X75140234Y-49566740D01*
X75071907Y-49558699D01*
X75025253Y-49544345D01*
X74988683Y-49521791D01*
X74965651Y-49502560D01*
X74888412Y-49434571D01*
X74880984Y-48466286D01*
X74873556Y-47498000D01*
X74674960Y-47483889D01*
X74542928Y-47468213D01*
X74451672Y-47440823D01*
X74399793Y-47409272D01*
X74367623Y-47381968D01*
X74346022Y-47352990D01*
X74332887Y-47311283D01*
X74326112Y-47245790D01*
X74323592Y-47145457D01*
X74323223Y-47007105D01*
X74323223Y-46820667D01*
X74478445Y-46820667D01*
X74478445Y-47215778D01*
X74753612Y-47223856D01*
X75028778Y-47231933D01*
X75028778Y-48256319D01*
X75029279Y-48491424D01*
X75030706Y-48708549D01*
X75032941Y-48901269D01*
X75035870Y-49063158D01*
X75039376Y-49187789D01*
X75043343Y-49268737D01*
X75047593Y-49299519D01*
X75083409Y-49308983D01*
X75159268Y-49315741D01*
X75258780Y-49318334D01*
X75452112Y-49318334D01*
X75452112Y-47237142D01*
X75671165Y-47224461D01*
X75826360Y-47207625D01*
X75934857Y-47178416D01*
X75965067Y-47162737D01*
X76038342Y-47090452D01*
X76097525Y-46990082D01*
X76128016Y-46888040D01*
X76129445Y-46865364D01*
X76128385Y-46848235D01*
X76121189Y-46834804D01*
X76101831Y-46824692D01*
X76064287Y-46817518D01*
X76002531Y-46812901D01*
X75910538Y-46810459D01*
X75782284Y-46809813D01*
X75611741Y-46810581D01*
X75392887Y-46812383D01*
X75303945Y-46813185D01*
X74478445Y-46820667D01*
X74323223Y-46820667D01*
X74323223Y-46665445D01*
X76288218Y-46665445D01*
X76368070Y-46748793D01*
G37*
X76368070Y-46748793D02*
X76416593Y-46806473D01*
X76436003Y-46859911D01*
X76433571Y-46934812D01*
X76429554Y-46966159D01*
X76390409Y-47126756D01*
X76323479Y-47269954D01*
X76237157Y-47379336D01*
X76204636Y-47406081D01*
X76108799Y-47453210D01*
X75976744Y-47479674D01*
X75931891Y-47483889D01*
X75748445Y-47498000D01*
X75741042Y-48535167D01*
X75733638Y-49572334D01*
X75388264Y-49571442D01*
X75241823Y-49570358D01*
X75140234Y-49566740D01*
X75071907Y-49558699D01*
X75025253Y-49544345D01*
X74988683Y-49521791D01*
X74965651Y-49502560D01*
X74888412Y-49434571D01*
X74880984Y-48466286D01*
X74873556Y-47498000D01*
X74674960Y-47483889D01*
X74542928Y-47468213D01*
X74451672Y-47440823D01*
X74399793Y-47409272D01*
X74367623Y-47381968D01*
X74346022Y-47352990D01*
X74332887Y-47311283D01*
X74326112Y-47245790D01*
X74323592Y-47145457D01*
X74323223Y-47007105D01*
X74323223Y-46820667D01*
X74478445Y-46820667D01*
X74478445Y-47215778D01*
X74753612Y-47223856D01*
X75028778Y-47231933D01*
X75028778Y-48256319D01*
X75029279Y-48491424D01*
X75030706Y-48708549D01*
X75032941Y-48901269D01*
X75035870Y-49063158D01*
X75039376Y-49187789D01*
X75043343Y-49268737D01*
X75047593Y-49299519D01*
X75083409Y-49308983D01*
X75159268Y-49315741D01*
X75258780Y-49318334D01*
X75452112Y-49318334D01*
X75452112Y-47237142D01*
X75671165Y-47224461D01*
X75826360Y-47207625D01*
X75934857Y-47178416D01*
X75965067Y-47162737D01*
X76038342Y-47090452D01*
X76097525Y-46990082D01*
X76128016Y-46888040D01*
X76129445Y-46865364D01*
X76128385Y-46848235D01*
X76121189Y-46834804D01*
X76101831Y-46824692D01*
X76064287Y-46817518D01*
X76002531Y-46812901D01*
X75910538Y-46810459D01*
X75782284Y-46809813D01*
X75611741Y-46810581D01*
X75392887Y-46812383D01*
X75303945Y-46813185D01*
X74478445Y-46820667D01*
X74323223Y-46820667D01*
X74323223Y-46665445D01*
X76288218Y-46665445D01*
X76368070Y-46748793D01*
G36*
X77513852Y-46665764D02*
G01*
X77648501Y-46667462D01*
X77747501Y-46671800D01*
X77821246Y-46680017D01*
X77880135Y-46693353D01*
X77934564Y-46713045D01*
X77994930Y-46740332D01*
X78006223Y-46745670D01*
X78151189Y-46835229D01*
X78298742Y-46962193D01*
X78433083Y-47110597D01*
X78538415Y-47264480D01*
X78559967Y-47305173D01*
X78589899Y-47372581D01*
X78609457Y-47438992D01*
X78620762Y-47518992D01*
X78625938Y-47627172D01*
X78627112Y-47766705D01*
X78626225Y-47909657D01*
X78621669Y-48011945D01*
X78610598Y-48089342D01*
X78590166Y-48157622D01*
X78557527Y-48232559D01*
X78534526Y-48279921D01*
X78429756Y-48451272D01*
X78303321Y-48592619D01*
X78164701Y-48717250D01*
X78496796Y-49137737D01*
X78828891Y-49558223D01*
X78408808Y-49566022D01*
X78247349Y-49569137D01*
X78124612Y-49567998D01*
X78030082Y-49557150D01*
X77953244Y-49531139D01*
X77883581Y-49484510D01*
X77810578Y-49411807D01*
X77723720Y-49307576D01*
X77612489Y-49166360D01*
X77594640Y-49143667D01*
X77357112Y-48842001D01*
X77349237Y-49207167D01*
X77341362Y-49572334D01*
X76996459Y-49571442D01*
X76850288Y-49570381D01*
X76748923Y-49566806D01*
X76680729Y-49558790D01*
X76634071Y-49544405D01*
X76597312Y-49521725D01*
X76572824Y-49501276D01*
X76494092Y-49432002D01*
X76502209Y-48205908D01*
X76639592Y-48205908D01*
X76639619Y-48446930D01*
X76640622Y-48670136D01*
X76642499Y-48869249D01*
X76645148Y-49037996D01*
X76648467Y-49170100D01*
X76652352Y-49259286D01*
X76656704Y-49299280D01*
X76657416Y-49300675D01*
X76693959Y-49309746D01*
X76769892Y-49313893D01*
X76862027Y-49312434D01*
X77046667Y-49304223D01*
X77054070Y-48267056D01*
X77056448Y-47933831D01*
X77343000Y-47933831D01*
X77434723Y-47960022D01*
X77555753Y-47974004D01*
X77656589Y-47938155D01*
X77688966Y-47913401D01*
X77738680Y-47842561D01*
X77774869Y-47742635D01*
X77789570Y-47640708D01*
X77784455Y-47588596D01*
X77758769Y-47537603D01*
X77706105Y-47505544D01*
X77616648Y-47488928D01*
X77491167Y-47484275D01*
X77343000Y-47483889D01*
X77343000Y-47933831D01*
X77056448Y-47933831D01*
X77061474Y-47229889D01*
X77358861Y-47229889D01*
X77531479Y-47234280D01*
X77658820Y-47249873D01*
X77751540Y-47280301D01*
X77820298Y-47329198D01*
X77875751Y-47400195D01*
X77880365Y-47407648D01*
X77917797Y-47507842D01*
X77934747Y-47636611D01*
X77930533Y-47769670D01*
X77904473Y-47882737D01*
X77894347Y-47905262D01*
X77844218Y-47977561D01*
X77775436Y-48050163D01*
X77765182Y-48059083D01*
X77709669Y-48099417D01*
X77651414Y-48121846D01*
X77571199Y-48131352D01*
X77480091Y-48133000D01*
X77372722Y-48129042D01*
X77282385Y-48118675D01*
X77229588Y-48104498D01*
X77192997Y-48092736D01*
X77172032Y-48116227D01*
X77157400Y-48176902D01*
X77151146Y-48260186D01*
X77161282Y-48327838D01*
X77163124Y-48332331D01*
X77187496Y-48370238D01*
X77241416Y-48444812D01*
X77319255Y-48548578D01*
X77415388Y-48674060D01*
X77524185Y-48813781D01*
X77554667Y-48852551D01*
X77921556Y-49318249D01*
X78154389Y-49318291D01*
X78261035Y-49316493D01*
X78341987Y-49311667D01*
X78384093Y-49304730D01*
X78387223Y-49302073D01*
X78370598Y-49275671D01*
X78324502Y-49212596D01*
X78254606Y-49120346D01*
X78166577Y-49006421D01*
X78084736Y-48901957D01*
X77988223Y-48776820D01*
X77907959Y-48667581D01*
X77848957Y-48581505D01*
X77816233Y-48525859D01*
X77812795Y-48507921D01*
X77908996Y-48459176D01*
X78017197Y-48379391D01*
X78118075Y-48284478D01*
X78185473Y-48201034D01*
X78281914Y-48014792D01*
X78338448Y-47815016D01*
X78355894Y-47611725D01*
X78335071Y-47414936D01*
X78276799Y-47234667D01*
X78181896Y-47080936D01*
X78086326Y-46988433D01*
X78004209Y-46929597D01*
X77927456Y-46886419D01*
X77845120Y-46856501D01*
X77746253Y-46837447D01*
X77619908Y-46826859D01*
X77455136Y-46822341D01*
X77323994Y-46821527D01*
X77151398Y-46821756D01*
X77025649Y-46823875D01*
X76937153Y-46828911D01*
X76876320Y-46837891D01*
X76833556Y-46851839D01*
X76799270Y-46871783D01*
X76789765Y-46878669D01*
X76753998Y-46907613D01*
X76724494Y-46939744D01*
X76700640Y-46980490D01*
X76681821Y-47035279D01*
X76667423Y-47109541D01*
X76656831Y-47208705D01*
X76649432Y-47338198D01*
X76644611Y-47503450D01*
X76641754Y-47709890D01*
X76640246Y-47962946D01*
X76639592Y-48205908D01*
X76502209Y-48205908D01*
X76502269Y-48196890D01*
X76504280Y-47900757D01*
X76506224Y-47655727D01*
X76508388Y-47456461D01*
X76511060Y-47297619D01*
X76514528Y-47173860D01*
X76519080Y-47079844D01*
X76525003Y-47010233D01*
X76532586Y-46959685D01*
X76542116Y-46922861D01*
X76553881Y-46894421D01*
X76568169Y-46869025D01*
X76574390Y-46858949D01*
X76618764Y-46795550D01*
X76668067Y-46747578D01*
X76730543Y-46712929D01*
X76814434Y-46689503D01*
X76927983Y-46675197D01*
X77079433Y-46667909D01*
X77277027Y-46665538D01*
X77333154Y-46665467D01*
X77513852Y-46665764D01*
G37*
X77513852Y-46665764D02*
X77648501Y-46667462D01*
X77747501Y-46671800D01*
X77821246Y-46680017D01*
X77880135Y-46693353D01*
X77934564Y-46713045D01*
X77994930Y-46740332D01*
X78006223Y-46745670D01*
X78151189Y-46835229D01*
X78298742Y-46962193D01*
X78433083Y-47110597D01*
X78538415Y-47264480D01*
X78559967Y-47305173D01*
X78589899Y-47372581D01*
X78609457Y-47438992D01*
X78620762Y-47518992D01*
X78625938Y-47627172D01*
X78627112Y-47766705D01*
X78626225Y-47909657D01*
X78621669Y-48011945D01*
X78610598Y-48089342D01*
X78590166Y-48157622D01*
X78557527Y-48232559D01*
X78534526Y-48279921D01*
X78429756Y-48451272D01*
X78303321Y-48592619D01*
X78164701Y-48717250D01*
X78496796Y-49137737D01*
X78828891Y-49558223D01*
X78408808Y-49566022D01*
X78247349Y-49569137D01*
X78124612Y-49567998D01*
X78030082Y-49557150D01*
X77953244Y-49531139D01*
X77883581Y-49484510D01*
X77810578Y-49411807D01*
X77723720Y-49307576D01*
X77612489Y-49166360D01*
X77594640Y-49143667D01*
X77357112Y-48842001D01*
X77349237Y-49207167D01*
X77341362Y-49572334D01*
X76996459Y-49571442D01*
X76850288Y-49570381D01*
X76748923Y-49566806D01*
X76680729Y-49558790D01*
X76634071Y-49544405D01*
X76597312Y-49521725D01*
X76572824Y-49501276D01*
X76494092Y-49432002D01*
X76502209Y-48205908D01*
X76639592Y-48205908D01*
X76639619Y-48446930D01*
X76640622Y-48670136D01*
X76642499Y-48869249D01*
X76645148Y-49037996D01*
X76648467Y-49170100D01*
X76652352Y-49259286D01*
X76656704Y-49299280D01*
X76657416Y-49300675D01*
X76693959Y-49309746D01*
X76769892Y-49313893D01*
X76862027Y-49312434D01*
X77046667Y-49304223D01*
X77054070Y-48267056D01*
X77056448Y-47933831D01*
X77343000Y-47933831D01*
X77434723Y-47960022D01*
X77555753Y-47974004D01*
X77656589Y-47938155D01*
X77688966Y-47913401D01*
X77738680Y-47842561D01*
X77774869Y-47742635D01*
X77789570Y-47640708D01*
X77784455Y-47588596D01*
X77758769Y-47537603D01*
X77706105Y-47505544D01*
X77616648Y-47488928D01*
X77491167Y-47484275D01*
X77343000Y-47483889D01*
X77343000Y-47933831D01*
X77056448Y-47933831D01*
X77061474Y-47229889D01*
X77358861Y-47229889D01*
X77531479Y-47234280D01*
X77658820Y-47249873D01*
X77751540Y-47280301D01*
X77820298Y-47329198D01*
X77875751Y-47400195D01*
X77880365Y-47407648D01*
X77917797Y-47507842D01*
X77934747Y-47636611D01*
X77930533Y-47769670D01*
X77904473Y-47882737D01*
X77894347Y-47905262D01*
X77844218Y-47977561D01*
X77775436Y-48050163D01*
X77765182Y-48059083D01*
X77709669Y-48099417D01*
X77651414Y-48121846D01*
X77571199Y-48131352D01*
X77480091Y-48133000D01*
X77372722Y-48129042D01*
X77282385Y-48118675D01*
X77229588Y-48104498D01*
X77192997Y-48092736D01*
X77172032Y-48116227D01*
X77157400Y-48176902D01*
X77151146Y-48260186D01*
X77161282Y-48327838D01*
X77163124Y-48332331D01*
X77187496Y-48370238D01*
X77241416Y-48444812D01*
X77319255Y-48548578D01*
X77415388Y-48674060D01*
X77524185Y-48813781D01*
X77554667Y-48852551D01*
X77921556Y-49318249D01*
X78154389Y-49318291D01*
X78261035Y-49316493D01*
X78341987Y-49311667D01*
X78384093Y-49304730D01*
X78387223Y-49302073D01*
X78370598Y-49275671D01*
X78324502Y-49212596D01*
X78254606Y-49120346D01*
X78166577Y-49006421D01*
X78084736Y-48901957D01*
X77988223Y-48776820D01*
X77907959Y-48667581D01*
X77848957Y-48581505D01*
X77816233Y-48525859D01*
X77812795Y-48507921D01*
X77908996Y-48459176D01*
X78017197Y-48379391D01*
X78118075Y-48284478D01*
X78185473Y-48201034D01*
X78281914Y-48014792D01*
X78338448Y-47815016D01*
X78355894Y-47611725D01*
X78335071Y-47414936D01*
X78276799Y-47234667D01*
X78181896Y-47080936D01*
X78086326Y-46988433D01*
X78004209Y-46929597D01*
X77927456Y-46886419D01*
X77845120Y-46856501D01*
X77746253Y-46837447D01*
X77619908Y-46826859D01*
X77455136Y-46822341D01*
X77323994Y-46821527D01*
X77151398Y-46821756D01*
X77025649Y-46823875D01*
X76937153Y-46828911D01*
X76876320Y-46837891D01*
X76833556Y-46851839D01*
X76799270Y-46871783D01*
X76789765Y-46878669D01*
X76753998Y-46907613D01*
X76724494Y-46939744D01*
X76700640Y-46980490D01*
X76681821Y-47035279D01*
X76667423Y-47109541D01*
X76656831Y-47208705D01*
X76649432Y-47338198D01*
X76644611Y-47503450D01*
X76641754Y-47709890D01*
X76640246Y-47962946D01*
X76639592Y-48205908D01*
X76502209Y-48205908D01*
X76502269Y-48196890D01*
X76504280Y-47900757D01*
X76506224Y-47655727D01*
X76508388Y-47456461D01*
X76511060Y-47297619D01*
X76514528Y-47173860D01*
X76519080Y-47079844D01*
X76525003Y-47010233D01*
X76532586Y-46959685D01*
X76542116Y-46922861D01*
X76553881Y-46894421D01*
X76568169Y-46869025D01*
X76574390Y-46858949D01*
X76618764Y-46795550D01*
X76668067Y-46747578D01*
X76730543Y-46712929D01*
X76814434Y-46689503D01*
X76927983Y-46675197D01*
X77079433Y-46667909D01*
X77277027Y-46665538D01*
X77333154Y-46665467D01*
X77513852Y-46665764D01*
G36*
X77438946Y-51038367D02*
G01*
X77574961Y-51116391D01*
X77689416Y-51242628D01*
X77778993Y-51413966D01*
X77810101Y-51504279D01*
X77851774Y-51690504D01*
X77880438Y-51916912D01*
X77895991Y-52168738D01*
X77898330Y-52431216D01*
X77887352Y-52689580D01*
X77862954Y-52929065D01*
X77825034Y-53134903D01*
X77821554Y-53148922D01*
X77750116Y-53359196D01*
X77655178Y-53523583D01*
X77538798Y-53639867D01*
X77403037Y-53705834D01*
X77289438Y-53720957D01*
X77184628Y-53709596D01*
X77084648Y-53681390D01*
X77062785Y-53671568D01*
X76939978Y-53584000D01*
X76840522Y-53456687D01*
X76762919Y-53286229D01*
X76705670Y-53069222D01*
X76667278Y-52802267D01*
X76663790Y-52765870D01*
X76659696Y-52696181D01*
X76982286Y-52696181D01*
X76983515Y-52742080D01*
X76995748Y-53004728D01*
X77015620Y-53214767D01*
X77043773Y-53375599D01*
X77080848Y-53490624D01*
X77127486Y-53563244D01*
X77140559Y-53575049D01*
X77212119Y-53601084D01*
X77309336Y-53599556D01*
X77410609Y-53573768D01*
X77494338Y-53527026D01*
X77502726Y-53519658D01*
X77595966Y-53404001D01*
X77669995Y-53247291D01*
X77725844Y-53046025D01*
X77764543Y-52796697D01*
X77783642Y-52563889D01*
X77788628Y-52335171D01*
X77779687Y-52096262D01*
X77758324Y-51864467D01*
X77726046Y-51657087D01*
X77692640Y-51517905D01*
X77643965Y-51405344D01*
X77575839Y-51342996D01*
X77481004Y-51325964D01*
X77419153Y-51333311D01*
X77293894Y-51382048D01*
X77190079Y-51477842D01*
X77107411Y-51621649D01*
X77045594Y-51814429D01*
X77004331Y-52057139D01*
X76983327Y-52350737D01*
X76982286Y-52696181D01*
X76659696Y-52696181D01*
X76650935Y-52547078D01*
X76649556Y-52313775D01*
X76658751Y-52079443D01*
X76677619Y-51857567D01*
X76705258Y-51661630D01*
X76740767Y-51505116D01*
X76750043Y-51475847D01*
X76835845Y-51285830D01*
X76946638Y-51144743D01*
X77081204Y-51053645D01*
X77238324Y-51013592D01*
X77284692Y-51011667D01*
X77438946Y-51038367D01*
G37*
X77438946Y-51038367D02*
X77574961Y-51116391D01*
X77689416Y-51242628D01*
X77778993Y-51413966D01*
X77810101Y-51504279D01*
X77851774Y-51690504D01*
X77880438Y-51916912D01*
X77895991Y-52168738D01*
X77898330Y-52431216D01*
X77887352Y-52689580D01*
X77862954Y-52929065D01*
X77825034Y-53134903D01*
X77821554Y-53148922D01*
X77750116Y-53359196D01*
X77655178Y-53523583D01*
X77538798Y-53639867D01*
X77403037Y-53705834D01*
X77289438Y-53720957D01*
X77184628Y-53709596D01*
X77084648Y-53681390D01*
X77062785Y-53671568D01*
X76939978Y-53584000D01*
X76840522Y-53456687D01*
X76762919Y-53286229D01*
X76705670Y-53069222D01*
X76667278Y-52802267D01*
X76663790Y-52765870D01*
X76659696Y-52696181D01*
X76982286Y-52696181D01*
X76983515Y-52742080D01*
X76995748Y-53004728D01*
X77015620Y-53214767D01*
X77043773Y-53375599D01*
X77080848Y-53490624D01*
X77127486Y-53563244D01*
X77140559Y-53575049D01*
X77212119Y-53601084D01*
X77309336Y-53599556D01*
X77410609Y-53573768D01*
X77494338Y-53527026D01*
X77502726Y-53519658D01*
X77595966Y-53404001D01*
X77669995Y-53247291D01*
X77725844Y-53046025D01*
X77764543Y-52796697D01*
X77783642Y-52563889D01*
X77788628Y-52335171D01*
X77779687Y-52096262D01*
X77758324Y-51864467D01*
X77726046Y-51657087D01*
X77692640Y-51517905D01*
X77643965Y-51405344D01*
X77575839Y-51342996D01*
X77481004Y-51325964D01*
X77419153Y-51333311D01*
X77293894Y-51382048D01*
X77190079Y-51477842D01*
X77107411Y-51621649D01*
X77045594Y-51814429D01*
X77004331Y-52057139D01*
X76983327Y-52350737D01*
X76982286Y-52696181D01*
X76659696Y-52696181D01*
X76650935Y-52547078D01*
X76649556Y-52313775D01*
X76658751Y-52079443D01*
X76677619Y-51857567D01*
X76705258Y-51661630D01*
X76740767Y-51505116D01*
X76750043Y-51475847D01*
X76835845Y-51285830D01*
X76946638Y-51144743D01*
X77081204Y-51053645D01*
X77238324Y-51013592D01*
X77284692Y-51011667D01*
X77438946Y-51038367D01*
D12*
X54417000Y-81407000D02*
G75*
G03*
X54417000Y-81407000I-950000J0D01*
G01*
X54395000Y-88370000D02*
G75*
G03*
X54395000Y-88370000I-950000J0D01*
G01*
X48448000Y-88370000D02*
G75*
G03*
X48448000Y-88370000I-950000J0D01*
G01*
X48448000Y-81661000D02*
G75*
G03*
X48448000Y-81661000I-950000J0D01*
G01*
X55497000Y-55345000D02*
X55497000Y-53845000D01*
X54247000Y-51345000D02*
X49747000Y-51345000D01*
X48497000Y-53845000D02*
X48497000Y-55345000D01*
X49747000Y-57845000D02*
X54247000Y-57845000D01*
D10*
X52205095Y-78827380D02*
X52776523Y-78827380D01*
X52490809Y-79827380D02*
X52490809Y-78827380D01*
X53109857Y-79827380D02*
X53109857Y-78827380D01*
X53490809Y-78827380D01*
X53586047Y-78875000D01*
X53633666Y-78922619D01*
X53681285Y-79017857D01*
X53681285Y-79160714D01*
X53633666Y-79255952D01*
X53586047Y-79303571D01*
X53490809Y-79351190D01*
X53109857Y-79351190D01*
X54014619Y-78827380D02*
X54633666Y-78827380D01*
X54300333Y-79208333D01*
X54443190Y-79208333D01*
X54538428Y-79255952D01*
X54586047Y-79303571D01*
X54633666Y-79398809D01*
X54633666Y-79636904D01*
X54586047Y-79732142D01*
X54538428Y-79779761D01*
X54443190Y-79827380D01*
X54157476Y-79827380D01*
X54062238Y-79779761D01*
X54014619Y-79732142D01*
X52056095Y-85666380D02*
X52627523Y-85666380D01*
X52341809Y-86666380D02*
X52341809Y-85666380D01*
X52960857Y-86666380D02*
X52960857Y-85666380D01*
X53341809Y-85666380D01*
X53437047Y-85714000D01*
X53484666Y-85761619D01*
X53532285Y-85856857D01*
X53532285Y-85999714D01*
X53484666Y-86094952D01*
X53437047Y-86142571D01*
X53341809Y-86190190D01*
X52960857Y-86190190D01*
X54389428Y-85999714D02*
X54389428Y-86666380D01*
X54151333Y-85618761D02*
X53913238Y-86333047D01*
X54532285Y-86333047D01*
X46109095Y-85666380D02*
X46680523Y-85666380D01*
X46394809Y-86666380D02*
X46394809Y-85666380D01*
X47013857Y-86666380D02*
X47013857Y-85666380D01*
X47394809Y-85666380D01*
X47490047Y-85714000D01*
X47537666Y-85761619D01*
X47585285Y-85856857D01*
X47585285Y-85999714D01*
X47537666Y-86094952D01*
X47490047Y-86142571D01*
X47394809Y-86190190D01*
X47013857Y-86190190D01*
X47966238Y-85761619D02*
X48013857Y-85714000D01*
X48109095Y-85666380D01*
X48347190Y-85666380D01*
X48442428Y-85714000D01*
X48490047Y-85761619D01*
X48537666Y-85856857D01*
X48537666Y-85952095D01*
X48490047Y-86094952D01*
X47918619Y-86666380D01*
X48537666Y-86666380D01*
X46236095Y-78703380D02*
X46807523Y-78703380D01*
X46521809Y-79703380D02*
X46521809Y-78703380D01*
X47140857Y-79703380D02*
X47140857Y-78703380D01*
X47521809Y-78703380D01*
X47617047Y-78751000D01*
X47664666Y-78798619D01*
X47712285Y-78893857D01*
X47712285Y-79036714D01*
X47664666Y-79131952D01*
X47617047Y-79179571D01*
X47521809Y-79227190D01*
X47140857Y-79227190D01*
X48664666Y-79703380D02*
X48093238Y-79703380D01*
X48378952Y-79703380D02*
X48378952Y-78703380D01*
X48283714Y-78846238D01*
X48188476Y-78941476D01*
X48093238Y-78989095D01*
X50813666Y-50049761D02*
X50956523Y-50097380D01*
X51194619Y-50097380D01*
X51289857Y-50049761D01*
X51337476Y-50002142D01*
X51385095Y-49906904D01*
X51385095Y-49811666D01*
X51337476Y-49716428D01*
X51289857Y-49668809D01*
X51194619Y-49621190D01*
X51004142Y-49573571D01*
X50908904Y-49525952D01*
X50861285Y-49478333D01*
X50813666Y-49383095D01*
X50813666Y-49287857D01*
X50861285Y-49192619D01*
X50908904Y-49145000D01*
X51004142Y-49097380D01*
X51242238Y-49097380D01*
X51385095Y-49145000D01*
X51718428Y-49097380D02*
X51956523Y-50097380D01*
X52147000Y-49383095D01*
X52337476Y-50097380D01*
X52575571Y-49097380D01*
X53480333Y-50097380D02*
X52908904Y-50097380D01*
X53194619Y-50097380D02*
X53194619Y-49097380D01*
X53099380Y-49240238D01*
X53004142Y-49335476D01*
X52908904Y-49383095D01*
%LPC*%
D14*
X78067000Y-90145000D03*
X78067000Y-92685000D03*
X78067000Y-95225000D03*
X78067000Y-97765000D03*
X80607000Y-92685000D03*
X80607000Y-95225000D03*
X80607000Y-97765000D03*
X80607000Y-100305000D03*
X80607000Y-102845000D03*
X83147000Y-102845000D03*
X85687000Y-102845000D03*
X88227000Y-102845000D03*
X78067000Y-100305000D03*
X83147000Y-100305000D03*
X85687000Y-100305000D03*
X88227000Y-100305000D03*
X90767000Y-100305000D03*
X90767000Y-97765000D03*
X90767000Y-95225000D03*
X90767000Y-92685000D03*
X90767000Y-90145000D03*
X88227000Y-97765000D03*
X88227000Y-95225000D03*
X88227000Y-92685000D03*
X88227000Y-90145000D03*
X80607000Y-87605000D03*
X83147000Y-87605000D03*
X88227000Y-87605000D03*
X85687000Y-87605000D03*
X80607000Y-90145000D03*
X85687000Y-90145000D03*
D15*
X83147000Y-90145000D03*
D16*
X117983000Y-76581000D03*
X115443000Y-76581000D03*
X112903000Y-76581000D03*
X110363000Y-76581000D03*
X107823000Y-76581000D03*
X105283000Y-76581000D03*
X102743000Y-76581000D03*
X100203000Y-76581000D03*
D17*
X97663000Y-76581000D03*
D18*
X53467000Y-81407000D03*
D19*
X112943000Y-112903000D03*
D17*
X115443000Y-112903000D03*
D18*
X53445000Y-88370000D03*
X47498000Y-88370000D03*
X47498000Y-81661000D03*
D20*
X55465000Y-139192000D03*
X110905000Y-139192000D03*
X99025000Y-139192000D03*
X95065000Y-139192000D03*
X91105000Y-139192000D03*
X87145000Y-139192000D03*
X83185000Y-139192000D03*
X79225000Y-139192000D03*
X75265000Y-139192000D03*
X71305000Y-139192000D03*
X67345000Y-139192000D03*
X63385000Y-139192000D03*
X59425000Y-139192000D03*
D16*
X63615000Y-81353000D03*
D19*
X63615000Y-88973000D03*
D16*
X66915000Y-89003000D03*
D19*
X66915000Y-81383000D03*
D16*
X70165000Y-89003000D03*
D19*
X70165000Y-81383000D03*
X111997000Y-83045000D03*
X116997000Y-83045000D03*
X103297000Y-112945000D03*
D17*
X105797000Y-112945000D03*
D16*
X110727000Y-88345000D03*
X118347000Y-106125000D03*
X110727000Y-90885000D03*
X118347000Y-103585000D03*
X110727000Y-93425000D03*
X118347000Y-101045000D03*
X110727000Y-95965000D03*
X118347000Y-98505000D03*
X110727000Y-98505000D03*
X118347000Y-95965000D03*
X110727000Y-101045000D03*
X118347000Y-93425000D03*
X110727000Y-103585000D03*
X118347000Y-90885000D03*
X110727000Y-106125000D03*
D17*
X118347000Y-88345000D03*
D21*
X55247000Y-52345000D03*
X55247000Y-56845000D03*
X48747000Y-52345000D03*
X48747000Y-56845000D03*
D22*
X101092000Y-61849000D03*
X103632000Y-61849000D03*
X106172000Y-61849000D03*
X108712000Y-61849000D03*
X111252000Y-61849000D03*
D23*
X113792000Y-61849000D03*
D16*
X98201000Y-88337000D03*
X105821000Y-103577000D03*
X98201000Y-90877000D03*
X105821000Y-101037000D03*
X98201000Y-93417000D03*
X105821000Y-98497000D03*
X98201000Y-95957000D03*
X105821000Y-95957000D03*
X98201000Y-98497000D03*
X105821000Y-93417000D03*
X98201000Y-101037000D03*
X105821000Y-90877000D03*
X98201000Y-103577000D03*
D17*
X105821000Y-88337000D03*
D19*
X104471000Y-83003000D03*
X99471000Y-83003000D03*
X81647000Y-80645000D03*
X86647000Y-80645000D03*
M02*
