G04 #@! TF.GenerationSoftware,KiCad,Pcbnew,7.0.10*
G04 #@! TF.CreationDate,2024-04-03T18:47:56+02:00*
G04 #@! TF.ProjectId,p2000t-multicartridge,70323030-3074-42d6-9d75-6c7469636172,rev?*
G04 #@! TF.SameCoordinates,Original*
G04 #@! TF.FileFunction,Copper,L1,Top*
G04 #@! TF.FilePolarity,Positive*
%FSLAX46Y46*%
G04 Gerber Fmt 4.6, Leading zero omitted, Abs format (unit mm)*
G04 Created by KiCad (PCBNEW 7.0.10) date 2024-04-03 18:47:56*
%MOMM*%
%LPD*%
G01*
G04 APERTURE LIST*
G04 #@! TA.AperFunction,ComponentPad*
%ADD10C,2.000000*%
G04 #@! TD*
G04 #@! TA.AperFunction,ComponentPad*
%ADD11C,1.500000*%
G04 #@! TD*
G04 #@! TA.AperFunction,ComponentPad*
%ADD12R,1.600000X1.600000*%
G04 #@! TD*
G04 #@! TA.AperFunction,ComponentPad*
%ADD13O,1.600000X1.600000*%
G04 #@! TD*
G04 #@! TA.AperFunction,ComponentPad*
%ADD14C,1.600000*%
G04 #@! TD*
G04 #@! TA.AperFunction,ComponentPad*
%ADD15R,1.700000X1.700000*%
G04 #@! TD*
G04 #@! TA.AperFunction,ComponentPad*
%ADD16O,1.700000X1.700000*%
G04 #@! TD*
G04 #@! TA.AperFunction,SMDPad,CuDef*
%ADD17R,2.000000X10.000000*%
G04 #@! TD*
G04 #@! TA.AperFunction,ComponentPad*
%ADD18R,1.422400X1.422400*%
G04 #@! TD*
G04 #@! TA.AperFunction,ComponentPad*
%ADD19C,1.422400*%
G04 #@! TD*
G04 #@! TA.AperFunction,ViaPad*
%ADD20C,0.800000*%
G04 #@! TD*
G04 #@! TA.AperFunction,Conductor*
%ADD21C,0.250000*%
G04 #@! TD*
G04 APERTURE END LIST*
D10*
X55247000Y-52345000D03*
X48747000Y-52345000D03*
X55247000Y-56845000D03*
X48747000Y-56845000D03*
D11*
X47498000Y-81661000D03*
X47498000Y-88370000D03*
X53445000Y-88370000D03*
X53467000Y-81407000D03*
D12*
X105821000Y-88337000D03*
D13*
X105821000Y-90877000D03*
X105821000Y-93417000D03*
X105821000Y-95957000D03*
X105821000Y-98497000D03*
X105821000Y-101037000D03*
X105821000Y-103577000D03*
X98201000Y-103577000D03*
X98201000Y-101037000D03*
X98201000Y-98497000D03*
X98201000Y-95957000D03*
X98201000Y-93417000D03*
X98201000Y-90877000D03*
X98201000Y-88337000D03*
D14*
X99471000Y-83003000D03*
X104471000Y-83003000D03*
X86647000Y-80645000D03*
X81647000Y-80645000D03*
D15*
X113792000Y-61849000D03*
D16*
X111252000Y-61849000D03*
X108712000Y-61849000D03*
X106172000Y-61849000D03*
X103632000Y-61849000D03*
X101092000Y-61849000D03*
D12*
X118347000Y-88345000D03*
D13*
X118347000Y-90885000D03*
X118347000Y-93425000D03*
X118347000Y-95965000D03*
X118347000Y-98505000D03*
X118347000Y-101045000D03*
X118347000Y-103585000D03*
X118347000Y-106125000D03*
X110727000Y-106125000D03*
X110727000Y-103585000D03*
X110727000Y-101045000D03*
X110727000Y-98505000D03*
X110727000Y-95965000D03*
X110727000Y-93425000D03*
X110727000Y-90885000D03*
X110727000Y-88345000D03*
D12*
X105797000Y-112945000D03*
D14*
X103297000Y-112945000D03*
X116997000Y-83045000D03*
X111997000Y-83045000D03*
X70165000Y-81383000D03*
D13*
X70165000Y-89003000D03*
D14*
X66915000Y-81383000D03*
D13*
X66915000Y-89003000D03*
D14*
X63615000Y-88973000D03*
D13*
X63615000Y-81353000D03*
D17*
X55465000Y-139192000D03*
X59425000Y-139192000D03*
X63385000Y-139192000D03*
X67345000Y-139192000D03*
X71305000Y-139192000D03*
X75265000Y-139192000D03*
X79225000Y-139192000D03*
X83185000Y-139192000D03*
X87145000Y-139192000D03*
X91105000Y-139192000D03*
X95065000Y-139192000D03*
X99025000Y-139192000D03*
X110905000Y-139192000D03*
D12*
X115443000Y-112903000D03*
D14*
X112943000Y-112903000D03*
D12*
X97663000Y-76581000D03*
D13*
X100203000Y-76581000D03*
X102743000Y-76581000D03*
X105283000Y-76581000D03*
X107823000Y-76581000D03*
X110363000Y-76581000D03*
X112903000Y-76581000D03*
X115443000Y-76581000D03*
X117983000Y-76581000D03*
D18*
X83147000Y-90145000D03*
D19*
X85687000Y-87605000D03*
X85687000Y-90145000D03*
X88227000Y-87605000D03*
X90767000Y-90145000D03*
X88227000Y-90145000D03*
X90767000Y-92685000D03*
X88227000Y-92685000D03*
X90767000Y-95225000D03*
X88227000Y-95225000D03*
X90767000Y-97765000D03*
X88227000Y-97765000D03*
X90767000Y-100305000D03*
X88227000Y-102845000D03*
X88227000Y-100305000D03*
X85687000Y-102845000D03*
X85687000Y-100305000D03*
X83147000Y-102845000D03*
X83147000Y-100305000D03*
X80607000Y-102845000D03*
X78067000Y-100305000D03*
X80607000Y-100305000D03*
X78067000Y-97765000D03*
X80607000Y-97765000D03*
X78067000Y-95225000D03*
X80607000Y-95225000D03*
X78067000Y-92685000D03*
X80607000Y-92685000D03*
X78067000Y-90145000D03*
X80607000Y-87605000D03*
X80607000Y-90145000D03*
X83147000Y-87605000D03*
D20*
X110905000Y-125387000D03*
X72647000Y-72145000D03*
X70147000Y-74645000D03*
X84647000Y-58645000D03*
X70147000Y-77145000D03*
X118809900Y-80874100D03*
X84647000Y-64145000D03*
X55147000Y-126145000D03*
X65361300Y-125810200D03*
X66120900Y-124022200D03*
X89214900Y-96281300D03*
X94083400Y-97122800D03*
X86447600Y-111994700D03*
X86897600Y-119974300D03*
X86375400Y-121682600D03*
X103803300Y-102563600D03*
X96251500Y-79064100D03*
X95294200Y-78523400D03*
X84183500Y-77412000D03*
X95998400Y-81559300D03*
X101940700Y-84448000D03*
X78702300Y-76682500D03*
D21*
X103579000Y-103577000D02*
X102647000Y-102645000D01*
X102647000Y-87145000D02*
X104471000Y-85321000D01*
X81647000Y-78645000D02*
X81647000Y-80645000D01*
X105647000Y-79645000D02*
X98147000Y-79645000D01*
X117147000Y-116645000D02*
X121647000Y-112145000D01*
X105821000Y-103577000D02*
X103579000Y-103577000D01*
X48639200Y-88370000D02*
X48639200Y-59280600D01*
X71450800Y-87866600D02*
X66419400Y-87866600D01*
X83711000Y-76581000D02*
X81647000Y-78645000D01*
X111997000Y-84995000D02*
X115147000Y-88145000D01*
X116867000Y-104645000D02*
X118347000Y-106125000D01*
X106647000Y-79645000D02*
X105647000Y-79645000D01*
X115147000Y-104645000D02*
X116867000Y-104645000D01*
X115397000Y-79645000D02*
X106647000Y-79645000D01*
X48639200Y-59280600D02*
X47366400Y-58007800D01*
X97663000Y-79161000D02*
X97663000Y-76581000D01*
X110905000Y-125387000D02*
X117147000Y-119145000D01*
X119147000Y-79645000D02*
X115647000Y-79645000D01*
X110905000Y-139192000D02*
X110905000Y-125387000D01*
X121647000Y-112145000D02*
X121647000Y-82145000D01*
X104471000Y-80821000D02*
X104471000Y-83003000D01*
X115397000Y-79645000D02*
X111997000Y-83045000D01*
X112207000Y-104645000D02*
X110727000Y-106125000D01*
X111997000Y-83045000D02*
X111997000Y-84995000D01*
X115147000Y-104645000D02*
X112207000Y-104645000D01*
X105647000Y-79645000D02*
X104471000Y-80821000D01*
X115647000Y-79645000D02*
X115397000Y-79645000D01*
X66419400Y-87866600D02*
X64157700Y-90128300D01*
X47366400Y-58007800D02*
X47366400Y-53725600D01*
X81647000Y-96725000D02*
X80607000Y-97765000D01*
X104471000Y-85321000D02*
X104471000Y-83003000D01*
X106647000Y-79645000D02*
X105647000Y-79645000D01*
X81647000Y-91415000D02*
X81647000Y-96725000D01*
X64157700Y-90128300D02*
X50397500Y-90128300D01*
X97663000Y-76581000D02*
X83711000Y-76581000D01*
X81647000Y-80645000D02*
X81647000Y-91415000D01*
X74999200Y-91415000D02*
X71450800Y-87866600D01*
X115647000Y-79645000D02*
X115397000Y-79645000D01*
X115147000Y-88145000D02*
X115147000Y-104645000D01*
X117147000Y-119145000D02*
X117147000Y-116645000D01*
X102647000Y-102645000D02*
X102647000Y-87145000D01*
X81647000Y-91415000D02*
X74999200Y-91415000D01*
X121647000Y-82145000D02*
X119147000Y-79645000D01*
X48639200Y-88370000D02*
X47498000Y-88370000D01*
X98147000Y-79645000D02*
X97663000Y-79161000D01*
X50397500Y-90128300D02*
X48639200Y-88370000D01*
X47366400Y-53725600D02*
X48747000Y-52345000D01*
X70147000Y-77145000D02*
X70147000Y-81365000D01*
X116997000Y-83045000D02*
X118809900Y-81232100D01*
X55147000Y-126145000D02*
X55147000Y-138874000D01*
X55147000Y-138874000D02*
X55465000Y-139192000D01*
X70147000Y-81365000D02*
X70165000Y-81383000D01*
X72647000Y-72145000D02*
X70147000Y-74645000D01*
X84647000Y-58645000D02*
X84647000Y-64145000D01*
X118809900Y-81232100D02*
X118809900Y-80874100D01*
X59425000Y-139192000D02*
X59425000Y-131746500D01*
X59425000Y-131746500D02*
X65361300Y-125810200D01*
X63385000Y-139192000D02*
X63385000Y-133866700D01*
X63385000Y-133866700D02*
X66120900Y-131130800D01*
X66120900Y-131130800D02*
X66120900Y-124022200D01*
X67345000Y-107020300D02*
X77636900Y-96728400D01*
X79337000Y-97514500D02*
X79337000Y-98049000D01*
X67345000Y-139192000D02*
X67345000Y-107020300D01*
X77636900Y-96728400D02*
X78550900Y-96728400D01*
X80323000Y-99035000D02*
X81877000Y-99035000D01*
X81877000Y-99035000D02*
X83147000Y-100305000D01*
X79337000Y-98049000D02*
X80323000Y-99035000D01*
X78550900Y-96728400D02*
X79337000Y-97514500D01*
X71305000Y-107067000D02*
X78067000Y-100305000D01*
X71305000Y-139192000D02*
X71305000Y-107067000D01*
X75265000Y-133866700D02*
X89497000Y-119634700D01*
X89497000Y-99035000D02*
X90767000Y-97765000D01*
X75265000Y-139192000D02*
X75265000Y-133866700D01*
X89497000Y-119634700D02*
X89497000Y-99035000D01*
X90767000Y-95225000D02*
X91818500Y-96276500D01*
X91818500Y-96276500D02*
X91818500Y-121273200D01*
X79225000Y-139192000D02*
X79225000Y-133866700D01*
X91818500Y-121273200D02*
X79225000Y-133866700D01*
X92273000Y-94191000D02*
X92273000Y-124778700D01*
X83185000Y-139192000D02*
X83185000Y-133866700D01*
X92273000Y-124778700D02*
X83185000Y-133866700D01*
X90767000Y-92685000D02*
X92273000Y-94191000D01*
X90767000Y-90145000D02*
X92725500Y-92103500D01*
X92725500Y-128286200D02*
X87145000Y-133866700D01*
X87145000Y-139192000D02*
X87145000Y-133866700D01*
X92725500Y-92103500D02*
X92725500Y-128286200D01*
X89497000Y-89851800D02*
X90240500Y-89108300D01*
X89214900Y-96281300D02*
X89497000Y-95999200D01*
X89497000Y-95999200D02*
X89497000Y-89851800D01*
X93183300Y-91095300D02*
X93183300Y-131788400D01*
X91196300Y-89108300D02*
X93183300Y-91095300D01*
X91105000Y-139192000D02*
X91105000Y-133866700D01*
X93183300Y-131788400D02*
X91105000Y-133866700D01*
X90240500Y-89108300D02*
X91196300Y-89108300D01*
X95065000Y-139192000D02*
X95065000Y-133866700D01*
X95065000Y-133866700D02*
X94083400Y-132885100D01*
X94083400Y-132885100D02*
X94083400Y-97122800D01*
X79111900Y-104659000D02*
X86447600Y-111994700D01*
X79111900Y-98809900D02*
X79111900Y-104659000D01*
X78067000Y-97765000D02*
X79111900Y-98809900D01*
X86723600Y-111244900D02*
X87172900Y-111694200D01*
X86723600Y-91648400D02*
X86723600Y-111244900D01*
X88227000Y-90145000D02*
X86723600Y-91648400D01*
X87172900Y-119699000D02*
X86897600Y-119974300D01*
X87172900Y-111694200D02*
X87172900Y-119699000D01*
X87623200Y-120434800D02*
X87623200Y-111507600D01*
X87623200Y-111507600D02*
X87173900Y-111058300D01*
X87173900Y-93738100D02*
X88227000Y-92685000D01*
X86375400Y-121682600D02*
X87623200Y-120434800D01*
X87173900Y-111058300D02*
X87173900Y-93738100D01*
X106987300Y-100556700D02*
X106987300Y-104144600D01*
X105821000Y-95957000D02*
X105821000Y-98497000D01*
X105821000Y-98497000D02*
X105821000Y-99622300D01*
X105821000Y-99622300D02*
X106052900Y-99622300D01*
X106052900Y-99622300D02*
X106987300Y-100556700D01*
X106987300Y-104144600D02*
X99025000Y-112106900D01*
X99025000Y-112106900D02*
X99025000Y-139192000D01*
X105821000Y-88337000D02*
X105821000Y-90877000D01*
X105821000Y-90877000D02*
X105821000Y-92002300D01*
X106191500Y-94687000D02*
X105443500Y-94687000D01*
X106102300Y-92002300D02*
X106987100Y-92887100D01*
X106987100Y-92887100D02*
X106987100Y-93891400D01*
X106987100Y-93891400D02*
X106191500Y-94687000D01*
X105821000Y-92002300D02*
X106102300Y-92002300D01*
X103803300Y-96327200D02*
X103803300Y-102563600D01*
X105443500Y-94687000D02*
X103803300Y-96327200D01*
X111252000Y-68724700D02*
X111252000Y-62436600D01*
X108998100Y-60182700D02*
X98818100Y-60182700D01*
X78067000Y-80933800D02*
X78067000Y-90145000D01*
X98818100Y-60182700D02*
X78067000Y-80933800D01*
X111252000Y-61849000D02*
X111252000Y-62436600D01*
X111252000Y-62436600D02*
X108998100Y-60182700D01*
X117983000Y-76581000D02*
X117983000Y-75455700D01*
X117983000Y-75455700D02*
X111252000Y-68724700D01*
X96066900Y-79248700D02*
X96251500Y-79064100D01*
X95117400Y-79248700D02*
X96066900Y-79248700D01*
X85687000Y-90145000D02*
X87116400Y-88715600D01*
X87116400Y-88715600D02*
X87116400Y-87249700D01*
X87116400Y-87249700D02*
X95117400Y-79248700D01*
X112903000Y-76581000D02*
X112903000Y-75455700D01*
X85687000Y-87605000D02*
X94768600Y-78523400D01*
X106172000Y-68724700D02*
X106172000Y-61849000D01*
X94768600Y-78523400D02*
X95294200Y-78523400D01*
X112903000Y-75455700D02*
X106172000Y-68724700D01*
X103632000Y-61849000D02*
X102456700Y-61849000D01*
X80504000Y-87502000D02*
X80607000Y-87605000D01*
X80504000Y-79133700D02*
X80504000Y-87502000D01*
X110363000Y-76581000D02*
X110363000Y-75455700D01*
X101608100Y-60633100D02*
X99004600Y-60633100D01*
X110363000Y-75455700D02*
X103632000Y-68724700D01*
X103632000Y-68724700D02*
X103632000Y-61849000D01*
X102456700Y-61849000D02*
X102456700Y-61481700D01*
X99004600Y-60633100D02*
X80504000Y-79133700D01*
X102456700Y-61481700D02*
X101608100Y-60633100D01*
X101092000Y-68724700D02*
X107823000Y-75455700D01*
X107823000Y-76581000D02*
X107823000Y-75455700D01*
X101092000Y-61849000D02*
X101092000Y-68724700D01*
X86723500Y-90161300D02*
X86723500Y-90886000D01*
X98201000Y-102451700D02*
X97919600Y-102451700D01*
X84183600Y-93425900D02*
X84183600Y-100788900D01*
X91392300Y-88641600D02*
X88243200Y-88641600D01*
X97075700Y-101607800D02*
X97075700Y-94325000D01*
X86723500Y-90886000D02*
X84183600Y-93425900D01*
X98201000Y-103577000D02*
X98201000Y-102451700D01*
X84183600Y-100788900D02*
X83594000Y-101378500D01*
X88243200Y-88641600D02*
X86723500Y-90161300D01*
X97919600Y-102451700D02*
X97075700Y-101607800D01*
X81680500Y-101378500D02*
X80607000Y-100305000D01*
X97075700Y-94325000D02*
X91392300Y-88641600D01*
X83594000Y-101378500D02*
X81680500Y-101378500D01*
X83147000Y-89108500D02*
X84183500Y-88072000D01*
X84183500Y-88072000D02*
X84183500Y-77412000D01*
X83147000Y-90145000D02*
X83147000Y-89108500D01*
X98887100Y-84448000D02*
X95998400Y-81559300D01*
X101940700Y-84448000D02*
X98887100Y-84448000D01*
X98201000Y-101037000D02*
X98201000Y-98497000D01*
X98201000Y-98497000D02*
X98201000Y-95957000D01*
X110445600Y-94550300D02*
X109601700Y-95394200D01*
X110727000Y-93425000D02*
X110727000Y-94550300D01*
X109601700Y-106640300D02*
X103297000Y-112945000D01*
X110727000Y-94550300D02*
X110445600Y-94550300D01*
X109601700Y-95394200D02*
X109601700Y-106640300D01*
X72876400Y-82508400D02*
X70079600Y-82508400D01*
X78702300Y-76682500D02*
X72876400Y-82508400D01*
X70079600Y-82508400D02*
X63615000Y-88973000D01*
X48185700Y-90578600D02*
X67464100Y-90578600D01*
X46397300Y-82761700D02*
X46397300Y-88790200D01*
X70165000Y-89003000D02*
X69039700Y-89003000D01*
X67464100Y-90578600D02*
X69039700Y-89003000D01*
X47498000Y-81661000D02*
X46397300Y-82761700D01*
X46397300Y-88790200D02*
X48185700Y-90578600D01*
G04 #@! TA.AperFunction,Conductor*
G36*
X97063621Y-44190502D02*
G01*
X97110114Y-44244158D01*
X97121500Y-44296500D01*
X97121500Y-56114867D01*
X97119398Y-56125435D01*
X97119399Y-56144999D01*
X97121498Y-56150067D01*
X97121499Y-56150072D01*
X97121500Y-56150072D01*
X97127483Y-56164517D01*
X97147000Y-56172601D01*
X97166575Y-56172601D01*
X97177137Y-56170500D01*
X122995500Y-56170500D01*
X123063621Y-56190502D01*
X123110114Y-56244158D01*
X123121500Y-56296500D01*
X123121500Y-65493500D01*
X123101498Y-65561621D01*
X123047842Y-65608114D01*
X122995500Y-65619500D01*
X122937774Y-65619500D01*
X122521106Y-65658110D01*
X122521102Y-65658110D01*
X122521099Y-65658111D01*
X122109778Y-65734999D01*
X122109770Y-65735001D01*
X121707299Y-65849516D01*
X121317106Y-66000676D01*
X120942511Y-66187203D01*
X120586760Y-66407474D01*
X120586745Y-66407484D01*
X120252815Y-66659656D01*
X120252808Y-66659661D01*
X119943569Y-66941569D01*
X119661661Y-67250808D01*
X119661656Y-67250815D01*
X119409484Y-67584745D01*
X119409474Y-67584760D01*
X119189203Y-67940511D01*
X119002676Y-68315106D01*
X118851516Y-68705299D01*
X118737001Y-69107770D01*
X118736999Y-69107778D01*
X118696803Y-69322813D01*
X118660110Y-69519106D01*
X118621500Y-69935774D01*
X118621500Y-70354226D01*
X118660110Y-70770894D01*
X118660111Y-70770900D01*
X118736999Y-71182221D01*
X118737001Y-71182229D01*
X118851516Y-71584700D01*
X118994997Y-71955072D01*
X119002678Y-71974897D01*
X119189199Y-72349481D01*
X119189201Y-72349485D01*
X119189203Y-72349488D01*
X119409474Y-72705239D01*
X119409484Y-72705254D01*
X119409486Y-72705257D01*
X119512364Y-72841489D01*
X119661656Y-73039184D01*
X119661661Y-73039191D01*
X119943569Y-73348430D01*
X120252808Y-73630338D01*
X120252811Y-73630340D01*
X120586743Y-73882514D01*
X120586745Y-73882515D01*
X120586760Y-73882525D01*
X120910661Y-74083075D01*
X120942519Y-74102801D01*
X121317103Y-74289322D01*
X121707299Y-74440484D01*
X122022662Y-74530213D01*
X122109770Y-74554998D01*
X122109778Y-74555000D01*
X122521106Y-74631890D01*
X122937774Y-74670500D01*
X122995500Y-74670500D01*
X123063621Y-74690502D01*
X123110114Y-74744158D01*
X123121500Y-74796500D01*
X123121500Y-77839928D01*
X123121501Y-83439929D01*
X123121501Y-94839928D01*
X123121500Y-100451927D01*
X123121500Y-115493500D01*
X123101498Y-115561621D01*
X123047842Y-115608114D01*
X122995500Y-115619500D01*
X122937774Y-115619500D01*
X122521106Y-115658110D01*
X122521102Y-115658110D01*
X122521099Y-115658111D01*
X122109778Y-115734999D01*
X122109770Y-115735001D01*
X121707299Y-115849516D01*
X121317106Y-116000676D01*
X120942511Y-116187203D01*
X120586760Y-116407474D01*
X120586745Y-116407484D01*
X120252815Y-116659656D01*
X120252808Y-116659661D01*
X119943569Y-116941569D01*
X119661661Y-117250808D01*
X119661656Y-117250815D01*
X119409484Y-117584745D01*
X119409474Y-117584760D01*
X119189203Y-117940511D01*
X119002676Y-118315106D01*
X118851516Y-118705299D01*
X118737001Y-119107770D01*
X118736999Y-119107778D01*
X118675391Y-119437358D01*
X118660110Y-119519106D01*
X118621500Y-119935774D01*
X118621500Y-120354226D01*
X118660110Y-120770894D01*
X118660111Y-120770900D01*
X118736999Y-121182221D01*
X118737001Y-121182229D01*
X118790287Y-121369505D01*
X118851516Y-121584701D01*
X119002678Y-121974897D01*
X119189199Y-122349481D01*
X119189201Y-122349485D01*
X119189203Y-122349488D01*
X119409474Y-122705239D01*
X119409484Y-122705254D01*
X119661656Y-123039184D01*
X119661661Y-123039191D01*
X119943569Y-123348430D01*
X120252808Y-123630338D01*
X120252811Y-123630340D01*
X120586743Y-123882514D01*
X120586745Y-123882515D01*
X120586760Y-123882525D01*
X120694601Y-123949297D01*
X120942519Y-124102801D01*
X121317103Y-124289322D01*
X121707299Y-124440484D01*
X122022662Y-124530213D01*
X122109770Y-124554998D01*
X122109778Y-124555000D01*
X122521106Y-124631890D01*
X122937774Y-124670500D01*
X122995500Y-124670500D01*
X123063621Y-124690502D01*
X123110114Y-124744158D01*
X123121500Y-124796500D01*
X123121500Y-132019000D01*
X123101498Y-132087121D01*
X123047842Y-132133614D01*
X122995500Y-132145000D01*
X99784500Y-132145000D01*
X99716379Y-132124998D01*
X99669886Y-132071342D01*
X99658500Y-132019000D01*
X99658500Y-112945000D01*
X101983502Y-112945000D01*
X101999782Y-113131087D01*
X102003457Y-113173086D01*
X102062715Y-113394240D01*
X102062717Y-113394246D01*
X102159477Y-113601749D01*
X102272988Y-113763860D01*
X102290802Y-113789300D01*
X102452700Y-113951198D01*
X102640251Y-114082523D01*
X102847757Y-114179284D01*
X103068913Y-114238543D01*
X103297000Y-114258498D01*
X103525087Y-114238543D01*
X103746243Y-114179284D01*
X103953749Y-114082523D01*
X104141300Y-113951198D01*
X104286640Y-113805857D01*
X104348948Y-113771835D01*
X104419764Y-113776899D01*
X104476600Y-113819446D01*
X104493787Y-113850922D01*
X104546110Y-113991202D01*
X104546112Y-113991207D01*
X104633738Y-114108261D01*
X104750792Y-114195887D01*
X104750794Y-114195888D01*
X104750796Y-114195889D01*
X104806048Y-114216497D01*
X104887795Y-114246988D01*
X104887803Y-114246990D01*
X104948350Y-114253499D01*
X104948355Y-114253499D01*
X104948362Y-114253500D01*
X104948368Y-114253500D01*
X106645632Y-114253500D01*
X106645638Y-114253500D01*
X106645645Y-114253499D01*
X106645649Y-114253499D01*
X106706196Y-114246990D01*
X106706199Y-114246989D01*
X106706201Y-114246989D01*
X106843204Y-114195889D01*
X106865389Y-114179282D01*
X106960261Y-114108261D01*
X107047887Y-113991207D01*
X107047887Y-113991206D01*
X107047889Y-113991204D01*
X107098989Y-113854201D01*
X107102726Y-113819446D01*
X107105499Y-113793649D01*
X107105500Y-113793632D01*
X107105500Y-112903000D01*
X111629502Y-112903000D01*
X111649457Y-113131086D01*
X111708715Y-113352240D01*
X111708717Y-113352246D01*
X111728302Y-113394246D01*
X111805477Y-113559749D01*
X111936802Y-113747300D01*
X112098700Y-113909198D01*
X112286251Y-114040523D01*
X112493757Y-114137284D01*
X112714913Y-114196543D01*
X112943000Y-114216498D01*
X113171087Y-114196543D01*
X113392243Y-114137284D01*
X113599749Y-114040523D01*
X113787300Y-113909198D01*
X113932640Y-113763857D01*
X113994948Y-113729835D01*
X114065764Y-113734899D01*
X114122600Y-113777446D01*
X114139787Y-113808922D01*
X114192110Y-113949202D01*
X114192112Y-113949207D01*
X114279738Y-114066261D01*
X114396792Y-114153887D01*
X114396794Y-114153888D01*
X114396796Y-114153889D01*
X114455875Y-114175924D01*
X114533795Y-114204988D01*
X114533803Y-114204990D01*
X114594350Y-114211499D01*
X114594355Y-114211499D01*
X114594362Y-114211500D01*
X114594368Y-114211500D01*
X116291632Y-114211500D01*
X116291638Y-114211500D01*
X116291645Y-114211499D01*
X116291649Y-114211499D01*
X116352196Y-114204990D01*
X116352199Y-114204989D01*
X116352201Y-114204989D01*
X116489204Y-114153889D01*
X116511389Y-114137282D01*
X116606261Y-114066261D01*
X116693887Y-113949207D01*
X116693887Y-113949206D01*
X116693889Y-113949204D01*
X116744989Y-113812201D01*
X116746984Y-113793649D01*
X116751499Y-113751649D01*
X116751500Y-113751632D01*
X116751500Y-112054367D01*
X116751499Y-112054350D01*
X116744990Y-111993803D01*
X116744988Y-111993795D01*
X116708811Y-111896804D01*
X116693889Y-111856796D01*
X116693888Y-111856794D01*
X116693887Y-111856792D01*
X116606261Y-111739738D01*
X116489207Y-111652112D01*
X116489202Y-111652110D01*
X116352204Y-111601011D01*
X116352196Y-111601009D01*
X116291649Y-111594500D01*
X116291638Y-111594500D01*
X114594362Y-111594500D01*
X114594350Y-111594500D01*
X114533803Y-111601009D01*
X114533795Y-111601011D01*
X114396797Y-111652110D01*
X114396792Y-111652112D01*
X114279738Y-111739738D01*
X114192112Y-111856792D01*
X114192111Y-111856795D01*
X114139787Y-111997078D01*
X114097240Y-112053913D01*
X114030719Y-112078723D01*
X113961345Y-112063631D01*
X113932637Y-112042139D01*
X113787302Y-111896804D01*
X113787296Y-111896799D01*
X113599749Y-111765477D01*
X113392246Y-111668717D01*
X113392240Y-111668715D01*
X113253359Y-111631502D01*
X113171087Y-111609457D01*
X112943000Y-111589502D01*
X112714913Y-111609457D01*
X112493759Y-111668715D01*
X112493753Y-111668717D01*
X112286250Y-111765477D01*
X112098703Y-111896799D01*
X112098697Y-111896804D01*
X111936804Y-112058697D01*
X111936799Y-112058703D01*
X111805477Y-112246250D01*
X111708717Y-112453753D01*
X111708715Y-112453759D01*
X111649457Y-112674913D01*
X111629502Y-112903000D01*
X107105500Y-112903000D01*
X107105500Y-112096367D01*
X107105499Y-112096350D01*
X107098990Y-112035803D01*
X107098988Y-112035795D01*
X107062811Y-111938804D01*
X107047889Y-111898796D01*
X107047888Y-111898794D01*
X107047887Y-111898792D01*
X106960261Y-111781738D01*
X106843207Y-111694112D01*
X106843202Y-111694110D01*
X106706204Y-111643011D01*
X106706196Y-111643009D01*
X106645649Y-111636500D01*
X106645638Y-111636500D01*
X105805594Y-111636500D01*
X105737473Y-111616498D01*
X105690980Y-111562842D01*
X105680876Y-111492568D01*
X105710370Y-111427988D01*
X105716499Y-111421405D01*
X106396609Y-110741295D01*
X109881237Y-107256665D01*
X109943545Y-107222643D01*
X110014360Y-107227707D01*
X110042599Y-107242550D01*
X110070502Y-107262088D01*
X110277926Y-107358811D01*
X110277931Y-107358813D01*
X110473000Y-107411081D01*
X110473000Y-106436686D01*
X110488955Y-106452641D01*
X110601852Y-106510165D01*
X110695519Y-106525000D01*
X110758481Y-106525000D01*
X110852148Y-106510165D01*
X110965045Y-106452641D01*
X110981000Y-106436686D01*
X110981000Y-107411081D01*
X111176068Y-107358813D01*
X111176073Y-107358811D01*
X111383498Y-107262087D01*
X111570974Y-107130815D01*
X111570980Y-107130810D01*
X111732810Y-106968980D01*
X111732815Y-106968974D01*
X111864087Y-106781498D01*
X111960811Y-106574073D01*
X111960813Y-106574068D01*
X112013082Y-106379000D01*
X111038686Y-106379000D01*
X111054641Y-106363045D01*
X111112165Y-106250148D01*
X111131986Y-106125000D01*
X111112165Y-105999852D01*
X111054641Y-105886955D01*
X111038686Y-105871000D01*
X112013082Y-105871000D01*
X111960813Y-105675931D01*
X111960811Y-105675926D01*
X111864087Y-105468501D01*
X111732815Y-105281025D01*
X111732810Y-105281019D01*
X111570980Y-105119189D01*
X111570974Y-105119184D01*
X111383497Y-104987911D01*
X111343949Y-104969469D01*
X111290665Y-104922551D01*
X111271205Y-104854273D01*
X111291748Y-104786314D01*
X111343950Y-104741081D01*
X111383749Y-104722523D01*
X111571300Y-104591198D01*
X111733198Y-104429300D01*
X111864523Y-104241749D01*
X111961284Y-104034243D01*
X112020543Y-103813087D01*
X112040498Y-103585000D01*
X117033502Y-103585000D01*
X117053457Y-103813087D01*
X117065521Y-103858109D01*
X117112715Y-104034240D01*
X117112717Y-104034246D01*
X117209477Y-104241749D01*
X117335197Y-104421296D01*
X117340802Y-104429300D01*
X117502700Y-104591198D01*
X117690251Y-104722523D01*
X117730045Y-104741079D01*
X117730047Y-104741080D01*
X117783332Y-104787996D01*
X117802794Y-104856273D01*
X117782253Y-104924233D01*
X117730051Y-104969468D01*
X117690504Y-104987910D01*
X117503025Y-105119184D01*
X117503019Y-105119189D01*
X117341189Y-105281019D01*
X117341184Y-105281025D01*
X117209912Y-105468501D01*
X117113188Y-105675926D01*
X117113186Y-105675931D01*
X117060917Y-105871000D01*
X118035314Y-105871000D01*
X118019359Y-105886955D01*
X117961835Y-105999852D01*
X117942014Y-106125000D01*
X117961835Y-106250148D01*
X118019359Y-106363045D01*
X118035314Y-106379000D01*
X117060918Y-106379000D01*
X117113186Y-106574068D01*
X117113188Y-106574073D01*
X117209912Y-106781498D01*
X117341184Y-106968974D01*
X117341189Y-106968980D01*
X117503019Y-107130810D01*
X117503025Y-107130815D01*
X117690501Y-107262087D01*
X117897926Y-107358811D01*
X117897931Y-107358813D01*
X118093000Y-107411081D01*
X118093000Y-106436686D01*
X118108955Y-106452641D01*
X118221852Y-106510165D01*
X118315519Y-106525000D01*
X118378481Y-106525000D01*
X118472148Y-106510165D01*
X118585045Y-106452641D01*
X118601000Y-106436686D01*
X118601000Y-107411081D01*
X118796068Y-107358813D01*
X118796073Y-107358811D01*
X119003498Y-107262087D01*
X119190974Y-107130815D01*
X119190980Y-107130810D01*
X119352810Y-106968980D01*
X119352815Y-106968974D01*
X119484087Y-106781498D01*
X119580811Y-106574073D01*
X119580813Y-106574068D01*
X119633082Y-106379000D01*
X118658686Y-106379000D01*
X118674641Y-106363045D01*
X118732165Y-106250148D01*
X118751986Y-106125000D01*
X118732165Y-105999852D01*
X118674641Y-105886955D01*
X118658686Y-105871000D01*
X119633082Y-105871000D01*
X119580813Y-105675931D01*
X119580811Y-105675926D01*
X119484087Y-105468501D01*
X119352815Y-105281025D01*
X119352810Y-105281019D01*
X119190980Y-105119189D01*
X119190974Y-105119184D01*
X119003497Y-104987911D01*
X118963949Y-104969469D01*
X118910665Y-104922551D01*
X118891205Y-104854273D01*
X118911748Y-104786314D01*
X118963950Y-104741081D01*
X119003749Y-104722523D01*
X119191300Y-104591198D01*
X119353198Y-104429300D01*
X119484523Y-104241749D01*
X119581284Y-104034243D01*
X119640543Y-103813087D01*
X119660498Y-103585000D01*
X119640543Y-103356913D01*
X119581284Y-103135757D01*
X119484523Y-102928251D01*
X119353198Y-102740700D01*
X119191300Y-102578802D01*
X119180420Y-102571184D01*
X119128998Y-102535177D01*
X119003749Y-102447477D01*
X118987521Y-102439910D01*
X118964543Y-102429195D01*
X118911258Y-102382279D01*
X118891796Y-102314002D01*
X118912337Y-102246042D01*
X118964543Y-102200805D01*
X118981109Y-102193080D01*
X119003749Y-102182523D01*
X119191300Y-102051198D01*
X119353198Y-101889300D01*
X119484523Y-101701749D01*
X119581284Y-101494243D01*
X119640543Y-101273087D01*
X119660498Y-101045000D01*
X119640543Y-100816913D01*
X119581284Y-100595757D01*
X119484523Y-100388251D01*
X119353198Y-100200700D01*
X119191300Y-100038802D01*
X119003749Y-99907477D01*
X118964543Y-99889195D01*
X118911258Y-99842279D01*
X118891796Y-99774002D01*
X118912337Y-99706042D01*
X118964543Y-99660805D01*
X118966997Y-99659660D01*
X119003749Y-99642523D01*
X119191300Y-99511198D01*
X119353198Y-99349300D01*
X119484523Y-99161749D01*
X119581284Y-98954243D01*
X119640543Y-98733087D01*
X119660498Y-98505000D01*
X119640543Y-98276913D01*
X119581284Y-98055757D01*
X119484523Y-97848251D01*
X119353198Y-97660700D01*
X119191300Y-97498802D01*
X119184950Y-97494356D01*
X119128998Y-97455177D01*
X119003749Y-97367477D01*
X118978499Y-97355703D01*
X118964543Y-97349195D01*
X118911258Y-97302279D01*
X118891796Y-97234002D01*
X118912337Y-97166042D01*
X118964543Y-97120805D01*
X118966997Y-97119660D01*
X119003749Y-97102523D01*
X119191300Y-96971198D01*
X119353198Y-96809300D01*
X119484523Y-96621749D01*
X119581284Y-96414243D01*
X119640543Y-96193087D01*
X119660498Y-95965000D01*
X119640543Y-95736913D01*
X119581284Y-95515757D01*
X119484523Y-95308251D01*
X119353198Y-95120700D01*
X119191300Y-94958802D01*
X119183412Y-94953279D01*
X119095489Y-94891714D01*
X119003749Y-94827477D01*
X118964543Y-94809195D01*
X118911258Y-94762279D01*
X118891796Y-94694002D01*
X118912337Y-94626042D01*
X118964543Y-94580805D01*
X118966997Y-94579660D01*
X119003749Y-94562523D01*
X119191300Y-94431198D01*
X119353198Y-94269300D01*
X119484523Y-94081749D01*
X119581284Y-93874243D01*
X119640543Y-93653087D01*
X119660498Y-93425000D01*
X119640543Y-93196913D01*
X119581284Y-92975757D01*
X119484523Y-92768251D01*
X119353198Y-92580700D01*
X119191300Y-92418802D01*
X119186304Y-92415304D01*
X119059305Y-92326378D01*
X119003749Y-92287477D01*
X118964543Y-92269195D01*
X118911258Y-92222279D01*
X118891796Y-92154002D01*
X118912337Y-92086042D01*
X118964543Y-92040805D01*
X118966997Y-92039660D01*
X119003749Y-92022523D01*
X119191300Y-91891198D01*
X119353198Y-91729300D01*
X119484523Y-91541749D01*
X119581284Y-91334243D01*
X119640543Y-91113087D01*
X119660498Y-90885000D01*
X119640543Y-90656913D01*
X119581284Y-90435757D01*
X119484523Y-90228251D01*
X119353198Y-90040700D01*
X119191300Y-89878802D01*
X119191295Y-89878799D01*
X119191292Y-89878796D01*
X119187995Y-89876487D01*
X119143669Y-89821028D01*
X119136363Y-89750409D01*
X119168396Y-89687049D01*
X119229599Y-89651067D01*
X119246801Y-89647999D01*
X119256201Y-89646989D01*
X119256963Y-89646705D01*
X119292886Y-89633306D01*
X119393204Y-89595889D01*
X119400927Y-89590108D01*
X119510261Y-89508261D01*
X119597887Y-89391207D01*
X119597887Y-89391206D01*
X119597889Y-89391204D01*
X119647096Y-89259276D01*
X119648988Y-89254204D01*
X119648990Y-89254196D01*
X119655499Y-89193649D01*
X119655500Y-89193632D01*
X119655500Y-87496367D01*
X119655499Y-87496350D01*
X119648990Y-87435803D01*
X119648988Y-87435795D01*
X119612811Y-87338804D01*
X119597889Y-87298796D01*
X119597888Y-87298794D01*
X119597887Y-87298792D01*
X119510261Y-87181738D01*
X119393207Y-87094112D01*
X119393202Y-87094110D01*
X119256204Y-87043011D01*
X119256196Y-87043009D01*
X119195649Y-87036500D01*
X119195638Y-87036500D01*
X117498362Y-87036500D01*
X117498350Y-87036500D01*
X117437803Y-87043009D01*
X117437795Y-87043011D01*
X117300797Y-87094110D01*
X117300792Y-87094112D01*
X117183738Y-87181738D01*
X117096112Y-87298792D01*
X117096110Y-87298797D01*
X117045011Y-87435795D01*
X117045009Y-87435803D01*
X117038500Y-87496350D01*
X117038500Y-89193649D01*
X117045009Y-89254196D01*
X117045011Y-89254204D01*
X117096110Y-89391202D01*
X117096112Y-89391207D01*
X117183738Y-89508261D01*
X117300792Y-89595887D01*
X117300794Y-89595888D01*
X117300796Y-89595889D01*
X117388288Y-89628522D01*
X117437037Y-89646705D01*
X117437799Y-89646989D01*
X117447191Y-89647998D01*
X117512784Y-89675163D01*
X117553279Y-89733479D01*
X117555817Y-89804430D01*
X117519593Y-89865490D01*
X117506010Y-89876483D01*
X117502708Y-89878795D01*
X117502697Y-89878804D01*
X117340804Y-90040697D01*
X117340799Y-90040703D01*
X117209477Y-90228250D01*
X117112717Y-90435753D01*
X117112715Y-90435759D01*
X117094531Y-90503624D01*
X117053457Y-90656913D01*
X117033502Y-90885000D01*
X117053457Y-91113087D01*
X117076396Y-91198696D01*
X117112715Y-91334240D01*
X117112717Y-91334246D01*
X117209477Y-91541749D01*
X117339630Y-91727627D01*
X117340802Y-91729300D01*
X117502700Y-91891198D01*
X117690251Y-92022523D01*
X117712301Y-92032805D01*
X117729457Y-92040805D01*
X117782742Y-92087722D01*
X117802203Y-92155999D01*
X117781661Y-92223959D01*
X117729457Y-92269195D01*
X117690250Y-92287477D01*
X117502703Y-92418799D01*
X117502697Y-92418804D01*
X117340804Y-92580697D01*
X117340799Y-92580703D01*
X117209477Y-92768250D01*
X117112717Y-92975753D01*
X117112715Y-92975759D01*
X117080638Y-93095471D01*
X117053457Y-93196913D01*
X117033502Y-93425000D01*
X117053457Y-93653087D01*
X117073609Y-93728296D01*
X117112715Y-93874240D01*
X117112717Y-93874246D01*
X117209477Y-94081749D01*
X117335197Y-94261296D01*
X117340802Y-94269300D01*
X117502700Y-94431198D01*
X117690251Y-94562523D01*
X117710873Y-94572139D01*
X117729457Y-94580805D01*
X117782742Y-94627722D01*
X117802203Y-94695999D01*
X117781661Y-94763959D01*
X117729457Y-94809195D01*
X117690250Y-94827477D01*
X117502703Y-94958799D01*
X117502697Y-94958804D01*
X117340804Y-95120697D01*
X117340799Y-95120703D01*
X117209477Y-95308250D01*
X117112717Y-95515753D01*
X117112715Y-95515759D01*
X117094531Y-95583624D01*
X117053457Y-95736913D01*
X117033502Y-95965000D01*
X117053457Y-96193087D01*
X117084018Y-96307142D01*
X117112715Y-96414240D01*
X117112717Y-96414246D01*
X117209477Y-96621749D01*
X117335197Y-96801296D01*
X117340802Y-96809300D01*
X117502700Y-96971198D01*
X117690251Y-97102523D01*
X117725359Y-97118894D01*
X117729457Y-97120805D01*
X117782742Y-97167722D01*
X117802203Y-97235999D01*
X117781661Y-97303959D01*
X117729457Y-97349195D01*
X117690250Y-97367477D01*
X117502703Y-97498799D01*
X117502697Y-97498804D01*
X117340804Y-97660697D01*
X117340799Y-97660703D01*
X117209477Y-97848250D01*
X117112717Y-98055753D01*
X117112715Y-98055759D01*
X117053457Y-98276913D01*
X117033502Y-98505000D01*
X117053457Y-98733086D01*
X117112715Y-98954240D01*
X117112717Y-98954246D01*
X117209477Y-99161749D01*
X117335197Y-99341296D01*
X117340802Y-99349300D01*
X117502700Y-99511198D01*
X117690251Y-99642523D01*
X117725359Y-99658894D01*
X117729457Y-99660805D01*
X117782742Y-99707722D01*
X117802203Y-99775999D01*
X117781661Y-99843959D01*
X117729457Y-99889195D01*
X117690250Y-99907477D01*
X117502703Y-100038799D01*
X117502697Y-100038804D01*
X117340804Y-100200697D01*
X117340799Y-100200703D01*
X117209477Y-100388250D01*
X117112717Y-100595753D01*
X117112715Y-100595759D01*
X117100712Y-100640555D01*
X117053457Y-100816913D01*
X117033502Y-101045000D01*
X117053457Y-101273087D01*
X117065521Y-101318109D01*
X117112715Y-101494240D01*
X117112717Y-101494246D01*
X117209477Y-101701749D01*
X117339445Y-101887363D01*
X117340802Y-101889300D01*
X117502700Y-102051198D01*
X117690251Y-102182523D01*
X117712891Y-102193080D01*
X117729457Y-102200805D01*
X117782742Y-102247722D01*
X117802203Y-102315999D01*
X117781661Y-102383959D01*
X117729457Y-102429195D01*
X117690250Y-102447477D01*
X117502703Y-102578799D01*
X117502697Y-102578804D01*
X117340804Y-102740697D01*
X117340799Y-102740703D01*
X117209477Y-102928250D01*
X117112717Y-103135753D01*
X117112715Y-103135759D01*
X117078420Y-103263751D01*
X117053457Y-103356913D01*
X117033502Y-103585000D01*
X112040498Y-103585000D01*
X112020543Y-103356913D01*
X111961284Y-103135757D01*
X111864523Y-102928251D01*
X111733198Y-102740700D01*
X111571300Y-102578802D01*
X111560420Y-102571184D01*
X111508998Y-102535177D01*
X111383749Y-102447477D01*
X111367521Y-102439910D01*
X111344543Y-102429195D01*
X111291258Y-102382279D01*
X111271796Y-102314002D01*
X111292337Y-102246042D01*
X111344543Y-102200805D01*
X111361109Y-102193080D01*
X111383749Y-102182523D01*
X111571300Y-102051198D01*
X111733198Y-101889300D01*
X111864523Y-101701749D01*
X111961284Y-101494243D01*
X112020543Y-101273087D01*
X112040498Y-101045000D01*
X112020543Y-100816913D01*
X111961284Y-100595757D01*
X111864523Y-100388251D01*
X111733198Y-100200700D01*
X111571300Y-100038802D01*
X111383749Y-99907477D01*
X111344543Y-99889195D01*
X111291258Y-99842279D01*
X111271796Y-99774002D01*
X111292337Y-99706042D01*
X111344543Y-99660805D01*
X111346997Y-99659660D01*
X111383749Y-99642523D01*
X111571300Y-99511198D01*
X111733198Y-99349300D01*
X111864523Y-99161749D01*
X111961284Y-98954243D01*
X112020543Y-98733087D01*
X112040498Y-98505000D01*
X112020543Y-98276913D01*
X111961284Y-98055757D01*
X111864523Y-97848251D01*
X111733198Y-97660700D01*
X111571300Y-97498802D01*
X111564950Y-97494356D01*
X111508998Y-97455177D01*
X111383749Y-97367477D01*
X111358499Y-97355703D01*
X111344543Y-97349195D01*
X111291258Y-97302279D01*
X111271796Y-97234002D01*
X111292337Y-97166042D01*
X111344543Y-97120805D01*
X111346997Y-97119660D01*
X111383749Y-97102523D01*
X111571300Y-96971198D01*
X111733198Y-96809300D01*
X111864523Y-96621749D01*
X111961284Y-96414243D01*
X112020543Y-96193087D01*
X112040498Y-95965000D01*
X112020543Y-95736913D01*
X111961284Y-95515757D01*
X111864523Y-95308251D01*
X111733198Y-95120700D01*
X111571300Y-94958802D01*
X111563412Y-94953279D01*
X111393443Y-94834265D01*
X111349115Y-94778808D01*
X111341806Y-94708189D01*
X111341946Y-94707443D01*
X111344805Y-94692455D01*
X111346525Y-94684754D01*
X111360500Y-94630330D01*
X111360500Y-94630318D01*
X111360641Y-94629208D01*
X111360998Y-94628387D01*
X111362472Y-94622650D01*
X111363396Y-94622887D01*
X111389017Y-94564129D01*
X111413379Y-94541776D01*
X111477935Y-94496572D01*
X111571300Y-94431198D01*
X111733198Y-94269300D01*
X111864523Y-94081749D01*
X111961284Y-93874243D01*
X112020543Y-93653087D01*
X112040498Y-93425000D01*
X112020543Y-93196913D01*
X111961284Y-92975757D01*
X111864523Y-92768251D01*
X111733198Y-92580700D01*
X111571300Y-92418802D01*
X111566304Y-92415304D01*
X111439305Y-92326378D01*
X111383749Y-92287477D01*
X111344543Y-92269195D01*
X111291258Y-92222279D01*
X111271796Y-92154002D01*
X111292337Y-92086042D01*
X111344543Y-92040805D01*
X111346997Y-92039660D01*
X111383749Y-92022523D01*
X111571300Y-91891198D01*
X111733198Y-91729300D01*
X111864523Y-91541749D01*
X111961284Y-91334243D01*
X112020543Y-91113087D01*
X112040498Y-90885000D01*
X112020543Y-90656913D01*
X111961284Y-90435757D01*
X111864523Y-90228251D01*
X111733198Y-90040700D01*
X111571300Y-89878802D01*
X111571291Y-89878796D01*
X111483466Y-89817300D01*
X111383749Y-89747477D01*
X111344543Y-89729195D01*
X111291258Y-89682279D01*
X111271796Y-89614002D01*
X111292337Y-89546042D01*
X111344543Y-89500805D01*
X111346997Y-89499660D01*
X111383749Y-89482523D01*
X111571300Y-89351198D01*
X111733198Y-89189300D01*
X111864523Y-89001749D01*
X111961284Y-88794243D01*
X112020543Y-88573087D01*
X112040498Y-88345000D01*
X112020543Y-88116913D01*
X111961284Y-87895757D01*
X111864523Y-87688251D01*
X111733198Y-87500700D01*
X111571300Y-87338802D01*
X111542734Y-87318800D01*
X111383749Y-87207477D01*
X111176246Y-87110717D01*
X111176240Y-87110715D01*
X111082771Y-87085670D01*
X110955087Y-87051457D01*
X110727000Y-87031502D01*
X110498913Y-87051457D01*
X110277759Y-87110715D01*
X110277753Y-87110717D01*
X110070250Y-87207477D01*
X109882703Y-87338799D01*
X109882697Y-87338804D01*
X109720804Y-87500697D01*
X109720799Y-87500703D01*
X109589477Y-87688250D01*
X109492717Y-87895753D01*
X109492715Y-87895759D01*
X109444841Y-88074427D01*
X109433457Y-88116913D01*
X109413502Y-88345000D01*
X109433457Y-88573087D01*
X109443436Y-88610327D01*
X109492715Y-88794240D01*
X109492717Y-88794246D01*
X109589477Y-89001749D01*
X109719609Y-89187597D01*
X109720802Y-89189300D01*
X109882700Y-89351198D01*
X110070251Y-89482523D01*
X110092301Y-89492805D01*
X110109457Y-89500805D01*
X110162742Y-89547722D01*
X110182203Y-89615999D01*
X110161661Y-89683959D01*
X110109457Y-89729195D01*
X110070250Y-89747477D01*
X109882703Y-89878799D01*
X109882697Y-89878804D01*
X109720804Y-90040697D01*
X109720799Y-90040703D01*
X109589477Y-90228250D01*
X109492717Y-90435753D01*
X109492715Y-90435759D01*
X109474531Y-90503624D01*
X109433457Y-90656913D01*
X109413502Y-90885000D01*
X109433457Y-91113087D01*
X109456396Y-91198696D01*
X109492715Y-91334240D01*
X109492717Y-91334246D01*
X109589477Y-91541749D01*
X109719630Y-91727627D01*
X109720802Y-91729300D01*
X109882700Y-91891198D01*
X110070251Y-92022523D01*
X110092301Y-92032805D01*
X110109457Y-92040805D01*
X110162742Y-92087722D01*
X110182203Y-92155999D01*
X110161661Y-92223959D01*
X110109457Y-92269195D01*
X110070250Y-92287477D01*
X109882703Y-92418799D01*
X109882697Y-92418804D01*
X109720804Y-92580697D01*
X109720799Y-92580703D01*
X109589477Y-92768250D01*
X109492717Y-92975753D01*
X109492715Y-92975759D01*
X109460638Y-93095471D01*
X109433457Y-93196913D01*
X109413502Y-93425000D01*
X109433457Y-93653087D01*
X109453609Y-93728296D01*
X109492715Y-93874240D01*
X109492717Y-93874246D01*
X109589478Y-94081752D01*
X109705416Y-94247329D01*
X109728104Y-94314603D01*
X109710819Y-94383463D01*
X109691299Y-94408694D01*
X109213038Y-94886956D01*
X109200603Y-94896919D01*
X109200791Y-94897146D01*
X109194682Y-94902199D01*
X109148070Y-94951835D01*
X109145320Y-94954673D01*
X109125563Y-94974431D01*
X109123074Y-94977639D01*
X109115388Y-94986636D01*
X109085118Y-95018873D01*
X109085111Y-95018883D01*
X109075351Y-95036635D01*
X109064503Y-95053150D01*
X109052086Y-95069158D01*
X109034524Y-95109740D01*
X109029304Y-95120395D01*
X109008005Y-95159139D01*
X109008003Y-95159144D01*
X109002967Y-95178759D01*
X108996564Y-95197462D01*
X108988519Y-95216052D01*
X108981601Y-95259725D01*
X108979195Y-95271342D01*
X108968200Y-95314168D01*
X108968200Y-95334423D01*
X108966649Y-95354133D01*
X108963480Y-95374142D01*
X108967641Y-95418161D01*
X108968200Y-95430019D01*
X108968200Y-106325704D01*
X108948198Y-106393825D01*
X108931295Y-106414799D01*
X103710246Y-111635847D01*
X103647934Y-111669873D01*
X103588540Y-111668459D01*
X103525090Y-111651457D01*
X103297000Y-111631502D01*
X103068913Y-111651457D01*
X102847759Y-111710715D01*
X102847753Y-111710717D01*
X102640250Y-111807477D01*
X102452703Y-111938799D01*
X102452697Y-111938804D01*
X102290804Y-112100697D01*
X102290799Y-112100703D01*
X102159477Y-112288250D01*
X102062717Y-112495753D01*
X102062715Y-112495759D01*
X102053100Y-112531644D01*
X102003457Y-112716913D01*
X101983502Y-112945000D01*
X99658500Y-112945000D01*
X99658500Y-112421493D01*
X99678502Y-112353372D01*
X99695400Y-112332403D01*
X107375957Y-104651845D01*
X107388392Y-104641884D01*
X107388205Y-104641657D01*
X107394316Y-104636601D01*
X107394315Y-104636601D01*
X107394318Y-104636600D01*
X107440976Y-104586912D01*
X107443667Y-104584135D01*
X107463435Y-104564369D01*
X107465914Y-104561171D01*
X107473599Y-104552171D01*
X107503886Y-104519921D01*
X107513645Y-104502167D01*
X107524504Y-104485638D01*
X107536914Y-104469640D01*
X107554477Y-104429051D01*
X107559696Y-104418401D01*
X107580995Y-104379660D01*
X107586033Y-104360035D01*
X107592438Y-104341330D01*
X107600481Y-104322745D01*
X107607396Y-104279081D01*
X107609804Y-104267452D01*
X107618458Y-104233749D01*
X107620800Y-104224630D01*
X107620800Y-104204375D01*
X107622351Y-104184663D01*
X107625520Y-104164657D01*
X107621359Y-104120636D01*
X107620800Y-104108779D01*
X107620800Y-100640555D01*
X107622549Y-100624714D01*
X107622256Y-100624687D01*
X107623001Y-100616794D01*
X107623002Y-100616791D01*
X107620862Y-100548713D01*
X107620800Y-100544754D01*
X107620800Y-100516849D01*
X107620800Y-100516844D01*
X107620292Y-100512830D01*
X107619361Y-100500997D01*
X107617973Y-100456810D01*
X107612322Y-100437363D01*
X107608312Y-100418000D01*
X107605774Y-100397903D01*
X107589495Y-100356790D01*
X107585653Y-100345569D01*
X107573318Y-100303107D01*
X107563006Y-100285670D01*
X107554310Y-100267921D01*
X107546852Y-100249083D01*
X107520852Y-100213298D01*
X107514359Y-100203414D01*
X107491842Y-100165338D01*
X107477514Y-100151010D01*
X107464684Y-100135989D01*
X107452772Y-100119593D01*
X107452769Y-100119591D01*
X107452769Y-100119590D01*
X107418700Y-100091405D01*
X107409921Y-100083417D01*
X106836114Y-99509609D01*
X106802089Y-99447297D01*
X106807154Y-99376481D01*
X106824745Y-99346298D01*
X106824043Y-99345806D01*
X106849822Y-99308989D01*
X106958523Y-99153749D01*
X107055284Y-98946243D01*
X107114543Y-98725087D01*
X107134498Y-98497000D01*
X107114543Y-98268913D01*
X107055284Y-98047757D01*
X106958523Y-97840251D01*
X106827198Y-97652700D01*
X106665300Y-97490802D01*
X106628080Y-97464740D01*
X106508229Y-97380819D01*
X106463901Y-97325362D01*
X106454500Y-97277606D01*
X106454500Y-97176393D01*
X106474502Y-97108272D01*
X106508230Y-97073180D01*
X106653872Y-96971200D01*
X106665300Y-96963198D01*
X106827198Y-96801300D01*
X106958523Y-96613749D01*
X107055284Y-96406243D01*
X107114543Y-96185087D01*
X107134498Y-95957000D01*
X107114543Y-95728913D01*
X107055284Y-95507757D01*
X106958523Y-95300251D01*
X106827198Y-95112700D01*
X106825913Y-95111169D01*
X106825557Y-95110356D01*
X106824043Y-95108194D01*
X106824477Y-95107889D01*
X106797441Y-95046131D01*
X106808652Y-94976025D01*
X106833327Y-94941075D01*
X107375759Y-94398643D01*
X107388193Y-94388684D01*
X107388005Y-94388457D01*
X107394116Y-94383401D01*
X107394115Y-94383401D01*
X107394118Y-94383400D01*
X107440776Y-94333712D01*
X107443467Y-94330935D01*
X107463234Y-94311170D01*
X107465717Y-94307967D01*
X107473408Y-94298962D01*
X107503686Y-94266721D01*
X107513445Y-94248967D01*
X107524297Y-94232446D01*
X107536713Y-94216441D01*
X107554273Y-94175862D01*
X107559483Y-94165225D01*
X107580795Y-94126460D01*
X107585833Y-94106835D01*
X107592238Y-94088130D01*
X107594998Y-94081752D01*
X107600281Y-94069545D01*
X107607196Y-94025881D01*
X107609604Y-94014252D01*
X107613099Y-94000641D01*
X107620600Y-93971430D01*
X107620600Y-93951175D01*
X107622151Y-93931463D01*
X107625320Y-93911457D01*
X107621159Y-93867436D01*
X107620600Y-93855579D01*
X107620600Y-92970955D01*
X107622349Y-92955114D01*
X107622056Y-92955087D01*
X107622801Y-92947194D01*
X107622802Y-92947191D01*
X107620662Y-92879113D01*
X107620600Y-92875154D01*
X107620600Y-92847249D01*
X107620600Y-92847244D01*
X107620092Y-92843230D01*
X107619161Y-92831397D01*
X107617773Y-92787210D01*
X107612122Y-92767763D01*
X107608112Y-92748400D01*
X107605574Y-92728303D01*
X107589295Y-92687190D01*
X107585453Y-92675969D01*
X107573118Y-92633507D01*
X107562805Y-92616069D01*
X107554110Y-92598322D01*
X107546652Y-92579483D01*
X107520668Y-92543720D01*
X107514151Y-92533799D01*
X107491641Y-92495735D01*
X107477318Y-92481412D01*
X107464477Y-92466379D01*
X107452571Y-92449992D01*
X107418505Y-92421810D01*
X107409726Y-92413821D01*
X106856659Y-91860754D01*
X106822633Y-91798442D01*
X106827698Y-91727627D01*
X106842541Y-91699388D01*
X106843517Y-91697992D01*
X106958523Y-91533749D01*
X107055284Y-91326243D01*
X107114543Y-91105087D01*
X107134498Y-90877000D01*
X107114543Y-90648913D01*
X107055284Y-90427757D01*
X106958523Y-90220251D01*
X106827198Y-90032700D01*
X106665300Y-89870802D01*
X106665295Y-89870799D01*
X106665292Y-89870796D01*
X106661995Y-89868487D01*
X106617669Y-89813028D01*
X106610363Y-89742409D01*
X106642396Y-89679049D01*
X106703599Y-89643067D01*
X106720801Y-89639999D01*
X106730201Y-89638989D01*
X106736604Y-89636601D01*
X106788589Y-89617211D01*
X106867204Y-89587889D01*
X106908307Y-89557120D01*
X106984261Y-89500261D01*
X107071887Y-89383207D01*
X107071887Y-89383206D01*
X107071889Y-89383204D01*
X107122989Y-89246201D01*
X107125021Y-89227307D01*
X107129499Y-89185649D01*
X107129500Y-89185632D01*
X107129500Y-87488367D01*
X107129499Y-87488350D01*
X107122990Y-87427803D01*
X107122988Y-87427795D01*
X107086811Y-87330804D01*
X107071889Y-87290796D01*
X107071888Y-87290794D01*
X107071887Y-87290792D01*
X106984261Y-87173738D01*
X106867207Y-87086112D01*
X106867202Y-87086110D01*
X106730204Y-87035011D01*
X106730196Y-87035009D01*
X106669649Y-87028500D01*
X106669638Y-87028500D01*
X104972362Y-87028500D01*
X104972350Y-87028500D01*
X104911803Y-87035009D01*
X104911795Y-87035011D01*
X104774797Y-87086110D01*
X104774792Y-87086112D01*
X104657738Y-87173738D01*
X104570112Y-87290792D01*
X104570110Y-87290797D01*
X104519011Y-87427795D01*
X104519009Y-87427803D01*
X104512500Y-87488350D01*
X104512500Y-89185649D01*
X104519009Y-89246196D01*
X104519011Y-89246204D01*
X104570110Y-89383202D01*
X104570112Y-89383207D01*
X104657738Y-89500261D01*
X104774792Y-89587887D01*
X104774794Y-89587888D01*
X104774796Y-89587889D01*
X104845110Y-89614115D01*
X104905396Y-89636601D01*
X104911799Y-89638989D01*
X104921191Y-89639998D01*
X104986784Y-89667163D01*
X105027279Y-89725479D01*
X105029817Y-89796430D01*
X104993593Y-89857490D01*
X104980010Y-89868483D01*
X104976708Y-89870795D01*
X104976697Y-89870804D01*
X104814804Y-90032697D01*
X104814799Y-90032703D01*
X104683477Y-90220250D01*
X104586717Y-90427753D01*
X104586715Y-90427759D01*
X104551369Y-90559671D01*
X104527457Y-90648913D01*
X104507502Y-90877000D01*
X104527457Y-91105087D01*
X104550687Y-91191781D01*
X104586715Y-91326240D01*
X104586717Y-91326246D01*
X104683477Y-91533749D01*
X104747143Y-91624674D01*
X104814802Y-91721300D01*
X104976700Y-91883198D01*
X105089246Y-91962004D01*
X105138392Y-91996416D01*
X105182720Y-92051873D01*
X105191872Y-92091714D01*
X105193775Y-92121951D01*
X105196321Y-92129787D01*
X105201493Y-92152926D01*
X105203519Y-92168960D01*
X105200247Y-92169373D01*
X105198308Y-92225224D01*
X105157874Y-92283582D01*
X105150988Y-92288764D01*
X104976703Y-92410799D01*
X104976697Y-92410804D01*
X104814804Y-92572697D01*
X104814799Y-92572703D01*
X104683477Y-92760250D01*
X104586717Y-92967753D01*
X104586715Y-92967759D01*
X104546441Y-93118064D01*
X104527457Y-93188913D01*
X104507502Y-93417000D01*
X104527457Y-93645087D01*
X104539037Y-93688304D01*
X104586715Y-93866240D01*
X104586717Y-93866246D01*
X104683477Y-94073749D01*
X104817957Y-94265806D01*
X104816358Y-94266925D01*
X104841367Y-94324096D01*
X104830138Y-94394199D01*
X104805473Y-94429120D01*
X103414636Y-95819957D01*
X103402201Y-95829921D01*
X103402389Y-95830148D01*
X103396279Y-95835202D01*
X103349670Y-95884835D01*
X103346920Y-95887673D01*
X103327163Y-95907431D01*
X103324674Y-95910639D01*
X103316988Y-95919636D01*
X103286718Y-95951873D01*
X103286711Y-95951883D01*
X103276951Y-95969635D01*
X103266103Y-95986150D01*
X103253686Y-96002158D01*
X103236124Y-96042740D01*
X103230904Y-96053395D01*
X103209605Y-96092139D01*
X103209603Y-96092144D01*
X103204567Y-96111759D01*
X103198164Y-96130462D01*
X103190119Y-96149052D01*
X103183201Y-96192725D01*
X103180795Y-96204342D01*
X103169800Y-96247168D01*
X103169800Y-96267423D01*
X103168249Y-96287133D01*
X103165080Y-96307142D01*
X103169241Y-96351161D01*
X103169800Y-96363019D01*
X103169800Y-101861074D01*
X103149798Y-101929195D01*
X103137437Y-101945384D01*
X103064257Y-102026659D01*
X102968776Y-102192038D01*
X102968773Y-102192044D01*
X102956781Y-102228950D01*
X102909757Y-102373672D01*
X102889796Y-102563600D01*
X102909757Y-102753527D01*
X102939479Y-102844999D01*
X102968773Y-102935156D01*
X102968776Y-102935161D01*
X103064258Y-103100541D01*
X103064265Y-103100551D01*
X103192044Y-103242464D01*
X103220905Y-103263433D01*
X103346548Y-103354718D01*
X103521012Y-103432394D01*
X103707813Y-103472100D01*
X103898787Y-103472100D01*
X104085588Y-103432394D01*
X104260052Y-103354718D01*
X104352857Y-103287290D01*
X104419722Y-103263433D01*
X104488873Y-103279512D01*
X104526878Y-103312522D01*
X104534918Y-103323000D01*
X105509314Y-103323000D01*
X105493359Y-103338955D01*
X105435835Y-103451852D01*
X105416014Y-103577000D01*
X105435835Y-103702148D01*
X105493359Y-103815045D01*
X105509314Y-103831000D01*
X104534918Y-103831000D01*
X104587186Y-104026068D01*
X104587188Y-104026073D01*
X104683912Y-104233498D01*
X104815184Y-104420974D01*
X104815189Y-104420980D01*
X104977019Y-104582810D01*
X104977025Y-104582815D01*
X105164501Y-104714087D01*
X105245159Y-104751699D01*
X105298444Y-104798616D01*
X105317905Y-104866894D01*
X105297363Y-104934854D01*
X105281004Y-104954989D01*
X98636336Y-111599657D01*
X98623901Y-111609621D01*
X98624089Y-111609848D01*
X98617979Y-111614902D01*
X98571370Y-111664535D01*
X98568620Y-111667373D01*
X98548863Y-111687131D01*
X98546374Y-111690339D01*
X98538688Y-111699336D01*
X98508418Y-111731573D01*
X98508411Y-111731583D01*
X98498651Y-111749335D01*
X98487803Y-111765850D01*
X98475386Y-111781858D01*
X98457824Y-111822440D01*
X98452604Y-111833095D01*
X98431305Y-111871839D01*
X98431303Y-111871844D01*
X98426267Y-111891459D01*
X98419864Y-111910162D01*
X98411819Y-111928752D01*
X98404901Y-111972425D01*
X98402495Y-111984042D01*
X98391500Y-112026868D01*
X98391500Y-112047123D01*
X98389949Y-112066833D01*
X98386780Y-112086842D01*
X98390941Y-112130861D01*
X98391500Y-112142719D01*
X98391500Y-132019000D01*
X98371498Y-132087121D01*
X98317842Y-132133614D01*
X98265500Y-132145000D01*
X94842900Y-132145000D01*
X94774779Y-132124998D01*
X94728286Y-132071342D01*
X94716900Y-132019000D01*
X94716900Y-97825324D01*
X94736902Y-97757203D01*
X94749258Y-97741020D01*
X94822440Y-97659744D01*
X94917927Y-97494356D01*
X94976942Y-97312728D01*
X94996904Y-97122800D01*
X94976942Y-96932872D01*
X94917927Y-96751244D01*
X94822440Y-96585856D01*
X94822438Y-96585854D01*
X94822434Y-96585848D01*
X94694655Y-96443935D01*
X94540152Y-96331682D01*
X94365688Y-96254006D01*
X94178887Y-96214300D01*
X93987913Y-96214300D01*
X93987909Y-96214300D01*
X93968994Y-96218320D01*
X93898203Y-96212917D01*
X93841572Y-96170099D01*
X93817079Y-96103460D01*
X93816800Y-96095073D01*
X93816800Y-92266194D01*
X93836802Y-92198073D01*
X93890458Y-92151580D01*
X93960732Y-92141476D01*
X94025312Y-92170970D01*
X94031895Y-92177099D01*
X96405295Y-94550499D01*
X96439321Y-94612811D01*
X96442200Y-94639594D01*
X96442200Y-101523946D01*
X96440451Y-101539788D01*
X96440744Y-101539816D01*
X96439998Y-101547707D01*
X96439998Y-101547709D01*
X96441798Y-101604969D01*
X96442138Y-101615784D01*
X96442200Y-101619743D01*
X96442200Y-101647651D01*
X96442201Y-101647669D01*
X96442707Y-101651677D01*
X96443637Y-101663496D01*
X96445026Y-101707688D01*
X96445027Y-101707693D01*
X96450677Y-101727139D01*
X96454686Y-101746497D01*
X96457225Y-101766593D01*
X96457226Y-101766600D01*
X96473500Y-101807703D01*
X96477344Y-101818929D01*
X96489682Y-101861393D01*
X96499994Y-101878831D01*
X96508688Y-101896579D01*
X96516144Y-101915409D01*
X96516150Y-101915420D01*
X96542132Y-101951181D01*
X96548649Y-101961101D01*
X96571158Y-101999162D01*
X96571159Y-101999163D01*
X96571161Y-101999166D01*
X96585479Y-102013484D01*
X96598317Y-102028514D01*
X96610226Y-102044904D01*
X96610230Y-102044909D01*
X96644292Y-102073087D01*
X96653073Y-102081077D01*
X97165300Y-102593305D01*
X97199325Y-102655617D01*
X97194260Y-102726433D01*
X97179417Y-102754671D01*
X97063477Y-102920250D01*
X96966717Y-103127753D01*
X96966715Y-103127759D01*
X96931369Y-103259671D01*
X96907457Y-103348913D01*
X96887502Y-103577000D01*
X96907457Y-103805087D01*
X96924719Y-103869510D01*
X96966715Y-104026240D01*
X96966717Y-104026246D01*
X97031259Y-104164657D01*
X97063477Y-104233749D01*
X97194802Y-104421300D01*
X97356700Y-104583198D01*
X97544251Y-104714523D01*
X97751757Y-104811284D01*
X97972913Y-104870543D01*
X98201000Y-104890498D01*
X98429087Y-104870543D01*
X98650243Y-104811284D01*
X98857749Y-104714523D01*
X99045300Y-104583198D01*
X99207198Y-104421300D01*
X99338523Y-104233749D01*
X99435284Y-104026243D01*
X99494543Y-103805087D01*
X99514498Y-103577000D01*
X99494543Y-103348913D01*
X99435284Y-103127757D01*
X99338523Y-102920251D01*
X99207198Y-102732700D01*
X99045300Y-102570802D01*
X98883607Y-102457583D01*
X98839279Y-102402126D01*
X98830126Y-102362283D01*
X98828225Y-102332050D01*
X98825678Y-102324212D01*
X98820505Y-102301069D01*
X98819474Y-102292903D01*
X98819473Y-102292901D01*
X98818480Y-102285033D01*
X98821779Y-102284616D01*
X98823633Y-102228950D01*
X98863982Y-102170533D01*
X98871000Y-102165244D01*
X99045300Y-102043198D01*
X99207198Y-101881300D01*
X99338523Y-101693749D01*
X99435284Y-101486243D01*
X99494543Y-101265087D01*
X99514498Y-101037000D01*
X99494543Y-100808913D01*
X99435284Y-100587757D01*
X99338523Y-100380251D01*
X99207198Y-100192700D01*
X99045300Y-100030802D01*
X99045296Y-100030799D01*
X98888229Y-99920819D01*
X98843901Y-99865362D01*
X98834500Y-99817606D01*
X98834500Y-99716393D01*
X98854502Y-99648272D01*
X98888230Y-99613180D01*
X98923392Y-99588558D01*
X99045300Y-99503198D01*
X99207198Y-99341300D01*
X99338523Y-99153749D01*
X99435284Y-98946243D01*
X99494543Y-98725087D01*
X99514498Y-98497000D01*
X99494543Y-98268913D01*
X99435284Y-98047757D01*
X99338523Y-97840251D01*
X99207198Y-97652700D01*
X99045300Y-97490802D01*
X99008080Y-97464740D01*
X98888229Y-97380819D01*
X98843901Y-97325362D01*
X98834500Y-97277606D01*
X98834500Y-97176393D01*
X98854502Y-97108272D01*
X98888230Y-97073180D01*
X99033872Y-96971200D01*
X99045300Y-96963198D01*
X99207198Y-96801300D01*
X99338523Y-96613749D01*
X99435284Y-96406243D01*
X99494543Y-96185087D01*
X99514498Y-95957000D01*
X99494543Y-95728913D01*
X99435284Y-95507757D01*
X99338523Y-95300251D01*
X99207198Y-95112700D01*
X99045300Y-94950802D01*
X98857749Y-94819477D01*
X98818543Y-94801195D01*
X98765258Y-94754279D01*
X98745796Y-94686002D01*
X98766337Y-94618042D01*
X98818543Y-94572805D01*
X98820997Y-94571660D01*
X98857749Y-94554523D01*
X99045300Y-94423198D01*
X99207198Y-94261300D01*
X99338523Y-94073749D01*
X99435284Y-93866243D01*
X99494543Y-93645087D01*
X99514498Y-93417000D01*
X99494543Y-93188913D01*
X99435284Y-92967757D01*
X99338523Y-92760251D01*
X99207198Y-92572700D01*
X99045300Y-92410802D01*
X98857749Y-92279477D01*
X98818543Y-92261195D01*
X98765258Y-92214279D01*
X98745796Y-92146002D01*
X98766337Y-92078042D01*
X98818543Y-92032805D01*
X98834500Y-92025364D01*
X98857749Y-92014523D01*
X99045300Y-91883198D01*
X99207198Y-91721300D01*
X99338523Y-91533749D01*
X99435284Y-91326243D01*
X99494543Y-91105087D01*
X99514498Y-90877000D01*
X99494543Y-90648913D01*
X99435284Y-90427757D01*
X99338523Y-90220251D01*
X99207198Y-90032700D01*
X99045300Y-89870802D01*
X99045291Y-89870796D01*
X98950511Y-89804430D01*
X98857749Y-89739477D01*
X98818543Y-89721195D01*
X98765258Y-89674279D01*
X98745796Y-89606002D01*
X98766337Y-89538042D01*
X98818543Y-89492805D01*
X98820997Y-89491660D01*
X98857749Y-89474523D01*
X99045300Y-89343198D01*
X99207198Y-89181300D01*
X99338523Y-88993749D01*
X99435284Y-88786243D01*
X99494543Y-88565087D01*
X99514498Y-88337000D01*
X99494543Y-88108913D01*
X99435284Y-87887757D01*
X99338523Y-87680251D01*
X99207198Y-87492700D01*
X99045300Y-87330802D01*
X99028159Y-87318800D01*
X98857749Y-87199477D01*
X98650246Y-87102717D01*
X98650240Y-87102715D01*
X98556771Y-87077670D01*
X98429087Y-87043457D01*
X98201000Y-87023502D01*
X97972913Y-87043457D01*
X97751759Y-87102715D01*
X97751753Y-87102717D01*
X97544250Y-87199477D01*
X97356703Y-87330799D01*
X97356697Y-87330804D01*
X97194804Y-87492697D01*
X97194799Y-87492703D01*
X97063477Y-87680250D01*
X96966717Y-87887753D01*
X96966715Y-87887759D01*
X96912530Y-88089981D01*
X96907457Y-88108913D01*
X96887502Y-88337000D01*
X96907457Y-88565087D01*
X96919811Y-88611191D01*
X96966715Y-88786240D01*
X96966717Y-88786246D01*
X97063477Y-88993749D01*
X97163939Y-89137224D01*
X97194802Y-89181300D01*
X97356700Y-89343198D01*
X97544251Y-89474523D01*
X97579359Y-89490894D01*
X97583457Y-89492805D01*
X97636742Y-89539722D01*
X97656203Y-89607999D01*
X97635661Y-89675959D01*
X97583457Y-89721195D01*
X97544250Y-89739477D01*
X97356703Y-89870799D01*
X97356697Y-89870804D01*
X97194804Y-90032697D01*
X97194799Y-90032703D01*
X97063477Y-90220250D01*
X96966717Y-90427753D01*
X96966715Y-90427759D01*
X96931369Y-90559671D01*
X96907457Y-90648913D01*
X96887502Y-90877000D01*
X96907457Y-91105087D01*
X96930687Y-91191781D01*
X96966715Y-91326240D01*
X96966717Y-91326246D01*
X97063477Y-91533749D01*
X97127143Y-91624674D01*
X97194802Y-91721300D01*
X97356700Y-91883198D01*
X97544251Y-92014523D01*
X97567500Y-92025364D01*
X97583457Y-92032805D01*
X97636742Y-92079722D01*
X97656203Y-92147999D01*
X97635661Y-92215959D01*
X97583457Y-92261195D01*
X97544250Y-92279477D01*
X97356703Y-92410799D01*
X97356697Y-92410804D01*
X97194804Y-92572697D01*
X97194799Y-92572703D01*
X97063477Y-92760250D01*
X96966717Y-92967753D01*
X96966715Y-92967759D01*
X96948739Y-93034848D01*
X96911787Y-93095471D01*
X96847926Y-93126492D01*
X96777432Y-93118064D01*
X96737937Y-93091332D01*
X91899544Y-88252939D01*
X91889579Y-88240501D01*
X91889352Y-88240690D01*
X91884301Y-88234584D01*
X91884300Y-88234582D01*
X91865766Y-88217178D01*
X91834649Y-88187957D01*
X91831805Y-88185200D01*
X91812077Y-88165471D01*
X91812071Y-88165466D01*
X91808867Y-88162980D01*
X91799856Y-88155283D01*
X91767625Y-88125017D01*
X91767619Y-88125013D01*
X91749863Y-88115251D01*
X91733347Y-88104402D01*
X91717341Y-88091986D01*
X91676764Y-88074427D01*
X91666107Y-88069205D01*
X91627363Y-88047906D01*
X91627360Y-88047905D01*
X91607736Y-88042866D01*
X91589036Y-88036464D01*
X91584234Y-88034386D01*
X91570445Y-88028419D01*
X91570443Y-88028418D01*
X91570441Y-88028418D01*
X91526774Y-88021501D01*
X91515155Y-88019095D01*
X91472330Y-88008100D01*
X91452076Y-88008100D01*
X91432366Y-88006549D01*
X91412357Y-88003380D01*
X91368339Y-88007541D01*
X91356481Y-88008100D01*
X89545922Y-88008100D01*
X89477801Y-87988098D01*
X89431308Y-87934442D01*
X89421204Y-87864168D01*
X89424215Y-87849490D01*
X89432758Y-87817608D01*
X89451359Y-87605000D01*
X89432758Y-87392392D01*
X89377521Y-87186245D01*
X89287326Y-86992821D01*
X89164913Y-86817997D01*
X89014003Y-86667087D01*
X89014002Y-86667086D01*
X88890515Y-86580619D01*
X88846187Y-86525162D01*
X88838878Y-86454542D01*
X88870909Y-86391182D01*
X88873659Y-86388343D01*
X93702703Y-81559300D01*
X95084896Y-81559300D01*
X95104857Y-81749227D01*
X95124990Y-81811188D01*
X95163873Y-81930856D01*
X95163876Y-81930861D01*
X95259358Y-82096241D01*
X95259365Y-82096251D01*
X95387144Y-82238164D01*
X95423284Y-82264421D01*
X95541648Y-82350418D01*
X95716112Y-82428094D01*
X95902913Y-82467800D01*
X95958806Y-82467800D01*
X96026927Y-82487802D01*
X96047901Y-82504705D01*
X98379853Y-84836657D01*
X98389820Y-84849097D01*
X98390047Y-84848910D01*
X98395099Y-84855017D01*
X98444766Y-84901657D01*
X98447610Y-84904414D01*
X98467330Y-84924134D01*
X98470516Y-84926605D01*
X98479546Y-84934317D01*
X98511779Y-84964586D01*
X98529527Y-84974342D01*
X98546057Y-84985201D01*
X98562059Y-84997614D01*
X98602642Y-85015175D01*
X98613293Y-85020393D01*
X98652040Y-85041695D01*
X98652048Y-85041697D01*
X98671658Y-85046732D01*
X98690367Y-85053137D01*
X98708955Y-85061181D01*
X98752630Y-85068098D01*
X98764241Y-85070502D01*
X98807070Y-85081500D01*
X98827324Y-85081500D01*
X98847034Y-85083051D01*
X98849241Y-85083400D01*
X98867043Y-85086220D01*
X98911061Y-85082058D01*
X98922919Y-85081500D01*
X101232500Y-85081500D01*
X101300621Y-85101502D01*
X101326137Y-85123190D01*
X101329447Y-85126866D01*
X101483948Y-85239118D01*
X101658412Y-85316794D01*
X101845213Y-85356500D01*
X102036187Y-85356500D01*
X102222988Y-85316794D01*
X102397452Y-85239118D01*
X102551953Y-85126866D01*
X102591404Y-85083051D01*
X102679734Y-84984951D01*
X102679735Y-84984949D01*
X102679740Y-84984944D01*
X102775227Y-84819556D01*
X102834242Y-84637928D01*
X102854204Y-84448000D01*
X102834242Y-84258072D01*
X102775227Y-84076444D01*
X102679740Y-83911056D01*
X102679738Y-83911054D01*
X102679734Y-83911048D01*
X102551955Y-83769135D01*
X102397452Y-83656882D01*
X102222988Y-83579206D01*
X102036187Y-83539500D01*
X101845213Y-83539500D01*
X101658411Y-83579206D01*
X101483947Y-83656882D01*
X101329447Y-83769133D01*
X101326137Y-83772810D01*
X101265691Y-83810050D01*
X101232500Y-83814500D01*
X100734142Y-83814500D01*
X100666021Y-83794498D01*
X100619528Y-83740842D01*
X100609424Y-83670568D01*
X100619947Y-83635250D01*
X100620494Y-83634076D01*
X100705284Y-83452243D01*
X100764543Y-83231087D01*
X100784498Y-83003000D01*
X103158004Y-83003000D01*
X103177951Y-83231002D01*
X103237186Y-83452068D01*
X103237188Y-83452073D01*
X103333913Y-83659501D01*
X103383899Y-83730888D01*
X104072272Y-83042516D01*
X104085835Y-83128148D01*
X104143359Y-83241045D01*
X104232955Y-83330641D01*
X104345852Y-83388165D01*
X104431482Y-83401727D01*
X103743110Y-84090098D01*
X103743110Y-84090100D01*
X103814498Y-84140086D01*
X104021926Y-84236811D01*
X104021931Y-84236813D01*
X104242999Y-84296048D01*
X104242995Y-84296048D01*
X104471000Y-84315995D01*
X104699002Y-84296048D01*
X104920068Y-84236813D01*
X104920073Y-84236811D01*
X105127497Y-84140088D01*
X105198888Y-84090099D01*
X105198888Y-84090097D01*
X104510518Y-83401727D01*
X104596148Y-83388165D01*
X104709045Y-83330641D01*
X104798641Y-83241045D01*
X104856165Y-83128148D01*
X104869727Y-83042518D01*
X105558097Y-83730888D01*
X105558099Y-83730888D01*
X105608088Y-83659497D01*
X105704811Y-83452073D01*
X105704813Y-83452068D01*
X105764048Y-83231002D01*
X105780321Y-83045000D01*
X110684004Y-83045000D01*
X110703951Y-83273002D01*
X110763186Y-83494068D01*
X110763188Y-83494073D01*
X110859913Y-83701501D01*
X110909899Y-83772888D01*
X111598272Y-83084516D01*
X111611835Y-83170148D01*
X111669359Y-83283045D01*
X111758955Y-83372641D01*
X111871852Y-83430165D01*
X111957482Y-83443727D01*
X111269110Y-84132098D01*
X111269110Y-84132100D01*
X111340498Y-84182086D01*
X111547926Y-84278811D01*
X111547931Y-84278813D01*
X111768999Y-84338048D01*
X111768995Y-84338048D01*
X111997000Y-84357995D01*
X112225002Y-84338048D01*
X112446068Y-84278813D01*
X112446073Y-84278811D01*
X112653497Y-84182088D01*
X112724888Y-84132099D01*
X112724888Y-84132097D01*
X112036518Y-83443727D01*
X112122148Y-83430165D01*
X112235045Y-83372641D01*
X112324641Y-83283045D01*
X112382165Y-83170148D01*
X112395727Y-83084518D01*
X113084097Y-83772888D01*
X113084099Y-83772888D01*
X113134088Y-83701497D01*
X113230811Y-83494073D01*
X113230813Y-83494068D01*
X113290048Y-83273002D01*
X113309995Y-83045000D01*
X115683502Y-83045000D01*
X115703457Y-83273087D01*
X115718879Y-83330641D01*
X115762715Y-83494240D01*
X115762717Y-83494246D01*
X115839892Y-83659749D01*
X115859477Y-83701749D01*
X115990802Y-83889300D01*
X116152700Y-84051198D01*
X116340251Y-84182523D01*
X116547757Y-84279284D01*
X116768913Y-84338543D01*
X116997000Y-84358498D01*
X117225087Y-84338543D01*
X117446243Y-84279284D01*
X117653749Y-84182523D01*
X117841300Y-84051198D01*
X118003198Y-83889300D01*
X118134523Y-83701749D01*
X118231284Y-83494243D01*
X118290543Y-83273087D01*
X118310498Y-83045000D01*
X118290543Y-82816913D01*
X118273540Y-82753458D01*
X118275229Y-82682483D01*
X118306149Y-82631754D01*
X119198560Y-81739343D01*
X119210998Y-81729380D01*
X119210810Y-81729153D01*
X119216916Y-81724101D01*
X119216915Y-81724101D01*
X119216918Y-81724100D01*
X119263561Y-81674428D01*
X119266283Y-81671621D01*
X119281718Y-81656186D01*
X119296734Y-81643360D01*
X119421153Y-81552966D01*
X119437698Y-81534591D01*
X119548934Y-81411051D01*
X119548935Y-81411049D01*
X119548940Y-81411044D01*
X119644427Y-81245656D01*
X119703442Y-81064028D01*
X119723404Y-80874100D01*
X119703442Y-80684172D01*
X119644427Y-80502544D01*
X119548940Y-80337156D01*
X119548938Y-80337154D01*
X119548934Y-80337148D01*
X119421155Y-80195235D01*
X119266652Y-80082982D01*
X119092188Y-80005306D01*
X118905387Y-79965600D01*
X118714413Y-79965600D01*
X118527611Y-80005306D01*
X118353147Y-80082982D01*
X118198644Y-80195235D01*
X118070865Y-80337148D01*
X118070858Y-80337158D01*
X117975376Y-80502538D01*
X117975373Y-80502545D01*
X117916357Y-80684172D01*
X117896396Y-80874100D01*
X117916357Y-81064030D01*
X117933135Y-81115666D01*
X117935162Y-81186633D01*
X117902397Y-81243696D01*
X117410246Y-81735847D01*
X117347934Y-81769873D01*
X117288540Y-81768459D01*
X117225090Y-81751457D01*
X116997000Y-81731502D01*
X116768913Y-81751457D01*
X116547759Y-81810715D01*
X116547753Y-81810717D01*
X116340250Y-81907477D01*
X116152703Y-82038799D01*
X116152697Y-82038804D01*
X115990804Y-82200697D01*
X115990799Y-82200703D01*
X115859477Y-82388250D01*
X115762717Y-82595753D01*
X115762715Y-82595759D01*
X115720032Y-82755056D01*
X115703457Y-82816913D01*
X115683502Y-83045000D01*
X113309995Y-83045000D01*
X113290048Y-82816997D01*
X113230813Y-82595931D01*
X113230811Y-82595926D01*
X113134086Y-82388498D01*
X113084100Y-82317110D01*
X113084098Y-82317110D01*
X112395727Y-83005481D01*
X112382165Y-82919852D01*
X112324641Y-82806955D01*
X112235045Y-82717359D01*
X112122148Y-82659835D01*
X112036517Y-82646272D01*
X112724888Y-81957899D01*
X112724888Y-81957898D01*
X112653501Y-81907913D01*
X112446073Y-81811188D01*
X112446068Y-81811186D01*
X112225000Y-81751951D01*
X112225004Y-81751951D01*
X111997000Y-81732004D01*
X111768997Y-81751951D01*
X111547931Y-81811186D01*
X111547926Y-81811188D01*
X111340500Y-81907913D01*
X111269109Y-81957900D01*
X111957481Y-82646272D01*
X111871852Y-82659835D01*
X111758955Y-82717359D01*
X111669359Y-82806955D01*
X111611835Y-82919852D01*
X111598272Y-83005481D01*
X110909900Y-82317109D01*
X110859913Y-82388500D01*
X110763188Y-82595926D01*
X110763186Y-82595931D01*
X110703951Y-82816997D01*
X110684004Y-83045000D01*
X105780321Y-83045000D01*
X105783995Y-83003000D01*
X105764048Y-82774997D01*
X105704813Y-82553931D01*
X105704811Y-82553926D01*
X105608086Y-82346498D01*
X105558100Y-82275110D01*
X105558098Y-82275110D01*
X104869727Y-82963481D01*
X104856165Y-82877852D01*
X104798641Y-82764955D01*
X104709045Y-82675359D01*
X104596148Y-82617835D01*
X104510517Y-82604272D01*
X105198888Y-81915899D01*
X105198888Y-81915898D01*
X105127501Y-81865913D01*
X104920073Y-81769188D01*
X104920068Y-81769186D01*
X104699000Y-81709951D01*
X104699004Y-81709951D01*
X104471000Y-81690004D01*
X104242997Y-81709951D01*
X104021931Y-81769186D01*
X104021926Y-81769188D01*
X103814500Y-81865913D01*
X103743109Y-81915900D01*
X104431481Y-82604272D01*
X104345852Y-82617835D01*
X104232955Y-82675359D01*
X104143359Y-82764955D01*
X104085835Y-82877852D01*
X104072272Y-82963481D01*
X103383900Y-82275109D01*
X103333913Y-82346500D01*
X103237188Y-82553926D01*
X103237186Y-82553931D01*
X103177951Y-82774997D01*
X103158004Y-83003000D01*
X100784498Y-83003000D01*
X100764543Y-82774913D01*
X100705284Y-82553757D01*
X100608523Y-82346251D01*
X100477198Y-82158700D01*
X100315300Y-81996802D01*
X100295150Y-81982693D01*
X100127749Y-81865477D01*
X99920246Y-81768717D01*
X99920240Y-81768715D01*
X99781359Y-81731502D01*
X99699087Y-81709457D01*
X99471000Y-81689502D01*
X99242913Y-81709457D01*
X99021759Y-81768715D01*
X99021753Y-81768717D01*
X98814250Y-81865477D01*
X98626703Y-81996799D01*
X98626697Y-81996804D01*
X98464804Y-82158697D01*
X98464799Y-82158703D01*
X98333477Y-82346250D01*
X98236717Y-82553753D01*
X98236713Y-82553764D01*
X98219667Y-82617380D01*
X98182715Y-82678002D01*
X98118854Y-82709023D01*
X98048360Y-82700593D01*
X98008866Y-82673862D01*
X97554042Y-82219038D01*
X96945519Y-81610514D01*
X96911495Y-81548205D01*
X96909308Y-81534609D01*
X96891942Y-81369372D01*
X96832927Y-81187744D01*
X96737440Y-81022356D01*
X96737438Y-81022354D01*
X96737434Y-81022348D01*
X96609655Y-80880435D01*
X96455152Y-80768182D01*
X96280688Y-80690506D01*
X96093887Y-80650800D01*
X95902913Y-80650800D01*
X95716111Y-80690506D01*
X95541647Y-80768182D01*
X95387144Y-80880435D01*
X95259365Y-81022348D01*
X95259358Y-81022358D01*
X95163876Y-81187738D01*
X95163873Y-81187745D01*
X95104857Y-81369372D01*
X95084896Y-81559300D01*
X93702703Y-81559300D01*
X95342899Y-79919105D01*
X95405211Y-79885079D01*
X95431994Y-79882200D01*
X95828568Y-79882200D01*
X95879817Y-79893093D01*
X95969212Y-79932894D01*
X96156013Y-79972600D01*
X96346987Y-79972600D01*
X96533788Y-79932894D01*
X96708252Y-79855218D01*
X96862753Y-79742966D01*
X96956543Y-79638802D01*
X96990534Y-79601051D01*
X96990535Y-79601049D01*
X96990540Y-79601044D01*
X97086027Y-79435656D01*
X97145042Y-79254028D01*
X97165004Y-79064100D01*
X97145042Y-78874172D01*
X97086027Y-78692544D01*
X96990540Y-78527156D01*
X96990538Y-78527154D01*
X96990534Y-78527148D01*
X96862755Y-78385235D01*
X96708252Y-78272982D01*
X96533788Y-78195306D01*
X96346987Y-78155600D01*
X96203641Y-78155600D01*
X96135520Y-78135598D01*
X96094522Y-78092600D01*
X96094178Y-78092005D01*
X96033240Y-77986456D01*
X96033238Y-77986454D01*
X96033234Y-77986448D01*
X95905455Y-77844535D01*
X95750952Y-77732282D01*
X95576488Y-77654606D01*
X95389687Y-77614900D01*
X95198713Y-77614900D01*
X95011911Y-77654606D01*
X94837447Y-77732282D01*
X94682949Y-77844532D01*
X94682946Y-77844534D01*
X94658737Y-77871420D01*
X94611488Y-77904258D01*
X94568693Y-77921202D01*
X94557464Y-77925046D01*
X94515009Y-77937380D01*
X94497564Y-77947697D01*
X94479818Y-77956390D01*
X94460982Y-77963848D01*
X94425210Y-77989837D01*
X94415294Y-77996351D01*
X94377237Y-78018858D01*
X94362911Y-78033184D01*
X94347885Y-78046017D01*
X94331495Y-78057925D01*
X94331493Y-78057927D01*
X94303300Y-78092005D01*
X94295313Y-78100781D01*
X86027741Y-86368352D01*
X85965429Y-86402378D01*
X85906035Y-86400964D01*
X85899611Y-86399242D01*
X85687000Y-86380641D01*
X85474392Y-86399242D01*
X85419156Y-86414042D01*
X85268246Y-86454478D01*
X85268241Y-86454480D01*
X85074817Y-86544675D01*
X85015270Y-86586371D01*
X84947996Y-86609059D01*
X84879136Y-86591774D01*
X84830552Y-86540004D01*
X84817000Y-86483158D01*
X84817000Y-80645000D01*
X85333502Y-80645000D01*
X85353457Y-80873087D01*
X85377730Y-80963675D01*
X85412715Y-81094240D01*
X85412717Y-81094246D01*
X85483323Y-81245661D01*
X85509477Y-81301749D01*
X85640802Y-81489300D01*
X85802700Y-81651198D01*
X85990251Y-81782523D01*
X86197757Y-81879284D01*
X86418913Y-81938543D01*
X86647000Y-81958498D01*
X86875087Y-81938543D01*
X87096243Y-81879284D01*
X87303749Y-81782523D01*
X87491300Y-81651198D01*
X87653198Y-81489300D01*
X87784523Y-81301749D01*
X87881284Y-81094243D01*
X87940543Y-80873087D01*
X87960498Y-80645000D01*
X87940543Y-80416913D01*
X87881284Y-80195757D01*
X87784523Y-79988251D01*
X87653198Y-79800700D01*
X87491300Y-79638802D01*
X87375757Y-79557898D01*
X87303749Y-79507477D01*
X87096246Y-79410717D01*
X87096240Y-79410715D01*
X87002771Y-79385670D01*
X86875087Y-79351457D01*
X86647000Y-79331502D01*
X86418913Y-79351457D01*
X86197759Y-79410715D01*
X86197753Y-79410717D01*
X85990250Y-79507477D01*
X85802703Y-79638799D01*
X85802697Y-79638804D01*
X85640804Y-79800697D01*
X85640799Y-79800703D01*
X85509477Y-79988250D01*
X85412717Y-80195753D01*
X85412715Y-80195759D01*
X85379048Y-80321405D01*
X85353457Y-80416913D01*
X85333502Y-80645000D01*
X84817000Y-80645000D01*
X84817000Y-78114524D01*
X84837002Y-78046403D01*
X84849358Y-78030220D01*
X84922540Y-77948944D01*
X85018027Y-77783556D01*
X85077042Y-77601928D01*
X85097004Y-77412000D01*
X85077042Y-77222072D01*
X85018027Y-77040444D01*
X84922540Y-76875056D01*
X84922538Y-76875054D01*
X84922534Y-76875048D01*
X84794755Y-76733135D01*
X84640252Y-76620882D01*
X84465788Y-76543206D01*
X84300721Y-76508119D01*
X84238249Y-76474391D01*
X84203927Y-76412242D01*
X84208655Y-76341403D01*
X84237822Y-76295780D01*
X99230099Y-61303505D01*
X99292411Y-61269479D01*
X99319194Y-61266600D01*
X99676217Y-61266600D01*
X99744338Y-61286602D01*
X99790831Y-61340258D01*
X99800935Y-61410532D01*
X99798361Y-61423531D01*
X99747437Y-61624624D01*
X99728844Y-61849000D01*
X99747437Y-62073375D01*
X99802702Y-62291612D01*
X99802703Y-62291613D01*
X99802704Y-62291616D01*
X99879874Y-62467548D01*
X99893141Y-62497793D01*
X100016275Y-62686265D01*
X100016279Y-62686270D01*
X100168762Y-62851908D01*
X100257592Y-62921047D01*
X100346424Y-62990189D01*
X100392471Y-63015108D01*
X100442859Y-63065118D01*
X100458500Y-63125920D01*
X100458500Y-68640846D01*
X100456751Y-68656688D01*
X100457044Y-68656716D01*
X100456298Y-68664607D01*
X100458438Y-68732684D01*
X100458500Y-68736643D01*
X100458500Y-68764551D01*
X100458501Y-68764569D01*
X100459007Y-68768577D01*
X100459937Y-68780396D01*
X100461326Y-68824588D01*
X100461327Y-68824593D01*
X100466977Y-68844039D01*
X100470986Y-68863397D01*
X100473525Y-68883493D01*
X100473526Y-68883500D01*
X100489800Y-68924603D01*
X100493644Y-68935829D01*
X100505982Y-68978293D01*
X100516294Y-68995731D01*
X100524988Y-69013479D01*
X100532444Y-69032309D01*
X100532450Y-69032320D01*
X100558432Y-69068081D01*
X100564949Y-69078001D01*
X100587458Y-69116062D01*
X100587459Y-69116063D01*
X100587461Y-69116066D01*
X100601779Y-69130384D01*
X100614617Y-69145414D01*
X100626526Y-69161804D01*
X100626530Y-69161809D01*
X100660598Y-69189992D01*
X100669378Y-69197982D01*
X106923353Y-75451957D01*
X106957379Y-75514269D01*
X106952314Y-75585084D01*
X106923354Y-75630147D01*
X106816799Y-75736703D01*
X106685477Y-75924250D01*
X106667195Y-75963457D01*
X106620278Y-76016742D01*
X106552001Y-76036203D01*
X106484041Y-76015661D01*
X106438805Y-75963457D01*
X106436894Y-75959359D01*
X106420523Y-75924251D01*
X106289198Y-75736700D01*
X106127300Y-75574802D01*
X106040170Y-75513793D01*
X105939749Y-75443477D01*
X105732246Y-75346717D01*
X105732240Y-75346715D01*
X105621342Y-75317000D01*
X105511087Y-75287457D01*
X105283000Y-75267502D01*
X105054913Y-75287457D01*
X104833759Y-75346715D01*
X104833753Y-75346717D01*
X104626250Y-75443477D01*
X104438703Y-75574799D01*
X104438697Y-75574804D01*
X104276804Y-75736697D01*
X104276799Y-75736703D01*
X104145477Y-75924250D01*
X104127195Y-75963457D01*
X104080278Y-76016742D01*
X104012001Y-76036203D01*
X103944041Y-76015661D01*
X103898805Y-75963457D01*
X103896894Y-75959359D01*
X103880523Y-75924251D01*
X103749198Y-75736700D01*
X103587300Y-75574802D01*
X103500170Y-75513793D01*
X103399749Y-75443477D01*
X103192246Y-75346717D01*
X103192240Y-75346715D01*
X103081342Y-75317000D01*
X102971087Y-75287457D01*
X102743000Y-75267502D01*
X102514913Y-75287457D01*
X102293759Y-75346715D01*
X102293753Y-75346717D01*
X102086250Y-75443477D01*
X101898703Y-75574799D01*
X101898697Y-75574804D01*
X101736804Y-75736697D01*
X101736799Y-75736703D01*
X101605477Y-75924250D01*
X101587195Y-75963457D01*
X101540278Y-76016742D01*
X101472001Y-76036203D01*
X101404041Y-76015661D01*
X101358805Y-75963457D01*
X101356894Y-75959359D01*
X101340523Y-75924251D01*
X101209198Y-75736700D01*
X101047300Y-75574802D01*
X100960170Y-75513793D01*
X100859749Y-75443477D01*
X100652246Y-75346717D01*
X100652240Y-75346715D01*
X100541342Y-75317000D01*
X100431087Y-75287457D01*
X100203000Y-75267502D01*
X99974913Y-75287457D01*
X99753759Y-75346715D01*
X99753753Y-75346717D01*
X99546250Y-75443477D01*
X99358703Y-75574799D01*
X99358697Y-75574804D01*
X99196804Y-75736697D01*
X99196795Y-75736707D01*
X99194047Y-75740633D01*
X99138587Y-75784957D01*
X99067967Y-75792262D01*
X99004609Y-75760227D01*
X98968628Y-75699023D01*
X98965561Y-75681825D01*
X98964494Y-75671905D01*
X98913444Y-75535035D01*
X98913444Y-75535034D01*
X98825904Y-75418095D01*
X98708965Y-75330555D01*
X98572093Y-75279505D01*
X98511597Y-75273000D01*
X97917000Y-75273000D01*
X97917000Y-76269314D01*
X97901045Y-76253359D01*
X97788148Y-76195835D01*
X97694481Y-76181000D01*
X97631519Y-76181000D01*
X97537852Y-76195835D01*
X97424955Y-76253359D01*
X97409000Y-76269314D01*
X97409000Y-75273000D01*
X96814402Y-75273000D01*
X96753906Y-75279505D01*
X96617035Y-75330555D01*
X96617034Y-75330555D01*
X96500095Y-75418095D01*
X96412555Y-75535034D01*
X96412555Y-75535035D01*
X96361505Y-75671906D01*
X96355000Y-75732402D01*
X96355000Y-76327000D01*
X97351314Y-76327000D01*
X97335359Y-76342955D01*
X97277835Y-76455852D01*
X97258014Y-76581000D01*
X97277835Y-76706148D01*
X97335359Y-76819045D01*
X97351314Y-76835000D01*
X96355000Y-76835000D01*
X96355000Y-77429597D01*
X96361505Y-77490093D01*
X96412555Y-77626964D01*
X96412555Y-77626965D01*
X96500095Y-77743904D01*
X96617034Y-77831444D01*
X96753906Y-77882494D01*
X96814402Y-77888999D01*
X96814415Y-77889000D01*
X97409000Y-77889000D01*
X97409000Y-76892686D01*
X97424955Y-76908641D01*
X97537852Y-76966165D01*
X97631519Y-76981000D01*
X97694481Y-76981000D01*
X97788148Y-76966165D01*
X97901045Y-76908641D01*
X97917000Y-76892686D01*
X97917000Y-77889000D01*
X98511585Y-77889000D01*
X98511597Y-77888999D01*
X98572093Y-77882494D01*
X98708964Y-77831444D01*
X98708965Y-77831444D01*
X98825904Y-77743904D01*
X98913444Y-77626965D01*
X98913444Y-77626964D01*
X98964494Y-77490093D01*
X98965561Y-77480175D01*
X98992730Y-77414583D01*
X99051048Y-77374092D01*
X99122000Y-77371558D01*
X99183058Y-77407786D01*
X99194051Y-77421372D01*
X99196797Y-77425293D01*
X99196802Y-77425300D01*
X99358700Y-77587198D01*
X99546251Y-77718523D01*
X99753757Y-77815284D01*
X99974913Y-77874543D01*
X100203000Y-77894498D01*
X100431087Y-77874543D01*
X100652243Y-77815284D01*
X100859749Y-77718523D01*
X101047300Y-77587198D01*
X101209198Y-77425300D01*
X101340523Y-77237749D01*
X101358805Y-77198543D01*
X101405721Y-77145258D01*
X101473998Y-77125796D01*
X101541958Y-77146337D01*
X101587195Y-77198543D01*
X101605476Y-77237747D01*
X101734051Y-77421372D01*
X101736802Y-77425300D01*
X101898700Y-77587198D01*
X102086251Y-77718523D01*
X102293757Y-77815284D01*
X102514913Y-77874543D01*
X102743000Y-77894498D01*
X102971087Y-77874543D01*
X103192243Y-77815284D01*
X103399749Y-77718523D01*
X103587300Y-77587198D01*
X103749198Y-77425300D01*
X103880523Y-77237749D01*
X103898805Y-77198543D01*
X103945721Y-77145258D01*
X104013998Y-77125796D01*
X104081958Y-77146337D01*
X104127195Y-77198543D01*
X104145476Y-77237747D01*
X104274051Y-77421372D01*
X104276802Y-77425300D01*
X104438700Y-77587198D01*
X104626251Y-77718523D01*
X104833757Y-77815284D01*
X105054913Y-77874543D01*
X105283000Y-77894498D01*
X105511087Y-77874543D01*
X105732243Y-77815284D01*
X105939749Y-77718523D01*
X106127300Y-77587198D01*
X106289198Y-77425300D01*
X106420523Y-77237749D01*
X106438805Y-77198543D01*
X106485721Y-77145258D01*
X106553998Y-77125796D01*
X106621958Y-77146337D01*
X106667195Y-77198543D01*
X106685476Y-77237747D01*
X106814051Y-77421372D01*
X106816802Y-77425300D01*
X106978700Y-77587198D01*
X107166251Y-77718523D01*
X107373757Y-77815284D01*
X107594913Y-77874543D01*
X107823000Y-77894498D01*
X108051087Y-77874543D01*
X108272243Y-77815284D01*
X108479749Y-77718523D01*
X108667300Y-77587198D01*
X108829198Y-77425300D01*
X108960523Y-77237749D01*
X108978805Y-77198543D01*
X109025721Y-77145258D01*
X109093998Y-77125796D01*
X109161958Y-77146337D01*
X109207195Y-77198543D01*
X109225476Y-77237747D01*
X109354051Y-77421372D01*
X109356802Y-77425300D01*
X109518700Y-77587198D01*
X109706251Y-77718523D01*
X109913757Y-77815284D01*
X110134913Y-77874543D01*
X110363000Y-77894498D01*
X110591087Y-77874543D01*
X110812243Y-77815284D01*
X111019749Y-77718523D01*
X111207300Y-77587198D01*
X111369198Y-77425300D01*
X111500523Y-77237749D01*
X111518805Y-77198543D01*
X111565721Y-77145258D01*
X111633998Y-77125796D01*
X111701958Y-77146337D01*
X111747195Y-77198543D01*
X111765476Y-77237747D01*
X111894051Y-77421372D01*
X111896802Y-77425300D01*
X112058700Y-77587198D01*
X112246251Y-77718523D01*
X112453757Y-77815284D01*
X112674913Y-77874543D01*
X112903000Y-77894498D01*
X113131087Y-77874543D01*
X113352243Y-77815284D01*
X113559749Y-77718523D01*
X113747300Y-77587198D01*
X113909198Y-77425300D01*
X114040523Y-77237749D01*
X114058805Y-77198543D01*
X114105721Y-77145258D01*
X114173998Y-77125796D01*
X114241958Y-77146337D01*
X114287195Y-77198543D01*
X114305476Y-77237747D01*
X114434051Y-77421372D01*
X114436802Y-77425300D01*
X114598700Y-77587198D01*
X114786251Y-77718523D01*
X114993757Y-77815284D01*
X115214913Y-77874543D01*
X115443000Y-77894498D01*
X115671087Y-77874543D01*
X115892243Y-77815284D01*
X116099749Y-77718523D01*
X116287300Y-77587198D01*
X116449198Y-77425300D01*
X116580523Y-77237749D01*
X116598805Y-77198543D01*
X116645721Y-77145258D01*
X116713998Y-77125796D01*
X116781958Y-77146337D01*
X116827195Y-77198543D01*
X116845476Y-77237747D01*
X116974051Y-77421372D01*
X116976802Y-77425300D01*
X117138700Y-77587198D01*
X117326251Y-77718523D01*
X117533757Y-77815284D01*
X117754913Y-77874543D01*
X117983000Y-77894498D01*
X118211087Y-77874543D01*
X118432243Y-77815284D01*
X118639749Y-77718523D01*
X118827300Y-77587198D01*
X118989198Y-77425300D01*
X119120523Y-77237749D01*
X119217284Y-77030243D01*
X119276543Y-76809087D01*
X119296498Y-76581000D01*
X119276543Y-76352913D01*
X119217284Y-76131757D01*
X119120523Y-75924251D01*
X118989198Y-75736700D01*
X118827300Y-75574802D01*
X118740170Y-75513793D01*
X118667588Y-75462970D01*
X118623260Y-75407513D01*
X118613921Y-75363711D01*
X118613673Y-75355810D01*
X118608022Y-75336363D01*
X118604012Y-75317000D01*
X118601474Y-75296903D01*
X118585192Y-75255781D01*
X118581358Y-75244582D01*
X118569018Y-75202106D01*
X118558700Y-75184661D01*
X118550005Y-75166909D01*
X118542553Y-75148085D01*
X118542550Y-75148079D01*
X118516564Y-75112313D01*
X118510045Y-75102389D01*
X118487541Y-75064335D01*
X118473218Y-75050012D01*
X118460377Y-75034979D01*
X118448471Y-75018592D01*
X118414405Y-74990410D01*
X118405626Y-74982421D01*
X111922405Y-68499200D01*
X111888379Y-68436888D01*
X111885500Y-68410105D01*
X111885500Y-63125920D01*
X111905502Y-63057799D01*
X111951527Y-63015108D01*
X111997576Y-62990189D01*
X112175240Y-62851906D01*
X112236245Y-62785637D01*
X112297096Y-62749067D01*
X112368061Y-62751200D01*
X112426606Y-62791362D01*
X112447000Y-62826941D01*
X112491111Y-62945204D01*
X112491112Y-62945207D01*
X112578738Y-63062261D01*
X112695792Y-63149887D01*
X112695794Y-63149888D01*
X112695796Y-63149889D01*
X112750900Y-63170442D01*
X112832795Y-63200988D01*
X112832803Y-63200990D01*
X112893350Y-63207499D01*
X112893355Y-63207499D01*
X112893362Y-63207500D01*
X112893368Y-63207500D01*
X114690632Y-63207500D01*
X114690638Y-63207500D01*
X114690645Y-63207499D01*
X114690649Y-63207499D01*
X114751196Y-63200990D01*
X114751199Y-63200989D01*
X114751201Y-63200989D01*
X114888204Y-63149889D01*
X114958399Y-63097342D01*
X115005261Y-63062261D01*
X115092887Y-62945207D01*
X115092887Y-62945206D01*
X115092889Y-62945204D01*
X115143989Y-62808201D01*
X115145800Y-62791362D01*
X115150499Y-62747649D01*
X115150500Y-62747632D01*
X115150500Y-60950367D01*
X115150499Y-60950350D01*
X115143990Y-60889803D01*
X115143988Y-60889795D01*
X115092889Y-60752797D01*
X115092887Y-60752792D01*
X115005261Y-60635738D01*
X114888207Y-60548112D01*
X114888202Y-60548110D01*
X114751204Y-60497011D01*
X114751196Y-60497009D01*
X114690649Y-60490500D01*
X114690638Y-60490500D01*
X112893362Y-60490500D01*
X112893350Y-60490500D01*
X112832803Y-60497009D01*
X112832795Y-60497011D01*
X112695797Y-60548110D01*
X112695792Y-60548112D01*
X112578738Y-60635738D01*
X112491112Y-60752792D01*
X112491111Y-60752795D01*
X112447000Y-60871058D01*
X112404453Y-60927893D01*
X112337932Y-60952703D01*
X112268558Y-60937611D01*
X112236246Y-60912363D01*
X112175240Y-60846094D01*
X112175239Y-60846093D01*
X112175237Y-60846091D01*
X112055372Y-60752796D01*
X111997576Y-60707811D01*
X111799574Y-60600658D01*
X111799572Y-60600657D01*
X111799571Y-60600656D01*
X111586639Y-60527557D01*
X111586630Y-60527555D01*
X111542476Y-60520187D01*
X111364569Y-60490500D01*
X111139431Y-60490500D01*
X110991211Y-60515233D01*
X110917369Y-60527555D01*
X110917360Y-60527557D01*
X110704428Y-60600656D01*
X110704426Y-60600658D01*
X110532402Y-60693752D01*
X110462972Y-60708582D01*
X110396545Y-60683521D01*
X110383338Y-60672033D01*
X109505345Y-59794040D01*
X109495383Y-59781604D01*
X109495156Y-59781793D01*
X109490102Y-59775684D01*
X109440464Y-59729072D01*
X109437619Y-59726314D01*
X109417881Y-59706575D01*
X109417873Y-59706568D01*
X109417870Y-59706565D01*
X109414666Y-59704080D01*
X109405654Y-59696381D01*
X109373425Y-59666117D01*
X109373419Y-59666113D01*
X109355663Y-59656351D01*
X109339147Y-59645502D01*
X109323141Y-59633086D01*
X109290791Y-59619087D01*
X109282564Y-59615527D01*
X109271907Y-59610305D01*
X109233163Y-59589006D01*
X109233160Y-59589005D01*
X109213536Y-59583966D01*
X109194836Y-59577564D01*
X109176245Y-59569519D01*
X109176243Y-59569518D01*
X109176241Y-59569518D01*
X109132574Y-59562601D01*
X109120955Y-59560195D01*
X109078130Y-59549200D01*
X109057876Y-59549200D01*
X109038166Y-59547649D01*
X109018157Y-59544480D01*
X108974139Y-59548641D01*
X108962281Y-59549200D01*
X98901953Y-59549200D01*
X98886111Y-59547450D01*
X98886084Y-59547744D01*
X98878192Y-59546998D01*
X98878191Y-59546998D01*
X98857482Y-59547649D01*
X98810114Y-59549138D01*
X98806155Y-59549200D01*
X98778244Y-59549200D01*
X98778241Y-59549200D01*
X98778226Y-59549201D01*
X98774221Y-59549707D01*
X98762404Y-59550637D01*
X98718213Y-59552026D01*
X98718211Y-59552027D01*
X98698756Y-59557678D01*
X98679403Y-59561686D01*
X98659311Y-59564224D01*
X98659305Y-59564225D01*
X98659303Y-59564226D01*
X98645934Y-59569519D01*
X98618198Y-59580500D01*
X98606974Y-59584343D01*
X98564507Y-59596682D01*
X98547064Y-59606997D01*
X98529318Y-59615690D01*
X98510482Y-59623148D01*
X98474710Y-59649137D01*
X98464794Y-59655651D01*
X98426737Y-59678158D01*
X98412411Y-59692484D01*
X98397385Y-59705317D01*
X98380995Y-59717225D01*
X98380993Y-59717227D01*
X98352800Y-59751305D01*
X98344813Y-59760081D01*
X77678336Y-80426557D01*
X77665901Y-80436521D01*
X77666089Y-80436748D01*
X77659979Y-80441802D01*
X77613370Y-80491435D01*
X77610620Y-80494273D01*
X77590863Y-80514031D01*
X77588374Y-80517239D01*
X77580688Y-80526236D01*
X77550418Y-80558473D01*
X77550411Y-80558483D01*
X77540651Y-80576235D01*
X77529803Y-80592750D01*
X77517386Y-80608758D01*
X77499824Y-80649340D01*
X77494604Y-80659995D01*
X77473305Y-80698739D01*
X77473303Y-80698744D01*
X77468267Y-80718359D01*
X77461864Y-80737062D01*
X77453819Y-80755652D01*
X77446901Y-80799325D01*
X77444495Y-80810942D01*
X77433500Y-80853768D01*
X77433500Y-80874023D01*
X77431949Y-80893733D01*
X77428780Y-80913742D01*
X77432941Y-80957761D01*
X77433500Y-80969619D01*
X77433500Y-89034011D01*
X77413498Y-89102132D01*
X77379771Y-89137224D01*
X77280000Y-89207084D01*
X77279994Y-89207089D01*
X77129089Y-89357994D01*
X77129084Y-89358000D01*
X77006674Y-89532820D01*
X76916480Y-89726241D01*
X76916478Y-89726246D01*
X76876223Y-89876483D01*
X76861242Y-89932392D01*
X76842641Y-90145000D01*
X76861242Y-90357608D01*
X76880039Y-90427759D01*
X76916478Y-90563753D01*
X76916480Y-90563758D01*
X77006673Y-90757178D01*
X77006674Y-90757180D01*
X77129083Y-90931998D01*
X77129090Y-90932007D01*
X77279992Y-91082909D01*
X77280001Y-91082916D01*
X77312460Y-91105644D01*
X77454820Y-91205326D01*
X77604876Y-91275298D01*
X77648249Y-91295523D01*
X77651208Y-91296600D01*
X77652328Y-91297425D01*
X77653231Y-91297846D01*
X77653146Y-91298027D01*
X77708378Y-91338696D01*
X77733714Y-91405018D01*
X77719171Y-91474510D01*
X77669367Y-91525107D01*
X77651208Y-91533400D01*
X77648249Y-91534476D01*
X77454820Y-91624674D01*
X77280000Y-91747084D01*
X77279994Y-91747089D01*
X77129089Y-91897994D01*
X77129084Y-91898000D01*
X77006674Y-92072820D01*
X76916480Y-92266241D01*
X76916478Y-92266246D01*
X76889775Y-92365904D01*
X76861242Y-92472392D01*
X76842641Y-92685000D01*
X76861242Y-92897608D01*
X76882181Y-92975753D01*
X76916478Y-93103753D01*
X76916480Y-93103758D01*
X77006673Y-93297178D01*
X77006674Y-93297180D01*
X77129083Y-93471998D01*
X77129090Y-93472007D01*
X77279992Y-93622909D01*
X77280001Y-93622916D01*
X77320679Y-93651399D01*
X77454820Y-93745326D01*
X77604876Y-93815298D01*
X77648249Y-93835523D01*
X77651208Y-93836600D01*
X77652328Y-93837425D01*
X77653231Y-93837846D01*
X77653146Y-93838027D01*
X77708378Y-93878696D01*
X77733714Y-93945018D01*
X77719171Y-94014510D01*
X77669367Y-94065107D01*
X77651208Y-94073400D01*
X77648249Y-94074476D01*
X77454820Y-94164674D01*
X77280000Y-94287084D01*
X77279994Y-94287089D01*
X77129089Y-94437994D01*
X77129084Y-94438000D01*
X77006674Y-94612820D01*
X76916480Y-94806241D01*
X76916478Y-94806246D01*
X76892183Y-94896919D01*
X76861242Y-95012392D01*
X76842641Y-95225000D01*
X76861242Y-95437608D01*
X76880039Y-95507759D01*
X76916478Y-95643753D01*
X76916480Y-95643758D01*
X77006673Y-95837178D01*
X77006674Y-95837180D01*
X77129083Y-96011998D01*
X77129090Y-96012007D01*
X77200794Y-96083711D01*
X77234820Y-96146023D01*
X77229755Y-96216838D01*
X77203760Y-96255926D01*
X77204844Y-96256823D01*
X77171600Y-96297005D01*
X77163613Y-96305781D01*
X66956336Y-106513057D01*
X66943901Y-106523021D01*
X66944089Y-106523248D01*
X66937979Y-106528302D01*
X66891370Y-106577935D01*
X66888620Y-106580773D01*
X66868863Y-106600531D01*
X66866374Y-106603739D01*
X66858688Y-106612736D01*
X66828418Y-106644973D01*
X66828411Y-106644983D01*
X66818651Y-106662735D01*
X66807803Y-106679250D01*
X66795386Y-106695258D01*
X66777824Y-106735840D01*
X66772604Y-106746495D01*
X66751305Y-106785239D01*
X66751303Y-106785244D01*
X66746267Y-106804859D01*
X66739864Y-106823562D01*
X66731819Y-106842152D01*
X66724901Y-106885825D01*
X66722495Y-106897442D01*
X66711500Y-106940268D01*
X66711500Y-106960523D01*
X66709949Y-106980233D01*
X66706780Y-107000242D01*
X66706780Y-107000243D01*
X66709303Y-107026933D01*
X66710941Y-107044261D01*
X66711500Y-107056119D01*
X66711500Y-123096652D01*
X66691498Y-123164773D01*
X66637842Y-123211266D01*
X66567568Y-123221370D01*
X66534252Y-123211759D01*
X66403188Y-123153406D01*
X66216387Y-123113700D01*
X66025413Y-123113700D01*
X65838611Y-123153406D01*
X65664147Y-123231082D01*
X65509644Y-123343335D01*
X65381865Y-123485248D01*
X65381858Y-123485258D01*
X65286376Y-123650638D01*
X65286373Y-123650645D01*
X65227357Y-123832272D01*
X65207396Y-124022200D01*
X65227357Y-124212127D01*
X65252440Y-124289322D01*
X65286373Y-124393756D01*
X65381860Y-124559144D01*
X65455037Y-124640415D01*
X65485753Y-124704420D01*
X65487400Y-124724724D01*
X65487400Y-124775700D01*
X65467398Y-124843821D01*
X65413742Y-124890314D01*
X65361400Y-124901700D01*
X65265813Y-124901700D01*
X65079011Y-124941406D01*
X64904547Y-125019082D01*
X64750044Y-125131335D01*
X64622265Y-125273248D01*
X64622258Y-125273258D01*
X64526776Y-125438638D01*
X64526773Y-125438645D01*
X64467757Y-125620272D01*
X64450392Y-125785493D01*
X64423379Y-125851150D01*
X64414177Y-125861417D01*
X59036336Y-131239257D01*
X59023901Y-131249221D01*
X59024089Y-131249448D01*
X59017979Y-131254502D01*
X58971370Y-131304135D01*
X58968620Y-131306973D01*
X58948863Y-131326731D01*
X58946374Y-131329939D01*
X58938688Y-131338936D01*
X58908418Y-131371173D01*
X58908411Y-131371183D01*
X58898651Y-131388935D01*
X58887803Y-131405450D01*
X58875386Y-131421458D01*
X58857824Y-131462040D01*
X58852604Y-131472695D01*
X58831305Y-131511439D01*
X58831303Y-131511444D01*
X58826267Y-131531059D01*
X58819864Y-131549762D01*
X58811819Y-131568352D01*
X58804901Y-131612025D01*
X58802495Y-131623642D01*
X58791500Y-131666468D01*
X58791500Y-131686723D01*
X58789949Y-131706433D01*
X58786780Y-131726442D01*
X58790941Y-131770461D01*
X58791500Y-131782319D01*
X58791500Y-132019000D01*
X58771498Y-132087121D01*
X58717842Y-132133614D01*
X58665500Y-132145000D01*
X55906500Y-132145000D01*
X55838379Y-132124998D01*
X55791886Y-132071342D01*
X55780500Y-132019000D01*
X55780500Y-126847524D01*
X55800502Y-126779403D01*
X55812858Y-126763220D01*
X55886040Y-126681944D01*
X55981527Y-126516556D01*
X56040542Y-126334928D01*
X56060504Y-126145000D01*
X56040542Y-125955072D01*
X55981527Y-125773444D01*
X55886040Y-125608056D01*
X55886038Y-125608054D01*
X55886034Y-125608048D01*
X55758255Y-125466135D01*
X55603752Y-125353882D01*
X55429288Y-125276206D01*
X55242487Y-125236500D01*
X55051513Y-125236500D01*
X54864711Y-125276206D01*
X54690247Y-125353882D01*
X54535744Y-125466135D01*
X54407965Y-125608048D01*
X54407958Y-125608058D01*
X54312476Y-125773438D01*
X54312473Y-125773445D01*
X54253457Y-125955072D01*
X54233496Y-126145000D01*
X54253457Y-126334927D01*
X54283526Y-126427470D01*
X54312473Y-126516556D01*
X54407960Y-126681944D01*
X54481137Y-126763215D01*
X54511853Y-126827220D01*
X54513500Y-126847524D01*
X54513500Y-132019000D01*
X54493498Y-132087121D01*
X54439842Y-132133614D01*
X54387500Y-132145000D01*
X43298500Y-132145000D01*
X43230379Y-132124998D01*
X43183886Y-132071342D01*
X43172500Y-132019000D01*
X43172500Y-124796500D01*
X43192502Y-124728379D01*
X43246158Y-124681886D01*
X43298500Y-124670500D01*
X43356219Y-124670500D01*
X43356226Y-124670500D01*
X43772894Y-124631890D01*
X44184222Y-124555000D01*
X44586701Y-124440484D01*
X44976897Y-124289322D01*
X45351481Y-124102801D01*
X45707257Y-123882514D01*
X46041189Y-123630340D01*
X46350430Y-123348430D01*
X46632340Y-123039189D01*
X46884514Y-122705257D01*
X47104801Y-122349481D01*
X47291322Y-121974897D01*
X47442484Y-121584701D01*
X47557000Y-121182222D01*
X47633890Y-120770894D01*
X47672500Y-120354226D01*
X47672500Y-119935774D01*
X47633890Y-119519106D01*
X47557000Y-119107778D01*
X47442484Y-118705299D01*
X47291322Y-118315103D01*
X47104801Y-117940519D01*
X46884514Y-117584743D01*
X46632340Y-117250811D01*
X46632338Y-117250808D01*
X46350430Y-116941569D01*
X46041191Y-116659661D01*
X46041184Y-116659656D01*
X45707254Y-116407484D01*
X45707239Y-116407474D01*
X45351488Y-116187203D01*
X45351485Y-116187201D01*
X45351481Y-116187199D01*
X44976897Y-116000678D01*
X44976893Y-116000676D01*
X44767126Y-115919412D01*
X44586701Y-115849516D01*
X44496970Y-115823985D01*
X44184229Y-115735001D01*
X44184221Y-115734999D01*
X43772900Y-115658111D01*
X43772898Y-115658110D01*
X43772894Y-115658110D01*
X43356226Y-115619500D01*
X43356219Y-115619500D01*
X43298500Y-115619500D01*
X43230379Y-115599498D01*
X43183886Y-115545842D01*
X43172500Y-115493500D01*
X43172500Y-82741642D01*
X45759080Y-82741642D01*
X45763241Y-82785661D01*
X45763800Y-82797519D01*
X45763800Y-88706346D01*
X45762051Y-88722188D01*
X45762344Y-88722216D01*
X45761598Y-88730107D01*
X45763738Y-88798184D01*
X45763800Y-88802143D01*
X45763800Y-88830051D01*
X45763801Y-88830069D01*
X45764307Y-88834077D01*
X45765237Y-88845896D01*
X45766626Y-88890088D01*
X45766627Y-88890093D01*
X45772277Y-88909539D01*
X45776286Y-88928897D01*
X45778825Y-88948993D01*
X45778826Y-88949000D01*
X45795100Y-88990103D01*
X45798944Y-89001329D01*
X45811282Y-89043793D01*
X45821594Y-89061231D01*
X45830288Y-89078979D01*
X45837744Y-89097809D01*
X45837750Y-89097820D01*
X45863732Y-89133581D01*
X45870249Y-89143501D01*
X45892758Y-89181562D01*
X45892759Y-89181563D01*
X45892761Y-89181566D01*
X45907079Y-89195884D01*
X45919917Y-89210914D01*
X45931826Y-89227304D01*
X45931830Y-89227309D01*
X45965898Y-89255492D01*
X45974678Y-89263482D01*
X47678453Y-90967257D01*
X47688420Y-90979697D01*
X47688647Y-90979510D01*
X47693699Y-90985617D01*
X47693700Y-90985618D01*
X47719665Y-91010001D01*
X47743366Y-91032257D01*
X47746210Y-91035014D01*
X47765931Y-91054735D01*
X47767528Y-91055974D01*
X47769116Y-91057205D01*
X47778146Y-91064917D01*
X47797553Y-91083142D01*
X47810378Y-91095185D01*
X47810382Y-91095188D01*
X47828130Y-91104945D01*
X47844657Y-91115801D01*
X47860660Y-91128214D01*
X47901239Y-91145774D01*
X47911887Y-91150991D01*
X47950634Y-91172292D01*
X47950636Y-91172293D01*
X47950640Y-91172295D01*
X47970262Y-91177333D01*
X47988963Y-91183735D01*
X47999502Y-91188296D01*
X48007552Y-91191780D01*
X48007553Y-91191780D01*
X48007555Y-91191781D01*
X48051230Y-91198698D01*
X48062841Y-91201102D01*
X48105670Y-91212100D01*
X48125924Y-91212100D01*
X48145634Y-91213651D01*
X48147841Y-91214000D01*
X48165643Y-91216820D01*
X48209661Y-91212658D01*
X48221519Y-91212100D01*
X67380247Y-91212100D01*
X67396088Y-91213849D01*
X67396116Y-91213556D01*
X67404002Y-91214300D01*
X67404009Y-91214302D01*
X67472086Y-91212162D01*
X67476045Y-91212100D01*
X67503951Y-91212100D01*
X67503956Y-91212100D01*
X67507967Y-91211592D01*
X67519799Y-91210661D01*
X67563989Y-91209273D01*
X67583447Y-91203619D01*
X67602794Y-91199613D01*
X67622897Y-91197074D01*
X67664010Y-91180795D01*
X67675230Y-91176953D01*
X67700013Y-91169754D01*
X67717691Y-91164619D01*
X67717695Y-91164617D01*
X67735126Y-91154308D01*
X67752880Y-91145609D01*
X67771717Y-91138152D01*
X67807492Y-91112158D01*
X67817398Y-91105651D01*
X67855462Y-91083142D01*
X67869785Y-91068818D01*
X67884824Y-91055974D01*
X67901207Y-91044072D01*
X67929403Y-91009986D01*
X67937372Y-91001230D01*
X69035959Y-89902644D01*
X69098269Y-89868620D01*
X69169085Y-89873685D01*
X69214147Y-89902645D01*
X69320700Y-90009198D01*
X69508251Y-90140523D01*
X69715757Y-90237284D01*
X69936913Y-90296543D01*
X70165000Y-90316498D01*
X70393087Y-90296543D01*
X70614243Y-90237284D01*
X70821749Y-90140523D01*
X71009300Y-90009198D01*
X71171198Y-89847300D01*
X71302523Y-89659749D01*
X71399284Y-89452243D01*
X71458543Y-89231087D01*
X71478498Y-89003000D01*
X71458543Y-88774913D01*
X71399284Y-88553757D01*
X71302523Y-88346251D01*
X71171198Y-88158700D01*
X71009300Y-87996802D01*
X70996869Y-87988098D01*
X70821749Y-87865477D01*
X70614246Y-87768717D01*
X70614240Y-87768715D01*
X70502282Y-87738716D01*
X70393087Y-87709457D01*
X70165000Y-87689502D01*
X69936913Y-87709457D01*
X69715759Y-87768715D01*
X69715753Y-87768717D01*
X69508250Y-87865477D01*
X69320703Y-87996799D01*
X69320697Y-87996804D01*
X69158804Y-88158697D01*
X69158799Y-88158703D01*
X69046971Y-88318410D01*
X68991514Y-88362738D01*
X68947720Y-88372077D01*
X68939815Y-88372325D01*
X68939807Y-88372327D01*
X68920349Y-88377979D01*
X68901004Y-88381985D01*
X68880906Y-88384525D01*
X68880898Y-88384527D01*
X68839790Y-88400802D01*
X68828566Y-88404645D01*
X68786109Y-88416981D01*
X68768664Y-88427297D01*
X68750918Y-88435990D01*
X68732082Y-88443448D01*
X68696310Y-88469437D01*
X68686394Y-88475951D01*
X68648337Y-88498458D01*
X68634011Y-88512784D01*
X68618985Y-88525617D01*
X68602595Y-88537525D01*
X68602593Y-88537527D01*
X68574400Y-88571605D01*
X68566413Y-88580381D01*
X68397377Y-88749417D01*
X68335065Y-88783443D01*
X68264250Y-88778378D01*
X68207414Y-88735831D01*
X68186577Y-88692937D01*
X68149284Y-88553757D01*
X68052523Y-88346251D01*
X67921198Y-88158700D01*
X67759300Y-87996802D01*
X67746869Y-87988098D01*
X67571749Y-87865477D01*
X67364246Y-87768717D01*
X67364240Y-87768715D01*
X67252282Y-87738716D01*
X67143087Y-87709457D01*
X66915000Y-87689502D01*
X66686913Y-87709457D01*
X66465759Y-87768715D01*
X66465753Y-87768717D01*
X66258250Y-87865477D01*
X66070703Y-87996799D01*
X66070697Y-87996804D01*
X65908804Y-88158697D01*
X65908799Y-88158703D01*
X65777477Y-88346250D01*
X65680717Y-88553753D01*
X65680715Y-88553759D01*
X65626364Y-88756600D01*
X65621457Y-88774913D01*
X65601502Y-89003000D01*
X65621457Y-89231087D01*
X65646082Y-89322989D01*
X65680715Y-89452240D01*
X65680717Y-89452246D01*
X65777477Y-89659749D01*
X65838451Y-89746829D01*
X65861139Y-89814103D01*
X65843854Y-89882964D01*
X65792084Y-89931548D01*
X65735238Y-89945100D01*
X64773756Y-89945100D01*
X64705635Y-89925098D01*
X64659142Y-89871442D01*
X64649038Y-89801168D01*
X64670543Y-89746829D01*
X64712401Y-89687049D01*
X64752523Y-89629749D01*
X64849284Y-89422243D01*
X64908543Y-89201087D01*
X64928498Y-88973000D01*
X64908543Y-88744913D01*
X64906109Y-88735831D01*
X64891540Y-88681458D01*
X64893229Y-88610481D01*
X64924149Y-88559753D01*
X70305100Y-83178805D01*
X70367412Y-83144779D01*
X70394195Y-83141900D01*
X72792547Y-83141900D01*
X72808388Y-83143649D01*
X72808416Y-83143356D01*
X72816302Y-83144100D01*
X72816309Y-83144102D01*
X72884386Y-83141962D01*
X72888345Y-83141900D01*
X72916251Y-83141900D01*
X72916256Y-83141900D01*
X72920267Y-83141392D01*
X72932099Y-83140461D01*
X72976289Y-83139073D01*
X72995747Y-83133419D01*
X73015094Y-83129413D01*
X73035197Y-83126874D01*
X73076310Y-83110595D01*
X73087530Y-83106753D01*
X73112313Y-83099554D01*
X73129991Y-83094419D01*
X73129995Y-83094417D01*
X73147426Y-83084108D01*
X73165180Y-83075409D01*
X73184017Y-83067952D01*
X73219792Y-83041958D01*
X73229698Y-83035451D01*
X73267762Y-83012942D01*
X73282085Y-82998618D01*
X73297124Y-82985774D01*
X73313507Y-82973872D01*
X73341703Y-82939786D01*
X73349672Y-82931030D01*
X78652800Y-77627905D01*
X78715112Y-77593879D01*
X78741895Y-77591000D01*
X78797787Y-77591000D01*
X78984588Y-77551294D01*
X79159052Y-77473618D01*
X79313553Y-77361366D01*
X79441340Y-77219444D01*
X79536827Y-77054056D01*
X79595842Y-76872428D01*
X79615804Y-76682500D01*
X79595842Y-76492572D01*
X79536827Y-76310944D01*
X79441340Y-76145556D01*
X79441338Y-76145554D01*
X79441334Y-76145548D01*
X79313555Y-76003635D01*
X79159052Y-75891382D01*
X78984588Y-75813706D01*
X78797787Y-75774000D01*
X78606813Y-75774000D01*
X78420011Y-75813706D01*
X78245547Y-75891382D01*
X78091044Y-76003635D01*
X77963265Y-76145548D01*
X77963258Y-76145558D01*
X77867776Y-76310938D01*
X77867773Y-76310945D01*
X77808757Y-76492572D01*
X77791392Y-76657793D01*
X77764379Y-76723450D01*
X77755177Y-76733717D01*
X72650900Y-81837995D01*
X72588588Y-81872021D01*
X72561805Y-81874900D01*
X71552061Y-81874900D01*
X71483940Y-81854898D01*
X71437447Y-81801242D01*
X71427343Y-81730968D01*
X71430354Y-81716289D01*
X71437397Y-81690004D01*
X71458543Y-81611087D01*
X71478498Y-81383000D01*
X71458543Y-81154913D01*
X71399284Y-80933757D01*
X71302523Y-80726251D01*
X71171198Y-80538700D01*
X71009300Y-80376802D01*
X70834228Y-80254215D01*
X70789901Y-80198759D01*
X70780500Y-80151003D01*
X70780500Y-77847524D01*
X70800502Y-77779403D01*
X70812858Y-77763220D01*
X70886040Y-77681944D01*
X70981527Y-77516556D01*
X71040542Y-77334928D01*
X71060504Y-77145000D01*
X71040542Y-76955072D01*
X70981527Y-76773444D01*
X70886040Y-76608056D01*
X70886038Y-76608054D01*
X70886034Y-76608048D01*
X70758255Y-76466135D01*
X70603752Y-76353882D01*
X70429288Y-76276206D01*
X70242487Y-76236500D01*
X70051513Y-76236500D01*
X69864711Y-76276206D01*
X69690247Y-76353882D01*
X69535744Y-76466135D01*
X69407965Y-76608048D01*
X69407958Y-76608058D01*
X69312476Y-76773438D01*
X69312473Y-76773445D01*
X69253457Y-76955072D01*
X69233496Y-77145000D01*
X69253457Y-77334927D01*
X69266183Y-77374092D01*
X69312473Y-77516556D01*
X69312476Y-77516561D01*
X69376760Y-77627905D01*
X69407960Y-77681944D01*
X69481137Y-77763215D01*
X69511853Y-77827220D01*
X69513500Y-77847524D01*
X69513500Y-80176209D01*
X69493498Y-80244330D01*
X69459771Y-80279422D01*
X69320703Y-80376799D01*
X69320697Y-80376804D01*
X69158804Y-80538697D01*
X69158799Y-80538703D01*
X69027477Y-80726250D01*
X68930717Y-80933753D01*
X68930715Y-80933759D01*
X68871457Y-81154913D01*
X68851502Y-81383000D01*
X68871457Y-81611087D01*
X68892468Y-81689502D01*
X68930715Y-81832240D01*
X68930717Y-81832246D01*
X69027477Y-82039749D01*
X69158799Y-82227296D01*
X69158804Y-82227302D01*
X69222703Y-82291201D01*
X69256729Y-82353513D01*
X69251664Y-82424328D01*
X69222703Y-82469391D01*
X64028246Y-87663847D01*
X63965934Y-87697873D01*
X63906540Y-87696459D01*
X63843090Y-87679457D01*
X63615000Y-87659502D01*
X63386913Y-87679457D01*
X63165759Y-87738715D01*
X63165753Y-87738717D01*
X62958250Y-87835477D01*
X62770703Y-87966799D01*
X62770697Y-87966804D01*
X62608804Y-88128697D01*
X62608799Y-88128703D01*
X62477477Y-88316250D01*
X62380717Y-88523753D01*
X62380715Y-88523759D01*
X62357519Y-88610327D01*
X62321457Y-88744913D01*
X62301502Y-88973000D01*
X62321457Y-89201087D01*
X62333546Y-89246204D01*
X62380715Y-89422240D01*
X62380717Y-89422246D01*
X62477477Y-89629749D01*
X62559457Y-89746829D01*
X62582145Y-89814103D01*
X62564860Y-89882964D01*
X62513090Y-89931548D01*
X62456244Y-89945100D01*
X48500295Y-89945100D01*
X48432174Y-89925098D01*
X48411199Y-89908195D01*
X48139842Y-89636837D01*
X48105817Y-89574525D01*
X48110882Y-89503709D01*
X48153429Y-89446874D01*
X48156667Y-89444529D01*
X48189987Y-89421197D01*
X48189987Y-89421196D01*
X47488791Y-88720000D01*
X47527005Y-88720000D01*
X47613216Y-88705614D01*
X47715947Y-88650019D01*
X47795060Y-88564079D01*
X47841982Y-88457108D01*
X47849200Y-88370001D01*
X47857210Y-88370001D01*
X48549196Y-89061987D01*
X48549197Y-89061987D01*
X48591622Y-89001399D01*
X48684647Y-88801907D01*
X48684649Y-88801903D01*
X48741619Y-88589287D01*
X48760804Y-88370000D01*
X52181693Y-88370000D01*
X52200885Y-88589371D01*
X52225560Y-88681458D01*
X52257879Y-88802073D01*
X52257881Y-88802079D01*
X52343228Y-88985107D01*
X52350944Y-89001654D01*
X52419529Y-89099603D01*
X52477251Y-89182038D01*
X52477254Y-89182042D01*
X52632957Y-89337745D01*
X52632961Y-89337748D01*
X52632962Y-89337749D01*
X52813346Y-89464056D01*
X53012924Y-89557120D01*
X53225629Y-89614115D01*
X53445000Y-89633307D01*
X53664371Y-89614115D01*
X53877076Y-89557120D01*
X54076654Y-89464056D01*
X54257038Y-89337749D01*
X54412749Y-89182038D01*
X54539056Y-89001654D01*
X54632120Y-88802076D01*
X54689115Y-88589371D01*
X54708307Y-88370000D01*
X54689115Y-88150629D01*
X54632120Y-87937924D01*
X54539056Y-87738347D01*
X54412749Y-87557962D01*
X54257038Y-87402251D01*
X54242959Y-87392393D01*
X54207903Y-87367846D01*
X54076654Y-87275944D01*
X54013249Y-87246378D01*
X53877079Y-87182881D01*
X53877073Y-87182879D01*
X53749210Y-87148618D01*
X53664371Y-87125885D01*
X53445000Y-87106693D01*
X53225629Y-87125885D01*
X53012926Y-87182879D01*
X53012920Y-87182881D01*
X52813346Y-87275944D01*
X52632965Y-87402248D01*
X52632959Y-87402253D01*
X52477253Y-87557959D01*
X52477248Y-87557965D01*
X52350944Y-87738346D01*
X52257881Y-87937920D01*
X52257879Y-87937926D01*
X52213272Y-88104399D01*
X52200885Y-88150629D01*
X52181693Y-88370000D01*
X48760804Y-88370000D01*
X48741619Y-88150712D01*
X48684649Y-87938096D01*
X48684647Y-87938092D01*
X48591619Y-87738594D01*
X48549199Y-87678011D01*
X48549197Y-87678011D01*
X47857210Y-88369999D01*
X47857210Y-88370001D01*
X47849200Y-88370001D01*
X47851628Y-88340698D01*
X47822953Y-88227462D01*
X47759064Y-88129673D01*
X47666885Y-88057928D01*
X47556405Y-88020000D01*
X47488789Y-88020000D01*
X47498000Y-88010789D01*
X48189987Y-87318800D01*
X48129403Y-87276379D01*
X47929907Y-87183352D01*
X47929903Y-87183350D01*
X47717287Y-87126380D01*
X47498000Y-87107195D01*
X47278710Y-87126381D01*
X47189410Y-87150308D01*
X47118433Y-87148618D01*
X47059638Y-87108823D01*
X47031691Y-87043558D01*
X47030800Y-87028601D01*
X47030800Y-83076294D01*
X47050802Y-83008173D01*
X47067705Y-82987199D01*
X47125577Y-82929327D01*
X47187889Y-82895301D01*
X47247284Y-82896716D01*
X47254487Y-82898646D01*
X47278625Y-82905114D01*
X47278626Y-82905114D01*
X47278629Y-82905115D01*
X47498000Y-82924307D01*
X47717371Y-82905115D01*
X47930076Y-82848120D01*
X48129654Y-82755056D01*
X48310038Y-82628749D01*
X48465749Y-82473038D01*
X48592056Y-82292654D01*
X48685120Y-82093076D01*
X48742115Y-81880371D01*
X48761307Y-81661000D01*
X48742115Y-81441629D01*
X48732836Y-81407000D01*
X52203693Y-81407000D01*
X52222885Y-81626371D01*
X52232164Y-81661000D01*
X52279879Y-81839073D01*
X52279881Y-81839079D01*
X52335288Y-81957900D01*
X52372944Y-82038654D01*
X52457000Y-82158697D01*
X52499251Y-82219038D01*
X52499254Y-82219042D01*
X52654957Y-82374745D01*
X52654961Y-82374748D01*
X52654962Y-82374749D01*
X52835346Y-82501056D01*
X53034924Y-82594120D01*
X53247629Y-82651115D01*
X53467000Y-82670307D01*
X53686371Y-82651115D01*
X53899076Y-82594120D01*
X54098654Y-82501056D01*
X54279038Y-82374749D01*
X54434749Y-82219038D01*
X54561056Y-82038654D01*
X54654120Y-81839076D01*
X54711115Y-81626371D01*
X54730307Y-81407000D01*
X54725583Y-81353000D01*
X62301502Y-81353000D01*
X62321457Y-81581087D01*
X62341581Y-81656191D01*
X62380715Y-81802240D01*
X62380717Y-81802246D01*
X62477477Y-82009749D01*
X62538046Y-82096251D01*
X62608802Y-82197300D01*
X62770700Y-82359198D01*
X62958251Y-82490523D01*
X63165757Y-82587284D01*
X63386913Y-82646543D01*
X63615000Y-82666498D01*
X63843087Y-82646543D01*
X64064243Y-82587284D01*
X64271749Y-82490523D01*
X64459300Y-82359198D01*
X64621198Y-82197300D01*
X64752523Y-82009749D01*
X64849284Y-81802243D01*
X64908543Y-81581087D01*
X64925873Y-81383000D01*
X65601502Y-81383000D01*
X65621457Y-81611087D01*
X65642468Y-81689502D01*
X65680715Y-81832240D01*
X65680717Y-81832246D01*
X65777477Y-82039749D01*
X65903019Y-82219042D01*
X65908802Y-82227300D01*
X66070700Y-82389198D01*
X66258251Y-82520523D01*
X66465757Y-82617284D01*
X66686913Y-82676543D01*
X66915000Y-82696498D01*
X67143087Y-82676543D01*
X67364243Y-82617284D01*
X67571749Y-82520523D01*
X67759300Y-82389198D01*
X67921198Y-82227300D01*
X68052523Y-82039749D01*
X68149284Y-81832243D01*
X68208543Y-81611087D01*
X68228498Y-81383000D01*
X68208543Y-81154913D01*
X68149284Y-80933757D01*
X68052523Y-80726251D01*
X67921198Y-80538700D01*
X67759300Y-80376802D01*
X67716451Y-80346799D01*
X67571749Y-80245477D01*
X67364246Y-80148717D01*
X67364240Y-80148715D01*
X67252282Y-80118716D01*
X67143087Y-80089457D01*
X66915000Y-80069502D01*
X66686913Y-80089457D01*
X66465759Y-80148715D01*
X66465753Y-80148717D01*
X66258250Y-80245477D01*
X66070703Y-80376799D01*
X66070697Y-80376804D01*
X65908804Y-80538697D01*
X65908799Y-80538703D01*
X65777477Y-80726250D01*
X65680717Y-80933753D01*
X65680715Y-80933759D01*
X65621457Y-81154913D01*
X65601502Y-81383000D01*
X64925873Y-81383000D01*
X64928498Y-81353000D01*
X64908543Y-81124913D01*
X64849284Y-80903757D01*
X64752523Y-80696251D01*
X64621198Y-80508700D01*
X64459300Y-80346802D01*
X64423029Y-80321405D01*
X64271749Y-80215477D01*
X64064246Y-80118717D01*
X64064240Y-80118715D01*
X63930883Y-80082982D01*
X63843087Y-80059457D01*
X63615000Y-80039502D01*
X63386913Y-80059457D01*
X63165759Y-80118715D01*
X63165753Y-80118717D01*
X62958250Y-80215477D01*
X62770703Y-80346799D01*
X62770697Y-80346804D01*
X62608804Y-80508697D01*
X62608799Y-80508703D01*
X62477477Y-80696250D01*
X62380717Y-80903753D01*
X62380715Y-80903759D01*
X62361646Y-80974926D01*
X62321457Y-81124913D01*
X62301502Y-81353000D01*
X54725583Y-81353000D01*
X54711115Y-81187629D01*
X54654120Y-80974924D01*
X54561056Y-80775347D01*
X54434749Y-80594962D01*
X54279038Y-80439251D01*
X54275463Y-80436748D01*
X54189852Y-80376802D01*
X54098654Y-80312944D01*
X54098650Y-80312942D01*
X53899079Y-80219881D01*
X53899073Y-80219879D01*
X53807097Y-80195234D01*
X53686371Y-80162885D01*
X53467000Y-80143693D01*
X53247629Y-80162885D01*
X53034926Y-80219879D01*
X53034920Y-80219881D01*
X52835346Y-80312944D01*
X52654965Y-80439248D01*
X52654959Y-80439253D01*
X52499253Y-80594959D01*
X52499248Y-80594965D01*
X52372944Y-80775346D01*
X52279881Y-80974920D01*
X52279879Y-80974926D01*
X52247909Y-81094240D01*
X52222885Y-81187629D01*
X52203693Y-81407000D01*
X48732836Y-81407000D01*
X48685120Y-81228924D01*
X48592056Y-81029347D01*
X48465749Y-80848962D01*
X48310038Y-80693251D01*
X48129654Y-80566944D01*
X48129650Y-80566942D01*
X47930079Y-80473881D01*
X47930073Y-80473879D01*
X47810361Y-80441802D01*
X47717371Y-80416885D01*
X47498000Y-80397693D01*
X47278629Y-80416885D01*
X47065926Y-80473879D01*
X47065920Y-80473881D01*
X46866346Y-80566944D01*
X46685965Y-80693248D01*
X46685959Y-80693253D01*
X46530253Y-80848959D01*
X46530248Y-80848965D01*
X46403944Y-81029346D01*
X46310881Y-81228920D01*
X46310879Y-81228926D01*
X46306395Y-81245661D01*
X46253885Y-81441629D01*
X46234693Y-81661000D01*
X46253154Y-81872021D01*
X46253885Y-81880370D01*
X46262284Y-81911716D01*
X46260594Y-81982693D01*
X46229672Y-82033422D01*
X46008633Y-82254460D01*
X45996201Y-82264421D01*
X45996389Y-82264648D01*
X45990279Y-82269702D01*
X45943670Y-82319335D01*
X45940920Y-82322173D01*
X45921163Y-82341931D01*
X45918674Y-82345139D01*
X45910988Y-82354136D01*
X45880718Y-82386373D01*
X45880711Y-82386383D01*
X45870951Y-82404135D01*
X45860103Y-82420650D01*
X45847686Y-82436658D01*
X45830124Y-82477240D01*
X45824904Y-82487895D01*
X45803605Y-82526639D01*
X45803603Y-82526644D01*
X45798567Y-82546259D01*
X45792164Y-82564962D01*
X45784119Y-82583552D01*
X45777201Y-82627225D01*
X45774795Y-82638842D01*
X45763800Y-82681668D01*
X45763800Y-82701923D01*
X45762249Y-82721633D01*
X45759080Y-82741642D01*
X43172500Y-82741642D01*
X43172500Y-74796500D01*
X43192502Y-74728379D01*
X43246158Y-74681886D01*
X43298500Y-74670500D01*
X43356219Y-74670500D01*
X43356226Y-74670500D01*
X43631415Y-74645000D01*
X69233496Y-74645000D01*
X69253457Y-74834927D01*
X69283526Y-74927470D01*
X69312473Y-75016556D01*
X69313649Y-75018593D01*
X69407958Y-75181941D01*
X69407965Y-75181951D01*
X69535744Y-75323864D01*
X69579713Y-75355809D01*
X69690248Y-75436118D01*
X69864712Y-75513794D01*
X70051513Y-75553500D01*
X70242487Y-75553500D01*
X70429288Y-75513794D01*
X70603752Y-75436118D01*
X70758253Y-75323866D01*
X70782531Y-75296903D01*
X70886034Y-75181951D01*
X70886035Y-75181949D01*
X70886040Y-75181944D01*
X70981527Y-75016556D01*
X71040542Y-74834928D01*
X71057907Y-74669704D01*
X71084920Y-74604049D01*
X71094104Y-74593799D01*
X72597502Y-73090402D01*
X72659812Y-73056379D01*
X72686595Y-73053500D01*
X72742487Y-73053500D01*
X72929288Y-73013794D01*
X73103752Y-72936118D01*
X73258253Y-72823866D01*
X73386040Y-72681944D01*
X73481527Y-72516556D01*
X73540542Y-72334928D01*
X73560504Y-72145000D01*
X73540542Y-71955072D01*
X73481527Y-71773444D01*
X73386040Y-71608056D01*
X73386038Y-71608054D01*
X73386034Y-71608048D01*
X73258255Y-71466135D01*
X73103752Y-71353882D01*
X72929288Y-71276206D01*
X72742487Y-71236500D01*
X72551513Y-71236500D01*
X72364711Y-71276206D01*
X72190247Y-71353882D01*
X72035744Y-71466135D01*
X71907965Y-71608048D01*
X71907958Y-71608058D01*
X71812476Y-71773438D01*
X71812473Y-71773445D01*
X71753457Y-71955072D01*
X71736092Y-72120292D01*
X71709079Y-72185949D01*
X71699877Y-72196216D01*
X70196498Y-73699596D01*
X70134188Y-73733620D01*
X70107405Y-73736500D01*
X70051513Y-73736500D01*
X69864711Y-73776206D01*
X69690247Y-73853882D01*
X69535744Y-73966135D01*
X69407965Y-74108048D01*
X69407958Y-74108058D01*
X69312476Y-74273438D01*
X69312473Y-74273445D01*
X69253457Y-74455072D01*
X69233496Y-74645000D01*
X43631415Y-74645000D01*
X43772894Y-74631890D01*
X44184222Y-74555000D01*
X44586701Y-74440484D01*
X44976897Y-74289322D01*
X45351481Y-74102801D01*
X45707257Y-73882514D01*
X46041189Y-73630340D01*
X46350430Y-73348430D01*
X46632340Y-73039189D01*
X46884514Y-72705257D01*
X47104801Y-72349481D01*
X47291322Y-71974897D01*
X47442484Y-71584701D01*
X47557000Y-71182222D01*
X47633890Y-70770894D01*
X47672500Y-70354226D01*
X47672500Y-69935774D01*
X47633890Y-69519106D01*
X47557000Y-69107778D01*
X47442484Y-68705299D01*
X47291322Y-68315103D01*
X47104801Y-67940519D01*
X46884514Y-67584743D01*
X46632340Y-67250811D01*
X46632338Y-67250808D01*
X46350430Y-66941569D01*
X46041191Y-66659661D01*
X46041184Y-66659656D01*
X45707254Y-66407484D01*
X45707239Y-66407474D01*
X45351488Y-66187203D01*
X45351485Y-66187201D01*
X45351481Y-66187199D01*
X44976897Y-66000678D01*
X44976893Y-66000676D01*
X44767126Y-65919412D01*
X44586701Y-65849516D01*
X44496970Y-65823985D01*
X44184229Y-65735001D01*
X44184221Y-65734999D01*
X43772900Y-65658111D01*
X43772898Y-65658110D01*
X43772894Y-65658110D01*
X43356226Y-65619500D01*
X43356219Y-65619500D01*
X43298500Y-65619500D01*
X43230379Y-65599498D01*
X43183886Y-65545842D01*
X43172500Y-65493500D01*
X43172500Y-64145000D01*
X83733496Y-64145000D01*
X83753457Y-64334927D01*
X83783526Y-64427470D01*
X83812473Y-64516556D01*
X83812476Y-64516561D01*
X83907958Y-64681941D01*
X83907965Y-64681951D01*
X84035744Y-64823864D01*
X84035747Y-64823866D01*
X84190248Y-64936118D01*
X84364712Y-65013794D01*
X84551513Y-65053500D01*
X84742487Y-65053500D01*
X84929288Y-65013794D01*
X85103752Y-64936118D01*
X85258253Y-64823866D01*
X85386040Y-64681944D01*
X85481527Y-64516556D01*
X85540542Y-64334928D01*
X85560504Y-64145000D01*
X85540542Y-63955072D01*
X85481527Y-63773444D01*
X85386040Y-63608056D01*
X85312863Y-63526784D01*
X85282146Y-63462776D01*
X85280500Y-63442474D01*
X85280500Y-59347524D01*
X85300502Y-59279403D01*
X85312858Y-59263220D01*
X85386040Y-59181944D01*
X85481527Y-59016556D01*
X85540542Y-58834928D01*
X85560504Y-58645000D01*
X85540542Y-58455072D01*
X85481527Y-58273444D01*
X85386040Y-58108056D01*
X85386038Y-58108054D01*
X85386034Y-58108048D01*
X85258255Y-57966135D01*
X85103752Y-57853882D01*
X84929288Y-57776206D01*
X84742487Y-57736500D01*
X84551513Y-57736500D01*
X84364711Y-57776206D01*
X84190247Y-57853882D01*
X84035744Y-57966135D01*
X83907965Y-58108048D01*
X83907958Y-58108058D01*
X83812476Y-58273438D01*
X83812473Y-58273445D01*
X83753457Y-58455072D01*
X83733496Y-58645000D01*
X83753457Y-58834927D01*
X83783526Y-58927470D01*
X83812473Y-59016556D01*
X83907960Y-59181944D01*
X83981137Y-59263215D01*
X84011853Y-59327220D01*
X84013500Y-59347524D01*
X84013500Y-63442474D01*
X83993498Y-63510595D01*
X83981137Y-63526784D01*
X83907957Y-63608059D01*
X83812476Y-63773438D01*
X83812473Y-63773445D01*
X83753457Y-63955072D01*
X83733496Y-64145000D01*
X43172500Y-64145000D01*
X43172500Y-56845000D01*
X47233835Y-56845000D01*
X47252465Y-57081710D01*
X47307894Y-57312592D01*
X47398759Y-57531961D01*
X47522825Y-57734417D01*
X47522826Y-57734419D01*
X47677030Y-57914969D01*
X47857580Y-58069173D01*
X47857584Y-58069176D01*
X48060037Y-58193240D01*
X48279406Y-58284105D01*
X48510289Y-58339535D01*
X48747000Y-58358165D01*
X48983711Y-58339535D01*
X49214594Y-58284105D01*
X49433963Y-58193240D01*
X49636416Y-58069176D01*
X49816969Y-57914969D01*
X49971176Y-57734416D01*
X50095240Y-57531963D01*
X50186105Y-57312594D01*
X50241535Y-57081711D01*
X50260165Y-56845000D01*
X53733835Y-56845000D01*
X53752465Y-57081710D01*
X53807894Y-57312592D01*
X53898759Y-57531961D01*
X54022825Y-57734417D01*
X54022826Y-57734419D01*
X54177030Y-57914969D01*
X54357580Y-58069173D01*
X54357584Y-58069176D01*
X54560037Y-58193240D01*
X54779406Y-58284105D01*
X55010289Y-58339535D01*
X55247000Y-58358165D01*
X55483711Y-58339535D01*
X55714594Y-58284105D01*
X55933963Y-58193240D01*
X56136416Y-58069176D01*
X56316969Y-57914969D01*
X56471176Y-57734416D01*
X56595240Y-57531963D01*
X56686105Y-57312594D01*
X56741535Y-57081711D01*
X56760165Y-56845000D01*
X56741535Y-56608289D01*
X56686105Y-56377406D01*
X56595240Y-56158037D01*
X56471176Y-55955584D01*
X56471173Y-55955580D01*
X56316969Y-55775030D01*
X56136419Y-55620826D01*
X56136417Y-55620825D01*
X56136416Y-55620824D01*
X55933963Y-55496760D01*
X55714594Y-55405895D01*
X55714592Y-55405894D01*
X55556651Y-55367976D01*
X55483711Y-55350465D01*
X55247000Y-55331835D01*
X55010289Y-55350465D01*
X54779407Y-55405894D01*
X54560038Y-55496759D01*
X54357582Y-55620825D01*
X54357580Y-55620826D01*
X54177030Y-55775030D01*
X54022826Y-55955580D01*
X54022825Y-55955582D01*
X53898759Y-56158038D01*
X53807894Y-56377407D01*
X53752465Y-56608289D01*
X53733835Y-56845000D01*
X50260165Y-56845000D01*
X50241535Y-56608289D01*
X50186105Y-56377406D01*
X50095240Y-56158037D01*
X49971176Y-55955584D01*
X49971173Y-55955580D01*
X49816969Y-55775030D01*
X49636419Y-55620826D01*
X49636417Y-55620825D01*
X49636416Y-55620824D01*
X49433963Y-55496760D01*
X49214594Y-55405895D01*
X49214592Y-55405894D01*
X49056651Y-55367976D01*
X48983711Y-55350465D01*
X48747000Y-55331835D01*
X48510289Y-55350465D01*
X48279407Y-55405894D01*
X48060038Y-55496759D01*
X47857582Y-55620825D01*
X47857580Y-55620826D01*
X47677030Y-55775030D01*
X47522826Y-55955580D01*
X47522825Y-55955582D01*
X47398759Y-56158038D01*
X47307894Y-56377407D01*
X47252465Y-56608289D01*
X47233835Y-56845000D01*
X43172500Y-56845000D01*
X43172500Y-52345000D01*
X47234337Y-52345000D01*
X47252960Y-52581632D01*
X47308371Y-52812437D01*
X47399208Y-53031738D01*
X47513896Y-53218890D01*
X47513897Y-53218890D01*
X48220096Y-52512690D01*
X48223884Y-52530915D01*
X48293442Y-52665156D01*
X48396638Y-52775652D01*
X48525819Y-52854209D01*
X48581420Y-52869787D01*
X47873107Y-53578101D01*
X47873108Y-53578102D01*
X48060261Y-53692791D01*
X48279562Y-53783628D01*
X48510367Y-53839039D01*
X48747000Y-53857662D01*
X48983632Y-53839039D01*
X49214437Y-53783628D01*
X49433738Y-53692791D01*
X49620890Y-53578102D01*
X49620891Y-53578102D01*
X48914624Y-52871834D01*
X49035458Y-52819349D01*
X49152739Y-52723934D01*
X49239928Y-52600415D01*
X49271838Y-52510627D01*
X49980102Y-53218891D01*
X49980102Y-53218890D01*
X50094791Y-53031738D01*
X50185628Y-52812437D01*
X50241039Y-52581632D01*
X50259662Y-52345000D01*
X53734337Y-52345000D01*
X53752960Y-52581632D01*
X53808371Y-52812437D01*
X53899208Y-53031738D01*
X54013896Y-53218890D01*
X54013897Y-53218890D01*
X54720096Y-52512690D01*
X54723884Y-52530915D01*
X54793442Y-52665156D01*
X54896638Y-52775652D01*
X55025819Y-52854209D01*
X55081420Y-52869787D01*
X54373107Y-53578101D01*
X54373108Y-53578102D01*
X54560261Y-53692791D01*
X54779562Y-53783628D01*
X55010367Y-53839039D01*
X55247000Y-53857662D01*
X55483632Y-53839039D01*
X55714437Y-53783628D01*
X55933738Y-53692791D01*
X56120890Y-53578102D01*
X56120891Y-53578102D01*
X55414624Y-52871834D01*
X55535458Y-52819349D01*
X55652739Y-52723934D01*
X55739928Y-52600415D01*
X55771838Y-52510627D01*
X56480102Y-53218891D01*
X56480102Y-53218890D01*
X56594791Y-53031738D01*
X56685628Y-52812437D01*
X56741039Y-52581632D01*
X56759662Y-52345000D01*
X56741039Y-52108367D01*
X56685628Y-51877562D01*
X56594791Y-51658261D01*
X56480102Y-51471108D01*
X56480101Y-51471107D01*
X55773902Y-52177306D01*
X55770116Y-52159085D01*
X55700558Y-52024844D01*
X55597362Y-51914348D01*
X55468181Y-51835791D01*
X55412577Y-51820211D01*
X56120890Y-51111897D01*
X56120890Y-51111896D01*
X55933738Y-50997208D01*
X55714437Y-50906371D01*
X55483632Y-50850960D01*
X55247000Y-50832337D01*
X55010367Y-50850960D01*
X54779562Y-50906371D01*
X54560266Y-50997206D01*
X54373108Y-51111897D01*
X54373108Y-51111898D01*
X55079375Y-51818165D01*
X54958542Y-51870651D01*
X54841261Y-51966066D01*
X54754072Y-52089585D01*
X54722161Y-52179371D01*
X54013898Y-51471108D01*
X54013897Y-51471108D01*
X53899206Y-51658266D01*
X53808371Y-51877562D01*
X53752960Y-52108367D01*
X53734337Y-52345000D01*
X50259662Y-52345000D01*
X50241039Y-52108367D01*
X50185628Y-51877562D01*
X50094791Y-51658261D01*
X49980102Y-51471108D01*
X49980101Y-51471107D01*
X49273902Y-52177306D01*
X49270116Y-52159085D01*
X49200558Y-52024844D01*
X49097362Y-51914348D01*
X48968181Y-51835791D01*
X48912577Y-51820211D01*
X49620890Y-51111897D01*
X49620890Y-51111896D01*
X49433738Y-50997208D01*
X49214437Y-50906371D01*
X48983632Y-50850960D01*
X48747000Y-50832337D01*
X48510367Y-50850960D01*
X48279562Y-50906371D01*
X48060266Y-50997206D01*
X47873108Y-51111897D01*
X47873108Y-51111898D01*
X48579375Y-51818165D01*
X48458542Y-51870651D01*
X48341261Y-51966066D01*
X48254072Y-52089585D01*
X48222161Y-52179371D01*
X47513898Y-51471108D01*
X47513897Y-51471108D01*
X47399206Y-51658266D01*
X47308371Y-51877562D01*
X47252960Y-52108367D01*
X47234337Y-52345000D01*
X43172500Y-52345000D01*
X43172500Y-44296500D01*
X43192502Y-44228379D01*
X43246158Y-44181886D01*
X43298500Y-44170500D01*
X83141928Y-44170500D01*
X96995500Y-44170500D01*
X97063621Y-44190502D01*
G37*
G04 #@! TD.AperFunction*
G04 #@! TA.AperFunction,Conductor*
G36*
X85301835Y-102970148D02*
G01*
X85359359Y-103083045D01*
X85448955Y-103172641D01*
X85561852Y-103230165D01*
X85647480Y-103243726D01*
X85022870Y-103868337D01*
X85022870Y-103868339D01*
X85075072Y-103904891D01*
X85075071Y-103904891D01*
X85268412Y-103995047D01*
X85268418Y-103995049D01*
X85474479Y-104050263D01*
X85687000Y-104068856D01*
X85899522Y-104050263D01*
X85931487Y-104041698D01*
X86002464Y-104043386D01*
X86061260Y-104083180D01*
X86089209Y-104148444D01*
X86090100Y-104163404D01*
X86090100Y-110437105D01*
X86070098Y-110505226D01*
X86016442Y-110551719D01*
X85946168Y-110561823D01*
X85881588Y-110532329D01*
X85875005Y-110526200D01*
X79782305Y-104433500D01*
X79748279Y-104371188D01*
X79745400Y-104344405D01*
X79745400Y-103972723D01*
X79765402Y-103904602D01*
X79819058Y-103858109D01*
X79889332Y-103848005D01*
X79943668Y-103869508D01*
X79994820Y-103905326D01*
X80188245Y-103995521D01*
X80394392Y-104050758D01*
X80607000Y-104069359D01*
X80819608Y-104050758D01*
X81025755Y-103995521D01*
X81219180Y-103905326D01*
X81394003Y-103782913D01*
X81544913Y-103632003D01*
X81667326Y-103457180D01*
X81757521Y-103263755D01*
X81757523Y-103263745D01*
X81758598Y-103260795D01*
X81759425Y-103259671D01*
X81759846Y-103258769D01*
X81760027Y-103258853D01*
X81800692Y-103203624D01*
X81867013Y-103178285D01*
X81936505Y-103192825D01*
X81987105Y-103242627D01*
X81995402Y-103260795D01*
X81996480Y-103263758D01*
X82086673Y-103457178D01*
X82086674Y-103457180D01*
X82209083Y-103631998D01*
X82209090Y-103632007D01*
X82359992Y-103782909D01*
X82360001Y-103782916D01*
X82403088Y-103813086D01*
X82534820Y-103905326D01*
X82728245Y-103995521D01*
X82934392Y-104050758D01*
X83147000Y-104069359D01*
X83359608Y-104050758D01*
X83565755Y-103995521D01*
X83759180Y-103905326D01*
X83934003Y-103782913D01*
X84084913Y-103632003D01*
X84207326Y-103457180D01*
X84297521Y-103263755D01*
X84297522Y-103263750D01*
X84298865Y-103260063D01*
X84340958Y-103202891D01*
X84407279Y-103177552D01*
X84476771Y-103192091D01*
X84527371Y-103241892D01*
X84535668Y-103260060D01*
X84536949Y-103263580D01*
X84627106Y-103456924D01*
X84663660Y-103509128D01*
X85288272Y-102884516D01*
X85301835Y-102970148D01*
G37*
G04 #@! TD.AperFunction*
G04 #@! TA.AperFunction,Conductor*
G36*
X84850789Y-101193706D02*
G01*
X84899992Y-101242909D01*
X84900001Y-101242916D01*
X84943088Y-101273086D01*
X85074820Y-101365326D01*
X85207182Y-101427047D01*
X85268245Y-101455521D01*
X85271940Y-101456866D01*
X85329111Y-101498961D01*
X85354448Y-101565283D01*
X85339906Y-101634775D01*
X85290103Y-101685373D01*
X85271943Y-101693667D01*
X85268417Y-101694950D01*
X85075070Y-101785110D01*
X85022870Y-101821660D01*
X85647483Y-102446272D01*
X85561852Y-102459835D01*
X85448955Y-102517359D01*
X85359359Y-102606955D01*
X85301835Y-102719852D01*
X85288272Y-102805481D01*
X84663660Y-102180869D01*
X84627110Y-102233070D01*
X84536950Y-102426417D01*
X84535667Y-102429943D01*
X84534683Y-102431278D01*
X84534626Y-102431402D01*
X84534601Y-102431390D01*
X84493570Y-102487113D01*
X84427248Y-102512448D01*
X84357757Y-102497905D01*
X84307160Y-102448101D01*
X84298866Y-102429940D01*
X84297521Y-102426245D01*
X84262301Y-102350716D01*
X84207326Y-102232821D01*
X84084913Y-102057997D01*
X84039640Y-102012724D01*
X84005614Y-101950412D01*
X84010679Y-101879597D01*
X84031646Y-101843319D01*
X84059302Y-101809889D01*
X84067272Y-101801130D01*
X84572257Y-101296145D01*
X84584692Y-101286184D01*
X84584505Y-101285957D01*
X84590616Y-101280901D01*
X84590615Y-101280901D01*
X84590618Y-101280900D01*
X84637276Y-101231212D01*
X84639967Y-101228435D01*
X84659734Y-101208670D01*
X84662134Y-101205575D01*
X84719688Y-101164009D01*
X84790580Y-101160157D01*
X84850789Y-101193706D01*
G37*
G04 #@! TD.AperFunction*
G04 #@! TA.AperFunction,Conductor*
G36*
X81870259Y-90662558D02*
G01*
X81916325Y-90716581D01*
X81927300Y-90768013D01*
X81927300Y-90904849D01*
X81933809Y-90965396D01*
X81933811Y-90965404D01*
X81984910Y-91102402D01*
X81984912Y-91102407D01*
X82072538Y-91219461D01*
X82189592Y-91307087D01*
X82189594Y-91307088D01*
X82189596Y-91307089D01*
X82243470Y-91327183D01*
X82326595Y-91358188D01*
X82326603Y-91358190D01*
X82387150Y-91364699D01*
X82387155Y-91364699D01*
X82387162Y-91364700D01*
X82387168Y-91364700D01*
X83906832Y-91364700D01*
X83906838Y-91364700D01*
X83906845Y-91364699D01*
X83906849Y-91364699D01*
X83967396Y-91358190D01*
X83967399Y-91358189D01*
X83967401Y-91358189D01*
X84104404Y-91307089D01*
X84116510Y-91298027D01*
X84221461Y-91219461D01*
X84309087Y-91102407D01*
X84309087Y-91102406D01*
X84309089Y-91102404D01*
X84360189Y-90965401D01*
X84366700Y-90904838D01*
X84366700Y-90768013D01*
X84386702Y-90699892D01*
X84440358Y-90653399D01*
X84510632Y-90643295D01*
X84575212Y-90672789D01*
X84606895Y-90714764D01*
X84626670Y-90757174D01*
X84626674Y-90757180D01*
X84749083Y-90931998D01*
X84749090Y-90932007D01*
X84899992Y-91082909D01*
X84900001Y-91082916D01*
X84932460Y-91105644D01*
X85074820Y-91205326D01*
X85105133Y-91219461D01*
X85207338Y-91267120D01*
X85260623Y-91314037D01*
X85280084Y-91382314D01*
X85259542Y-91450274D01*
X85243183Y-91470410D01*
X83794936Y-92918657D01*
X83782501Y-92928621D01*
X83782689Y-92928848D01*
X83776579Y-92933902D01*
X83729970Y-92983535D01*
X83727220Y-92986373D01*
X83707463Y-93006131D01*
X83704974Y-93009339D01*
X83697288Y-93018336D01*
X83667018Y-93050573D01*
X83667011Y-93050583D01*
X83657251Y-93068335D01*
X83646403Y-93084850D01*
X83633986Y-93100858D01*
X83616424Y-93141440D01*
X83611204Y-93152095D01*
X83589905Y-93190839D01*
X83589903Y-93190844D01*
X83584867Y-93210459D01*
X83578464Y-93229162D01*
X83570419Y-93247752D01*
X83563501Y-93291425D01*
X83561095Y-93303042D01*
X83550100Y-93345868D01*
X83550100Y-93366123D01*
X83548549Y-93385833D01*
X83545380Y-93405842D01*
X83549541Y-93449861D01*
X83550100Y-93461719D01*
X83550100Y-98986078D01*
X83530098Y-99054199D01*
X83476442Y-99100692D01*
X83406168Y-99110796D01*
X83391494Y-99107785D01*
X83359608Y-99099242D01*
X83147000Y-99080641D01*
X82934392Y-99099242D01*
X82934389Y-99099242D01*
X82934386Y-99099243D01*
X82934384Y-99099243D01*
X82927958Y-99100965D01*
X82856982Y-99099272D01*
X82806257Y-99068352D01*
X82384244Y-98646339D01*
X82374279Y-98633901D01*
X82374052Y-98634090D01*
X82369001Y-98627984D01*
X82369000Y-98627982D01*
X82319348Y-98581356D01*
X82316505Y-98578600D01*
X82296777Y-98558871D01*
X82296771Y-98558866D01*
X82293567Y-98556380D01*
X82284556Y-98548683D01*
X82252325Y-98518417D01*
X82252319Y-98518413D01*
X82234563Y-98508651D01*
X82218047Y-98497802D01*
X82202041Y-98485386D01*
X82161464Y-98467827D01*
X82150807Y-98462605D01*
X82112063Y-98441306D01*
X82112060Y-98441305D01*
X82092436Y-98436266D01*
X82073736Y-98429864D01*
X82069530Y-98428044D01*
X82055145Y-98421819D01*
X82055143Y-98421818D01*
X82055141Y-98421818D01*
X82011474Y-98414901D01*
X81999855Y-98412495D01*
X81957030Y-98401500D01*
X81936776Y-98401500D01*
X81917066Y-98399949D01*
X81897057Y-98396780D01*
X81897056Y-98396779D01*
X81865625Y-98399751D01*
X81795925Y-98386248D01*
X81744589Y-98337206D01*
X81727916Y-98268194D01*
X81739574Y-98221059D01*
X81757045Y-98183591D01*
X81757049Y-98183581D01*
X81812263Y-97977520D01*
X81830856Y-97765000D01*
X81812263Y-97552479D01*
X81757049Y-97346418D01*
X81757047Y-97346413D01*
X81666889Y-97153068D01*
X81630340Y-97100870D01*
X81630337Y-97100870D01*
X81005726Y-97725480D01*
X80992165Y-97639852D01*
X80934641Y-97526955D01*
X80845045Y-97437359D01*
X80732148Y-97379835D01*
X80646517Y-97366272D01*
X81271128Y-96741660D01*
X81218924Y-96705106D01*
X81025580Y-96614949D01*
X81022060Y-96613668D01*
X81020725Y-96612685D01*
X81020598Y-96612626D01*
X81020609Y-96612600D01*
X80964889Y-96571574D01*
X80939551Y-96505252D01*
X80954092Y-96435761D01*
X81003894Y-96385162D01*
X81022063Y-96376865D01*
X81025751Y-96375522D01*
X81025750Y-96375522D01*
X81025755Y-96375521D01*
X81219180Y-96285326D01*
X81394003Y-96162913D01*
X81544913Y-96012003D01*
X81667326Y-95837180D01*
X81757521Y-95643755D01*
X81812758Y-95437608D01*
X81831359Y-95225000D01*
X81812758Y-95012392D01*
X81757521Y-94806245D01*
X81667326Y-94612821D01*
X81544913Y-94437997D01*
X81394003Y-94287087D01*
X81394002Y-94287086D01*
X81394001Y-94287085D01*
X81393998Y-94287083D01*
X81219180Y-94164674D01*
X81219178Y-94164673D01*
X81025758Y-94074480D01*
X81022795Y-94073402D01*
X81021671Y-94072574D01*
X81020769Y-94072154D01*
X81020853Y-94071972D01*
X80965624Y-94031308D01*
X80940285Y-93964987D01*
X80954825Y-93895495D01*
X81004627Y-93844895D01*
X81022795Y-93836598D01*
X81025745Y-93835523D01*
X81025755Y-93835521D01*
X81219180Y-93745326D01*
X81394003Y-93622913D01*
X81544913Y-93472003D01*
X81667326Y-93297180D01*
X81757521Y-93103755D01*
X81812758Y-92897608D01*
X81831359Y-92685000D01*
X81812758Y-92472392D01*
X81757521Y-92266245D01*
X81667326Y-92072821D01*
X81544913Y-91897997D01*
X81394003Y-91747087D01*
X81394002Y-91747086D01*
X81394001Y-91747085D01*
X81393998Y-91747083D01*
X81219180Y-91624674D01*
X81219178Y-91624673D01*
X81025758Y-91534480D01*
X81022795Y-91533402D01*
X81021671Y-91532574D01*
X81020769Y-91532154D01*
X81020853Y-91531972D01*
X80965624Y-91491308D01*
X80940285Y-91424987D01*
X80954825Y-91355495D01*
X81004627Y-91304895D01*
X81022795Y-91296598D01*
X81025745Y-91295523D01*
X81025755Y-91295521D01*
X81219180Y-91205326D01*
X81394003Y-91082913D01*
X81544913Y-90932003D01*
X81667326Y-90757180D01*
X81687105Y-90714764D01*
X81734022Y-90661478D01*
X81802299Y-90642017D01*
X81870259Y-90662558D01*
G37*
G04 #@! TD.AperFunction*
G04 #@! TA.AperFunction,Conductor*
G36*
X79396505Y-95572825D02*
G01*
X79447105Y-95622627D01*
X79455402Y-95640795D01*
X79456480Y-95643758D01*
X79546673Y-95837178D01*
X79546674Y-95837180D01*
X79669083Y-96011998D01*
X79669090Y-96012007D01*
X79819992Y-96162909D01*
X79820001Y-96162916D01*
X79861973Y-96192305D01*
X79994820Y-96285326D01*
X80148687Y-96357075D01*
X80188245Y-96375521D01*
X80191940Y-96376866D01*
X80249111Y-96418961D01*
X80274448Y-96485283D01*
X80259906Y-96554775D01*
X80210103Y-96605373D01*
X80191943Y-96613667D01*
X80188417Y-96614950D01*
X79995070Y-96705110D01*
X79942869Y-96741660D01*
X80567481Y-97366272D01*
X80481852Y-97379835D01*
X80368955Y-97437359D01*
X80279359Y-97526955D01*
X80221835Y-97639852D01*
X80208272Y-97725482D01*
X80005228Y-97522438D01*
X79971202Y-97460126D01*
X79968386Y-97437304D01*
X79967673Y-97414610D01*
X79962022Y-97395163D01*
X79958012Y-97375800D01*
X79956648Y-97365000D01*
X79955474Y-97355703D01*
X79952675Y-97348635D01*
X79939197Y-97314594D01*
X79935353Y-97303369D01*
X79923018Y-97260907D01*
X79912705Y-97243469D01*
X79904010Y-97225722D01*
X79896552Y-97206883D01*
X79870568Y-97171120D01*
X79864051Y-97161199D01*
X79841541Y-97123135D01*
X79827218Y-97108812D01*
X79814377Y-97093779D01*
X79802471Y-97077392D01*
X79768405Y-97049210D01*
X79759626Y-97041221D01*
X79058144Y-96339739D01*
X79048179Y-96327301D01*
X79047952Y-96327490D01*
X79042901Y-96321384D01*
X79042900Y-96321382D01*
X79026286Y-96305781D01*
X78993249Y-96274757D01*
X78990405Y-96272000D01*
X78970677Y-96252271D01*
X78970671Y-96252266D01*
X78968615Y-96250671D01*
X78967571Y-96249861D01*
X78926007Y-96192305D01*
X78922158Y-96121412D01*
X78955704Y-96061211D01*
X79004913Y-96012003D01*
X79127326Y-95837180D01*
X79217521Y-95643755D01*
X79217523Y-95643745D01*
X79218598Y-95640795D01*
X79219425Y-95639671D01*
X79219846Y-95638769D01*
X79220027Y-95638853D01*
X79260692Y-95583624D01*
X79327013Y-95558285D01*
X79396505Y-95572825D01*
G37*
G04 #@! TD.AperFunction*
G04 #@! TA.AperFunction,Conductor*
G36*
X79396505Y-90492825D02*
G01*
X79447105Y-90542627D01*
X79455402Y-90560795D01*
X79456480Y-90563758D01*
X79546673Y-90757178D01*
X79546674Y-90757180D01*
X79669083Y-90931998D01*
X79669090Y-90932007D01*
X79819992Y-91082909D01*
X79820001Y-91082916D01*
X79852460Y-91105644D01*
X79994820Y-91205326D01*
X80144876Y-91275298D01*
X80188249Y-91295523D01*
X80191208Y-91296600D01*
X80192328Y-91297425D01*
X80193231Y-91297846D01*
X80193146Y-91298027D01*
X80248378Y-91338696D01*
X80273714Y-91405018D01*
X80259171Y-91474510D01*
X80209367Y-91525107D01*
X80191208Y-91533400D01*
X80188249Y-91534476D01*
X79994820Y-91624674D01*
X79820000Y-91747084D01*
X79819994Y-91747089D01*
X79669089Y-91897994D01*
X79669084Y-91898000D01*
X79546674Y-92072820D01*
X79456476Y-92266249D01*
X79455400Y-92269208D01*
X79454574Y-92270328D01*
X79454154Y-92271231D01*
X79453972Y-92271146D01*
X79413304Y-92326378D01*
X79346982Y-92351714D01*
X79277490Y-92337171D01*
X79226893Y-92287367D01*
X79218600Y-92269208D01*
X79217523Y-92266249D01*
X79178571Y-92182716D01*
X79127326Y-92072821D01*
X79004913Y-91897997D01*
X78854003Y-91747087D01*
X78854002Y-91747086D01*
X78854001Y-91747085D01*
X78853998Y-91747083D01*
X78679180Y-91624674D01*
X78679178Y-91624673D01*
X78485758Y-91534480D01*
X78482795Y-91533402D01*
X78481671Y-91532574D01*
X78480769Y-91532154D01*
X78480853Y-91531972D01*
X78425624Y-91491308D01*
X78400285Y-91424987D01*
X78414825Y-91355495D01*
X78464627Y-91304895D01*
X78482795Y-91296598D01*
X78485745Y-91295523D01*
X78485755Y-91295521D01*
X78679180Y-91205326D01*
X78854003Y-91082913D01*
X79004913Y-90932003D01*
X79127326Y-90757180D01*
X79217521Y-90563755D01*
X79217523Y-90563745D01*
X79218598Y-90560795D01*
X79219425Y-90559671D01*
X79219846Y-90558769D01*
X79220027Y-90558853D01*
X79260692Y-90503624D01*
X79327013Y-90478285D01*
X79396505Y-90492825D01*
G37*
G04 #@! TD.AperFunction*
G04 #@! TA.AperFunction,Conductor*
G36*
X81936505Y-87952825D02*
G01*
X81987105Y-88002627D01*
X81995402Y-88020795D01*
X81996480Y-88023758D01*
X82086673Y-88217178D01*
X82086674Y-88217180D01*
X82209083Y-88391998D01*
X82209090Y-88392007D01*
X82359992Y-88542909D01*
X82359996Y-88542912D01*
X82359997Y-88542913D01*
X82512959Y-88650019D01*
X82537891Y-88667476D01*
X82582219Y-88722933D01*
X82589528Y-88793552D01*
X82581245Y-88820757D01*
X82579813Y-88824064D01*
X82574604Y-88834694D01*
X82560694Y-88859998D01*
X82510351Y-88910058D01*
X82450278Y-88925300D01*
X82387150Y-88925300D01*
X82326603Y-88931809D01*
X82326595Y-88931811D01*
X82189597Y-88982910D01*
X82189592Y-88982912D01*
X82072538Y-89070538D01*
X81984912Y-89187592D01*
X81984910Y-89187597D01*
X81933811Y-89324595D01*
X81933809Y-89324603D01*
X81927300Y-89385150D01*
X81927300Y-89521987D01*
X81907298Y-89590108D01*
X81853642Y-89636601D01*
X81783368Y-89646705D01*
X81718788Y-89617211D01*
X81687105Y-89575237D01*
X81670544Y-89539722D01*
X81667326Y-89532821D01*
X81544913Y-89357997D01*
X81394003Y-89207087D01*
X81394002Y-89207086D01*
X81394001Y-89207085D01*
X81393998Y-89207083D01*
X81219180Y-89084674D01*
X81219178Y-89084673D01*
X81025758Y-88994480D01*
X81022795Y-88993402D01*
X81021671Y-88992574D01*
X81020769Y-88992154D01*
X81020853Y-88991972D01*
X80965624Y-88951308D01*
X80940285Y-88884987D01*
X80954825Y-88815495D01*
X81004627Y-88764895D01*
X81022795Y-88756598D01*
X81025745Y-88755523D01*
X81025755Y-88755521D01*
X81219180Y-88665326D01*
X81394003Y-88542913D01*
X81544913Y-88392003D01*
X81667326Y-88217180D01*
X81757521Y-88023755D01*
X81757523Y-88023745D01*
X81758598Y-88020795D01*
X81759425Y-88019671D01*
X81759846Y-88018769D01*
X81760027Y-88018853D01*
X81800692Y-87963624D01*
X81867013Y-87938285D01*
X81936505Y-87952825D01*
G37*
G04 #@! TD.AperFunction*
G04 #@! TA.AperFunction,Conductor*
G36*
X83202217Y-77435552D02*
G01*
X83259053Y-77478099D01*
X83283495Y-77540438D01*
X83289957Y-77601927D01*
X83307074Y-77654606D01*
X83348973Y-77783556D01*
X83348976Y-77783561D01*
X83437784Y-77937382D01*
X83444460Y-77948944D01*
X83517637Y-78030215D01*
X83548353Y-78094220D01*
X83550000Y-78114524D01*
X83550000Y-86286050D01*
X83529998Y-86354171D01*
X83476342Y-86400664D01*
X83406068Y-86410768D01*
X83391391Y-86407757D01*
X83359615Y-86399243D01*
X83359610Y-86399242D01*
X83359608Y-86399242D01*
X83147000Y-86380641D01*
X82934392Y-86399242D01*
X82879156Y-86414042D01*
X82728246Y-86454478D01*
X82728241Y-86454480D01*
X82534820Y-86544674D01*
X82360000Y-86667084D01*
X82359994Y-86667089D01*
X82209089Y-86817994D01*
X82209084Y-86818000D01*
X82086674Y-86992820D01*
X81996476Y-87186249D01*
X81995400Y-87189208D01*
X81994574Y-87190328D01*
X81994154Y-87191231D01*
X81993972Y-87191146D01*
X81953304Y-87246378D01*
X81886982Y-87271714D01*
X81817490Y-87257171D01*
X81766893Y-87207367D01*
X81758600Y-87189208D01*
X81757523Y-87186249D01*
X81729606Y-87126381D01*
X81667326Y-86992821D01*
X81544913Y-86817997D01*
X81394003Y-86667087D01*
X81394002Y-86667086D01*
X81394001Y-86667085D01*
X81393998Y-86667083D01*
X81219180Y-86544674D01*
X81219173Y-86544670D01*
X81210244Y-86540506D01*
X81156962Y-86493586D01*
X81137500Y-86426314D01*
X81137500Y-82026827D01*
X81157502Y-81958706D01*
X81211158Y-81912213D01*
X81281432Y-81902109D01*
X81296112Y-81905121D01*
X81418991Y-81938047D01*
X81418995Y-81938048D01*
X81647000Y-81957995D01*
X81875002Y-81938048D01*
X82096068Y-81878813D01*
X82096073Y-81878811D01*
X82303497Y-81782088D01*
X82374888Y-81732099D01*
X82374888Y-81732097D01*
X81686518Y-81043727D01*
X81772148Y-81030165D01*
X81885045Y-80972641D01*
X81974641Y-80883045D01*
X82032165Y-80770148D01*
X82045727Y-80684518D01*
X82734097Y-81372888D01*
X82734099Y-81372888D01*
X82784088Y-81301497D01*
X82880811Y-81094073D01*
X82880813Y-81094068D01*
X82940048Y-80873002D01*
X82959995Y-80645000D01*
X82940048Y-80416997D01*
X82880813Y-80195931D01*
X82880811Y-80195926D01*
X82784086Y-79988498D01*
X82734100Y-79917110D01*
X82734098Y-79917110D01*
X82045727Y-80605481D01*
X82032165Y-80519852D01*
X81974641Y-80406955D01*
X81885045Y-80317359D01*
X81772148Y-80259835D01*
X81686516Y-80246272D01*
X82374888Y-79557899D01*
X82374888Y-79557898D01*
X82303501Y-79507913D01*
X82096073Y-79411188D01*
X82096068Y-79411186D01*
X81875000Y-79351951D01*
X81875004Y-79351951D01*
X81646999Y-79332004D01*
X81503759Y-79344536D01*
X81434155Y-79330547D01*
X81383162Y-79281147D01*
X81366972Y-79212021D01*
X81390725Y-79145116D01*
X81403677Y-79129925D01*
X83069090Y-77464512D01*
X83131402Y-77430487D01*
X83202217Y-77435552D01*
G37*
G04 #@! TD.AperFunction*
M02*
