G04 #@! TF.GenerationSoftware,KiCad,Pcbnew,(6.0.9)*
G04 #@! TF.CreationDate,2023-08-06T15:20:05+02:00*
G04 #@! TF.ProjectId,p2000t-multicartridge,70323030-3074-42d6-9d75-6c7469636172,rev?*
G04 #@! TF.SameCoordinates,Original*
G04 #@! TF.FileFunction,Copper,L2,Bot*
G04 #@! TF.FilePolarity,Positive*
%FSLAX46Y46*%
G04 Gerber Fmt 4.6, Leading zero omitted, Abs format (unit mm)*
G04 Created by KiCad (PCBNEW (6.0.9)) date 2023-08-06 15:20:05*
%MOMM*%
%LPD*%
G01*
G04 APERTURE LIST*
G04 Aperture macros list*
%AMFreePoly0*
4,1,6,1.000000,0.000000,0.500000,-0.750000,-0.500000,-0.750000,-0.500000,0.750000,0.500000,0.750000,1.000000,0.000000,1.000000,0.000000,$1*%
%AMFreePoly1*
4,1,6,0.500000,-0.750000,-0.650000,-0.750000,-0.150000,0.000000,-0.650000,0.750000,0.500000,0.750000,0.500000,-0.750000,0.500000,-0.750000,$1*%
G04 Aperture macros list end*
G04 #@! TA.AperFunction,ComponentPad*
%ADD10C,2.000000*%
G04 #@! TD*
G04 #@! TA.AperFunction,ComponentPad*
%ADD11C,1.500000*%
G04 #@! TD*
G04 #@! TA.AperFunction,ComponentPad*
%ADD12R,1.600000X1.600000*%
G04 #@! TD*
G04 #@! TA.AperFunction,ComponentPad*
%ADD13O,1.600000X1.600000*%
G04 #@! TD*
G04 #@! TA.AperFunction,ComponentPad*
%ADD14C,1.600000*%
G04 #@! TD*
G04 #@! TA.AperFunction,ComponentPad*
%ADD15R,1.700000X1.700000*%
G04 #@! TD*
G04 #@! TA.AperFunction,ComponentPad*
%ADD16O,1.700000X1.700000*%
G04 #@! TD*
G04 #@! TA.AperFunction,SMDPad,CuDef*
%ADD17FreePoly0,0.000000*%
G04 #@! TD*
G04 #@! TA.AperFunction,SMDPad,CuDef*
%ADD18FreePoly1,0.000000*%
G04 #@! TD*
G04 #@! TA.AperFunction,SMDPad,CuDef*
%ADD19R,2.000000X10.000000*%
G04 #@! TD*
G04 #@! TA.AperFunction,ComponentPad*
%ADD20R,1.422400X1.422400*%
G04 #@! TD*
G04 #@! TA.AperFunction,ComponentPad*
%ADD21C,1.422400*%
G04 #@! TD*
G04 #@! TA.AperFunction,ViaPad*
%ADD22C,0.800000*%
G04 #@! TD*
G04 #@! TA.AperFunction,Conductor*
%ADD23C,0.250000*%
G04 #@! TD*
G04 APERTURE END LIST*
D10*
X55247000Y-52345000D03*
X48747000Y-52345000D03*
X55247000Y-56845000D03*
X48747000Y-56845000D03*
D11*
X47498000Y-81661000D03*
X47498000Y-88370000D03*
X53445000Y-88370000D03*
X53467000Y-81407000D03*
D12*
X105821000Y-88337000D03*
D13*
X105821000Y-90877000D03*
X105821000Y-93417000D03*
X105821000Y-95957000D03*
X105821000Y-98497000D03*
X105821000Y-101037000D03*
X105821000Y-103577000D03*
X98201000Y-103577000D03*
X98201000Y-101037000D03*
X98201000Y-98497000D03*
X98201000Y-95957000D03*
X98201000Y-93417000D03*
X98201000Y-90877000D03*
X98201000Y-88337000D03*
D14*
X99471000Y-83003000D03*
X104471000Y-83003000D03*
X86647000Y-80645000D03*
X81647000Y-80645000D03*
D15*
X113792000Y-61849000D03*
D16*
X111252000Y-61849000D03*
X108712000Y-61849000D03*
X106172000Y-61849000D03*
X103632000Y-61849000D03*
X101092000Y-61849000D03*
D17*
X62954000Y-68557000D03*
D18*
X64404000Y-68557000D03*
D12*
X118347000Y-88345000D03*
D13*
X118347000Y-90885000D03*
X118347000Y-93425000D03*
X118347000Y-95965000D03*
X118347000Y-98505000D03*
X118347000Y-101045000D03*
X118347000Y-103585000D03*
X118347000Y-106125000D03*
X110727000Y-106125000D03*
X110727000Y-103585000D03*
X110727000Y-101045000D03*
X110727000Y-98505000D03*
X110727000Y-95965000D03*
X110727000Y-93425000D03*
X110727000Y-90885000D03*
X110727000Y-88345000D03*
D12*
X105797000Y-112945000D03*
D14*
X103297000Y-112945000D03*
X116997000Y-83045000D03*
X111997000Y-83045000D03*
X70165000Y-81383000D03*
D13*
X70165000Y-89003000D03*
D14*
X66915000Y-81383000D03*
D13*
X66915000Y-89003000D03*
D14*
X63615000Y-88973000D03*
D13*
X63615000Y-81353000D03*
D19*
X55465000Y-139192000D03*
X59425000Y-139192000D03*
X63385000Y-139192000D03*
X67345000Y-139192000D03*
X71305000Y-139192000D03*
X75265000Y-139192000D03*
X79225000Y-139192000D03*
X83185000Y-139192000D03*
X87145000Y-139192000D03*
X91105000Y-139192000D03*
X95065000Y-139192000D03*
X99025000Y-139192000D03*
X102985000Y-139192000D03*
X110905000Y-139192000D03*
D12*
X115443000Y-112903000D03*
D14*
X112943000Y-112903000D03*
D12*
X97663000Y-76581000D03*
D13*
X100203000Y-76581000D03*
X102743000Y-76581000D03*
X105283000Y-76581000D03*
X107823000Y-76581000D03*
X110363000Y-76581000D03*
X112903000Y-76581000D03*
X115443000Y-76581000D03*
X117983000Y-76581000D03*
D20*
X83147000Y-90145000D03*
D21*
X85687000Y-87605000D03*
X85687000Y-90145000D03*
X88227000Y-87605000D03*
X90767000Y-90145000D03*
X88227000Y-90145000D03*
X90767000Y-92685000D03*
X88227000Y-92685000D03*
X90767000Y-95225000D03*
X88227000Y-95225000D03*
X90767000Y-97765000D03*
X88227000Y-97765000D03*
X90767000Y-100305000D03*
X88227000Y-102845000D03*
X88227000Y-100305000D03*
X85687000Y-102845000D03*
X85687000Y-100305000D03*
X83147000Y-102845000D03*
X83147000Y-100305000D03*
X80607000Y-102845000D03*
X78067000Y-100305000D03*
X80607000Y-100305000D03*
X78067000Y-97765000D03*
X80607000Y-97765000D03*
X78067000Y-95225000D03*
X80607000Y-95225000D03*
X78067000Y-92685000D03*
X80607000Y-92685000D03*
X78067000Y-90145000D03*
X80607000Y-87605000D03*
X80607000Y-90145000D03*
X83147000Y-87605000D03*
D22*
X110905000Y-125387000D03*
X72647000Y-72145000D03*
X70147000Y-74645000D03*
X84647000Y-58645000D03*
X70147000Y-77145000D03*
X118809900Y-80874100D03*
X84647000Y-64145000D03*
X55147000Y-126145000D03*
X65361300Y-125810200D03*
X66120900Y-124022200D03*
X89214900Y-96281300D03*
X94083400Y-97122800D03*
X86447600Y-111994700D03*
X86897600Y-119974300D03*
X86375400Y-121682600D03*
X103803300Y-102563600D03*
X96251500Y-79064100D03*
X95294200Y-78523400D03*
X84183500Y-77412000D03*
X95998400Y-81559300D03*
X101940700Y-84448000D03*
X78702300Y-76682500D03*
D23*
X81877000Y-99035000D02*
X81877000Y-100510800D01*
X80607000Y-97765000D02*
X81877000Y-99035000D01*
X82941200Y-101575000D02*
X84417000Y-101575000D01*
X84417000Y-101575000D02*
X85687000Y-102845000D01*
X81877000Y-100510800D02*
X82941200Y-101575000D01*
X110905000Y-139192000D02*
X110905000Y-125387000D01*
X48747000Y-52345000D02*
X55247000Y-52345000D01*
X113792000Y-60290000D02*
X112147000Y-58645000D01*
X99471000Y-87067000D02*
X98201000Y-88337000D01*
X86647000Y-84105000D02*
X86647000Y-80645000D01*
X58647000Y-83145000D02*
X58647000Y-99145000D01*
X70165000Y-81383000D02*
X66915000Y-81383000D01*
X60439000Y-81353000D02*
X58647000Y-83145000D01*
X85522000Y-79520000D02*
X74272000Y-79520000D01*
X101329000Y-81145000D02*
X115097000Y-81145000D01*
X113792000Y-61849000D02*
X113792000Y-60290000D01*
X115647000Y-100145000D02*
X114747000Y-101045000D01*
X116387000Y-90885000D02*
X118347000Y-90885000D01*
X99471000Y-83003000D02*
X99471000Y-87067000D01*
X83147000Y-87605000D02*
X86647000Y-84105000D01*
X70147000Y-74645000D02*
X70147000Y-77145000D01*
X66915000Y-81383000D02*
X63645000Y-81383000D01*
X72409000Y-81383000D02*
X70165000Y-81383000D01*
X115647000Y-90145000D02*
X115647000Y-92145000D01*
X116147000Y-86645000D02*
X115647000Y-87145000D01*
X84647000Y-64145000D02*
X80647000Y-64145000D01*
X113792000Y-61849000D02*
X113792000Y-63024300D01*
X115647000Y-92145000D02*
X116927000Y-93425000D01*
X58647000Y-99145000D02*
X55147000Y-102645000D01*
X96005000Y-83003000D02*
X99471000Y-83003000D01*
X115647000Y-90145000D02*
X116387000Y-90885000D01*
X74272000Y-79520000D02*
X72409000Y-81383000D01*
X99471000Y-83003000D02*
X101329000Y-81145000D01*
X55147000Y-102645000D02*
X55147000Y-126145000D01*
X80647000Y-64145000D02*
X72647000Y-72145000D01*
X112147000Y-58645000D02*
X84647000Y-58645000D01*
X116713000Y-78777200D02*
X116713000Y-65945300D01*
X86647000Y-80645000D02*
X93647000Y-80645000D01*
X114447000Y-88345000D02*
X115647000Y-87145000D01*
X116997000Y-85795000D02*
X116147000Y-86645000D01*
X93647000Y-80645000D02*
X96005000Y-83003000D01*
X115647000Y-89645000D02*
X115647000Y-90145000D01*
X63615000Y-81353000D02*
X60439000Y-81353000D01*
X114747000Y-101045000D02*
X110727000Y-101045000D01*
X116927000Y-93425000D02*
X118347000Y-93425000D01*
X116713000Y-65945300D02*
X113792000Y-63024300D01*
X115647000Y-89645000D02*
X115647000Y-90145000D01*
X115647000Y-92145000D02*
X115647000Y-100145000D01*
X86647000Y-80645000D02*
X85522000Y-79520000D01*
X110727000Y-88345000D02*
X114447000Y-88345000D01*
X115647000Y-87145000D02*
X116147000Y-86645000D01*
X63645000Y-81383000D02*
X63615000Y-81353000D01*
X116997000Y-83045000D02*
X116997000Y-85795000D01*
X115097000Y-81145000D02*
X116997000Y-83045000D01*
X115647000Y-87145000D02*
X115647000Y-89645000D01*
X118809900Y-80874100D02*
X116713000Y-78777200D01*
X80607000Y-90145000D02*
X83147000Y-87605000D01*
X88227000Y-102944500D02*
X88227000Y-102845000D01*
X65361300Y-125810200D02*
X88227000Y-102944500D01*
X85687000Y-100305000D02*
X86728300Y-101346300D01*
X86728300Y-101346300D02*
X86728300Y-103414800D01*
X86728300Y-103414800D02*
X66120900Y-124022200D01*
X80607000Y-95225000D02*
X86608700Y-95225000D01*
X87665000Y-96281300D02*
X89214900Y-96281300D01*
X86608700Y-95225000D02*
X87665000Y-96281300D01*
X91205500Y-94188400D02*
X79103600Y-94188400D01*
X79103600Y-94188400D02*
X78067000Y-95225000D01*
X94083400Y-97122800D02*
X94083400Y-97066300D01*
X94083400Y-97066300D02*
X91205500Y-94188400D01*
X104695700Y-93417000D02*
X100964300Y-89685600D01*
X97652800Y-89685600D02*
X95572200Y-87605000D01*
X95572200Y-87605000D02*
X88227000Y-87605000D01*
X100964300Y-89685600D02*
X97652800Y-89685600D01*
X105821000Y-93417000D02*
X104695700Y-93417000D01*
X95065000Y-139192000D02*
X95065000Y-120612100D01*
X95065000Y-120612100D02*
X86447600Y-111994700D01*
X94811200Y-102544600D02*
X94811200Y-96824800D01*
X94811200Y-96824800D02*
X91719500Y-93733100D01*
X91105000Y-139192000D02*
X91105000Y-118149600D01*
X85722100Y-112766700D02*
X85722100Y-111633700D01*
X91105000Y-118149600D02*
X85722100Y-112766700D01*
X79115100Y-93733100D02*
X78067000Y-92685000D01*
X91719500Y-93733100D02*
X79115100Y-93733100D01*
X85722100Y-111633700D02*
X94811200Y-102544600D01*
X87145000Y-139192000D02*
X87145000Y-133866700D01*
X87145000Y-120221700D02*
X86897600Y-119974300D01*
X87145000Y-133866700D02*
X87145000Y-120221700D01*
X83185000Y-133866700D02*
X86375400Y-130676300D01*
X83185000Y-139192000D02*
X83185000Y-133866700D01*
X86375400Y-130676300D02*
X86375400Y-121682600D01*
X79225000Y-115113000D02*
X92278100Y-102059900D01*
X91122200Y-96654300D02*
X90642600Y-96654300D01*
X79225000Y-139192000D02*
X79225000Y-115113000D01*
X89213300Y-95225000D02*
X88227000Y-95225000D01*
X92278100Y-102059900D02*
X92278100Y-97810200D01*
X92278100Y-97810200D02*
X91122200Y-96654300D01*
X90642600Y-96654300D02*
X89213300Y-95225000D01*
X91826000Y-101585300D02*
X75265000Y-118146300D01*
X88227000Y-97765000D02*
X89641100Y-99179100D01*
X75265000Y-118146300D02*
X75265000Y-133866700D01*
X75265000Y-139192000D02*
X75265000Y-133866700D01*
X91143300Y-99179100D02*
X91826000Y-99861800D01*
X89641100Y-99179100D02*
X91143300Y-99179100D01*
X91826000Y-99861800D02*
X91826000Y-101585300D01*
X64635900Y-127197600D02*
X64635900Y-118816100D01*
X64635900Y-118816100D02*
X80607000Y-102845000D01*
X71305000Y-133866700D02*
X64635900Y-127197600D01*
X71305000Y-139192000D02*
X71305000Y-133866700D01*
X64178700Y-117765700D02*
X80147600Y-101796800D01*
X67345000Y-139192000D02*
X67345000Y-132263200D01*
X82098800Y-101796800D02*
X83147000Y-102845000D01*
X64178700Y-129096900D02*
X64178700Y-117765700D01*
X80147600Y-101796800D02*
X82098800Y-101796800D01*
X67345000Y-132263200D02*
X64178700Y-129096900D01*
X79337000Y-97504100D02*
X80114300Y-96726800D01*
X63385000Y-117489800D02*
X79337000Y-101537800D01*
X79337000Y-101537800D02*
X79337000Y-97504100D01*
X80114300Y-96726800D02*
X84648800Y-96726800D01*
X63385000Y-133866700D02*
X63385000Y-117489800D01*
X63385000Y-139192000D02*
X63385000Y-133866700D01*
X84648800Y-96726800D02*
X88227000Y-100305000D01*
X88509700Y-98875600D02*
X89939100Y-100305000D01*
X78048500Y-96276400D02*
X85272600Y-96276400D01*
X89939100Y-100305000D02*
X90767000Y-100305000D01*
X85272600Y-96276400D02*
X87871800Y-98875600D01*
X87871800Y-98875600D02*
X88509700Y-98875600D01*
X59425000Y-114899900D02*
X78048500Y-96276400D01*
X59425000Y-139192000D02*
X59425000Y-114899900D01*
X106175000Y-99767000D02*
X106951600Y-100543600D01*
X105395000Y-99767000D02*
X106175000Y-99767000D01*
X104671600Y-132180100D02*
X102985000Y-133866700D01*
X106951600Y-104702400D02*
X104671600Y-106982400D01*
X98201000Y-93417000D02*
X99326300Y-93417000D01*
X99326300Y-93417000D02*
X99326300Y-93698300D01*
X99326300Y-93698300D02*
X105395000Y-99767000D01*
X102985000Y-139192000D02*
X102985000Y-133866700D01*
X106951600Y-100543600D02*
X106951600Y-104702400D01*
X104671600Y-106982400D02*
X104671600Y-132180100D01*
X98201000Y-90877000D02*
X99326300Y-90877000D01*
X104406300Y-95957000D02*
X99326300Y-90877000D01*
X105821000Y-95957000D02*
X104406300Y-95957000D01*
X99025000Y-107341900D02*
X99025000Y-139192000D01*
X103803300Y-102563600D02*
X99025000Y-107341900D01*
X114317700Y-68630000D02*
X114317700Y-76581000D01*
X112115900Y-79064100D02*
X96251500Y-79064100D01*
X114317700Y-76581000D02*
X114317700Y-76862300D01*
X115443000Y-76581000D02*
X114317700Y-76581000D01*
X108712000Y-61849000D02*
X108712000Y-63024300D01*
X114317700Y-76862300D02*
X112115900Y-79064100D01*
X108712000Y-63024300D02*
X114317700Y-68630000D01*
X112903000Y-76581000D02*
X111777700Y-76581000D01*
X111777700Y-76832400D02*
X111777700Y-76581000D01*
X95294200Y-78523400D02*
X95595100Y-78222500D01*
X95595100Y-78222500D02*
X110387600Y-78222500D01*
X110387600Y-78222500D02*
X111777700Y-76832400D01*
X69175000Y-61849000D02*
X62954000Y-68070000D01*
X101092000Y-61849000D02*
X69175000Y-61849000D01*
X62954000Y-68070000D02*
X62954000Y-68557000D01*
X98589900Y-94687000D02*
X94821900Y-94687000D01*
X91782300Y-91647400D02*
X81644600Y-91647400D01*
X94821900Y-94687000D02*
X91782300Y-91647400D01*
X104695700Y-101037000D02*
X104695700Y-100792800D01*
X104695700Y-100792800D02*
X98589900Y-94687000D01*
X81644600Y-91647400D02*
X80607000Y-92685000D01*
X105821000Y-101037000D02*
X104695700Y-101037000D01*
X65229300Y-68557000D02*
X74084300Y-77412000D01*
X74084300Y-77412000D02*
X84183500Y-77412000D01*
X64404000Y-68557000D02*
X65229300Y-68557000D01*
X95393300Y-81559300D02*
X92879500Y-79045500D01*
X53445000Y-87679400D02*
X53445000Y-88370000D01*
X55465000Y-139192000D02*
X55465000Y-133866700D01*
X62078900Y-79045500D02*
X53445000Y-87679400D01*
X110493300Y-89751600D02*
X105189700Y-84448000D01*
X53445000Y-88370000D02*
X53445000Y-131846700D01*
X53445000Y-131846700D02*
X55465000Y-133866700D01*
X92879500Y-79045500D02*
X62078900Y-79045500D01*
X111185900Y-89751600D02*
X110493300Y-89751600D01*
X95998400Y-81559300D02*
X95393300Y-81559300D01*
X110727000Y-98505000D02*
X111899600Y-97332400D01*
X111899600Y-97332400D02*
X111899600Y-90465300D01*
X105189700Y-84448000D02*
X101940700Y-84448000D01*
X111899600Y-90465300D02*
X111185900Y-89751600D01*
X93743800Y-91181700D02*
X70219000Y-91181700D01*
X109601700Y-92854200D02*
X110445600Y-92010300D01*
X105797000Y-112945000D02*
X105797000Y-111819700D01*
X110727000Y-90885000D02*
X110727000Y-92010300D01*
X107402000Y-110214700D02*
X107402000Y-98414900D01*
X94709100Y-92147000D02*
X93743800Y-91181700D01*
X106214100Y-97227000D02*
X104546300Y-97227000D01*
X107402000Y-98414900D02*
X106214100Y-97227000D01*
X66915000Y-89003000D02*
X68040300Y-89003000D01*
X99466300Y-92147000D02*
X94709100Y-92147000D01*
X109601700Y-93839400D02*
X109601700Y-92854200D01*
X104546300Y-97227000D02*
X99466300Y-92147000D01*
X70219000Y-91181700D02*
X68040300Y-89003000D01*
X110445600Y-92010300D02*
X110727000Y-92010300D01*
X105797000Y-111819700D02*
X107402000Y-110214700D01*
X106214100Y-97227000D02*
X109601700Y-93839400D01*
X112943000Y-107293000D02*
X112943000Y-112903000D01*
X118347000Y-102170300D02*
X118065700Y-102170300D01*
X118065700Y-102170300D02*
X112943000Y-107293000D01*
X118347000Y-101045000D02*
X118347000Y-102170300D01*
X116699400Y-79789500D02*
X95534200Y-79789500D01*
X118065700Y-104710300D02*
X115443000Y-107333000D01*
X118347000Y-104147600D02*
X118347000Y-104710300D01*
X118347000Y-104147600D02*
X118347000Y-104043200D01*
X95534200Y-79789500D02*
X92427200Y-76682500D01*
X92427200Y-76682500D02*
X78702300Y-76682500D01*
X119922600Y-83012700D02*
X116699400Y-79789500D01*
X118347000Y-103699500D02*
X118347000Y-104043200D01*
X118347000Y-104710300D02*
X118065700Y-104710300D01*
X118347000Y-103699500D02*
X119922600Y-102123900D01*
X115443000Y-107333000D02*
X115443000Y-112903000D01*
X118347000Y-103585000D02*
X118347000Y-103699500D01*
X119922600Y-102123900D02*
X119922600Y-83012700D01*
X54514900Y-56845000D02*
X54514900Y-78144800D01*
X118347000Y-88345000D02*
X118347000Y-87219700D01*
X118684700Y-82411700D02*
X116512800Y-80239800D01*
X95347600Y-80239800D02*
X93252600Y-78144800D01*
X93252600Y-78144800D02*
X54514900Y-78144800D01*
X48747000Y-56845000D02*
X54514900Y-56845000D01*
X54514900Y-78144800D02*
X51014200Y-78144800D01*
X118347000Y-87219700D02*
X118684700Y-86882000D01*
X54514900Y-56845000D02*
X55247000Y-56845000D01*
X118684700Y-86882000D02*
X118684700Y-82411700D01*
X116512800Y-80239800D02*
X95347600Y-80239800D01*
X51014200Y-78144800D02*
X47498000Y-81661000D01*
X117221600Y-86920500D02*
X118178300Y-85963800D01*
X110641100Y-102575700D02*
X110727000Y-102575700D01*
X119472300Y-90415300D02*
X118527400Y-89470400D01*
X110727000Y-97090300D02*
X110445600Y-97090300D01*
X110727000Y-95965000D02*
X110727000Y-97090300D01*
X110445600Y-97090300D02*
X109601700Y-97934200D01*
X119472300Y-98999000D02*
X119472300Y-90415300D01*
X118527400Y-89470400D02*
X117384800Y-89470400D01*
X118178300Y-82621800D02*
X116246600Y-80690100D01*
X95161000Y-80690100D02*
X93066000Y-78595100D01*
X109601700Y-101536300D02*
X110641100Y-102575700D01*
X118566000Y-99905300D02*
X119472300Y-98999000D01*
X110727000Y-103585000D02*
X110727000Y-102661600D01*
X93066000Y-78595100D02*
X56278900Y-78595100D01*
X113861300Y-102575700D02*
X116531700Y-99905300D01*
X110727000Y-102575700D02*
X110727000Y-102661600D01*
X109601700Y-97934200D02*
X109601700Y-101536300D01*
X56278900Y-78595100D02*
X53467000Y-81407000D01*
X116531700Y-99905300D02*
X118566000Y-99905300D01*
X116246600Y-80690100D02*
X95161000Y-80690100D01*
X118178300Y-85963800D02*
X118178300Y-82621800D01*
X110727000Y-102575700D02*
X113861300Y-102575700D01*
X117384800Y-89470400D02*
X117221600Y-89307200D01*
X117221600Y-89307200D02*
X117221600Y-86920500D01*
G04 #@! TA.AperFunction,Conductor*
G36*
X96580621Y-44673502D02*
G01*
X96627114Y-44727158D01*
X96638500Y-44779500D01*
X96638500Y-56136377D01*
X96638498Y-56137147D01*
X96638024Y-56214721D01*
X96640491Y-56223352D01*
X96646150Y-56243153D01*
X96649728Y-56259915D01*
X96653920Y-56289187D01*
X96657634Y-56297355D01*
X96657634Y-56297356D01*
X96664548Y-56312562D01*
X96670996Y-56330086D01*
X96678051Y-56354771D01*
X96682843Y-56362365D01*
X96682844Y-56362368D01*
X96693830Y-56379780D01*
X96701969Y-56394863D01*
X96714208Y-56421782D01*
X96720069Y-56428584D01*
X96730970Y-56441235D01*
X96742073Y-56456239D01*
X96755776Y-56477958D01*
X96762501Y-56483897D01*
X96762504Y-56483901D01*
X96777938Y-56497532D01*
X96789982Y-56509724D01*
X96803427Y-56525327D01*
X96803430Y-56525329D01*
X96809287Y-56532127D01*
X96816816Y-56537007D01*
X96816817Y-56537008D01*
X96830835Y-56546094D01*
X96845709Y-56557385D01*
X96858217Y-56568431D01*
X96864951Y-56574378D01*
X96891711Y-56586942D01*
X96906691Y-56595263D01*
X96923983Y-56606471D01*
X96923988Y-56606473D01*
X96931515Y-56611352D01*
X96940108Y-56613922D01*
X96940113Y-56613924D01*
X96956120Y-56618711D01*
X96973564Y-56625372D01*
X96988676Y-56632467D01*
X96988678Y-56632468D01*
X96996800Y-56636281D01*
X97005667Y-56637662D01*
X97005668Y-56637662D01*
X97015310Y-56639163D01*
X97026017Y-56640830D01*
X97042732Y-56644613D01*
X97062466Y-56650515D01*
X97062472Y-56650516D01*
X97071066Y-56653086D01*
X97080037Y-56653141D01*
X97080038Y-56653141D01*
X97090097Y-56653202D01*
X97105506Y-56653296D01*
X97106289Y-56653329D01*
X97107386Y-56653500D01*
X97138377Y-56653500D01*
X97139147Y-56653502D01*
X97212785Y-56653952D01*
X97212786Y-56653952D01*
X97216721Y-56653976D01*
X97218065Y-56653592D01*
X97219410Y-56653500D01*
X122512500Y-56653500D01*
X122580621Y-56673502D01*
X122627114Y-56727158D01*
X122638500Y-56779500D01*
X122638500Y-65049728D01*
X122618498Y-65117849D01*
X122564842Y-65164342D01*
X122528946Y-65174650D01*
X122279179Y-65207532D01*
X122279173Y-65207533D01*
X122276454Y-65207891D01*
X121849470Y-65302551D01*
X121846845Y-65303379D01*
X121846840Y-65303380D01*
X121434988Y-65433236D01*
X121434980Y-65433239D01*
X121432360Y-65434065D01*
X121028300Y-65601433D01*
X120640364Y-65803379D01*
X120271505Y-66038368D01*
X120269337Y-66040032D01*
X120269325Y-66040040D01*
X120114697Y-66158691D01*
X119924531Y-66304611D01*
X119922503Y-66306469D01*
X119922495Y-66306476D01*
X119901873Y-66325373D01*
X119602081Y-66600081D01*
X119600230Y-66602101D01*
X119308476Y-66920495D01*
X119308469Y-66920503D01*
X119306611Y-66922531D01*
X119304929Y-66924723D01*
X119042040Y-67267325D01*
X119042032Y-67267337D01*
X119040368Y-67269505D01*
X119038895Y-67271817D01*
X119038893Y-67271820D01*
X119025227Y-67293271D01*
X118805379Y-67638364D01*
X118603433Y-68026300D01*
X118436065Y-68430360D01*
X118435239Y-68432980D01*
X118435236Y-68432988D01*
X118354172Y-68690091D01*
X118304551Y-68847470D01*
X118209891Y-69274454D01*
X118152805Y-69708065D01*
X118152685Y-69710814D01*
X118152684Y-69710825D01*
X118148046Y-69817066D01*
X118133728Y-70145000D01*
X118133848Y-70147748D01*
X118150810Y-70536235D01*
X118152805Y-70581935D01*
X118209891Y-71015546D01*
X118304551Y-71442530D01*
X118436065Y-71859640D01*
X118603433Y-72263700D01*
X118805379Y-72651636D01*
X119040368Y-73020495D01*
X119042032Y-73022663D01*
X119042040Y-73022675D01*
X119304929Y-73365277D01*
X119306611Y-73367469D01*
X119308469Y-73369497D01*
X119308476Y-73369505D01*
X119579420Y-73665189D01*
X119602081Y-73689919D01*
X119604101Y-73691770D01*
X119922495Y-73983524D01*
X119922503Y-73983531D01*
X119924531Y-73985389D01*
X119926723Y-73987071D01*
X120269325Y-74249960D01*
X120269337Y-74249968D01*
X120271505Y-74251632D01*
X120640364Y-74486621D01*
X121028300Y-74688567D01*
X121432360Y-74855935D01*
X121434980Y-74856761D01*
X121434988Y-74856764D01*
X121846840Y-74986620D01*
X121846845Y-74986621D01*
X121849470Y-74987449D01*
X122276454Y-75082109D01*
X122279173Y-75082467D01*
X122279179Y-75082468D01*
X122528946Y-75115350D01*
X122593873Y-75144072D01*
X122632965Y-75203337D01*
X122638500Y-75240272D01*
X122638500Y-77805386D01*
X122638501Y-83405387D01*
X122638501Y-94805386D01*
X122638500Y-100417386D01*
X122638500Y-115049728D01*
X122618498Y-115117849D01*
X122564842Y-115164342D01*
X122528946Y-115174650D01*
X122279179Y-115207532D01*
X122279173Y-115207533D01*
X122276454Y-115207891D01*
X121849470Y-115302551D01*
X121846845Y-115303379D01*
X121846840Y-115303380D01*
X121434988Y-115433236D01*
X121434980Y-115433239D01*
X121432360Y-115434065D01*
X121028300Y-115601433D01*
X120640364Y-115803379D01*
X120271505Y-116038368D01*
X120269337Y-116040032D01*
X120269325Y-116040040D01*
X120114697Y-116158691D01*
X119924531Y-116304611D01*
X119922503Y-116306469D01*
X119922495Y-116306476D01*
X119901873Y-116325373D01*
X119602081Y-116600081D01*
X119600230Y-116602101D01*
X119308476Y-116920495D01*
X119308469Y-116920503D01*
X119306611Y-116922531D01*
X119304929Y-116924723D01*
X119042040Y-117267325D01*
X119042032Y-117267337D01*
X119040368Y-117269505D01*
X118805379Y-117638364D01*
X118603433Y-118026300D01*
X118436065Y-118430360D01*
X118435239Y-118432980D01*
X118435236Y-118432988D01*
X118425397Y-118464194D01*
X118304551Y-118847470D01*
X118209891Y-119274454D01*
X118152805Y-119708065D01*
X118152685Y-119710814D01*
X118152684Y-119710825D01*
X118141181Y-119974300D01*
X118133728Y-120145000D01*
X118133848Y-120147748D01*
X118152382Y-120572244D01*
X118152805Y-120581935D01*
X118176961Y-120765418D01*
X118207825Y-120999851D01*
X118209891Y-121015546D01*
X118304551Y-121442530D01*
X118305379Y-121445155D01*
X118305380Y-121445160D01*
X118382315Y-121689165D01*
X118436065Y-121859640D01*
X118603433Y-122263700D01*
X118805379Y-122651636D01*
X119040368Y-123020495D01*
X119042032Y-123022663D01*
X119042040Y-123022675D01*
X119291856Y-123348240D01*
X119306611Y-123367469D01*
X119308469Y-123369497D01*
X119308476Y-123369505D01*
X119566092Y-123650644D01*
X119602081Y-123689919D01*
X119604101Y-123691770D01*
X119922495Y-123983524D01*
X119922503Y-123983531D01*
X119924531Y-123985389D01*
X119926723Y-123987071D01*
X120269325Y-124249960D01*
X120269337Y-124249968D01*
X120271505Y-124251632D01*
X120640364Y-124486621D01*
X121028300Y-124688567D01*
X121432360Y-124855935D01*
X121434980Y-124856761D01*
X121434988Y-124856764D01*
X121846840Y-124986620D01*
X121846845Y-124986621D01*
X121849470Y-124987449D01*
X122276454Y-125082109D01*
X122279173Y-125082467D01*
X122279179Y-125082468D01*
X122528946Y-125115350D01*
X122593873Y-125144072D01*
X122632965Y-125203337D01*
X122638500Y-125240272D01*
X122638500Y-132019000D01*
X122618498Y-132087121D01*
X122564842Y-132133614D01*
X122512500Y-132145000D01*
X111664500Y-132145000D01*
X111596379Y-132124998D01*
X111549886Y-132071342D01*
X111538500Y-132019000D01*
X111538500Y-126089524D01*
X111558502Y-126021403D01*
X111570858Y-126005221D01*
X111644040Y-125923944D01*
X111739527Y-125758556D01*
X111798542Y-125576928D01*
X111818504Y-125387000D01*
X111817814Y-125380435D01*
X111799232Y-125203635D01*
X111799232Y-125203633D01*
X111798542Y-125197072D01*
X111739527Y-125015444D01*
X111722886Y-124986620D01*
X111647341Y-124855774D01*
X111644040Y-124850056D01*
X111520842Y-124713230D01*
X111520675Y-124713045D01*
X111520674Y-124713044D01*
X111516253Y-124708134D01*
X111361752Y-124595882D01*
X111355724Y-124593198D01*
X111355722Y-124593197D01*
X111193319Y-124520891D01*
X111193318Y-124520891D01*
X111187288Y-124518206D01*
X111077172Y-124494800D01*
X111006944Y-124479872D01*
X111006939Y-124479872D01*
X111000487Y-124478500D01*
X110809513Y-124478500D01*
X110803061Y-124479872D01*
X110803056Y-124479872D01*
X110732828Y-124494800D01*
X110622712Y-124518206D01*
X110616682Y-124520891D01*
X110616681Y-124520891D01*
X110454278Y-124593197D01*
X110454276Y-124593198D01*
X110448248Y-124595882D01*
X110293747Y-124708134D01*
X110289326Y-124713044D01*
X110289325Y-124713045D01*
X110289159Y-124713230D01*
X110165960Y-124850056D01*
X110162659Y-124855774D01*
X110087115Y-124986620D01*
X110070473Y-125015444D01*
X110011458Y-125197072D01*
X110010768Y-125203633D01*
X110010768Y-125203635D01*
X109992186Y-125380435D01*
X109991496Y-125387000D01*
X110011458Y-125576928D01*
X110070473Y-125758556D01*
X110165960Y-125923944D01*
X110239137Y-126005215D01*
X110269853Y-126069221D01*
X110271500Y-126089524D01*
X110271500Y-132019000D01*
X110251498Y-132087121D01*
X110197842Y-132133614D01*
X110145500Y-132145000D01*
X105431100Y-132145000D01*
X105362979Y-132124998D01*
X105316486Y-132071342D01*
X105305100Y-132019000D01*
X105305100Y-114379500D01*
X105325102Y-114311379D01*
X105378758Y-114264886D01*
X105431100Y-114253500D01*
X106645134Y-114253500D01*
X106707316Y-114246745D01*
X106843705Y-114195615D01*
X106960261Y-114108261D01*
X107047615Y-113991705D01*
X107098745Y-113855316D01*
X107105500Y-113793134D01*
X107105500Y-112096866D01*
X107098745Y-112034684D01*
X107047615Y-111898295D01*
X106960261Y-111781739D01*
X106945431Y-111770625D01*
X106902917Y-111713768D01*
X106897890Y-111642950D01*
X106931901Y-111580703D01*
X107318412Y-111194193D01*
X107794258Y-110718347D01*
X107802537Y-110710813D01*
X107809018Y-110706700D01*
X107855644Y-110657048D01*
X107858398Y-110654207D01*
X107878135Y-110634470D01*
X107880615Y-110631273D01*
X107888320Y-110622251D01*
X107913159Y-110595800D01*
X107918586Y-110590021D01*
X107922405Y-110583075D01*
X107922407Y-110583072D01*
X107928348Y-110572266D01*
X107939199Y-110555747D01*
X107946758Y-110546001D01*
X107951614Y-110539741D01*
X107954759Y-110532472D01*
X107954762Y-110532468D01*
X107969174Y-110499163D01*
X107974391Y-110488513D01*
X107995695Y-110449760D01*
X108000733Y-110430137D01*
X108007137Y-110411434D01*
X108012033Y-110400120D01*
X108012033Y-110400119D01*
X108015181Y-110392845D01*
X108016420Y-110385022D01*
X108016423Y-110385012D01*
X108022099Y-110349176D01*
X108024505Y-110337556D01*
X108033528Y-110302411D01*
X108033528Y-110302410D01*
X108035500Y-110294730D01*
X108035500Y-110274476D01*
X108037051Y-110254765D01*
X108038980Y-110242586D01*
X108040220Y-110234757D01*
X108036059Y-110190738D01*
X108035500Y-110178881D01*
X108035500Y-98493667D01*
X108036027Y-98482484D01*
X108037702Y-98474991D01*
X108035562Y-98406914D01*
X108035500Y-98402955D01*
X108035500Y-98375044D01*
X108034995Y-98371044D01*
X108034062Y-98359201D01*
X108032922Y-98322929D01*
X108032673Y-98315010D01*
X108027022Y-98295558D01*
X108023014Y-98276206D01*
X108021467Y-98263963D01*
X108020474Y-98256103D01*
X108017556Y-98248732D01*
X108004200Y-98214997D01*
X108000355Y-98203770D01*
X107994540Y-98183755D01*
X107988018Y-98161307D01*
X107983984Y-98154485D01*
X107983981Y-98154479D01*
X107977706Y-98143868D01*
X107969010Y-98126118D01*
X107964472Y-98114656D01*
X107964469Y-98114651D01*
X107961552Y-98107283D01*
X107935573Y-98071525D01*
X107929057Y-98061607D01*
X107910575Y-98030357D01*
X107906542Y-98023537D01*
X107892218Y-98009213D01*
X107879376Y-97994178D01*
X107867472Y-97977793D01*
X107833406Y-97949611D01*
X107824627Y-97941622D01*
X107199100Y-97316095D01*
X107165074Y-97253783D01*
X107170139Y-97182968D01*
X107199100Y-97137905D01*
X109821531Y-94515474D01*
X109883843Y-94481448D01*
X109954658Y-94486513D01*
X109982893Y-94501354D01*
X110070251Y-94562523D01*
X110075233Y-94564846D01*
X110075238Y-94564849D01*
X110109457Y-94580805D01*
X110162742Y-94627722D01*
X110182203Y-94695999D01*
X110161661Y-94763959D01*
X110109457Y-94809195D01*
X110075238Y-94825151D01*
X110075233Y-94825154D01*
X110070251Y-94827477D01*
X109965389Y-94900902D01*
X109887211Y-94955643D01*
X109887208Y-94955645D01*
X109882700Y-94958802D01*
X109720802Y-95120700D01*
X109717645Y-95125208D01*
X109717643Y-95125211D01*
X109689389Y-95165562D01*
X109589477Y-95308251D01*
X109587154Y-95313233D01*
X109587151Y-95313238D01*
X109529157Y-95437608D01*
X109492716Y-95515757D01*
X109491294Y-95521065D01*
X109491293Y-95521067D01*
X109434881Y-95731598D01*
X109433457Y-95736913D01*
X109413502Y-95965000D01*
X109433457Y-96193087D01*
X109434881Y-96198400D01*
X109434881Y-96198402D01*
X109489994Y-96404083D01*
X109492716Y-96414243D01*
X109495039Y-96419224D01*
X109495039Y-96419225D01*
X109587151Y-96616762D01*
X109587154Y-96616767D01*
X109589477Y-96621749D01*
X109703748Y-96784944D01*
X109705418Y-96787329D01*
X109728106Y-96854603D01*
X109710821Y-96923463D01*
X109691301Y-96948695D01*
X109450195Y-97189800D01*
X109209442Y-97430553D01*
X109201163Y-97438087D01*
X109194682Y-97442200D01*
X109171558Y-97466825D01*
X109148057Y-97491851D01*
X109145302Y-97494693D01*
X109125565Y-97514430D01*
X109123085Y-97517627D01*
X109115382Y-97526647D01*
X109085114Y-97558879D01*
X109081295Y-97565825D01*
X109081293Y-97565828D01*
X109075352Y-97576634D01*
X109064501Y-97593153D01*
X109052086Y-97609159D01*
X109048941Y-97616428D01*
X109048938Y-97616432D01*
X109034526Y-97649737D01*
X109029309Y-97660387D01*
X109008005Y-97699140D01*
X109006034Y-97706815D01*
X109006034Y-97706816D01*
X109002967Y-97718762D01*
X108996563Y-97737466D01*
X108988519Y-97756055D01*
X108987280Y-97763878D01*
X108987277Y-97763888D01*
X108981601Y-97799724D01*
X108979195Y-97811344D01*
X108971774Y-97840251D01*
X108968200Y-97854170D01*
X108968200Y-97874424D01*
X108966649Y-97894134D01*
X108963480Y-97914143D01*
X108964226Y-97922035D01*
X108967641Y-97958161D01*
X108968200Y-97970019D01*
X108968200Y-101457533D01*
X108967673Y-101468716D01*
X108965998Y-101476209D01*
X108966247Y-101484135D01*
X108966247Y-101484136D01*
X108968138Y-101544286D01*
X108968200Y-101548245D01*
X108968200Y-101576156D01*
X108968697Y-101580090D01*
X108968697Y-101580091D01*
X108968705Y-101580156D01*
X108969638Y-101591993D01*
X108971027Y-101636189D01*
X108976678Y-101655639D01*
X108980687Y-101675000D01*
X108983226Y-101695097D01*
X108986145Y-101702468D01*
X108986145Y-101702470D01*
X108999504Y-101736212D01*
X109003349Y-101747442D01*
X109013471Y-101782283D01*
X109015682Y-101789893D01*
X109019715Y-101796712D01*
X109019717Y-101796717D01*
X109025993Y-101807328D01*
X109034688Y-101825076D01*
X109042148Y-101843917D01*
X109046810Y-101850333D01*
X109046810Y-101850334D01*
X109068136Y-101879687D01*
X109074652Y-101889607D01*
X109087295Y-101910984D01*
X109097158Y-101927662D01*
X109111479Y-101941983D01*
X109124319Y-101957016D01*
X109136228Y-101973407D01*
X109142334Y-101978458D01*
X109170305Y-102001598D01*
X109179084Y-102009588D01*
X109726404Y-102556908D01*
X109760430Y-102619220D01*
X109755365Y-102690035D01*
X109728085Y-102732482D01*
X109728226Y-102732600D01*
X109727301Y-102733702D01*
X109726404Y-102735098D01*
X109720802Y-102740700D01*
X109717645Y-102745208D01*
X109717643Y-102745211D01*
X109698901Y-102771978D01*
X109589477Y-102928251D01*
X109587154Y-102933233D01*
X109587151Y-102933238D01*
X109496446Y-103127757D01*
X109492716Y-103135757D01*
X109491294Y-103141065D01*
X109491293Y-103141067D01*
X109435084Y-103350840D01*
X109433457Y-103356913D01*
X109413502Y-103585000D01*
X109433457Y-103813087D01*
X109434881Y-103818400D01*
X109434881Y-103818402D01*
X109489535Y-104022370D01*
X109492716Y-104034243D01*
X109495039Y-104039224D01*
X109495039Y-104039225D01*
X109587151Y-104236762D01*
X109587154Y-104236767D01*
X109589477Y-104241749D01*
X109592634Y-104246257D01*
X109712042Y-104416789D01*
X109720802Y-104429300D01*
X109882700Y-104591198D01*
X109887208Y-104594355D01*
X109887211Y-104594357D01*
X109965389Y-104649098D01*
X110070251Y-104722523D01*
X110075233Y-104724846D01*
X110075238Y-104724849D01*
X110109457Y-104740805D01*
X110162742Y-104787722D01*
X110182203Y-104855999D01*
X110161661Y-104923959D01*
X110109457Y-104969195D01*
X110075238Y-104985151D01*
X110075233Y-104985154D01*
X110070251Y-104987477D01*
X110060557Y-104994265D01*
X109887211Y-105115643D01*
X109887208Y-105115645D01*
X109882700Y-105118802D01*
X109720802Y-105280700D01*
X109589477Y-105468251D01*
X109587154Y-105473233D01*
X109587151Y-105473238D01*
X109495039Y-105670775D01*
X109492716Y-105675757D01*
X109433457Y-105896913D01*
X109413502Y-106125000D01*
X109433457Y-106353087D01*
X109434881Y-106358400D01*
X109434881Y-106358402D01*
X109489535Y-106562370D01*
X109492716Y-106574243D01*
X109495039Y-106579224D01*
X109495039Y-106579225D01*
X109587151Y-106776762D01*
X109587154Y-106776767D01*
X109589477Y-106781749D01*
X109653533Y-106873230D01*
X109717531Y-106964628D01*
X109720802Y-106969300D01*
X109882700Y-107131198D01*
X109887208Y-107134355D01*
X109887211Y-107134357D01*
X109938320Y-107170144D01*
X110070251Y-107262523D01*
X110075233Y-107264846D01*
X110075238Y-107264849D01*
X110272775Y-107356961D01*
X110277757Y-107359284D01*
X110283065Y-107360706D01*
X110283067Y-107360707D01*
X110493598Y-107417119D01*
X110493600Y-107417119D01*
X110498913Y-107418543D01*
X110727000Y-107438498D01*
X110955087Y-107418543D01*
X110960400Y-107417119D01*
X110960402Y-107417119D01*
X111170933Y-107360707D01*
X111170935Y-107360706D01*
X111176243Y-107359284D01*
X111181225Y-107356961D01*
X111378762Y-107264849D01*
X111378767Y-107264846D01*
X111383749Y-107262523D01*
X111515680Y-107170144D01*
X111566789Y-107134357D01*
X111566792Y-107134355D01*
X111571300Y-107131198D01*
X111733198Y-106969300D01*
X111736470Y-106964628D01*
X111800467Y-106873230D01*
X111864523Y-106781749D01*
X111866846Y-106776767D01*
X111866849Y-106776762D01*
X111958961Y-106579225D01*
X111958961Y-106579224D01*
X111961284Y-106574243D01*
X111964466Y-106562370D01*
X112019119Y-106358402D01*
X112019119Y-106358400D01*
X112020543Y-106353087D01*
X112040498Y-106125000D01*
X112020543Y-105896913D01*
X111961284Y-105675757D01*
X111958961Y-105670775D01*
X111866849Y-105473238D01*
X111866846Y-105473233D01*
X111864523Y-105468251D01*
X111733198Y-105280700D01*
X111571300Y-105118802D01*
X111566792Y-105115645D01*
X111566789Y-105115643D01*
X111393443Y-104994265D01*
X111383749Y-104987477D01*
X111378767Y-104985154D01*
X111378762Y-104985151D01*
X111344543Y-104969195D01*
X111291258Y-104922278D01*
X111271797Y-104854001D01*
X111292339Y-104786041D01*
X111344543Y-104740805D01*
X111378762Y-104724849D01*
X111378767Y-104724846D01*
X111383749Y-104722523D01*
X111488611Y-104649098D01*
X111566789Y-104594357D01*
X111566792Y-104594355D01*
X111571300Y-104591198D01*
X111733198Y-104429300D01*
X111741959Y-104416789D01*
X111861366Y-104246257D01*
X111864523Y-104241749D01*
X111866846Y-104236767D01*
X111866849Y-104236762D01*
X111958961Y-104039225D01*
X111958961Y-104039224D01*
X111961284Y-104034243D01*
X111964466Y-104022370D01*
X112019119Y-103818402D01*
X112019119Y-103818400D01*
X112020543Y-103813087D01*
X112040498Y-103585000D01*
X112033849Y-103509005D01*
X112021022Y-103362386D01*
X112021022Y-103362384D01*
X112020543Y-103356913D01*
X112020233Y-103355757D01*
X112027956Y-103286519D01*
X112072724Y-103231416D01*
X112144172Y-103209200D01*
X113782533Y-103209200D01*
X113793716Y-103209727D01*
X113801209Y-103211402D01*
X113809135Y-103211153D01*
X113809136Y-103211153D01*
X113869286Y-103209262D01*
X113873245Y-103209200D01*
X113901156Y-103209200D01*
X113905091Y-103208703D01*
X113905156Y-103208695D01*
X113916993Y-103207762D01*
X113949251Y-103206748D01*
X113953270Y-103206622D01*
X113961189Y-103206373D01*
X113980643Y-103200721D01*
X114000000Y-103196713D01*
X114012230Y-103195168D01*
X114012231Y-103195168D01*
X114020097Y-103194174D01*
X114027468Y-103191255D01*
X114027470Y-103191255D01*
X114061212Y-103177896D01*
X114072442Y-103174051D01*
X114107283Y-103163929D01*
X114107284Y-103163929D01*
X114114893Y-103161718D01*
X114121712Y-103157685D01*
X114121717Y-103157683D01*
X114132328Y-103151407D01*
X114150076Y-103142712D01*
X114168917Y-103135252D01*
X114186091Y-103122775D01*
X114204687Y-103109264D01*
X114214607Y-103102748D01*
X114245835Y-103084280D01*
X114245838Y-103084278D01*
X114252662Y-103080242D01*
X114266983Y-103065921D01*
X114282017Y-103053080D01*
X114291994Y-103045831D01*
X114298407Y-103041172D01*
X114326598Y-103007095D01*
X114334588Y-102998316D01*
X116757200Y-100575705D01*
X116819512Y-100541679D01*
X116846295Y-100538800D01*
X116963771Y-100538800D01*
X117031892Y-100558802D01*
X117078385Y-100612458D01*
X117088489Y-100682732D01*
X117085480Y-100697403D01*
X117053457Y-100816913D01*
X117033502Y-101045000D01*
X117053457Y-101273087D01*
X117054881Y-101278400D01*
X117054881Y-101278402D01*
X117109150Y-101480933D01*
X117112716Y-101494243D01*
X117115039Y-101499224D01*
X117115039Y-101499225D01*
X117207151Y-101696762D01*
X117207154Y-101696767D01*
X117209477Y-101701749D01*
X117212633Y-101706257D01*
X117212637Y-101706263D01*
X117325459Y-101867390D01*
X117348147Y-101934664D01*
X117330862Y-102003524D01*
X117311341Y-102028755D01*
X114923306Y-104416789D01*
X112550747Y-106789348D01*
X112542461Y-106796888D01*
X112535982Y-106801000D01*
X112530557Y-106806777D01*
X112489357Y-106850651D01*
X112486602Y-106853493D01*
X112466865Y-106873230D01*
X112464385Y-106876427D01*
X112456682Y-106885447D01*
X112426414Y-106917679D01*
X112422595Y-106924625D01*
X112422593Y-106924628D01*
X112416652Y-106935434D01*
X112405801Y-106951953D01*
X112393386Y-106967959D01*
X112390241Y-106975228D01*
X112390238Y-106975232D01*
X112375826Y-107008537D01*
X112370609Y-107019187D01*
X112349305Y-107057940D01*
X112347334Y-107065615D01*
X112347334Y-107065616D01*
X112344267Y-107077562D01*
X112337863Y-107096266D01*
X112329819Y-107114855D01*
X112328580Y-107122678D01*
X112328577Y-107122688D01*
X112322901Y-107158524D01*
X112320495Y-107170144D01*
X112313209Y-107198524D01*
X112309500Y-107212970D01*
X112309500Y-107233224D01*
X112307949Y-107252934D01*
X112304780Y-107272943D01*
X112305526Y-107280835D01*
X112308941Y-107316961D01*
X112309500Y-107328819D01*
X112309500Y-111683606D01*
X112289498Y-111751727D01*
X112255771Y-111786819D01*
X112103211Y-111893643D01*
X112103208Y-111893645D01*
X112098700Y-111896802D01*
X111936802Y-112058700D01*
X111933645Y-112063208D01*
X111933643Y-112063211D01*
X111878902Y-112141389D01*
X111805477Y-112246251D01*
X111803154Y-112251233D01*
X111803151Y-112251238D01*
X111751500Y-112362006D01*
X111708716Y-112453757D01*
X111649457Y-112674913D01*
X111629502Y-112903000D01*
X111649457Y-113131087D01*
X111650881Y-113136400D01*
X111650881Y-113136402D01*
X111659243Y-113167607D01*
X111708716Y-113352243D01*
X111711039Y-113357224D01*
X111711039Y-113357225D01*
X111803151Y-113554762D01*
X111803154Y-113554767D01*
X111805477Y-113559749D01*
X111878902Y-113664611D01*
X111924319Y-113729472D01*
X111936802Y-113747300D01*
X112098700Y-113909198D01*
X112103208Y-113912355D01*
X112103211Y-113912357D01*
X112166812Y-113956891D01*
X112286251Y-114040523D01*
X112291233Y-114042846D01*
X112291238Y-114042849D01*
X112443056Y-114113642D01*
X112493757Y-114137284D01*
X112499065Y-114138706D01*
X112499067Y-114138707D01*
X112709598Y-114195119D01*
X112709600Y-114195119D01*
X112714913Y-114196543D01*
X112943000Y-114216498D01*
X113171087Y-114196543D01*
X113176400Y-114195119D01*
X113176402Y-114195119D01*
X113386933Y-114138707D01*
X113386935Y-114138706D01*
X113392243Y-114137284D01*
X113442944Y-114113642D01*
X113594762Y-114042849D01*
X113594767Y-114042846D01*
X113599749Y-114040523D01*
X113719188Y-113956891D01*
X113782789Y-113912357D01*
X113782792Y-113912355D01*
X113787300Y-113909198D01*
X113933000Y-113763498D01*
X113995312Y-113729472D01*
X114066127Y-113734537D01*
X114122963Y-113777084D01*
X114140132Y-113813737D01*
X114141255Y-113813316D01*
X114192385Y-113949705D01*
X114279739Y-114066261D01*
X114396295Y-114153615D01*
X114532684Y-114204745D01*
X114594866Y-114211500D01*
X116291134Y-114211500D01*
X116353316Y-114204745D01*
X116489705Y-114153615D01*
X116606261Y-114066261D01*
X116693615Y-113949705D01*
X116744745Y-113813316D01*
X116751500Y-113751134D01*
X116751500Y-112054866D01*
X116744745Y-111992684D01*
X116693615Y-111856295D01*
X116606261Y-111739739D01*
X116489705Y-111652385D01*
X116353316Y-111601255D01*
X116291134Y-111594500D01*
X116202500Y-111594500D01*
X116134379Y-111574498D01*
X116087886Y-111520842D01*
X116076500Y-111468500D01*
X116076500Y-107647594D01*
X116096502Y-107579473D01*
X116113401Y-107558503D01*
X116980689Y-106691216D01*
X117042999Y-106657192D01*
X117113815Y-106662257D01*
X117170650Y-106704804D01*
X117183977Y-106727064D01*
X117207149Y-106776758D01*
X117207153Y-106776764D01*
X117209477Y-106781749D01*
X117273533Y-106873230D01*
X117337531Y-106964628D01*
X117340802Y-106969300D01*
X117502700Y-107131198D01*
X117507208Y-107134355D01*
X117507211Y-107134357D01*
X117558320Y-107170144D01*
X117690251Y-107262523D01*
X117695233Y-107264846D01*
X117695238Y-107264849D01*
X117892775Y-107356961D01*
X117897757Y-107359284D01*
X117903065Y-107360706D01*
X117903067Y-107360707D01*
X118113598Y-107417119D01*
X118113600Y-107417119D01*
X118118913Y-107418543D01*
X118347000Y-107438498D01*
X118575087Y-107418543D01*
X118580400Y-107417119D01*
X118580402Y-107417119D01*
X118790933Y-107360707D01*
X118790935Y-107360706D01*
X118796243Y-107359284D01*
X118801225Y-107356961D01*
X118998762Y-107264849D01*
X118998767Y-107264846D01*
X119003749Y-107262523D01*
X119135680Y-107170144D01*
X119186789Y-107134357D01*
X119186792Y-107134355D01*
X119191300Y-107131198D01*
X119353198Y-106969300D01*
X119356470Y-106964628D01*
X119420467Y-106873230D01*
X119484523Y-106781749D01*
X119486846Y-106776767D01*
X119486849Y-106776762D01*
X119578961Y-106579225D01*
X119578961Y-106579224D01*
X119581284Y-106574243D01*
X119584466Y-106562370D01*
X119639119Y-106358402D01*
X119639119Y-106358400D01*
X119640543Y-106353087D01*
X119660498Y-106125000D01*
X119640543Y-105896913D01*
X119581284Y-105675757D01*
X119578961Y-105670775D01*
X119486849Y-105473238D01*
X119486846Y-105473233D01*
X119484523Y-105468251D01*
X119353198Y-105280700D01*
X119191300Y-105118802D01*
X119186792Y-105115645D01*
X119186789Y-105115643D01*
X119013444Y-104994265D01*
X118969116Y-104938808D01*
X118961945Y-104867449D01*
X118964812Y-104852424D01*
X118966532Y-104844729D01*
X118980500Y-104790330D01*
X118980500Y-104787773D01*
X119007928Y-104724887D01*
X119032280Y-104702545D01*
X119186789Y-104594357D01*
X119186792Y-104594355D01*
X119191300Y-104591198D01*
X119353198Y-104429300D01*
X119361959Y-104416789D01*
X119481366Y-104246257D01*
X119484523Y-104241749D01*
X119486846Y-104236767D01*
X119486849Y-104236762D01*
X119578961Y-104039225D01*
X119578961Y-104039224D01*
X119581284Y-104034243D01*
X119584466Y-104022370D01*
X119639119Y-103818402D01*
X119639119Y-103818400D01*
X119640543Y-103813087D01*
X119660498Y-103585000D01*
X119641235Y-103364821D01*
X119655224Y-103295216D01*
X119677661Y-103264743D01*
X119975233Y-102967172D01*
X120314858Y-102627547D01*
X120323137Y-102620013D01*
X120329618Y-102615900D01*
X120376244Y-102566248D01*
X120378998Y-102563407D01*
X120398735Y-102543670D01*
X120401215Y-102540473D01*
X120408920Y-102531451D01*
X120433759Y-102505000D01*
X120439186Y-102499221D01*
X120443005Y-102492275D01*
X120443007Y-102492272D01*
X120448948Y-102481466D01*
X120459799Y-102464947D01*
X120467358Y-102455201D01*
X120472214Y-102448941D01*
X120475359Y-102441672D01*
X120475362Y-102441668D01*
X120489774Y-102408363D01*
X120494991Y-102397713D01*
X120516295Y-102358960D01*
X120521333Y-102339337D01*
X120527737Y-102320634D01*
X120532633Y-102309320D01*
X120532633Y-102309319D01*
X120535781Y-102302045D01*
X120537020Y-102294222D01*
X120537023Y-102294212D01*
X120542699Y-102258376D01*
X120545105Y-102246756D01*
X120554128Y-102211611D01*
X120554128Y-102211610D01*
X120556100Y-102203930D01*
X120556100Y-102183676D01*
X120557651Y-102163965D01*
X120559580Y-102151786D01*
X120560820Y-102143957D01*
X120556659Y-102099938D01*
X120556100Y-102088081D01*
X120556100Y-83091467D01*
X120556627Y-83080284D01*
X120558302Y-83072791D01*
X120557601Y-83050475D01*
X120556162Y-83004714D01*
X120556100Y-83000755D01*
X120556100Y-82972844D01*
X120555595Y-82968844D01*
X120554662Y-82957001D01*
X120553522Y-82920729D01*
X120553273Y-82912810D01*
X120547622Y-82893358D01*
X120543614Y-82874006D01*
X120542067Y-82861763D01*
X120541074Y-82853903D01*
X120537864Y-82845795D01*
X120524800Y-82812797D01*
X120520955Y-82801570D01*
X120520321Y-82799387D01*
X120508618Y-82759107D01*
X120498307Y-82741672D01*
X120489612Y-82723924D01*
X120482152Y-82705083D01*
X120456164Y-82669313D01*
X120449648Y-82659393D01*
X120431180Y-82628165D01*
X120431178Y-82628162D01*
X120427142Y-82621338D01*
X120412821Y-82607017D01*
X120399980Y-82591983D01*
X120388072Y-82575593D01*
X120353995Y-82547402D01*
X120345216Y-82539412D01*
X117203052Y-79397247D01*
X117195512Y-79388961D01*
X117191400Y-79382482D01*
X117141748Y-79335856D01*
X117138907Y-79333102D01*
X117119170Y-79313365D01*
X117115973Y-79310885D01*
X117106951Y-79303180D01*
X117080500Y-79278341D01*
X117074721Y-79272914D01*
X117067775Y-79269095D01*
X117067772Y-79269093D01*
X117056966Y-79263152D01*
X117040447Y-79252301D01*
X117035678Y-79248602D01*
X117024441Y-79239886D01*
X117017172Y-79236741D01*
X117017168Y-79236738D01*
X116983863Y-79222326D01*
X116973213Y-79217109D01*
X116934460Y-79195805D01*
X116914837Y-79190767D01*
X116896134Y-79184363D01*
X116884820Y-79179467D01*
X116884819Y-79179467D01*
X116877545Y-79176319D01*
X116869722Y-79175080D01*
X116869712Y-79175077D01*
X116833876Y-79169401D01*
X116822256Y-79166995D01*
X116787111Y-79157972D01*
X116787110Y-79157972D01*
X116779430Y-79156000D01*
X116759176Y-79156000D01*
X116739465Y-79154449D01*
X116727286Y-79152520D01*
X116719457Y-79151280D01*
X116711565Y-79152026D01*
X116675439Y-79155441D01*
X116663581Y-79156000D01*
X113224094Y-79156000D01*
X113155973Y-79135998D01*
X113109480Y-79082342D01*
X113099376Y-79012068D01*
X113128870Y-78947488D01*
X113134999Y-78940905D01*
X114459245Y-77616659D01*
X114521557Y-77582633D01*
X114592372Y-77587698D01*
X114620610Y-77602541D01*
X114781737Y-77715363D01*
X114781742Y-77715366D01*
X114786251Y-77718523D01*
X114791233Y-77720846D01*
X114791238Y-77720849D01*
X114988775Y-77812961D01*
X114993757Y-77815284D01*
X114999065Y-77816706D01*
X114999067Y-77816707D01*
X115209598Y-77873119D01*
X115209600Y-77873119D01*
X115214913Y-77874543D01*
X115443000Y-77894498D01*
X115671087Y-77874543D01*
X115676400Y-77873119D01*
X115676402Y-77873119D01*
X115886933Y-77816707D01*
X115886935Y-77816706D01*
X115892243Y-77815284D01*
X115897225Y-77812961D01*
X116094762Y-77720849D01*
X116094767Y-77720846D01*
X116099749Y-77718523D01*
X116217290Y-77636220D01*
X116282789Y-77590357D01*
X116282792Y-77590355D01*
X116287300Y-77587198D01*
X116449198Y-77425300D01*
X116477207Y-77385300D01*
X116525731Y-77316000D01*
X116580523Y-77237749D01*
X116582846Y-77232767D01*
X116582849Y-77232762D01*
X116598805Y-77198543D01*
X116645722Y-77145258D01*
X116713999Y-77125797D01*
X116781959Y-77146339D01*
X116827195Y-77198543D01*
X116843151Y-77232762D01*
X116843154Y-77232767D01*
X116845477Y-77237749D01*
X116900269Y-77316000D01*
X116948794Y-77385300D01*
X116976802Y-77425300D01*
X117138700Y-77587198D01*
X117143208Y-77590355D01*
X117143211Y-77590357D01*
X117208710Y-77636220D01*
X117326251Y-77718523D01*
X117331233Y-77720846D01*
X117331238Y-77720849D01*
X117528775Y-77812961D01*
X117533757Y-77815284D01*
X117539065Y-77816706D01*
X117539067Y-77816707D01*
X117749598Y-77873119D01*
X117749600Y-77873119D01*
X117754913Y-77874543D01*
X117983000Y-77894498D01*
X118211087Y-77874543D01*
X118216400Y-77873119D01*
X118216402Y-77873119D01*
X118426933Y-77816707D01*
X118426935Y-77816706D01*
X118432243Y-77815284D01*
X118437225Y-77812961D01*
X118634762Y-77720849D01*
X118634767Y-77720846D01*
X118639749Y-77718523D01*
X118757290Y-77636220D01*
X118822789Y-77590357D01*
X118822792Y-77590355D01*
X118827300Y-77587198D01*
X118989198Y-77425300D01*
X119017207Y-77385300D01*
X119065731Y-77316000D01*
X119120523Y-77237749D01*
X119122846Y-77232767D01*
X119122849Y-77232762D01*
X119214961Y-77035225D01*
X119214961Y-77035224D01*
X119217284Y-77030243D01*
X119276543Y-76809087D01*
X119296498Y-76581000D01*
X119276543Y-76352913D01*
X119275119Y-76347598D01*
X119218707Y-76137067D01*
X119218706Y-76137065D01*
X119217284Y-76131757D01*
X119184943Y-76062401D01*
X119122849Y-75929238D01*
X119122846Y-75929233D01*
X119120523Y-75924251D01*
X118989198Y-75736700D01*
X118827300Y-75574802D01*
X118822792Y-75571645D01*
X118822789Y-75571643D01*
X118744611Y-75516902D01*
X118639749Y-75443477D01*
X118634767Y-75441154D01*
X118634762Y-75441151D01*
X118437225Y-75349039D01*
X118437224Y-75349039D01*
X118432243Y-75346716D01*
X118426935Y-75345294D01*
X118426933Y-75345293D01*
X118216402Y-75288881D01*
X118216400Y-75288881D01*
X118211087Y-75287457D01*
X117983000Y-75267502D01*
X117754913Y-75287457D01*
X117749600Y-75288881D01*
X117749598Y-75288881D01*
X117539067Y-75345293D01*
X117539065Y-75345294D01*
X117533757Y-75346716D01*
X117528776Y-75349039D01*
X117528775Y-75349039D01*
X117331238Y-75441151D01*
X117331233Y-75441154D01*
X117326251Y-75443477D01*
X117221389Y-75516902D01*
X117143211Y-75571643D01*
X117143208Y-75571645D01*
X117138700Y-75574802D01*
X116976802Y-75736700D01*
X116845477Y-75924251D01*
X116843154Y-75929233D01*
X116843151Y-75929238D01*
X116827195Y-75963457D01*
X116780278Y-76016742D01*
X116712001Y-76036203D01*
X116644041Y-76015661D01*
X116598805Y-75963457D01*
X116582849Y-75929238D01*
X116582846Y-75929233D01*
X116580523Y-75924251D01*
X116449198Y-75736700D01*
X116287300Y-75574802D01*
X116282792Y-75571645D01*
X116282789Y-75571643D01*
X116204611Y-75516902D01*
X116099749Y-75443477D01*
X116094767Y-75441154D01*
X116094762Y-75441151D01*
X115897225Y-75349039D01*
X115897224Y-75349039D01*
X115892243Y-75346716D01*
X115886935Y-75345294D01*
X115886933Y-75345293D01*
X115676402Y-75288881D01*
X115676400Y-75288881D01*
X115671087Y-75287457D01*
X115443000Y-75267502D01*
X115214913Y-75287457D01*
X115209600Y-75288881D01*
X115209598Y-75288881D01*
X115109811Y-75315619D01*
X115038835Y-75313929D01*
X114980039Y-75274135D01*
X114952091Y-75208871D01*
X114951200Y-75193912D01*
X114951200Y-68708767D01*
X114951727Y-68697584D01*
X114953402Y-68690091D01*
X114951262Y-68622000D01*
X114951200Y-68618043D01*
X114951200Y-68590144D01*
X114950696Y-68586153D01*
X114949763Y-68574311D01*
X114948623Y-68538036D01*
X114948374Y-68530111D01*
X114946162Y-68522497D01*
X114946161Y-68522492D01*
X114942723Y-68510659D01*
X114938712Y-68491295D01*
X114937167Y-68479064D01*
X114936174Y-68471203D01*
X114933257Y-68463836D01*
X114933256Y-68463831D01*
X114919898Y-68430092D01*
X114916054Y-68418865D01*
X114905930Y-68384022D01*
X114903718Y-68376407D01*
X114893407Y-68358972D01*
X114884712Y-68341224D01*
X114877252Y-68322383D01*
X114851264Y-68286613D01*
X114844748Y-68276693D01*
X114826280Y-68245465D01*
X114826278Y-68245462D01*
X114822242Y-68238638D01*
X114807921Y-68224317D01*
X114795080Y-68209283D01*
X114787831Y-68199306D01*
X114783172Y-68192893D01*
X114749095Y-68164702D01*
X114740316Y-68156712D01*
X109621967Y-63038362D01*
X109587941Y-62976050D01*
X109593006Y-62905235D01*
X109622123Y-62860016D01*
X109746430Y-62736144D01*
X109746440Y-62736132D01*
X109750096Y-62732489D01*
X109880453Y-62551077D01*
X109881776Y-62552028D01*
X109928645Y-62508857D01*
X109998580Y-62496625D01*
X110064026Y-62524144D01*
X110091875Y-62555994D01*
X110151987Y-62654088D01*
X110298250Y-62822938D01*
X110470126Y-62965632D01*
X110663000Y-63078338D01*
X110871692Y-63158030D01*
X110876760Y-63159061D01*
X110876763Y-63159062D01*
X110956232Y-63175230D01*
X111090597Y-63202567D01*
X111095772Y-63202757D01*
X111095774Y-63202757D01*
X111308673Y-63210564D01*
X111308677Y-63210564D01*
X111313837Y-63210753D01*
X111318957Y-63210097D01*
X111318959Y-63210097D01*
X111530288Y-63183025D01*
X111530289Y-63183025D01*
X111535416Y-63182368D01*
X111559208Y-63175230D01*
X111744429Y-63119661D01*
X111744434Y-63119659D01*
X111749384Y-63118174D01*
X111949994Y-63019896D01*
X112131860Y-62890173D01*
X112199331Y-62822938D01*
X112240479Y-62781933D01*
X112302851Y-62748017D01*
X112373658Y-62753205D01*
X112430419Y-62795851D01*
X112447401Y-62826954D01*
X112488676Y-62937054D01*
X112497214Y-62952649D01*
X112573715Y-63054724D01*
X112586276Y-63067285D01*
X112688351Y-63143786D01*
X112703946Y-63152324D01*
X112824394Y-63197478D01*
X112839649Y-63201105D01*
X112890514Y-63206631D01*
X112897328Y-63207000D01*
X113519885Y-63207000D01*
X113535124Y-63202525D01*
X113536329Y-63201135D01*
X113538000Y-63193452D01*
X113538000Y-63188884D01*
X114046000Y-63188884D01*
X114050475Y-63204123D01*
X114051865Y-63205328D01*
X114059548Y-63206999D01*
X114686669Y-63206999D01*
X114693490Y-63206629D01*
X114744352Y-63201105D01*
X114759604Y-63197479D01*
X114880054Y-63152324D01*
X114895649Y-63143786D01*
X114997724Y-63067285D01*
X115010285Y-63054724D01*
X115086786Y-62952649D01*
X115095324Y-62937054D01*
X115140478Y-62816606D01*
X115144105Y-62801351D01*
X115149631Y-62750486D01*
X115150000Y-62743672D01*
X115150000Y-62121115D01*
X115145525Y-62105876D01*
X115144135Y-62104671D01*
X115136452Y-62103000D01*
X114064115Y-62103000D01*
X114048876Y-62107475D01*
X114047671Y-62108865D01*
X114046000Y-62116548D01*
X114046000Y-63188884D01*
X113538000Y-63188884D01*
X113538000Y-61576885D01*
X114046000Y-61576885D01*
X114050475Y-61592124D01*
X114051865Y-61593329D01*
X114059548Y-61595000D01*
X115131884Y-61595000D01*
X115147123Y-61590525D01*
X115148328Y-61589135D01*
X115149999Y-61581452D01*
X115149999Y-60954331D01*
X115149629Y-60947510D01*
X115144105Y-60896648D01*
X115140479Y-60881396D01*
X115095324Y-60760946D01*
X115086786Y-60745351D01*
X115010285Y-60643276D01*
X114997724Y-60630715D01*
X114895649Y-60554214D01*
X114880054Y-60545676D01*
X114759606Y-60500522D01*
X114744351Y-60496895D01*
X114693486Y-60491369D01*
X114686672Y-60491000D01*
X114064115Y-60491000D01*
X114048876Y-60495475D01*
X114047671Y-60496865D01*
X114046000Y-60504548D01*
X114046000Y-61576885D01*
X113538000Y-61576885D01*
X113538000Y-60509116D01*
X113533525Y-60493877D01*
X113532135Y-60492672D01*
X113524452Y-60491001D01*
X112897331Y-60491001D01*
X112890510Y-60491371D01*
X112839648Y-60496895D01*
X112824396Y-60500521D01*
X112703946Y-60545676D01*
X112688351Y-60554214D01*
X112586276Y-60630715D01*
X112573715Y-60643276D01*
X112497214Y-60745351D01*
X112488676Y-60760946D01*
X112447297Y-60871322D01*
X112404655Y-60928087D01*
X112338093Y-60952786D01*
X112268744Y-60937578D01*
X112236121Y-60911891D01*
X112185151Y-60855876D01*
X112185145Y-60855870D01*
X112181670Y-60852051D01*
X112177619Y-60848852D01*
X112177615Y-60848848D01*
X112010414Y-60716800D01*
X112010410Y-60716798D01*
X112006359Y-60713598D01*
X111810789Y-60605638D01*
X111805920Y-60603914D01*
X111805916Y-60603912D01*
X111605087Y-60532795D01*
X111605083Y-60532794D01*
X111600212Y-60531069D01*
X111595119Y-60530162D01*
X111595116Y-60530161D01*
X111385373Y-60492800D01*
X111385367Y-60492799D01*
X111380284Y-60491894D01*
X111306452Y-60490992D01*
X111162081Y-60489228D01*
X111162079Y-60489228D01*
X111156911Y-60489165D01*
X110936091Y-60522955D01*
X110723756Y-60592357D01*
X110525607Y-60695507D01*
X110521474Y-60698610D01*
X110521471Y-60698612D01*
X110438450Y-60760946D01*
X110346965Y-60829635D01*
X110192629Y-60991138D01*
X110085201Y-61148621D01*
X110030293Y-61193621D01*
X109959768Y-61201792D01*
X109896021Y-61170538D01*
X109875324Y-61146054D01*
X109794822Y-61021617D01*
X109794820Y-61021614D01*
X109792014Y-61017277D01*
X109641670Y-60852051D01*
X109637619Y-60848852D01*
X109637615Y-60848848D01*
X109470414Y-60716800D01*
X109470410Y-60716798D01*
X109466359Y-60713598D01*
X109270789Y-60605638D01*
X109265920Y-60603914D01*
X109265916Y-60603912D01*
X109065087Y-60532795D01*
X109065083Y-60532794D01*
X109060212Y-60531069D01*
X109055119Y-60530162D01*
X109055116Y-60530161D01*
X108845373Y-60492800D01*
X108845367Y-60492799D01*
X108840284Y-60491894D01*
X108766452Y-60490992D01*
X108622081Y-60489228D01*
X108622079Y-60489228D01*
X108616911Y-60489165D01*
X108396091Y-60522955D01*
X108183756Y-60592357D01*
X107985607Y-60695507D01*
X107981474Y-60698610D01*
X107981471Y-60698612D01*
X107898450Y-60760946D01*
X107806965Y-60829635D01*
X107652629Y-60991138D01*
X107545201Y-61148621D01*
X107490293Y-61193621D01*
X107419768Y-61201792D01*
X107356021Y-61170538D01*
X107335324Y-61146054D01*
X107254822Y-61021617D01*
X107254820Y-61021614D01*
X107252014Y-61017277D01*
X107101670Y-60852051D01*
X107097619Y-60848852D01*
X107097615Y-60848848D01*
X106930414Y-60716800D01*
X106930410Y-60716798D01*
X106926359Y-60713598D01*
X106730789Y-60605638D01*
X106725920Y-60603914D01*
X106725916Y-60603912D01*
X106525087Y-60532795D01*
X106525083Y-60532794D01*
X106520212Y-60531069D01*
X106515119Y-60530162D01*
X106515116Y-60530161D01*
X106305373Y-60492800D01*
X106305367Y-60492799D01*
X106300284Y-60491894D01*
X106226452Y-60490992D01*
X106082081Y-60489228D01*
X106082079Y-60489228D01*
X106076911Y-60489165D01*
X105856091Y-60522955D01*
X105643756Y-60592357D01*
X105445607Y-60695507D01*
X105441474Y-60698610D01*
X105441471Y-60698612D01*
X105358450Y-60760946D01*
X105266965Y-60829635D01*
X105112629Y-60991138D01*
X105005201Y-61148621D01*
X104950293Y-61193621D01*
X104879768Y-61201792D01*
X104816021Y-61170538D01*
X104795324Y-61146054D01*
X104714822Y-61021617D01*
X104714820Y-61021614D01*
X104712014Y-61017277D01*
X104561670Y-60852051D01*
X104557619Y-60848852D01*
X104557615Y-60848848D01*
X104390414Y-60716800D01*
X104390410Y-60716798D01*
X104386359Y-60713598D01*
X104190789Y-60605638D01*
X104185920Y-60603914D01*
X104185916Y-60603912D01*
X103985087Y-60532795D01*
X103985083Y-60532794D01*
X103980212Y-60531069D01*
X103975119Y-60530162D01*
X103975116Y-60530161D01*
X103765373Y-60492800D01*
X103765367Y-60492799D01*
X103760284Y-60491894D01*
X103686452Y-60490992D01*
X103542081Y-60489228D01*
X103542079Y-60489228D01*
X103536911Y-60489165D01*
X103316091Y-60522955D01*
X103103756Y-60592357D01*
X102905607Y-60695507D01*
X102901474Y-60698610D01*
X102901471Y-60698612D01*
X102818450Y-60760946D01*
X102726965Y-60829635D01*
X102572629Y-60991138D01*
X102465201Y-61148621D01*
X102410293Y-61193621D01*
X102339768Y-61201792D01*
X102276021Y-61170538D01*
X102255324Y-61146054D01*
X102174822Y-61021617D01*
X102174820Y-61021614D01*
X102172014Y-61017277D01*
X102021670Y-60852051D01*
X102017619Y-60848852D01*
X102017615Y-60848848D01*
X101850414Y-60716800D01*
X101850410Y-60716798D01*
X101846359Y-60713598D01*
X101650789Y-60605638D01*
X101645920Y-60603914D01*
X101645916Y-60603912D01*
X101445087Y-60532795D01*
X101445083Y-60532794D01*
X101440212Y-60531069D01*
X101435119Y-60530162D01*
X101435116Y-60530161D01*
X101225373Y-60492800D01*
X101225367Y-60492799D01*
X101220284Y-60491894D01*
X101146452Y-60490992D01*
X101002081Y-60489228D01*
X101002079Y-60489228D01*
X100996911Y-60489165D01*
X100776091Y-60522955D01*
X100563756Y-60592357D01*
X100365607Y-60695507D01*
X100361474Y-60698610D01*
X100361471Y-60698612D01*
X100278450Y-60760946D01*
X100186965Y-60829635D01*
X100032629Y-60991138D01*
X100029720Y-60995403D01*
X100029714Y-60995411D01*
X99917095Y-61160504D01*
X99862184Y-61205507D01*
X99813007Y-61215500D01*
X69253768Y-61215500D01*
X69242585Y-61214973D01*
X69235092Y-61213298D01*
X69227166Y-61213547D01*
X69227165Y-61213547D01*
X69167002Y-61215438D01*
X69163044Y-61215500D01*
X69135144Y-61215500D01*
X69131154Y-61216004D01*
X69119320Y-61216936D01*
X69075111Y-61218326D01*
X69067495Y-61220539D01*
X69067493Y-61220539D01*
X69055652Y-61223979D01*
X69036293Y-61227988D01*
X69034983Y-61228154D01*
X69016203Y-61230526D01*
X69008837Y-61233442D01*
X69008831Y-61233444D01*
X68975098Y-61246800D01*
X68963868Y-61250645D01*
X68929017Y-61260770D01*
X68921407Y-61262981D01*
X68914584Y-61267016D01*
X68903966Y-61273295D01*
X68886213Y-61281992D01*
X68878568Y-61285019D01*
X68867383Y-61289448D01*
X68860968Y-61294109D01*
X68831612Y-61315437D01*
X68821695Y-61321951D01*
X68783638Y-61344458D01*
X68769317Y-61358779D01*
X68754284Y-61371619D01*
X68737893Y-61383528D01*
X68732842Y-61389634D01*
X68709702Y-61417605D01*
X68701712Y-61426384D01*
X62871729Y-67256366D01*
X62809417Y-67290392D01*
X62782634Y-67293271D01*
X62454000Y-67293271D01*
X62422014Y-67295559D01*
X62387627Y-67298018D01*
X62387626Y-67298018D01*
X62380889Y-67298500D01*
X62301382Y-67321845D01*
X62249235Y-67337157D01*
X62249233Y-67337158D01*
X62240589Y-67339696D01*
X62233010Y-67344567D01*
X62125159Y-67413878D01*
X62125156Y-67413880D01*
X62117579Y-67418750D01*
X62111678Y-67425560D01*
X62027726Y-67522445D01*
X62027724Y-67522448D01*
X62021824Y-67529257D01*
X61961081Y-67662266D01*
X61940271Y-67807000D01*
X61940271Y-69307000D01*
X61945500Y-69380111D01*
X61986696Y-69520411D01*
X61991567Y-69527990D01*
X62060878Y-69635841D01*
X62060880Y-69635844D01*
X62065750Y-69643421D01*
X62072560Y-69649322D01*
X62169445Y-69733274D01*
X62169448Y-69733276D01*
X62176257Y-69739176D01*
X62184454Y-69742920D01*
X62184455Y-69742920D01*
X62242511Y-69769433D01*
X62309266Y-69799919D01*
X62454000Y-69820729D01*
X63454000Y-69820729D01*
X63455964Y-69820605D01*
X63455968Y-69820605D01*
X63512080Y-69817066D01*
X63512084Y-69817065D01*
X63518557Y-69816657D01*
X63564232Y-69804075D01*
X63615624Y-69800833D01*
X63754000Y-69820729D01*
X64904000Y-69820729D01*
X64935986Y-69818441D01*
X64970373Y-69815982D01*
X64970374Y-69815982D01*
X64977111Y-69815500D01*
X65056618Y-69792155D01*
X65108765Y-69776843D01*
X65108767Y-69776842D01*
X65117411Y-69774304D01*
X65181255Y-69733274D01*
X65232841Y-69700122D01*
X65232844Y-69700120D01*
X65240421Y-69695250D01*
X65259141Y-69673646D01*
X65318867Y-69635263D01*
X65389863Y-69635263D01*
X65443460Y-69667064D01*
X73072600Y-77296205D01*
X73106626Y-77358517D01*
X73101561Y-77429332D01*
X73059014Y-77486168D01*
X72992494Y-77510979D01*
X72983505Y-77511300D01*
X55274400Y-77511300D01*
X55206279Y-77491298D01*
X55159786Y-77437642D01*
X55148400Y-77385300D01*
X55148400Y-58482399D01*
X55168402Y-58414278D01*
X55222058Y-58367785D01*
X55264514Y-58356787D01*
X55384843Y-58347316D01*
X55483711Y-58339535D01*
X55488518Y-58338381D01*
X55488524Y-58338380D01*
X55634391Y-58303360D01*
X55714594Y-58284105D01*
X55719167Y-58282211D01*
X55929389Y-58195135D01*
X55929393Y-58195133D01*
X55933963Y-58193240D01*
X55938183Y-58190654D01*
X56132202Y-58071759D01*
X56132208Y-58071755D01*
X56136416Y-58069176D01*
X56316969Y-57914969D01*
X56471176Y-57734416D01*
X56473755Y-57730208D01*
X56473759Y-57730202D01*
X56592654Y-57536183D01*
X56595240Y-57531963D01*
X56612194Y-57491034D01*
X56684211Y-57317167D01*
X56684212Y-57317165D01*
X56686105Y-57312594D01*
X56741535Y-57081711D01*
X56760165Y-56845000D01*
X56741535Y-56608289D01*
X56726604Y-56546094D01*
X56696759Y-56421782D01*
X56686105Y-56377406D01*
X56679876Y-56362368D01*
X56597135Y-56162611D01*
X56597133Y-56162607D01*
X56595240Y-56158037D01*
X56544526Y-56075279D01*
X56473759Y-55959798D01*
X56473755Y-55959792D01*
X56471176Y-55955584D01*
X56316969Y-55775031D01*
X56136416Y-55620824D01*
X56132208Y-55618245D01*
X56132202Y-55618241D01*
X55938183Y-55499346D01*
X55933963Y-55496760D01*
X55929393Y-55494867D01*
X55929389Y-55494865D01*
X55719167Y-55407789D01*
X55719165Y-55407788D01*
X55714594Y-55405895D01*
X55634391Y-55386640D01*
X55488524Y-55351620D01*
X55488518Y-55351619D01*
X55483711Y-55350465D01*
X55247000Y-55331835D01*
X55010289Y-55350465D01*
X55005482Y-55351619D01*
X55005476Y-55351620D01*
X54859609Y-55386640D01*
X54779406Y-55405895D01*
X54774835Y-55407788D01*
X54774833Y-55407789D01*
X54564611Y-55494865D01*
X54564607Y-55494867D01*
X54560037Y-55496760D01*
X54555817Y-55499346D01*
X54361798Y-55618241D01*
X54361792Y-55618245D01*
X54357584Y-55620824D01*
X54177031Y-55775031D01*
X54022824Y-55955584D01*
X54020245Y-55959792D01*
X54020241Y-55959798D01*
X53902867Y-56151335D01*
X53850219Y-56198966D01*
X53795434Y-56211500D01*
X50198566Y-56211500D01*
X50130445Y-56191498D01*
X50091133Y-56151335D01*
X49973759Y-55959798D01*
X49973755Y-55959792D01*
X49971176Y-55955584D01*
X49816969Y-55775031D01*
X49636416Y-55620824D01*
X49632208Y-55618245D01*
X49632202Y-55618241D01*
X49438183Y-55499346D01*
X49433963Y-55496760D01*
X49429393Y-55494867D01*
X49429389Y-55494865D01*
X49219167Y-55407789D01*
X49219165Y-55407788D01*
X49214594Y-55405895D01*
X49134391Y-55386640D01*
X48988524Y-55351620D01*
X48988518Y-55351619D01*
X48983711Y-55350465D01*
X48747000Y-55331835D01*
X48510289Y-55350465D01*
X48505482Y-55351619D01*
X48505476Y-55351620D01*
X48359609Y-55386640D01*
X48279406Y-55405895D01*
X48274835Y-55407788D01*
X48274833Y-55407789D01*
X48064611Y-55494865D01*
X48064607Y-55494867D01*
X48060037Y-55496760D01*
X48055817Y-55499346D01*
X47861798Y-55618241D01*
X47861792Y-55618245D01*
X47857584Y-55620824D01*
X47677031Y-55775031D01*
X47522824Y-55955584D01*
X47520245Y-55959792D01*
X47520241Y-55959798D01*
X47449474Y-56075279D01*
X47398760Y-56158037D01*
X47396867Y-56162607D01*
X47396865Y-56162611D01*
X47314124Y-56362368D01*
X47307895Y-56377406D01*
X47297241Y-56421782D01*
X47267397Y-56546094D01*
X47252465Y-56608289D01*
X47233835Y-56845000D01*
X47252465Y-57081711D01*
X47307895Y-57312594D01*
X47309788Y-57317165D01*
X47309789Y-57317167D01*
X47381807Y-57491034D01*
X47398760Y-57531963D01*
X47401346Y-57536183D01*
X47520241Y-57730202D01*
X47520245Y-57730208D01*
X47522824Y-57734416D01*
X47677031Y-57914969D01*
X47857584Y-58069176D01*
X47861792Y-58071755D01*
X47861798Y-58071759D01*
X48055817Y-58190654D01*
X48060037Y-58193240D01*
X48064607Y-58195133D01*
X48064611Y-58195135D01*
X48274833Y-58282211D01*
X48279406Y-58284105D01*
X48359609Y-58303360D01*
X48505476Y-58338380D01*
X48505482Y-58338381D01*
X48510289Y-58339535D01*
X48747000Y-58358165D01*
X48983711Y-58339535D01*
X48988518Y-58338381D01*
X48988524Y-58338380D01*
X49134391Y-58303360D01*
X49214594Y-58284105D01*
X49219167Y-58282211D01*
X49429389Y-58195135D01*
X49429393Y-58195133D01*
X49433963Y-58193240D01*
X49438183Y-58190654D01*
X49632202Y-58071759D01*
X49632208Y-58071755D01*
X49636416Y-58069176D01*
X49816969Y-57914969D01*
X49971176Y-57734416D01*
X49973755Y-57730208D01*
X49973759Y-57730202D01*
X50091133Y-57538665D01*
X50143781Y-57491034D01*
X50198566Y-57478500D01*
X53755400Y-57478500D01*
X53823521Y-57498502D01*
X53870014Y-57552158D01*
X53881400Y-57604500D01*
X53881400Y-77385300D01*
X53861398Y-77453421D01*
X53807742Y-77499914D01*
X53755400Y-77511300D01*
X51092968Y-77511300D01*
X51081785Y-77510773D01*
X51074292Y-77509098D01*
X51066366Y-77509347D01*
X51066365Y-77509347D01*
X51006202Y-77511238D01*
X51002244Y-77511300D01*
X50974344Y-77511300D01*
X50970354Y-77511804D01*
X50958520Y-77512736D01*
X50914311Y-77514126D01*
X50906697Y-77516338D01*
X50906692Y-77516339D01*
X50894859Y-77519777D01*
X50875496Y-77523788D01*
X50855403Y-77526326D01*
X50848036Y-77529243D01*
X50848031Y-77529244D01*
X50814292Y-77542602D01*
X50803065Y-77546446D01*
X50760607Y-77558782D01*
X50753781Y-77562819D01*
X50743172Y-77569093D01*
X50725424Y-77577788D01*
X50706583Y-77585248D01*
X50700167Y-77589910D01*
X50700166Y-77589910D01*
X50670813Y-77611236D01*
X50660893Y-77617752D01*
X50629665Y-77636220D01*
X50629662Y-77636222D01*
X50622838Y-77640258D01*
X50608517Y-77654579D01*
X50593484Y-77667419D01*
X50577093Y-77679328D01*
X50572042Y-77685434D01*
X50548902Y-77713405D01*
X50540912Y-77722184D01*
X47870423Y-80392672D01*
X47808111Y-80426698D01*
X47748717Y-80425284D01*
X47722685Y-80418309D01*
X47722686Y-80418309D01*
X47717371Y-80416885D01*
X47498000Y-80397693D01*
X47278629Y-80416885D01*
X47065924Y-80473880D01*
X46998919Y-80505125D01*
X46871334Y-80564618D01*
X46871329Y-80564621D01*
X46866347Y-80566944D01*
X46861840Y-80570100D01*
X46861838Y-80570101D01*
X46690473Y-80690092D01*
X46690470Y-80690094D01*
X46685962Y-80693251D01*
X46530251Y-80848962D01*
X46527094Y-80853470D01*
X46527092Y-80853473D01*
X46407101Y-81024838D01*
X46403944Y-81029347D01*
X46401621Y-81034329D01*
X46401618Y-81034334D01*
X46371360Y-81099223D01*
X46310880Y-81228924D01*
X46253885Y-81441629D01*
X46234693Y-81661000D01*
X46253885Y-81880371D01*
X46310880Y-82093076D01*
X46344156Y-82164437D01*
X46401618Y-82287666D01*
X46401621Y-82287671D01*
X46403944Y-82292653D01*
X46407100Y-82297160D01*
X46407101Y-82297162D01*
X46525623Y-82466428D01*
X46530251Y-82473038D01*
X46685962Y-82628749D01*
X46690471Y-82631906D01*
X46690473Y-82631908D01*
X46751479Y-82674625D01*
X46866346Y-82755056D01*
X47065924Y-82848120D01*
X47278629Y-82905115D01*
X47498000Y-82924307D01*
X47717371Y-82905115D01*
X47930076Y-82848120D01*
X48129654Y-82755056D01*
X48244521Y-82674625D01*
X48305527Y-82631908D01*
X48305529Y-82631906D01*
X48310038Y-82628749D01*
X48465749Y-82473038D01*
X48470378Y-82466428D01*
X48588899Y-82297162D01*
X48588900Y-82297160D01*
X48592056Y-82292653D01*
X48594379Y-82287671D01*
X48594382Y-82287666D01*
X48651844Y-82164437D01*
X48685120Y-82093076D01*
X48742115Y-81880371D01*
X48761307Y-81661000D01*
X48742115Y-81441629D01*
X48733716Y-81410283D01*
X48735406Y-81339306D01*
X48766328Y-81288577D01*
X51239700Y-78815205D01*
X51302012Y-78781179D01*
X51328795Y-78778300D01*
X54443107Y-78778300D01*
X54466716Y-78780532D01*
X54467019Y-78780590D01*
X54467023Y-78780590D01*
X54474806Y-78782075D01*
X54530851Y-78778549D01*
X54538762Y-78778300D01*
X54895606Y-78778300D01*
X54963727Y-78798302D01*
X55010220Y-78851958D01*
X55020324Y-78922232D01*
X54990830Y-78986812D01*
X54984701Y-78993395D01*
X53839423Y-80138672D01*
X53777111Y-80172698D01*
X53717717Y-80171284D01*
X53691685Y-80164309D01*
X53691686Y-80164309D01*
X53686371Y-80162885D01*
X53467000Y-80143693D01*
X53247629Y-80162885D01*
X53034924Y-80219880D01*
X52972328Y-80249069D01*
X52840334Y-80310618D01*
X52840329Y-80310621D01*
X52835347Y-80312944D01*
X52830840Y-80316100D01*
X52830838Y-80316101D01*
X52659473Y-80436092D01*
X52659470Y-80436094D01*
X52654962Y-80439251D01*
X52499251Y-80594962D01*
X52496094Y-80599470D01*
X52496092Y-80599473D01*
X52376101Y-80770838D01*
X52372944Y-80775347D01*
X52370621Y-80780329D01*
X52370618Y-80780334D01*
X52340434Y-80845065D01*
X52279880Y-80974924D01*
X52222885Y-81187629D01*
X52203693Y-81407000D01*
X52222885Y-81626371D01*
X52279880Y-81839076D01*
X52322678Y-81930856D01*
X52370618Y-82033666D01*
X52370621Y-82033671D01*
X52372944Y-82038653D01*
X52376100Y-82043160D01*
X52376101Y-82043162D01*
X52486411Y-82200700D01*
X52499251Y-82219038D01*
X52654962Y-82374749D01*
X52659471Y-82377906D01*
X52659473Y-82377908D01*
X52734241Y-82430261D01*
X52835346Y-82501056D01*
X53034924Y-82594120D01*
X53247629Y-82651115D01*
X53467000Y-82670307D01*
X53686371Y-82651115D01*
X53899076Y-82594120D01*
X54098654Y-82501056D01*
X54199759Y-82430261D01*
X54274527Y-82377908D01*
X54274529Y-82377906D01*
X54279038Y-82374749D01*
X54434749Y-82219038D01*
X54447590Y-82200700D01*
X54557899Y-82043162D01*
X54557900Y-82043160D01*
X54561056Y-82038653D01*
X54563379Y-82033671D01*
X54563382Y-82033666D01*
X54611322Y-81930856D01*
X54654120Y-81839076D01*
X54711115Y-81626371D01*
X54730307Y-81407000D01*
X54711115Y-81187629D01*
X54702716Y-81156283D01*
X54704406Y-81085306D01*
X54735328Y-81034577D01*
X56504400Y-79265505D01*
X56566712Y-79231479D01*
X56593495Y-79228600D01*
X60695705Y-79228600D01*
X60763826Y-79248602D01*
X60810319Y-79302258D01*
X60820423Y-79372532D01*
X60790929Y-79437112D01*
X60784800Y-79443695D01*
X53081455Y-87147040D01*
X53024969Y-87179652D01*
X53018242Y-87181454D01*
X53018231Y-87181458D01*
X53012924Y-87182880D01*
X52948885Y-87212742D01*
X52818334Y-87273618D01*
X52818329Y-87273621D01*
X52813347Y-87275944D01*
X52808840Y-87279100D01*
X52808838Y-87279101D01*
X52637473Y-87399092D01*
X52637470Y-87399094D01*
X52632962Y-87402251D01*
X52477251Y-87557962D01*
X52474094Y-87562470D01*
X52474092Y-87562473D01*
X52354101Y-87733838D01*
X52354100Y-87733840D01*
X52350944Y-87738347D01*
X52348621Y-87743329D01*
X52348618Y-87743334D01*
X52316539Y-87812128D01*
X52257880Y-87937924D01*
X52200885Y-88150629D01*
X52181693Y-88370000D01*
X52200885Y-88589371D01*
X52257880Y-88802076D01*
X52296665Y-88885250D01*
X52348618Y-88996666D01*
X52348621Y-88996671D01*
X52350944Y-89001653D01*
X52354100Y-89006160D01*
X52354101Y-89006162D01*
X52471932Y-89174441D01*
X52477251Y-89182038D01*
X52632962Y-89337749D01*
X52637470Y-89340906D01*
X52637473Y-89340908D01*
X52660398Y-89356960D01*
X52757772Y-89425142D01*
X52802099Y-89480598D01*
X52811500Y-89528354D01*
X52811500Y-131767933D01*
X52810973Y-131779116D01*
X52809298Y-131786609D01*
X52809547Y-131794535D01*
X52809547Y-131794536D01*
X52811438Y-131854686D01*
X52811500Y-131858645D01*
X52811500Y-131886556D01*
X52811997Y-131890490D01*
X52811997Y-131890491D01*
X52812005Y-131890556D01*
X52812938Y-131902393D01*
X52814327Y-131946589D01*
X52819978Y-131966039D01*
X52823986Y-131985395D01*
X52825967Y-132001068D01*
X52826237Y-132003206D01*
X52814932Y-132073296D01*
X52767527Y-132126148D01*
X52701231Y-132145000D01*
X43781500Y-132145000D01*
X43713379Y-132124998D01*
X43666886Y-132071342D01*
X43655500Y-132019000D01*
X43655500Y-125240272D01*
X43675502Y-125172151D01*
X43729158Y-125125658D01*
X43765054Y-125115350D01*
X44014821Y-125082468D01*
X44014827Y-125082467D01*
X44017546Y-125082109D01*
X44444530Y-124987449D01*
X44447155Y-124986621D01*
X44447160Y-124986620D01*
X44859012Y-124856764D01*
X44859020Y-124856761D01*
X44861640Y-124855935D01*
X45265700Y-124688567D01*
X45653636Y-124486621D01*
X46022495Y-124251632D01*
X46024663Y-124249968D01*
X46024675Y-124249960D01*
X46367277Y-123987071D01*
X46369469Y-123985389D01*
X46371497Y-123983531D01*
X46371505Y-123983524D01*
X46689899Y-123691770D01*
X46691919Y-123689919D01*
X46727908Y-123650644D01*
X46985524Y-123369505D01*
X46985531Y-123369497D01*
X46987389Y-123367469D01*
X47002144Y-123348240D01*
X47251960Y-123022675D01*
X47251968Y-123022663D01*
X47253632Y-123020495D01*
X47488621Y-122651636D01*
X47690567Y-122263700D01*
X47857935Y-121859640D01*
X47911686Y-121689165D01*
X47988620Y-121445160D01*
X47988621Y-121445155D01*
X47989449Y-121442530D01*
X48084109Y-121015546D01*
X48086176Y-120999851D01*
X48117039Y-120765418D01*
X48141195Y-120581935D01*
X48141619Y-120572244D01*
X48160152Y-120147748D01*
X48160272Y-120145000D01*
X48152819Y-119974300D01*
X48141316Y-119710825D01*
X48141315Y-119710814D01*
X48141195Y-119708065D01*
X48084109Y-119274454D01*
X47989449Y-118847470D01*
X47868603Y-118464194D01*
X47858764Y-118432988D01*
X47858761Y-118432980D01*
X47857935Y-118430360D01*
X47690567Y-118026300D01*
X47488621Y-117638364D01*
X47253632Y-117269505D01*
X47251968Y-117267337D01*
X47251960Y-117267325D01*
X46989071Y-116924723D01*
X46987389Y-116922531D01*
X46985531Y-116920503D01*
X46985524Y-116920495D01*
X46693770Y-116602101D01*
X46691919Y-116600081D01*
X46392127Y-116325373D01*
X46371505Y-116306476D01*
X46371497Y-116306469D01*
X46369469Y-116304611D01*
X46179303Y-116158691D01*
X46024675Y-116040040D01*
X46024663Y-116040032D01*
X46022495Y-116038368D01*
X45653636Y-115803379D01*
X45265700Y-115601433D01*
X44861640Y-115434065D01*
X44859020Y-115433239D01*
X44859012Y-115433236D01*
X44447160Y-115303380D01*
X44447155Y-115303379D01*
X44444530Y-115302551D01*
X44017546Y-115207891D01*
X44014827Y-115207533D01*
X44014821Y-115207532D01*
X43765054Y-115174650D01*
X43700127Y-115145928D01*
X43661035Y-115086663D01*
X43655500Y-115049728D01*
X43655500Y-88370000D01*
X46234693Y-88370000D01*
X46253885Y-88589371D01*
X46310880Y-88802076D01*
X46349665Y-88885250D01*
X46401618Y-88996666D01*
X46401621Y-88996671D01*
X46403944Y-89001653D01*
X46407100Y-89006160D01*
X46407101Y-89006162D01*
X46524932Y-89174441D01*
X46530251Y-89182038D01*
X46685962Y-89337749D01*
X46690471Y-89340906D01*
X46690473Y-89340908D01*
X46753283Y-89384888D01*
X46866346Y-89464056D01*
X47065924Y-89557120D01*
X47278629Y-89614115D01*
X47498000Y-89633307D01*
X47717371Y-89614115D01*
X47930076Y-89557120D01*
X48129654Y-89464056D01*
X48242717Y-89384888D01*
X48305527Y-89340908D01*
X48305529Y-89340906D01*
X48310038Y-89337749D01*
X48465749Y-89182038D01*
X48471069Y-89174441D01*
X48588899Y-89006162D01*
X48588900Y-89006160D01*
X48592056Y-89001653D01*
X48594379Y-88996671D01*
X48594382Y-88996666D01*
X48646335Y-88885250D01*
X48685120Y-88802076D01*
X48742115Y-88589371D01*
X48761307Y-88370000D01*
X48742115Y-88150629D01*
X48685120Y-87937924D01*
X48626461Y-87812128D01*
X48594382Y-87743334D01*
X48594379Y-87743329D01*
X48592056Y-87738347D01*
X48588900Y-87733840D01*
X48588899Y-87733838D01*
X48468908Y-87562473D01*
X48468906Y-87562470D01*
X48465749Y-87557962D01*
X48310038Y-87402251D01*
X48303785Y-87397872D01*
X48150149Y-87290295D01*
X48129654Y-87275944D01*
X47930076Y-87182880D01*
X47717371Y-87125885D01*
X47498000Y-87106693D01*
X47278629Y-87125885D01*
X47065924Y-87182880D01*
X47001885Y-87212742D01*
X46871334Y-87273618D01*
X46871329Y-87273621D01*
X46866347Y-87275944D01*
X46861840Y-87279100D01*
X46861838Y-87279101D01*
X46690473Y-87399092D01*
X46690470Y-87399094D01*
X46685962Y-87402251D01*
X46530251Y-87557962D01*
X46527094Y-87562470D01*
X46527092Y-87562473D01*
X46407101Y-87733838D01*
X46407100Y-87733840D01*
X46403944Y-87738347D01*
X46401621Y-87743329D01*
X46401618Y-87743334D01*
X46369539Y-87812128D01*
X46310880Y-87937924D01*
X46253885Y-88150629D01*
X46234693Y-88370000D01*
X43655500Y-88370000D01*
X43655500Y-75240272D01*
X43675502Y-75172151D01*
X43729158Y-75125658D01*
X43765054Y-75115350D01*
X44014821Y-75082468D01*
X44014827Y-75082467D01*
X44017546Y-75082109D01*
X44444530Y-74987449D01*
X44447155Y-74986621D01*
X44447160Y-74986620D01*
X44859012Y-74856764D01*
X44859020Y-74856761D01*
X44861640Y-74855935D01*
X45265700Y-74688567D01*
X45653636Y-74486621D01*
X46022495Y-74251632D01*
X46024663Y-74249968D01*
X46024675Y-74249960D01*
X46367277Y-73987071D01*
X46369469Y-73985389D01*
X46371497Y-73983531D01*
X46371505Y-73983524D01*
X46689899Y-73691770D01*
X46691919Y-73689919D01*
X46714580Y-73665189D01*
X46985524Y-73369505D01*
X46985531Y-73369497D01*
X46987389Y-73367469D01*
X46989071Y-73365277D01*
X47251960Y-73022675D01*
X47251968Y-73022663D01*
X47253632Y-73020495D01*
X47488621Y-72651636D01*
X47690567Y-72263700D01*
X47857935Y-71859640D01*
X47989449Y-71442530D01*
X48084109Y-71015546D01*
X48141195Y-70581935D01*
X48143191Y-70536235D01*
X48160152Y-70147748D01*
X48160272Y-70145000D01*
X48145954Y-69817066D01*
X48141316Y-69710825D01*
X48141315Y-69710814D01*
X48141195Y-69708065D01*
X48084109Y-69274454D01*
X47989449Y-68847470D01*
X47939828Y-68690091D01*
X47858764Y-68432988D01*
X47858761Y-68432980D01*
X47857935Y-68430360D01*
X47690567Y-68026300D01*
X47488621Y-67638364D01*
X47268773Y-67293271D01*
X47255107Y-67271820D01*
X47255105Y-67271817D01*
X47253632Y-67269505D01*
X47251968Y-67267337D01*
X47251960Y-67267325D01*
X46989071Y-66924723D01*
X46987389Y-66922531D01*
X46985531Y-66920503D01*
X46985524Y-66920495D01*
X46693770Y-66602101D01*
X46691919Y-66600081D01*
X46392127Y-66325373D01*
X46371505Y-66306476D01*
X46371497Y-66306469D01*
X46369469Y-66304611D01*
X46179303Y-66158691D01*
X46024675Y-66040040D01*
X46024663Y-66040032D01*
X46022495Y-66038368D01*
X45653636Y-65803379D01*
X45265700Y-65601433D01*
X44861640Y-65434065D01*
X44859020Y-65433239D01*
X44859012Y-65433236D01*
X44447160Y-65303380D01*
X44447155Y-65303379D01*
X44444530Y-65302551D01*
X44017546Y-65207891D01*
X44014827Y-65207533D01*
X44014821Y-65207532D01*
X43765054Y-65174650D01*
X43700127Y-65145928D01*
X43661035Y-65086663D01*
X43655500Y-65049728D01*
X43655500Y-52345000D01*
X47233835Y-52345000D01*
X47252465Y-52581711D01*
X47307895Y-52812594D01*
X47309788Y-52817165D01*
X47309789Y-52817167D01*
X47381807Y-52991034D01*
X47398760Y-53031963D01*
X47401346Y-53036183D01*
X47520241Y-53230202D01*
X47520245Y-53230208D01*
X47522824Y-53234416D01*
X47677031Y-53414969D01*
X47857584Y-53569176D01*
X47861792Y-53571755D01*
X47861798Y-53571759D01*
X48055817Y-53690654D01*
X48060037Y-53693240D01*
X48064607Y-53695133D01*
X48064611Y-53695135D01*
X48274833Y-53782211D01*
X48279406Y-53784105D01*
X48359609Y-53803360D01*
X48505476Y-53838380D01*
X48505482Y-53838381D01*
X48510289Y-53839535D01*
X48747000Y-53858165D01*
X48983711Y-53839535D01*
X48988518Y-53838381D01*
X48988524Y-53838380D01*
X49134391Y-53803360D01*
X49214594Y-53784105D01*
X49219167Y-53782211D01*
X49429389Y-53695135D01*
X49429393Y-53695133D01*
X49433963Y-53693240D01*
X49438183Y-53690654D01*
X49632202Y-53571759D01*
X49632208Y-53571755D01*
X49636416Y-53569176D01*
X49816969Y-53414969D01*
X49971176Y-53234416D01*
X49973755Y-53230208D01*
X49973759Y-53230202D01*
X50091133Y-53038665D01*
X50143781Y-52991034D01*
X50198566Y-52978500D01*
X53795434Y-52978500D01*
X53863555Y-52998502D01*
X53902867Y-53038665D01*
X54020241Y-53230202D01*
X54020245Y-53230208D01*
X54022824Y-53234416D01*
X54177031Y-53414969D01*
X54357584Y-53569176D01*
X54361792Y-53571755D01*
X54361798Y-53571759D01*
X54555817Y-53690654D01*
X54560037Y-53693240D01*
X54564607Y-53695133D01*
X54564611Y-53695135D01*
X54774833Y-53782211D01*
X54779406Y-53784105D01*
X54859609Y-53803360D01*
X55005476Y-53838380D01*
X55005482Y-53838381D01*
X55010289Y-53839535D01*
X55247000Y-53858165D01*
X55483711Y-53839535D01*
X55488518Y-53838381D01*
X55488524Y-53838380D01*
X55634391Y-53803360D01*
X55714594Y-53784105D01*
X55719167Y-53782211D01*
X55929389Y-53695135D01*
X55929393Y-53695133D01*
X55933963Y-53693240D01*
X55938183Y-53690654D01*
X56132202Y-53571759D01*
X56132208Y-53571755D01*
X56136416Y-53569176D01*
X56316969Y-53414969D01*
X56471176Y-53234416D01*
X56473755Y-53230208D01*
X56473759Y-53230202D01*
X56592654Y-53036183D01*
X56595240Y-53031963D01*
X56612194Y-52991034D01*
X56684211Y-52817167D01*
X56684212Y-52817165D01*
X56686105Y-52812594D01*
X56741535Y-52581711D01*
X56760165Y-52345000D01*
X56741535Y-52108289D01*
X56686105Y-51877406D01*
X56617385Y-51711500D01*
X56597135Y-51662611D01*
X56597133Y-51662607D01*
X56595240Y-51658037D01*
X56591133Y-51651335D01*
X56473759Y-51459798D01*
X56473755Y-51459792D01*
X56471176Y-51455584D01*
X56316969Y-51275031D01*
X56136416Y-51120824D01*
X56132208Y-51118245D01*
X56132202Y-51118241D01*
X55938183Y-50999346D01*
X55933963Y-50996760D01*
X55929393Y-50994867D01*
X55929389Y-50994865D01*
X55719167Y-50907789D01*
X55719165Y-50907788D01*
X55714594Y-50905895D01*
X55634391Y-50886640D01*
X55488524Y-50851620D01*
X55488518Y-50851619D01*
X55483711Y-50850465D01*
X55247000Y-50831835D01*
X55010289Y-50850465D01*
X55005482Y-50851619D01*
X55005476Y-50851620D01*
X54859609Y-50886640D01*
X54779406Y-50905895D01*
X54774835Y-50907788D01*
X54774833Y-50907789D01*
X54564611Y-50994865D01*
X54564607Y-50994867D01*
X54560037Y-50996760D01*
X54555817Y-50999346D01*
X54361798Y-51118241D01*
X54361792Y-51118245D01*
X54357584Y-51120824D01*
X54177031Y-51275031D01*
X54022824Y-51455584D01*
X54020245Y-51459792D01*
X54020241Y-51459798D01*
X53902867Y-51651335D01*
X53850219Y-51698966D01*
X53795434Y-51711500D01*
X50198566Y-51711500D01*
X50130445Y-51691498D01*
X50091133Y-51651335D01*
X49973759Y-51459798D01*
X49973755Y-51459792D01*
X49971176Y-51455584D01*
X49816969Y-51275031D01*
X49636416Y-51120824D01*
X49632208Y-51118245D01*
X49632202Y-51118241D01*
X49438183Y-50999346D01*
X49433963Y-50996760D01*
X49429393Y-50994867D01*
X49429389Y-50994865D01*
X49219167Y-50907789D01*
X49219165Y-50907788D01*
X49214594Y-50905895D01*
X49134391Y-50886640D01*
X48988524Y-50851620D01*
X48988518Y-50851619D01*
X48983711Y-50850465D01*
X48747000Y-50831835D01*
X48510289Y-50850465D01*
X48505482Y-50851619D01*
X48505476Y-50851620D01*
X48359609Y-50886640D01*
X48279406Y-50905895D01*
X48274835Y-50907788D01*
X48274833Y-50907789D01*
X48064611Y-50994865D01*
X48064607Y-50994867D01*
X48060037Y-50996760D01*
X48055817Y-50999346D01*
X47861798Y-51118241D01*
X47861792Y-51118245D01*
X47857584Y-51120824D01*
X47677031Y-51275031D01*
X47522824Y-51455584D01*
X47520245Y-51459792D01*
X47520241Y-51459798D01*
X47402867Y-51651335D01*
X47398760Y-51658037D01*
X47396867Y-51662607D01*
X47396865Y-51662611D01*
X47376615Y-51711500D01*
X47307895Y-51877406D01*
X47252465Y-52108289D01*
X47233835Y-52345000D01*
X43655500Y-52345000D01*
X43655500Y-44779500D01*
X43675502Y-44711379D01*
X43729158Y-44664886D01*
X43781500Y-44653500D01*
X96512500Y-44653500D01*
X96580621Y-44673502D01*
G37*
G04 #@! TD.AperFunction*
G04 #@! TA.AperFunction,Conductor*
G36*
X80552094Y-79699002D02*
G01*
X80598587Y-79752658D01*
X80608691Y-79822932D01*
X80587186Y-79877271D01*
X80509477Y-79988251D01*
X80507154Y-79993233D01*
X80507151Y-79993238D01*
X80415348Y-80190112D01*
X80412716Y-80195757D01*
X80411294Y-80201065D01*
X80411293Y-80201067D01*
X80371096Y-80351084D01*
X80353457Y-80416913D01*
X80333502Y-80645000D01*
X80353457Y-80873087D01*
X80354881Y-80878400D01*
X80354881Y-80878402D01*
X80392025Y-81017022D01*
X80412716Y-81094243D01*
X80415037Y-81099221D01*
X80415038Y-81099223D01*
X80507151Y-81296762D01*
X80507154Y-81296767D01*
X80509477Y-81301749D01*
X80640802Y-81489300D01*
X80802700Y-81651198D01*
X80807208Y-81654355D01*
X80807211Y-81654357D01*
X80884815Y-81708696D01*
X80990251Y-81782523D01*
X80995233Y-81784846D01*
X80995238Y-81784849D01*
X81191765Y-81876490D01*
X81197757Y-81879284D01*
X81203065Y-81880706D01*
X81203067Y-81880707D01*
X81413598Y-81937119D01*
X81413600Y-81937119D01*
X81418913Y-81938543D01*
X81647000Y-81958498D01*
X81875087Y-81938543D01*
X81880400Y-81937119D01*
X81880402Y-81937119D01*
X82090933Y-81880707D01*
X82090935Y-81880706D01*
X82096243Y-81879284D01*
X82102235Y-81876490D01*
X82298762Y-81784849D01*
X82298767Y-81784846D01*
X82303749Y-81782523D01*
X82377243Y-81731062D01*
X85925493Y-81731062D01*
X85934789Y-81743077D01*
X85985994Y-81778931D01*
X85995489Y-81784414D01*
X86192947Y-81876490D01*
X86203239Y-81880236D01*
X86413688Y-81936625D01*
X86424481Y-81938528D01*
X86641525Y-81957517D01*
X86652475Y-81957517D01*
X86869519Y-81938528D01*
X86880312Y-81936625D01*
X87090761Y-81880236D01*
X87101053Y-81876490D01*
X87298511Y-81784414D01*
X87308006Y-81778931D01*
X87360048Y-81742491D01*
X87368424Y-81732012D01*
X87361356Y-81718566D01*
X86659812Y-81017022D01*
X86645868Y-81009408D01*
X86644035Y-81009539D01*
X86637420Y-81013790D01*
X85931923Y-81719287D01*
X85925493Y-81731062D01*
X82377243Y-81731062D01*
X82409185Y-81708696D01*
X82486789Y-81654357D01*
X82486792Y-81654355D01*
X82491300Y-81651198D01*
X82653198Y-81489300D01*
X82784523Y-81301749D01*
X82786846Y-81296767D01*
X82786849Y-81296762D01*
X82878962Y-81099223D01*
X82878963Y-81099221D01*
X82881284Y-81094243D01*
X82901976Y-81017022D01*
X82939119Y-80878402D01*
X82939119Y-80878400D01*
X82940543Y-80873087D01*
X82960498Y-80645000D01*
X82940543Y-80416913D01*
X82922904Y-80351084D01*
X82882707Y-80201067D01*
X82882706Y-80201065D01*
X82881284Y-80195757D01*
X82878652Y-80190112D01*
X82786849Y-79993238D01*
X82786846Y-79993233D01*
X82784523Y-79988251D01*
X82706814Y-79877271D01*
X82684126Y-79809997D01*
X82701411Y-79741136D01*
X82753181Y-79692552D01*
X82810027Y-79679000D01*
X85484584Y-79679000D01*
X85552705Y-79699002D01*
X85599198Y-79752658D01*
X85609302Y-79822932D01*
X85587797Y-79877271D01*
X85513069Y-79983994D01*
X85507586Y-79993489D01*
X85415510Y-80190947D01*
X85411764Y-80201239D01*
X85355375Y-80411688D01*
X85353472Y-80422481D01*
X85334483Y-80639525D01*
X85334483Y-80650475D01*
X85353472Y-80867519D01*
X85355375Y-80878312D01*
X85411764Y-81088761D01*
X85415510Y-81099053D01*
X85507586Y-81296511D01*
X85513069Y-81306006D01*
X85549509Y-81358048D01*
X85559988Y-81366424D01*
X85573434Y-81359356D01*
X86557905Y-80374885D01*
X86620217Y-80340859D01*
X86691032Y-80345924D01*
X86736095Y-80374885D01*
X87721287Y-81360077D01*
X87733062Y-81366507D01*
X87745077Y-81357211D01*
X87780931Y-81306006D01*
X87786414Y-81296511D01*
X87878490Y-81099053D01*
X87882236Y-81088761D01*
X87938625Y-80878312D01*
X87940528Y-80867519D01*
X87959517Y-80650475D01*
X87959517Y-80639525D01*
X87940528Y-80422481D01*
X87938625Y-80411688D01*
X87882236Y-80201239D01*
X87878490Y-80190947D01*
X87786414Y-79993489D01*
X87780931Y-79983994D01*
X87706203Y-79877271D01*
X87683515Y-79809997D01*
X87700800Y-79741136D01*
X87752570Y-79692552D01*
X87809416Y-79679000D01*
X92564906Y-79679000D01*
X92633027Y-79699002D01*
X92654001Y-79715905D01*
X94889648Y-81951553D01*
X94897188Y-81959839D01*
X94901300Y-81966318D01*
X94907077Y-81971743D01*
X94950951Y-82012943D01*
X94953793Y-82015698D01*
X94973530Y-82035435D01*
X94976727Y-82037915D01*
X94985747Y-82045618D01*
X95017979Y-82075886D01*
X95024925Y-82079705D01*
X95024928Y-82079707D01*
X95035734Y-82085648D01*
X95052253Y-82096499D01*
X95068259Y-82108914D01*
X95075528Y-82112059D01*
X95075532Y-82112062D01*
X95108837Y-82126474D01*
X95119487Y-82131691D01*
X95158240Y-82152995D01*
X95165915Y-82154966D01*
X95165916Y-82154966D01*
X95177862Y-82158033D01*
X95196567Y-82164437D01*
X95215155Y-82172481D01*
X95222978Y-82173720D01*
X95222988Y-82173723D01*
X95258824Y-82179399D01*
X95270444Y-82181805D01*
X95313269Y-82192800D01*
X95312768Y-82194752D01*
X95368108Y-82218887D01*
X95380879Y-82231205D01*
X95382725Y-82233256D01*
X95382731Y-82233261D01*
X95387147Y-82238166D01*
X95392489Y-82242047D01*
X95392491Y-82242049D01*
X95536306Y-82346537D01*
X95541648Y-82350418D01*
X95547676Y-82353102D01*
X95547678Y-82353103D01*
X95710081Y-82425409D01*
X95716112Y-82428094D01*
X95809512Y-82447947D01*
X95896456Y-82466428D01*
X95896461Y-82466428D01*
X95902913Y-82467800D01*
X96093887Y-82467800D01*
X96100339Y-82466428D01*
X96100344Y-82466428D01*
X96187288Y-82447947D01*
X96280688Y-82428094D01*
X96286719Y-82425409D01*
X96449122Y-82353103D01*
X96449124Y-82353102D01*
X96455152Y-82350418D01*
X96460888Y-82346251D01*
X96540176Y-82288644D01*
X96609653Y-82238166D01*
X96643388Y-82200700D01*
X96733021Y-82101152D01*
X96733022Y-82101151D01*
X96737440Y-82096244D01*
X96816968Y-81958498D01*
X96829623Y-81936579D01*
X96829624Y-81936578D01*
X96832927Y-81930856D01*
X96837758Y-81915988D01*
X98749576Y-81915988D01*
X98756644Y-81929434D01*
X99458188Y-82630978D01*
X99472132Y-82638592D01*
X99473965Y-82638461D01*
X99480580Y-82634210D01*
X100186077Y-81928713D01*
X100192507Y-81916938D01*
X100183211Y-81904923D01*
X100132006Y-81869069D01*
X100122511Y-81863586D01*
X99925053Y-81771510D01*
X99914761Y-81767764D01*
X99704312Y-81711375D01*
X99693519Y-81709472D01*
X99476475Y-81690483D01*
X99465525Y-81690483D01*
X99248481Y-81709472D01*
X99237688Y-81711375D01*
X99027239Y-81767764D01*
X99016947Y-81771510D01*
X98819489Y-81863586D01*
X98809994Y-81869069D01*
X98757952Y-81905509D01*
X98749576Y-81915988D01*
X96837758Y-81915988D01*
X96891942Y-81749228D01*
X96893752Y-81732012D01*
X96911214Y-81565865D01*
X96911904Y-81559300D01*
X96901758Y-81462769D01*
X96914530Y-81392933D01*
X96963032Y-81341086D01*
X97027068Y-81323600D01*
X115932006Y-81323600D01*
X116000127Y-81343602D01*
X116021101Y-81360505D01*
X116369292Y-81708696D01*
X116403318Y-81771008D01*
X116398253Y-81841823D01*
X116355706Y-81898659D01*
X116343193Y-81906912D01*
X116335999Y-81911065D01*
X116283952Y-81947509D01*
X116275576Y-81957988D01*
X116282644Y-81971434D01*
X117267115Y-82955905D01*
X117301141Y-83018217D01*
X117296076Y-83089032D01*
X117267115Y-83134095D01*
X116281923Y-84119287D01*
X116275493Y-84131062D01*
X116284789Y-84143077D01*
X116335994Y-84178931D01*
X116345489Y-84184414D01*
X116542947Y-84276490D01*
X116553239Y-84280236D01*
X116763688Y-84336625D01*
X116774481Y-84338528D01*
X116991525Y-84357517D01*
X117002475Y-84357517D01*
X117219519Y-84338528D01*
X117230312Y-84336625D01*
X117386189Y-84294858D01*
X117457165Y-84296548D01*
X117515961Y-84336342D01*
X117543909Y-84401606D01*
X117544800Y-84416565D01*
X117544800Y-85649205D01*
X117524798Y-85717326D01*
X117507895Y-85738301D01*
X116829342Y-86416853D01*
X116821063Y-86424387D01*
X116814582Y-86428500D01*
X116788005Y-86456802D01*
X116767957Y-86478151D01*
X116765202Y-86480993D01*
X116745465Y-86500730D01*
X116742985Y-86503927D01*
X116735282Y-86512947D01*
X116705014Y-86545179D01*
X116701195Y-86552125D01*
X116701193Y-86552128D01*
X116695252Y-86562934D01*
X116684401Y-86579453D01*
X116671986Y-86595459D01*
X116668841Y-86602728D01*
X116668838Y-86602732D01*
X116654426Y-86636037D01*
X116649209Y-86646687D01*
X116627905Y-86685440D01*
X116625934Y-86693115D01*
X116625934Y-86693116D01*
X116622867Y-86705062D01*
X116616463Y-86723766D01*
X116608419Y-86742355D01*
X116607180Y-86750178D01*
X116607177Y-86750188D01*
X116601501Y-86786024D01*
X116599095Y-86797644D01*
X116588100Y-86840470D01*
X116588100Y-86860724D01*
X116586549Y-86880434D01*
X116583380Y-86900443D01*
X116584126Y-86908335D01*
X116587541Y-86944461D01*
X116588100Y-86956319D01*
X116588100Y-89228433D01*
X116587573Y-89239616D01*
X116585898Y-89247109D01*
X116586147Y-89255035D01*
X116586147Y-89255036D01*
X116588038Y-89315186D01*
X116588100Y-89319145D01*
X116588100Y-89347056D01*
X116588597Y-89350990D01*
X116588597Y-89350991D01*
X116588605Y-89351056D01*
X116589538Y-89362893D01*
X116590927Y-89407089D01*
X116595330Y-89422243D01*
X116596578Y-89426539D01*
X116600587Y-89445900D01*
X116600718Y-89446933D01*
X116603126Y-89465997D01*
X116606045Y-89473368D01*
X116606045Y-89473370D01*
X116619404Y-89507112D01*
X116623249Y-89518342D01*
X116628904Y-89537808D01*
X116635582Y-89560793D01*
X116639615Y-89567612D01*
X116639617Y-89567617D01*
X116645893Y-89578228D01*
X116654588Y-89595976D01*
X116662048Y-89614817D01*
X116666710Y-89621233D01*
X116666710Y-89621234D01*
X116688036Y-89650587D01*
X116694552Y-89660507D01*
X116717058Y-89698562D01*
X116731379Y-89712883D01*
X116744219Y-89727916D01*
X116756128Y-89744307D01*
X116790205Y-89772498D01*
X116798984Y-89780488D01*
X116881143Y-89862647D01*
X116888687Y-89870937D01*
X116892800Y-89877418D01*
X116898577Y-89882843D01*
X116942467Y-89924058D01*
X116945309Y-89926813D01*
X116965031Y-89946535D01*
X116968155Y-89948958D01*
X116968159Y-89948962D01*
X116968224Y-89949012D01*
X116977245Y-89956717D01*
X117009479Y-89986986D01*
X117016427Y-89990805D01*
X117016429Y-89990807D01*
X117027232Y-89996746D01*
X117043759Y-90007602D01*
X117053498Y-90015157D01*
X117053500Y-90015158D01*
X117059760Y-90020014D01*
X117100340Y-90037574D01*
X117110988Y-90042791D01*
X117149741Y-90064096D01*
X117148911Y-90065606D01*
X117197321Y-90103373D01*
X117220801Y-90170374D01*
X117209163Y-90230107D01*
X117115510Y-90430947D01*
X117111764Y-90441239D01*
X117065606Y-90613503D01*
X117065942Y-90627599D01*
X117073884Y-90631000D01*
X118475000Y-90631000D01*
X118543121Y-90651002D01*
X118589614Y-90704658D01*
X118601000Y-90757000D01*
X118601000Y-93553000D01*
X118580998Y-93621121D01*
X118527342Y-93667614D01*
X118475000Y-93679000D01*
X117079033Y-93679000D01*
X117065502Y-93682973D01*
X117064273Y-93691522D01*
X117111764Y-93868761D01*
X117115510Y-93879053D01*
X117207586Y-94076511D01*
X117213069Y-94086007D01*
X117338028Y-94264467D01*
X117345084Y-94272875D01*
X117499125Y-94426916D01*
X117507533Y-94433972D01*
X117685993Y-94558931D01*
X117695489Y-94564414D01*
X117730049Y-94580529D01*
X117783334Y-94627446D01*
X117802795Y-94695723D01*
X117782253Y-94763683D01*
X117730049Y-94808919D01*
X117695238Y-94825151D01*
X117695233Y-94825154D01*
X117690251Y-94827477D01*
X117585389Y-94900902D01*
X117507211Y-94955643D01*
X117507208Y-94955645D01*
X117502700Y-94958802D01*
X117340802Y-95120700D01*
X117337645Y-95125208D01*
X117337643Y-95125211D01*
X117309389Y-95165562D01*
X117209477Y-95308251D01*
X117207154Y-95313233D01*
X117207151Y-95313238D01*
X117149157Y-95437608D01*
X117112716Y-95515757D01*
X117111294Y-95521065D01*
X117111293Y-95521067D01*
X117054881Y-95731598D01*
X117053457Y-95736913D01*
X117033502Y-95965000D01*
X117053457Y-96193087D01*
X117054881Y-96198400D01*
X117054881Y-96198402D01*
X117109994Y-96404083D01*
X117112716Y-96414243D01*
X117115039Y-96419224D01*
X117115039Y-96419225D01*
X117207151Y-96616762D01*
X117207154Y-96616767D01*
X117209477Y-96621749D01*
X117251901Y-96682336D01*
X117332810Y-96797886D01*
X117340802Y-96809300D01*
X117502700Y-96971198D01*
X117507208Y-96974355D01*
X117507211Y-96974357D01*
X117518852Y-96982508D01*
X117690251Y-97102523D01*
X117695233Y-97104846D01*
X117695238Y-97104849D01*
X117729457Y-97120805D01*
X117782742Y-97167722D01*
X117802203Y-97235999D01*
X117781661Y-97303959D01*
X117729457Y-97349195D01*
X117695238Y-97365151D01*
X117695233Y-97365154D01*
X117690251Y-97367477D01*
X117626052Y-97412430D01*
X117507211Y-97495643D01*
X117507208Y-97495645D01*
X117502700Y-97498802D01*
X117340802Y-97660700D01*
X117337645Y-97665208D01*
X117337643Y-97665211D01*
X117303831Y-97713500D01*
X117209477Y-97848251D01*
X117207154Y-97853233D01*
X117207151Y-97853238D01*
X117118464Y-98043431D01*
X117112716Y-98055757D01*
X117111294Y-98061065D01*
X117111293Y-98061067D01*
X117054882Y-98271594D01*
X117053457Y-98276913D01*
X117033502Y-98505000D01*
X117053457Y-98733087D01*
X117054881Y-98738400D01*
X117054881Y-98738402D01*
X117109150Y-98940933D01*
X117112716Y-98954243D01*
X117115039Y-98959225D01*
X117115041Y-98959230D01*
X117177209Y-99092551D01*
X117187870Y-99162742D01*
X117158890Y-99227555D01*
X117099470Y-99266411D01*
X117063014Y-99271800D01*
X116610467Y-99271800D01*
X116599284Y-99271273D01*
X116591791Y-99269598D01*
X116583865Y-99269847D01*
X116583864Y-99269847D01*
X116523701Y-99271738D01*
X116519743Y-99271800D01*
X116491844Y-99271800D01*
X116487854Y-99272304D01*
X116476020Y-99273236D01*
X116431811Y-99274626D01*
X116424197Y-99276838D01*
X116424192Y-99276839D01*
X116412359Y-99280277D01*
X116392996Y-99284288D01*
X116372903Y-99286826D01*
X116365536Y-99289743D01*
X116365531Y-99289744D01*
X116331792Y-99303102D01*
X116320565Y-99306946D01*
X116278107Y-99319282D01*
X116271281Y-99323319D01*
X116260672Y-99329593D01*
X116242924Y-99338288D01*
X116224083Y-99345748D01*
X116217667Y-99350410D01*
X116217666Y-99350410D01*
X116188313Y-99371736D01*
X116178393Y-99378252D01*
X116147165Y-99396720D01*
X116147162Y-99396722D01*
X116140338Y-99400758D01*
X116126017Y-99415079D01*
X116110984Y-99427919D01*
X116094593Y-99439828D01*
X116089542Y-99445934D01*
X116066402Y-99473905D01*
X116058412Y-99482684D01*
X113635800Y-101905295D01*
X113573488Y-101939321D01*
X113546705Y-101942200D01*
X111937590Y-101942200D01*
X111869469Y-101922198D01*
X111822976Y-101868542D01*
X111812872Y-101798268D01*
X111834377Y-101743929D01*
X111860931Y-101706006D01*
X111866414Y-101696511D01*
X111958490Y-101499053D01*
X111962236Y-101488761D01*
X112008394Y-101316497D01*
X112008058Y-101302401D01*
X112000116Y-101299000D01*
X110599000Y-101299000D01*
X110530879Y-101278998D01*
X110484386Y-101225342D01*
X110473000Y-101173000D01*
X110473000Y-100917000D01*
X110493002Y-100848879D01*
X110546658Y-100802386D01*
X110599000Y-100791000D01*
X111994967Y-100791000D01*
X112008498Y-100787027D01*
X112009727Y-100778478D01*
X111962236Y-100601239D01*
X111958490Y-100590947D01*
X111866414Y-100393489D01*
X111860931Y-100383993D01*
X111735972Y-100205533D01*
X111728916Y-100197125D01*
X111574875Y-100043084D01*
X111566467Y-100036028D01*
X111388007Y-99911069D01*
X111378511Y-99905586D01*
X111343951Y-99889471D01*
X111290666Y-99842554D01*
X111271205Y-99774277D01*
X111291747Y-99706317D01*
X111343951Y-99661081D01*
X111378762Y-99644849D01*
X111378767Y-99644846D01*
X111383749Y-99642523D01*
X111555148Y-99522508D01*
X111566789Y-99514357D01*
X111566792Y-99514355D01*
X111571300Y-99511198D01*
X111733198Y-99349300D01*
X111741959Y-99336789D01*
X111794534Y-99261703D01*
X111864523Y-99161749D01*
X111866846Y-99156767D01*
X111866849Y-99156762D01*
X111958961Y-98959225D01*
X111958961Y-98959224D01*
X111961284Y-98954243D01*
X111964851Y-98940933D01*
X112019119Y-98738402D01*
X112019119Y-98738400D01*
X112020543Y-98733087D01*
X112040498Y-98505000D01*
X112020543Y-98276913D01*
X112019121Y-98271608D01*
X112019119Y-98271594D01*
X112003541Y-98213461D01*
X112005229Y-98142484D01*
X112036152Y-98091752D01*
X112143185Y-97984720D01*
X112291858Y-97836047D01*
X112300137Y-97828513D01*
X112306618Y-97824400D01*
X112353244Y-97774748D01*
X112355998Y-97771907D01*
X112375735Y-97752170D01*
X112378215Y-97748973D01*
X112385920Y-97739951D01*
X112410759Y-97713500D01*
X112416186Y-97707721D01*
X112420005Y-97700775D01*
X112420007Y-97700772D01*
X112425948Y-97689966D01*
X112436799Y-97673447D01*
X112437159Y-97672983D01*
X112449214Y-97657441D01*
X112452359Y-97650172D01*
X112452362Y-97650168D01*
X112466774Y-97616863D01*
X112471991Y-97606213D01*
X112493295Y-97567460D01*
X112498333Y-97547837D01*
X112504737Y-97529134D01*
X112509633Y-97517820D01*
X112509633Y-97517819D01*
X112512781Y-97510545D01*
X112514020Y-97502722D01*
X112514023Y-97502712D01*
X112519699Y-97466876D01*
X112522105Y-97455256D01*
X112531128Y-97420111D01*
X112531128Y-97420110D01*
X112533100Y-97412430D01*
X112533100Y-97392176D01*
X112534651Y-97372465D01*
X112536580Y-97360286D01*
X112537820Y-97352457D01*
X112536352Y-97336922D01*
X112533659Y-97308439D01*
X112533100Y-97296581D01*
X112533100Y-91151522D01*
X117064273Y-91151522D01*
X117111764Y-91328761D01*
X117115510Y-91339053D01*
X117207586Y-91536511D01*
X117213069Y-91546007D01*
X117338028Y-91724467D01*
X117345084Y-91732875D01*
X117499125Y-91886916D01*
X117507533Y-91893972D01*
X117685993Y-92018931D01*
X117695489Y-92024414D01*
X117730641Y-92040805D01*
X117783926Y-92087722D01*
X117803387Y-92155999D01*
X117782845Y-92223959D01*
X117730641Y-92269195D01*
X117695489Y-92285586D01*
X117685993Y-92291069D01*
X117507533Y-92416028D01*
X117499125Y-92423084D01*
X117345084Y-92577125D01*
X117338028Y-92585533D01*
X117213069Y-92763993D01*
X117207586Y-92773489D01*
X117115510Y-92970947D01*
X117111764Y-92981239D01*
X117065606Y-93153503D01*
X117065942Y-93167599D01*
X117073884Y-93171000D01*
X118074885Y-93171000D01*
X118090124Y-93166525D01*
X118091329Y-93165135D01*
X118093000Y-93157452D01*
X118093000Y-91157115D01*
X118088525Y-91141876D01*
X118087135Y-91140671D01*
X118079452Y-91139000D01*
X117079033Y-91139000D01*
X117065502Y-91142973D01*
X117064273Y-91151522D01*
X112533100Y-91151522D01*
X112533100Y-90544067D01*
X112533627Y-90532884D01*
X112535302Y-90525391D01*
X112533162Y-90457314D01*
X112533100Y-90453355D01*
X112533100Y-90425444D01*
X112532595Y-90421444D01*
X112531662Y-90409601D01*
X112531495Y-90404268D01*
X112530273Y-90365410D01*
X112524622Y-90345958D01*
X112520614Y-90326606D01*
X112519067Y-90314363D01*
X112518074Y-90306503D01*
X112515156Y-90299132D01*
X112501800Y-90265397D01*
X112497955Y-90254170D01*
X112491873Y-90233238D01*
X112485618Y-90211707D01*
X112481584Y-90204885D01*
X112481581Y-90204879D01*
X112475306Y-90194268D01*
X112466610Y-90176518D01*
X112462072Y-90165056D01*
X112462069Y-90165051D01*
X112459152Y-90157683D01*
X112433173Y-90121925D01*
X112426657Y-90112007D01*
X112415605Y-90093319D01*
X112404142Y-90073937D01*
X112389818Y-90059613D01*
X112376976Y-90044578D01*
X112375678Y-90042791D01*
X112365072Y-90028193D01*
X112331006Y-90000011D01*
X112322227Y-89992022D01*
X111715093Y-89384888D01*
X111681067Y-89322576D01*
X111686132Y-89251761D01*
X111715093Y-89206698D01*
X111728916Y-89192875D01*
X111735972Y-89184467D01*
X111860931Y-89006007D01*
X111866414Y-88996511D01*
X111958490Y-88799053D01*
X111962236Y-88788761D01*
X112008394Y-88616497D01*
X112008058Y-88602401D01*
X112000116Y-88599000D01*
X110599000Y-88599000D01*
X110530879Y-88578998D01*
X110484386Y-88525342D01*
X110473000Y-88473000D01*
X110473000Y-88072885D01*
X110981000Y-88072885D01*
X110985475Y-88088124D01*
X110986865Y-88089329D01*
X110994548Y-88091000D01*
X111994967Y-88091000D01*
X112008498Y-88087027D01*
X112009727Y-88078478D01*
X111962236Y-87901239D01*
X111958490Y-87890947D01*
X111866414Y-87693489D01*
X111860931Y-87683993D01*
X111735972Y-87505533D01*
X111728916Y-87497125D01*
X111574875Y-87343084D01*
X111566467Y-87336028D01*
X111388007Y-87211069D01*
X111378511Y-87205586D01*
X111181053Y-87113510D01*
X111170761Y-87109764D01*
X110998497Y-87063606D01*
X110984401Y-87063942D01*
X110981000Y-87071884D01*
X110981000Y-88072885D01*
X110473000Y-88072885D01*
X110473000Y-87077033D01*
X110469027Y-87063502D01*
X110460478Y-87062273D01*
X110283239Y-87109764D01*
X110272947Y-87113510D01*
X110075489Y-87205586D01*
X110065993Y-87211069D01*
X109887533Y-87336028D01*
X109879125Y-87343084D01*
X109725084Y-87497125D01*
X109718028Y-87505533D01*
X109593069Y-87683993D01*
X109587583Y-87693495D01*
X109582068Y-87705323D01*
X109535153Y-87758610D01*
X109466876Y-87778073D01*
X109398916Y-87757533D01*
X109378777Y-87741172D01*
X105693352Y-84055747D01*
X105685812Y-84047461D01*
X105681700Y-84040982D01*
X105632048Y-83994356D01*
X105629207Y-83991602D01*
X105609470Y-83971865D01*
X105606273Y-83969385D01*
X105597251Y-83961680D01*
X105570799Y-83936840D01*
X105570800Y-83936840D01*
X105565021Y-83931414D01*
X105565070Y-83931362D01*
X105524022Y-83878131D01*
X105517947Y-83807395D01*
X105538224Y-83760146D01*
X105569688Y-83715211D01*
X105608523Y-83659749D01*
X105610846Y-83654767D01*
X105610849Y-83654762D01*
X105702961Y-83457225D01*
X105702961Y-83457224D01*
X105705284Y-83452243D01*
X105725976Y-83375022D01*
X105763119Y-83236402D01*
X105763119Y-83236400D01*
X105764543Y-83231087D01*
X105780823Y-83045000D01*
X110683502Y-83045000D01*
X110703457Y-83273087D01*
X110704881Y-83278400D01*
X110704881Y-83278402D01*
X110730771Y-83375022D01*
X110762716Y-83494243D01*
X110765039Y-83499224D01*
X110765039Y-83499225D01*
X110857151Y-83696762D01*
X110857154Y-83696767D01*
X110859477Y-83701749D01*
X110898898Y-83758048D01*
X110983217Y-83878467D01*
X110990802Y-83889300D01*
X111152700Y-84051198D01*
X111157208Y-84054355D01*
X111157211Y-84054357D01*
X111188755Y-84076444D01*
X111340251Y-84182523D01*
X111345233Y-84184846D01*
X111345238Y-84184849D01*
X111488804Y-84251794D01*
X111547757Y-84279284D01*
X111553065Y-84280706D01*
X111553067Y-84280707D01*
X111763598Y-84337119D01*
X111763600Y-84337119D01*
X111768913Y-84338543D01*
X111997000Y-84358498D01*
X112225087Y-84338543D01*
X112230400Y-84337119D01*
X112230402Y-84337119D01*
X112440933Y-84280707D01*
X112440935Y-84280706D01*
X112446243Y-84279284D01*
X112505196Y-84251794D01*
X112648762Y-84184849D01*
X112648767Y-84184846D01*
X112653749Y-84182523D01*
X112805245Y-84076444D01*
X112836789Y-84054357D01*
X112836792Y-84054355D01*
X112841300Y-84051198D01*
X113003198Y-83889300D01*
X113010784Y-83878467D01*
X113095102Y-83758048D01*
X113134523Y-83701749D01*
X113136846Y-83696767D01*
X113136849Y-83696762D01*
X113228961Y-83499225D01*
X113228961Y-83499224D01*
X113231284Y-83494243D01*
X113263230Y-83375022D01*
X113289119Y-83278402D01*
X113289119Y-83278400D01*
X113290543Y-83273087D01*
X113310019Y-83050475D01*
X115684483Y-83050475D01*
X115703472Y-83267519D01*
X115705375Y-83278312D01*
X115761764Y-83488761D01*
X115765510Y-83499053D01*
X115857586Y-83696511D01*
X115863069Y-83706006D01*
X115899509Y-83758048D01*
X115909988Y-83766424D01*
X115923434Y-83759356D01*
X116624978Y-83057812D01*
X116632592Y-83043868D01*
X116632461Y-83042035D01*
X116628210Y-83035420D01*
X115922713Y-82329923D01*
X115910938Y-82323493D01*
X115898923Y-82332789D01*
X115863069Y-82383994D01*
X115857586Y-82393489D01*
X115765510Y-82590947D01*
X115761764Y-82601239D01*
X115705375Y-82811688D01*
X115703472Y-82822481D01*
X115684483Y-83039525D01*
X115684483Y-83050475D01*
X113310019Y-83050475D01*
X113310498Y-83045000D01*
X113290543Y-82816913D01*
X113280781Y-82780481D01*
X113232707Y-82601067D01*
X113232706Y-82601065D01*
X113231284Y-82595757D01*
X113224872Y-82582006D01*
X113136849Y-82393238D01*
X113136846Y-82393233D01*
X113134523Y-82388251D01*
X113025994Y-82233256D01*
X113006357Y-82205211D01*
X113006355Y-82205208D01*
X113003198Y-82200700D01*
X112841300Y-82038802D01*
X112836792Y-82035645D01*
X112836789Y-82035643D01*
X112737782Y-81966318D01*
X112653749Y-81907477D01*
X112648767Y-81905154D01*
X112648762Y-81905151D01*
X112451225Y-81813039D01*
X112451224Y-81813039D01*
X112446243Y-81810716D01*
X112440935Y-81809294D01*
X112440933Y-81809293D01*
X112230402Y-81752881D01*
X112230400Y-81752881D01*
X112225087Y-81751457D01*
X111997000Y-81731502D01*
X111768913Y-81751457D01*
X111763600Y-81752881D01*
X111763598Y-81752881D01*
X111553067Y-81809293D01*
X111553065Y-81809294D01*
X111547757Y-81810716D01*
X111542776Y-81813039D01*
X111542775Y-81813039D01*
X111345238Y-81905151D01*
X111345233Y-81905154D01*
X111340251Y-81907477D01*
X111256218Y-81966318D01*
X111157211Y-82035643D01*
X111157208Y-82035645D01*
X111152700Y-82038802D01*
X110990802Y-82200700D01*
X110987645Y-82205208D01*
X110987643Y-82205211D01*
X110968006Y-82233256D01*
X110859477Y-82388251D01*
X110857154Y-82393233D01*
X110857151Y-82393238D01*
X110769128Y-82582006D01*
X110762716Y-82595757D01*
X110761294Y-82601065D01*
X110761293Y-82601067D01*
X110713219Y-82780481D01*
X110703457Y-82816913D01*
X110683502Y-83045000D01*
X105780823Y-83045000D01*
X105784498Y-83003000D01*
X105764543Y-82774913D01*
X105758479Y-82752282D01*
X105706707Y-82559067D01*
X105706706Y-82559065D01*
X105705284Y-82553757D01*
X105702321Y-82547402D01*
X105610849Y-82351238D01*
X105610846Y-82351233D01*
X105608523Y-82346251D01*
X105516289Y-82214527D01*
X105480357Y-82163211D01*
X105480355Y-82163208D01*
X105477198Y-82158700D01*
X105315300Y-81996802D01*
X105310792Y-81993645D01*
X105310789Y-81993643D01*
X105192855Y-81911065D01*
X105127749Y-81865477D01*
X105122767Y-81863154D01*
X105122762Y-81863151D01*
X104925225Y-81771039D01*
X104925224Y-81771039D01*
X104920243Y-81768716D01*
X104914935Y-81767294D01*
X104914933Y-81767293D01*
X104704402Y-81710881D01*
X104704400Y-81710881D01*
X104699087Y-81709457D01*
X104471000Y-81689502D01*
X104242913Y-81709457D01*
X104237600Y-81710881D01*
X104237598Y-81710881D01*
X104027067Y-81767293D01*
X104027065Y-81767294D01*
X104021757Y-81768716D01*
X104016776Y-81771039D01*
X104016775Y-81771039D01*
X103819238Y-81863151D01*
X103819233Y-81863154D01*
X103814251Y-81865477D01*
X103749145Y-81911065D01*
X103631211Y-81993643D01*
X103631208Y-81993645D01*
X103626700Y-81996802D01*
X103464802Y-82158700D01*
X103461645Y-82163208D01*
X103461643Y-82163211D01*
X103425711Y-82214527D01*
X103333477Y-82346251D01*
X103331154Y-82351233D01*
X103331151Y-82351238D01*
X103239679Y-82547402D01*
X103236716Y-82553757D01*
X103235294Y-82559065D01*
X103235293Y-82559067D01*
X103183521Y-82752282D01*
X103177457Y-82774913D01*
X103157502Y-83003000D01*
X103177457Y-83231087D01*
X103178881Y-83236400D01*
X103178881Y-83236402D01*
X103216025Y-83375022D01*
X103236716Y-83452243D01*
X103239039Y-83457224D01*
X103239039Y-83457225D01*
X103322053Y-83635250D01*
X103332714Y-83705442D01*
X103303734Y-83770255D01*
X103244314Y-83809111D01*
X103207858Y-83814500D01*
X102648900Y-83814500D01*
X102580779Y-83794498D01*
X102561553Y-83778157D01*
X102561280Y-83778460D01*
X102556368Y-83774037D01*
X102551953Y-83769134D01*
X102530371Y-83753454D01*
X102402794Y-83660763D01*
X102402793Y-83660762D01*
X102397452Y-83656882D01*
X102391424Y-83654198D01*
X102391422Y-83654197D01*
X102229019Y-83581891D01*
X102229018Y-83581891D01*
X102222988Y-83579206D01*
X102129588Y-83559353D01*
X102042644Y-83540872D01*
X102042639Y-83540872D01*
X102036187Y-83539500D01*
X101845213Y-83539500D01*
X101838761Y-83540872D01*
X101838756Y-83540872D01*
X101751812Y-83559353D01*
X101658412Y-83579206D01*
X101652382Y-83581891D01*
X101652381Y-83581891D01*
X101489978Y-83654197D01*
X101489976Y-83654198D01*
X101483948Y-83656882D01*
X101478607Y-83660762D01*
X101478606Y-83660763D01*
X101473797Y-83664257D01*
X101329447Y-83769134D01*
X101325026Y-83774044D01*
X101325025Y-83774045D01*
X101293452Y-83809111D01*
X101201660Y-83911056D01*
X101106173Y-84076444D01*
X101047158Y-84258072D01*
X101046468Y-84264633D01*
X101046468Y-84264635D01*
X101038902Y-84336625D01*
X101027196Y-84448000D01*
X101047158Y-84637928D01*
X101106173Y-84819556D01*
X101201660Y-84984944D01*
X101329447Y-85126866D01*
X101483948Y-85239118D01*
X101489976Y-85241802D01*
X101489978Y-85241803D01*
X101652381Y-85314109D01*
X101658412Y-85316794D01*
X101751813Y-85336647D01*
X101838756Y-85355128D01*
X101838761Y-85355128D01*
X101845213Y-85356500D01*
X102036187Y-85356500D01*
X102042639Y-85355128D01*
X102042644Y-85355128D01*
X102129587Y-85336647D01*
X102222988Y-85316794D01*
X102229019Y-85314109D01*
X102391422Y-85241803D01*
X102391424Y-85241802D01*
X102397452Y-85239118D01*
X102551953Y-85126866D01*
X102556368Y-85121963D01*
X102561280Y-85117540D01*
X102562405Y-85118789D01*
X102615714Y-85085949D01*
X102648900Y-85081500D01*
X104875106Y-85081500D01*
X104943227Y-85101502D01*
X104964201Y-85118405D01*
X106659201Y-86813405D01*
X106693227Y-86875717D01*
X106688162Y-86946532D01*
X106645615Y-87003368D01*
X106579095Y-87028179D01*
X106570106Y-87028500D01*
X104972866Y-87028500D01*
X104910684Y-87035255D01*
X104774295Y-87086385D01*
X104657739Y-87173739D01*
X104570385Y-87290295D01*
X104519255Y-87426684D01*
X104512500Y-87488866D01*
X104512500Y-89185134D01*
X104519255Y-89247316D01*
X104570385Y-89383705D01*
X104657739Y-89500261D01*
X104774295Y-89587615D01*
X104910684Y-89638745D01*
X104921474Y-89639917D01*
X104923606Y-89640803D01*
X104926222Y-89641425D01*
X104926121Y-89641848D01*
X104987035Y-89667155D01*
X105027463Y-89725517D01*
X105029922Y-89796471D01*
X104993629Y-89857490D01*
X104984969Y-89864489D01*
X104981207Y-89867646D01*
X104976700Y-89870802D01*
X104814802Y-90032700D01*
X104811645Y-90037208D01*
X104811643Y-90037211D01*
X104777019Y-90086660D01*
X104683477Y-90220251D01*
X104681154Y-90225233D01*
X104681151Y-90225238D01*
X104599256Y-90400865D01*
X104586716Y-90427757D01*
X104585294Y-90433065D01*
X104585293Y-90433067D01*
X104528881Y-90643598D01*
X104527457Y-90648913D01*
X104507502Y-90877000D01*
X104527457Y-91105087D01*
X104528881Y-91110400D01*
X104528881Y-91110402D01*
X104537609Y-91142973D01*
X104586716Y-91326243D01*
X104589039Y-91331224D01*
X104589039Y-91331225D01*
X104681151Y-91528762D01*
X104681154Y-91528767D01*
X104683477Y-91533749D01*
X104754614Y-91635343D01*
X104772061Y-91660259D01*
X104814802Y-91721300D01*
X104976700Y-91883198D01*
X104981208Y-91886355D01*
X104981211Y-91886357D01*
X104997835Y-91897997D01*
X105164251Y-92014523D01*
X105169233Y-92016846D01*
X105169238Y-92016849D01*
X105203457Y-92032805D01*
X105256742Y-92079722D01*
X105276203Y-92147999D01*
X105255661Y-92215959D01*
X105203457Y-92261195D01*
X105169238Y-92277151D01*
X105169233Y-92277154D01*
X105164251Y-92279477D01*
X105133653Y-92300902D01*
X104981211Y-92407643D01*
X104981208Y-92407645D01*
X104976700Y-92410802D01*
X104870146Y-92517356D01*
X104807838Y-92551379D01*
X104737022Y-92546315D01*
X104691959Y-92517354D01*
X101467952Y-89293347D01*
X101460412Y-89285061D01*
X101456300Y-89278582D01*
X101406648Y-89231956D01*
X101403807Y-89229202D01*
X101384070Y-89209465D01*
X101380873Y-89206985D01*
X101371851Y-89199280D01*
X101367829Y-89195503D01*
X101339621Y-89169014D01*
X101332675Y-89165195D01*
X101332672Y-89165193D01*
X101321866Y-89159252D01*
X101305347Y-89148401D01*
X101304883Y-89148041D01*
X101289341Y-89135986D01*
X101282072Y-89132841D01*
X101282068Y-89132838D01*
X101248763Y-89118426D01*
X101238113Y-89113209D01*
X101199360Y-89091905D01*
X101179737Y-89086867D01*
X101161034Y-89080463D01*
X101149720Y-89075567D01*
X101149719Y-89075567D01*
X101142445Y-89072419D01*
X101134622Y-89071180D01*
X101134612Y-89071177D01*
X101098776Y-89065501D01*
X101087156Y-89063095D01*
X101052011Y-89054072D01*
X101052010Y-89054072D01*
X101044330Y-89052100D01*
X101024076Y-89052100D01*
X101004365Y-89050549D01*
X100992186Y-89048620D01*
X100984357Y-89047380D01*
X100976465Y-89048126D01*
X100940339Y-89051541D01*
X100928481Y-89052100D01*
X99508542Y-89052100D01*
X99440421Y-89032098D01*
X99393928Y-88978442D01*
X99383824Y-88908168D01*
X99394347Y-88872850D01*
X99432490Y-88791053D01*
X99436236Y-88780761D01*
X99482394Y-88608497D01*
X99482058Y-88594401D01*
X99474116Y-88591000D01*
X98073000Y-88591000D01*
X98004879Y-88570998D01*
X97958386Y-88517342D01*
X97947000Y-88465000D01*
X97947000Y-88064885D01*
X98455000Y-88064885D01*
X98459475Y-88080124D01*
X98460865Y-88081329D01*
X98468548Y-88083000D01*
X99468967Y-88083000D01*
X99482498Y-88079027D01*
X99483727Y-88070478D01*
X99436236Y-87893239D01*
X99432490Y-87882947D01*
X99340414Y-87685489D01*
X99334931Y-87675993D01*
X99209972Y-87497533D01*
X99202916Y-87489125D01*
X99048875Y-87335084D01*
X99040467Y-87328028D01*
X98862007Y-87203069D01*
X98852511Y-87197586D01*
X98655053Y-87105510D01*
X98644761Y-87101764D01*
X98472497Y-87055606D01*
X98458401Y-87055942D01*
X98455000Y-87063884D01*
X98455000Y-88064885D01*
X97947000Y-88064885D01*
X97947000Y-87069033D01*
X97943027Y-87055502D01*
X97934478Y-87054273D01*
X97757239Y-87101764D01*
X97746947Y-87105510D01*
X97549489Y-87197586D01*
X97539993Y-87203069D01*
X97361533Y-87328028D01*
X97353125Y-87335084D01*
X97199084Y-87489125D01*
X97192028Y-87497533D01*
X97067069Y-87675993D01*
X97061586Y-87685489D01*
X96974496Y-87872256D01*
X96927579Y-87925541D01*
X96859302Y-87945002D01*
X96791342Y-87924460D01*
X96771208Y-87908104D01*
X96075847Y-87212742D01*
X96068313Y-87204463D01*
X96064200Y-87197982D01*
X96014548Y-87151356D01*
X96011707Y-87148602D01*
X95991970Y-87128865D01*
X95988773Y-87126385D01*
X95979751Y-87118680D01*
X95947521Y-87088414D01*
X95940575Y-87084595D01*
X95940572Y-87084593D01*
X95929766Y-87078652D01*
X95913247Y-87067801D01*
X95912783Y-87067441D01*
X95897241Y-87055386D01*
X95889972Y-87052241D01*
X95889968Y-87052238D01*
X95856663Y-87037826D01*
X95846013Y-87032609D01*
X95807260Y-87011305D01*
X95787637Y-87006267D01*
X95768934Y-86999863D01*
X95757620Y-86994967D01*
X95757619Y-86994967D01*
X95750345Y-86991819D01*
X95742522Y-86990580D01*
X95742512Y-86990577D01*
X95706676Y-86984901D01*
X95695056Y-86982495D01*
X95659911Y-86973472D01*
X95659910Y-86973472D01*
X95652230Y-86971500D01*
X95631976Y-86971500D01*
X95612265Y-86969949D01*
X95600086Y-86968020D01*
X95592257Y-86966780D01*
X95584365Y-86967526D01*
X95548239Y-86970941D01*
X95536381Y-86971500D01*
X89337989Y-86971500D01*
X89269868Y-86951498D01*
X89234776Y-86917771D01*
X89168072Y-86822508D01*
X89168070Y-86822505D01*
X89164913Y-86817997D01*
X89014003Y-86667087D01*
X88977446Y-86641489D01*
X88911708Y-86595459D01*
X88839180Y-86544674D01*
X88834198Y-86542351D01*
X88834193Y-86542348D01*
X88650737Y-86456802D01*
X88650736Y-86456802D01*
X88645755Y-86454479D01*
X88640447Y-86453057D01*
X88640445Y-86453056D01*
X88444923Y-86400666D01*
X88444921Y-86400666D01*
X88439608Y-86399242D01*
X88227000Y-86380641D01*
X88014392Y-86399242D01*
X88009079Y-86400666D01*
X88009077Y-86400666D01*
X87813555Y-86453056D01*
X87813553Y-86453057D01*
X87808245Y-86454479D01*
X87803264Y-86456801D01*
X87803263Y-86456802D01*
X87619808Y-86542348D01*
X87619803Y-86542351D01*
X87614821Y-86544674D01*
X87610314Y-86547830D01*
X87610312Y-86547831D01*
X87444508Y-86663928D01*
X87444505Y-86663930D01*
X87439997Y-86667087D01*
X87289087Y-86817997D01*
X87285930Y-86822505D01*
X87285928Y-86822508D01*
X87169831Y-86988312D01*
X87166674Y-86992821D01*
X87164351Y-86997803D01*
X87164348Y-86997808D01*
X87078805Y-87181256D01*
X87076479Y-87186245D01*
X87075258Y-87190803D01*
X87033308Y-87247778D01*
X86966986Y-87273117D01*
X86897495Y-87258577D01*
X86846895Y-87208775D01*
X86838820Y-87191093D01*
X86837521Y-87186245D01*
X86835195Y-87181256D01*
X86749652Y-86997808D01*
X86749649Y-86997803D01*
X86747326Y-86992821D01*
X86744169Y-86988312D01*
X86628072Y-86822508D01*
X86628070Y-86822505D01*
X86624913Y-86817997D01*
X86474003Y-86667087D01*
X86437446Y-86641489D01*
X86371708Y-86595459D01*
X86299180Y-86544674D01*
X86294198Y-86542351D01*
X86294193Y-86542348D01*
X86110737Y-86456802D01*
X86110736Y-86456802D01*
X86105755Y-86454479D01*
X86100447Y-86453057D01*
X86100445Y-86453056D01*
X85904923Y-86400666D01*
X85904921Y-86400666D01*
X85899608Y-86399242D01*
X85687000Y-86380641D01*
X85474392Y-86399242D01*
X85469079Y-86400666D01*
X85469077Y-86400666D01*
X85273555Y-86453056D01*
X85273553Y-86453057D01*
X85268245Y-86454479D01*
X85263264Y-86456801D01*
X85263263Y-86456802D01*
X85079808Y-86542348D01*
X85079803Y-86542351D01*
X85074821Y-86544674D01*
X85070314Y-86547830D01*
X85070312Y-86547831D01*
X84904508Y-86663928D01*
X84904505Y-86663930D01*
X84899997Y-86667087D01*
X84749087Y-86817997D01*
X84745930Y-86822505D01*
X84745928Y-86822508D01*
X84629831Y-86988312D01*
X84626674Y-86992821D01*
X84624351Y-86997803D01*
X84624348Y-86997808D01*
X84538805Y-87181256D01*
X84536479Y-87186245D01*
X84535102Y-87191385D01*
X84493039Y-87248512D01*
X84426718Y-87273850D01*
X84357226Y-87259309D01*
X84306628Y-87209506D01*
X84298333Y-87191343D01*
X84294727Y-87181437D01*
X84209217Y-86998059D01*
X84203734Y-86988564D01*
X84180731Y-86955712D01*
X84170252Y-86947336D01*
X84156806Y-86954404D01*
X83519022Y-87592188D01*
X83511408Y-87606132D01*
X83511539Y-87607965D01*
X83515790Y-87614580D01*
X84157527Y-88256317D01*
X84169302Y-88262747D01*
X84181317Y-88253451D01*
X84203734Y-88221436D01*
X84209217Y-88211941D01*
X84294727Y-88028563D01*
X84298333Y-88018657D01*
X84340428Y-87961487D01*
X84406750Y-87936150D01*
X84476241Y-87950692D01*
X84526839Y-88000495D01*
X84535084Y-88018551D01*
X84536479Y-88023755D01*
X84538801Y-88028736D01*
X84538802Y-88028737D01*
X84624348Y-88212192D01*
X84624351Y-88212197D01*
X84626674Y-88217179D01*
X84629830Y-88221686D01*
X84629831Y-88221688D01*
X84742714Y-88382901D01*
X84749087Y-88392003D01*
X84899997Y-88542913D01*
X84904505Y-88546070D01*
X84904508Y-88546072D01*
X84968035Y-88590554D01*
X85074820Y-88665326D01*
X85079802Y-88667649D01*
X85079807Y-88667652D01*
X85263256Y-88753195D01*
X85263260Y-88753196D01*
X85268245Y-88755521D01*
X85272803Y-88756742D01*
X85329778Y-88798692D01*
X85355117Y-88865014D01*
X85340577Y-88934505D01*
X85290775Y-88985105D01*
X85273093Y-88993180D01*
X85268245Y-88994479D01*
X85263260Y-88996804D01*
X85263256Y-88996805D01*
X85079808Y-89082348D01*
X85079803Y-89082351D01*
X85074821Y-89084674D01*
X85070314Y-89087830D01*
X85070312Y-89087831D01*
X84904508Y-89203928D01*
X84904505Y-89203930D01*
X84899997Y-89207087D01*
X84749087Y-89357997D01*
X84745930Y-89362505D01*
X84745928Y-89362508D01*
X84640811Y-89512631D01*
X84626674Y-89532821D01*
X84624351Y-89537803D01*
X84624348Y-89537808D01*
X84606895Y-89575237D01*
X84559977Y-89628522D01*
X84491700Y-89647983D01*
X84423740Y-89627441D01*
X84377675Y-89573418D01*
X84366700Y-89521987D01*
X84366700Y-89385666D01*
X84359945Y-89323484D01*
X84308815Y-89187095D01*
X84221461Y-89070539D01*
X84104905Y-88983185D01*
X83968516Y-88932055D01*
X83906334Y-88925300D01*
X83768830Y-88925300D01*
X83700709Y-88905298D01*
X83654216Y-88851642D01*
X83644112Y-88781368D01*
X83673606Y-88716788D01*
X83715580Y-88685105D01*
X83753944Y-88667216D01*
X83763434Y-88661737D01*
X83796291Y-88638730D01*
X83804665Y-88628254D01*
X83797596Y-88614806D01*
X83159812Y-87977022D01*
X83145868Y-87969408D01*
X83144035Y-87969539D01*
X83137420Y-87973790D01*
X82495682Y-88615528D01*
X82489252Y-88627302D01*
X82498548Y-88639317D01*
X82530566Y-88661737D01*
X82540056Y-88667216D01*
X82578420Y-88685105D01*
X82631705Y-88732022D01*
X82651166Y-88800300D01*
X82630624Y-88868260D01*
X82576601Y-88914325D01*
X82525170Y-88925300D01*
X82387666Y-88925300D01*
X82325484Y-88932055D01*
X82189095Y-88983185D01*
X82072539Y-89070539D01*
X81985185Y-89187095D01*
X81934055Y-89323484D01*
X81927300Y-89385666D01*
X81927300Y-89523171D01*
X81907298Y-89591292D01*
X81853642Y-89637785D01*
X81783368Y-89647889D01*
X81718788Y-89618395D01*
X81687105Y-89576421D01*
X81669217Y-89538059D01*
X81663734Y-89528564D01*
X81640731Y-89495712D01*
X81630252Y-89487336D01*
X81616806Y-89494404D01*
X80696095Y-90415115D01*
X80633783Y-90449141D01*
X80562968Y-90444076D01*
X80517905Y-90415115D01*
X79596473Y-89493683D01*
X79584698Y-89487253D01*
X79572683Y-89496549D01*
X79550266Y-89528564D01*
X79544783Y-89538059D01*
X79459273Y-89721437D01*
X79455667Y-89731343D01*
X79413572Y-89788513D01*
X79347250Y-89813850D01*
X79277759Y-89799308D01*
X79227161Y-89749505D01*
X79218916Y-89731449D01*
X79217521Y-89726245D01*
X79201429Y-89691735D01*
X79129652Y-89537808D01*
X79129649Y-89537803D01*
X79127326Y-89532821D01*
X79113189Y-89512631D01*
X79008072Y-89362508D01*
X79008070Y-89362505D01*
X79004913Y-89357997D01*
X78854003Y-89207087D01*
X78846719Y-89201986D01*
X78752461Y-89135986D01*
X78679180Y-89084674D01*
X78674198Y-89082351D01*
X78674193Y-89082348D01*
X78490737Y-88996802D01*
X78490736Y-88996802D01*
X78485755Y-88994479D01*
X78480447Y-88993057D01*
X78480445Y-88993056D01*
X78284923Y-88940666D01*
X78284921Y-88940666D01*
X78279608Y-88939242D01*
X78067000Y-88920641D01*
X77854392Y-88939242D01*
X77849079Y-88940666D01*
X77849077Y-88940666D01*
X77653555Y-88993056D01*
X77653553Y-88993057D01*
X77648245Y-88994479D01*
X77643264Y-88996801D01*
X77643263Y-88996802D01*
X77459808Y-89082348D01*
X77459803Y-89082351D01*
X77454821Y-89084674D01*
X77450314Y-89087830D01*
X77450312Y-89087831D01*
X77284508Y-89203928D01*
X77284505Y-89203930D01*
X77279997Y-89207087D01*
X77129087Y-89357997D01*
X77125930Y-89362505D01*
X77125928Y-89362508D01*
X77020811Y-89512631D01*
X77006674Y-89532821D01*
X77004351Y-89537803D01*
X77004348Y-89537808D01*
X76932571Y-89691735D01*
X76916479Y-89726245D01*
X76915057Y-89731553D01*
X76915056Y-89731555D01*
X76869212Y-89902646D01*
X76861242Y-89932392D01*
X76842641Y-90145000D01*
X76861242Y-90357608D01*
X76862667Y-90362926D01*
X76869811Y-90389590D01*
X76868121Y-90460566D01*
X76828326Y-90519362D01*
X76763062Y-90547309D01*
X76748104Y-90548200D01*
X70533594Y-90548200D01*
X70465473Y-90528198D01*
X70444499Y-90511295D01*
X70418583Y-90485379D01*
X70384557Y-90423067D01*
X70389622Y-90352252D01*
X70432169Y-90295416D01*
X70475066Y-90274578D01*
X70608925Y-90238710D01*
X70608936Y-90238706D01*
X70614243Y-90237284D01*
X70622920Y-90233238D01*
X70816762Y-90142849D01*
X70816767Y-90142846D01*
X70821749Y-90140523D01*
X70958772Y-90044578D01*
X71004789Y-90012357D01*
X71004792Y-90012355D01*
X71009300Y-90009198D01*
X71171198Y-89847300D01*
X71192205Y-89817300D01*
X71252392Y-89731343D01*
X71302523Y-89659749D01*
X71304846Y-89654767D01*
X71304849Y-89654762D01*
X71396961Y-89457225D01*
X71396961Y-89457224D01*
X71399284Y-89452243D01*
X71406172Y-89426539D01*
X71457119Y-89236402D01*
X71457119Y-89236400D01*
X71458543Y-89231087D01*
X71478498Y-89003000D01*
X71458543Y-88774913D01*
X71453707Y-88756866D01*
X71400707Y-88559067D01*
X71400706Y-88559065D01*
X71399284Y-88553757D01*
X71395948Y-88546602D01*
X71304849Y-88351238D01*
X71304846Y-88351233D01*
X71302523Y-88346251D01*
X71171198Y-88158700D01*
X71009300Y-87996802D01*
X71004792Y-87993645D01*
X71004789Y-87993643D01*
X70861397Y-87893239D01*
X70821749Y-87865477D01*
X70816767Y-87863154D01*
X70816762Y-87863151D01*
X70619225Y-87771039D01*
X70619224Y-87771039D01*
X70614243Y-87768716D01*
X70608935Y-87767294D01*
X70608933Y-87767293D01*
X70398402Y-87710881D01*
X70398400Y-87710881D01*
X70393087Y-87709457D01*
X70165000Y-87689502D01*
X69936913Y-87709457D01*
X69931600Y-87710881D01*
X69931598Y-87710881D01*
X69721067Y-87767293D01*
X69721065Y-87767294D01*
X69715757Y-87768716D01*
X69710776Y-87771039D01*
X69710775Y-87771039D01*
X69513238Y-87863151D01*
X69513233Y-87863154D01*
X69508251Y-87865477D01*
X69468603Y-87893239D01*
X69325211Y-87993643D01*
X69325208Y-87993645D01*
X69320700Y-87996802D01*
X69158802Y-88158700D01*
X69027477Y-88346251D01*
X69025154Y-88351233D01*
X69025151Y-88351238D01*
X68934052Y-88546602D01*
X68930716Y-88553757D01*
X68929294Y-88559065D01*
X68929293Y-88559067D01*
X68893424Y-88692932D01*
X68856472Y-88753555D01*
X68792611Y-88784576D01*
X68722117Y-88776148D01*
X68682622Y-88749416D01*
X68543948Y-88610742D01*
X68536413Y-88602462D01*
X68532300Y-88595982D01*
X68482648Y-88549356D01*
X68479807Y-88546602D01*
X68460070Y-88526865D01*
X68456873Y-88524385D01*
X68447851Y-88516680D01*
X68421400Y-88491841D01*
X68415621Y-88486414D01*
X68408675Y-88482595D01*
X68408672Y-88482593D01*
X68397866Y-88476652D01*
X68381347Y-88465801D01*
X68380314Y-88465000D01*
X68365341Y-88453386D01*
X68358072Y-88450241D01*
X68358068Y-88450238D01*
X68324763Y-88435826D01*
X68314113Y-88430609D01*
X68275360Y-88409305D01*
X68255737Y-88404267D01*
X68237034Y-88397863D01*
X68225720Y-88392967D01*
X68225719Y-88392967D01*
X68218445Y-88389819D01*
X68210622Y-88388580D01*
X68210612Y-88388577D01*
X68174776Y-88382901D01*
X68163156Y-88380495D01*
X68128011Y-88371472D01*
X68128010Y-88371472D01*
X68120330Y-88369500D01*
X68117777Y-88369500D01*
X68054892Y-88342075D01*
X68032545Y-88317720D01*
X68031517Y-88316251D01*
X67921198Y-88158700D01*
X67759300Y-87996802D01*
X67754792Y-87993645D01*
X67754789Y-87993643D01*
X67611397Y-87893239D01*
X67571749Y-87865477D01*
X67566767Y-87863154D01*
X67566762Y-87863151D01*
X67369225Y-87771039D01*
X67369224Y-87771039D01*
X67364243Y-87768716D01*
X67358935Y-87767294D01*
X67358933Y-87767293D01*
X67148402Y-87710881D01*
X67148400Y-87710881D01*
X67143087Y-87709457D01*
X66915000Y-87689502D01*
X66686913Y-87709457D01*
X66681600Y-87710881D01*
X66681598Y-87710881D01*
X66471067Y-87767293D01*
X66471065Y-87767294D01*
X66465757Y-87768716D01*
X66460776Y-87771039D01*
X66460775Y-87771039D01*
X66263238Y-87863151D01*
X66263233Y-87863154D01*
X66258251Y-87865477D01*
X66218603Y-87893239D01*
X66075211Y-87993643D01*
X66075208Y-87993645D01*
X66070700Y-87996802D01*
X65908802Y-88158700D01*
X65777477Y-88346251D01*
X65775154Y-88351233D01*
X65775151Y-88351238D01*
X65684052Y-88546602D01*
X65680716Y-88553757D01*
X65679294Y-88559065D01*
X65679293Y-88559067D01*
X65626293Y-88756866D01*
X65621457Y-88774913D01*
X65601502Y-89003000D01*
X65621457Y-89231087D01*
X65622881Y-89236400D01*
X65622881Y-89236402D01*
X65673829Y-89426539D01*
X65680716Y-89452243D01*
X65683039Y-89457224D01*
X65683039Y-89457225D01*
X65775151Y-89654762D01*
X65775154Y-89654767D01*
X65777477Y-89659749D01*
X65827608Y-89731343D01*
X65887796Y-89817300D01*
X65908802Y-89847300D01*
X66070700Y-90009198D01*
X66075208Y-90012355D01*
X66075211Y-90012357D01*
X66121228Y-90044578D01*
X66258251Y-90140523D01*
X66263233Y-90142846D01*
X66263238Y-90142849D01*
X66457080Y-90233238D01*
X66465757Y-90237284D01*
X66471065Y-90238706D01*
X66471067Y-90238707D01*
X66681598Y-90295119D01*
X66681600Y-90295119D01*
X66686913Y-90296543D01*
X66915000Y-90316498D01*
X67143087Y-90296543D01*
X67148400Y-90295119D01*
X67148402Y-90295119D01*
X67358933Y-90238707D01*
X67358935Y-90238706D01*
X67364243Y-90237284D01*
X67372920Y-90233238D01*
X67566762Y-90142849D01*
X67566767Y-90142846D01*
X67571749Y-90140523D01*
X67708772Y-90044578D01*
X67754789Y-90012357D01*
X67754792Y-90012355D01*
X67759300Y-90009198D01*
X67865852Y-89902646D01*
X67928164Y-89868620D01*
X67998979Y-89873685D01*
X68044042Y-89902646D01*
X68898395Y-90757000D01*
X69715348Y-91573953D01*
X69722888Y-91582239D01*
X69727000Y-91588718D01*
X69732777Y-91594143D01*
X69776651Y-91635343D01*
X69779493Y-91638098D01*
X69799230Y-91657835D01*
X69802427Y-91660315D01*
X69811447Y-91668018D01*
X69843679Y-91698286D01*
X69850625Y-91702105D01*
X69850628Y-91702107D01*
X69861434Y-91708048D01*
X69877953Y-91718899D01*
X69893959Y-91731314D01*
X69901228Y-91734459D01*
X69901232Y-91734462D01*
X69934537Y-91748874D01*
X69945187Y-91754091D01*
X69983940Y-91775395D01*
X69991615Y-91777366D01*
X69991616Y-91777366D01*
X70003562Y-91780433D01*
X70022267Y-91786837D01*
X70040855Y-91794881D01*
X70048678Y-91796120D01*
X70048688Y-91796123D01*
X70084524Y-91801799D01*
X70096144Y-91804205D01*
X70131289Y-91813228D01*
X70138970Y-91815200D01*
X70159224Y-91815200D01*
X70178934Y-91816751D01*
X70198943Y-91819920D01*
X70206835Y-91819174D01*
X70242961Y-91815759D01*
X70254819Y-91815200D01*
X76945018Y-91815200D01*
X77013139Y-91835202D01*
X77059632Y-91888858D01*
X77069736Y-91959132D01*
X77048231Y-92013470D01*
X77009834Y-92068307D01*
X77009831Y-92068313D01*
X77006674Y-92072821D01*
X77004351Y-92077803D01*
X77004348Y-92077808D01*
X76936197Y-92223959D01*
X76916479Y-92266245D01*
X76915057Y-92271553D01*
X76915056Y-92271555D01*
X76862667Y-92467072D01*
X76861242Y-92472392D01*
X76842641Y-92685000D01*
X76861242Y-92897608D01*
X76916479Y-93103755D01*
X76918801Y-93108736D01*
X76918802Y-93108737D01*
X77004348Y-93292192D01*
X77004351Y-93292197D01*
X77006674Y-93297179D01*
X77009830Y-93301686D01*
X77009831Y-93301688D01*
X77090574Y-93417000D01*
X77129087Y-93472003D01*
X77279997Y-93622913D01*
X77284505Y-93626070D01*
X77284508Y-93626072D01*
X77319255Y-93650402D01*
X77454820Y-93745326D01*
X77459802Y-93747649D01*
X77459807Y-93747652D01*
X77643256Y-93833195D01*
X77643260Y-93833196D01*
X77648245Y-93835521D01*
X77652803Y-93836742D01*
X77709778Y-93878692D01*
X77735117Y-93945014D01*
X77720577Y-94014505D01*
X77670775Y-94065105D01*
X77653093Y-94073180D01*
X77648245Y-94074479D01*
X77643260Y-94076804D01*
X77643256Y-94076805D01*
X77459808Y-94162348D01*
X77459803Y-94162351D01*
X77454821Y-94164674D01*
X77450314Y-94167830D01*
X77450312Y-94167831D01*
X77284508Y-94283928D01*
X77284505Y-94283930D01*
X77279997Y-94287087D01*
X77129087Y-94437997D01*
X77125930Y-94442505D01*
X77125928Y-94442508D01*
X77041893Y-94562523D01*
X77006674Y-94612821D01*
X77004351Y-94617803D01*
X77004348Y-94617808D01*
X76936326Y-94763683D01*
X76916479Y-94806245D01*
X76915057Y-94811553D01*
X76915056Y-94811555D01*
X76911413Y-94825151D01*
X76861242Y-95012392D01*
X76842641Y-95225000D01*
X76861242Y-95437608D01*
X76916479Y-95643755D01*
X76918801Y-95648736D01*
X76918802Y-95648737D01*
X77004348Y-95832192D01*
X77004351Y-95832197D01*
X77006674Y-95837179D01*
X77009830Y-95841686D01*
X77009831Y-95841688D01*
X77100009Y-95970475D01*
X77129087Y-96012003D01*
X77183945Y-96066861D01*
X77217971Y-96129173D01*
X77212906Y-96199988D01*
X77183945Y-96245051D01*
X67965252Y-105463743D01*
X59032747Y-114396248D01*
X59024461Y-114403788D01*
X59017982Y-114407900D01*
X59012557Y-114413677D01*
X58971357Y-114457551D01*
X58968602Y-114460393D01*
X58948865Y-114480130D01*
X58946385Y-114483327D01*
X58938682Y-114492347D01*
X58908414Y-114524579D01*
X58904595Y-114531525D01*
X58904593Y-114531528D01*
X58898652Y-114542334D01*
X58887801Y-114558853D01*
X58875386Y-114574859D01*
X58872241Y-114582128D01*
X58872238Y-114582132D01*
X58857826Y-114615437D01*
X58852609Y-114626087D01*
X58831305Y-114664840D01*
X58829334Y-114672515D01*
X58829334Y-114672516D01*
X58826267Y-114684462D01*
X58819863Y-114703166D01*
X58811819Y-114721755D01*
X58810580Y-114729578D01*
X58810577Y-114729588D01*
X58804901Y-114765424D01*
X58802495Y-114777044D01*
X58791500Y-114819870D01*
X58791500Y-114840124D01*
X58789949Y-114859834D01*
X58786780Y-114879843D01*
X58787526Y-114887735D01*
X58790941Y-114923861D01*
X58791500Y-114935719D01*
X58791500Y-132019000D01*
X58771498Y-132087121D01*
X58717842Y-132133614D01*
X58665500Y-132145000D01*
X54691395Y-132145000D01*
X54623274Y-132124998D01*
X54602300Y-132108095D01*
X54115405Y-131621200D01*
X54081379Y-131558888D01*
X54078500Y-131532105D01*
X54078500Y-89528354D01*
X54098502Y-89460233D01*
X54132228Y-89425142D01*
X54229602Y-89356960D01*
X54252527Y-89340908D01*
X54252530Y-89340906D01*
X54257038Y-89337749D01*
X54412749Y-89182038D01*
X54418069Y-89174441D01*
X54535899Y-89006162D01*
X54535900Y-89006160D01*
X54539056Y-89001653D01*
X54541379Y-88996671D01*
X54541382Y-88996666D01*
X54552417Y-88973000D01*
X62301502Y-88973000D01*
X62321457Y-89201087D01*
X62322881Y-89206400D01*
X62322881Y-89206402D01*
X62374534Y-89399170D01*
X62380716Y-89422243D01*
X62383039Y-89427224D01*
X62383039Y-89427225D01*
X62475151Y-89624762D01*
X62475154Y-89624767D01*
X62477477Y-89629749D01*
X62541551Y-89721256D01*
X62583099Y-89780592D01*
X62608802Y-89817300D01*
X62770700Y-89979198D01*
X62775208Y-89982355D01*
X62775211Y-89982357D01*
X62833483Y-90023159D01*
X62958251Y-90110523D01*
X62963233Y-90112846D01*
X62963238Y-90112849D01*
X63137844Y-90194268D01*
X63165757Y-90207284D01*
X63171065Y-90208706D01*
X63171067Y-90208707D01*
X63381598Y-90265119D01*
X63381600Y-90265119D01*
X63386913Y-90266543D01*
X63615000Y-90286498D01*
X63843087Y-90266543D01*
X63848400Y-90265119D01*
X63848402Y-90265119D01*
X64058933Y-90208707D01*
X64058935Y-90208706D01*
X64064243Y-90207284D01*
X64092156Y-90194268D01*
X64266762Y-90112849D01*
X64266767Y-90112846D01*
X64271749Y-90110523D01*
X64396517Y-90023159D01*
X64454789Y-89982357D01*
X64454792Y-89982355D01*
X64459300Y-89979198D01*
X64621198Y-89817300D01*
X64646902Y-89780592D01*
X64688449Y-89721256D01*
X64752523Y-89629749D01*
X64754846Y-89624767D01*
X64754849Y-89624762D01*
X64846961Y-89427225D01*
X64846961Y-89427224D01*
X64849284Y-89422243D01*
X64855467Y-89399170D01*
X64907119Y-89206402D01*
X64907119Y-89206400D01*
X64908543Y-89201087D01*
X64928498Y-88973000D01*
X64908543Y-88744913D01*
X64894615Y-88692932D01*
X64850707Y-88529067D01*
X64850706Y-88529065D01*
X64849284Y-88523757D01*
X64845984Y-88516680D01*
X64754849Y-88321238D01*
X64754846Y-88321233D01*
X64752523Y-88316251D01*
X64645363Y-88163211D01*
X64624357Y-88133211D01*
X64624355Y-88133208D01*
X64621198Y-88128700D01*
X64459300Y-87966802D01*
X64454792Y-87963645D01*
X64454789Y-87963643D01*
X64339543Y-87882947D01*
X64271749Y-87835477D01*
X64266767Y-87833154D01*
X64266762Y-87833151D01*
X64069225Y-87741039D01*
X64069224Y-87741039D01*
X64064243Y-87738716D01*
X64058935Y-87737294D01*
X64058933Y-87737293D01*
X63848402Y-87680881D01*
X63848400Y-87680881D01*
X63843087Y-87679457D01*
X63615000Y-87659502D01*
X63386913Y-87679457D01*
X63381600Y-87680881D01*
X63381598Y-87680881D01*
X63171067Y-87737293D01*
X63171065Y-87737294D01*
X63165757Y-87738716D01*
X63160776Y-87741039D01*
X63160775Y-87741039D01*
X62963238Y-87833151D01*
X62963233Y-87833154D01*
X62958251Y-87835477D01*
X62890457Y-87882947D01*
X62775211Y-87963643D01*
X62775208Y-87963645D01*
X62770700Y-87966802D01*
X62608802Y-88128700D01*
X62605645Y-88133208D01*
X62605643Y-88133211D01*
X62584637Y-88163211D01*
X62477477Y-88316251D01*
X62475154Y-88321233D01*
X62475151Y-88321238D01*
X62384016Y-88516680D01*
X62380716Y-88523757D01*
X62379294Y-88529065D01*
X62379293Y-88529067D01*
X62335385Y-88692932D01*
X62321457Y-88744913D01*
X62301502Y-88973000D01*
X54552417Y-88973000D01*
X54593335Y-88885250D01*
X54632120Y-88802076D01*
X54689115Y-88589371D01*
X54708307Y-88370000D01*
X54689115Y-88150629D01*
X54632120Y-87937924D01*
X54573461Y-87812128D01*
X54541382Y-87743334D01*
X54541379Y-87743329D01*
X54539056Y-87738347D01*
X54493815Y-87673736D01*
X54471127Y-87606463D01*
X54471494Y-87605000D01*
X79382641Y-87605000D01*
X79401242Y-87817608D01*
X79402666Y-87822921D01*
X79402666Y-87822923D01*
X79448411Y-87993643D01*
X79456479Y-88023755D01*
X79458801Y-88028736D01*
X79458802Y-88028737D01*
X79544348Y-88212192D01*
X79544351Y-88212197D01*
X79546674Y-88217179D01*
X79549830Y-88221686D01*
X79549831Y-88221688D01*
X79662714Y-88382901D01*
X79669087Y-88392003D01*
X79819997Y-88542913D01*
X79824505Y-88546070D01*
X79824508Y-88546072D01*
X79888035Y-88590554D01*
X79994820Y-88665326D01*
X79999802Y-88667649D01*
X79999807Y-88667652D01*
X80177248Y-88750393D01*
X80188245Y-88755521D01*
X80193385Y-88756898D01*
X80250512Y-88798961D01*
X80275850Y-88865282D01*
X80261309Y-88934774D01*
X80211506Y-88985372D01*
X80193343Y-88993667D01*
X80183437Y-88997273D01*
X80000059Y-89082783D01*
X79990564Y-89088266D01*
X79957712Y-89111269D01*
X79949336Y-89121748D01*
X79956404Y-89135194D01*
X80594188Y-89772978D01*
X80608132Y-89780592D01*
X80609965Y-89780461D01*
X80616580Y-89776210D01*
X81258318Y-89134472D01*
X81264748Y-89122698D01*
X81255452Y-89110683D01*
X81223434Y-89088263D01*
X81213944Y-89082785D01*
X81030563Y-88997273D01*
X81020657Y-88993667D01*
X80963487Y-88951572D01*
X80938150Y-88885250D01*
X80952692Y-88815759D01*
X81002495Y-88765161D01*
X81020551Y-88756916D01*
X81025755Y-88755521D01*
X81036752Y-88750393D01*
X81214193Y-88667652D01*
X81214198Y-88667649D01*
X81219180Y-88665326D01*
X81325965Y-88590554D01*
X81389492Y-88546072D01*
X81389495Y-88546070D01*
X81394003Y-88542913D01*
X81544913Y-88392003D01*
X81551287Y-88382901D01*
X81664169Y-88221688D01*
X81664170Y-88221686D01*
X81667326Y-88217179D01*
X81669649Y-88212197D01*
X81669652Y-88212192D01*
X81755198Y-88028737D01*
X81755199Y-88028736D01*
X81757521Y-88023755D01*
X81758898Y-88018615D01*
X81800961Y-87961488D01*
X81867282Y-87936150D01*
X81936774Y-87950691D01*
X81987372Y-88000494D01*
X81995667Y-88018657D01*
X81999273Y-88028563D01*
X82084783Y-88211941D01*
X82090266Y-88221436D01*
X82113269Y-88254288D01*
X82123748Y-88262664D01*
X82137194Y-88255596D01*
X82774978Y-87617812D01*
X82782592Y-87603868D01*
X82782461Y-87602035D01*
X82778210Y-87595420D01*
X82136473Y-86953683D01*
X82124698Y-86947253D01*
X82112683Y-86956549D01*
X82090266Y-86988564D01*
X82084783Y-86998059D01*
X81999273Y-87181437D01*
X81995667Y-87191343D01*
X81953572Y-87248513D01*
X81887250Y-87273850D01*
X81817759Y-87259308D01*
X81767161Y-87209505D01*
X81758916Y-87191449D01*
X81757521Y-87186245D01*
X81755195Y-87181256D01*
X81669652Y-86997808D01*
X81669649Y-86997803D01*
X81667326Y-86992821D01*
X81664169Y-86988312D01*
X81548072Y-86822508D01*
X81548070Y-86822505D01*
X81544913Y-86817997D01*
X81394003Y-86667087D01*
X81357446Y-86641489D01*
X81291708Y-86595459D01*
X81272127Y-86581748D01*
X82489336Y-86581748D01*
X82496404Y-86595194D01*
X83134188Y-87232978D01*
X83148132Y-87240592D01*
X83149965Y-87240461D01*
X83156580Y-87236210D01*
X83798318Y-86594472D01*
X83804748Y-86582698D01*
X83795452Y-86570683D01*
X83763434Y-86548263D01*
X83753944Y-86542785D01*
X83570569Y-86457276D01*
X83560273Y-86453528D01*
X83364832Y-86401159D01*
X83354043Y-86399257D01*
X83152475Y-86381622D01*
X83141525Y-86381622D01*
X82939957Y-86399257D01*
X82929168Y-86401159D01*
X82733727Y-86453528D01*
X82723431Y-86457276D01*
X82540059Y-86542783D01*
X82530564Y-86548266D01*
X82497712Y-86571269D01*
X82489336Y-86581748D01*
X81272127Y-86581748D01*
X81219180Y-86544674D01*
X81214198Y-86542351D01*
X81214193Y-86542348D01*
X81030737Y-86456802D01*
X81030736Y-86456802D01*
X81025755Y-86454479D01*
X81020447Y-86453057D01*
X81020445Y-86453056D01*
X80824923Y-86400666D01*
X80824921Y-86400666D01*
X80819608Y-86399242D01*
X80607000Y-86380641D01*
X80394392Y-86399242D01*
X80389079Y-86400666D01*
X80389077Y-86400666D01*
X80193555Y-86453056D01*
X80193553Y-86453057D01*
X80188245Y-86454479D01*
X80183264Y-86456801D01*
X80183263Y-86456802D01*
X79999808Y-86542348D01*
X79999803Y-86542351D01*
X79994821Y-86544674D01*
X79990314Y-86547830D01*
X79990312Y-86547831D01*
X79824508Y-86663928D01*
X79824505Y-86663930D01*
X79819997Y-86667087D01*
X79669087Y-86817997D01*
X79665930Y-86822505D01*
X79665928Y-86822508D01*
X79549831Y-86988312D01*
X79546674Y-86992821D01*
X79544351Y-86997803D01*
X79544348Y-86997808D01*
X79458805Y-87181256D01*
X79456479Y-87186245D01*
X79455057Y-87191553D01*
X79455056Y-87191555D01*
X79416345Y-87336028D01*
X79401242Y-87392392D01*
X79382641Y-87605000D01*
X54471494Y-87605000D01*
X54488412Y-87537603D01*
X54507933Y-87512371D01*
X57931242Y-84089062D01*
X98749493Y-84089062D01*
X98758789Y-84101077D01*
X98809994Y-84136931D01*
X98819489Y-84142414D01*
X99016947Y-84234490D01*
X99027239Y-84238236D01*
X99237688Y-84294625D01*
X99248481Y-84296528D01*
X99465525Y-84315517D01*
X99476475Y-84315517D01*
X99693519Y-84296528D01*
X99704312Y-84294625D01*
X99914761Y-84238236D01*
X99925053Y-84234490D01*
X100122511Y-84142414D01*
X100132006Y-84136931D01*
X100184048Y-84100491D01*
X100192424Y-84090012D01*
X100185356Y-84076566D01*
X99483812Y-83375022D01*
X99469868Y-83367408D01*
X99468035Y-83367539D01*
X99461420Y-83371790D01*
X98755923Y-84077287D01*
X98749493Y-84089062D01*
X57931242Y-84089062D01*
X59011829Y-83008475D01*
X98158483Y-83008475D01*
X98177472Y-83225519D01*
X98179375Y-83236312D01*
X98235764Y-83446761D01*
X98239510Y-83457053D01*
X98331586Y-83654511D01*
X98337069Y-83664006D01*
X98373509Y-83716048D01*
X98383988Y-83724424D01*
X98397434Y-83717356D01*
X99098978Y-83015812D01*
X99105356Y-83004132D01*
X99835408Y-83004132D01*
X99835539Y-83005965D01*
X99839790Y-83012580D01*
X100545287Y-83718077D01*
X100557062Y-83724507D01*
X100569077Y-83715211D01*
X100604931Y-83664006D01*
X100610414Y-83654511D01*
X100702490Y-83457053D01*
X100706236Y-83446761D01*
X100762625Y-83236312D01*
X100764528Y-83225519D01*
X100783517Y-83008475D01*
X100783517Y-82997525D01*
X100764528Y-82780481D01*
X100762625Y-82769688D01*
X100706236Y-82559239D01*
X100702490Y-82548947D01*
X100610414Y-82351489D01*
X100604931Y-82341994D01*
X100568491Y-82289952D01*
X100558012Y-82281576D01*
X100544566Y-82288644D01*
X99843022Y-82990188D01*
X99835408Y-83004132D01*
X99105356Y-83004132D01*
X99106592Y-83001868D01*
X99106461Y-83000035D01*
X99102210Y-82993420D01*
X98396713Y-82287923D01*
X98384938Y-82281493D01*
X98372923Y-82290789D01*
X98337069Y-82341994D01*
X98331586Y-82351489D01*
X98239510Y-82548947D01*
X98235764Y-82559239D01*
X98179375Y-82769688D01*
X98177472Y-82780481D01*
X98158483Y-82997525D01*
X98158483Y-83008475D01*
X59011829Y-83008475D01*
X60400782Y-81619522D01*
X62332273Y-81619522D01*
X62379764Y-81796761D01*
X62383510Y-81807053D01*
X62475586Y-82004511D01*
X62481069Y-82014007D01*
X62606028Y-82192467D01*
X62613084Y-82200875D01*
X62767125Y-82354916D01*
X62775533Y-82361972D01*
X62953993Y-82486931D01*
X62963489Y-82492414D01*
X63160947Y-82584490D01*
X63171239Y-82588236D01*
X63343503Y-82634394D01*
X63357599Y-82634058D01*
X63361000Y-82626116D01*
X63361000Y-82620967D01*
X63869000Y-82620967D01*
X63872973Y-82634498D01*
X63881522Y-82635727D01*
X64058761Y-82588236D01*
X64069053Y-82584490D01*
X64266511Y-82492414D01*
X64276007Y-82486931D01*
X64301527Y-82469062D01*
X66193493Y-82469062D01*
X66202789Y-82481077D01*
X66253994Y-82516931D01*
X66263489Y-82522414D01*
X66460947Y-82614490D01*
X66471239Y-82618236D01*
X66681688Y-82674625D01*
X66692481Y-82676528D01*
X66909525Y-82695517D01*
X66920475Y-82695517D01*
X67137519Y-82676528D01*
X67148312Y-82674625D01*
X67358761Y-82618236D01*
X67369053Y-82614490D01*
X67566511Y-82522414D01*
X67576006Y-82516931D01*
X67628048Y-82480491D01*
X67636424Y-82470012D01*
X67635925Y-82469062D01*
X69443493Y-82469062D01*
X69452789Y-82481077D01*
X69503994Y-82516931D01*
X69513489Y-82522414D01*
X69710947Y-82614490D01*
X69721239Y-82618236D01*
X69931688Y-82674625D01*
X69942481Y-82676528D01*
X70159525Y-82695517D01*
X70170475Y-82695517D01*
X70387519Y-82676528D01*
X70398312Y-82674625D01*
X70608761Y-82618236D01*
X70619053Y-82614490D01*
X70816511Y-82522414D01*
X70826006Y-82516931D01*
X70878048Y-82480491D01*
X70886424Y-82470012D01*
X70879356Y-82456566D01*
X70177812Y-81755022D01*
X70163868Y-81747408D01*
X70162035Y-81747539D01*
X70155420Y-81751790D01*
X69449923Y-82457287D01*
X69443493Y-82469062D01*
X67635925Y-82469062D01*
X67629356Y-82456566D01*
X66927812Y-81755022D01*
X66913868Y-81747408D01*
X66912035Y-81747539D01*
X66905420Y-81751790D01*
X66199923Y-82457287D01*
X66193493Y-82469062D01*
X64301527Y-82469062D01*
X64454467Y-82361972D01*
X64462875Y-82354916D01*
X64616916Y-82200875D01*
X64623972Y-82192467D01*
X64748931Y-82014007D01*
X64754414Y-82004511D01*
X64846490Y-81807053D01*
X64850236Y-81796761D01*
X64896394Y-81624497D01*
X64896058Y-81610401D01*
X64888116Y-81607000D01*
X63887115Y-81607000D01*
X63871876Y-81611475D01*
X63870671Y-81612865D01*
X63869000Y-81620548D01*
X63869000Y-82620967D01*
X63361000Y-82620967D01*
X63361000Y-81625115D01*
X63356525Y-81609876D01*
X63355135Y-81608671D01*
X63347452Y-81607000D01*
X62347033Y-81607000D01*
X62333502Y-81610973D01*
X62332273Y-81619522D01*
X60400782Y-81619522D01*
X60631829Y-81388475D01*
X65602483Y-81388475D01*
X65621472Y-81605519D01*
X65623375Y-81616312D01*
X65679764Y-81826761D01*
X65683510Y-81837053D01*
X65775586Y-82034511D01*
X65781069Y-82044006D01*
X65817509Y-82096048D01*
X65827988Y-82104424D01*
X65841434Y-82097356D01*
X66542978Y-81395812D01*
X66549356Y-81384132D01*
X67279408Y-81384132D01*
X67279539Y-81385965D01*
X67283790Y-81392580D01*
X67989287Y-82098077D01*
X68001062Y-82104507D01*
X68013077Y-82095211D01*
X68048931Y-82044006D01*
X68054414Y-82034511D01*
X68146490Y-81837053D01*
X68150236Y-81826761D01*
X68206625Y-81616312D01*
X68208528Y-81605519D01*
X68227517Y-81388475D01*
X68852483Y-81388475D01*
X68871472Y-81605519D01*
X68873375Y-81616312D01*
X68929764Y-81826761D01*
X68933510Y-81837053D01*
X69025586Y-82034511D01*
X69031069Y-82044006D01*
X69067509Y-82096048D01*
X69077988Y-82104424D01*
X69091434Y-82097356D01*
X69792978Y-81395812D01*
X69799356Y-81384132D01*
X70529408Y-81384132D01*
X70529539Y-81385965D01*
X70533790Y-81392580D01*
X71239287Y-82098077D01*
X71251062Y-82104507D01*
X71263077Y-82095211D01*
X71298931Y-82044006D01*
X71304414Y-82034511D01*
X71396490Y-81837053D01*
X71400236Y-81826761D01*
X71456625Y-81616312D01*
X71458528Y-81605519D01*
X71477517Y-81388475D01*
X71477517Y-81377525D01*
X71458528Y-81160481D01*
X71456625Y-81149688D01*
X71400236Y-80939239D01*
X71396490Y-80928947D01*
X71304414Y-80731489D01*
X71298931Y-80721994D01*
X71262491Y-80669952D01*
X71252012Y-80661576D01*
X71238566Y-80668644D01*
X70537022Y-81370188D01*
X70529408Y-81384132D01*
X69799356Y-81384132D01*
X69800592Y-81381868D01*
X69800461Y-81380035D01*
X69796210Y-81373420D01*
X69090713Y-80667923D01*
X69078938Y-80661493D01*
X69066923Y-80670789D01*
X69031069Y-80721994D01*
X69025586Y-80731489D01*
X68933510Y-80928947D01*
X68929764Y-80939239D01*
X68873375Y-81149688D01*
X68871472Y-81160481D01*
X68852483Y-81377525D01*
X68852483Y-81388475D01*
X68227517Y-81388475D01*
X68227517Y-81377525D01*
X68208528Y-81160481D01*
X68206625Y-81149688D01*
X68150236Y-80939239D01*
X68146490Y-80928947D01*
X68054414Y-80731489D01*
X68048931Y-80721994D01*
X68012491Y-80669952D01*
X68002012Y-80661576D01*
X67988566Y-80668644D01*
X67287022Y-81370188D01*
X67279408Y-81384132D01*
X66549356Y-81384132D01*
X66550592Y-81381868D01*
X66550461Y-81380035D01*
X66546210Y-81373420D01*
X65840713Y-80667923D01*
X65828938Y-80661493D01*
X65816923Y-80670789D01*
X65781069Y-80721994D01*
X65775586Y-80731489D01*
X65683510Y-80928947D01*
X65679764Y-80939239D01*
X65623375Y-81149688D01*
X65621472Y-81160481D01*
X65602483Y-81377525D01*
X65602483Y-81388475D01*
X60631829Y-81388475D01*
X60938801Y-81081503D01*
X62333606Y-81081503D01*
X62333942Y-81095599D01*
X62341884Y-81099000D01*
X63342885Y-81099000D01*
X63358124Y-81094525D01*
X63359329Y-81093135D01*
X63361000Y-81085452D01*
X63361000Y-81080885D01*
X63869000Y-81080885D01*
X63873475Y-81096124D01*
X63874865Y-81097329D01*
X63882548Y-81099000D01*
X64882967Y-81099000D01*
X64896498Y-81095027D01*
X64897727Y-81086478D01*
X64850236Y-80909239D01*
X64846490Y-80898947D01*
X64754414Y-80701489D01*
X64748931Y-80691993D01*
X64623972Y-80513533D01*
X64616916Y-80505125D01*
X64462875Y-80351084D01*
X64454467Y-80344028D01*
X64385859Y-80295988D01*
X66193576Y-80295988D01*
X66200644Y-80309434D01*
X66902188Y-81010978D01*
X66916132Y-81018592D01*
X66917965Y-81018461D01*
X66924580Y-81014210D01*
X67630077Y-80308713D01*
X67636507Y-80296938D01*
X67635772Y-80295988D01*
X69443576Y-80295988D01*
X69450644Y-80309434D01*
X70152188Y-81010978D01*
X70166132Y-81018592D01*
X70167965Y-81018461D01*
X70174580Y-81014210D01*
X70880077Y-80308713D01*
X70886507Y-80296938D01*
X70877211Y-80284923D01*
X70826006Y-80249069D01*
X70816511Y-80243586D01*
X70619053Y-80151510D01*
X70608761Y-80147764D01*
X70398312Y-80091375D01*
X70387519Y-80089472D01*
X70170475Y-80070483D01*
X70159525Y-80070483D01*
X69942481Y-80089472D01*
X69931688Y-80091375D01*
X69721239Y-80147764D01*
X69710947Y-80151510D01*
X69513489Y-80243586D01*
X69503994Y-80249069D01*
X69451952Y-80285509D01*
X69443576Y-80295988D01*
X67635772Y-80295988D01*
X67627211Y-80284923D01*
X67576006Y-80249069D01*
X67566511Y-80243586D01*
X67369053Y-80151510D01*
X67358761Y-80147764D01*
X67148312Y-80091375D01*
X67137519Y-80089472D01*
X66920475Y-80070483D01*
X66909525Y-80070483D01*
X66692481Y-80089472D01*
X66681688Y-80091375D01*
X66471239Y-80147764D01*
X66460947Y-80151510D01*
X66263489Y-80243586D01*
X66253994Y-80249069D01*
X66201952Y-80285509D01*
X66193576Y-80295988D01*
X64385859Y-80295988D01*
X64276007Y-80219069D01*
X64266511Y-80213586D01*
X64069053Y-80121510D01*
X64058761Y-80117764D01*
X63886497Y-80071606D01*
X63872401Y-80071942D01*
X63869000Y-80079884D01*
X63869000Y-81080885D01*
X63361000Y-81080885D01*
X63361000Y-80085033D01*
X63357027Y-80071502D01*
X63348478Y-80070273D01*
X63171239Y-80117764D01*
X63160947Y-80121510D01*
X62963489Y-80213586D01*
X62953993Y-80219069D01*
X62775533Y-80344028D01*
X62767125Y-80351084D01*
X62613084Y-80505125D01*
X62606028Y-80513533D01*
X62481069Y-80691993D01*
X62475586Y-80701489D01*
X62383510Y-80898947D01*
X62379764Y-80909239D01*
X62333606Y-81081503D01*
X60938801Y-81081503D01*
X62304399Y-79715905D01*
X62366711Y-79681879D01*
X62393494Y-79679000D01*
X80483973Y-79679000D01*
X80552094Y-79699002D01*
G37*
G04 #@! TD.AperFunction*
G04 #@! TA.AperFunction,Conductor*
G36*
X99884395Y-62502502D02*
G01*
X99923707Y-62542665D01*
X99991987Y-62654088D01*
X100138250Y-62822938D01*
X100310126Y-62965632D01*
X100503000Y-63078338D01*
X100711692Y-63158030D01*
X100716760Y-63159061D01*
X100716763Y-63159062D01*
X100796232Y-63175230D01*
X100930597Y-63202567D01*
X100935772Y-63202757D01*
X100935774Y-63202757D01*
X101148673Y-63210564D01*
X101148677Y-63210564D01*
X101153837Y-63210753D01*
X101158957Y-63210097D01*
X101158959Y-63210097D01*
X101370288Y-63183025D01*
X101370289Y-63183025D01*
X101375416Y-63182368D01*
X101399208Y-63175230D01*
X101584429Y-63119661D01*
X101584434Y-63119659D01*
X101589384Y-63118174D01*
X101789994Y-63019896D01*
X101971860Y-62890173D01*
X102130096Y-62732489D01*
X102260453Y-62551077D01*
X102261776Y-62552028D01*
X102308645Y-62508857D01*
X102378580Y-62496625D01*
X102444026Y-62524144D01*
X102471875Y-62555994D01*
X102531987Y-62654088D01*
X102678250Y-62822938D01*
X102850126Y-62965632D01*
X103043000Y-63078338D01*
X103251692Y-63158030D01*
X103256760Y-63159061D01*
X103256763Y-63159062D01*
X103336232Y-63175230D01*
X103470597Y-63202567D01*
X103475772Y-63202757D01*
X103475774Y-63202757D01*
X103688673Y-63210564D01*
X103688677Y-63210564D01*
X103693837Y-63210753D01*
X103698957Y-63210097D01*
X103698959Y-63210097D01*
X103910288Y-63183025D01*
X103910289Y-63183025D01*
X103915416Y-63182368D01*
X103939208Y-63175230D01*
X104124429Y-63119661D01*
X104124434Y-63119659D01*
X104129384Y-63118174D01*
X104329994Y-63019896D01*
X104511860Y-62890173D01*
X104670096Y-62732489D01*
X104800453Y-62551077D01*
X104801776Y-62552028D01*
X104848645Y-62508857D01*
X104918580Y-62496625D01*
X104984026Y-62524144D01*
X105011875Y-62555994D01*
X105071987Y-62654088D01*
X105218250Y-62822938D01*
X105390126Y-62965632D01*
X105583000Y-63078338D01*
X105791692Y-63158030D01*
X105796760Y-63159061D01*
X105796763Y-63159062D01*
X105876232Y-63175230D01*
X106010597Y-63202567D01*
X106015772Y-63202757D01*
X106015774Y-63202757D01*
X106228673Y-63210564D01*
X106228677Y-63210564D01*
X106233837Y-63210753D01*
X106238957Y-63210097D01*
X106238959Y-63210097D01*
X106450288Y-63183025D01*
X106450289Y-63183025D01*
X106455416Y-63182368D01*
X106479208Y-63175230D01*
X106664429Y-63119661D01*
X106664434Y-63119659D01*
X106669384Y-63118174D01*
X106869994Y-63019896D01*
X107051860Y-62890173D01*
X107210096Y-62732489D01*
X107340453Y-62551077D01*
X107341776Y-62552028D01*
X107388645Y-62508857D01*
X107458580Y-62496625D01*
X107524026Y-62524144D01*
X107551875Y-62555994D01*
X107611987Y-62654088D01*
X107758250Y-62822938D01*
X107930126Y-62965632D01*
X107934589Y-62968240D01*
X107934592Y-62968242D01*
X107947954Y-62976050D01*
X108018902Y-63017508D01*
X108067625Y-63069145D01*
X108077783Y-63108760D01*
X108079837Y-63108435D01*
X108081078Y-63116269D01*
X108081327Y-63124189D01*
X108086978Y-63143639D01*
X108090987Y-63163000D01*
X108093526Y-63183097D01*
X108096445Y-63190468D01*
X108096445Y-63190470D01*
X108109804Y-63224212D01*
X108113649Y-63235442D01*
X108125982Y-63277893D01*
X108130015Y-63284712D01*
X108130017Y-63284717D01*
X108136293Y-63295328D01*
X108144988Y-63313076D01*
X108152448Y-63331917D01*
X108157110Y-63338333D01*
X108157110Y-63338334D01*
X108178436Y-63367687D01*
X108184952Y-63377607D01*
X108207458Y-63415662D01*
X108221779Y-63429983D01*
X108234619Y-63445016D01*
X108246528Y-63461407D01*
X108252634Y-63466458D01*
X108280605Y-63489598D01*
X108289384Y-63497588D01*
X113647295Y-68855500D01*
X113681321Y-68917812D01*
X113684200Y-68944595D01*
X113684200Y-75303729D01*
X113664198Y-75371850D01*
X113610542Y-75418343D01*
X113540268Y-75428447D01*
X113504950Y-75417924D01*
X113357225Y-75349039D01*
X113357224Y-75349039D01*
X113352243Y-75346716D01*
X113346935Y-75345294D01*
X113346933Y-75345293D01*
X113136402Y-75288881D01*
X113136400Y-75288881D01*
X113131087Y-75287457D01*
X112903000Y-75267502D01*
X112674913Y-75287457D01*
X112669600Y-75288881D01*
X112669598Y-75288881D01*
X112459067Y-75345293D01*
X112459065Y-75345294D01*
X112453757Y-75346716D01*
X112448776Y-75349039D01*
X112448775Y-75349039D01*
X112251238Y-75441151D01*
X112251233Y-75441154D01*
X112246251Y-75443477D01*
X112141389Y-75516902D01*
X112063211Y-75571643D01*
X112063208Y-75571645D01*
X112058700Y-75574802D01*
X111896802Y-75736700D01*
X111893645Y-75741208D01*
X111893643Y-75741211D01*
X111783583Y-75898393D01*
X111728126Y-75942721D01*
X111688282Y-75951873D01*
X111665963Y-75953277D01*
X111665962Y-75953277D01*
X111658050Y-75953775D01*
X111650509Y-75956225D01*
X111650213Y-75956321D01*
X111627069Y-75961494D01*
X111626775Y-75961531D01*
X111623515Y-75961943D01*
X111618900Y-75962526D01*
X111618753Y-75961366D01*
X111555440Y-75959196D01*
X111497063Y-75918789D01*
X111491845Y-75911858D01*
X111372357Y-75741211D01*
X111372355Y-75741208D01*
X111369198Y-75736700D01*
X111207300Y-75574802D01*
X111202792Y-75571645D01*
X111202789Y-75571643D01*
X111124611Y-75516902D01*
X111019749Y-75443477D01*
X111014767Y-75441154D01*
X111014762Y-75441151D01*
X110817225Y-75349039D01*
X110817224Y-75349039D01*
X110812243Y-75346716D01*
X110806935Y-75345294D01*
X110806933Y-75345293D01*
X110596402Y-75288881D01*
X110596400Y-75288881D01*
X110591087Y-75287457D01*
X110363000Y-75267502D01*
X110134913Y-75287457D01*
X110129600Y-75288881D01*
X110129598Y-75288881D01*
X109919067Y-75345293D01*
X109919065Y-75345294D01*
X109913757Y-75346716D01*
X109908776Y-75349039D01*
X109908775Y-75349039D01*
X109711238Y-75441151D01*
X109711233Y-75441154D01*
X109706251Y-75443477D01*
X109601389Y-75516902D01*
X109523211Y-75571643D01*
X109523208Y-75571645D01*
X109518700Y-75574802D01*
X109356802Y-75736700D01*
X109225477Y-75924251D01*
X109223154Y-75929233D01*
X109223151Y-75929238D01*
X109207195Y-75963457D01*
X109160278Y-76016742D01*
X109092001Y-76036203D01*
X109024041Y-76015661D01*
X108978805Y-75963457D01*
X108962849Y-75929238D01*
X108962846Y-75929233D01*
X108960523Y-75924251D01*
X108829198Y-75736700D01*
X108667300Y-75574802D01*
X108662792Y-75571645D01*
X108662789Y-75571643D01*
X108584611Y-75516902D01*
X108479749Y-75443477D01*
X108474767Y-75441154D01*
X108474762Y-75441151D01*
X108277225Y-75349039D01*
X108277224Y-75349039D01*
X108272243Y-75346716D01*
X108266935Y-75345294D01*
X108266933Y-75345293D01*
X108056402Y-75288881D01*
X108056400Y-75288881D01*
X108051087Y-75287457D01*
X107823000Y-75267502D01*
X107594913Y-75287457D01*
X107589600Y-75288881D01*
X107589598Y-75288881D01*
X107379067Y-75345293D01*
X107379065Y-75345294D01*
X107373757Y-75346716D01*
X107368776Y-75349039D01*
X107368775Y-75349039D01*
X107171238Y-75441151D01*
X107171233Y-75441154D01*
X107166251Y-75443477D01*
X107061389Y-75516902D01*
X106983211Y-75571643D01*
X106983208Y-75571645D01*
X106978700Y-75574802D01*
X106816802Y-75736700D01*
X106685477Y-75924251D01*
X106683154Y-75929233D01*
X106683151Y-75929238D01*
X106667195Y-75963457D01*
X106620278Y-76016742D01*
X106552001Y-76036203D01*
X106484041Y-76015661D01*
X106438805Y-75963457D01*
X106422849Y-75929238D01*
X106422846Y-75929233D01*
X106420523Y-75924251D01*
X106289198Y-75736700D01*
X106127300Y-75574802D01*
X106122792Y-75571645D01*
X106122789Y-75571643D01*
X106044611Y-75516902D01*
X105939749Y-75443477D01*
X105934767Y-75441154D01*
X105934762Y-75441151D01*
X105737225Y-75349039D01*
X105737224Y-75349039D01*
X105732243Y-75346716D01*
X105726935Y-75345294D01*
X105726933Y-75345293D01*
X105516402Y-75288881D01*
X105516400Y-75288881D01*
X105511087Y-75287457D01*
X105283000Y-75267502D01*
X105054913Y-75287457D01*
X105049600Y-75288881D01*
X105049598Y-75288881D01*
X104839067Y-75345293D01*
X104839065Y-75345294D01*
X104833757Y-75346716D01*
X104828776Y-75349039D01*
X104828775Y-75349039D01*
X104631238Y-75441151D01*
X104631233Y-75441154D01*
X104626251Y-75443477D01*
X104521389Y-75516902D01*
X104443211Y-75571643D01*
X104443208Y-75571645D01*
X104438700Y-75574802D01*
X104276802Y-75736700D01*
X104145477Y-75924251D01*
X104143154Y-75929233D01*
X104143151Y-75929238D01*
X104127195Y-75963457D01*
X104080278Y-76016742D01*
X104012001Y-76036203D01*
X103944041Y-76015661D01*
X103898805Y-75963457D01*
X103882849Y-75929238D01*
X103882846Y-75929233D01*
X103880523Y-75924251D01*
X103749198Y-75736700D01*
X103587300Y-75574802D01*
X103582792Y-75571645D01*
X103582789Y-75571643D01*
X103504611Y-75516902D01*
X103399749Y-75443477D01*
X103394767Y-75441154D01*
X103394762Y-75441151D01*
X103197225Y-75349039D01*
X103197224Y-75349039D01*
X103192243Y-75346716D01*
X103186935Y-75345294D01*
X103186933Y-75345293D01*
X102976402Y-75288881D01*
X102976400Y-75288881D01*
X102971087Y-75287457D01*
X102743000Y-75267502D01*
X102514913Y-75287457D01*
X102509600Y-75288881D01*
X102509598Y-75288881D01*
X102299067Y-75345293D01*
X102299065Y-75345294D01*
X102293757Y-75346716D01*
X102288776Y-75349039D01*
X102288775Y-75349039D01*
X102091238Y-75441151D01*
X102091233Y-75441154D01*
X102086251Y-75443477D01*
X101981389Y-75516902D01*
X101903211Y-75571643D01*
X101903208Y-75571645D01*
X101898700Y-75574802D01*
X101736802Y-75736700D01*
X101605477Y-75924251D01*
X101603154Y-75929233D01*
X101603151Y-75929238D01*
X101587195Y-75963457D01*
X101540278Y-76016742D01*
X101472001Y-76036203D01*
X101404041Y-76015661D01*
X101358805Y-75963457D01*
X101342849Y-75929238D01*
X101342846Y-75929233D01*
X101340523Y-75924251D01*
X101209198Y-75736700D01*
X101047300Y-75574802D01*
X101042792Y-75571645D01*
X101042789Y-75571643D01*
X100964611Y-75516902D01*
X100859749Y-75443477D01*
X100854767Y-75441154D01*
X100854762Y-75441151D01*
X100657225Y-75349039D01*
X100657224Y-75349039D01*
X100652243Y-75346716D01*
X100646935Y-75345294D01*
X100646933Y-75345293D01*
X100436402Y-75288881D01*
X100436400Y-75288881D01*
X100431087Y-75287457D01*
X100203000Y-75267502D01*
X99974913Y-75287457D01*
X99969600Y-75288881D01*
X99969598Y-75288881D01*
X99759067Y-75345293D01*
X99759065Y-75345294D01*
X99753757Y-75346716D01*
X99748776Y-75349039D01*
X99748775Y-75349039D01*
X99551238Y-75441151D01*
X99551233Y-75441154D01*
X99546251Y-75443477D01*
X99441389Y-75516902D01*
X99363211Y-75571643D01*
X99363208Y-75571645D01*
X99358700Y-75574802D01*
X99196802Y-75736700D01*
X99193643Y-75741211D01*
X99190108Y-75745424D01*
X99188974Y-75744473D01*
X99138929Y-75784471D01*
X99068310Y-75791776D01*
X99004951Y-75759742D01*
X98968970Y-75698538D01*
X98965918Y-75681483D01*
X98964745Y-75670684D01*
X98913615Y-75534295D01*
X98826261Y-75417739D01*
X98709705Y-75330385D01*
X98573316Y-75279255D01*
X98511134Y-75272500D01*
X96814866Y-75272500D01*
X96752684Y-75279255D01*
X96616295Y-75330385D01*
X96499739Y-75417739D01*
X96412385Y-75534295D01*
X96361255Y-75670684D01*
X96354500Y-75732866D01*
X96354500Y-77429134D01*
X96356701Y-77449392D01*
X96344174Y-77519273D01*
X96295854Y-77571289D01*
X96231438Y-77589000D01*
X95673867Y-77589000D01*
X95662684Y-77588473D01*
X95655191Y-77586798D01*
X95647265Y-77587047D01*
X95647264Y-77587047D01*
X95587101Y-77588938D01*
X95583143Y-77589000D01*
X95555244Y-77589000D01*
X95551254Y-77589504D01*
X95539420Y-77590436D01*
X95495211Y-77591826D01*
X95487597Y-77594038D01*
X95487592Y-77594039D01*
X95475759Y-77597477D01*
X95456396Y-77601488D01*
X95453671Y-77601832D01*
X95444161Y-77603033D01*
X95444158Y-77603034D01*
X95436303Y-77604026D01*
X95428939Y-77606942D01*
X95421254Y-77608915D01*
X95421017Y-77607992D01*
X95384802Y-77614900D01*
X95198713Y-77614900D01*
X95192261Y-77616272D01*
X95192256Y-77616272D01*
X95105313Y-77634753D01*
X95011912Y-77654606D01*
X95005882Y-77657291D01*
X95005881Y-77657291D01*
X94843478Y-77729597D01*
X94843476Y-77729598D01*
X94837448Y-77732282D01*
X94682947Y-77844534D01*
X94678526Y-77849444D01*
X94678067Y-77849954D01*
X94677728Y-77850163D01*
X94673623Y-77853859D01*
X94672947Y-77853108D01*
X94617619Y-77887191D01*
X94546635Y-77885837D01*
X94495339Y-77854735D01*
X92930852Y-76290247D01*
X92923312Y-76281961D01*
X92919200Y-76275482D01*
X92869548Y-76228856D01*
X92866707Y-76226102D01*
X92846970Y-76206365D01*
X92843773Y-76203885D01*
X92834751Y-76196180D01*
X92808300Y-76171341D01*
X92802521Y-76165914D01*
X92795575Y-76162095D01*
X92795572Y-76162093D01*
X92784766Y-76156152D01*
X92768247Y-76145301D01*
X92762248Y-76140648D01*
X92752241Y-76132886D01*
X92744972Y-76129741D01*
X92744968Y-76129738D01*
X92711663Y-76115326D01*
X92701013Y-76110109D01*
X92662260Y-76088805D01*
X92642637Y-76083767D01*
X92623934Y-76077363D01*
X92612620Y-76072467D01*
X92612619Y-76072467D01*
X92605345Y-76069319D01*
X92597522Y-76068080D01*
X92597512Y-76068077D01*
X92561676Y-76062401D01*
X92550056Y-76059995D01*
X92514911Y-76050972D01*
X92514910Y-76050972D01*
X92507230Y-76049000D01*
X92486976Y-76049000D01*
X92467265Y-76047449D01*
X92455086Y-76045520D01*
X92447257Y-76044280D01*
X92439365Y-76045026D01*
X92403239Y-76048441D01*
X92391381Y-76049000D01*
X79410500Y-76049000D01*
X79342379Y-76028998D01*
X79323153Y-76012657D01*
X79322880Y-76012960D01*
X79317968Y-76008537D01*
X79313553Y-76003634D01*
X79255605Y-75961532D01*
X79164394Y-75895263D01*
X79164393Y-75895262D01*
X79159052Y-75891382D01*
X79153024Y-75888698D01*
X79153022Y-75888697D01*
X78990619Y-75816391D01*
X78990618Y-75816391D01*
X78984588Y-75813706D01*
X78881416Y-75791776D01*
X78804244Y-75775372D01*
X78804239Y-75775372D01*
X78797787Y-75774000D01*
X78606813Y-75774000D01*
X78600361Y-75775372D01*
X78600356Y-75775372D01*
X78523184Y-75791776D01*
X78420012Y-75813706D01*
X78413982Y-75816391D01*
X78413981Y-75816391D01*
X78251578Y-75888697D01*
X78251576Y-75888698D01*
X78245548Y-75891382D01*
X78240207Y-75895262D01*
X78240206Y-75895263D01*
X78200308Y-75924251D01*
X78091047Y-76003634D01*
X78086626Y-76008544D01*
X78086625Y-76008545D01*
X77970904Y-76137067D01*
X77963260Y-76145556D01*
X77867773Y-76310944D01*
X77808758Y-76492572D01*
X77808068Y-76499133D01*
X77808068Y-76499135D01*
X77790565Y-76665670D01*
X77763552Y-76731327D01*
X77705330Y-76771957D01*
X77665255Y-76778500D01*
X74398894Y-76778500D01*
X74330773Y-76758498D01*
X74309799Y-76741595D01*
X65732952Y-68164747D01*
X65725412Y-68156461D01*
X65721300Y-68149982D01*
X65671648Y-68103356D01*
X65668807Y-68100602D01*
X65649070Y-68080865D01*
X65645873Y-68078385D01*
X65636851Y-68070680D01*
X65610400Y-68045841D01*
X65604621Y-68040414D01*
X65597675Y-68036595D01*
X65597672Y-68036593D01*
X65586866Y-68030652D01*
X65570347Y-68019801D01*
X65569883Y-68019441D01*
X65554341Y-68007386D01*
X65547072Y-68004241D01*
X65547068Y-68004238D01*
X65513763Y-67989826D01*
X65503101Y-67984603D01*
X65483027Y-67973567D01*
X65432969Y-67923221D01*
X65417729Y-67863153D01*
X65417729Y-67807000D01*
X65412500Y-67733889D01*
X65383769Y-67636040D01*
X65373843Y-67602235D01*
X65373842Y-67602233D01*
X65371304Y-67593589D01*
X65329960Y-67529257D01*
X65297122Y-67478159D01*
X65297120Y-67478156D01*
X65292250Y-67470579D01*
X65285440Y-67464678D01*
X65188555Y-67380726D01*
X65188552Y-67380724D01*
X65181743Y-67374824D01*
X65048734Y-67314081D01*
X65039811Y-67312798D01*
X64910652Y-67294227D01*
X64846071Y-67264734D01*
X64807688Y-67205008D01*
X64807688Y-67134011D01*
X64839489Y-67080415D01*
X69400499Y-62519405D01*
X69462811Y-62485379D01*
X69489594Y-62482500D01*
X99816274Y-62482500D01*
X99884395Y-62502502D01*
G37*
G04 #@! TD.AperFunction*
M02*
