G04 #@! TF.GenerationSoftware,KiCad,Pcbnew,8.0.2*
G04 #@! TF.CreationDate,2025-01-27T22:20:44+01:00*
G04 #@! TF.ProjectId,multicartridge-sst39sf010-topbutton,6d756c74-6963-4617-9274-72696467652d,rev?*
G04 #@! TF.SameCoordinates,Original*
G04 #@! TF.FileFunction,Profile,NP*
%FSLAX46Y46*%
G04 Gerber Fmt 4.6, Leading zero omitted, Abs format (unit mm)*
G04 Created by KiCad (PCBNEW 8.0.2) date 2025-01-27 22:20:44*
%MOMM*%
%LPD*%
G01*
G04 APERTURE LIST*
G04 #@! TA.AperFunction,Profile*
%ADD10C,0.050000*%
G04 #@! TD*
G04 APERTURE END LIST*
D10*
X43147000Y-44145000D02*
X43147000Y-38735000D01*
X123147000Y-44145000D02*
X123147000Y-38735000D01*
X123147000Y-38735000D02*
X43147000Y-38735000D01*
X43147000Y-63645000D02*
X43147000Y-59145000D01*
X43147000Y-109145000D02*
X43147000Y-113645000D01*
X43147000Y-115645000D02*
G75*
G02*
X43147000Y-124645000I0J-4500000D01*
G01*
X43147000Y-114145000D02*
X43147000Y-113645000D01*
X43147000Y-127145000D02*
X43147000Y-124645000D01*
X43147000Y-115645000D02*
X43147000Y-114145000D01*
X43147000Y-65645000D02*
G75*
G02*
X43147000Y-74645000I0J-4500000D01*
G01*
X123147000Y-127145000D02*
X123147000Y-124645000D01*
X43147000Y-109145000D02*
X43147000Y-74645000D01*
X43147000Y-65645000D02*
X43147000Y-63645000D01*
X123147000Y-134145000D02*
X123147000Y-127145000D01*
X43147000Y-44145000D02*
X43147000Y-59145000D01*
X43147000Y-134145000D02*
X43147000Y-127145000D01*
X123147000Y-74745000D02*
X123147000Y-74645000D01*
X123147000Y-115645000D02*
X123147000Y-110045000D01*
X123147000Y-100457000D02*
X123147001Y-94845000D01*
X123147001Y-83445001D02*
X123147000Y-77845000D01*
X123147000Y-63445000D02*
X123147000Y-57845000D01*
X114808000Y-134145000D02*
X115147000Y-134145000D01*
X114808000Y-144145000D02*
X51435000Y-144145000D01*
X51147000Y-134145000D02*
X51435000Y-134145000D01*
X123147000Y-74645000D02*
G75*
G02*
X123147000Y-65645000I0J4500000D01*
G01*
X51435000Y-144145000D02*
X51435000Y-134145000D01*
X123147000Y-65645000D02*
X123147000Y-63445000D01*
X123147000Y-74745000D02*
X123147000Y-77845000D01*
X51147000Y-134145000D02*
X43147000Y-134145000D01*
X123147000Y-110045000D02*
X123147000Y-100457000D01*
X114808000Y-144145000D02*
X114808000Y-134145000D01*
X123147001Y-83445001D02*
X123147001Y-94845000D01*
X123147000Y-124645000D02*
G75*
G02*
X123147000Y-115645000I0J4500000D01*
G01*
X123147000Y-56145000D02*
X123147000Y-57845000D01*
X115147000Y-134145000D02*
X123147000Y-134145000D01*
X123147000Y-44145000D02*
X123147000Y-56145000D01*
M02*
