M48
; DRILL file {KiCad 8.0.2} date 2025-01-27T22:20:45+0100
; FORMAT={-:-/ absolute / inch / decimal}
; #@! TF.CreationDate,2025-01-27T22:20:45+01:00
; #@! TF.GenerationSoftware,Kicad,Pcbnew,8.0.2
; #@! TF.FileFunction,Plated,1,2,PTH
FMAT,2
INCH
; #@! TA.AperFunction,Plated,PTH,ViaDrill
T1C0.0157
; #@! TA.AperFunction,Plated,PTH,ComponentDrill
T2C0.0276
; #@! TA.AperFunction,Plated,PTH,ComponentDrill
T3C0.0315
; #@! TA.AperFunction,Plated,PTH,ComponentDrill
T4C0.0394
; #@! TA.AperFunction,Plated,PTH,ComponentDrill
T5C0.0512
%
G90
G05
T1
X2.6805Y-4.8599
X2.7781Y-4.6314
X3.1153Y-4.9641
X3.3675Y-4.2346
X3.3836Y-4.7662
X3.5734Y-4.8759
X3.5856Y-4.9841
X3.6289Y-3.3927
X3.7061Y-3.7327
X4.0238Y-4.9987
X4.3663Y-4.875
T2
X3.105Y-1.675
X3.505Y-1.675
T3
X2.005Y-3.175
X2.005Y-3.475
X2.2166Y-3.175
X2.2166Y-3.275
X2.2166Y-3.375
X2.2166Y-3.475
X2.2166Y-3.575
X2.2166Y-3.675
X2.2166Y-3.775
X2.2166Y-3.875
X2.2681Y-2.975
X2.3984Y-4.225
X2.465Y-2.975
X2.4969Y-4.225
X2.5166Y-3.175
X2.5166Y-3.275
X2.5166Y-3.375
X2.5166Y-3.475
X2.5166Y-3.575
X2.5166Y-3.675
X2.5166Y-3.775
X2.5166Y-3.875
X2.6984Y-4.225
X2.735Y-3.175
X2.735Y-3.475
X2.735Y-3.575
X2.735Y-3.875
X2.7969Y-4.225
X3.025Y-3.31
X3.025Y-3.41
X3.025Y-3.51
X3.025Y-3.61
X3.025Y-3.71
X3.125Y-3.21
X3.125Y-3.31
X3.125Y-3.41
X3.125Y-3.51
X3.125Y-3.61
X3.125Y-3.71
X3.125Y-3.81
X3.1766Y-2.9443
X3.225Y-3.21
X3.225Y-3.31
X3.225Y-3.71
X3.225Y-3.81
X3.325Y-3.21
X3.325Y-3.31
X3.325Y-3.71
X3.325Y-3.81
X3.3734Y-2.9443
X3.425Y-3.21
X3.425Y-3.31
X3.425Y-3.41
X3.425Y-3.51
X3.425Y-3.61
X3.425Y-3.71
X3.425Y-3.81
X3.525Y-3.31
X3.525Y-3.41
X3.525Y-3.51
X3.525Y-3.61
X3.525Y-3.71
X3.79Y-2.295
X3.79Y-2.595
X3.875Y-3.27
X3.875Y-3.37
X3.875Y-3.47
X3.875Y-3.57
X3.875Y-3.67
X3.875Y-3.77
X3.875Y-3.87
X3.9231Y-3.0371
X3.955Y-2.295
X3.955Y-2.595
X4.12Y-3.0371
X4.12Y-2.295
X4.12Y-2.595
X4.175Y-3.27
X4.175Y-3.37
X4.175Y-3.47
X4.175Y-3.57
X4.175Y-3.67
X4.175Y-3.77
X4.175Y-3.87
X4.41Y-1.91
X4.41Y-2.21
X4.51Y-1.91
X4.51Y-2.21
X4.61Y-1.91
X4.61Y-2.21
T4
X1.8264Y-1.6414
X2.0036Y-1.6414
T5
X1.7772Y-1.7398
X2.0528Y-1.7398
M30
