G04 #@! TF.GenerationSoftware,KiCad,Pcbnew,8.0.2*
G04 #@! TF.CreationDate,2025-01-27T22:20:44+01:00*
G04 #@! TF.ProjectId,multicartridge-sst39sf010-topbutton,6d756c74-6963-4617-9274-72696467652d,rev?*
G04 #@! TF.SameCoordinates,Original*
G04 #@! TF.FileFunction,Copper,L2,Bot*
G04 #@! TF.FilePolarity,Positive*
%FSLAX46Y46*%
G04 Gerber Fmt 4.6, Leading zero omitted, Abs format (unit mm)*
G04 Created by KiCad (PCBNEW 8.0.2) date 2025-01-27 22:20:44*
%MOMM*%
%LPD*%
G01*
G04 APERTURE LIST*
G04 #@! TA.AperFunction,ComponentPad*
%ADD10O,1.600000X1.600000*%
G04 #@! TD*
G04 #@! TA.AperFunction,ComponentPad*
%ADD11R,1.600000X1.600000*%
G04 #@! TD*
G04 #@! TA.AperFunction,ComponentPad*
%ADD12C,1.500000*%
G04 #@! TD*
G04 #@! TA.AperFunction,ComponentPad*
%ADD13C,2.200000*%
G04 #@! TD*
G04 #@! TA.AperFunction,ComponentPad*
%ADD14C,1.700000*%
G04 #@! TD*
G04 #@! TA.AperFunction,ComponentPad*
%ADD15C,1.600000*%
G04 #@! TD*
G04 #@! TA.AperFunction,SMDPad,CuDef*
%ADD16R,2.000000X10.000000*%
G04 #@! TD*
G04 #@! TA.AperFunction,ComponentPad*
%ADD17R,1.422400X1.422400*%
G04 #@! TD*
G04 #@! TA.AperFunction,ComponentPad*
%ADD18C,1.422400*%
G04 #@! TD*
G04 #@! TA.AperFunction,ViaPad*
%ADD19C,0.800000*%
G04 #@! TD*
G04 #@! TA.AperFunction,Conductor*
%ADD20C,0.250000*%
G04 #@! TD*
G04 #@! TA.AperFunction,Conductor*
%ADD21C,1.000000*%
G04 #@! TD*
G04 APERTURE END LIST*
D10*
X56301000Y-80645000D03*
X56301000Y-83185000D03*
X56301000Y-85725000D03*
X56301000Y-88265000D03*
X56301000Y-90805000D03*
X56301000Y-93345000D03*
X56301000Y-95885000D03*
X56301000Y-98425000D03*
X63921000Y-98425000D03*
X63921000Y-95885000D03*
X63921000Y-93345000D03*
X63921000Y-90805000D03*
X63921000Y-88265000D03*
X63921000Y-85725000D03*
X63921000Y-83185000D03*
D11*
X63921000Y-80645000D03*
D12*
X89027000Y-42545000D03*
X78867000Y-42545000D03*
D13*
X52141000Y-44192000D03*
X45141000Y-44192000D03*
D14*
X50891000Y-41692000D03*
X46391000Y-41692000D03*
D10*
X69469000Y-90805000D03*
D15*
X69469000Y-98425000D03*
D10*
X50927000Y-88265000D03*
D15*
X50927000Y-80645000D03*
D10*
X69469000Y-80645000D03*
D15*
X69469000Y-88265000D03*
D11*
X68540600Y-107315000D03*
D15*
X71040600Y-107315000D03*
X62611000Y-75565000D03*
X57611000Y-75565000D03*
D11*
X60920600Y-107315000D03*
D15*
X63420600Y-107315000D03*
D11*
X112014000Y-56134000D03*
D10*
X114554000Y-56134000D03*
X117094000Y-56134000D03*
X117094000Y-48514000D03*
X114554000Y-48514000D03*
X112014000Y-48514000D03*
D11*
X106045000Y-83058000D03*
D10*
X106045000Y-85598000D03*
X106045000Y-88138000D03*
X106045000Y-90678000D03*
X106045000Y-93218000D03*
X106045000Y-95758000D03*
X106045000Y-98298000D03*
X98425000Y-98298000D03*
X98425000Y-95758000D03*
X98425000Y-93218000D03*
X98425000Y-90678000D03*
X98425000Y-88138000D03*
X98425000Y-85598000D03*
X98425000Y-83058000D03*
D15*
X99647000Y-77143000D03*
X104647000Y-77143000D03*
X85685000Y-74785000D03*
X80685000Y-74785000D03*
D16*
X55465000Y-139192000D03*
X59425000Y-139192000D03*
X63385000Y-139192000D03*
X67345000Y-139192000D03*
X71305000Y-139192000D03*
X75265000Y-139192000D03*
X79225000Y-139192000D03*
X83185000Y-139192000D03*
X87145000Y-139192000D03*
X91105000Y-139192000D03*
X95065000Y-139192000D03*
X99025000Y-139192000D03*
X102985000Y-139192000D03*
X110905000Y-139192000D03*
D15*
X100457000Y-65913000D03*
D10*
X100457000Y-58293000D03*
D15*
X96266000Y-65913000D03*
D10*
X96266000Y-58293000D03*
D15*
X104648000Y-65913000D03*
D10*
X104648000Y-58293000D03*
D17*
X81915000Y-84074000D03*
D18*
X84455000Y-81534000D03*
X84455000Y-84074000D03*
X86995000Y-81534000D03*
X89535000Y-84074000D03*
X86995000Y-84074000D03*
X89535000Y-86614000D03*
X86995000Y-86614000D03*
X89535000Y-89154000D03*
X86995000Y-89154000D03*
X89535000Y-91694000D03*
X86995000Y-91694000D03*
X89535000Y-94234000D03*
X86995000Y-96774000D03*
X86995000Y-94234000D03*
X84455000Y-96774000D03*
X84455000Y-94234000D03*
X81915000Y-96774000D03*
X81915000Y-94234000D03*
X79375000Y-96774000D03*
X76835000Y-94234000D03*
X79375000Y-94234000D03*
X76835000Y-91694000D03*
X79375000Y-91694000D03*
X76835000Y-89154000D03*
X79375000Y-89154000D03*
X76835000Y-86614000D03*
X79375000Y-86614000D03*
X76835000Y-84074000D03*
X79375000Y-81534000D03*
X79375000Y-84074000D03*
X81915000Y-81534000D03*
D19*
X102204100Y-126966500D03*
X79127600Y-126087400D03*
X85944200Y-121060500D03*
X85533400Y-107557800D03*
X90764400Y-123848900D03*
X91073300Y-126596500D03*
X92175200Y-86174500D03*
X94135900Y-94810900D03*
X70564000Y-117637700D03*
X68085700Y-123440200D03*
X110905000Y-123825000D03*
D20*
X56534100Y-87139900D02*
X56301000Y-87139900D01*
X57456500Y-86217500D02*
X56534100Y-87139900D01*
X57456500Y-82692700D02*
X57456500Y-86217500D01*
X56678800Y-81915000D02*
X57456500Y-82692700D01*
X55916800Y-81915000D02*
X56678800Y-81915000D01*
X55146000Y-81144200D02*
X55916800Y-81915000D01*
X55146000Y-76426000D02*
X55146000Y-81144200D01*
X89027000Y-42545000D02*
X55146000Y-76426000D01*
X56301000Y-88265000D02*
X56301000Y-87139900D01*
X47567900Y-42868900D02*
X46391000Y-41692000D01*
X51448600Y-42868900D02*
X47567900Y-42868900D01*
X51772500Y-42545000D02*
X51448600Y-42868900D01*
X78867000Y-42545000D02*
X51772500Y-42545000D01*
X68540600Y-99353400D02*
X69469000Y-98425000D01*
X68540600Y-107315000D02*
X68540600Y-99353400D01*
X67586100Y-98425000D02*
X65046100Y-95885000D01*
X69469000Y-98425000D02*
X67586100Y-98425000D01*
X63921000Y-95885000D02*
X65046100Y-95885000D01*
X56007000Y-84310100D02*
X56301000Y-84310100D01*
X52052100Y-88265000D02*
X56007000Y-84310100D01*
X50927000Y-88265000D02*
X52052100Y-88265000D01*
X56301000Y-83185000D02*
X56301000Y-84310100D01*
X107170100Y-48514000D02*
X112014000Y-48514000D01*
X97391100Y-58293000D02*
X107170100Y-48514000D01*
X96266000Y-58293000D02*
X97391100Y-58293000D01*
X55175600Y-91930400D02*
X56301000Y-90805000D01*
X55175600Y-133577500D02*
X55175600Y-91930400D01*
X55465000Y-133866900D02*
X55175600Y-133577500D01*
X55465000Y-139192000D02*
X55465000Y-133866900D01*
X98425000Y-98298000D02*
X97299900Y-98298000D01*
X92069000Y-98298000D02*
X97299900Y-98298000D01*
X88265000Y-94494000D02*
X92069000Y-98298000D01*
X88265000Y-94028000D02*
X88265000Y-94494000D01*
X87417700Y-93180700D02*
X88265000Y-94028000D01*
X80428300Y-93180700D02*
X87417700Y-93180700D01*
X79375000Y-94234000D02*
X80428300Y-93180700D01*
X106045000Y-95758000D02*
X104919900Y-95758000D01*
X80411500Y-87650500D02*
X79375000Y-86614000D01*
X90208300Y-87650500D02*
X80411500Y-87650500D01*
X96901000Y-94343200D02*
X90208300Y-87650500D01*
X103505100Y-94343200D02*
X96901000Y-94343200D01*
X104919900Y-95758000D02*
X103505100Y-94343200D01*
X113428900Y-48747100D02*
X113428900Y-48514000D01*
X105008100Y-57167900D02*
X113428900Y-48747100D01*
X102707200Y-57167900D02*
X105008100Y-57167900D01*
X101582100Y-58293000D02*
X102707200Y-57167900D01*
X100457000Y-58293000D02*
X101582100Y-58293000D01*
X114554000Y-48514000D02*
X113428900Y-48514000D01*
X115968900Y-48747100D02*
X115968900Y-48514000D01*
X106423000Y-58293000D02*
X115968900Y-48747100D01*
X104648000Y-58293000D02*
X106423000Y-58293000D01*
X117094000Y-48514000D02*
X115968900Y-48514000D01*
X106045000Y-85598000D02*
X106045000Y-86723100D01*
X99025000Y-139192000D02*
X99025000Y-133866900D01*
X106278100Y-86723100D02*
X106045000Y-86723100D01*
X107623800Y-88068800D02*
X106278100Y-86723100D01*
X107623800Y-117380800D02*
X107623800Y-88068800D01*
X99025000Y-125979600D02*
X107623800Y-117380800D01*
X99025000Y-133866900D02*
X99025000Y-125979600D01*
X99839900Y-85598000D02*
X104919900Y-90678000D01*
X98425000Y-85598000D02*
X99839900Y-85598000D01*
X106045000Y-90678000D02*
X104919900Y-90678000D01*
X102985000Y-127747400D02*
X102204100Y-126966500D01*
X102985000Y-139192000D02*
X102985000Y-127747400D01*
X59425000Y-129149600D02*
X59425000Y-139192000D01*
X69665800Y-118908800D02*
X59425000Y-129149600D01*
X69665800Y-103345900D02*
X69665800Y-118908800D01*
X78105000Y-94906700D02*
X69665800Y-103345900D01*
X78105000Y-94018200D02*
X78105000Y-94906700D01*
X79392800Y-92730400D02*
X78105000Y-94018200D01*
X88031400Y-92730400D02*
X79392800Y-92730400D01*
X89535000Y-94234000D02*
X88031400Y-92730400D01*
X63385000Y-139192000D02*
X63385000Y-133866900D01*
X85500000Y-95729000D02*
X86995000Y-94234000D01*
X81489100Y-95729000D02*
X85500000Y-95729000D01*
X80642100Y-96576000D02*
X81489100Y-95729000D01*
X80642100Y-109125700D02*
X80642100Y-96576000D01*
X63385000Y-126382800D02*
X80642100Y-109125700D01*
X63385000Y-133866900D02*
X63385000Y-126382800D01*
X67345000Y-123155600D02*
X67345000Y-139192000D01*
X81915000Y-108585600D02*
X67345000Y-123155600D01*
X81915000Y-96774000D02*
X81915000Y-108585600D01*
X71348100Y-133866900D02*
X79127600Y-126087400D01*
X71305000Y-133866900D02*
X71348100Y-133866900D01*
X71305000Y-139192000D02*
X71305000Y-133866900D01*
X75265000Y-139192000D02*
X75265000Y-133866900D01*
X85944200Y-123187700D02*
X75265000Y-133866900D01*
X85944200Y-121060500D02*
X85944200Y-123187700D01*
X86678300Y-126413600D02*
X79225000Y-133866900D01*
X86678300Y-108702700D02*
X86678300Y-126413600D01*
X85533400Y-107557800D02*
X86678300Y-108702700D01*
X79225000Y-139192000D02*
X79225000Y-133866900D01*
X83185000Y-139192000D02*
X83185000Y-133866900D01*
X83185000Y-131428300D02*
X90764400Y-123848900D01*
X83185000Y-133866900D02*
X83185000Y-131428300D01*
X87145000Y-130524800D02*
X87145000Y-139192000D01*
X91073300Y-126596500D02*
X87145000Y-130524800D01*
X91105000Y-129879700D02*
X91105000Y-139192000D01*
X99553700Y-121431000D02*
X91105000Y-129879700D01*
X99553700Y-97800700D02*
X99553700Y-121431000D01*
X98636200Y-96883200D02*
X99553700Y-97800700D01*
X97890800Y-96883200D02*
X98636200Y-96883200D01*
X97013100Y-96005500D02*
X97890800Y-96883200D01*
X97013100Y-95092000D02*
X97013100Y-96005500D01*
X90021800Y-88100700D02*
X97013100Y-95092000D01*
X78321700Y-88100700D02*
X90021800Y-88100700D01*
X76835000Y-86614000D02*
X78321700Y-88100700D01*
X95065000Y-128352100D02*
X95065000Y-139192000D01*
X104919800Y-118497300D02*
X95065000Y-128352100D01*
X104919800Y-97814300D02*
X104919800Y-118497300D01*
X105780000Y-96954100D02*
X104919800Y-97814300D01*
X106449100Y-96954100D02*
X105780000Y-96954100D01*
X107173700Y-96229500D02*
X106449100Y-96954100D01*
X107173700Y-95213600D02*
X107173700Y-96229500D01*
X106448100Y-94488000D02*
X107173700Y-95213600D01*
X105515000Y-94488000D02*
X106448100Y-94488000D01*
X100579900Y-89552900D02*
X105515000Y-94488000D01*
X94096400Y-89552900D02*
X100579900Y-89552900D01*
X90121200Y-85577700D02*
X94096400Y-89552900D01*
X76376400Y-85577700D02*
X90121200Y-85577700D01*
X75798200Y-86155900D02*
X76376400Y-85577700D01*
X75798200Y-87100400D02*
X75798200Y-86155900D01*
X76741000Y-88043200D02*
X75798200Y-87100400D01*
X77215400Y-88043200D02*
X76741000Y-88043200D01*
X77908300Y-88736100D02*
X77215400Y-88043200D01*
X77908300Y-90620700D02*
X77908300Y-88736100D01*
X76835000Y-91694000D02*
X77908300Y-90620700D01*
X104919900Y-87904900D02*
X104919900Y-88138000D01*
X98549000Y-81534000D02*
X104919900Y-87904900D01*
X86995000Y-81534000D02*
X98549000Y-81534000D01*
X106045000Y-88138000D02*
X104919900Y-88138000D01*
X91111100Y-85110400D02*
X92175200Y-86174500D01*
X76192400Y-85110400D02*
X91111100Y-85110400D01*
X75307800Y-85995000D02*
X76192400Y-85110400D01*
X75307800Y-87626800D02*
X75307800Y-85995000D01*
X76835000Y-89154000D02*
X75307800Y-87626800D01*
X89936800Y-90611800D02*
X94135900Y-94810900D01*
X80832800Y-90611800D02*
X89936800Y-90611800D01*
X79375000Y-89154000D02*
X80832800Y-90611800D01*
X75915300Y-112286400D02*
X70564000Y-117637700D01*
X75915300Y-98746800D02*
X75915300Y-112286400D01*
X79391700Y-95270400D02*
X75915300Y-98746800D01*
X83418600Y-95270400D02*
X79391700Y-95270400D01*
X84455000Y-94234000D02*
X83418600Y-95270400D01*
X86995000Y-104530900D02*
X68085700Y-123440200D01*
X86995000Y-96774000D02*
X86995000Y-104530900D01*
D21*
X117094000Y-58928000D02*
X117094000Y-56134000D01*
X102997000Y-73025000D02*
X117094000Y-58928000D01*
X101727000Y-73025000D02*
X102997000Y-73025000D01*
X99647000Y-75105000D02*
X101727000Y-73025000D01*
X99647000Y-77143000D02*
X99647000Y-75105000D01*
X97289000Y-74785000D02*
X99647000Y-77143000D01*
X85685000Y-74785000D02*
X97289000Y-74785000D01*
X84185000Y-73285000D02*
X85685000Y-74785000D01*
X59891000Y-73285000D02*
X84185000Y-73285000D01*
X57611000Y-75565000D02*
X59891000Y-73285000D01*
D20*
X81915000Y-81534000D02*
X79375000Y-84074000D01*
X59966100Y-83185000D02*
X63921000Y-83185000D01*
X57426100Y-80645000D02*
X59966100Y-83185000D01*
X56301000Y-80645000D02*
X57426100Y-80645000D01*
X66929000Y-85725000D02*
X63921000Y-85725000D01*
X69469000Y-88265000D02*
X66929000Y-85725000D01*
X56534100Y-92219900D02*
X56301000Y-92219900D01*
X62795900Y-85958100D02*
X56534100Y-92219900D01*
X62795900Y-85725000D02*
X62795900Y-85958100D01*
X63921000Y-85725000D02*
X62795900Y-85725000D01*
X56301000Y-93345000D02*
X56301000Y-92219900D01*
D21*
X110905000Y-139192000D02*
X110905000Y-123825000D01*
X103147000Y-78643000D02*
X104647000Y-77143000D01*
X98849900Y-78643000D02*
X103147000Y-78643000D01*
X96491900Y-76285000D02*
X98849900Y-78643000D01*
X82185000Y-76285000D02*
X96491900Y-76285000D01*
X80685000Y-74785000D02*
X82185000Y-76285000D01*
X79905000Y-75565000D02*
X80685000Y-74785000D01*
X62611000Y-75565000D02*
X79905000Y-75565000D01*
X104648000Y-65913000D02*
X100457000Y-65913000D01*
X100457000Y-65913000D02*
X96266000Y-65913000D01*
D20*
X63921000Y-98425000D02*
X56301000Y-98425000D01*
G04 #@! TA.AperFunction,Conductor*
G36*
X64171000Y-85409314D02*
G01*
X64166606Y-85404920D01*
X64075394Y-85352259D01*
X63973661Y-85325000D01*
X63868339Y-85325000D01*
X63766606Y-85352259D01*
X63675394Y-85404920D01*
X63671000Y-85409314D01*
X63671000Y-83500686D01*
X63675394Y-83505080D01*
X63766606Y-83557741D01*
X63868339Y-83585000D01*
X63973661Y-83585000D01*
X64075394Y-83557741D01*
X64166606Y-83505080D01*
X64171000Y-83500686D01*
X64171000Y-85409314D01*
G37*
G04 #@! TD.AperFunction*
G04 #@! TA.AperFunction,Conductor*
G36*
X114233920Y-55888394D02*
G01*
X114181259Y-55979606D01*
X114154000Y-56081339D01*
X114154000Y-56186661D01*
X114181259Y-56288394D01*
X114233920Y-56379606D01*
X114238314Y-56384000D01*
X112329686Y-56384000D01*
X112334080Y-56379606D01*
X112386741Y-56288394D01*
X112414000Y-56186661D01*
X112414000Y-56081339D01*
X112386741Y-55979606D01*
X112334080Y-55888394D01*
X112329686Y-55884000D01*
X114238314Y-55884000D01*
X114233920Y-55888394D01*
G37*
G04 #@! TD.AperFunction*
G04 #@! TA.AperFunction,Conductor*
G36*
X116773920Y-55888394D02*
G01*
X116721259Y-55979606D01*
X116694000Y-56081339D01*
X116694000Y-56186661D01*
X116721259Y-56288394D01*
X116773920Y-56379606D01*
X116778314Y-56384000D01*
X114869686Y-56384000D01*
X114874080Y-56379606D01*
X114926741Y-56288394D01*
X114954000Y-56186661D01*
X114954000Y-56081339D01*
X114926741Y-55979606D01*
X114874080Y-55888394D01*
X114869686Y-55884000D01*
X116778314Y-55884000D01*
X116773920Y-55888394D01*
G37*
G04 #@! TD.AperFunction*
G04 #@! TA.AperFunction,Conductor*
G36*
X123064539Y-38780185D02*
G01*
X123110294Y-38832989D01*
X123121500Y-38884500D01*
X123121500Y-65495500D01*
X123101815Y-65562539D01*
X123049011Y-65608294D01*
X122997500Y-65619500D01*
X122937774Y-65619500D01*
X122862401Y-65626484D01*
X122521114Y-65658108D01*
X122521113Y-65658109D01*
X122521109Y-65658109D01*
X122521106Y-65658110D01*
X122363262Y-65687615D01*
X122109770Y-65735001D01*
X121707301Y-65849515D01*
X121317102Y-66000678D01*
X120942519Y-66187199D01*
X120586741Y-66407487D01*
X120252816Y-66659655D01*
X120252807Y-66659662D01*
X119943570Y-66941570D01*
X119661662Y-67250807D01*
X119661655Y-67250816D01*
X119409487Y-67584741D01*
X119189199Y-67940519D01*
X119002678Y-68315102D01*
X118851515Y-68705301D01*
X118737001Y-69107770D01*
X118660109Y-69519113D01*
X118660108Y-69519114D01*
X118621500Y-69935776D01*
X118621500Y-70354223D01*
X118660108Y-70770885D01*
X118660109Y-70770886D01*
X118660110Y-70770894D01*
X118737000Y-71182222D01*
X118737002Y-71182229D01*
X118737001Y-71182229D01*
X118851515Y-71584698D01*
X118851514Y-71584698D01*
X119002678Y-71974897D01*
X119189199Y-72349481D01*
X119282719Y-72500521D01*
X119409487Y-72705258D01*
X119661655Y-73039183D01*
X119661662Y-73039192D01*
X119771293Y-73159451D01*
X119943570Y-73348430D01*
X120087933Y-73480034D01*
X120252807Y-73630337D01*
X120252816Y-73630344D01*
X120285291Y-73654868D01*
X120586743Y-73882514D01*
X120942519Y-74102801D01*
X121317103Y-74289322D01*
X121707299Y-74440484D01*
X121867179Y-74485974D01*
X122109770Y-74554998D01*
X122109772Y-74554998D01*
X122109778Y-74555000D01*
X122521106Y-74631890D01*
X122521113Y-74631890D01*
X122521114Y-74631891D01*
X122662585Y-74645000D01*
X122937774Y-74670500D01*
X122997500Y-74670500D01*
X123064539Y-74690185D01*
X123110294Y-74742989D01*
X123121500Y-74794500D01*
X123121500Y-77834438D01*
X123121501Y-83434439D01*
X123121501Y-94834438D01*
X123121500Y-100446437D01*
X123121500Y-115495500D01*
X123101815Y-115562539D01*
X123049011Y-115608294D01*
X122997500Y-115619500D01*
X122937774Y-115619500D01*
X122862401Y-115626484D01*
X122521114Y-115658108D01*
X122521113Y-115658109D01*
X122521109Y-115658109D01*
X122521106Y-115658110D01*
X122363262Y-115687615D01*
X122109770Y-115735001D01*
X121707301Y-115849515D01*
X121317102Y-116000678D01*
X120942519Y-116187199D01*
X120586741Y-116407487D01*
X120252816Y-116659655D01*
X120252807Y-116659662D01*
X119943570Y-116941570D01*
X119661662Y-117250807D01*
X119661655Y-117250816D01*
X119409487Y-117584741D01*
X119189199Y-117940519D01*
X119002678Y-118315102D01*
X118851515Y-118705301D01*
X118737001Y-119107770D01*
X118660109Y-119519113D01*
X118660108Y-119519114D01*
X118621500Y-119935776D01*
X118621500Y-120354223D01*
X118660108Y-120770885D01*
X118660109Y-120770886D01*
X118660110Y-120770894D01*
X118737000Y-121182222D01*
X118737002Y-121182229D01*
X118737001Y-121182229D01*
X118851515Y-121584698D01*
X118851514Y-121584698D01*
X119002678Y-121974897D01*
X119189199Y-122349481D01*
X119282719Y-122500521D01*
X119409487Y-122705258D01*
X119661655Y-123039183D01*
X119661662Y-123039192D01*
X119739431Y-123124500D01*
X119943570Y-123348430D01*
X120070870Y-123464479D01*
X120252807Y-123630337D01*
X120252811Y-123630340D01*
X120586743Y-123882514D01*
X120942519Y-124102801D01*
X121317103Y-124289322D01*
X121707299Y-124440484D01*
X121978252Y-124517577D01*
X122109770Y-124554998D01*
X122109772Y-124554998D01*
X122109778Y-124555000D01*
X122521106Y-124631890D01*
X122521113Y-124631890D01*
X122521114Y-124631891D01*
X122662585Y-124645000D01*
X122937774Y-124670500D01*
X122997500Y-124670500D01*
X123064539Y-124690185D01*
X123110294Y-124742989D01*
X123121500Y-124794500D01*
X123121500Y-133995500D01*
X123101815Y-134062539D01*
X123049011Y-134108294D01*
X122997500Y-134119500D01*
X114797437Y-134119500D01*
X114765059Y-134151879D01*
X114761562Y-134148382D01*
X114740699Y-134170813D01*
X114677377Y-134188200D01*
X112207552Y-134188200D01*
X112140513Y-134168515D01*
X112101425Y-134123405D01*
X112100652Y-134123923D01*
X112096535Y-134117762D01*
X112094758Y-134115711D01*
X112093996Y-134113962D01*
X112049552Y-134047447D01*
X111983230Y-134003132D01*
X111983229Y-134003131D01*
X111924752Y-133991500D01*
X111924748Y-133991500D01*
X111729500Y-133991500D01*
X111662461Y-133971815D01*
X111616706Y-133919011D01*
X111605500Y-133867500D01*
X111605500Y-123756004D01*
X111578581Y-123620677D01*
X111578580Y-123620676D01*
X111578580Y-123620672D01*
X111547675Y-123546060D01*
X111525778Y-123493195D01*
X111525771Y-123493182D01*
X111449114Y-123378458D01*
X111449111Y-123378454D01*
X111351545Y-123280888D01*
X111351541Y-123280885D01*
X111236817Y-123204228D01*
X111236804Y-123204221D01*
X111109332Y-123151421D01*
X111109322Y-123151418D01*
X110973995Y-123124500D01*
X110973993Y-123124500D01*
X110836007Y-123124500D01*
X110836005Y-123124500D01*
X110700677Y-123151418D01*
X110700667Y-123151421D01*
X110573195Y-123204221D01*
X110573182Y-123204228D01*
X110458458Y-123280885D01*
X110458454Y-123280888D01*
X110360888Y-123378454D01*
X110360885Y-123378458D01*
X110284228Y-123493182D01*
X110284221Y-123493195D01*
X110231421Y-123620667D01*
X110231418Y-123620677D01*
X110204500Y-123756004D01*
X110204500Y-133867500D01*
X110184815Y-133934539D01*
X110132011Y-133980294D01*
X110080500Y-133991500D01*
X109885247Y-133991500D01*
X109826770Y-134003131D01*
X109826769Y-134003132D01*
X109760447Y-134047447D01*
X109709348Y-134123923D01*
X109707901Y-134122956D01*
X109673163Y-134166059D01*
X109606868Y-134188121D01*
X109602448Y-134188200D01*
X104287552Y-134188200D01*
X104220513Y-134168515D01*
X104181425Y-134123405D01*
X104180652Y-134123923D01*
X104176535Y-134117762D01*
X104174758Y-134115711D01*
X104173996Y-134113962D01*
X104129552Y-134047447D01*
X104063230Y-134003132D01*
X104063229Y-134003131D01*
X104004752Y-133991500D01*
X104004748Y-133991500D01*
X103434500Y-133991500D01*
X103367461Y-133971815D01*
X103321706Y-133919011D01*
X103310500Y-133867500D01*
X103310500Y-127704549D01*
X103310500Y-127704547D01*
X103288318Y-127621762D01*
X103274894Y-127598511D01*
X103245469Y-127547544D01*
X103245463Y-127547536D01*
X102836111Y-127138184D01*
X102802626Y-127076861D01*
X102800853Y-127034316D01*
X102802109Y-127024782D01*
X102809782Y-126966500D01*
X102789144Y-126809738D01*
X102728636Y-126663659D01*
X102632382Y-126538218D01*
X102506941Y-126441964D01*
X102501569Y-126439739D01*
X102360862Y-126381456D01*
X102360860Y-126381455D01*
X102204101Y-126360818D01*
X102204099Y-126360818D01*
X102047339Y-126381455D01*
X102047337Y-126381456D01*
X101901260Y-126441963D01*
X101775818Y-126538218D01*
X101679563Y-126663660D01*
X101619056Y-126809737D01*
X101619055Y-126809739D01*
X101598418Y-126966498D01*
X101598418Y-126966501D01*
X101619055Y-127123260D01*
X101619056Y-127123262D01*
X101679564Y-127269341D01*
X101775818Y-127394782D01*
X101901259Y-127491036D01*
X102047338Y-127551544D01*
X102075648Y-127555271D01*
X102204099Y-127572182D01*
X102204099Y-127572181D01*
X102204100Y-127572182D01*
X102271917Y-127563253D01*
X102340952Y-127574018D01*
X102375784Y-127598511D01*
X102623181Y-127845908D01*
X102656666Y-127907231D01*
X102659500Y-127933589D01*
X102659500Y-133867500D01*
X102639815Y-133934539D01*
X102587011Y-133980294D01*
X102535500Y-133991500D01*
X101965247Y-133991500D01*
X101906770Y-134003131D01*
X101906769Y-134003132D01*
X101840447Y-134047447D01*
X101789348Y-134123923D01*
X101787901Y-134122956D01*
X101753163Y-134166059D01*
X101686868Y-134188121D01*
X101682448Y-134188200D01*
X100327552Y-134188200D01*
X100260513Y-134168515D01*
X100221425Y-134123405D01*
X100220652Y-134123923D01*
X100216535Y-134117762D01*
X100214758Y-134115711D01*
X100213996Y-134113962D01*
X100169552Y-134047447D01*
X100103230Y-134003132D01*
X100103229Y-134003131D01*
X100044752Y-133991500D01*
X100044748Y-133991500D01*
X99474500Y-133991500D01*
X99407461Y-133971815D01*
X99361706Y-133919011D01*
X99350500Y-133867500D01*
X99350500Y-126165787D01*
X99370185Y-126098748D01*
X99386814Y-126078111D01*
X107813452Y-117651472D01*
X107813457Y-117651469D01*
X107823660Y-117641265D01*
X107823662Y-117641265D01*
X107884265Y-117580662D01*
X107927118Y-117506438D01*
X107933951Y-117480938D01*
X107949301Y-117423652D01*
X107949301Y-117337947D01*
X107949301Y-117330352D01*
X107949300Y-117330334D01*
X107949300Y-88025949D01*
X107949300Y-88025947D01*
X107935665Y-87975061D01*
X107927118Y-87943161D01*
X107884265Y-87868938D01*
X106615530Y-86600203D01*
X106582045Y-86538880D01*
X106587029Y-86469188D01*
X106624546Y-86416669D01*
X106641190Y-86403010D01*
X106755883Y-86308883D01*
X106880910Y-86156538D01*
X106973814Y-85982727D01*
X107031024Y-85794132D01*
X107050341Y-85598000D01*
X107031024Y-85401868D01*
X106973814Y-85213273D01*
X106973811Y-85213269D01*
X106973811Y-85213266D01*
X106880913Y-85039467D01*
X106880909Y-85039460D01*
X106755883Y-84887116D01*
X106603539Y-84762090D01*
X106603532Y-84762086D01*
X106429733Y-84669188D01*
X106429727Y-84669186D01*
X106243967Y-84612836D01*
X106241129Y-84611975D01*
X106045000Y-84592659D01*
X105848870Y-84611975D01*
X105660266Y-84669188D01*
X105486467Y-84762086D01*
X105486460Y-84762090D01*
X105334116Y-84887116D01*
X105209090Y-85039460D01*
X105209086Y-85039467D01*
X105116188Y-85213266D01*
X105058975Y-85401870D01*
X105039659Y-85598000D01*
X105058975Y-85794129D01*
X105058976Y-85794132D01*
X105101023Y-85932743D01*
X105116188Y-85982733D01*
X105209086Y-86156532D01*
X105209090Y-86156539D01*
X105334116Y-86308883D01*
X105486460Y-86433909D01*
X105486467Y-86433913D01*
X105653953Y-86523436D01*
X105703797Y-86572398D01*
X105719500Y-86632794D01*
X105719500Y-86680247D01*
X105719500Y-86765953D01*
X105741527Y-86848157D01*
X105741682Y-86848737D01*
X105741685Y-86848744D01*
X105784530Y-86922955D01*
X105784536Y-86922963D01*
X105828933Y-86967360D01*
X105862418Y-87028683D01*
X105857434Y-87098375D01*
X105815562Y-87154308D01*
X105777248Y-87173701D01*
X105660271Y-87209186D01*
X105486467Y-87302086D01*
X105486460Y-87302090D01*
X105334119Y-87427114D01*
X105226330Y-87558454D01*
X105168584Y-87597788D01*
X105098739Y-87599658D01*
X105042796Y-87567469D01*
X99713574Y-82238247D01*
X105044500Y-82238247D01*
X105044500Y-83877752D01*
X105056131Y-83936229D01*
X105056132Y-83936230D01*
X105100447Y-84002552D01*
X105166769Y-84046867D01*
X105166770Y-84046868D01*
X105225247Y-84058499D01*
X105225250Y-84058500D01*
X105225252Y-84058500D01*
X106864750Y-84058500D01*
X106864751Y-84058499D01*
X106879568Y-84055552D01*
X106923229Y-84046868D01*
X106923229Y-84046867D01*
X106923231Y-84046867D01*
X106989552Y-84002552D01*
X107033867Y-83936231D01*
X107033867Y-83936229D01*
X107033868Y-83936229D01*
X107045499Y-83877752D01*
X107045500Y-83877750D01*
X107045500Y-82238249D01*
X107045499Y-82238247D01*
X107033868Y-82179770D01*
X107033867Y-82179769D01*
X106989552Y-82113447D01*
X106923230Y-82069132D01*
X106923229Y-82069131D01*
X106864752Y-82057500D01*
X106864748Y-82057500D01*
X105225252Y-82057500D01*
X105225247Y-82057500D01*
X105166770Y-82069131D01*
X105166769Y-82069132D01*
X105100447Y-82113447D01*
X105056132Y-82179769D01*
X105056131Y-82179770D01*
X105044500Y-82238247D01*
X99713574Y-82238247D01*
X98748864Y-81273537D01*
X98748862Y-81273535D01*
X98711750Y-81252108D01*
X98674640Y-81230682D01*
X98612081Y-81213920D01*
X98591853Y-81208500D01*
X98591852Y-81208500D01*
X87931404Y-81208500D01*
X87864365Y-81188815D01*
X87824016Y-81146499D01*
X87816800Y-81134000D01*
X87736644Y-80995164D01*
X87608407Y-80852743D01*
X87495898Y-80771000D01*
X87453359Y-80740093D01*
X87318944Y-80680249D01*
X87278283Y-80662146D01*
X87278281Y-80662145D01*
X87278280Y-80662145D01*
X87090824Y-80622300D01*
X86899176Y-80622300D01*
X86711719Y-80662145D01*
X86536640Y-80740093D01*
X86381591Y-80852744D01*
X86253355Y-80995165D01*
X86157534Y-81161132D01*
X86157533Y-81161134D01*
X86098312Y-81343398D01*
X86098311Y-81343400D01*
X86078278Y-81534000D01*
X86098311Y-81724599D01*
X86098312Y-81724601D01*
X86157533Y-81906865D01*
X86157534Y-81906867D01*
X86211967Y-82001147D01*
X86253356Y-82072836D01*
X86315557Y-82141917D01*
X86363994Y-82195712D01*
X86381593Y-82215257D01*
X86402982Y-82230797D01*
X86536640Y-82327906D01*
X86603847Y-82357827D01*
X86711717Y-82405854D01*
X86899176Y-82445700D01*
X87090824Y-82445700D01*
X87278283Y-82405854D01*
X87453361Y-82327905D01*
X87608407Y-82215257D01*
X87736644Y-82072836D01*
X87824016Y-81921500D01*
X87874583Y-81873285D01*
X87931404Y-81859500D01*
X97485660Y-81859500D01*
X97552699Y-81879185D01*
X97598454Y-81931989D01*
X97608398Y-82001147D01*
X97579373Y-82064703D01*
X97573341Y-82071181D01*
X97425342Y-82219179D01*
X97294865Y-82405517D01*
X97198734Y-82611673D01*
X97198730Y-82611682D01*
X97146127Y-82807999D01*
X97146128Y-82808000D01*
X98109314Y-82808000D01*
X98104920Y-82812394D01*
X98052259Y-82903606D01*
X98025000Y-83005339D01*
X98025000Y-83110661D01*
X98052259Y-83212394D01*
X98104920Y-83303606D01*
X98109314Y-83308000D01*
X97146128Y-83308000D01*
X97198730Y-83504317D01*
X97198734Y-83504326D01*
X97294865Y-83710482D01*
X97425342Y-83896820D01*
X97586179Y-84057657D01*
X97772517Y-84188134D01*
X97978673Y-84284265D01*
X97978682Y-84284269D01*
X98174999Y-84336872D01*
X98175000Y-84336871D01*
X98175000Y-83373686D01*
X98179394Y-83378080D01*
X98270606Y-83430741D01*
X98372339Y-83458000D01*
X98477661Y-83458000D01*
X98579394Y-83430741D01*
X98670606Y-83378080D01*
X98675000Y-83373686D01*
X98675000Y-84336872D01*
X98871317Y-84284269D01*
X98871326Y-84284265D01*
X99077482Y-84188134D01*
X99263820Y-84057657D01*
X99424657Y-83896820D01*
X99555134Y-83710482D01*
X99651265Y-83504326D01*
X99651269Y-83504317D01*
X99681843Y-83390214D01*
X99718208Y-83330553D01*
X99781055Y-83300024D01*
X99850430Y-83308319D01*
X99889299Y-83334626D01*
X104558081Y-88003408D01*
X104591566Y-88064731D01*
X104594400Y-88091089D01*
X104594400Y-88180852D01*
X104616582Y-88263637D01*
X104616585Y-88263644D01*
X104659430Y-88337855D01*
X104659434Y-88337860D01*
X104659435Y-88337862D01*
X104720038Y-88398465D01*
X104720040Y-88398466D01*
X104720044Y-88398469D01*
X104783461Y-88435082D01*
X104794262Y-88441318D01*
X104877047Y-88463500D01*
X105010205Y-88463500D01*
X105077244Y-88483185D01*
X105119563Y-88529047D01*
X105209085Y-88696532D01*
X105209090Y-88696539D01*
X105334116Y-88848883D01*
X105486460Y-88973909D01*
X105486467Y-88973913D01*
X105660266Y-89066811D01*
X105660269Y-89066811D01*
X105660273Y-89066814D01*
X105848868Y-89124024D01*
X106045000Y-89143341D01*
X106241132Y-89124024D01*
X106429727Y-89066814D01*
X106474273Y-89043004D01*
X106538379Y-89008738D01*
X106603538Y-88973910D01*
X106755883Y-88848883D01*
X106880910Y-88696538D01*
X106973814Y-88522727D01*
X107031024Y-88334132D01*
X107040991Y-88232928D01*
X107067151Y-88168142D01*
X107124186Y-88127783D01*
X107193986Y-88124666D01*
X107252075Y-88157402D01*
X107261981Y-88167308D01*
X107295466Y-88228631D01*
X107298300Y-88254989D01*
X107298300Y-90671491D01*
X107297373Y-90674647D01*
X107298300Y-90684508D01*
X107298300Y-93211491D01*
X107297373Y-93214647D01*
X107298300Y-93224508D01*
X107298300Y-94578511D01*
X107278615Y-94645550D01*
X107225811Y-94691305D01*
X107156653Y-94701249D01*
X107093097Y-94672224D01*
X107086619Y-94666192D01*
X106647964Y-94227537D01*
X106647962Y-94227535D01*
X106647959Y-94227533D01*
X106641513Y-94222587D01*
X106643264Y-94220304D01*
X106604632Y-94179785D01*
X106591412Y-94111178D01*
X106617383Y-94046314D01*
X106636185Y-94027117D01*
X106755883Y-93928883D01*
X106813707Y-93858425D01*
X106880910Y-93776538D01*
X106973814Y-93602727D01*
X107031024Y-93414132D01*
X107050341Y-93218000D01*
X107031024Y-93021868D01*
X106973814Y-92833273D01*
X106973811Y-92833269D01*
X106973811Y-92833266D01*
X106880913Y-92659467D01*
X106880909Y-92659460D01*
X106755883Y-92507116D01*
X106603539Y-92382090D01*
X106603532Y-92382086D01*
X106429733Y-92289188D01*
X106429727Y-92289186D01*
X106243967Y-92232836D01*
X106241129Y-92231975D01*
X106045000Y-92212659D01*
X105848870Y-92231975D01*
X105660266Y-92289188D01*
X105486467Y-92382086D01*
X105486460Y-92382090D01*
X105334116Y-92507116D01*
X105209090Y-92659460D01*
X105209086Y-92659467D01*
X105116188Y-92833266D01*
X105058975Y-93021870D01*
X105039659Y-93218000D01*
X105039659Y-93218004D01*
X105042216Y-93243973D01*
X105029196Y-93312619D01*
X104981129Y-93363328D01*
X104913278Y-93380000D01*
X104847184Y-93357343D01*
X104831132Y-93343805D01*
X100779764Y-89292437D01*
X100779762Y-89292435D01*
X100725747Y-89261249D01*
X100705540Y-89249582D01*
X100664146Y-89238491D01*
X100622753Y-89227400D01*
X100622752Y-89227400D01*
X99004328Y-89227400D01*
X98937289Y-89207715D01*
X98891534Y-89154911D01*
X98881590Y-89085753D01*
X98910615Y-89022197D01*
X98945875Y-88994042D01*
X98983532Y-88973913D01*
X98983538Y-88973910D01*
X99135883Y-88848883D01*
X99260910Y-88696538D01*
X99353814Y-88522727D01*
X99411024Y-88334132D01*
X99430341Y-88138000D01*
X99411024Y-87941868D01*
X99353814Y-87753273D01*
X99353811Y-87753269D01*
X99353811Y-87753266D01*
X99260913Y-87579467D01*
X99260909Y-87579460D01*
X99135883Y-87427116D01*
X98983539Y-87302090D01*
X98983532Y-87302086D01*
X98809733Y-87209188D01*
X98809727Y-87209186D01*
X98636771Y-87156720D01*
X98621129Y-87151975D01*
X98425000Y-87132659D01*
X98228870Y-87151975D01*
X98040266Y-87209188D01*
X97866467Y-87302086D01*
X97866460Y-87302090D01*
X97714116Y-87427116D01*
X97589090Y-87579460D01*
X97589086Y-87579467D01*
X97496188Y-87753266D01*
X97438975Y-87941870D01*
X97419659Y-88138000D01*
X97438975Y-88334129D01*
X97438976Y-88334132D01*
X97486743Y-88491599D01*
X97496188Y-88522733D01*
X97589086Y-88696532D01*
X97589090Y-88696539D01*
X97714116Y-88848883D01*
X97866460Y-88973909D01*
X97866467Y-88973913D01*
X97904125Y-88994042D01*
X97953969Y-89043004D01*
X97969430Y-89111141D01*
X97945599Y-89176821D01*
X97890041Y-89219190D01*
X97845672Y-89227400D01*
X94282588Y-89227400D01*
X94215549Y-89207715D01*
X94194907Y-89191081D01*
X91982999Y-86979172D01*
X91949514Y-86917849D01*
X91954498Y-86848157D01*
X91996370Y-86792224D01*
X92061834Y-86767807D01*
X92086859Y-86768551D01*
X92175200Y-86780182D01*
X92175201Y-86780182D01*
X92227454Y-86773302D01*
X92331962Y-86759544D01*
X92478041Y-86699036D01*
X92603482Y-86602782D01*
X92699736Y-86477341D01*
X92760244Y-86331262D01*
X92780882Y-86174500D01*
X92779901Y-86167052D01*
X92767123Y-86069992D01*
X92760244Y-86017738D01*
X92699736Y-85871659D01*
X92603482Y-85746218D01*
X92478041Y-85649964D01*
X92352589Y-85598000D01*
X97419659Y-85598000D01*
X97438975Y-85794129D01*
X97438976Y-85794132D01*
X97481023Y-85932743D01*
X97496188Y-85982733D01*
X97589086Y-86156532D01*
X97589090Y-86156539D01*
X97714116Y-86308883D01*
X97866460Y-86433909D01*
X97866467Y-86433913D01*
X98040266Y-86526811D01*
X98040269Y-86526811D01*
X98040273Y-86526814D01*
X98228868Y-86584024D01*
X98425000Y-86603341D01*
X98621132Y-86584024D01*
X98809727Y-86526814D01*
X98983538Y-86433910D01*
X99135883Y-86308883D01*
X99260910Y-86156538D01*
X99260910Y-86156536D01*
X99260914Y-86156532D01*
X99350437Y-85989047D01*
X99399399Y-85939202D01*
X99459795Y-85923500D01*
X99653711Y-85923500D01*
X99720750Y-85943185D01*
X99741392Y-85959819D01*
X104720038Y-90938465D01*
X104794261Y-90981318D01*
X104877047Y-91003500D01*
X105010205Y-91003500D01*
X105077244Y-91023185D01*
X105119563Y-91069047D01*
X105209085Y-91236532D01*
X105209090Y-91236539D01*
X105334116Y-91388883D01*
X105486460Y-91513909D01*
X105486467Y-91513913D01*
X105660266Y-91606811D01*
X105660269Y-91606811D01*
X105660273Y-91606814D01*
X105848868Y-91664024D01*
X106045000Y-91683341D01*
X106241132Y-91664024D01*
X106429727Y-91606814D01*
X106603538Y-91513910D01*
X106755883Y-91388883D01*
X106880910Y-91236538D01*
X106973814Y-91062727D01*
X107031024Y-90874132D01*
X107050341Y-90678000D01*
X107031024Y-90481868D01*
X106973814Y-90293273D01*
X106973811Y-90293269D01*
X106973811Y-90293266D01*
X106880913Y-90119467D01*
X106880909Y-90119460D01*
X106755883Y-89967116D01*
X106603539Y-89842090D01*
X106603532Y-89842086D01*
X106429733Y-89749188D01*
X106429727Y-89749186D01*
X106243967Y-89692836D01*
X106241129Y-89691975D01*
X106045000Y-89672659D01*
X105848870Y-89691975D01*
X105660266Y-89749188D01*
X105486467Y-89842086D01*
X105486460Y-89842090D01*
X105334116Y-89967116D01*
X105209090Y-90119460D01*
X105209085Y-90119467D01*
X105152962Y-90224468D01*
X105104000Y-90274313D01*
X105035862Y-90289773D01*
X104970182Y-90265941D01*
X104955923Y-90253696D01*
X100039764Y-85337537D01*
X100039762Y-85337535D01*
X100002650Y-85316108D01*
X99965540Y-85294682D01*
X99905791Y-85278673D01*
X99882753Y-85272500D01*
X99882752Y-85272500D01*
X99459795Y-85272500D01*
X99392756Y-85252815D01*
X99350437Y-85206953D01*
X99260914Y-85039467D01*
X99260909Y-85039460D01*
X99135883Y-84887116D01*
X98983539Y-84762090D01*
X98983532Y-84762086D01*
X98809733Y-84669188D01*
X98809727Y-84669186D01*
X98623967Y-84612836D01*
X98621129Y-84611975D01*
X98425000Y-84592659D01*
X98228870Y-84611975D01*
X98040266Y-84669188D01*
X97866467Y-84762086D01*
X97866460Y-84762090D01*
X97714116Y-84887116D01*
X97589090Y-85039460D01*
X97589086Y-85039467D01*
X97496188Y-85213266D01*
X97438975Y-85401870D01*
X97419659Y-85598000D01*
X92352589Y-85598000D01*
X92331962Y-85589456D01*
X92331960Y-85589455D01*
X92175201Y-85568818D01*
X92175197Y-85568818D01*
X92107379Y-85577746D01*
X92038344Y-85566980D01*
X92003514Y-85542488D01*
X91674299Y-85213273D01*
X91310962Y-84849935D01*
X91273850Y-84828508D01*
X91236740Y-84807082D01*
X91195346Y-84795991D01*
X91153953Y-84784900D01*
X91153952Y-84784900D01*
X90392077Y-84784900D01*
X90325038Y-84765215D01*
X90279283Y-84712411D01*
X90269339Y-84643253D01*
X90284690Y-84598900D01*
X90356800Y-84474000D01*
X90372467Y-84446864D01*
X90431689Y-84264597D01*
X90451722Y-84074000D01*
X90431689Y-83883403D01*
X90372467Y-83701136D01*
X90276644Y-83535164D01*
X90148407Y-83392743D01*
X90020791Y-83300024D01*
X89993359Y-83280093D01*
X89854447Y-83218247D01*
X89818283Y-83202146D01*
X89818281Y-83202145D01*
X89818280Y-83202145D01*
X89630824Y-83162300D01*
X89439176Y-83162300D01*
X89251719Y-83202145D01*
X89076640Y-83280093D01*
X88921591Y-83392744D01*
X88793355Y-83535165D01*
X88697534Y-83701132D01*
X88697533Y-83701134D01*
X88638312Y-83883398D01*
X88638311Y-83883400D01*
X88618278Y-84074000D01*
X88638311Y-84264599D01*
X88638312Y-84264601D01*
X88697533Y-84446865D01*
X88697534Y-84446867D01*
X88785310Y-84598900D01*
X88801783Y-84666800D01*
X88778930Y-84732827D01*
X88724009Y-84776018D01*
X88677923Y-84784900D01*
X87852077Y-84784900D01*
X87785038Y-84765215D01*
X87739283Y-84712411D01*
X87729339Y-84643253D01*
X87744690Y-84598900D01*
X87816800Y-84474000D01*
X87832467Y-84446864D01*
X87891689Y-84264597D01*
X87911722Y-84074000D01*
X87891689Y-83883403D01*
X87832467Y-83701136D01*
X87736644Y-83535164D01*
X87608407Y-83392743D01*
X87480791Y-83300024D01*
X87453359Y-83280093D01*
X87314447Y-83218247D01*
X87278283Y-83202146D01*
X87278281Y-83202145D01*
X87278280Y-83202145D01*
X87090824Y-83162300D01*
X86899176Y-83162300D01*
X86711719Y-83202145D01*
X86536640Y-83280093D01*
X86381591Y-83392744D01*
X86253355Y-83535165D01*
X86157534Y-83701132D01*
X86157533Y-83701134D01*
X86098312Y-83883398D01*
X86098311Y-83883400D01*
X86078278Y-84074000D01*
X86098311Y-84264599D01*
X86098312Y-84264601D01*
X86157533Y-84446865D01*
X86157534Y-84446867D01*
X86245310Y-84598900D01*
X86261783Y-84666800D01*
X86238930Y-84732827D01*
X86184009Y-84776018D01*
X86137923Y-84784900D01*
X85312077Y-84784900D01*
X85245038Y-84765215D01*
X85199283Y-84712411D01*
X85189339Y-84643253D01*
X85204690Y-84598900D01*
X85276800Y-84474000D01*
X85292467Y-84446864D01*
X85351689Y-84264597D01*
X85371722Y-84074000D01*
X85351689Y-83883403D01*
X85292467Y-83701136D01*
X85196644Y-83535164D01*
X85068407Y-83392743D01*
X84940791Y-83300024D01*
X84913359Y-83280093D01*
X84774447Y-83218247D01*
X84738283Y-83202146D01*
X84738281Y-83202145D01*
X84738280Y-83202145D01*
X84550824Y-83162300D01*
X84359176Y-83162300D01*
X84171719Y-83202145D01*
X83996640Y-83280093D01*
X83841591Y-83392744D01*
X83713355Y-83535165D01*
X83617534Y-83701132D01*
X83617533Y-83701134D01*
X83558312Y-83883398D01*
X83558311Y-83883400D01*
X83538278Y-84074000D01*
X83558311Y-84264599D01*
X83558312Y-84264601D01*
X83617533Y-84446865D01*
X83617534Y-84446867D01*
X83705310Y-84598900D01*
X83721783Y-84666800D01*
X83698930Y-84732827D01*
X83644009Y-84776018D01*
X83597923Y-84784900D01*
X82950700Y-84784900D01*
X82883661Y-84765215D01*
X82837906Y-84712411D01*
X82826700Y-84660900D01*
X82826700Y-83343049D01*
X82826699Y-83343047D01*
X82815068Y-83284570D01*
X82815067Y-83284569D01*
X82770752Y-83218247D01*
X82704430Y-83173932D01*
X82704429Y-83173931D01*
X82645952Y-83162300D01*
X82645948Y-83162300D01*
X81184052Y-83162300D01*
X81184047Y-83162300D01*
X81125570Y-83173931D01*
X81125569Y-83173932D01*
X81059247Y-83218247D01*
X81014932Y-83284569D01*
X81014931Y-83284570D01*
X81003300Y-83343047D01*
X81003300Y-84660900D01*
X80983615Y-84727939D01*
X80930811Y-84773694D01*
X80879300Y-84784900D01*
X80574555Y-84784900D01*
X80507516Y-84765215D01*
X80461761Y-84712411D01*
X80451817Y-84643253D01*
X80462173Y-84608496D01*
X80517501Y-84489843D01*
X80517506Y-84489829D01*
X80572354Y-84285131D01*
X80572356Y-84285120D01*
X80590827Y-84074001D01*
X80590827Y-84073998D01*
X80572356Y-83862879D01*
X80572354Y-83862868D01*
X80517506Y-83658170D01*
X80517502Y-83658161D01*
X80427934Y-83466083D01*
X80390266Y-83412286D01*
X80390265Y-83412285D01*
X79775000Y-84027550D01*
X79775000Y-84021339D01*
X79747741Y-83919606D01*
X79695080Y-83828394D01*
X79620606Y-83753920D01*
X79529394Y-83701259D01*
X79427661Y-83674000D01*
X79421448Y-83674000D01*
X80036713Y-83058734D01*
X80036712Y-83058733D01*
X79982914Y-83021063D01*
X79982912Y-83021062D01*
X79790838Y-82931497D01*
X79790829Y-82931493D01*
X79586131Y-82876645D01*
X79586120Y-82876643D01*
X79375002Y-82858173D01*
X79374998Y-82858173D01*
X79163879Y-82876643D01*
X79163868Y-82876645D01*
X78959170Y-82931493D01*
X78959161Y-82931497D01*
X78767088Y-83021062D01*
X78713286Y-83058733D01*
X79328553Y-83674000D01*
X79322339Y-83674000D01*
X79220606Y-83701259D01*
X79129394Y-83753920D01*
X79054920Y-83828394D01*
X79002259Y-83919606D01*
X78975000Y-84021339D01*
X78975000Y-84027553D01*
X78359733Y-83412286D01*
X78322062Y-83466088D01*
X78232497Y-83658161D01*
X78232493Y-83658170D01*
X78177645Y-83862868D01*
X78177643Y-83862879D01*
X78159173Y-84073998D01*
X78159173Y-84074001D01*
X78177643Y-84285120D01*
X78177645Y-84285131D01*
X78232493Y-84489829D01*
X78232498Y-84489843D01*
X78287827Y-84608496D01*
X78298319Y-84677573D01*
X78269799Y-84741357D01*
X78211322Y-84779596D01*
X78175445Y-84784900D01*
X77692077Y-84784900D01*
X77625038Y-84765215D01*
X77579283Y-84712411D01*
X77569339Y-84643253D01*
X77584690Y-84598900D01*
X77656800Y-84474000D01*
X77672467Y-84446864D01*
X77731689Y-84264597D01*
X77751722Y-84074000D01*
X77731689Y-83883403D01*
X77672467Y-83701136D01*
X77576644Y-83535164D01*
X77448407Y-83392743D01*
X77320791Y-83300024D01*
X77293359Y-83280093D01*
X77154447Y-83218247D01*
X77118283Y-83202146D01*
X77118281Y-83202145D01*
X77118280Y-83202145D01*
X76930824Y-83162300D01*
X76739176Y-83162300D01*
X76551719Y-83202145D01*
X76376640Y-83280093D01*
X76221591Y-83392744D01*
X76093355Y-83535165D01*
X75997534Y-83701132D01*
X75997533Y-83701134D01*
X75938312Y-83883398D01*
X75938311Y-83883400D01*
X75918278Y-84074000D01*
X75938311Y-84264599D01*
X75938312Y-84264601D01*
X75997533Y-84446865D01*
X75997534Y-84446867D01*
X76067113Y-84567382D01*
X76093356Y-84612836D01*
X76096874Y-84616743D01*
X76127104Y-84679734D01*
X76118480Y-84749069D01*
X76073739Y-84802735D01*
X76066725Y-84807103D01*
X75992541Y-84849932D01*
X75992536Y-84849936D01*
X75047337Y-85795135D01*
X75047335Y-85795138D01*
X75004482Y-85869361D01*
X74992322Y-85914744D01*
X74992322Y-85914745D01*
X74992321Y-85914744D01*
X74982300Y-85952145D01*
X74982300Y-85952147D01*
X74982300Y-87583947D01*
X74982300Y-87669653D01*
X74988967Y-87694534D01*
X75004482Y-87752440D01*
X75025908Y-87789550D01*
X75047335Y-87826662D01*
X75047337Y-87826664D01*
X75944850Y-88724177D01*
X75978335Y-88785500D01*
X75975100Y-88850175D01*
X75938313Y-88963395D01*
X75938311Y-88963400D01*
X75918278Y-89154000D01*
X75938311Y-89344599D01*
X75938312Y-89344601D01*
X75997533Y-89526865D01*
X75997534Y-89526867D01*
X76067113Y-89647382D01*
X76093356Y-89692836D01*
X76147314Y-89752762D01*
X76206932Y-89818975D01*
X76221593Y-89835257D01*
X76284085Y-89880660D01*
X76376640Y-89947906D01*
X76443847Y-89977827D01*
X76551717Y-90025854D01*
X76739176Y-90065700D01*
X76930824Y-90065700D01*
X77118283Y-90025854D01*
X77293361Y-89947905D01*
X77385916Y-89880659D01*
X77451720Y-89857180D01*
X77519774Y-89873005D01*
X77568469Y-89923110D01*
X77582800Y-89980978D01*
X77582800Y-90434510D01*
X77563115Y-90501549D01*
X77546481Y-90522191D01*
X77267280Y-90801391D01*
X77205957Y-90834876D01*
X77136265Y-90829892D01*
X77129168Y-90826992D01*
X77124922Y-90825101D01*
X77118283Y-90822146D01*
X77118281Y-90822145D01*
X77118280Y-90822145D01*
X76930824Y-90782300D01*
X76739176Y-90782300D01*
X76551719Y-90822145D01*
X76376640Y-90900093D01*
X76221591Y-91012744D01*
X76093355Y-91155165D01*
X75997534Y-91321132D01*
X75997533Y-91321134D01*
X75938312Y-91503398D01*
X75938311Y-91503400D01*
X75918278Y-91694000D01*
X75938311Y-91884599D01*
X75938312Y-91884601D01*
X75997533Y-92066865D01*
X75997534Y-92066867D01*
X76061243Y-92177214D01*
X76093356Y-92232836D01*
X76120744Y-92263253D01*
X76206932Y-92358975D01*
X76221593Y-92375257D01*
X76292924Y-92427082D01*
X76376640Y-92487906D01*
X76443847Y-92517827D01*
X76551717Y-92565854D01*
X76739176Y-92605700D01*
X76930824Y-92605700D01*
X77118283Y-92565854D01*
X77293361Y-92487905D01*
X77448407Y-92375257D01*
X77576644Y-92232836D01*
X77672467Y-92066864D01*
X77731689Y-91884597D01*
X77751722Y-91694000D01*
X77731689Y-91503403D01*
X77694898Y-91390174D01*
X77692904Y-91320334D01*
X77725147Y-91264178D01*
X78168765Y-90820562D01*
X78190855Y-90782300D01*
X78211618Y-90746338D01*
X78233800Y-90663553D01*
X78233800Y-89374043D01*
X78253485Y-89307004D01*
X78306289Y-89261249D01*
X78375447Y-89251305D01*
X78439003Y-89280330D01*
X78476777Y-89339108D01*
X78477649Y-89342559D01*
X78478310Y-89344596D01*
X78478311Y-89344597D01*
X78478312Y-89344599D01*
X78537533Y-89526865D01*
X78537534Y-89526867D01*
X78607113Y-89647382D01*
X78633356Y-89692836D01*
X78687314Y-89752762D01*
X78746932Y-89818975D01*
X78761593Y-89835257D01*
X78824085Y-89880660D01*
X78916640Y-89947906D01*
X78983847Y-89977827D01*
X79091717Y-90025854D01*
X79279176Y-90065700D01*
X79470824Y-90065700D01*
X79658283Y-90025854D01*
X79661360Y-90024483D01*
X79669164Y-90021010D01*
X79738414Y-90011725D01*
X79801691Y-90041353D01*
X79807281Y-90046608D01*
X80567994Y-90807320D01*
X80568004Y-90807331D01*
X80572334Y-90811661D01*
X80572335Y-90811662D01*
X80632938Y-90872265D01*
X80632940Y-90872266D01*
X80632944Y-90872269D01*
X80681141Y-90900095D01*
X80707162Y-90915118D01*
X80789948Y-90937301D01*
X80789950Y-90937301D01*
X80883249Y-90937301D01*
X80883265Y-90937300D01*
X86171013Y-90937300D01*
X86238052Y-90956985D01*
X86283807Y-91009789D01*
X86293751Y-91078947D01*
X86264726Y-91142503D01*
X86263164Y-91144271D01*
X86253355Y-91155165D01*
X86157534Y-91321132D01*
X86157533Y-91321134D01*
X86098312Y-91503398D01*
X86098311Y-91503400D01*
X86078278Y-91694000D01*
X86098311Y-91884599D01*
X86098312Y-91884601D01*
X86157533Y-92066865D01*
X86157534Y-92066867D01*
X86245310Y-92218900D01*
X86261783Y-92286800D01*
X86238930Y-92352827D01*
X86184009Y-92396018D01*
X86137923Y-92404900D01*
X80232077Y-92404900D01*
X80165038Y-92385215D01*
X80119283Y-92332411D01*
X80109339Y-92263253D01*
X80124690Y-92218900D01*
X80159165Y-92159186D01*
X80212467Y-92066864D01*
X80271689Y-91884597D01*
X80291722Y-91694000D01*
X80271689Y-91503403D01*
X80212467Y-91321136D01*
X80116644Y-91155164D01*
X79988407Y-91012743D01*
X79886173Y-90938465D01*
X79833359Y-90900093D01*
X79669167Y-90826992D01*
X79658283Y-90822146D01*
X79658281Y-90822145D01*
X79658280Y-90822145D01*
X79470824Y-90782300D01*
X79279176Y-90782300D01*
X79091719Y-90822145D01*
X78916640Y-90900093D01*
X78761591Y-91012744D01*
X78633355Y-91155165D01*
X78537534Y-91321132D01*
X78537533Y-91321134D01*
X78478312Y-91503398D01*
X78478311Y-91503400D01*
X78458278Y-91694000D01*
X78478311Y-91884599D01*
X78478312Y-91884601D01*
X78537533Y-92066865D01*
X78537534Y-92066867D01*
X78601243Y-92177214D01*
X78633356Y-92232836D01*
X78660744Y-92263253D01*
X78746932Y-92358975D01*
X78761593Y-92375257D01*
X78916639Y-92487905D01*
X78916640Y-92487905D01*
X78916641Y-92487906D01*
X78930558Y-92494102D01*
X78983796Y-92539350D01*
X79004120Y-92606198D01*
X78985077Y-92673423D01*
X78967807Y-92695064D01*
X77838788Y-93824085D01*
X77837666Y-93822963D01*
X77788785Y-93858651D01*
X77719039Y-93862801D01*
X77658121Y-93828586D01*
X77639457Y-93803959D01*
X77576645Y-93695165D01*
X77448408Y-93552744D01*
X77434333Y-93542518D01*
X77374979Y-93499394D01*
X77293359Y-93440093D01*
X77158384Y-93380000D01*
X77118283Y-93362146D01*
X77118281Y-93362145D01*
X77118280Y-93362145D01*
X76930824Y-93322300D01*
X76739176Y-93322300D01*
X76551719Y-93362145D01*
X76376640Y-93440093D01*
X76221591Y-93552744D01*
X76093355Y-93695165D01*
X75997534Y-93861132D01*
X75997533Y-93861134D01*
X75938312Y-94043398D01*
X75938311Y-94043400D01*
X75918278Y-94234000D01*
X75938311Y-94424599D01*
X75938312Y-94424601D01*
X75997533Y-94606865D01*
X75997534Y-94606867D01*
X76054202Y-94705019D01*
X76093356Y-94772836D01*
X76134975Y-94819058D01*
X76206932Y-94898975D01*
X76221593Y-94915257D01*
X76291923Y-94966355D01*
X76376640Y-95027906D01*
X76443847Y-95057827D01*
X76551717Y-95105854D01*
X76739176Y-95145700D01*
X76930823Y-95145700D01*
X76930824Y-95145700D01*
X77118283Y-95105854D01*
X77118286Y-95105852D01*
X77124381Y-95104557D01*
X77194049Y-95109873D01*
X77249782Y-95152009D01*
X77273888Y-95217589D01*
X77258711Y-95285791D01*
X77237844Y-95313528D01*
X69405337Y-103146035D01*
X69405333Y-103146041D01*
X69362481Y-103220261D01*
X69362482Y-103220262D01*
X69340300Y-103303047D01*
X69340300Y-106190500D01*
X69320615Y-106257539D01*
X69267811Y-106303294D01*
X69216300Y-106314500D01*
X68990100Y-106314500D01*
X68923061Y-106294815D01*
X68877306Y-106242011D01*
X68866100Y-106190500D01*
X68866100Y-99539589D01*
X68885785Y-99472550D01*
X68902414Y-99451912D01*
X68967455Y-99386871D01*
X69028775Y-99353388D01*
X69091129Y-99355893D01*
X69272868Y-99411024D01*
X69469000Y-99430341D01*
X69665132Y-99411024D01*
X69853727Y-99353814D01*
X69908312Y-99324638D01*
X70027532Y-99260913D01*
X70027534Y-99260912D01*
X70027538Y-99260910D01*
X70179883Y-99135883D01*
X70304910Y-98983538D01*
X70368638Y-98864311D01*
X70397811Y-98809733D01*
X70397811Y-98809732D01*
X70397814Y-98809727D01*
X70455024Y-98621132D01*
X70474341Y-98425000D01*
X70455024Y-98228868D01*
X70397814Y-98040273D01*
X70397811Y-98040269D01*
X70397811Y-98040266D01*
X70304913Y-97866467D01*
X70304909Y-97866460D01*
X70179883Y-97714116D01*
X70027539Y-97589090D01*
X70027532Y-97589086D01*
X69853733Y-97496188D01*
X69853727Y-97496186D01*
X69665132Y-97438976D01*
X69665129Y-97438975D01*
X69469000Y-97419659D01*
X69272870Y-97438975D01*
X69084266Y-97496188D01*
X68910467Y-97589086D01*
X68910460Y-97589090D01*
X68758116Y-97714116D01*
X68633090Y-97866460D01*
X68633085Y-97866467D01*
X68543563Y-98033953D01*
X68494601Y-98083798D01*
X68434205Y-98099500D01*
X67772289Y-98099500D01*
X67705250Y-98079815D01*
X67684608Y-98063181D01*
X65245964Y-95624537D01*
X65245962Y-95624535D01*
X65196365Y-95595900D01*
X65171740Y-95581682D01*
X65130346Y-95570591D01*
X65088953Y-95559500D01*
X65088952Y-95559500D01*
X64955795Y-95559500D01*
X64888756Y-95539815D01*
X64846437Y-95493953D01*
X64756914Y-95326467D01*
X64756909Y-95326460D01*
X64631883Y-95174116D01*
X64479539Y-95049090D01*
X64479532Y-95049086D01*
X64305733Y-94956188D01*
X64305727Y-94956186D01*
X64117132Y-94898976D01*
X64117129Y-94898975D01*
X63921000Y-94879659D01*
X63724870Y-94898975D01*
X63536266Y-94956188D01*
X63362467Y-95049086D01*
X63362460Y-95049090D01*
X63210116Y-95174116D01*
X63085090Y-95326460D01*
X63085086Y-95326467D01*
X62992188Y-95500266D01*
X62934975Y-95688870D01*
X62915659Y-95885000D01*
X62934975Y-96081129D01*
X62992188Y-96269733D01*
X63085086Y-96443532D01*
X63085090Y-96443539D01*
X63210116Y-96595883D01*
X63362460Y-96720909D01*
X63362467Y-96720913D01*
X63536266Y-96813811D01*
X63536269Y-96813811D01*
X63536273Y-96813814D01*
X63724868Y-96871024D01*
X63921000Y-96890341D01*
X64117132Y-96871024D01*
X64305727Y-96813814D01*
X64479538Y-96720910D01*
X64631883Y-96595883D01*
X64756910Y-96443538D01*
X64813038Y-96338529D01*
X64861998Y-96288687D01*
X64930136Y-96273226D01*
X64995816Y-96297057D01*
X65010076Y-96309303D01*
X67325634Y-98624861D01*
X67325635Y-98624862D01*
X67386238Y-98685465D01*
X67386240Y-98685466D01*
X67386244Y-98685469D01*
X67460455Y-98728314D01*
X67460462Y-98728318D01*
X67543247Y-98750500D01*
X68383810Y-98750500D01*
X68450849Y-98770185D01*
X68496604Y-98822989D01*
X68506548Y-98892147D01*
X68477523Y-98955703D01*
X68471491Y-98962181D01*
X68280137Y-99153535D01*
X68280133Y-99153541D01*
X68237281Y-99227761D01*
X68237282Y-99227762D01*
X68215100Y-99310547D01*
X68215100Y-106190500D01*
X68195415Y-106257539D01*
X68142611Y-106303294D01*
X68091100Y-106314500D01*
X67720847Y-106314500D01*
X67662370Y-106326131D01*
X67662369Y-106326132D01*
X67596047Y-106370447D01*
X67551732Y-106436769D01*
X67551731Y-106436770D01*
X67540100Y-106495247D01*
X67540100Y-108134752D01*
X67551731Y-108193229D01*
X67551732Y-108193230D01*
X67596047Y-108259552D01*
X67662369Y-108303867D01*
X67662370Y-108303868D01*
X67720847Y-108315499D01*
X67720850Y-108315500D01*
X67720852Y-108315500D01*
X69216300Y-108315500D01*
X69283339Y-108335185D01*
X69329094Y-108387989D01*
X69340300Y-108439500D01*
X69340300Y-118722611D01*
X69320615Y-118789650D01*
X69303981Y-118810292D01*
X59164537Y-128949735D01*
X59164533Y-128949741D01*
X59121681Y-129023961D01*
X59121682Y-129023962D01*
X59099500Y-129106747D01*
X59099500Y-133867500D01*
X59079815Y-133934539D01*
X59027011Y-133980294D01*
X58975500Y-133991500D01*
X58405247Y-133991500D01*
X58346770Y-134003131D01*
X58346769Y-134003132D01*
X58280447Y-134047447D01*
X58229348Y-134123923D01*
X58227901Y-134122956D01*
X58193163Y-134166059D01*
X58126868Y-134188121D01*
X58122448Y-134188200D01*
X56767552Y-134188200D01*
X56700513Y-134168515D01*
X56661425Y-134123405D01*
X56660652Y-134123923D01*
X56656535Y-134117762D01*
X56654758Y-134115711D01*
X56653996Y-134113962D01*
X56609552Y-134047447D01*
X56543230Y-134003132D01*
X56543229Y-134003131D01*
X56484752Y-133991500D01*
X56484748Y-133991500D01*
X55914500Y-133991500D01*
X55847461Y-133971815D01*
X55801706Y-133919011D01*
X55790500Y-133867500D01*
X55790500Y-133824049D01*
X55790500Y-133824047D01*
X55768318Y-133741262D01*
X55768314Y-133741255D01*
X55725469Y-133667044D01*
X55725463Y-133667036D01*
X55537419Y-133478992D01*
X55503934Y-133417669D01*
X55501100Y-133391311D01*
X55501100Y-106495247D01*
X59920100Y-106495247D01*
X59920100Y-108134752D01*
X59931731Y-108193229D01*
X59931732Y-108193230D01*
X59976047Y-108259552D01*
X60042369Y-108303867D01*
X60042370Y-108303868D01*
X60100847Y-108315499D01*
X60100850Y-108315500D01*
X60100852Y-108315500D01*
X61740350Y-108315500D01*
X61740351Y-108315499D01*
X61755168Y-108312552D01*
X61798829Y-108303868D01*
X61798829Y-108303867D01*
X61798831Y-108303867D01*
X61865152Y-108259552D01*
X61909467Y-108193231D01*
X61909467Y-108193229D01*
X61909468Y-108193229D01*
X61921099Y-108134752D01*
X61921100Y-108134750D01*
X61921100Y-107315000D01*
X62415259Y-107315000D01*
X62434575Y-107511129D01*
X62491788Y-107699733D01*
X62584686Y-107873532D01*
X62584690Y-107873539D01*
X62709716Y-108025883D01*
X62862060Y-108150909D01*
X62862067Y-108150913D01*
X63035866Y-108243811D01*
X63035869Y-108243811D01*
X63035873Y-108243814D01*
X63224468Y-108301024D01*
X63420600Y-108320341D01*
X63616732Y-108301024D01*
X63805327Y-108243814D01*
X63979138Y-108150910D01*
X64131483Y-108025883D01*
X64256510Y-107873538D01*
X64349414Y-107699727D01*
X64406624Y-107511132D01*
X64425941Y-107315000D01*
X64406624Y-107118868D01*
X64349414Y-106930273D01*
X64349411Y-106930269D01*
X64349411Y-106930266D01*
X64256513Y-106756467D01*
X64256509Y-106756460D01*
X64131483Y-106604116D01*
X63979139Y-106479090D01*
X63979132Y-106479086D01*
X63805333Y-106386188D01*
X63805327Y-106386186D01*
X63616732Y-106328976D01*
X63616729Y-106328975D01*
X63420600Y-106309659D01*
X63224470Y-106328975D01*
X63035866Y-106386188D01*
X62862067Y-106479086D01*
X62862060Y-106479090D01*
X62709716Y-106604116D01*
X62584690Y-106756460D01*
X62584686Y-106756467D01*
X62491788Y-106930266D01*
X62434575Y-107118870D01*
X62415259Y-107315000D01*
X61921100Y-107315000D01*
X61921100Y-106495249D01*
X61921099Y-106495247D01*
X61909468Y-106436770D01*
X61909467Y-106436769D01*
X61865152Y-106370447D01*
X61798830Y-106326132D01*
X61798829Y-106326131D01*
X61740352Y-106314500D01*
X61740348Y-106314500D01*
X60100852Y-106314500D01*
X60100847Y-106314500D01*
X60042370Y-106326131D01*
X60042369Y-106326132D01*
X59976047Y-106370447D01*
X59931732Y-106436769D01*
X59931731Y-106436770D01*
X59920100Y-106495247D01*
X55501100Y-106495247D01*
X55501100Y-99325005D01*
X55520785Y-99257966D01*
X55573589Y-99212211D01*
X55642747Y-99202267D01*
X55703763Y-99229151D01*
X55742462Y-99260910D01*
X55742466Y-99260912D01*
X55742467Y-99260913D01*
X55916266Y-99353811D01*
X55916269Y-99353811D01*
X55916273Y-99353814D01*
X56104868Y-99411024D01*
X56301000Y-99430341D01*
X56497132Y-99411024D01*
X56685727Y-99353814D01*
X56740312Y-99324638D01*
X56859532Y-99260913D01*
X56859534Y-99260912D01*
X56859538Y-99260910D01*
X57011883Y-99135883D01*
X57136910Y-98983538D01*
X57136910Y-98983536D01*
X57136914Y-98983532D01*
X57226437Y-98816047D01*
X57275399Y-98766202D01*
X57335795Y-98750500D01*
X62886205Y-98750500D01*
X62953244Y-98770185D01*
X62995563Y-98816047D01*
X63085085Y-98983532D01*
X63085090Y-98983539D01*
X63210116Y-99135883D01*
X63362460Y-99260909D01*
X63362467Y-99260913D01*
X63536266Y-99353811D01*
X63536269Y-99353811D01*
X63536273Y-99353814D01*
X63724868Y-99411024D01*
X63921000Y-99430341D01*
X64117132Y-99411024D01*
X64305727Y-99353814D01*
X64360312Y-99324638D01*
X64479532Y-99260913D01*
X64479534Y-99260912D01*
X64479538Y-99260910D01*
X64631883Y-99135883D01*
X64756910Y-98983538D01*
X64820638Y-98864311D01*
X64849811Y-98809733D01*
X64849811Y-98809732D01*
X64849814Y-98809727D01*
X64907024Y-98621132D01*
X64926341Y-98425000D01*
X64907024Y-98228868D01*
X64849814Y-98040273D01*
X64849811Y-98040269D01*
X64849811Y-98040266D01*
X64756913Y-97866467D01*
X64756909Y-97866460D01*
X64631883Y-97714116D01*
X64479539Y-97589090D01*
X64479532Y-97589086D01*
X64305733Y-97496188D01*
X64305727Y-97496186D01*
X64117132Y-97438976D01*
X64117129Y-97438975D01*
X63921000Y-97419659D01*
X63724870Y-97438975D01*
X63536266Y-97496188D01*
X63362467Y-97589086D01*
X63362460Y-97589090D01*
X63210116Y-97714116D01*
X63085090Y-97866460D01*
X63085085Y-97866467D01*
X62995563Y-98033953D01*
X62946601Y-98083798D01*
X62886205Y-98099500D01*
X57335795Y-98099500D01*
X57268756Y-98079815D01*
X57226437Y-98033953D01*
X57136914Y-97866467D01*
X57136909Y-97866460D01*
X57011883Y-97714116D01*
X56859539Y-97589090D01*
X56859532Y-97589086D01*
X56685733Y-97496188D01*
X56685727Y-97496186D01*
X56497132Y-97438976D01*
X56497129Y-97438975D01*
X56301000Y-97419659D01*
X56104870Y-97438975D01*
X55916266Y-97496188D01*
X55742467Y-97589086D01*
X55742461Y-97589090D01*
X55703764Y-97620848D01*
X55639454Y-97648160D01*
X55570587Y-97636369D01*
X55519027Y-97589216D01*
X55501100Y-97524994D01*
X55501100Y-96785005D01*
X55520785Y-96717966D01*
X55573589Y-96672211D01*
X55642747Y-96662267D01*
X55703763Y-96689151D01*
X55742462Y-96720910D01*
X55742466Y-96720912D01*
X55742467Y-96720913D01*
X55916266Y-96813811D01*
X55916269Y-96813811D01*
X55916273Y-96813814D01*
X56104868Y-96871024D01*
X56301000Y-96890341D01*
X56497132Y-96871024D01*
X56685727Y-96813814D01*
X56859538Y-96720910D01*
X57011883Y-96595883D01*
X57136910Y-96443538D01*
X57193037Y-96338532D01*
X57229811Y-96269733D01*
X57229811Y-96269732D01*
X57229814Y-96269727D01*
X57287024Y-96081132D01*
X57306341Y-95885000D01*
X57287024Y-95688868D01*
X57229814Y-95500273D01*
X57229811Y-95500269D01*
X57229811Y-95500266D01*
X57136913Y-95326467D01*
X57136909Y-95326460D01*
X57011883Y-95174116D01*
X56859539Y-95049090D01*
X56859532Y-95049086D01*
X56685733Y-94956188D01*
X56685727Y-94956186D01*
X56497132Y-94898976D01*
X56497129Y-94898975D01*
X56301000Y-94879659D01*
X56104870Y-94898975D01*
X55916266Y-94956188D01*
X55742467Y-95049086D01*
X55742461Y-95049090D01*
X55703764Y-95080848D01*
X55639454Y-95108160D01*
X55570587Y-95096369D01*
X55519027Y-95049216D01*
X55501100Y-94984994D01*
X55501100Y-94601033D01*
X55520785Y-94533994D01*
X55573589Y-94488239D01*
X55642747Y-94478295D01*
X55677505Y-94488651D01*
X55854673Y-94571265D01*
X55854682Y-94571269D01*
X56050999Y-94623872D01*
X56051000Y-94623871D01*
X56051000Y-93660686D01*
X56055394Y-93665080D01*
X56146606Y-93717741D01*
X56248339Y-93745000D01*
X56353661Y-93745000D01*
X56455394Y-93717741D01*
X56546606Y-93665080D01*
X56551000Y-93660686D01*
X56551000Y-94623872D01*
X56747317Y-94571269D01*
X56747326Y-94571265D01*
X56953482Y-94475134D01*
X57139820Y-94344657D01*
X57300657Y-94183820D01*
X57431134Y-93997482D01*
X57527265Y-93791326D01*
X57527269Y-93791317D01*
X57579872Y-93595000D01*
X56616686Y-93595000D01*
X56621080Y-93590606D01*
X56673741Y-93499394D01*
X56701000Y-93397661D01*
X56701000Y-93345000D01*
X62915659Y-93345000D01*
X62934975Y-93541129D01*
X62934976Y-93541132D01*
X62972575Y-93665080D01*
X62992188Y-93729733D01*
X63085086Y-93903532D01*
X63085090Y-93903539D01*
X63210116Y-94055883D01*
X63362460Y-94180909D01*
X63362467Y-94180913D01*
X63536266Y-94273811D01*
X63536269Y-94273811D01*
X63536273Y-94273814D01*
X63724868Y-94331024D01*
X63921000Y-94350341D01*
X64117132Y-94331024D01*
X64305727Y-94273814D01*
X64479538Y-94180910D01*
X64631883Y-94055883D01*
X64756910Y-93903538D01*
X64816893Y-93791317D01*
X64849811Y-93729733D01*
X64849811Y-93729732D01*
X64849814Y-93729727D01*
X64907024Y-93541132D01*
X64926341Y-93345000D01*
X64907024Y-93148868D01*
X64849814Y-92960273D01*
X64849811Y-92960269D01*
X64849811Y-92960266D01*
X64756913Y-92786467D01*
X64756909Y-92786460D01*
X64631883Y-92634116D01*
X64479539Y-92509090D01*
X64479532Y-92509086D01*
X64305733Y-92416188D01*
X64305727Y-92416186D01*
X64117132Y-92358976D01*
X64117129Y-92358975D01*
X63921000Y-92339659D01*
X63724870Y-92358975D01*
X63536266Y-92416188D01*
X63362467Y-92509086D01*
X63362460Y-92509090D01*
X63210116Y-92634116D01*
X63085090Y-92786460D01*
X63085086Y-92786467D01*
X62992188Y-92960266D01*
X62934975Y-93148870D01*
X62915659Y-93345000D01*
X56701000Y-93345000D01*
X56701000Y-93292339D01*
X56673741Y-93190606D01*
X56621080Y-93099394D01*
X56616686Y-93095000D01*
X57579872Y-93095000D01*
X57579872Y-93094999D01*
X57527269Y-92898682D01*
X57527265Y-92898673D01*
X57431134Y-92692517D01*
X57300657Y-92506179D01*
X57139820Y-92345342D01*
X56953482Y-92214865D01*
X56747328Y-92118734D01*
X56551000Y-92066127D01*
X56551000Y-93029314D01*
X56546606Y-93024920D01*
X56455394Y-92972259D01*
X56353661Y-92945000D01*
X56248339Y-92945000D01*
X56146606Y-92972259D01*
X56055394Y-93024920D01*
X56051000Y-93029314D01*
X56051000Y-92066127D01*
X55854669Y-92118735D01*
X55729260Y-92177214D01*
X55660183Y-92187706D01*
X55596399Y-92159186D01*
X55558160Y-92100709D01*
X55557606Y-92030842D01*
X55589173Y-91977152D01*
X55799454Y-91766871D01*
X55860775Y-91733388D01*
X55923126Y-91735892D01*
X56104868Y-91791024D01*
X56301000Y-91810341D01*
X56497132Y-91791024D01*
X56685727Y-91733814D01*
X56691851Y-91730541D01*
X56816295Y-91664024D01*
X56859538Y-91640910D01*
X57011883Y-91515883D01*
X57136910Y-91363538D01*
X57190020Y-91264176D01*
X57229811Y-91189733D01*
X57229811Y-91189732D01*
X57229814Y-91189727D01*
X57287024Y-91001132D01*
X57306341Y-90805000D01*
X62915659Y-90805000D01*
X62934975Y-91001129D01*
X62934976Y-91001132D01*
X62990105Y-91182868D01*
X62992188Y-91189733D01*
X63085086Y-91363532D01*
X63085090Y-91363539D01*
X63210116Y-91515883D01*
X63362460Y-91640909D01*
X63362467Y-91640913D01*
X63536266Y-91733811D01*
X63536269Y-91733811D01*
X63536273Y-91733814D01*
X63724868Y-91791024D01*
X63921000Y-91810341D01*
X64117132Y-91791024D01*
X64305727Y-91733814D01*
X64311851Y-91730541D01*
X64436295Y-91664024D01*
X64479538Y-91640910D01*
X64631883Y-91515883D01*
X64756910Y-91363538D01*
X64810020Y-91264176D01*
X64849811Y-91189733D01*
X64849811Y-91189732D01*
X64849814Y-91189727D01*
X64907024Y-91001132D01*
X64926341Y-90805000D01*
X64907024Y-90608868D01*
X64849814Y-90420273D01*
X64849811Y-90420269D01*
X64849811Y-90420266D01*
X64756913Y-90246467D01*
X64756909Y-90246460D01*
X64631883Y-90094116D01*
X64479539Y-89969090D01*
X64479532Y-89969086D01*
X64305733Y-89876188D01*
X64305727Y-89876186D01*
X64170796Y-89835255D01*
X64117129Y-89818975D01*
X63921000Y-89799659D01*
X63724870Y-89818975D01*
X63536266Y-89876188D01*
X63362467Y-89969086D01*
X63362460Y-89969090D01*
X63210116Y-90094116D01*
X63085090Y-90246460D01*
X63085086Y-90246467D01*
X62992188Y-90420266D01*
X62934975Y-90608870D01*
X62915659Y-90805000D01*
X57306341Y-90805000D01*
X57287024Y-90608868D01*
X57229814Y-90420273D01*
X57229811Y-90420269D01*
X57229811Y-90420266D01*
X57136913Y-90246467D01*
X57136909Y-90246460D01*
X57011883Y-90094116D01*
X56859539Y-89969090D01*
X56859532Y-89969086D01*
X56685733Y-89876188D01*
X56685727Y-89876186D01*
X56550796Y-89835255D01*
X56497129Y-89818975D01*
X56301000Y-89799659D01*
X56104870Y-89818975D01*
X55916266Y-89876188D01*
X55742467Y-89969086D01*
X55742460Y-89969090D01*
X55590116Y-90094116D01*
X55465090Y-90246460D01*
X55465086Y-90246467D01*
X55372188Y-90420266D01*
X55314975Y-90608870D01*
X55295659Y-90805000D01*
X55314975Y-91001129D01*
X55314976Y-91001132D01*
X55370106Y-91182870D01*
X55370729Y-91252735D01*
X55339126Y-91306545D01*
X54915137Y-91730535D01*
X54915133Y-91730541D01*
X54872342Y-91804657D01*
X54872282Y-91804761D01*
X54872282Y-91804762D01*
X54870788Y-91810340D01*
X54868488Y-91818923D01*
X54850100Y-91887547D01*
X54850100Y-133620352D01*
X54872282Y-133703140D01*
X54893708Y-133740250D01*
X54915135Y-133777362D01*
X54915137Y-133777364D01*
X54917592Y-133779819D01*
X54919000Y-133782398D01*
X54920082Y-133783808D01*
X54919862Y-133783976D01*
X54951077Y-133841142D01*
X54946093Y-133910834D01*
X54904221Y-133966767D01*
X54838757Y-133991184D01*
X54829911Y-133991500D01*
X54445247Y-133991500D01*
X54386770Y-134003131D01*
X54386769Y-134003132D01*
X54320447Y-134047447D01*
X54269348Y-134123923D01*
X54267901Y-134122956D01*
X54233163Y-134166059D01*
X54166868Y-134188121D01*
X54162448Y-134188200D01*
X51565623Y-134188200D01*
X51498584Y-134168515D01*
X51480947Y-134148872D01*
X51477941Y-134151879D01*
X51445562Y-134119500D01*
X51157562Y-134119500D01*
X43296500Y-134119500D01*
X43229461Y-134099815D01*
X43183706Y-134047011D01*
X43172500Y-133995500D01*
X43172500Y-124794500D01*
X43192185Y-124727461D01*
X43244989Y-124681706D01*
X43296500Y-124670500D01*
X43356223Y-124670500D01*
X43356226Y-124670500D01*
X43674992Y-124640962D01*
X43772885Y-124631891D01*
X43772885Y-124631890D01*
X43772894Y-124631890D01*
X44184222Y-124555000D01*
X44586701Y-124440484D01*
X44976897Y-124289322D01*
X45351481Y-124102801D01*
X45707257Y-123882514D01*
X46041189Y-123630340D01*
X46350430Y-123348430D01*
X46632340Y-123039189D01*
X46884514Y-122705257D01*
X47104801Y-122349481D01*
X47291322Y-121974897D01*
X47442484Y-121584701D01*
X47557000Y-121182222D01*
X47633890Y-120770894D01*
X47635117Y-120757659D01*
X47655659Y-120535964D01*
X47672500Y-120354226D01*
X47672500Y-119935774D01*
X47633890Y-119519106D01*
X47557000Y-119107778D01*
X47442484Y-118705299D01*
X47291322Y-118315103D01*
X47104801Y-117940519D01*
X46884514Y-117584743D01*
X46692393Y-117330334D01*
X46632344Y-117250816D01*
X46632337Y-117250807D01*
X46506858Y-117113164D01*
X46350430Y-116941570D01*
X46179211Y-116785483D01*
X46041192Y-116659662D01*
X46041183Y-116659655D01*
X45707258Y-116407487D01*
X45707257Y-116407486D01*
X45351481Y-116187199D01*
X44976897Y-116000678D01*
X44586701Y-115849516D01*
X44586699Y-115849515D01*
X44586698Y-115849515D01*
X44184229Y-115735001D01*
X44026378Y-115705494D01*
X43772894Y-115658110D01*
X43772888Y-115658109D01*
X43772886Y-115658109D01*
X43772885Y-115658108D01*
X43436435Y-115626932D01*
X43356226Y-115619500D01*
X43356223Y-115619500D01*
X43296500Y-115619500D01*
X43229461Y-115599815D01*
X43183706Y-115547011D01*
X43172500Y-115495500D01*
X43172500Y-88265000D01*
X49921659Y-88265000D01*
X49940975Y-88461129D01*
X49940976Y-88461132D01*
X49988729Y-88618553D01*
X49998188Y-88649733D01*
X50091086Y-88823532D01*
X50091090Y-88823539D01*
X50216116Y-88975883D01*
X50368460Y-89100909D01*
X50368467Y-89100913D01*
X50542266Y-89193811D01*
X50542269Y-89193811D01*
X50542273Y-89193814D01*
X50730868Y-89251024D01*
X50927000Y-89270341D01*
X51123132Y-89251024D01*
X51311727Y-89193814D01*
X51485538Y-89100910D01*
X51637883Y-88975883D01*
X51762910Y-88823538D01*
X51762910Y-88823536D01*
X51762914Y-88823532D01*
X51852437Y-88656047D01*
X51901399Y-88606202D01*
X51961795Y-88590500D01*
X52094951Y-88590500D01*
X52094953Y-88590500D01*
X52177739Y-88568318D01*
X52251962Y-88525465D01*
X55088466Y-85688959D01*
X55149787Y-85655476D01*
X55219479Y-85660460D01*
X55275412Y-85702332D01*
X55299548Y-85764488D01*
X55314975Y-85921129D01*
X55321666Y-85943185D01*
X55371261Y-86106679D01*
X55372188Y-86109733D01*
X55465086Y-86283532D01*
X55465090Y-86283539D01*
X55590116Y-86435883D01*
X55742460Y-86560909D01*
X55742467Y-86560913D01*
X55916268Y-86653812D01*
X55916270Y-86653812D01*
X55916273Y-86653814D01*
X56033249Y-86689298D01*
X56091686Y-86727595D01*
X56120142Y-86791407D01*
X56109582Y-86860474D01*
X56084934Y-86895638D01*
X56040536Y-86940036D01*
X56040530Y-86940044D01*
X55997685Y-87014255D01*
X55997682Y-87014262D01*
X55975500Y-87097047D01*
X55975500Y-87230205D01*
X55955815Y-87297244D01*
X55909953Y-87339563D01*
X55742467Y-87429085D01*
X55742460Y-87429090D01*
X55590116Y-87554116D01*
X55465090Y-87706460D01*
X55465086Y-87706467D01*
X55372188Y-87880266D01*
X55314975Y-88068870D01*
X55295659Y-88265000D01*
X55314975Y-88461129D01*
X55314976Y-88461132D01*
X55362729Y-88618553D01*
X55372188Y-88649733D01*
X55465086Y-88823532D01*
X55465090Y-88823539D01*
X55590116Y-88975883D01*
X55742460Y-89100909D01*
X55742467Y-89100913D01*
X55916266Y-89193811D01*
X55916269Y-89193811D01*
X55916273Y-89193814D01*
X56104868Y-89251024D01*
X56301000Y-89270341D01*
X56497132Y-89251024D01*
X56685727Y-89193814D01*
X56859538Y-89100910D01*
X57011883Y-88975883D01*
X57136910Y-88823538D01*
X57196893Y-88711317D01*
X57229811Y-88649733D01*
X57229811Y-88649732D01*
X57229814Y-88649727D01*
X57287024Y-88461132D01*
X57306341Y-88265000D01*
X62915659Y-88265000D01*
X62934975Y-88461129D01*
X62934976Y-88461132D01*
X62982729Y-88618553D01*
X62992188Y-88649733D01*
X63085086Y-88823532D01*
X63085090Y-88823539D01*
X63210116Y-88975883D01*
X63362460Y-89100909D01*
X63362467Y-89100913D01*
X63536266Y-89193811D01*
X63536269Y-89193811D01*
X63536273Y-89193814D01*
X63724868Y-89251024D01*
X63921000Y-89270341D01*
X64117132Y-89251024D01*
X64305727Y-89193814D01*
X64479538Y-89100910D01*
X64631883Y-88975883D01*
X64756910Y-88823538D01*
X64816893Y-88711317D01*
X64849811Y-88649733D01*
X64849811Y-88649732D01*
X64849814Y-88649727D01*
X64907024Y-88461132D01*
X64926341Y-88265000D01*
X64926341Y-88264997D01*
X68164034Y-88264997D01*
X68164034Y-88265002D01*
X68183858Y-88491599D01*
X68183860Y-88491610D01*
X68242730Y-88711317D01*
X68242735Y-88711331D01*
X68338863Y-88917478D01*
X68389974Y-88990472D01*
X69069000Y-88311446D01*
X69069000Y-88317661D01*
X69096259Y-88419394D01*
X69148920Y-88510606D01*
X69223394Y-88585080D01*
X69314606Y-88637741D01*
X69416339Y-88665000D01*
X69422553Y-88665000D01*
X68743526Y-89344025D01*
X68816513Y-89395132D01*
X68816517Y-89395134D01*
X68875456Y-89422618D01*
X68927895Y-89468790D01*
X68947047Y-89535984D01*
X68926831Y-89602865D01*
X68875457Y-89647382D01*
X68816515Y-89674867D01*
X68630179Y-89805342D01*
X68469342Y-89966179D01*
X68338865Y-90152517D01*
X68242734Y-90358673D01*
X68242730Y-90358682D01*
X68190127Y-90554999D01*
X68190128Y-90555000D01*
X69153314Y-90555000D01*
X69148920Y-90559394D01*
X69096259Y-90650606D01*
X69069000Y-90752339D01*
X69069000Y-90857661D01*
X69096259Y-90959394D01*
X69148920Y-91050606D01*
X69153314Y-91055000D01*
X68190128Y-91055000D01*
X68242730Y-91251317D01*
X68242734Y-91251326D01*
X68338865Y-91457482D01*
X68469342Y-91643820D01*
X68630179Y-91804657D01*
X68816517Y-91935134D01*
X69022673Y-92031265D01*
X69022682Y-92031269D01*
X69218999Y-92083872D01*
X69219000Y-92083871D01*
X69219000Y-91120686D01*
X69223394Y-91125080D01*
X69314606Y-91177741D01*
X69416339Y-91205000D01*
X69521661Y-91205000D01*
X69623394Y-91177741D01*
X69714606Y-91125080D01*
X69719000Y-91120686D01*
X69719000Y-92083872D01*
X69915317Y-92031269D01*
X69915326Y-92031265D01*
X70121482Y-91935134D01*
X70307820Y-91804657D01*
X70468657Y-91643820D01*
X70599134Y-91457482D01*
X70695265Y-91251326D01*
X70695269Y-91251317D01*
X70747872Y-91055000D01*
X69784686Y-91055000D01*
X69789080Y-91050606D01*
X69841741Y-90959394D01*
X69869000Y-90857661D01*
X69869000Y-90752339D01*
X69841741Y-90650606D01*
X69789080Y-90559394D01*
X69784686Y-90555000D01*
X70747872Y-90555000D01*
X70747872Y-90554999D01*
X70695269Y-90358682D01*
X70695265Y-90358673D01*
X70599134Y-90152517D01*
X70468657Y-89966179D01*
X70307820Y-89805342D01*
X70121482Y-89674865D01*
X70062543Y-89647382D01*
X70010104Y-89601210D01*
X69990952Y-89534016D01*
X70011168Y-89467135D01*
X70062544Y-89422618D01*
X70121478Y-89395136D01*
X70194471Y-89344024D01*
X69515447Y-88665000D01*
X69521661Y-88665000D01*
X69623394Y-88637741D01*
X69714606Y-88585080D01*
X69789080Y-88510606D01*
X69841741Y-88419394D01*
X69869000Y-88317661D01*
X69869000Y-88311447D01*
X70548024Y-88990471D01*
X70599136Y-88917478D01*
X70695264Y-88711331D01*
X70695269Y-88711317D01*
X70754139Y-88491610D01*
X70754141Y-88491599D01*
X70773966Y-88265002D01*
X70773966Y-88264997D01*
X70754141Y-88038400D01*
X70754139Y-88038389D01*
X70695269Y-87818682D01*
X70695264Y-87818668D01*
X70599136Y-87612521D01*
X70599132Y-87612513D01*
X70548025Y-87539526D01*
X69869000Y-88218551D01*
X69869000Y-88212339D01*
X69841741Y-88110606D01*
X69789080Y-88019394D01*
X69714606Y-87944920D01*
X69623394Y-87892259D01*
X69521661Y-87865000D01*
X69515448Y-87865000D01*
X70194472Y-87185974D01*
X70121478Y-87134863D01*
X69915331Y-87038735D01*
X69915317Y-87038730D01*
X69695610Y-86979860D01*
X69695599Y-86979858D01*
X69469002Y-86960034D01*
X69468998Y-86960034D01*
X69242400Y-86979858D01*
X69242389Y-86979860D01*
X69022682Y-87038730D01*
X69022673Y-87038734D01*
X68816516Y-87134866D01*
X68816512Y-87134868D01*
X68743526Y-87185973D01*
X68743526Y-87185974D01*
X69422553Y-87865000D01*
X69416339Y-87865000D01*
X69314606Y-87892259D01*
X69223394Y-87944920D01*
X69148920Y-88019394D01*
X69096259Y-88110606D01*
X69069000Y-88212339D01*
X69069000Y-88218552D01*
X68389974Y-87539526D01*
X68389973Y-87539526D01*
X68338868Y-87612512D01*
X68338866Y-87612516D01*
X68242734Y-87818673D01*
X68242730Y-87818682D01*
X68183860Y-88038389D01*
X68183858Y-88038400D01*
X68164034Y-88264997D01*
X64926341Y-88264997D01*
X64907024Y-88068868D01*
X64849814Y-87880273D01*
X64849811Y-87880269D01*
X64849811Y-87880266D01*
X64756913Y-87706467D01*
X64756909Y-87706460D01*
X64631883Y-87554116D01*
X64479539Y-87429090D01*
X64479532Y-87429086D01*
X64305733Y-87336188D01*
X64305727Y-87336186D01*
X64117132Y-87278976D01*
X64117129Y-87278975D01*
X63921000Y-87259659D01*
X63724870Y-87278975D01*
X63536266Y-87336188D01*
X63362467Y-87429086D01*
X63362460Y-87429090D01*
X63210116Y-87554116D01*
X63085090Y-87706460D01*
X63085086Y-87706467D01*
X62992188Y-87880266D01*
X62934975Y-88068870D01*
X62915659Y-88265000D01*
X57306341Y-88265000D01*
X57287024Y-88068868D01*
X57229814Y-87880273D01*
X57229811Y-87880269D01*
X57229811Y-87880266D01*
X57136913Y-87706467D01*
X57136909Y-87706460D01*
X57011883Y-87554116D01*
X56880545Y-87446330D01*
X56841211Y-87388584D01*
X56839340Y-87318740D01*
X56871527Y-87262798D01*
X57646152Y-86488172D01*
X57646157Y-86488169D01*
X57656360Y-86477965D01*
X57656362Y-86477965D01*
X57716965Y-86417362D01*
X57759818Y-86343138D01*
X57765884Y-86320500D01*
X57782001Y-86260353D01*
X57782001Y-86174647D01*
X57782001Y-86167052D01*
X57782000Y-86167034D01*
X57782000Y-82934999D01*
X62642127Y-82934999D01*
X62642128Y-82935000D01*
X63605314Y-82935000D01*
X63600920Y-82939394D01*
X63548259Y-83030606D01*
X63521000Y-83132339D01*
X63521000Y-83237661D01*
X63548259Y-83339394D01*
X63600920Y-83430606D01*
X63605314Y-83435000D01*
X62642128Y-83435000D01*
X62694730Y-83631317D01*
X62694734Y-83631326D01*
X62790865Y-83837482D01*
X62921342Y-84023820D01*
X63082179Y-84184657D01*
X63268517Y-84315134D01*
X63327457Y-84342618D01*
X63379896Y-84388790D01*
X63399048Y-84455984D01*
X63378832Y-84522865D01*
X63327457Y-84567382D01*
X63268517Y-84594865D01*
X63082179Y-84725342D01*
X62921342Y-84886179D01*
X62790865Y-85072517D01*
X62694734Y-85278673D01*
X62694730Y-85278682D01*
X62642127Y-85474999D01*
X62642128Y-85475000D01*
X63605314Y-85475000D01*
X63600920Y-85479394D01*
X63548259Y-85570606D01*
X63521000Y-85672339D01*
X63521000Y-85777661D01*
X63548259Y-85879394D01*
X63600920Y-85970606D01*
X63605314Y-85975000D01*
X62642128Y-85975000D01*
X62694730Y-86171317D01*
X62694734Y-86171326D01*
X62790865Y-86377482D01*
X62921342Y-86563820D01*
X63082179Y-86724657D01*
X63268517Y-86855134D01*
X63474673Y-86951265D01*
X63474682Y-86951269D01*
X63670999Y-87003872D01*
X63671000Y-87003871D01*
X63671000Y-86040686D01*
X63675394Y-86045080D01*
X63766606Y-86097741D01*
X63868339Y-86125000D01*
X63973661Y-86125000D01*
X64075394Y-86097741D01*
X64166606Y-86045080D01*
X64171000Y-86040686D01*
X64171000Y-87003872D01*
X64367317Y-86951269D01*
X64367326Y-86951265D01*
X64573482Y-86855134D01*
X64759820Y-86724657D01*
X64920657Y-86563820D01*
X65051134Y-86377482D01*
X65147265Y-86171326D01*
X65147269Y-86171317D01*
X65199872Y-85975000D01*
X64236686Y-85975000D01*
X64241080Y-85970606D01*
X64293741Y-85879394D01*
X64321000Y-85777661D01*
X64321000Y-85672339D01*
X64293741Y-85570606D01*
X64241080Y-85479394D01*
X64236686Y-85475000D01*
X65199872Y-85475000D01*
X65199872Y-85474999D01*
X65147269Y-85278682D01*
X65147265Y-85278673D01*
X65051134Y-85072517D01*
X64920657Y-84886179D01*
X64759820Y-84725342D01*
X64573481Y-84594865D01*
X64573479Y-84594864D01*
X64514543Y-84567382D01*
X64462103Y-84521210D01*
X64442951Y-84454017D01*
X64463166Y-84387136D01*
X64514543Y-84342618D01*
X64573479Y-84315135D01*
X64573481Y-84315134D01*
X64759820Y-84184657D01*
X64920657Y-84023820D01*
X65051134Y-83837482D01*
X65147265Y-83631326D01*
X65147269Y-83631317D01*
X65199872Y-83435000D01*
X64236686Y-83435000D01*
X64241080Y-83430606D01*
X64293741Y-83339394D01*
X64321000Y-83237661D01*
X64321000Y-83132339D01*
X64293741Y-83030606D01*
X64241080Y-82939394D01*
X64236686Y-82935000D01*
X65199872Y-82935000D01*
X65199872Y-82934999D01*
X65147269Y-82738682D01*
X65147265Y-82738673D01*
X65051134Y-82532517D01*
X64920657Y-82346179D01*
X64759820Y-82185342D01*
X64573482Y-82054865D01*
X64367326Y-81958734D01*
X64367317Y-81958730D01*
X64147610Y-81899860D01*
X64147599Y-81899858D01*
X64069525Y-81893028D01*
X64004456Y-81867576D01*
X63963477Y-81810985D01*
X63959599Y-81741223D01*
X63994053Y-81680439D01*
X64055900Y-81647931D01*
X64080332Y-81645500D01*
X64740750Y-81645500D01*
X64740751Y-81645499D01*
X64755568Y-81642552D01*
X64799229Y-81633868D01*
X64799229Y-81633867D01*
X64799231Y-81633867D01*
X64865552Y-81589552D01*
X64909867Y-81523231D01*
X64909867Y-81523229D01*
X64909868Y-81523229D01*
X64921499Y-81464752D01*
X64921500Y-81464750D01*
X64921500Y-80645000D01*
X68463659Y-80645000D01*
X68482975Y-80841129D01*
X68493345Y-80875315D01*
X68530729Y-80998553D01*
X68540188Y-81029733D01*
X68633086Y-81203532D01*
X68633090Y-81203539D01*
X68758116Y-81355883D01*
X68910460Y-81480909D01*
X68910467Y-81480913D01*
X69084266Y-81573811D01*
X69084269Y-81573811D01*
X69084273Y-81573814D01*
X69272868Y-81631024D01*
X69469000Y-81650341D01*
X69665132Y-81631024D01*
X69853727Y-81573814D01*
X69928214Y-81534000D01*
X78458278Y-81534000D01*
X78478311Y-81724599D01*
X78478312Y-81724601D01*
X78537533Y-81906865D01*
X78537534Y-81906867D01*
X78591967Y-82001147D01*
X78633356Y-82072836D01*
X78695557Y-82141917D01*
X78743994Y-82195712D01*
X78761593Y-82215257D01*
X78782982Y-82230797D01*
X78916640Y-82327906D01*
X78983847Y-82357827D01*
X79091717Y-82405854D01*
X79279176Y-82445700D01*
X79470824Y-82445700D01*
X79658283Y-82405854D01*
X79833361Y-82327905D01*
X79988407Y-82215257D01*
X80116644Y-82072836D01*
X80212467Y-81906864D01*
X80271689Y-81724597D01*
X80291722Y-81534000D01*
X80291722Y-81533998D01*
X80699173Y-81533998D01*
X80699173Y-81534001D01*
X80717643Y-81745120D01*
X80717645Y-81745131D01*
X80772493Y-81949829D01*
X80772497Y-81949838D01*
X80862062Y-82141912D01*
X80862063Y-82141914D01*
X80899733Y-82195712D01*
X80899734Y-82195713D01*
X81515000Y-81580447D01*
X81515000Y-81586661D01*
X81542259Y-81688394D01*
X81594920Y-81779606D01*
X81669394Y-81854080D01*
X81760606Y-81906741D01*
X81862339Y-81934000D01*
X81868553Y-81934000D01*
X81253285Y-82549265D01*
X81307087Y-82586937D01*
X81499161Y-82676502D01*
X81499170Y-82676506D01*
X81703868Y-82731354D01*
X81703879Y-82731356D01*
X81914998Y-82749827D01*
X81915002Y-82749827D01*
X82126120Y-82731356D01*
X82126131Y-82731354D01*
X82330829Y-82676506D01*
X82330838Y-82676502D01*
X82522913Y-82586937D01*
X82522917Y-82586935D01*
X82576713Y-82549266D01*
X81961448Y-81934000D01*
X81967661Y-81934000D01*
X82069394Y-81906741D01*
X82160606Y-81854080D01*
X82235080Y-81779606D01*
X82287741Y-81688394D01*
X82315000Y-81586661D01*
X82315000Y-81580447D01*
X82930266Y-82195713D01*
X82967935Y-82141917D01*
X82967937Y-82141913D01*
X83057502Y-81949838D01*
X83057506Y-81949829D01*
X83112354Y-81745131D01*
X83112356Y-81745120D01*
X83130827Y-81534001D01*
X83130827Y-81534000D01*
X83538278Y-81534000D01*
X83558311Y-81724599D01*
X83558312Y-81724601D01*
X83617533Y-81906865D01*
X83617534Y-81906867D01*
X83671967Y-82001147D01*
X83713356Y-82072836D01*
X83775557Y-82141917D01*
X83823994Y-82195712D01*
X83841593Y-82215257D01*
X83862982Y-82230797D01*
X83996640Y-82327906D01*
X84063847Y-82357827D01*
X84171717Y-82405854D01*
X84359176Y-82445700D01*
X84550824Y-82445700D01*
X84738283Y-82405854D01*
X84913361Y-82327905D01*
X85068407Y-82215257D01*
X85196644Y-82072836D01*
X85292467Y-81906864D01*
X85351689Y-81724597D01*
X85371722Y-81534000D01*
X85351689Y-81343403D01*
X85292467Y-81161136D01*
X85284016Y-81146499D01*
X85252157Y-81091317D01*
X85196644Y-80995164D01*
X85068407Y-80852743D01*
X84955898Y-80771000D01*
X84913359Y-80740093D01*
X84778944Y-80680249D01*
X84738283Y-80662146D01*
X84738281Y-80662145D01*
X84738280Y-80662145D01*
X84550824Y-80622300D01*
X84359176Y-80622300D01*
X84171719Y-80662145D01*
X83996640Y-80740093D01*
X83841591Y-80852744D01*
X83713355Y-80995165D01*
X83617534Y-81161132D01*
X83617533Y-81161134D01*
X83558312Y-81343398D01*
X83558311Y-81343400D01*
X83538278Y-81534000D01*
X83130827Y-81534000D01*
X83130827Y-81533998D01*
X83112356Y-81322879D01*
X83112354Y-81322868D01*
X83057506Y-81118170D01*
X83057502Y-81118161D01*
X82967934Y-80926083D01*
X82930266Y-80872286D01*
X82930265Y-80872285D01*
X82315000Y-81487551D01*
X82315000Y-81481339D01*
X82287741Y-81379606D01*
X82235080Y-81288394D01*
X82160606Y-81213920D01*
X82069394Y-81161259D01*
X81967661Y-81134000D01*
X81961448Y-81134000D01*
X82576713Y-80518734D01*
X82576712Y-80518733D01*
X82522914Y-80481063D01*
X82522912Y-80481062D01*
X82330838Y-80391497D01*
X82330829Y-80391493D01*
X82126131Y-80336645D01*
X82126120Y-80336643D01*
X81915002Y-80318173D01*
X81914998Y-80318173D01*
X81703879Y-80336643D01*
X81703868Y-80336645D01*
X81499170Y-80391493D01*
X81499161Y-80391497D01*
X81307088Y-80481062D01*
X81253286Y-80518733D01*
X81868553Y-81134000D01*
X81862339Y-81134000D01*
X81760606Y-81161259D01*
X81669394Y-81213920D01*
X81594920Y-81288394D01*
X81542259Y-81379606D01*
X81515000Y-81481339D01*
X81515000Y-81487553D01*
X80899733Y-80872286D01*
X80862062Y-80926088D01*
X80772497Y-81118161D01*
X80772493Y-81118170D01*
X80717645Y-81322868D01*
X80717643Y-81322879D01*
X80699173Y-81533998D01*
X80291722Y-81533998D01*
X80271689Y-81343403D01*
X80212467Y-81161136D01*
X80204016Y-81146499D01*
X80172157Y-81091317D01*
X80116644Y-80995164D01*
X79988407Y-80852743D01*
X79875898Y-80771000D01*
X79833359Y-80740093D01*
X79698944Y-80680249D01*
X79658283Y-80662146D01*
X79658281Y-80662145D01*
X79658280Y-80662145D01*
X79470824Y-80622300D01*
X79279176Y-80622300D01*
X79091719Y-80662145D01*
X78916640Y-80740093D01*
X78761591Y-80852744D01*
X78633355Y-80995165D01*
X78537534Y-81161132D01*
X78537533Y-81161134D01*
X78478312Y-81343398D01*
X78478311Y-81343400D01*
X78458278Y-81534000D01*
X69928214Y-81534000D01*
X70027538Y-81480910D01*
X70179883Y-81355883D01*
X70304910Y-81203538D01*
X70364893Y-81091317D01*
X70397811Y-81029733D01*
X70397811Y-81029732D01*
X70397814Y-81029727D01*
X70455024Y-80841132D01*
X70474341Y-80645000D01*
X70455024Y-80448868D01*
X70397814Y-80260273D01*
X70397811Y-80260269D01*
X70397811Y-80260266D01*
X70304913Y-80086467D01*
X70304909Y-80086460D01*
X70179883Y-79934116D01*
X70027539Y-79809090D01*
X70027532Y-79809086D01*
X69853733Y-79716188D01*
X69853727Y-79716186D01*
X69665132Y-79658976D01*
X69665129Y-79658975D01*
X69469000Y-79639659D01*
X69272870Y-79658975D01*
X69084266Y-79716188D01*
X68910467Y-79809086D01*
X68910460Y-79809090D01*
X68758116Y-79934116D01*
X68633090Y-80086460D01*
X68633086Y-80086467D01*
X68540188Y-80260266D01*
X68482975Y-80448870D01*
X68463659Y-80645000D01*
X64921500Y-80645000D01*
X64921500Y-79825249D01*
X64921499Y-79825247D01*
X64909868Y-79766770D01*
X64909867Y-79766769D01*
X64865552Y-79700447D01*
X64799230Y-79656132D01*
X64799229Y-79656131D01*
X64740752Y-79644500D01*
X64740748Y-79644500D01*
X63101252Y-79644500D01*
X63101247Y-79644500D01*
X63042770Y-79656131D01*
X63042769Y-79656132D01*
X62976447Y-79700447D01*
X62932132Y-79766769D01*
X62932131Y-79766770D01*
X62920500Y-79825247D01*
X62920500Y-81464752D01*
X62932131Y-81523229D01*
X62932132Y-81523230D01*
X62976447Y-81589552D01*
X63042769Y-81633867D01*
X63042770Y-81633868D01*
X63101247Y-81645499D01*
X63101250Y-81645500D01*
X63761668Y-81645500D01*
X63828707Y-81665185D01*
X63874462Y-81717989D01*
X63884406Y-81787147D01*
X63855381Y-81850703D01*
X63796603Y-81888477D01*
X63772475Y-81893028D01*
X63694400Y-81899858D01*
X63694389Y-81899860D01*
X63474682Y-81958730D01*
X63474673Y-81958734D01*
X63268517Y-82054865D01*
X63082179Y-82185342D01*
X62921342Y-82346179D01*
X62790865Y-82532517D01*
X62694734Y-82738673D01*
X62694730Y-82738682D01*
X62642127Y-82934999D01*
X57782000Y-82934999D01*
X57782000Y-82649849D01*
X57782000Y-82649847D01*
X57759818Y-82567062D01*
X57759818Y-82567061D01*
X57716965Y-82492838D01*
X57084902Y-81860775D01*
X57051417Y-81799452D01*
X57056401Y-81729760D01*
X57098273Y-81673827D01*
X57101460Y-81671518D01*
X57139818Y-81644659D01*
X57300660Y-81483816D01*
X57431134Y-81297482D01*
X57527265Y-81091326D01*
X57527269Y-81091317D01*
X57579872Y-80895000D01*
X56616686Y-80895000D01*
X56621080Y-80890606D01*
X56673741Y-80799394D01*
X56701000Y-80697661D01*
X56701000Y-80592339D01*
X56673741Y-80490606D01*
X56621080Y-80399394D01*
X56616686Y-80395000D01*
X57579872Y-80395000D01*
X57579872Y-80394999D01*
X57527269Y-80198682D01*
X57527265Y-80198673D01*
X57431134Y-79992517D01*
X57300657Y-79806179D01*
X57139820Y-79645342D01*
X56953482Y-79514865D01*
X56747328Y-79418734D01*
X56551000Y-79366127D01*
X56551000Y-80329314D01*
X56546606Y-80324920D01*
X56455394Y-80272259D01*
X56353661Y-80245000D01*
X56248339Y-80245000D01*
X56146606Y-80272259D01*
X56055394Y-80324920D01*
X56051000Y-80329314D01*
X56051000Y-79366127D01*
X55854669Y-79418735D01*
X55647904Y-79515151D01*
X55578827Y-79525643D01*
X55515043Y-79497123D01*
X55476804Y-79438646D01*
X55471500Y-79402769D01*
X55471500Y-76612187D01*
X55491185Y-76545148D01*
X55507814Y-76524511D01*
X56156002Y-75876323D01*
X56217321Y-75842841D01*
X56287012Y-75847825D01*
X56342946Y-75889696D01*
X56363454Y-75931913D01*
X56384731Y-76011319D01*
X56384735Y-76011331D01*
X56480863Y-76217478D01*
X56531974Y-76290472D01*
X57211000Y-75611446D01*
X57211000Y-75617661D01*
X57238259Y-75719394D01*
X57290920Y-75810606D01*
X57365394Y-75885080D01*
X57456606Y-75937741D01*
X57558339Y-75965000D01*
X57564553Y-75965000D01*
X56885526Y-76644025D01*
X56958513Y-76695132D01*
X56958521Y-76695136D01*
X57164668Y-76791264D01*
X57164682Y-76791269D01*
X57384389Y-76850139D01*
X57384400Y-76850141D01*
X57610998Y-76869966D01*
X57611002Y-76869966D01*
X57837599Y-76850141D01*
X57837610Y-76850139D01*
X58057317Y-76791269D01*
X58057331Y-76791264D01*
X58263478Y-76695136D01*
X58336471Y-76644024D01*
X57657447Y-75965000D01*
X57663661Y-75965000D01*
X57765394Y-75937741D01*
X57856606Y-75885080D01*
X57931080Y-75810606D01*
X57983741Y-75719394D01*
X58011000Y-75617661D01*
X58011000Y-75611447D01*
X58690024Y-76290471D01*
X58741136Y-76217478D01*
X58837264Y-76011331D01*
X58837269Y-76011317D01*
X58896139Y-75791610D01*
X58896141Y-75791599D01*
X58915966Y-75565002D01*
X58915966Y-75565000D01*
X61605659Y-75565000D01*
X61624975Y-75761129D01*
X61634218Y-75791599D01*
X61672729Y-75918553D01*
X61682188Y-75949733D01*
X61775086Y-76123532D01*
X61775090Y-76123539D01*
X61900116Y-76275883D01*
X62052460Y-76400909D01*
X62052467Y-76400913D01*
X62226266Y-76493811D01*
X62226269Y-76493811D01*
X62226273Y-76493814D01*
X62414868Y-76551024D01*
X62611000Y-76570341D01*
X62807132Y-76551024D01*
X62995727Y-76493814D01*
X63169538Y-76400910D01*
X63300238Y-76293646D01*
X63364546Y-76266334D01*
X63378902Y-76265500D01*
X79973996Y-76265500D01*
X80065040Y-76247389D01*
X80109328Y-76238580D01*
X80173069Y-76212177D01*
X80236807Y-76185777D01*
X80236808Y-76185776D01*
X80236811Y-76185775D01*
X80351543Y-76109114D01*
X80597321Y-75863334D01*
X80658640Y-75829852D01*
X80728332Y-75834836D01*
X80772680Y-75863337D01*
X81209705Y-76300361D01*
X81640886Y-76731542D01*
X81698791Y-76789447D01*
X81738459Y-76829115D01*
X81853182Y-76905771D01*
X81853186Y-76905773D01*
X81853189Y-76905775D01*
X81927866Y-76936707D01*
X81927867Y-76936707D01*
X81927869Y-76936709D01*
X81980666Y-76958578D01*
X81980671Y-76958580D01*
X81980680Y-76958581D01*
X81980681Y-76958582D01*
X82007545Y-76963925D01*
X82007551Y-76963926D01*
X82007591Y-76963934D01*
X82097937Y-76981905D01*
X82116006Y-76985500D01*
X82116007Y-76985500D01*
X96150381Y-76985500D01*
X96217420Y-77005185D01*
X96238062Y-77021819D01*
X98403353Y-79187111D01*
X98403354Y-79187112D01*
X98518092Y-79263777D01*
X98645567Y-79316578D01*
X98645572Y-79316580D01*
X98645576Y-79316580D01*
X98645577Y-79316581D01*
X98780903Y-79343500D01*
X98780906Y-79343500D01*
X103215996Y-79343500D01*
X103307040Y-79325389D01*
X103351328Y-79316580D01*
X103415069Y-79290177D01*
X103478807Y-79263777D01*
X103478808Y-79263776D01*
X103478811Y-79263775D01*
X103593543Y-79187114D01*
X104599338Y-78181316D01*
X104660659Y-78147833D01*
X104674852Y-78145597D01*
X104843132Y-78129024D01*
X105031727Y-78071814D01*
X105205538Y-77978910D01*
X105357883Y-77853883D01*
X105482910Y-77701538D01*
X105542893Y-77589317D01*
X105575811Y-77527733D01*
X105575811Y-77527732D01*
X105575814Y-77527727D01*
X105633024Y-77339132D01*
X105652341Y-77143000D01*
X105633024Y-76946868D01*
X105575814Y-76758273D01*
X105575811Y-76758269D01*
X105575811Y-76758266D01*
X105482913Y-76584467D01*
X105482909Y-76584460D01*
X105357883Y-76432116D01*
X105205539Y-76307090D01*
X105205532Y-76307086D01*
X105031733Y-76214188D01*
X105031727Y-76214186D01*
X104843132Y-76156976D01*
X104843129Y-76156975D01*
X104647000Y-76137659D01*
X104450870Y-76156975D01*
X104262266Y-76214188D01*
X104088467Y-76307086D01*
X104088460Y-76307090D01*
X103936116Y-76432116D01*
X103811090Y-76584460D01*
X103811086Y-76584467D01*
X103718188Y-76758266D01*
X103660975Y-76946870D01*
X103644403Y-77115134D01*
X103618242Y-77179921D01*
X103608681Y-77190661D01*
X102893162Y-77906181D01*
X102831839Y-77939666D01*
X102805481Y-77942500D01*
X100903220Y-77942500D01*
X100836181Y-77922815D01*
X100790426Y-77870011D01*
X100780482Y-77800853D01*
X100790838Y-77766096D01*
X100873264Y-77589331D01*
X100873269Y-77589317D01*
X100932139Y-77369610D01*
X100932141Y-77369599D01*
X100951966Y-77143002D01*
X100951966Y-77142997D01*
X100932141Y-76916400D01*
X100932139Y-76916389D01*
X100873269Y-76696682D01*
X100873264Y-76696668D01*
X100777136Y-76490521D01*
X100777132Y-76490513D01*
X100726025Y-76417526D01*
X100047000Y-77096551D01*
X100047000Y-77090339D01*
X100019741Y-76988606D01*
X99967080Y-76897394D01*
X99892606Y-76822920D01*
X99801394Y-76770259D01*
X99699661Y-76743000D01*
X99693448Y-76743000D01*
X100372472Y-76063974D01*
X100299478Y-76012863D01*
X100093331Y-75916735D01*
X100093317Y-75916730D01*
X99873610Y-75857860D01*
X99873599Y-75857858D01*
X99647002Y-75838034D01*
X99646998Y-75838034D01*
X99420400Y-75857858D01*
X99420389Y-75857860D01*
X99200682Y-75916730D01*
X99200673Y-75916734D01*
X98994516Y-76012866D01*
X98994512Y-76012868D01*
X98921526Y-76063973D01*
X98921526Y-76063974D01*
X99600553Y-76743000D01*
X99594339Y-76743000D01*
X99492606Y-76770259D01*
X99401394Y-76822920D01*
X99326920Y-76897394D01*
X99274259Y-76988606D01*
X99247000Y-77090339D01*
X99247000Y-77096552D01*
X98567974Y-76417526D01*
X98567973Y-76417526D01*
X98516868Y-76490512D01*
X98516866Y-76490516D01*
X98420734Y-76696673D01*
X98420731Y-76696680D01*
X98365057Y-76904457D01*
X98328692Y-76964117D01*
X98265844Y-76994646D01*
X98196469Y-76986351D01*
X98157601Y-76960044D01*
X96938446Y-75740888D01*
X96938445Y-75740887D01*
X96823707Y-75664222D01*
X96696232Y-75611421D01*
X96696222Y-75611418D01*
X96560896Y-75584500D01*
X96560894Y-75584500D01*
X96560893Y-75584500D01*
X86941220Y-75584500D01*
X86874181Y-75564815D01*
X86828426Y-75512011D01*
X86818482Y-75442853D01*
X86828838Y-75408096D01*
X86911264Y-75231331D01*
X86911269Y-75231317D01*
X86970139Y-75011610D01*
X86970141Y-75011599D01*
X86989966Y-74785002D01*
X86989966Y-74784997D01*
X86970141Y-74558400D01*
X86970139Y-74558389D01*
X86911269Y-74338682D01*
X86911264Y-74338668D01*
X86815136Y-74132521D01*
X86815132Y-74132513D01*
X86764025Y-74059526D01*
X86085000Y-74738551D01*
X86085000Y-74732339D01*
X86057741Y-74630606D01*
X86005080Y-74539394D01*
X85930606Y-74464920D01*
X85839394Y-74412259D01*
X85737661Y-74385000D01*
X85731448Y-74385000D01*
X86410472Y-73705974D01*
X86337478Y-73654863D01*
X86131331Y-73558735D01*
X86131317Y-73558730D01*
X85911610Y-73499860D01*
X85911599Y-73499858D01*
X85685002Y-73480034D01*
X85684998Y-73480034D01*
X85458400Y-73499858D01*
X85458389Y-73499860D01*
X85238682Y-73558730D01*
X85238673Y-73558734D01*
X85032516Y-73654866D01*
X85032512Y-73654868D01*
X84959526Y-73705973D01*
X84959526Y-73705974D01*
X85638553Y-74385000D01*
X85632339Y-74385000D01*
X85530606Y-74412259D01*
X85439394Y-74464920D01*
X85364920Y-74539394D01*
X85312259Y-74630606D01*
X85285000Y-74732339D01*
X85285000Y-74738552D01*
X84605974Y-74059526D01*
X84605973Y-74059526D01*
X84554868Y-74132512D01*
X84554866Y-74132516D01*
X84458734Y-74338673D01*
X84458730Y-74338682D01*
X84399860Y-74558389D01*
X84399858Y-74558400D01*
X84380034Y-74784997D01*
X84380034Y-74785002D01*
X84399858Y-75011599D01*
X84399860Y-75011610D01*
X84458730Y-75231317D01*
X84458735Y-75231331D01*
X84541162Y-75408096D01*
X84551654Y-75477173D01*
X84523134Y-75540957D01*
X84464657Y-75579196D01*
X84428780Y-75584500D01*
X82526518Y-75584500D01*
X82459479Y-75564815D01*
X82438837Y-75548181D01*
X81723318Y-74832661D01*
X81689833Y-74771338D01*
X81687596Y-74757134D01*
X81681002Y-74690185D01*
X81671024Y-74588868D01*
X81613814Y-74400273D01*
X81613811Y-74400269D01*
X81613811Y-74400266D01*
X81520913Y-74226467D01*
X81520909Y-74226460D01*
X81395883Y-74074116D01*
X81243539Y-73949090D01*
X81243532Y-73949086D01*
X81069733Y-73856188D01*
X81069727Y-73856186D01*
X80881132Y-73798976D01*
X80881129Y-73798975D01*
X80685000Y-73779659D01*
X80488870Y-73798975D01*
X80300266Y-73856188D01*
X80126467Y-73949086D01*
X80126460Y-73949090D01*
X79974116Y-74074116D01*
X79849090Y-74226460D01*
X79849086Y-74226467D01*
X79756188Y-74400266D01*
X79698975Y-74588870D01*
X79682845Y-74752654D01*
X79656684Y-74817441D01*
X79599650Y-74857800D01*
X79559442Y-74864500D01*
X63378902Y-74864500D01*
X63311863Y-74844815D01*
X63300242Y-74836357D01*
X63198251Y-74752654D01*
X63169539Y-74729090D01*
X63169532Y-74729086D01*
X62995733Y-74636188D01*
X62995727Y-74636186D01*
X62839748Y-74588870D01*
X62807129Y-74578975D01*
X62611000Y-74559659D01*
X62414870Y-74578975D01*
X62226266Y-74636188D01*
X62052467Y-74729086D01*
X62052460Y-74729090D01*
X61900116Y-74854116D01*
X61775090Y-75006460D01*
X61775086Y-75006467D01*
X61682188Y-75180266D01*
X61624975Y-75368870D01*
X61605659Y-75565000D01*
X58915966Y-75565000D01*
X58915966Y-75564997D01*
X58896141Y-75338400D01*
X58896139Y-75338389D01*
X58837269Y-75118682D01*
X58837264Y-75118668D01*
X58741136Y-74912521D01*
X58741132Y-74912513D01*
X58690025Y-74839526D01*
X58011000Y-75518551D01*
X58011000Y-75512339D01*
X57983741Y-75410606D01*
X57931080Y-75319394D01*
X57856606Y-75244920D01*
X57765394Y-75192259D01*
X57663661Y-75165000D01*
X57657446Y-75165000D01*
X58336472Y-74485974D01*
X58263478Y-74434863D01*
X58057331Y-74338735D01*
X58057319Y-74338731D01*
X57977913Y-74317454D01*
X57918253Y-74281088D01*
X57887724Y-74218241D01*
X57896019Y-74148866D01*
X57922321Y-74110003D01*
X66119324Y-65913000D01*
X95260659Y-65913000D01*
X95279975Y-66109129D01*
X95337188Y-66297733D01*
X95430086Y-66471532D01*
X95430090Y-66471539D01*
X95555116Y-66623883D01*
X95707460Y-66748909D01*
X95707467Y-66748913D01*
X95881266Y-66841811D01*
X95881269Y-66841811D01*
X95881273Y-66841814D01*
X96069868Y-66899024D01*
X96266000Y-66918341D01*
X96462132Y-66899024D01*
X96650727Y-66841814D01*
X96824538Y-66748910D01*
X96955238Y-66641646D01*
X97019546Y-66614334D01*
X97033902Y-66613500D01*
X99689098Y-66613500D01*
X99756137Y-66633185D01*
X99767757Y-66641642D01*
X99789714Y-66659662D01*
X99898460Y-66748909D01*
X99898467Y-66748913D01*
X100072266Y-66841811D01*
X100072269Y-66841811D01*
X100072273Y-66841814D01*
X100260868Y-66899024D01*
X100457000Y-66918341D01*
X100653132Y-66899024D01*
X100841727Y-66841814D01*
X101015538Y-66748910D01*
X101146238Y-66641646D01*
X101210546Y-66614334D01*
X101224902Y-66613500D01*
X103880098Y-66613500D01*
X103947137Y-66633185D01*
X103958757Y-66641642D01*
X103980714Y-66659662D01*
X104089460Y-66748909D01*
X104089467Y-66748913D01*
X104263266Y-66841811D01*
X104263269Y-66841811D01*
X104263273Y-66841814D01*
X104451868Y-66899024D01*
X104648000Y-66918341D01*
X104844132Y-66899024D01*
X105032727Y-66841814D01*
X105206538Y-66748910D01*
X105358883Y-66623883D01*
X105483910Y-66471538D01*
X105576814Y-66297727D01*
X105634024Y-66109132D01*
X105653341Y-65913000D01*
X105634024Y-65716868D01*
X105576814Y-65528273D01*
X105576811Y-65528269D01*
X105576811Y-65528266D01*
X105483913Y-65354467D01*
X105483909Y-65354460D01*
X105358883Y-65202116D01*
X105206539Y-65077090D01*
X105206532Y-65077086D01*
X105032733Y-64984188D01*
X105032727Y-64984186D01*
X104844132Y-64926976D01*
X104844129Y-64926975D01*
X104648000Y-64907659D01*
X104451870Y-64926975D01*
X104263266Y-64984188D01*
X104089467Y-65077086D01*
X104089460Y-65077090D01*
X103989796Y-65158883D01*
X103958761Y-65184353D01*
X103894454Y-65211666D01*
X103880098Y-65212500D01*
X101224902Y-65212500D01*
X101157863Y-65192815D01*
X101146242Y-65184357D01*
X101096079Y-65143189D01*
X101015539Y-65077090D01*
X101015532Y-65077086D01*
X100841733Y-64984188D01*
X100841727Y-64984186D01*
X100653132Y-64926976D01*
X100653129Y-64926975D01*
X100457000Y-64907659D01*
X100260870Y-64926975D01*
X100072266Y-64984188D01*
X99898467Y-65077086D01*
X99898460Y-65077090D01*
X99798796Y-65158883D01*
X99767761Y-65184353D01*
X99703454Y-65211666D01*
X99689098Y-65212500D01*
X97033902Y-65212500D01*
X96966863Y-65192815D01*
X96955242Y-65184357D01*
X96905079Y-65143189D01*
X96824539Y-65077090D01*
X96824532Y-65077086D01*
X96650733Y-64984188D01*
X96650727Y-64984186D01*
X96462132Y-64926976D01*
X96462129Y-64926975D01*
X96266000Y-64907659D01*
X96069870Y-64926975D01*
X95881266Y-64984188D01*
X95707467Y-65077086D01*
X95707460Y-65077090D01*
X95555116Y-65202116D01*
X95430090Y-65354460D01*
X95430086Y-65354467D01*
X95337188Y-65528266D01*
X95279975Y-65716870D01*
X95260659Y-65913000D01*
X66119324Y-65913000D01*
X73739324Y-58293000D01*
X95260659Y-58293000D01*
X95279975Y-58489129D01*
X95337188Y-58677733D01*
X95430086Y-58851532D01*
X95430090Y-58851539D01*
X95555116Y-59003883D01*
X95707460Y-59128909D01*
X95707467Y-59128913D01*
X95881266Y-59221811D01*
X95881269Y-59221811D01*
X95881273Y-59221814D01*
X96069868Y-59279024D01*
X96266000Y-59298341D01*
X96462132Y-59279024D01*
X96650727Y-59221814D01*
X96824538Y-59128910D01*
X96976883Y-59003883D01*
X97101910Y-58851538D01*
X97101910Y-58851536D01*
X97101914Y-58851532D01*
X97191437Y-58684047D01*
X97240399Y-58634202D01*
X97300795Y-58618500D01*
X97433951Y-58618500D01*
X97433953Y-58618500D01*
X97516739Y-58596318D01*
X97590962Y-58553465D01*
X107268608Y-48875819D01*
X107329931Y-48842334D01*
X107356289Y-48839500D01*
X110979205Y-48839500D01*
X111046244Y-48859185D01*
X111088563Y-48905047D01*
X111178085Y-49072532D01*
X111178090Y-49072539D01*
X111303116Y-49224883D01*
X111455460Y-49349909D01*
X111455467Y-49349913D01*
X111629266Y-49442811D01*
X111629269Y-49442811D01*
X111629273Y-49442814D01*
X111817868Y-49500024D01*
X111919069Y-49509991D01*
X111983857Y-49536151D01*
X112024216Y-49593186D01*
X112027333Y-49662986D01*
X111994597Y-49721075D01*
X104909592Y-56806081D01*
X104848269Y-56839566D01*
X104821911Y-56842400D01*
X102757665Y-56842400D01*
X102757649Y-56842399D01*
X102750053Y-56842399D01*
X102664347Y-56842399D01*
X102609156Y-56857187D01*
X102581560Y-56864582D01*
X102563005Y-56875295D01*
X102544450Y-56886008D01*
X102519135Y-56900624D01*
X102507338Y-56907435D01*
X102507335Y-56907437D01*
X102446733Y-56968040D01*
X101546076Y-57868696D01*
X101484753Y-57902181D01*
X101415061Y-57897197D01*
X101359128Y-57855325D01*
X101349041Y-57839477D01*
X101292910Y-57734462D01*
X101211322Y-57635047D01*
X101167883Y-57582116D01*
X101015539Y-57457090D01*
X101015532Y-57457086D01*
X100841733Y-57364188D01*
X100841727Y-57364186D01*
X100653132Y-57306976D01*
X100653129Y-57306975D01*
X100457000Y-57287659D01*
X100260870Y-57306975D01*
X100072266Y-57364188D01*
X99898467Y-57457086D01*
X99898460Y-57457090D01*
X99746116Y-57582116D01*
X99621090Y-57734460D01*
X99621086Y-57734467D01*
X99528188Y-57908266D01*
X99470975Y-58096870D01*
X99451659Y-58293000D01*
X99470975Y-58489129D01*
X99528188Y-58677733D01*
X99621086Y-58851532D01*
X99621090Y-58851539D01*
X99746116Y-59003883D01*
X99898460Y-59128909D01*
X99898467Y-59128913D01*
X100072266Y-59221811D01*
X100072269Y-59221811D01*
X100072273Y-59221814D01*
X100260868Y-59279024D01*
X100457000Y-59298341D01*
X100653132Y-59279024D01*
X100841727Y-59221814D01*
X101015538Y-59128910D01*
X101167883Y-59003883D01*
X101292910Y-58851538D01*
X101292910Y-58851536D01*
X101292914Y-58851532D01*
X101382437Y-58684047D01*
X101431399Y-58634202D01*
X101491795Y-58618500D01*
X101624951Y-58618500D01*
X101624953Y-58618500D01*
X101707739Y-58596318D01*
X101781962Y-58553465D01*
X102805707Y-57529718D01*
X102867030Y-57496234D01*
X102893388Y-57493400D01*
X103747748Y-57493400D01*
X103814787Y-57513085D01*
X103860542Y-57565889D01*
X103870486Y-57635047D01*
X103843601Y-57696065D01*
X103812091Y-57734460D01*
X103812086Y-57734467D01*
X103719188Y-57908266D01*
X103661975Y-58096870D01*
X103642659Y-58293000D01*
X103661975Y-58489129D01*
X103719188Y-58677733D01*
X103812086Y-58851532D01*
X103812090Y-58851539D01*
X103937116Y-59003883D01*
X104089460Y-59128909D01*
X104089467Y-59128913D01*
X104263266Y-59221811D01*
X104263269Y-59221811D01*
X104263273Y-59221814D01*
X104451868Y-59279024D01*
X104648000Y-59298341D01*
X104844132Y-59279024D01*
X105032727Y-59221814D01*
X105206538Y-59128910D01*
X105358883Y-59003883D01*
X105483910Y-58851538D01*
X105483910Y-58851536D01*
X105483914Y-58851532D01*
X105573437Y-58684047D01*
X105622399Y-58634202D01*
X105682795Y-58618500D01*
X106465851Y-58618500D01*
X106465853Y-58618500D01*
X106548639Y-58596318D01*
X106622862Y-58553465D01*
X109890171Y-55286155D01*
X110714000Y-55286155D01*
X110714000Y-55884000D01*
X111698314Y-55884000D01*
X111693920Y-55888394D01*
X111641259Y-55979606D01*
X111614000Y-56081339D01*
X111614000Y-56186661D01*
X111641259Y-56288394D01*
X111693920Y-56379606D01*
X111698314Y-56384000D01*
X110714000Y-56384000D01*
X110714000Y-56981844D01*
X110720401Y-57041372D01*
X110720403Y-57041379D01*
X110770645Y-57176086D01*
X110770649Y-57176093D01*
X110856809Y-57291187D01*
X110856812Y-57291190D01*
X110971906Y-57377350D01*
X110971913Y-57377354D01*
X111106620Y-57427596D01*
X111106627Y-57427598D01*
X111166155Y-57433999D01*
X111166172Y-57434000D01*
X111764000Y-57434000D01*
X111764000Y-56449686D01*
X111768394Y-56454080D01*
X111859606Y-56506741D01*
X111961339Y-56534000D01*
X112066661Y-56534000D01*
X112168394Y-56506741D01*
X112259606Y-56454080D01*
X112264000Y-56449686D01*
X112264000Y-57434000D01*
X112861828Y-57434000D01*
X112861844Y-57433999D01*
X112921372Y-57427598D01*
X112921379Y-57427596D01*
X113056086Y-57377354D01*
X113056093Y-57377350D01*
X113171187Y-57291190D01*
X113171190Y-57291187D01*
X113257350Y-57176093D01*
X113257354Y-57176086D01*
X113307596Y-57041379D01*
X113311505Y-57005024D01*
X113338243Y-56940473D01*
X113395635Y-56900624D01*
X113465460Y-56898129D01*
X113525549Y-56933781D01*
X113536369Y-56947153D01*
X113554340Y-56972818D01*
X113715179Y-57133657D01*
X113901517Y-57264134D01*
X114107673Y-57360265D01*
X114107682Y-57360269D01*
X114303999Y-57412872D01*
X114304000Y-57412871D01*
X114304000Y-56449686D01*
X114308394Y-56454080D01*
X114399606Y-56506741D01*
X114501339Y-56534000D01*
X114606661Y-56534000D01*
X114708394Y-56506741D01*
X114799606Y-56454080D01*
X114804000Y-56449686D01*
X114804000Y-57412872D01*
X115000317Y-57360269D01*
X115000326Y-57360265D01*
X115206482Y-57264134D01*
X115392820Y-57133657D01*
X115553657Y-56972820D01*
X115684134Y-56786481D01*
X115684135Y-56786479D01*
X115711618Y-56727543D01*
X115757790Y-56675103D01*
X115824983Y-56655951D01*
X115891864Y-56676166D01*
X115936382Y-56727543D01*
X115963864Y-56786479D01*
X115963865Y-56786481D01*
X116094342Y-56972820D01*
X116255179Y-57133657D01*
X116441517Y-57264134D01*
X116647673Y-57360265D01*
X116647682Y-57360269D01*
X116843999Y-57412872D01*
X116844000Y-57412871D01*
X116844000Y-56449686D01*
X116848394Y-56454080D01*
X116939606Y-56506741D01*
X117041339Y-56534000D01*
X117146661Y-56534000D01*
X117248394Y-56506741D01*
X117339606Y-56454080D01*
X117344000Y-56449686D01*
X117344000Y-57412872D01*
X117540317Y-57360269D01*
X117540326Y-57360265D01*
X117746482Y-57264134D01*
X117932820Y-57133657D01*
X118093657Y-56972820D01*
X118224134Y-56786482D01*
X118320265Y-56580326D01*
X118320269Y-56580317D01*
X118372872Y-56384000D01*
X117409686Y-56384000D01*
X117414080Y-56379606D01*
X117466741Y-56288394D01*
X117494000Y-56186661D01*
X117494000Y-56081339D01*
X117466741Y-55979606D01*
X117414080Y-55888394D01*
X117409686Y-55884000D01*
X118372872Y-55884000D01*
X118372872Y-55883999D01*
X118320269Y-55687682D01*
X118320265Y-55687673D01*
X118224134Y-55481517D01*
X118093657Y-55295179D01*
X117932820Y-55134342D01*
X117746482Y-55003865D01*
X117540328Y-54907734D01*
X117344000Y-54855127D01*
X117344000Y-55818314D01*
X117339606Y-55813920D01*
X117248394Y-55761259D01*
X117146661Y-55734000D01*
X117041339Y-55734000D01*
X116939606Y-55761259D01*
X116848394Y-55813920D01*
X116844000Y-55818314D01*
X116844000Y-54855127D01*
X116647671Y-54907734D01*
X116441517Y-55003865D01*
X116255179Y-55134342D01*
X116094342Y-55295179D01*
X115963865Y-55481517D01*
X115936382Y-55540457D01*
X115890210Y-55592896D01*
X115823016Y-55612048D01*
X115756135Y-55591832D01*
X115711618Y-55540457D01*
X115684134Y-55481517D01*
X115553657Y-55295179D01*
X115392820Y-55134342D01*
X115206482Y-55003865D01*
X115000328Y-54907734D01*
X114804000Y-54855127D01*
X114804000Y-55818314D01*
X114799606Y-55813920D01*
X114708394Y-55761259D01*
X114606661Y-55734000D01*
X114501339Y-55734000D01*
X114399606Y-55761259D01*
X114308394Y-55813920D01*
X114304000Y-55818314D01*
X114304000Y-54855127D01*
X114107671Y-54907734D01*
X113901517Y-55003865D01*
X113715179Y-55134342D01*
X113554339Y-55295182D01*
X113536368Y-55320847D01*
X113481790Y-55364471D01*
X113412291Y-55371662D01*
X113349937Y-55340138D01*
X113314525Y-55279907D01*
X113311505Y-55262975D01*
X113307596Y-55226620D01*
X113257354Y-55091913D01*
X113257350Y-55091906D01*
X113171190Y-54976812D01*
X113171187Y-54976809D01*
X113056093Y-54890649D01*
X113056086Y-54890645D01*
X112921379Y-54840403D01*
X112921372Y-54840401D01*
X112861844Y-54834000D01*
X112264000Y-54834000D01*
X112264000Y-55818314D01*
X112259606Y-55813920D01*
X112168394Y-55761259D01*
X112066661Y-55734000D01*
X111961339Y-55734000D01*
X111859606Y-55761259D01*
X111768394Y-55813920D01*
X111764000Y-55818314D01*
X111764000Y-54834000D01*
X111166155Y-54834000D01*
X111106627Y-54840401D01*
X111106620Y-54840403D01*
X110971913Y-54890645D01*
X110971906Y-54890649D01*
X110856812Y-54976809D01*
X110856809Y-54976812D01*
X110770649Y-55091906D01*
X110770645Y-55091913D01*
X110720403Y-55226620D01*
X110720401Y-55226627D01*
X110714000Y-55286155D01*
X109890171Y-55286155D01*
X116091798Y-49084527D01*
X116153119Y-49051044D01*
X116222811Y-49056028D01*
X116275330Y-49093545D01*
X116383116Y-49224883D01*
X116535460Y-49349909D01*
X116535467Y-49349913D01*
X116709266Y-49442811D01*
X116709269Y-49442811D01*
X116709273Y-49442814D01*
X116897868Y-49500024D01*
X117094000Y-49519341D01*
X117290132Y-49500024D01*
X117478727Y-49442814D01*
X117652538Y-49349910D01*
X117804883Y-49224883D01*
X117929910Y-49072538D01*
X118022814Y-48898727D01*
X118080024Y-48710132D01*
X118099341Y-48514000D01*
X118080024Y-48317868D01*
X118022814Y-48129273D01*
X118022811Y-48129269D01*
X118022811Y-48129266D01*
X117929913Y-47955467D01*
X117929909Y-47955460D01*
X117804883Y-47803116D01*
X117652539Y-47678090D01*
X117652532Y-47678086D01*
X117478733Y-47585188D01*
X117478727Y-47585186D01*
X117290132Y-47527976D01*
X117290129Y-47527975D01*
X117094000Y-47508659D01*
X116897870Y-47527975D01*
X116709266Y-47585188D01*
X116535467Y-47678086D01*
X116535460Y-47678090D01*
X116383116Y-47803116D01*
X116258090Y-47955460D01*
X116258085Y-47955467D01*
X116168563Y-48122953D01*
X116119601Y-48172798D01*
X116059205Y-48188500D01*
X115926047Y-48188500D01*
X115843262Y-48210682D01*
X115843255Y-48210685D01*
X115769044Y-48253530D01*
X115769036Y-48253536D01*
X115724638Y-48297934D01*
X115663315Y-48331418D01*
X115593623Y-48326433D01*
X115537690Y-48284561D01*
X115518299Y-48246251D01*
X115482814Y-48129273D01*
X115482812Y-48129270D01*
X115482812Y-48129268D01*
X115389913Y-47955467D01*
X115389909Y-47955460D01*
X115264883Y-47803116D01*
X115112539Y-47678090D01*
X115112532Y-47678086D01*
X114938733Y-47585188D01*
X114938727Y-47585186D01*
X114750132Y-47527976D01*
X114750129Y-47527975D01*
X114554000Y-47508659D01*
X114357870Y-47527975D01*
X114169266Y-47585188D01*
X113995467Y-47678086D01*
X113995460Y-47678090D01*
X113843116Y-47803116D01*
X113718090Y-47955460D01*
X113718085Y-47955467D01*
X113628563Y-48122953D01*
X113579601Y-48172798D01*
X113519205Y-48188500D01*
X113386047Y-48188500D01*
X113303262Y-48210682D01*
X113303255Y-48210685D01*
X113229044Y-48253530D01*
X113229036Y-48253536D01*
X113184638Y-48297934D01*
X113123315Y-48331418D01*
X113053623Y-48326433D01*
X112997690Y-48284561D01*
X112978299Y-48246251D01*
X112942814Y-48129273D01*
X112942812Y-48129270D01*
X112942812Y-48129268D01*
X112849913Y-47955467D01*
X112849909Y-47955460D01*
X112724883Y-47803116D01*
X112572539Y-47678090D01*
X112572532Y-47678086D01*
X112398733Y-47585188D01*
X112398727Y-47585186D01*
X112210132Y-47527976D01*
X112210129Y-47527975D01*
X112014000Y-47508659D01*
X111817870Y-47527975D01*
X111629266Y-47585188D01*
X111455467Y-47678086D01*
X111455460Y-47678090D01*
X111303116Y-47803116D01*
X111178090Y-47955460D01*
X111178085Y-47955467D01*
X111088563Y-48122953D01*
X111039601Y-48172798D01*
X110979205Y-48188500D01*
X107127247Y-48188500D01*
X107044462Y-48210682D01*
X107044455Y-48210685D01*
X106970244Y-48253530D01*
X106970236Y-48253536D01*
X97355076Y-57868696D01*
X97293753Y-57902181D01*
X97224061Y-57897197D01*
X97168128Y-57855325D01*
X97158041Y-57839477D01*
X97101910Y-57734462D01*
X97020322Y-57635047D01*
X96976883Y-57582116D01*
X96824539Y-57457090D01*
X96824532Y-57457086D01*
X96650733Y-57364188D01*
X96650727Y-57364186D01*
X96462132Y-57306976D01*
X96462129Y-57306975D01*
X96266000Y-57287659D01*
X96069870Y-57306975D01*
X95881266Y-57364188D01*
X95707467Y-57457086D01*
X95707460Y-57457090D01*
X95555116Y-57582116D01*
X95430090Y-57734460D01*
X95430086Y-57734467D01*
X95337188Y-57908266D01*
X95279975Y-58096870D01*
X95260659Y-58293000D01*
X73739324Y-58293000D01*
X88565543Y-43466781D01*
X88626864Y-43433298D01*
X88689216Y-43435803D01*
X88791340Y-43466783D01*
X88840666Y-43481746D01*
X88840668Y-43481747D01*
X88857374Y-43483392D01*
X89027000Y-43500099D01*
X89213331Y-43481747D01*
X89392501Y-43427396D01*
X89557625Y-43339136D01*
X89702357Y-43220357D01*
X89821136Y-43075625D01*
X89909396Y-42910501D01*
X89963747Y-42731331D01*
X89982099Y-42545000D01*
X89963747Y-42358669D01*
X89909396Y-42179499D01*
X89903387Y-42168257D01*
X89821137Y-42014376D01*
X89821135Y-42014373D01*
X89702357Y-41869642D01*
X89557626Y-41750864D01*
X89557623Y-41750862D01*
X89392502Y-41662604D01*
X89213333Y-41608253D01*
X89213331Y-41608252D01*
X89027000Y-41589901D01*
X88840668Y-41608252D01*
X88840666Y-41608253D01*
X88661497Y-41662604D01*
X88496376Y-41750862D01*
X88496373Y-41750864D01*
X88351642Y-41869642D01*
X88232864Y-42014373D01*
X88232862Y-42014376D01*
X88144604Y-42179497D01*
X88090253Y-42358666D01*
X88090252Y-42358668D01*
X88071901Y-42545000D01*
X88090252Y-42731329D01*
X88136195Y-42882781D01*
X88136818Y-42952648D01*
X88105215Y-43006457D01*
X54885537Y-76226135D01*
X54885533Y-76226141D01*
X54842681Y-76300361D01*
X54842682Y-76300362D01*
X54820500Y-76383147D01*
X54820500Y-81101347D01*
X54820500Y-81187053D01*
X54824917Y-81203538D01*
X54842682Y-81269840D01*
X54858642Y-81297482D01*
X54885535Y-81344062D01*
X54885536Y-81344063D01*
X54885537Y-81344064D01*
X55651994Y-82110520D01*
X55652004Y-82110531D01*
X55656334Y-82114861D01*
X55656335Y-82114862D01*
X55716938Y-82175465D01*
X55716940Y-82175466D01*
X55722685Y-82181211D01*
X55721426Y-82182469D01*
X55756713Y-82230797D01*
X55760868Y-82300543D01*
X55726655Y-82361464D01*
X55718690Y-82368598D01*
X55590114Y-82474119D01*
X55465090Y-82626460D01*
X55465086Y-82626467D01*
X55372188Y-82800266D01*
X55314975Y-82988870D01*
X55295659Y-83185000D01*
X55314975Y-83381129D01*
X55329984Y-83430606D01*
X55352575Y-83505080D01*
X55372188Y-83569733D01*
X55465086Y-83743532D01*
X55465090Y-83743539D01*
X55590116Y-83895883D01*
X55654751Y-83948927D01*
X55673664Y-83964449D01*
X55688004Y-83976217D01*
X55727338Y-84033962D01*
X55729209Y-84103807D01*
X55697020Y-84159751D01*
X52016076Y-87840696D01*
X51954753Y-87874181D01*
X51885061Y-87869197D01*
X51829128Y-87827325D01*
X51819041Y-87811477D01*
X51762910Y-87706462D01*
X51695926Y-87624842D01*
X51637883Y-87554116D01*
X51485539Y-87429090D01*
X51485532Y-87429086D01*
X51311733Y-87336188D01*
X51311727Y-87336186D01*
X51123132Y-87278976D01*
X51123129Y-87278975D01*
X50927000Y-87259659D01*
X50730870Y-87278975D01*
X50542266Y-87336188D01*
X50368467Y-87429086D01*
X50368460Y-87429090D01*
X50216116Y-87554116D01*
X50091090Y-87706460D01*
X50091086Y-87706467D01*
X49998188Y-87880266D01*
X49940975Y-88068870D01*
X49921659Y-88265000D01*
X43172500Y-88265000D01*
X43172500Y-80644997D01*
X49622034Y-80644997D01*
X49622034Y-80645002D01*
X49641858Y-80871599D01*
X49641860Y-80871610D01*
X49700730Y-81091317D01*
X49700735Y-81091331D01*
X49796863Y-81297478D01*
X49847974Y-81370472D01*
X50527000Y-80691446D01*
X50527000Y-80697661D01*
X50554259Y-80799394D01*
X50606920Y-80890606D01*
X50681394Y-80965080D01*
X50772606Y-81017741D01*
X50874339Y-81045000D01*
X50880553Y-81045000D01*
X50201526Y-81724025D01*
X50274513Y-81775132D01*
X50274521Y-81775136D01*
X50480668Y-81871264D01*
X50480682Y-81871269D01*
X50700389Y-81930139D01*
X50700400Y-81930141D01*
X50926998Y-81949966D01*
X50927002Y-81949966D01*
X51153599Y-81930141D01*
X51153610Y-81930139D01*
X51373317Y-81871269D01*
X51373331Y-81871264D01*
X51579478Y-81775136D01*
X51652471Y-81724024D01*
X50973447Y-81045000D01*
X50979661Y-81045000D01*
X51081394Y-81017741D01*
X51172606Y-80965080D01*
X51247080Y-80890606D01*
X51299741Y-80799394D01*
X51327000Y-80697661D01*
X51327000Y-80691447D01*
X52006024Y-81370471D01*
X52057136Y-81297478D01*
X52153264Y-81091331D01*
X52153269Y-81091317D01*
X52212139Y-80871610D01*
X52212141Y-80871599D01*
X52231966Y-80645002D01*
X52231966Y-80644997D01*
X52212141Y-80418400D01*
X52212139Y-80418389D01*
X52153269Y-80198682D01*
X52153264Y-80198668D01*
X52057136Y-79992521D01*
X52057132Y-79992513D01*
X52006025Y-79919526D01*
X51327000Y-80598551D01*
X51327000Y-80592339D01*
X51299741Y-80490606D01*
X51247080Y-80399394D01*
X51172606Y-80324920D01*
X51081394Y-80272259D01*
X50979661Y-80245000D01*
X50973448Y-80245000D01*
X51652472Y-79565974D01*
X51579478Y-79514863D01*
X51373331Y-79418735D01*
X51373317Y-79418730D01*
X51153610Y-79359860D01*
X51153599Y-79359858D01*
X50927002Y-79340034D01*
X50926998Y-79340034D01*
X50700400Y-79359858D01*
X50700389Y-79359860D01*
X50480682Y-79418730D01*
X50480673Y-79418734D01*
X50274516Y-79514866D01*
X50274512Y-79514868D01*
X50201526Y-79565973D01*
X50201526Y-79565974D01*
X50880553Y-80245000D01*
X50874339Y-80245000D01*
X50772606Y-80272259D01*
X50681394Y-80324920D01*
X50606920Y-80399394D01*
X50554259Y-80490606D01*
X50527000Y-80592339D01*
X50527000Y-80598552D01*
X49847974Y-79919526D01*
X49847973Y-79919526D01*
X49796868Y-79992512D01*
X49796866Y-79992516D01*
X49700734Y-80198673D01*
X49700730Y-80198682D01*
X49641860Y-80418389D01*
X49641858Y-80418400D01*
X49622034Y-80644997D01*
X43172500Y-80644997D01*
X43172500Y-74794500D01*
X43192185Y-74727461D01*
X43244989Y-74681706D01*
X43296500Y-74670500D01*
X43356223Y-74670500D01*
X43356226Y-74670500D01*
X43674992Y-74640962D01*
X43772885Y-74631891D01*
X43772885Y-74631890D01*
X43772894Y-74631890D01*
X44184222Y-74555000D01*
X44586701Y-74440484D01*
X44976897Y-74289322D01*
X45351481Y-74102801D01*
X45707257Y-73882514D01*
X46041189Y-73630340D01*
X46350430Y-73348430D01*
X46632340Y-73039189D01*
X46884514Y-72705257D01*
X47104801Y-72349481D01*
X47291322Y-71974897D01*
X47442484Y-71584701D01*
X47557000Y-71182222D01*
X47633890Y-70770894D01*
X47672500Y-70354226D01*
X47672500Y-69935774D01*
X47633890Y-69519106D01*
X47557000Y-69107778D01*
X47442484Y-68705299D01*
X47291322Y-68315103D01*
X47104801Y-67940519D01*
X46884514Y-67584743D01*
X46632340Y-67250811D01*
X46632337Y-67250807D01*
X46521647Y-67129387D01*
X46350430Y-66941570D01*
X46139091Y-66748909D01*
X46041192Y-66659662D01*
X46041183Y-66659655D01*
X45792075Y-66471538D01*
X45707257Y-66407486D01*
X45351481Y-66187199D01*
X44976897Y-66000678D01*
X44586701Y-65849516D01*
X44586699Y-65849515D01*
X44586698Y-65849515D01*
X44184229Y-65735001D01*
X44026378Y-65705494D01*
X43772894Y-65658110D01*
X43772888Y-65658109D01*
X43772886Y-65658109D01*
X43772885Y-65658108D01*
X43436435Y-65626932D01*
X43356226Y-65619500D01*
X43356223Y-65619500D01*
X43296500Y-65619500D01*
X43229461Y-65599815D01*
X43183706Y-65547011D01*
X43172500Y-65495500D01*
X43172500Y-44191998D01*
X43835532Y-44191998D01*
X43835532Y-44192001D01*
X43855364Y-44418686D01*
X43855366Y-44418697D01*
X43914258Y-44638488D01*
X43914261Y-44638497D01*
X44010431Y-44844732D01*
X44010432Y-44844734D01*
X44140954Y-45031141D01*
X44301858Y-45192045D01*
X44301861Y-45192047D01*
X44488266Y-45322568D01*
X44694504Y-45418739D01*
X44914308Y-45477635D01*
X45076230Y-45491801D01*
X45140998Y-45497468D01*
X45141000Y-45497468D01*
X45141002Y-45497468D01*
X45197673Y-45492509D01*
X45367692Y-45477635D01*
X45587496Y-45418739D01*
X45793734Y-45322568D01*
X45980139Y-45192047D01*
X46141047Y-45031139D01*
X46271568Y-44844734D01*
X46367739Y-44638496D01*
X46426635Y-44418692D01*
X46446468Y-44192000D01*
X46426635Y-43965308D01*
X46367739Y-43745504D01*
X46271568Y-43539266D01*
X46141047Y-43352861D01*
X46141045Y-43352858D01*
X45980141Y-43191954D01*
X45793734Y-43061432D01*
X45793732Y-43061431D01*
X45587497Y-42965261D01*
X45587488Y-42965258D01*
X45367697Y-42906366D01*
X45367693Y-42906365D01*
X45367692Y-42906365D01*
X45367691Y-42906364D01*
X45367686Y-42906364D01*
X45141002Y-42886532D01*
X45140998Y-42886532D01*
X44914313Y-42906364D01*
X44914302Y-42906366D01*
X44694511Y-42965258D01*
X44694502Y-42965261D01*
X44488267Y-43061431D01*
X44488265Y-43061432D01*
X44301858Y-43191954D01*
X44140954Y-43352858D01*
X44010432Y-43539265D01*
X44010431Y-43539267D01*
X43914261Y-43745502D01*
X43914258Y-43745511D01*
X43855366Y-43965302D01*
X43855364Y-43965313D01*
X43835532Y-44191998D01*
X43172500Y-44191998D01*
X43172500Y-41692000D01*
X45335417Y-41692000D01*
X45355699Y-41897932D01*
X45355700Y-41897934D01*
X45415768Y-42095954D01*
X45513315Y-42278450D01*
X45513317Y-42278452D01*
X45644589Y-42438410D01*
X45728266Y-42507081D01*
X45804550Y-42569685D01*
X45987046Y-42667232D01*
X46185066Y-42727300D01*
X46185065Y-42727300D01*
X46203529Y-42729118D01*
X46391000Y-42747583D01*
X46596934Y-42727300D01*
X46794954Y-42667232D01*
X46794969Y-42667223D01*
X46796843Y-42666448D01*
X46797918Y-42666332D01*
X46800784Y-42665463D01*
X46800948Y-42666005D01*
X46866311Y-42658969D01*
X46928795Y-42690234D01*
X46931994Y-42693321D01*
X47368038Y-43129365D01*
X47442261Y-43172218D01*
X47525047Y-43194400D01*
X51013707Y-43194400D01*
X51080746Y-43214085D01*
X51126501Y-43266889D01*
X51136445Y-43336047D01*
X51115282Y-43389523D01*
X51010432Y-43539265D01*
X51010431Y-43539267D01*
X50914261Y-43745502D01*
X50914258Y-43745511D01*
X50855366Y-43965302D01*
X50855364Y-43965313D01*
X50835532Y-44191998D01*
X50835532Y-44192001D01*
X50855364Y-44418686D01*
X50855366Y-44418697D01*
X50914258Y-44638488D01*
X50914261Y-44638497D01*
X51010431Y-44844732D01*
X51010432Y-44844734D01*
X51140954Y-45031141D01*
X51301858Y-45192045D01*
X51301861Y-45192047D01*
X51488266Y-45322568D01*
X51694504Y-45418739D01*
X51914308Y-45477635D01*
X52076230Y-45491801D01*
X52140998Y-45497468D01*
X52141000Y-45497468D01*
X52141002Y-45497468D01*
X52197673Y-45492509D01*
X52367692Y-45477635D01*
X52587496Y-45418739D01*
X52793734Y-45322568D01*
X52980139Y-45192047D01*
X53141047Y-45031139D01*
X53271568Y-44844734D01*
X53367739Y-44638496D01*
X53426635Y-44418692D01*
X53446468Y-44192000D01*
X53426635Y-43965308D01*
X53367739Y-43745504D01*
X53271568Y-43539266D01*
X53141047Y-43352861D01*
X53141045Y-43352858D01*
X52980141Y-43191954D01*
X52843210Y-43096075D01*
X52799585Y-43041499D01*
X52792391Y-42972000D01*
X52823913Y-42909645D01*
X52884143Y-42874231D01*
X52914333Y-42870500D01*
X77888900Y-42870500D01*
X77955939Y-42890185D01*
X77998258Y-42936047D01*
X78072862Y-43075623D01*
X78072864Y-43075626D01*
X78191642Y-43220357D01*
X78336373Y-43339135D01*
X78336376Y-43339137D01*
X78430643Y-43389523D01*
X78501499Y-43427396D01*
X78631340Y-43466783D01*
X78680666Y-43481746D01*
X78680668Y-43481747D01*
X78697374Y-43483392D01*
X78867000Y-43500099D01*
X79053331Y-43481747D01*
X79232501Y-43427396D01*
X79397625Y-43339136D01*
X79542357Y-43220357D01*
X79661136Y-43075625D01*
X79749396Y-42910501D01*
X79803747Y-42731331D01*
X79822099Y-42545000D01*
X79803747Y-42358669D01*
X79749396Y-42179499D01*
X79743387Y-42168257D01*
X79661137Y-42014376D01*
X79661135Y-42014373D01*
X79542357Y-41869642D01*
X79397626Y-41750864D01*
X79397623Y-41750862D01*
X79232502Y-41662604D01*
X79053333Y-41608253D01*
X79053331Y-41608252D01*
X78867000Y-41589901D01*
X78680668Y-41608252D01*
X78680666Y-41608253D01*
X78501497Y-41662604D01*
X78336376Y-41750862D01*
X78336373Y-41750864D01*
X78191642Y-41869642D01*
X78072864Y-42014373D01*
X78072862Y-42014376D01*
X77998258Y-42153953D01*
X77949296Y-42203797D01*
X77888900Y-42219500D01*
X51995949Y-42219500D01*
X51928910Y-42199815D01*
X51883155Y-42147011D01*
X51873211Y-42077853D01*
X51877286Y-42059511D01*
X51926300Y-41897934D01*
X51946583Y-41692000D01*
X51926300Y-41486066D01*
X51866232Y-41288046D01*
X51768685Y-41105550D01*
X51716702Y-41042209D01*
X51637410Y-40945589D01*
X51477452Y-40814317D01*
X51477453Y-40814317D01*
X51477450Y-40814315D01*
X51294954Y-40716768D01*
X51096934Y-40656700D01*
X51096932Y-40656699D01*
X51096934Y-40656699D01*
X50891000Y-40636417D01*
X50685067Y-40656699D01*
X50487043Y-40716769D01*
X50376898Y-40775643D01*
X50304550Y-40814315D01*
X50304548Y-40814316D01*
X50304547Y-40814317D01*
X50144589Y-40945589D01*
X50013317Y-41105547D01*
X49915769Y-41288043D01*
X49855699Y-41486067D01*
X49835417Y-41692000D01*
X49855699Y-41897932D01*
X49855700Y-41897934D01*
X49915768Y-42095954D01*
X50013315Y-42278450D01*
X50013317Y-42278452D01*
X50064431Y-42340736D01*
X50091743Y-42405046D01*
X50079952Y-42473913D01*
X50032799Y-42525473D01*
X49968577Y-42543400D01*
X47754089Y-42543400D01*
X47687050Y-42523715D01*
X47666408Y-42507081D01*
X47392321Y-42232994D01*
X47358836Y-42171671D01*
X47363820Y-42101979D01*
X47365448Y-42097843D01*
X47366223Y-42095969D01*
X47366232Y-42095954D01*
X47426300Y-41897934D01*
X47446583Y-41692000D01*
X47426300Y-41486066D01*
X47366232Y-41288046D01*
X47268685Y-41105550D01*
X47216702Y-41042209D01*
X47137410Y-40945589D01*
X46977452Y-40814317D01*
X46977453Y-40814317D01*
X46977450Y-40814315D01*
X46794954Y-40716768D01*
X46596934Y-40656700D01*
X46596932Y-40656699D01*
X46596934Y-40656699D01*
X46391000Y-40636417D01*
X46185067Y-40656699D01*
X45987043Y-40716769D01*
X45876898Y-40775643D01*
X45804550Y-40814315D01*
X45804548Y-40814316D01*
X45804547Y-40814317D01*
X45644589Y-40945589D01*
X45513317Y-41105547D01*
X45415769Y-41288043D01*
X45355699Y-41486067D01*
X45335417Y-41692000D01*
X43172500Y-41692000D01*
X43172500Y-38884500D01*
X43192185Y-38817461D01*
X43244989Y-38771706D01*
X43296500Y-38760500D01*
X122997500Y-38760500D01*
X123064539Y-38780185D01*
G37*
G04 #@! TD.AperFunction*
M02*
