G04 #@! TF.GenerationSoftware,KiCad,Pcbnew,8.0.2*
G04 #@! TF.CreationDate,2025-01-27T22:43:03+01:00*
G04 #@! TF.ProjectId,multicartridge-sst39sf010-topbutton,6d756c74-6963-4617-9274-72696467652d,rev?*
G04 #@! TF.SameCoordinates,Original*
G04 #@! TF.FileFunction,Legend,Bot*
G04 #@! TF.FilePolarity,Positive*
%FSLAX46Y46*%
G04 Gerber Fmt 4.6, Leading zero omitted, Abs format (unit mm)*
G04 Created by KiCad (PCBNEW 8.0.2) date 2025-01-27 22:43:03*
%MOMM*%
%LPD*%
G01*
G04 APERTURE LIST*
%ADD10C,0.150000*%
%ADD11C,0.120000*%
%ADD12C,0.300000*%
%ADD13C,0.000000*%
%ADD14C,0.100000*%
%ADD15R,1.600000X1.600000*%
%ADD16O,1.600000X1.600000*%
%ADD17C,1.600000*%
%ADD18C,1.500000*%
%ADD19C,2.200000*%
%ADD20C,1.700000*%
%ADD21R,2.000000X10.000000*%
%ADD22R,1.422400X1.422400*%
%ADD23C,1.422400*%
G04 APERTURE END LIST*
D10*
X59782152Y-86823779D02*
X60639295Y-86823779D01*
X60639295Y-86823779D02*
X60734533Y-86776160D01*
X60734533Y-86776160D02*
X60782152Y-86680922D01*
X60782152Y-86680922D02*
X60782152Y-86633303D01*
X59448819Y-86823779D02*
X59496438Y-86776160D01*
X59496438Y-86776160D02*
X59544057Y-86823779D01*
X59544057Y-86823779D02*
X59496438Y-86871398D01*
X59496438Y-86871398D02*
X59448819Y-86823779D01*
X59448819Y-86823779D02*
X59544057Y-86823779D01*
X60448819Y-87442826D02*
X60401200Y-87347588D01*
X60401200Y-87347588D02*
X60305961Y-87299969D01*
X60305961Y-87299969D02*
X59448819Y-87299969D01*
X60401200Y-88252350D02*
X60448819Y-88157112D01*
X60448819Y-88157112D02*
X60448819Y-87966636D01*
X60448819Y-87966636D02*
X60401200Y-87871398D01*
X60401200Y-87871398D02*
X60353580Y-87823779D01*
X60353580Y-87823779D02*
X60258342Y-87776160D01*
X60258342Y-87776160D02*
X59972628Y-87776160D01*
X59972628Y-87776160D02*
X59877390Y-87823779D01*
X59877390Y-87823779D02*
X59829771Y-87871398D01*
X59829771Y-87871398D02*
X59782152Y-87966636D01*
X59782152Y-87966636D02*
X59782152Y-88157112D01*
X59782152Y-88157112D02*
X59829771Y-88252350D01*
X59782152Y-88680922D02*
X60639295Y-88680922D01*
X60639295Y-88680922D02*
X60734533Y-88633303D01*
X60734533Y-88633303D02*
X60782152Y-88538065D01*
X60782152Y-88538065D02*
X60782152Y-88490446D01*
X59448819Y-88680922D02*
X59496438Y-88633303D01*
X59496438Y-88633303D02*
X59544057Y-88680922D01*
X59544057Y-88680922D02*
X59496438Y-88728541D01*
X59496438Y-88728541D02*
X59448819Y-88680922D01*
X59448819Y-88680922D02*
X59544057Y-88680922D01*
X60448819Y-89299969D02*
X60401200Y-89204731D01*
X60401200Y-89204731D02*
X60305961Y-89157112D01*
X60305961Y-89157112D02*
X59448819Y-89157112D01*
X60401200Y-90109493D02*
X60448819Y-90014255D01*
X60448819Y-90014255D02*
X60448819Y-89823779D01*
X60448819Y-89823779D02*
X60401200Y-89728541D01*
X60401200Y-89728541D02*
X60353580Y-89680922D01*
X60353580Y-89680922D02*
X60258342Y-89633303D01*
X60258342Y-89633303D02*
X59972628Y-89633303D01*
X59972628Y-89633303D02*
X59877390Y-89680922D01*
X59877390Y-89680922D02*
X59829771Y-89728541D01*
X59829771Y-89728541D02*
X59782152Y-89823779D01*
X59782152Y-89823779D02*
X59782152Y-90014255D01*
X59782152Y-90014255D02*
X59829771Y-90109493D01*
X59782152Y-90538065D02*
X60639295Y-90538065D01*
X60639295Y-90538065D02*
X60734533Y-90490446D01*
X60734533Y-90490446D02*
X60782152Y-90395208D01*
X60782152Y-90395208D02*
X60782152Y-90347589D01*
X59448819Y-90538065D02*
X59496438Y-90490446D01*
X59496438Y-90490446D02*
X59544057Y-90538065D01*
X59544057Y-90538065D02*
X59496438Y-90585684D01*
X59496438Y-90585684D02*
X59448819Y-90538065D01*
X59448819Y-90538065D02*
X59544057Y-90538065D01*
X60448819Y-91157112D02*
X60401200Y-91061874D01*
X60401200Y-91061874D02*
X60305961Y-91014255D01*
X60305961Y-91014255D02*
X59448819Y-91014255D01*
X60401200Y-91966636D02*
X60448819Y-91871398D01*
X60448819Y-91871398D02*
X60448819Y-91680922D01*
X60448819Y-91680922D02*
X60401200Y-91585684D01*
X60401200Y-91585684D02*
X60353580Y-91538065D01*
X60353580Y-91538065D02*
X60258342Y-91490446D01*
X60258342Y-91490446D02*
X59972628Y-91490446D01*
X59972628Y-91490446D02*
X59877390Y-91538065D01*
X59877390Y-91538065D02*
X59829771Y-91585684D01*
X59829771Y-91585684D02*
X59782152Y-91680922D01*
X59782152Y-91680922D02*
X59782152Y-91871398D01*
X59782152Y-91871398D02*
X59829771Y-91966636D01*
X59782152Y-92395208D02*
X60639295Y-92395208D01*
X60639295Y-92395208D02*
X60734533Y-92347589D01*
X60734533Y-92347589D02*
X60782152Y-92252351D01*
X60782152Y-92252351D02*
X60782152Y-92204732D01*
X59448819Y-92395208D02*
X59496438Y-92347589D01*
X59496438Y-92347589D02*
X59544057Y-92395208D01*
X59544057Y-92395208D02*
X59496438Y-92442827D01*
X59496438Y-92442827D02*
X59448819Y-92395208D01*
X59448819Y-92395208D02*
X59544057Y-92395208D01*
X60448819Y-93014255D02*
X60401200Y-92919017D01*
X60401200Y-92919017D02*
X60305961Y-92871398D01*
X60305961Y-92871398D02*
X59448819Y-92871398D01*
X60401200Y-93823779D02*
X60448819Y-93728541D01*
X60448819Y-93728541D02*
X60448819Y-93538065D01*
X60448819Y-93538065D02*
X60401200Y-93442827D01*
X60401200Y-93442827D02*
X60353580Y-93395208D01*
X60353580Y-93395208D02*
X60258342Y-93347589D01*
X60258342Y-93347589D02*
X59972628Y-93347589D01*
X59972628Y-93347589D02*
X59877390Y-93395208D01*
X59877390Y-93395208D02*
X59829771Y-93442827D01*
X59829771Y-93442827D02*
X59782152Y-93538065D01*
X59782152Y-93538065D02*
X59782152Y-93728541D01*
X59782152Y-93728541D02*
X59829771Y-93823779D01*
D11*
X96251000Y-131445000D02*
X74153000Y-131445000D01*
X72375000Y-131445000D02*
X58278000Y-131445000D01*
X54197000Y-131745000D02*
X54197000Y-128645000D01*
X111999000Y-131451000D02*
X109586000Y-131451000D01*
X111999000Y-127895000D02*
X111999000Y-131451000D01*
X109586000Y-127895000D02*
X111999000Y-127895000D01*
X109586000Y-131451000D02*
X109586000Y-127895000D01*
X56647000Y-128645000D02*
X56647000Y-131745000D01*
X56647000Y-131745000D02*
X54197000Y-131745000D01*
X54197000Y-128645000D02*
X56647000Y-128645000D01*
D10*
X111498857Y-133042819D02*
X112070285Y-133042819D01*
X111784571Y-133042819D02*
X111784571Y-132042819D01*
X111784571Y-132042819D02*
X111879809Y-132185676D01*
X111879809Y-132185676D02*
X111975047Y-132280914D01*
X111975047Y-132280914D02*
X112070285Y-132328533D01*
X110594095Y-132042819D02*
X111070285Y-132042819D01*
X111070285Y-132042819D02*
X111117904Y-132519009D01*
X111117904Y-132519009D02*
X111070285Y-132471390D01*
X111070285Y-132471390D02*
X110975047Y-132423771D01*
X110975047Y-132423771D02*
X110736952Y-132423771D01*
X110736952Y-132423771D02*
X110641714Y-132471390D01*
X110641714Y-132471390D02*
X110594095Y-132519009D01*
X110594095Y-132519009D02*
X110546476Y-132614247D01*
X110546476Y-132614247D02*
X110546476Y-132852342D01*
X110546476Y-132852342D02*
X110594095Y-132947580D01*
X110594095Y-132947580D02*
X110641714Y-132995200D01*
X110641714Y-132995200D02*
X110736952Y-133042819D01*
X110736952Y-133042819D02*
X110975047Y-133042819D01*
X110975047Y-133042819D02*
X111070285Y-132995200D01*
X111070285Y-132995200D02*
X111117904Y-132947580D01*
X109689333Y-133042819D02*
X109689333Y-132519009D01*
X109689333Y-132519009D02*
X109736952Y-132423771D01*
X109736952Y-132423771D02*
X109832190Y-132376152D01*
X109832190Y-132376152D02*
X110022666Y-132376152D01*
X110022666Y-132376152D02*
X110117904Y-132423771D01*
X109689333Y-132995200D02*
X109784571Y-133042819D01*
X109784571Y-133042819D02*
X110022666Y-133042819D01*
X110022666Y-133042819D02*
X110117904Y-132995200D01*
X110117904Y-132995200D02*
X110165523Y-132899961D01*
X110165523Y-132899961D02*
X110165523Y-132804723D01*
X110165523Y-132804723D02*
X110117904Y-132709485D01*
X110117904Y-132709485D02*
X110022666Y-132661866D01*
X110022666Y-132661866D02*
X109784571Y-132661866D01*
X109784571Y-132661866D02*
X109689333Y-132614247D01*
D12*
X102065528Y-130250285D02*
X101994100Y-130321713D01*
X101994100Y-130321713D02*
X101922671Y-130535999D01*
X101922671Y-130535999D02*
X101922671Y-130678856D01*
X101922671Y-130678856D02*
X101994100Y-130893142D01*
X101994100Y-130893142D02*
X102136957Y-131035999D01*
X102136957Y-131035999D02*
X102279814Y-131107428D01*
X102279814Y-131107428D02*
X102565528Y-131178856D01*
X102565528Y-131178856D02*
X102779814Y-131178856D01*
X102779814Y-131178856D02*
X103065528Y-131107428D01*
X103065528Y-131107428D02*
X103208385Y-131035999D01*
X103208385Y-131035999D02*
X103351242Y-130893142D01*
X103351242Y-130893142D02*
X103422671Y-130678856D01*
X103422671Y-130678856D02*
X103422671Y-130535999D01*
X103422671Y-130535999D02*
X103351242Y-130321713D01*
X103351242Y-130321713D02*
X103279814Y-130250285D01*
X101994100Y-129678856D02*
X101922671Y-129464571D01*
X101922671Y-129464571D02*
X101922671Y-129107428D01*
X101922671Y-129107428D02*
X101994100Y-128964571D01*
X101994100Y-128964571D02*
X102065528Y-128893142D01*
X102065528Y-128893142D02*
X102208385Y-128821713D01*
X102208385Y-128821713D02*
X102351242Y-128821713D01*
X102351242Y-128821713D02*
X102494100Y-128893142D01*
X102494100Y-128893142D02*
X102565528Y-128964571D01*
X102565528Y-128964571D02*
X102636957Y-129107428D01*
X102636957Y-129107428D02*
X102708385Y-129393142D01*
X102708385Y-129393142D02*
X102779814Y-129535999D01*
X102779814Y-129535999D02*
X102851242Y-129607428D01*
X102851242Y-129607428D02*
X102994100Y-129678856D01*
X102994100Y-129678856D02*
X103136957Y-129678856D01*
X103136957Y-129678856D02*
X103279814Y-129607428D01*
X103279814Y-129607428D02*
X103351242Y-129535999D01*
X103351242Y-129535999D02*
X103422671Y-129393142D01*
X103422671Y-129393142D02*
X103422671Y-129035999D01*
X103422671Y-129035999D02*
X103351242Y-128821713D01*
X101922671Y-127393142D02*
X101922671Y-128250285D01*
X101922671Y-127821714D02*
X103422671Y-127821714D01*
X103422671Y-127821714D02*
X103208385Y-127964571D01*
X103208385Y-127964571D02*
X103065528Y-128107428D01*
X103065528Y-128107428D02*
X102994100Y-128250285D01*
X103839100Y-131314571D02*
X103839100Y-127257429D01*
X98668242Y-131071713D02*
X98668242Y-130357428D01*
X98239671Y-131214570D02*
X99739671Y-130714570D01*
X99739671Y-130714570D02*
X98239671Y-130214570D01*
X98239671Y-128928856D02*
X98239671Y-129785999D01*
X98239671Y-129357428D02*
X99739671Y-129357428D01*
X99739671Y-129357428D02*
X99525385Y-129500285D01*
X99525385Y-129500285D02*
X99382528Y-129643142D01*
X99382528Y-129643142D02*
X99311100Y-129785999D01*
X99596814Y-128357428D02*
X99668242Y-128286000D01*
X99668242Y-128286000D02*
X99739671Y-128143143D01*
X99739671Y-128143143D02*
X99739671Y-127786000D01*
X99739671Y-127786000D02*
X99668242Y-127643143D01*
X99668242Y-127643143D02*
X99596814Y-127571714D01*
X99596814Y-127571714D02*
X99453957Y-127500285D01*
X99453957Y-127500285D02*
X99311100Y-127500285D01*
X99311100Y-127500285D02*
X99096814Y-127571714D01*
X99096814Y-127571714D02*
X98239671Y-128428857D01*
X98239671Y-128428857D02*
X98239671Y-127500285D01*
D10*
X91773570Y-130471104D02*
X91297380Y-130471104D01*
X91868808Y-130756819D02*
X91535475Y-129756819D01*
X91535475Y-129756819D02*
X91202142Y-130756819D01*
X90583094Y-131090152D02*
X90821189Y-131090152D01*
X90821189Y-131090152D02*
X90821189Y-129661580D01*
X90821189Y-129661580D02*
X90583094Y-129661580D01*
X89678332Y-130756819D02*
X90249760Y-130756819D01*
X89964046Y-130756819D02*
X89964046Y-129756819D01*
X89964046Y-129756819D02*
X90059284Y-129899676D01*
X90059284Y-129899676D02*
X90154522Y-129994914D01*
X90154522Y-129994914D02*
X90249760Y-130042533D01*
X89059284Y-129756819D02*
X88964046Y-129756819D01*
X88964046Y-129756819D02*
X88868808Y-129804438D01*
X88868808Y-129804438D02*
X88821189Y-129852057D01*
X88821189Y-129852057D02*
X88773570Y-129947295D01*
X88773570Y-129947295D02*
X88725951Y-130137771D01*
X88725951Y-130137771D02*
X88725951Y-130375866D01*
X88725951Y-130375866D02*
X88773570Y-130566342D01*
X88773570Y-130566342D02*
X88821189Y-130661580D01*
X88821189Y-130661580D02*
X88868808Y-130709200D01*
X88868808Y-130709200D02*
X88964046Y-130756819D01*
X88964046Y-130756819D02*
X89059284Y-130756819D01*
X89059284Y-130756819D02*
X89154522Y-130709200D01*
X89154522Y-130709200D02*
X89202141Y-130661580D01*
X89202141Y-130661580D02*
X89249760Y-130566342D01*
X89249760Y-130566342D02*
X89297379Y-130375866D01*
X89297379Y-130375866D02*
X89297379Y-130137771D01*
X89297379Y-130137771D02*
X89249760Y-129947295D01*
X89249760Y-129947295D02*
X89202141Y-129852057D01*
X89202141Y-129852057D02*
X89154522Y-129804438D01*
X89154522Y-129804438D02*
X89059284Y-129756819D01*
X88249760Y-130709200D02*
X88249760Y-130756819D01*
X88249760Y-130756819D02*
X88297379Y-130852057D01*
X88297379Y-130852057D02*
X88344998Y-130899676D01*
X87678332Y-130185390D02*
X87773570Y-130137771D01*
X87773570Y-130137771D02*
X87821189Y-130090152D01*
X87821189Y-130090152D02*
X87868808Y-129994914D01*
X87868808Y-129994914D02*
X87868808Y-129947295D01*
X87868808Y-129947295D02*
X87821189Y-129852057D01*
X87821189Y-129852057D02*
X87773570Y-129804438D01*
X87773570Y-129804438D02*
X87678332Y-129756819D01*
X87678332Y-129756819D02*
X87487856Y-129756819D01*
X87487856Y-129756819D02*
X87392618Y-129804438D01*
X87392618Y-129804438D02*
X87344999Y-129852057D01*
X87344999Y-129852057D02*
X87297380Y-129947295D01*
X87297380Y-129947295D02*
X87297380Y-129994914D01*
X87297380Y-129994914D02*
X87344999Y-130090152D01*
X87344999Y-130090152D02*
X87392618Y-130137771D01*
X87392618Y-130137771D02*
X87487856Y-130185390D01*
X87487856Y-130185390D02*
X87678332Y-130185390D01*
X87678332Y-130185390D02*
X87773570Y-130233009D01*
X87773570Y-130233009D02*
X87821189Y-130280628D01*
X87821189Y-130280628D02*
X87868808Y-130375866D01*
X87868808Y-130375866D02*
X87868808Y-130566342D01*
X87868808Y-130566342D02*
X87821189Y-130661580D01*
X87821189Y-130661580D02*
X87773570Y-130709200D01*
X87773570Y-130709200D02*
X87678332Y-130756819D01*
X87678332Y-130756819D02*
X87487856Y-130756819D01*
X87487856Y-130756819D02*
X87392618Y-130709200D01*
X87392618Y-130709200D02*
X87344999Y-130661580D01*
X87344999Y-130661580D02*
X87297380Y-130566342D01*
X87297380Y-130566342D02*
X87297380Y-130375866D01*
X87297380Y-130375866D02*
X87344999Y-130280628D01*
X87344999Y-130280628D02*
X87392618Y-130233009D01*
X87392618Y-130233009D02*
X87487856Y-130185390D01*
X86821189Y-130709200D02*
X86821189Y-130756819D01*
X86821189Y-130756819D02*
X86868808Y-130852057D01*
X86868808Y-130852057D02*
X86916427Y-130899676D01*
X85964047Y-129756819D02*
X86154523Y-129756819D01*
X86154523Y-129756819D02*
X86249761Y-129804438D01*
X86249761Y-129804438D02*
X86297380Y-129852057D01*
X86297380Y-129852057D02*
X86392618Y-129994914D01*
X86392618Y-129994914D02*
X86440237Y-130185390D01*
X86440237Y-130185390D02*
X86440237Y-130566342D01*
X86440237Y-130566342D02*
X86392618Y-130661580D01*
X86392618Y-130661580D02*
X86344999Y-130709200D01*
X86344999Y-130709200D02*
X86249761Y-130756819D01*
X86249761Y-130756819D02*
X86059285Y-130756819D01*
X86059285Y-130756819D02*
X85964047Y-130709200D01*
X85964047Y-130709200D02*
X85916428Y-130661580D01*
X85916428Y-130661580D02*
X85868809Y-130566342D01*
X85868809Y-130566342D02*
X85868809Y-130328247D01*
X85868809Y-130328247D02*
X85916428Y-130233009D01*
X85916428Y-130233009D02*
X85964047Y-130185390D01*
X85964047Y-130185390D02*
X86059285Y-130137771D01*
X86059285Y-130137771D02*
X86249761Y-130137771D01*
X86249761Y-130137771D02*
X86344999Y-130185390D01*
X86344999Y-130185390D02*
X86392618Y-130233009D01*
X86392618Y-130233009D02*
X86440237Y-130328247D01*
X85392618Y-130709200D02*
X85392618Y-130756819D01*
X85392618Y-130756819D02*
X85440237Y-130852057D01*
X85440237Y-130852057D02*
X85487856Y-130899676D01*
X84535476Y-130090152D02*
X84535476Y-130756819D01*
X84773571Y-129709200D02*
X85011666Y-130423485D01*
X85011666Y-130423485D02*
X84392619Y-130423485D01*
X83964047Y-130709200D02*
X83964047Y-130756819D01*
X83964047Y-130756819D02*
X84011666Y-130852057D01*
X84011666Y-130852057D02*
X84059285Y-130899676D01*
X83583095Y-129852057D02*
X83535476Y-129804438D01*
X83535476Y-129804438D02*
X83440238Y-129756819D01*
X83440238Y-129756819D02*
X83202143Y-129756819D01*
X83202143Y-129756819D02*
X83106905Y-129804438D01*
X83106905Y-129804438D02*
X83059286Y-129852057D01*
X83059286Y-129852057D02*
X83011667Y-129947295D01*
X83011667Y-129947295D02*
X83011667Y-130042533D01*
X83011667Y-130042533D02*
X83059286Y-130185390D01*
X83059286Y-130185390D02*
X83630714Y-130756819D01*
X83630714Y-130756819D02*
X83011667Y-130756819D01*
X82535476Y-130709200D02*
X82535476Y-130756819D01*
X82535476Y-130756819D02*
X82583095Y-130852057D01*
X82583095Y-130852057D02*
X82630714Y-130899676D01*
X81916429Y-129756819D02*
X81821191Y-129756819D01*
X81821191Y-129756819D02*
X81725953Y-129804438D01*
X81725953Y-129804438D02*
X81678334Y-129852057D01*
X81678334Y-129852057D02*
X81630715Y-129947295D01*
X81630715Y-129947295D02*
X81583096Y-130137771D01*
X81583096Y-130137771D02*
X81583096Y-130375866D01*
X81583096Y-130375866D02*
X81630715Y-130566342D01*
X81630715Y-130566342D02*
X81678334Y-130661580D01*
X81678334Y-130661580D02*
X81725953Y-130709200D01*
X81725953Y-130709200D02*
X81821191Y-130756819D01*
X81821191Y-130756819D02*
X81916429Y-130756819D01*
X81916429Y-130756819D02*
X82011667Y-130709200D01*
X82011667Y-130709200D02*
X82059286Y-130661580D01*
X82059286Y-130661580D02*
X82106905Y-130566342D01*
X82106905Y-130566342D02*
X82154524Y-130375866D01*
X82154524Y-130375866D02*
X82154524Y-130137771D01*
X82154524Y-130137771D02*
X82106905Y-129947295D01*
X82106905Y-129947295D02*
X82059286Y-129852057D01*
X82059286Y-129852057D02*
X82011667Y-129804438D01*
X82011667Y-129804438D02*
X81916429Y-129756819D01*
X81249762Y-131090152D02*
X81011667Y-131090152D01*
X81011667Y-131090152D02*
X81011667Y-129661580D01*
X81011667Y-129661580D02*
X81249762Y-129661580D01*
X68937618Y-130756819D02*
X68937618Y-129756819D01*
X68937618Y-129756819D02*
X68699523Y-129756819D01*
X68699523Y-129756819D02*
X68556666Y-129804438D01*
X68556666Y-129804438D02*
X68461428Y-129899676D01*
X68461428Y-129899676D02*
X68413809Y-129994914D01*
X68413809Y-129994914D02*
X68366190Y-130185390D01*
X68366190Y-130185390D02*
X68366190Y-130328247D01*
X68366190Y-130328247D02*
X68413809Y-130518723D01*
X68413809Y-130518723D02*
X68461428Y-130613961D01*
X68461428Y-130613961D02*
X68556666Y-130709200D01*
X68556666Y-130709200D02*
X68699523Y-130756819D01*
X68699523Y-130756819D02*
X68937618Y-130756819D01*
X67651904Y-131090152D02*
X67889999Y-131090152D01*
X67889999Y-131090152D02*
X67889999Y-129661580D01*
X67889999Y-129661580D02*
X67651904Y-129661580D01*
X66842380Y-129756819D02*
X67032856Y-129756819D01*
X67032856Y-129756819D02*
X67128094Y-129804438D01*
X67128094Y-129804438D02*
X67175713Y-129852057D01*
X67175713Y-129852057D02*
X67270951Y-129994914D01*
X67270951Y-129994914D02*
X67318570Y-130185390D01*
X67318570Y-130185390D02*
X67318570Y-130566342D01*
X67318570Y-130566342D02*
X67270951Y-130661580D01*
X67270951Y-130661580D02*
X67223332Y-130709200D01*
X67223332Y-130709200D02*
X67128094Y-130756819D01*
X67128094Y-130756819D02*
X66937618Y-130756819D01*
X66937618Y-130756819D02*
X66842380Y-130709200D01*
X66842380Y-130709200D02*
X66794761Y-130661580D01*
X66794761Y-130661580D02*
X66747142Y-130566342D01*
X66747142Y-130566342D02*
X66747142Y-130328247D01*
X66747142Y-130328247D02*
X66794761Y-130233009D01*
X66794761Y-130233009D02*
X66842380Y-130185390D01*
X66842380Y-130185390D02*
X66937618Y-130137771D01*
X66937618Y-130137771D02*
X67128094Y-130137771D01*
X67128094Y-130137771D02*
X67223332Y-130185390D01*
X67223332Y-130185390D02*
X67270951Y-130233009D01*
X67270951Y-130233009D02*
X67318570Y-130328247D01*
X66270951Y-130709200D02*
X66270951Y-130756819D01*
X66270951Y-130756819D02*
X66318570Y-130852057D01*
X66318570Y-130852057D02*
X66366189Y-130899676D01*
X65413809Y-130090152D02*
X65413809Y-130756819D01*
X65651904Y-129709200D02*
X65889999Y-130423485D01*
X65889999Y-130423485D02*
X65270952Y-130423485D01*
X64842380Y-130709200D02*
X64842380Y-130756819D01*
X64842380Y-130756819D02*
X64889999Y-130852057D01*
X64889999Y-130852057D02*
X64937618Y-130899676D01*
X64461428Y-129852057D02*
X64413809Y-129804438D01*
X64413809Y-129804438D02*
X64318571Y-129756819D01*
X64318571Y-129756819D02*
X64080476Y-129756819D01*
X64080476Y-129756819D02*
X63985238Y-129804438D01*
X63985238Y-129804438D02*
X63937619Y-129852057D01*
X63937619Y-129852057D02*
X63890000Y-129947295D01*
X63890000Y-129947295D02*
X63890000Y-130042533D01*
X63890000Y-130042533D02*
X63937619Y-130185390D01*
X63937619Y-130185390D02*
X64509047Y-130756819D01*
X64509047Y-130756819D02*
X63890000Y-130756819D01*
X63413809Y-130709200D02*
X63413809Y-130756819D01*
X63413809Y-130756819D02*
X63461428Y-130852057D01*
X63461428Y-130852057D02*
X63509047Y-130899676D01*
X62794762Y-129756819D02*
X62699524Y-129756819D01*
X62699524Y-129756819D02*
X62604286Y-129804438D01*
X62604286Y-129804438D02*
X62556667Y-129852057D01*
X62556667Y-129852057D02*
X62509048Y-129947295D01*
X62509048Y-129947295D02*
X62461429Y-130137771D01*
X62461429Y-130137771D02*
X62461429Y-130375866D01*
X62461429Y-130375866D02*
X62509048Y-130566342D01*
X62509048Y-130566342D02*
X62556667Y-130661580D01*
X62556667Y-130661580D02*
X62604286Y-130709200D01*
X62604286Y-130709200D02*
X62699524Y-130756819D01*
X62699524Y-130756819D02*
X62794762Y-130756819D01*
X62794762Y-130756819D02*
X62890000Y-130709200D01*
X62890000Y-130709200D02*
X62937619Y-130661580D01*
X62937619Y-130661580D02*
X62985238Y-130566342D01*
X62985238Y-130566342D02*
X63032857Y-130375866D01*
X63032857Y-130375866D02*
X63032857Y-130137771D01*
X63032857Y-130137771D02*
X62985238Y-129947295D01*
X62985238Y-129947295D02*
X62937619Y-129852057D01*
X62937619Y-129852057D02*
X62890000Y-129804438D01*
X62890000Y-129804438D02*
X62794762Y-129756819D01*
X62128095Y-131090152D02*
X61890000Y-131090152D01*
X61890000Y-131090152D02*
X61890000Y-129661580D01*
X61890000Y-129661580D02*
X62128095Y-129661580D01*
X55510666Y-133042819D02*
X56082094Y-133042819D01*
X55796380Y-133042819D02*
X55796380Y-132042819D01*
X55796380Y-132042819D02*
X55891618Y-132185676D01*
X55891618Y-132185676D02*
X55986856Y-132280914D01*
X55986856Y-132280914D02*
X56082094Y-132328533D01*
X54653523Y-133042819D02*
X54653523Y-132519009D01*
X54653523Y-132519009D02*
X54701142Y-132423771D01*
X54701142Y-132423771D02*
X54796380Y-132376152D01*
X54796380Y-132376152D02*
X54986856Y-132376152D01*
X54986856Y-132376152D02*
X55082094Y-132423771D01*
X54653523Y-132995200D02*
X54748761Y-133042819D01*
X54748761Y-133042819D02*
X54986856Y-133042819D01*
X54986856Y-133042819D02*
X55082094Y-132995200D01*
X55082094Y-132995200D02*
X55129713Y-132899961D01*
X55129713Y-132899961D02*
X55129713Y-132804723D01*
X55129713Y-132804723D02*
X55082094Y-132709485D01*
X55082094Y-132709485D02*
X54986856Y-132661866D01*
X54986856Y-132661866D02*
X54748761Y-132661866D01*
X54748761Y-132661866D02*
X54653523Y-132614247D01*
X54792180Y-131290237D02*
X55792180Y-131290237D01*
X55792180Y-131290237D02*
X54792180Y-130718809D01*
X54792180Y-130718809D02*
X55792180Y-130718809D01*
X54792180Y-130242618D02*
X55792180Y-130242618D01*
X55792180Y-130242618D02*
X55077895Y-129909285D01*
X55077895Y-129909285D02*
X55792180Y-129575952D01*
X55792180Y-129575952D02*
X54792180Y-129575952D01*
X54792180Y-129099761D02*
X55792180Y-129099761D01*
X56069800Y-131428333D02*
X56069800Y-128961667D01*
X110358438Y-128911095D02*
X110310819Y-128815857D01*
X110310819Y-128815857D02*
X110310819Y-128673000D01*
X110310819Y-128673000D02*
X110358438Y-128530143D01*
X110358438Y-128530143D02*
X110453676Y-128434905D01*
X110453676Y-128434905D02*
X110548914Y-128387286D01*
X110548914Y-128387286D02*
X110739390Y-128339667D01*
X110739390Y-128339667D02*
X110882247Y-128339667D01*
X110882247Y-128339667D02*
X111072723Y-128387286D01*
X111072723Y-128387286D02*
X111167961Y-128434905D01*
X111167961Y-128434905D02*
X111263200Y-128530143D01*
X111263200Y-128530143D02*
X111310819Y-128673000D01*
X111310819Y-128673000D02*
X111310819Y-128768238D01*
X111310819Y-128768238D02*
X111263200Y-128911095D01*
X111263200Y-128911095D02*
X111215580Y-128958714D01*
X111215580Y-128958714D02*
X110882247Y-128958714D01*
X110882247Y-128958714D02*
X110882247Y-128768238D01*
X111310819Y-129387286D02*
X110310819Y-129387286D01*
X110310819Y-129387286D02*
X111310819Y-129958714D01*
X111310819Y-129958714D02*
X110310819Y-129958714D01*
X111310819Y-130434905D02*
X110310819Y-130434905D01*
X110310819Y-130434905D02*
X110310819Y-130673000D01*
X110310819Y-130673000D02*
X110358438Y-130815857D01*
X110358438Y-130815857D02*
X110453676Y-130911095D01*
X110453676Y-130911095D02*
X110548914Y-130958714D01*
X110548914Y-130958714D02*
X110739390Y-131006333D01*
X110739390Y-131006333D02*
X110882247Y-131006333D01*
X110882247Y-131006333D02*
X111072723Y-130958714D01*
X111072723Y-130958714D02*
X111167961Y-130911095D01*
X111167961Y-130911095D02*
X111263200Y-130815857D01*
X111263200Y-130815857D02*
X111310819Y-130673000D01*
X111310819Y-130673000D02*
X111310819Y-130434905D01*
D12*
X74303441Y-64478038D02*
X74303441Y-62478038D01*
X74303441Y-62478038D02*
X73541536Y-62478038D01*
X73541536Y-62478038D02*
X73351060Y-62573276D01*
X73351060Y-62573276D02*
X73255822Y-62668514D01*
X73255822Y-62668514D02*
X73160584Y-62858990D01*
X73160584Y-62858990D02*
X73160584Y-63144704D01*
X73160584Y-63144704D02*
X73255822Y-63335180D01*
X73255822Y-63335180D02*
X73351060Y-63430419D01*
X73351060Y-63430419D02*
X73541536Y-63525657D01*
X73541536Y-63525657D02*
X74303441Y-63525657D01*
X72398679Y-62668514D02*
X72303441Y-62573276D01*
X72303441Y-62573276D02*
X72112965Y-62478038D01*
X72112965Y-62478038D02*
X71636774Y-62478038D01*
X71636774Y-62478038D02*
X71446298Y-62573276D01*
X71446298Y-62573276D02*
X71351060Y-62668514D01*
X71351060Y-62668514D02*
X71255822Y-62858990D01*
X71255822Y-62858990D02*
X71255822Y-63049466D01*
X71255822Y-63049466D02*
X71351060Y-63335180D01*
X71351060Y-63335180D02*
X72493917Y-64478038D01*
X72493917Y-64478038D02*
X71255822Y-64478038D01*
X70017727Y-62478038D02*
X69827250Y-62478038D01*
X69827250Y-62478038D02*
X69636774Y-62573276D01*
X69636774Y-62573276D02*
X69541536Y-62668514D01*
X69541536Y-62668514D02*
X69446298Y-62858990D01*
X69446298Y-62858990D02*
X69351060Y-63239942D01*
X69351060Y-63239942D02*
X69351060Y-63716133D01*
X69351060Y-63716133D02*
X69446298Y-64097085D01*
X69446298Y-64097085D02*
X69541536Y-64287561D01*
X69541536Y-64287561D02*
X69636774Y-64382800D01*
X69636774Y-64382800D02*
X69827250Y-64478038D01*
X69827250Y-64478038D02*
X70017727Y-64478038D01*
X70017727Y-64478038D02*
X70208203Y-64382800D01*
X70208203Y-64382800D02*
X70303441Y-64287561D01*
X70303441Y-64287561D02*
X70398679Y-64097085D01*
X70398679Y-64097085D02*
X70493917Y-63716133D01*
X70493917Y-63716133D02*
X70493917Y-63239942D01*
X70493917Y-63239942D02*
X70398679Y-62858990D01*
X70398679Y-62858990D02*
X70303441Y-62668514D01*
X70303441Y-62668514D02*
X70208203Y-62573276D01*
X70208203Y-62573276D02*
X70017727Y-62478038D01*
X68112965Y-62478038D02*
X67922488Y-62478038D01*
X67922488Y-62478038D02*
X67732012Y-62573276D01*
X67732012Y-62573276D02*
X67636774Y-62668514D01*
X67636774Y-62668514D02*
X67541536Y-62858990D01*
X67541536Y-62858990D02*
X67446298Y-63239942D01*
X67446298Y-63239942D02*
X67446298Y-63716133D01*
X67446298Y-63716133D02*
X67541536Y-64097085D01*
X67541536Y-64097085D02*
X67636774Y-64287561D01*
X67636774Y-64287561D02*
X67732012Y-64382800D01*
X67732012Y-64382800D02*
X67922488Y-64478038D01*
X67922488Y-64478038D02*
X68112965Y-64478038D01*
X68112965Y-64478038D02*
X68303441Y-64382800D01*
X68303441Y-64382800D02*
X68398679Y-64287561D01*
X68398679Y-64287561D02*
X68493917Y-64097085D01*
X68493917Y-64097085D02*
X68589155Y-63716133D01*
X68589155Y-63716133D02*
X68589155Y-63239942D01*
X68589155Y-63239942D02*
X68493917Y-62858990D01*
X68493917Y-62858990D02*
X68398679Y-62668514D01*
X68398679Y-62668514D02*
X68303441Y-62573276D01*
X68303441Y-62573276D02*
X68112965Y-62478038D01*
X66208203Y-62478038D02*
X66017726Y-62478038D01*
X66017726Y-62478038D02*
X65827250Y-62573276D01*
X65827250Y-62573276D02*
X65732012Y-62668514D01*
X65732012Y-62668514D02*
X65636774Y-62858990D01*
X65636774Y-62858990D02*
X65541536Y-63239942D01*
X65541536Y-63239942D02*
X65541536Y-63716133D01*
X65541536Y-63716133D02*
X65636774Y-64097085D01*
X65636774Y-64097085D02*
X65732012Y-64287561D01*
X65732012Y-64287561D02*
X65827250Y-64382800D01*
X65827250Y-64382800D02*
X66017726Y-64478038D01*
X66017726Y-64478038D02*
X66208203Y-64478038D01*
X66208203Y-64478038D02*
X66398679Y-64382800D01*
X66398679Y-64382800D02*
X66493917Y-64287561D01*
X66493917Y-64287561D02*
X66589155Y-64097085D01*
X66589155Y-64097085D02*
X66684393Y-63716133D01*
X66684393Y-63716133D02*
X66684393Y-63239942D01*
X66684393Y-63239942D02*
X66589155Y-62858990D01*
X66589155Y-62858990D02*
X66493917Y-62668514D01*
X66493917Y-62668514D02*
X66398679Y-62573276D01*
X66398679Y-62573276D02*
X66208203Y-62478038D01*
D10*
X73454923Y-67244190D02*
X73550161Y-67196571D01*
X73550161Y-67196571D02*
X73597780Y-67148952D01*
X73597780Y-67148952D02*
X73645399Y-67053714D01*
X73645399Y-67053714D02*
X73645399Y-67006095D01*
X73645399Y-67006095D02*
X73597780Y-66910857D01*
X73597780Y-66910857D02*
X73550161Y-66863238D01*
X73550161Y-66863238D02*
X73454923Y-66815619D01*
X73454923Y-66815619D02*
X73264447Y-66815619D01*
X73264447Y-66815619D02*
X73169209Y-66863238D01*
X73169209Y-66863238D02*
X73121590Y-66910857D01*
X73121590Y-66910857D02*
X73073971Y-67006095D01*
X73073971Y-67006095D02*
X73073971Y-67053714D01*
X73073971Y-67053714D02*
X73121590Y-67148952D01*
X73121590Y-67148952D02*
X73169209Y-67196571D01*
X73169209Y-67196571D02*
X73264447Y-67244190D01*
X73264447Y-67244190D02*
X73454923Y-67244190D01*
X73454923Y-67244190D02*
X73550161Y-67291809D01*
X73550161Y-67291809D02*
X73597780Y-67339428D01*
X73597780Y-67339428D02*
X73645399Y-67434666D01*
X73645399Y-67434666D02*
X73645399Y-67625142D01*
X73645399Y-67625142D02*
X73597780Y-67720380D01*
X73597780Y-67720380D02*
X73550161Y-67768000D01*
X73550161Y-67768000D02*
X73454923Y-67815619D01*
X73454923Y-67815619D02*
X73264447Y-67815619D01*
X73264447Y-67815619D02*
X73169209Y-67768000D01*
X73169209Y-67768000D02*
X73121590Y-67720380D01*
X73121590Y-67720380D02*
X73073971Y-67625142D01*
X73073971Y-67625142D02*
X73073971Y-67434666D01*
X73073971Y-67434666D02*
X73121590Y-67339428D01*
X73121590Y-67339428D02*
X73169209Y-67291809D01*
X73169209Y-67291809D02*
X73264447Y-67244190D01*
X72740637Y-67815619D02*
X72216828Y-67148952D01*
X72740637Y-67148952D02*
X72216828Y-67815619D01*
X71312066Y-67815619D02*
X71883494Y-67815619D01*
X71597780Y-67815619D02*
X71597780Y-66815619D01*
X71597780Y-66815619D02*
X71693018Y-66958476D01*
X71693018Y-66958476D02*
X71788256Y-67053714D01*
X71788256Y-67053714D02*
X71883494Y-67101333D01*
X70454923Y-66815619D02*
X70645399Y-66815619D01*
X70645399Y-66815619D02*
X70740637Y-66863238D01*
X70740637Y-66863238D02*
X70788256Y-66910857D01*
X70788256Y-66910857D02*
X70883494Y-67053714D01*
X70883494Y-67053714D02*
X70931113Y-67244190D01*
X70931113Y-67244190D02*
X70931113Y-67625142D01*
X70931113Y-67625142D02*
X70883494Y-67720380D01*
X70883494Y-67720380D02*
X70835875Y-67768000D01*
X70835875Y-67768000D02*
X70740637Y-67815619D01*
X70740637Y-67815619D02*
X70550161Y-67815619D01*
X70550161Y-67815619D02*
X70454923Y-67768000D01*
X70454923Y-67768000D02*
X70407304Y-67720380D01*
X70407304Y-67720380D02*
X70359685Y-67625142D01*
X70359685Y-67625142D02*
X70359685Y-67387047D01*
X70359685Y-67387047D02*
X70407304Y-67291809D01*
X70407304Y-67291809D02*
X70454923Y-67244190D01*
X70454923Y-67244190D02*
X70550161Y-67196571D01*
X70550161Y-67196571D02*
X70740637Y-67196571D01*
X70740637Y-67196571D02*
X70835875Y-67244190D01*
X70835875Y-67244190D02*
X70883494Y-67291809D01*
X70883494Y-67291809D02*
X70931113Y-67387047D01*
X69931113Y-67815619D02*
X69931113Y-66815619D01*
X69835875Y-67434666D02*
X69550161Y-67815619D01*
X69550161Y-67148952D02*
X69931113Y-67529904D01*
X69121589Y-67815619D02*
X69121589Y-66815619D01*
X69121589Y-67196571D02*
X69026351Y-67148952D01*
X69026351Y-67148952D02*
X68835875Y-67148952D01*
X68835875Y-67148952D02*
X68740637Y-67196571D01*
X68740637Y-67196571D02*
X68693018Y-67244190D01*
X68693018Y-67244190D02*
X68645399Y-67339428D01*
X68645399Y-67339428D02*
X68645399Y-67625142D01*
X68645399Y-67625142D02*
X68693018Y-67720380D01*
X68693018Y-67720380D02*
X68740637Y-67768000D01*
X68740637Y-67768000D02*
X68835875Y-67815619D01*
X68835875Y-67815619D02*
X69026351Y-67815619D01*
X69026351Y-67815619D02*
X69121589Y-67768000D01*
X74124675Y-66139219D02*
X74124675Y-65139219D01*
X74124675Y-65139219D02*
X73791342Y-65853504D01*
X73791342Y-65853504D02*
X73458009Y-65139219D01*
X73458009Y-65139219D02*
X73458009Y-66139219D01*
X72981818Y-65139219D02*
X72981818Y-65948742D01*
X72981818Y-65948742D02*
X72934199Y-66043980D01*
X72934199Y-66043980D02*
X72886580Y-66091600D01*
X72886580Y-66091600D02*
X72791342Y-66139219D01*
X72791342Y-66139219D02*
X72600866Y-66139219D01*
X72600866Y-66139219D02*
X72505628Y-66091600D01*
X72505628Y-66091600D02*
X72458009Y-66043980D01*
X72458009Y-66043980D02*
X72410390Y-65948742D01*
X72410390Y-65948742D02*
X72410390Y-65139219D01*
X71458009Y-66139219D02*
X71934199Y-66139219D01*
X71934199Y-66139219D02*
X71934199Y-65139219D01*
X71267532Y-65139219D02*
X70696104Y-65139219D01*
X70981818Y-66139219D02*
X70981818Y-65139219D01*
X70362770Y-66139219D02*
X70362770Y-65139219D01*
X69315152Y-66043980D02*
X69362771Y-66091600D01*
X69362771Y-66091600D02*
X69505628Y-66139219D01*
X69505628Y-66139219D02*
X69600866Y-66139219D01*
X69600866Y-66139219D02*
X69743723Y-66091600D01*
X69743723Y-66091600D02*
X69838961Y-65996361D01*
X69838961Y-65996361D02*
X69886580Y-65901123D01*
X69886580Y-65901123D02*
X69934199Y-65710647D01*
X69934199Y-65710647D02*
X69934199Y-65567790D01*
X69934199Y-65567790D02*
X69886580Y-65377314D01*
X69886580Y-65377314D02*
X69838961Y-65282076D01*
X69838961Y-65282076D02*
X69743723Y-65186838D01*
X69743723Y-65186838D02*
X69600866Y-65139219D01*
X69600866Y-65139219D02*
X69505628Y-65139219D01*
X69505628Y-65139219D02*
X69362771Y-65186838D01*
X69362771Y-65186838D02*
X69315152Y-65234457D01*
X68934199Y-65853504D02*
X68458009Y-65853504D01*
X69029437Y-66139219D02*
X68696104Y-65139219D01*
X68696104Y-65139219D02*
X68362771Y-66139219D01*
X67458009Y-66139219D02*
X67791342Y-65663028D01*
X68029437Y-66139219D02*
X68029437Y-65139219D01*
X68029437Y-65139219D02*
X67648485Y-65139219D01*
X67648485Y-65139219D02*
X67553247Y-65186838D01*
X67553247Y-65186838D02*
X67505628Y-65234457D01*
X67505628Y-65234457D02*
X67458009Y-65329695D01*
X67458009Y-65329695D02*
X67458009Y-65472552D01*
X67458009Y-65472552D02*
X67505628Y-65567790D01*
X67505628Y-65567790D02*
X67553247Y-65615409D01*
X67553247Y-65615409D02*
X67648485Y-65663028D01*
X67648485Y-65663028D02*
X68029437Y-65663028D01*
X67172294Y-65139219D02*
X66600866Y-65139219D01*
X66886580Y-66139219D02*
X66886580Y-65139219D01*
X95750857Y-133042819D02*
X96322285Y-133042819D01*
X96036571Y-133042819D02*
X96036571Y-132042819D01*
X96036571Y-132042819D02*
X96131809Y-132185676D01*
X96131809Y-132185676D02*
X96227047Y-132280914D01*
X96227047Y-132280914D02*
X96322285Y-132328533D01*
X94798476Y-133042819D02*
X95369904Y-133042819D01*
X95084190Y-133042819D02*
X95084190Y-132042819D01*
X95084190Y-132042819D02*
X95179428Y-132185676D01*
X95179428Y-132185676D02*
X95274666Y-132280914D01*
X95274666Y-132280914D02*
X95369904Y-132328533D01*
X93941333Y-133042819D02*
X93941333Y-132519009D01*
X93941333Y-132519009D02*
X93988952Y-132423771D01*
X93988952Y-132423771D02*
X94084190Y-132376152D01*
X94084190Y-132376152D02*
X94274666Y-132376152D01*
X94274666Y-132376152D02*
X94369904Y-132423771D01*
X93941333Y-132995200D02*
X94036571Y-133042819D01*
X94036571Y-133042819D02*
X94274666Y-133042819D01*
X94274666Y-133042819D02*
X94369904Y-132995200D01*
X94369904Y-132995200D02*
X94417523Y-132899961D01*
X94417523Y-132899961D02*
X94417523Y-132804723D01*
X94417523Y-132804723D02*
X94369904Y-132709485D01*
X94369904Y-132709485D02*
X94274666Y-132661866D01*
X94274666Y-132661866D02*
X94036571Y-132661866D01*
X94036571Y-132661866D02*
X93941333Y-132614247D01*
X91686857Y-133042819D02*
X92258285Y-133042819D01*
X91972571Y-133042819D02*
X91972571Y-132042819D01*
X91972571Y-132042819D02*
X92067809Y-132185676D01*
X92067809Y-132185676D02*
X92163047Y-132280914D01*
X92163047Y-132280914D02*
X92258285Y-132328533D01*
X91067809Y-132042819D02*
X90972571Y-132042819D01*
X90972571Y-132042819D02*
X90877333Y-132090438D01*
X90877333Y-132090438D02*
X90829714Y-132138057D01*
X90829714Y-132138057D02*
X90782095Y-132233295D01*
X90782095Y-132233295D02*
X90734476Y-132423771D01*
X90734476Y-132423771D02*
X90734476Y-132661866D01*
X90734476Y-132661866D02*
X90782095Y-132852342D01*
X90782095Y-132852342D02*
X90829714Y-132947580D01*
X90829714Y-132947580D02*
X90877333Y-132995200D01*
X90877333Y-132995200D02*
X90972571Y-133042819D01*
X90972571Y-133042819D02*
X91067809Y-133042819D01*
X91067809Y-133042819D02*
X91163047Y-132995200D01*
X91163047Y-132995200D02*
X91210666Y-132947580D01*
X91210666Y-132947580D02*
X91258285Y-132852342D01*
X91258285Y-132852342D02*
X91305904Y-132661866D01*
X91305904Y-132661866D02*
X91305904Y-132423771D01*
X91305904Y-132423771D02*
X91258285Y-132233295D01*
X91258285Y-132233295D02*
X91210666Y-132138057D01*
X91210666Y-132138057D02*
X91163047Y-132090438D01*
X91163047Y-132090438D02*
X91067809Y-132042819D01*
X89877333Y-133042819D02*
X89877333Y-132519009D01*
X89877333Y-132519009D02*
X89924952Y-132423771D01*
X89924952Y-132423771D02*
X90020190Y-132376152D01*
X90020190Y-132376152D02*
X90210666Y-132376152D01*
X90210666Y-132376152D02*
X90305904Y-132423771D01*
X89877333Y-132995200D02*
X89972571Y-133042819D01*
X89972571Y-133042819D02*
X90210666Y-133042819D01*
X90210666Y-133042819D02*
X90305904Y-132995200D01*
X90305904Y-132995200D02*
X90353523Y-132899961D01*
X90353523Y-132899961D02*
X90353523Y-132804723D01*
X90353523Y-132804723D02*
X90305904Y-132709485D01*
X90305904Y-132709485D02*
X90210666Y-132661866D01*
X90210666Y-132661866D02*
X89972571Y-132661866D01*
X89972571Y-132661866D02*
X89877333Y-132614247D01*
X60032094Y-132138057D02*
X59984475Y-132090438D01*
X59984475Y-132090438D02*
X59889237Y-132042819D01*
X59889237Y-132042819D02*
X59651142Y-132042819D01*
X59651142Y-132042819D02*
X59555904Y-132090438D01*
X59555904Y-132090438D02*
X59508285Y-132138057D01*
X59508285Y-132138057D02*
X59460666Y-132233295D01*
X59460666Y-132233295D02*
X59460666Y-132328533D01*
X59460666Y-132328533D02*
X59508285Y-132471390D01*
X59508285Y-132471390D02*
X60079713Y-133042819D01*
X60079713Y-133042819D02*
X59460666Y-133042819D01*
X58603523Y-133042819D02*
X58603523Y-132519009D01*
X58603523Y-132519009D02*
X58651142Y-132423771D01*
X58651142Y-132423771D02*
X58746380Y-132376152D01*
X58746380Y-132376152D02*
X58936856Y-132376152D01*
X58936856Y-132376152D02*
X59032094Y-132423771D01*
X58603523Y-132995200D02*
X58698761Y-133042819D01*
X58698761Y-133042819D02*
X58936856Y-133042819D01*
X58936856Y-133042819D02*
X59032094Y-132995200D01*
X59032094Y-132995200D02*
X59079713Y-132899961D01*
X59079713Y-132899961D02*
X59079713Y-132804723D01*
X59079713Y-132804723D02*
X59032094Y-132709485D01*
X59032094Y-132709485D02*
X58936856Y-132661866D01*
X58936856Y-132661866D02*
X58698761Y-132661866D01*
X58698761Y-132661866D02*
X58603523Y-132614247D01*
X75430904Y-132042819D02*
X75621380Y-132042819D01*
X75621380Y-132042819D02*
X75716618Y-132090438D01*
X75716618Y-132090438D02*
X75764237Y-132138057D01*
X75764237Y-132138057D02*
X75859475Y-132280914D01*
X75859475Y-132280914D02*
X75907094Y-132471390D01*
X75907094Y-132471390D02*
X75907094Y-132852342D01*
X75907094Y-132852342D02*
X75859475Y-132947580D01*
X75859475Y-132947580D02*
X75811856Y-132995200D01*
X75811856Y-132995200D02*
X75716618Y-133042819D01*
X75716618Y-133042819D02*
X75526142Y-133042819D01*
X75526142Y-133042819D02*
X75430904Y-132995200D01*
X75430904Y-132995200D02*
X75383285Y-132947580D01*
X75383285Y-132947580D02*
X75335666Y-132852342D01*
X75335666Y-132852342D02*
X75335666Y-132614247D01*
X75335666Y-132614247D02*
X75383285Y-132519009D01*
X75383285Y-132519009D02*
X75430904Y-132471390D01*
X75430904Y-132471390D02*
X75526142Y-132423771D01*
X75526142Y-132423771D02*
X75716618Y-132423771D01*
X75716618Y-132423771D02*
X75811856Y-132471390D01*
X75811856Y-132471390D02*
X75859475Y-132519009D01*
X75859475Y-132519009D02*
X75907094Y-132614247D01*
X74478523Y-133042819D02*
X74478523Y-132519009D01*
X74478523Y-132519009D02*
X74526142Y-132423771D01*
X74526142Y-132423771D02*
X74621380Y-132376152D01*
X74621380Y-132376152D02*
X74811856Y-132376152D01*
X74811856Y-132376152D02*
X74907094Y-132423771D01*
X74478523Y-132995200D02*
X74573761Y-133042819D01*
X74573761Y-133042819D02*
X74811856Y-133042819D01*
X74811856Y-133042819D02*
X74907094Y-132995200D01*
X74907094Y-132995200D02*
X74954713Y-132899961D01*
X74954713Y-132899961D02*
X74954713Y-132804723D01*
X74954713Y-132804723D02*
X74907094Y-132709485D01*
X74907094Y-132709485D02*
X74811856Y-132661866D01*
X74811856Y-132661866D02*
X74573761Y-132661866D01*
X74573761Y-132661866D02*
X74478523Y-132614247D01*
X79891713Y-132042819D02*
X79225047Y-132042819D01*
X79225047Y-132042819D02*
X79653618Y-133042819D01*
X78415523Y-133042819D02*
X78415523Y-132519009D01*
X78415523Y-132519009D02*
X78463142Y-132423771D01*
X78463142Y-132423771D02*
X78558380Y-132376152D01*
X78558380Y-132376152D02*
X78748856Y-132376152D01*
X78748856Y-132376152D02*
X78844094Y-132423771D01*
X78415523Y-132995200D02*
X78510761Y-133042819D01*
X78510761Y-133042819D02*
X78748856Y-133042819D01*
X78748856Y-133042819D02*
X78844094Y-132995200D01*
X78844094Y-132995200D02*
X78891713Y-132899961D01*
X78891713Y-132899961D02*
X78891713Y-132804723D01*
X78891713Y-132804723D02*
X78844094Y-132709485D01*
X78844094Y-132709485D02*
X78748856Y-132661866D01*
X78748856Y-132661866D02*
X78510761Y-132661866D01*
X78510761Y-132661866D02*
X78415523Y-132614247D01*
X103624857Y-133042819D02*
X104196285Y-133042819D01*
X103910571Y-133042819D02*
X103910571Y-132042819D01*
X103910571Y-132042819D02*
X104005809Y-132185676D01*
X104005809Y-132185676D02*
X104101047Y-132280914D01*
X104101047Y-132280914D02*
X104196285Y-132328533D01*
X103291523Y-132042819D02*
X102672476Y-132042819D01*
X102672476Y-132042819D02*
X103005809Y-132423771D01*
X103005809Y-132423771D02*
X102862952Y-132423771D01*
X102862952Y-132423771D02*
X102767714Y-132471390D01*
X102767714Y-132471390D02*
X102720095Y-132519009D01*
X102720095Y-132519009D02*
X102672476Y-132614247D01*
X102672476Y-132614247D02*
X102672476Y-132852342D01*
X102672476Y-132852342D02*
X102720095Y-132947580D01*
X102720095Y-132947580D02*
X102767714Y-132995200D01*
X102767714Y-132995200D02*
X102862952Y-133042819D01*
X102862952Y-133042819D02*
X103148666Y-133042819D01*
X103148666Y-133042819D02*
X103243904Y-132995200D01*
X103243904Y-132995200D02*
X103291523Y-132947580D01*
X101815333Y-133042819D02*
X101815333Y-132519009D01*
X101815333Y-132519009D02*
X101862952Y-132423771D01*
X101862952Y-132423771D02*
X101958190Y-132376152D01*
X101958190Y-132376152D02*
X102148666Y-132376152D01*
X102148666Y-132376152D02*
X102243904Y-132423771D01*
X101815333Y-132995200D02*
X101910571Y-133042819D01*
X101910571Y-133042819D02*
X102148666Y-133042819D01*
X102148666Y-133042819D02*
X102243904Y-132995200D01*
X102243904Y-132995200D02*
X102291523Y-132899961D01*
X102291523Y-132899961D02*
X102291523Y-132804723D01*
X102291523Y-132804723D02*
X102243904Y-132709485D01*
X102243904Y-132709485D02*
X102148666Y-132661866D01*
X102148666Y-132661866D02*
X101910571Y-132661866D01*
X101910571Y-132661866D02*
X101815333Y-132614247D01*
X87749856Y-133042819D02*
X87559380Y-133042819D01*
X87559380Y-133042819D02*
X87464142Y-132995200D01*
X87464142Y-132995200D02*
X87416523Y-132947580D01*
X87416523Y-132947580D02*
X87321285Y-132804723D01*
X87321285Y-132804723D02*
X87273666Y-132614247D01*
X87273666Y-132614247D02*
X87273666Y-132233295D01*
X87273666Y-132233295D02*
X87321285Y-132138057D01*
X87321285Y-132138057D02*
X87368904Y-132090438D01*
X87368904Y-132090438D02*
X87464142Y-132042819D01*
X87464142Y-132042819D02*
X87654618Y-132042819D01*
X87654618Y-132042819D02*
X87749856Y-132090438D01*
X87749856Y-132090438D02*
X87797475Y-132138057D01*
X87797475Y-132138057D02*
X87845094Y-132233295D01*
X87845094Y-132233295D02*
X87845094Y-132471390D01*
X87845094Y-132471390D02*
X87797475Y-132566628D01*
X87797475Y-132566628D02*
X87749856Y-132614247D01*
X87749856Y-132614247D02*
X87654618Y-132661866D01*
X87654618Y-132661866D02*
X87464142Y-132661866D01*
X87464142Y-132661866D02*
X87368904Y-132614247D01*
X87368904Y-132614247D02*
X87321285Y-132566628D01*
X87321285Y-132566628D02*
X87273666Y-132471390D01*
X86416523Y-133042819D02*
X86416523Y-132519009D01*
X86416523Y-132519009D02*
X86464142Y-132423771D01*
X86464142Y-132423771D02*
X86559380Y-132376152D01*
X86559380Y-132376152D02*
X86749856Y-132376152D01*
X86749856Y-132376152D02*
X86845094Y-132423771D01*
X86416523Y-132995200D02*
X86511761Y-133042819D01*
X86511761Y-133042819D02*
X86749856Y-133042819D01*
X86749856Y-133042819D02*
X86845094Y-132995200D01*
X86845094Y-132995200D02*
X86892713Y-132899961D01*
X86892713Y-132899961D02*
X86892713Y-132804723D01*
X86892713Y-132804723D02*
X86845094Y-132709485D01*
X86845094Y-132709485D02*
X86749856Y-132661866D01*
X86749856Y-132661866D02*
X86511761Y-132661866D01*
X86511761Y-132661866D02*
X86416523Y-132614247D01*
X67556904Y-132376152D02*
X67556904Y-133042819D01*
X67794999Y-131995200D02*
X68033094Y-132709485D01*
X68033094Y-132709485D02*
X67414047Y-132709485D01*
X66604523Y-133042819D02*
X66604523Y-132519009D01*
X66604523Y-132519009D02*
X66652142Y-132423771D01*
X66652142Y-132423771D02*
X66747380Y-132376152D01*
X66747380Y-132376152D02*
X66937856Y-132376152D01*
X66937856Y-132376152D02*
X67033094Y-132423771D01*
X66604523Y-132995200D02*
X66699761Y-133042819D01*
X66699761Y-133042819D02*
X66937856Y-133042819D01*
X66937856Y-133042819D02*
X67033094Y-132995200D01*
X67033094Y-132995200D02*
X67080713Y-132899961D01*
X67080713Y-132899961D02*
X67080713Y-132804723D01*
X67080713Y-132804723D02*
X67033094Y-132709485D01*
X67033094Y-132709485D02*
X66937856Y-132661866D01*
X66937856Y-132661866D02*
X66699761Y-132661866D01*
X66699761Y-132661866D02*
X66604523Y-132614247D01*
X71446285Y-132042819D02*
X71922475Y-132042819D01*
X71922475Y-132042819D02*
X71970094Y-132519009D01*
X71970094Y-132519009D02*
X71922475Y-132471390D01*
X71922475Y-132471390D02*
X71827237Y-132423771D01*
X71827237Y-132423771D02*
X71589142Y-132423771D01*
X71589142Y-132423771D02*
X71493904Y-132471390D01*
X71493904Y-132471390D02*
X71446285Y-132519009D01*
X71446285Y-132519009D02*
X71398666Y-132614247D01*
X71398666Y-132614247D02*
X71398666Y-132852342D01*
X71398666Y-132852342D02*
X71446285Y-132947580D01*
X71446285Y-132947580D02*
X71493904Y-132995200D01*
X71493904Y-132995200D02*
X71589142Y-133042819D01*
X71589142Y-133042819D02*
X71827237Y-133042819D01*
X71827237Y-133042819D02*
X71922475Y-132995200D01*
X71922475Y-132995200D02*
X71970094Y-132947580D01*
X70541523Y-133042819D02*
X70541523Y-132519009D01*
X70541523Y-132519009D02*
X70589142Y-132423771D01*
X70589142Y-132423771D02*
X70684380Y-132376152D01*
X70684380Y-132376152D02*
X70874856Y-132376152D01*
X70874856Y-132376152D02*
X70970094Y-132423771D01*
X70541523Y-132995200D02*
X70636761Y-133042819D01*
X70636761Y-133042819D02*
X70874856Y-133042819D01*
X70874856Y-133042819D02*
X70970094Y-132995200D01*
X70970094Y-132995200D02*
X71017713Y-132899961D01*
X71017713Y-132899961D02*
X71017713Y-132804723D01*
X71017713Y-132804723D02*
X70970094Y-132709485D01*
X70970094Y-132709485D02*
X70874856Y-132661866D01*
X70874856Y-132661866D02*
X70636761Y-132661866D01*
X70636761Y-132661866D02*
X70541523Y-132614247D01*
X99687857Y-133042819D02*
X100259285Y-133042819D01*
X99973571Y-133042819D02*
X99973571Y-132042819D01*
X99973571Y-132042819D02*
X100068809Y-132185676D01*
X100068809Y-132185676D02*
X100164047Y-132280914D01*
X100164047Y-132280914D02*
X100259285Y-132328533D01*
X99306904Y-132138057D02*
X99259285Y-132090438D01*
X99259285Y-132090438D02*
X99164047Y-132042819D01*
X99164047Y-132042819D02*
X98925952Y-132042819D01*
X98925952Y-132042819D02*
X98830714Y-132090438D01*
X98830714Y-132090438D02*
X98783095Y-132138057D01*
X98783095Y-132138057D02*
X98735476Y-132233295D01*
X98735476Y-132233295D02*
X98735476Y-132328533D01*
X98735476Y-132328533D02*
X98783095Y-132471390D01*
X98783095Y-132471390D02*
X99354523Y-133042819D01*
X99354523Y-133042819D02*
X98735476Y-133042819D01*
X97878333Y-133042819D02*
X97878333Y-132519009D01*
X97878333Y-132519009D02*
X97925952Y-132423771D01*
X97925952Y-132423771D02*
X98021190Y-132376152D01*
X98021190Y-132376152D02*
X98211666Y-132376152D01*
X98211666Y-132376152D02*
X98306904Y-132423771D01*
X97878333Y-132995200D02*
X97973571Y-133042819D01*
X97973571Y-133042819D02*
X98211666Y-133042819D01*
X98211666Y-133042819D02*
X98306904Y-132995200D01*
X98306904Y-132995200D02*
X98354523Y-132899961D01*
X98354523Y-132899961D02*
X98354523Y-132804723D01*
X98354523Y-132804723D02*
X98306904Y-132709485D01*
X98306904Y-132709485D02*
X98211666Y-132661866D01*
X98211666Y-132661866D02*
X97973571Y-132661866D01*
X97973571Y-132661866D02*
X97878333Y-132614247D01*
X64143713Y-132042819D02*
X63524666Y-132042819D01*
X63524666Y-132042819D02*
X63857999Y-132423771D01*
X63857999Y-132423771D02*
X63715142Y-132423771D01*
X63715142Y-132423771D02*
X63619904Y-132471390D01*
X63619904Y-132471390D02*
X63572285Y-132519009D01*
X63572285Y-132519009D02*
X63524666Y-132614247D01*
X63524666Y-132614247D02*
X63524666Y-132852342D01*
X63524666Y-132852342D02*
X63572285Y-132947580D01*
X63572285Y-132947580D02*
X63619904Y-132995200D01*
X63619904Y-132995200D02*
X63715142Y-133042819D01*
X63715142Y-133042819D02*
X64000856Y-133042819D01*
X64000856Y-133042819D02*
X64096094Y-132995200D01*
X64096094Y-132995200D02*
X64143713Y-132947580D01*
X62667523Y-133042819D02*
X62667523Y-132519009D01*
X62667523Y-132519009D02*
X62715142Y-132423771D01*
X62715142Y-132423771D02*
X62810380Y-132376152D01*
X62810380Y-132376152D02*
X63000856Y-132376152D01*
X63000856Y-132376152D02*
X63096094Y-132423771D01*
X62667523Y-132995200D02*
X62762761Y-133042819D01*
X62762761Y-133042819D02*
X63000856Y-133042819D01*
X63000856Y-133042819D02*
X63096094Y-132995200D01*
X63096094Y-132995200D02*
X63143713Y-132899961D01*
X63143713Y-132899961D02*
X63143713Y-132804723D01*
X63143713Y-132804723D02*
X63096094Y-132709485D01*
X63096094Y-132709485D02*
X63000856Y-132661866D01*
X63000856Y-132661866D02*
X62762761Y-132661866D01*
X62762761Y-132661866D02*
X62667523Y-132614247D01*
X83717618Y-132471390D02*
X83812856Y-132423771D01*
X83812856Y-132423771D02*
X83860475Y-132376152D01*
X83860475Y-132376152D02*
X83908094Y-132280914D01*
X83908094Y-132280914D02*
X83908094Y-132233295D01*
X83908094Y-132233295D02*
X83860475Y-132138057D01*
X83860475Y-132138057D02*
X83812856Y-132090438D01*
X83812856Y-132090438D02*
X83717618Y-132042819D01*
X83717618Y-132042819D02*
X83527142Y-132042819D01*
X83527142Y-132042819D02*
X83431904Y-132090438D01*
X83431904Y-132090438D02*
X83384285Y-132138057D01*
X83384285Y-132138057D02*
X83336666Y-132233295D01*
X83336666Y-132233295D02*
X83336666Y-132280914D01*
X83336666Y-132280914D02*
X83384285Y-132376152D01*
X83384285Y-132376152D02*
X83431904Y-132423771D01*
X83431904Y-132423771D02*
X83527142Y-132471390D01*
X83527142Y-132471390D02*
X83717618Y-132471390D01*
X83717618Y-132471390D02*
X83812856Y-132519009D01*
X83812856Y-132519009D02*
X83860475Y-132566628D01*
X83860475Y-132566628D02*
X83908094Y-132661866D01*
X83908094Y-132661866D02*
X83908094Y-132852342D01*
X83908094Y-132852342D02*
X83860475Y-132947580D01*
X83860475Y-132947580D02*
X83812856Y-132995200D01*
X83812856Y-132995200D02*
X83717618Y-133042819D01*
X83717618Y-133042819D02*
X83527142Y-133042819D01*
X83527142Y-133042819D02*
X83431904Y-132995200D01*
X83431904Y-132995200D02*
X83384285Y-132947580D01*
X83384285Y-132947580D02*
X83336666Y-132852342D01*
X83336666Y-132852342D02*
X83336666Y-132661866D01*
X83336666Y-132661866D02*
X83384285Y-132566628D01*
X83384285Y-132566628D02*
X83431904Y-132519009D01*
X83431904Y-132519009D02*
X83527142Y-132471390D01*
X82479523Y-133042819D02*
X82479523Y-132519009D01*
X82479523Y-132519009D02*
X82527142Y-132423771D01*
X82527142Y-132423771D02*
X82622380Y-132376152D01*
X82622380Y-132376152D02*
X82812856Y-132376152D01*
X82812856Y-132376152D02*
X82908094Y-132423771D01*
X82479523Y-132995200D02*
X82574761Y-133042819D01*
X82574761Y-133042819D02*
X82812856Y-133042819D01*
X82812856Y-133042819D02*
X82908094Y-132995200D01*
X82908094Y-132995200D02*
X82955713Y-132899961D01*
X82955713Y-132899961D02*
X82955713Y-132804723D01*
X82955713Y-132804723D02*
X82908094Y-132709485D01*
X82908094Y-132709485D02*
X82812856Y-132661866D01*
X82812856Y-132661866D02*
X82574761Y-132661866D01*
X82574761Y-132661866D02*
X82479523Y-132614247D01*
X92368666Y-56969819D02*
X92701999Y-56493628D01*
X92940094Y-56969819D02*
X92940094Y-55969819D01*
X92940094Y-55969819D02*
X92559142Y-55969819D01*
X92559142Y-55969819D02*
X92463904Y-56017438D01*
X92463904Y-56017438D02*
X92416285Y-56065057D01*
X92416285Y-56065057D02*
X92368666Y-56160295D01*
X92368666Y-56160295D02*
X92368666Y-56303152D01*
X92368666Y-56303152D02*
X92416285Y-56398390D01*
X92416285Y-56398390D02*
X92463904Y-56446009D01*
X92463904Y-56446009D02*
X92559142Y-56493628D01*
X92559142Y-56493628D02*
X92940094Y-56493628D01*
X92035332Y-55969819D02*
X91368666Y-55969819D01*
X91368666Y-55969819D02*
X91797237Y-56969819D01*
X60872904Y-77769819D02*
X60872904Y-78579342D01*
X60872904Y-78579342D02*
X60825285Y-78674580D01*
X60825285Y-78674580D02*
X60777666Y-78722200D01*
X60777666Y-78722200D02*
X60682428Y-78769819D01*
X60682428Y-78769819D02*
X60491952Y-78769819D01*
X60491952Y-78769819D02*
X60396714Y-78722200D01*
X60396714Y-78722200D02*
X60349095Y-78674580D01*
X60349095Y-78674580D02*
X60301476Y-78579342D01*
X60301476Y-78579342D02*
X60301476Y-77769819D01*
X59872904Y-77865057D02*
X59825285Y-77817438D01*
X59825285Y-77817438D02*
X59730047Y-77769819D01*
X59730047Y-77769819D02*
X59491952Y-77769819D01*
X59491952Y-77769819D02*
X59396714Y-77817438D01*
X59396714Y-77817438D02*
X59349095Y-77865057D01*
X59349095Y-77865057D02*
X59301476Y-77960295D01*
X59301476Y-77960295D02*
X59301476Y-78055533D01*
X59301476Y-78055533D02*
X59349095Y-78198390D01*
X59349095Y-78198390D02*
X59920523Y-78769819D01*
X59920523Y-78769819D02*
X59301476Y-78769819D01*
X90288904Y-40351819D02*
X89717476Y-40351819D01*
X90003190Y-41351819D02*
X90003190Y-40351819D01*
X89384142Y-41351819D02*
X89384142Y-40351819D01*
X89384142Y-40351819D02*
X89003190Y-40351819D01*
X89003190Y-40351819D02*
X88907952Y-40399438D01*
X88907952Y-40399438D02*
X88860333Y-40447057D01*
X88860333Y-40447057D02*
X88812714Y-40542295D01*
X88812714Y-40542295D02*
X88812714Y-40685152D01*
X88812714Y-40685152D02*
X88860333Y-40780390D01*
X88860333Y-40780390D02*
X88907952Y-40828009D01*
X88907952Y-40828009D02*
X89003190Y-40875628D01*
X89003190Y-40875628D02*
X89384142Y-40875628D01*
X88431761Y-40447057D02*
X88384142Y-40399438D01*
X88384142Y-40399438D02*
X88288904Y-40351819D01*
X88288904Y-40351819D02*
X88050809Y-40351819D01*
X88050809Y-40351819D02*
X87955571Y-40399438D01*
X87955571Y-40399438D02*
X87907952Y-40447057D01*
X87907952Y-40447057D02*
X87860333Y-40542295D01*
X87860333Y-40542295D02*
X87860333Y-40637533D01*
X87860333Y-40637533D02*
X87907952Y-40780390D01*
X87907952Y-40780390D02*
X88479380Y-41351819D01*
X88479380Y-41351819D02*
X87860333Y-41351819D01*
X80128904Y-40351819D02*
X79557476Y-40351819D01*
X79843190Y-41351819D02*
X79843190Y-40351819D01*
X79224142Y-41351819D02*
X79224142Y-40351819D01*
X79224142Y-40351819D02*
X78843190Y-40351819D01*
X78843190Y-40351819D02*
X78747952Y-40399438D01*
X78747952Y-40399438D02*
X78700333Y-40447057D01*
X78700333Y-40447057D02*
X78652714Y-40542295D01*
X78652714Y-40542295D02*
X78652714Y-40685152D01*
X78652714Y-40685152D02*
X78700333Y-40780390D01*
X78700333Y-40780390D02*
X78747952Y-40828009D01*
X78747952Y-40828009D02*
X78843190Y-40875628D01*
X78843190Y-40875628D02*
X79224142Y-40875628D01*
X77700333Y-41351819D02*
X78271761Y-41351819D01*
X77986047Y-41351819D02*
X77986047Y-40351819D01*
X77986047Y-40351819D02*
X78081285Y-40494676D01*
X78081285Y-40494676D02*
X78176523Y-40589914D01*
X78176523Y-40589914D02*
X78271761Y-40637533D01*
X49974332Y-44599200D02*
X49831475Y-44646819D01*
X49831475Y-44646819D02*
X49593380Y-44646819D01*
X49593380Y-44646819D02*
X49498142Y-44599200D01*
X49498142Y-44599200D02*
X49450523Y-44551580D01*
X49450523Y-44551580D02*
X49402904Y-44456342D01*
X49402904Y-44456342D02*
X49402904Y-44361104D01*
X49402904Y-44361104D02*
X49450523Y-44265866D01*
X49450523Y-44265866D02*
X49498142Y-44218247D01*
X49498142Y-44218247D02*
X49593380Y-44170628D01*
X49593380Y-44170628D02*
X49783856Y-44123009D01*
X49783856Y-44123009D02*
X49879094Y-44075390D01*
X49879094Y-44075390D02*
X49926713Y-44027771D01*
X49926713Y-44027771D02*
X49974332Y-43932533D01*
X49974332Y-43932533D02*
X49974332Y-43837295D01*
X49974332Y-43837295D02*
X49926713Y-43742057D01*
X49926713Y-43742057D02*
X49879094Y-43694438D01*
X49879094Y-43694438D02*
X49783856Y-43646819D01*
X49783856Y-43646819D02*
X49545761Y-43646819D01*
X49545761Y-43646819D02*
X49402904Y-43694438D01*
X49069570Y-43646819D02*
X48831475Y-44646819D01*
X48831475Y-44646819D02*
X48640999Y-43932533D01*
X48640999Y-43932533D02*
X48450523Y-44646819D01*
X48450523Y-44646819D02*
X48212428Y-43646819D01*
X47307666Y-44646819D02*
X47879094Y-44646819D01*
X47593380Y-44646819D02*
X47593380Y-43646819D01*
X47593380Y-43646819D02*
X47688618Y-43789676D01*
X47688618Y-43789676D02*
X47783856Y-43884914D01*
X47783856Y-43884914D02*
X47879094Y-43932533D01*
X72293819Y-94448333D02*
X71817628Y-94115000D01*
X72293819Y-93876905D02*
X71293819Y-93876905D01*
X71293819Y-93876905D02*
X71293819Y-94257857D01*
X71293819Y-94257857D02*
X71341438Y-94353095D01*
X71341438Y-94353095D02*
X71389057Y-94400714D01*
X71389057Y-94400714D02*
X71484295Y-94448333D01*
X71484295Y-94448333D02*
X71627152Y-94448333D01*
X71627152Y-94448333D02*
X71722390Y-94400714D01*
X71722390Y-94400714D02*
X71770009Y-94353095D01*
X71770009Y-94353095D02*
X71817628Y-94257857D01*
X71817628Y-94257857D02*
X71817628Y-93876905D01*
X71293819Y-95305476D02*
X71293819Y-95115000D01*
X71293819Y-95115000D02*
X71341438Y-95019762D01*
X71341438Y-95019762D02*
X71389057Y-94972143D01*
X71389057Y-94972143D02*
X71531914Y-94876905D01*
X71531914Y-94876905D02*
X71722390Y-94829286D01*
X71722390Y-94829286D02*
X72103342Y-94829286D01*
X72103342Y-94829286D02*
X72198580Y-94876905D01*
X72198580Y-94876905D02*
X72246200Y-94924524D01*
X72246200Y-94924524D02*
X72293819Y-95019762D01*
X72293819Y-95019762D02*
X72293819Y-95210238D01*
X72293819Y-95210238D02*
X72246200Y-95305476D01*
X72246200Y-95305476D02*
X72198580Y-95353095D01*
X72198580Y-95353095D02*
X72103342Y-95400714D01*
X72103342Y-95400714D02*
X71865247Y-95400714D01*
X71865247Y-95400714D02*
X71770009Y-95353095D01*
X71770009Y-95353095D02*
X71722390Y-95305476D01*
X71722390Y-95305476D02*
X71674771Y-95210238D01*
X71674771Y-95210238D02*
X71674771Y-95019762D01*
X71674771Y-95019762D02*
X71722390Y-94924524D01*
X71722390Y-94924524D02*
X71770009Y-94876905D01*
X71770009Y-94876905D02*
X71865247Y-94829286D01*
X49011819Y-84288333D02*
X48535628Y-83955000D01*
X49011819Y-83716905D02*
X48011819Y-83716905D01*
X48011819Y-83716905D02*
X48011819Y-84097857D01*
X48011819Y-84097857D02*
X48059438Y-84193095D01*
X48059438Y-84193095D02*
X48107057Y-84240714D01*
X48107057Y-84240714D02*
X48202295Y-84288333D01*
X48202295Y-84288333D02*
X48345152Y-84288333D01*
X48345152Y-84288333D02*
X48440390Y-84240714D01*
X48440390Y-84240714D02*
X48488009Y-84193095D01*
X48488009Y-84193095D02*
X48535628Y-84097857D01*
X48535628Y-84097857D02*
X48535628Y-83716905D01*
X48011819Y-85193095D02*
X48011819Y-84716905D01*
X48011819Y-84716905D02*
X48488009Y-84669286D01*
X48488009Y-84669286D02*
X48440390Y-84716905D01*
X48440390Y-84716905D02*
X48392771Y-84812143D01*
X48392771Y-84812143D02*
X48392771Y-85050238D01*
X48392771Y-85050238D02*
X48440390Y-85145476D01*
X48440390Y-85145476D02*
X48488009Y-85193095D01*
X48488009Y-85193095D02*
X48583247Y-85240714D01*
X48583247Y-85240714D02*
X48821342Y-85240714D01*
X48821342Y-85240714D02*
X48916580Y-85193095D01*
X48916580Y-85193095D02*
X48964200Y-85145476D01*
X48964200Y-85145476D02*
X49011819Y-85050238D01*
X49011819Y-85050238D02*
X49011819Y-84812143D01*
X49011819Y-84812143D02*
X48964200Y-84716905D01*
X48964200Y-84716905D02*
X48916580Y-84669286D01*
X72293819Y-84288333D02*
X71817628Y-83955000D01*
X72293819Y-83716905D02*
X71293819Y-83716905D01*
X71293819Y-83716905D02*
X71293819Y-84097857D01*
X71293819Y-84097857D02*
X71341438Y-84193095D01*
X71341438Y-84193095D02*
X71389057Y-84240714D01*
X71389057Y-84240714D02*
X71484295Y-84288333D01*
X71484295Y-84288333D02*
X71627152Y-84288333D01*
X71627152Y-84288333D02*
X71722390Y-84240714D01*
X71722390Y-84240714D02*
X71770009Y-84193095D01*
X71770009Y-84193095D02*
X71817628Y-84097857D01*
X71817628Y-84097857D02*
X71817628Y-83716905D01*
X71627152Y-85145476D02*
X72293819Y-85145476D01*
X71246200Y-84907381D02*
X71960485Y-84669286D01*
X71960485Y-84669286D02*
X71960485Y-85288333D01*
X69957266Y-112074580D02*
X70004885Y-112122200D01*
X70004885Y-112122200D02*
X70147742Y-112169819D01*
X70147742Y-112169819D02*
X70242980Y-112169819D01*
X70242980Y-112169819D02*
X70385837Y-112122200D01*
X70385837Y-112122200D02*
X70481075Y-112026961D01*
X70481075Y-112026961D02*
X70528694Y-111931723D01*
X70528694Y-111931723D02*
X70576313Y-111741247D01*
X70576313Y-111741247D02*
X70576313Y-111598390D01*
X70576313Y-111598390D02*
X70528694Y-111407914D01*
X70528694Y-111407914D02*
X70481075Y-111312676D01*
X70481075Y-111312676D02*
X70385837Y-111217438D01*
X70385837Y-111217438D02*
X70242980Y-111169819D01*
X70242980Y-111169819D02*
X70147742Y-111169819D01*
X70147742Y-111169819D02*
X70004885Y-111217438D01*
X70004885Y-111217438D02*
X69957266Y-111265057D01*
X69100123Y-111503152D02*
X69100123Y-112169819D01*
X69338218Y-111122200D02*
X69576313Y-111836485D01*
X69576313Y-111836485D02*
X68957266Y-111836485D01*
X60277666Y-73384580D02*
X60325285Y-73432200D01*
X60325285Y-73432200D02*
X60468142Y-73479819D01*
X60468142Y-73479819D02*
X60563380Y-73479819D01*
X60563380Y-73479819D02*
X60706237Y-73432200D01*
X60706237Y-73432200D02*
X60801475Y-73336961D01*
X60801475Y-73336961D02*
X60849094Y-73241723D01*
X60849094Y-73241723D02*
X60896713Y-73051247D01*
X60896713Y-73051247D02*
X60896713Y-72908390D01*
X60896713Y-72908390D02*
X60849094Y-72717914D01*
X60849094Y-72717914D02*
X60801475Y-72622676D01*
X60801475Y-72622676D02*
X60706237Y-72527438D01*
X60706237Y-72527438D02*
X60563380Y-72479819D01*
X60563380Y-72479819D02*
X60468142Y-72479819D01*
X60468142Y-72479819D02*
X60325285Y-72527438D01*
X60325285Y-72527438D02*
X60277666Y-72575057D01*
X59944332Y-72479819D02*
X59325285Y-72479819D01*
X59325285Y-72479819D02*
X59658618Y-72860771D01*
X59658618Y-72860771D02*
X59515761Y-72860771D01*
X59515761Y-72860771D02*
X59420523Y-72908390D01*
X59420523Y-72908390D02*
X59372904Y-72956009D01*
X59372904Y-72956009D02*
X59325285Y-73051247D01*
X59325285Y-73051247D02*
X59325285Y-73289342D01*
X59325285Y-73289342D02*
X59372904Y-73384580D01*
X59372904Y-73384580D02*
X59420523Y-73432200D01*
X59420523Y-73432200D02*
X59515761Y-73479819D01*
X59515761Y-73479819D02*
X59801475Y-73479819D01*
X59801475Y-73479819D02*
X59896713Y-73432200D01*
X59896713Y-73432200D02*
X59944332Y-73384580D01*
X62337266Y-112074580D02*
X62384885Y-112122200D01*
X62384885Y-112122200D02*
X62527742Y-112169819D01*
X62527742Y-112169819D02*
X62622980Y-112169819D01*
X62622980Y-112169819D02*
X62765837Y-112122200D01*
X62765837Y-112122200D02*
X62861075Y-112026961D01*
X62861075Y-112026961D02*
X62908694Y-111931723D01*
X62908694Y-111931723D02*
X62956313Y-111741247D01*
X62956313Y-111741247D02*
X62956313Y-111598390D01*
X62956313Y-111598390D02*
X62908694Y-111407914D01*
X62908694Y-111407914D02*
X62861075Y-111312676D01*
X62861075Y-111312676D02*
X62765837Y-111217438D01*
X62765837Y-111217438D02*
X62622980Y-111169819D01*
X62622980Y-111169819D02*
X62527742Y-111169819D01*
X62527742Y-111169819D02*
X62384885Y-111217438D01*
X62384885Y-111217438D02*
X62337266Y-111265057D01*
X61384885Y-112169819D02*
X61956313Y-112169819D01*
X61670599Y-112169819D02*
X61670599Y-111169819D01*
X61670599Y-111169819D02*
X61765837Y-111312676D01*
X61765837Y-111312676D02*
X61861075Y-111407914D01*
X61861075Y-111407914D02*
X61956313Y-111455533D01*
X102996904Y-80182819D02*
X102996904Y-80992342D01*
X102996904Y-80992342D02*
X102949285Y-81087580D01*
X102949285Y-81087580D02*
X102901666Y-81135200D01*
X102901666Y-81135200D02*
X102806428Y-81182819D01*
X102806428Y-81182819D02*
X102615952Y-81182819D01*
X102615952Y-81182819D02*
X102520714Y-81135200D01*
X102520714Y-81135200D02*
X102473095Y-81087580D01*
X102473095Y-81087580D02*
X102425476Y-80992342D01*
X102425476Y-80992342D02*
X102425476Y-80182819D01*
X102044523Y-80182819D02*
X101425476Y-80182819D01*
X101425476Y-80182819D02*
X101758809Y-80563771D01*
X101758809Y-80563771D02*
X101615952Y-80563771D01*
X101615952Y-80563771D02*
X101520714Y-80611390D01*
X101520714Y-80611390D02*
X101473095Y-80659009D01*
X101473095Y-80659009D02*
X101425476Y-80754247D01*
X101425476Y-80754247D02*
X101425476Y-80992342D01*
X101425476Y-80992342D02*
X101473095Y-81087580D01*
X101473095Y-81087580D02*
X101520714Y-81135200D01*
X101520714Y-81135200D02*
X101615952Y-81182819D01*
X101615952Y-81182819D02*
X101901666Y-81182819D01*
X101901666Y-81182819D02*
X101996904Y-81135200D01*
X101996904Y-81135200D02*
X102044523Y-81087580D01*
X102353666Y-75216580D02*
X102401285Y-75264200D01*
X102401285Y-75264200D02*
X102544142Y-75311819D01*
X102544142Y-75311819D02*
X102639380Y-75311819D01*
X102639380Y-75311819D02*
X102782237Y-75264200D01*
X102782237Y-75264200D02*
X102877475Y-75168961D01*
X102877475Y-75168961D02*
X102925094Y-75073723D01*
X102925094Y-75073723D02*
X102972713Y-74883247D01*
X102972713Y-74883247D02*
X102972713Y-74740390D01*
X102972713Y-74740390D02*
X102925094Y-74549914D01*
X102925094Y-74549914D02*
X102877475Y-74454676D01*
X102877475Y-74454676D02*
X102782237Y-74359438D01*
X102782237Y-74359438D02*
X102639380Y-74311819D01*
X102639380Y-74311819D02*
X102544142Y-74311819D01*
X102544142Y-74311819D02*
X102401285Y-74359438D01*
X102401285Y-74359438D02*
X102353666Y-74407057D01*
X101448904Y-74311819D02*
X101925094Y-74311819D01*
X101925094Y-74311819D02*
X101972713Y-74788009D01*
X101972713Y-74788009D02*
X101925094Y-74740390D01*
X101925094Y-74740390D02*
X101829856Y-74692771D01*
X101829856Y-74692771D02*
X101591761Y-74692771D01*
X101591761Y-74692771D02*
X101496523Y-74740390D01*
X101496523Y-74740390D02*
X101448904Y-74788009D01*
X101448904Y-74788009D02*
X101401285Y-74883247D01*
X101401285Y-74883247D02*
X101401285Y-75121342D01*
X101401285Y-75121342D02*
X101448904Y-75216580D01*
X101448904Y-75216580D02*
X101496523Y-75264200D01*
X101496523Y-75264200D02*
X101591761Y-75311819D01*
X101591761Y-75311819D02*
X101829856Y-75311819D01*
X101829856Y-75311819D02*
X101925094Y-75264200D01*
X101925094Y-75264200D02*
X101972713Y-75216580D01*
X83438666Y-72477580D02*
X83486285Y-72525200D01*
X83486285Y-72525200D02*
X83629142Y-72572819D01*
X83629142Y-72572819D02*
X83724380Y-72572819D01*
X83724380Y-72572819D02*
X83867237Y-72525200D01*
X83867237Y-72525200D02*
X83962475Y-72429961D01*
X83962475Y-72429961D02*
X84010094Y-72334723D01*
X84010094Y-72334723D02*
X84057713Y-72144247D01*
X84057713Y-72144247D02*
X84057713Y-72001390D01*
X84057713Y-72001390D02*
X84010094Y-71810914D01*
X84010094Y-71810914D02*
X83962475Y-71715676D01*
X83962475Y-71715676D02*
X83867237Y-71620438D01*
X83867237Y-71620438D02*
X83724380Y-71572819D01*
X83724380Y-71572819D02*
X83629142Y-71572819D01*
X83629142Y-71572819D02*
X83486285Y-71620438D01*
X83486285Y-71620438D02*
X83438666Y-71668057D01*
X83057713Y-71668057D02*
X83010094Y-71620438D01*
X83010094Y-71620438D02*
X82914856Y-71572819D01*
X82914856Y-71572819D02*
X82676761Y-71572819D01*
X82676761Y-71572819D02*
X82581523Y-71620438D01*
X82581523Y-71620438D02*
X82533904Y-71668057D01*
X82533904Y-71668057D02*
X82486285Y-71763295D01*
X82486285Y-71763295D02*
X82486285Y-71858533D01*
X82486285Y-71858533D02*
X82533904Y-72001390D01*
X82533904Y-72001390D02*
X83105332Y-72572819D01*
X83105332Y-72572819D02*
X82486285Y-72572819D01*
X100623666Y-56927819D02*
X100956999Y-56451628D01*
X101195094Y-56927819D02*
X101195094Y-55927819D01*
X101195094Y-55927819D02*
X100814142Y-55927819D01*
X100814142Y-55927819D02*
X100718904Y-55975438D01*
X100718904Y-55975438D02*
X100671285Y-56023057D01*
X100671285Y-56023057D02*
X100623666Y-56118295D01*
X100623666Y-56118295D02*
X100623666Y-56261152D01*
X100623666Y-56261152D02*
X100671285Y-56356390D01*
X100671285Y-56356390D02*
X100718904Y-56404009D01*
X100718904Y-56404009D02*
X100814142Y-56451628D01*
X100814142Y-56451628D02*
X101195094Y-56451628D01*
X100242713Y-56023057D02*
X100195094Y-55975438D01*
X100195094Y-55975438D02*
X100099856Y-55927819D01*
X100099856Y-55927819D02*
X99861761Y-55927819D01*
X99861761Y-55927819D02*
X99766523Y-55975438D01*
X99766523Y-55975438D02*
X99718904Y-56023057D01*
X99718904Y-56023057D02*
X99671285Y-56118295D01*
X99671285Y-56118295D02*
X99671285Y-56213533D01*
X99671285Y-56213533D02*
X99718904Y-56356390D01*
X99718904Y-56356390D02*
X100290332Y-56927819D01*
X100290332Y-56927819D02*
X99671285Y-56927819D01*
X96446666Y-56927819D02*
X96779999Y-56451628D01*
X97018094Y-56927819D02*
X97018094Y-55927819D01*
X97018094Y-55927819D02*
X96637142Y-55927819D01*
X96637142Y-55927819D02*
X96541904Y-55975438D01*
X96541904Y-55975438D02*
X96494285Y-56023057D01*
X96494285Y-56023057D02*
X96446666Y-56118295D01*
X96446666Y-56118295D02*
X96446666Y-56261152D01*
X96446666Y-56261152D02*
X96494285Y-56356390D01*
X96494285Y-56356390D02*
X96541904Y-56404009D01*
X96541904Y-56404009D02*
X96637142Y-56451628D01*
X96637142Y-56451628D02*
X97018094Y-56451628D01*
X95494285Y-56927819D02*
X96065713Y-56927819D01*
X95779999Y-56927819D02*
X95779999Y-55927819D01*
X95779999Y-55927819D02*
X95875237Y-56070676D01*
X95875237Y-56070676D02*
X95970475Y-56165914D01*
X95970475Y-56165914D02*
X96065713Y-56213533D01*
X104814666Y-56927819D02*
X105147999Y-56451628D01*
X105386094Y-56927819D02*
X105386094Y-55927819D01*
X105386094Y-55927819D02*
X105005142Y-55927819D01*
X105005142Y-55927819D02*
X104909904Y-55975438D01*
X104909904Y-55975438D02*
X104862285Y-56023057D01*
X104862285Y-56023057D02*
X104814666Y-56118295D01*
X104814666Y-56118295D02*
X104814666Y-56261152D01*
X104814666Y-56261152D02*
X104862285Y-56356390D01*
X104862285Y-56356390D02*
X104909904Y-56404009D01*
X104909904Y-56404009D02*
X105005142Y-56451628D01*
X105005142Y-56451628D02*
X105386094Y-56451628D01*
X104481332Y-55927819D02*
X103862285Y-55927819D01*
X103862285Y-55927819D02*
X104195618Y-56308771D01*
X104195618Y-56308771D02*
X104052761Y-56308771D01*
X104052761Y-56308771D02*
X103957523Y-56356390D01*
X103957523Y-56356390D02*
X103909904Y-56404009D01*
X103909904Y-56404009D02*
X103862285Y-56499247D01*
X103862285Y-56499247D02*
X103862285Y-56737342D01*
X103862285Y-56737342D02*
X103909904Y-56832580D01*
X103909904Y-56832580D02*
X103957523Y-56880200D01*
X103957523Y-56880200D02*
X104052761Y-56927819D01*
X104052761Y-56927819D02*
X104338475Y-56927819D01*
X104338475Y-56927819D02*
X104433713Y-56880200D01*
X104433713Y-56880200D02*
X104481332Y-56832580D01*
X83946904Y-77308819D02*
X83946904Y-78118342D01*
X83946904Y-78118342D02*
X83899285Y-78213580D01*
X83899285Y-78213580D02*
X83851666Y-78261200D01*
X83851666Y-78261200D02*
X83756428Y-78308819D01*
X83756428Y-78308819D02*
X83565952Y-78308819D01*
X83565952Y-78308819D02*
X83470714Y-78261200D01*
X83470714Y-78261200D02*
X83423095Y-78213580D01*
X83423095Y-78213580D02*
X83375476Y-78118342D01*
X83375476Y-78118342D02*
X83375476Y-77308819D01*
X82375476Y-78308819D02*
X82946904Y-78308819D01*
X82661190Y-78308819D02*
X82661190Y-77308819D01*
X82661190Y-77308819D02*
X82756428Y-77451676D01*
X82756428Y-77451676D02*
X82851666Y-77546914D01*
X82851666Y-77546914D02*
X82946904Y-77594533D01*
D11*
X93572000Y-58833000D02*
X93572000Y-65373000D01*
X93572000Y-65373000D02*
X93242000Y-65373000D01*
X90832000Y-65373000D02*
X91162000Y-65373000D01*
X90832000Y-58833000D02*
X90832000Y-65373000D01*
X93242000Y-58833000D02*
X93572000Y-58833000D01*
X91162000Y-58833000D02*
X90832000Y-58833000D01*
D13*
G36*
X85458676Y-57343410D02*
G01*
X87307194Y-57343410D01*
X87307194Y-60116186D01*
X87307194Y-62888962D01*
X85458676Y-62888962D01*
X83610159Y-62888962D01*
X83610159Y-64258235D01*
X83610159Y-65627507D01*
X81761641Y-65627507D01*
X79913124Y-65627507D01*
X79913124Y-62888962D01*
X79913124Y-60150418D01*
X76250321Y-60150418D01*
X72587517Y-60150418D01*
X72587517Y-58781146D01*
X72587517Y-57411873D01*
X70773232Y-57411873D01*
X68958946Y-57411873D01*
X68958946Y-58781146D01*
X68958946Y-60150418D01*
X65296143Y-60150418D01*
X61633339Y-60150418D01*
X61633339Y-62888962D01*
X61633339Y-65627507D01*
X59750590Y-65627507D01*
X57867841Y-65627507D01*
X57867841Y-64258235D01*
X57867841Y-62888962D01*
X56019323Y-62888962D01*
X54170806Y-62888962D01*
X54170806Y-60116186D01*
X54170806Y-57343410D01*
X56019323Y-57343410D01*
X57867841Y-57343410D01*
X57867841Y-55975256D01*
X57867841Y-54639097D01*
X61599108Y-54639097D01*
X61599108Y-55974138D01*
X61599108Y-57309178D01*
X63396277Y-57327431D01*
X65193447Y-57345683D01*
X65193447Y-57343410D01*
X76284552Y-57343410D01*
X78100285Y-57343410D01*
X79916018Y-57343410D01*
X79897455Y-55991254D01*
X79878892Y-54639097D01*
X78081722Y-54620845D01*
X76284552Y-54602592D01*
X76284552Y-55973001D01*
X76284552Y-55974138D01*
X76284552Y-57343410D01*
X65193447Y-57343410D01*
X65193447Y-55974138D01*
X65193447Y-54602592D01*
X63396277Y-54620845D01*
X61599108Y-54639097D01*
X57867841Y-54639097D01*
X57867841Y-54607102D01*
X59699242Y-54588868D01*
X61530644Y-54570634D01*
X61549178Y-53184245D01*
X61567711Y-51797857D01*
X63413393Y-51797857D01*
X65259076Y-51797857D01*
X65277609Y-53184245D01*
X65296143Y-54570634D01*
X70756116Y-54588159D01*
X76216089Y-54605685D01*
X76216089Y-53201771D01*
X76216089Y-51797857D01*
X78098838Y-51797857D01*
X79981587Y-51797857D01*
X79981587Y-53201361D01*
X79981587Y-54604865D01*
X81795873Y-54604865D01*
X83610159Y-54604865D01*
X83610159Y-55974138D01*
X83610159Y-57343410D01*
X85458676Y-57343410D01*
G37*
D11*
X61111000Y-79315000D02*
G75*
G02*
X59111000Y-79315000I-1000000J0D01*
G01*
X54971000Y-79255000D02*
X54971000Y-99815000D01*
X65251000Y-79255000D02*
X54971000Y-79255000D01*
X57461000Y-79315000D02*
X57461000Y-99755000D01*
X59111000Y-79315000D02*
X57461000Y-79315000D01*
X62761000Y-79315000D02*
X61111000Y-79315000D01*
X57461000Y-99755000D02*
X62761000Y-99755000D01*
X62761000Y-99755000D02*
X62761000Y-79315000D01*
X54971000Y-99815000D02*
X65251000Y-99815000D01*
X65251000Y-99815000D02*
X65251000Y-79255000D01*
X89977000Y-42545000D02*
G75*
G02*
X88077000Y-42545000I-950000J0D01*
G01*
X88077000Y-42545000D02*
G75*
G02*
X89977000Y-42545000I950000J0D01*
G01*
X79817000Y-42545000D02*
G75*
G02*
X77917000Y-42545000I-950000J0D01*
G01*
X77917000Y-42545000D02*
G75*
G02*
X79817000Y-42545000I950000J0D01*
G01*
X52511000Y-42872000D02*
X52511000Y-39022000D01*
X52511000Y-45812000D02*
X52511000Y-45512000D01*
X52511000Y-45812000D02*
X51621000Y-45812000D01*
X51621000Y-45462000D02*
X51621000Y-45812000D01*
X46151000Y-43262000D02*
X51131000Y-43262000D01*
X45661000Y-45462000D02*
X45661000Y-45812000D01*
X52511000Y-39022000D02*
X44771000Y-39022000D01*
X44771000Y-39022000D02*
X44771000Y-42872000D01*
X44771000Y-45812000D02*
X44771000Y-45512000D01*
X45661000Y-45812000D02*
X44771000Y-45812000D01*
X68429000Y-91345000D02*
X68099000Y-91345000D01*
X70509000Y-91345000D02*
X70839000Y-91345000D01*
X68099000Y-91345000D02*
X68099000Y-97885000D01*
X68099000Y-97885000D02*
X68429000Y-97885000D01*
X70839000Y-97885000D02*
X70509000Y-97885000D01*
X70839000Y-91345000D02*
X70839000Y-97885000D01*
X51967000Y-87725000D02*
X52297000Y-87725000D01*
X49887000Y-87725000D02*
X49557000Y-87725000D01*
X52297000Y-87725000D02*
X52297000Y-81185000D01*
X52297000Y-81185000D02*
X51967000Y-81185000D01*
X49557000Y-81185000D02*
X49887000Y-81185000D01*
X49557000Y-87725000D02*
X49557000Y-81185000D01*
X68429000Y-81185000D02*
X68099000Y-81185000D01*
X70509000Y-81185000D02*
X70839000Y-81185000D01*
X68099000Y-81185000D02*
X68099000Y-87725000D01*
X68099000Y-87725000D02*
X68429000Y-87725000D01*
X70839000Y-87725000D02*
X70509000Y-87725000D01*
X70839000Y-81185000D02*
X70839000Y-87725000D01*
X66920359Y-109154000D02*
X66290359Y-109154000D01*
X66605359Y-108839000D02*
X66605359Y-109469000D01*
X69790600Y-104085000D02*
X69790600Y-110545000D01*
X69830600Y-104085000D02*
X69830600Y-110545000D01*
X69870600Y-104085000D02*
X69870600Y-110545000D01*
X69910600Y-104087000D02*
X69910600Y-110543000D01*
X69950600Y-104088000D02*
X69950600Y-110542000D01*
X69990600Y-104091000D02*
X69990600Y-110539000D01*
X70030600Y-108355000D02*
X70030600Y-110537000D01*
X70030600Y-104093000D02*
X70030600Y-106275000D01*
X70070600Y-108355000D02*
X70070600Y-110533000D01*
X70070600Y-104097000D02*
X70070600Y-106275000D01*
X70110600Y-108355000D02*
X70110600Y-110530000D01*
X70110600Y-104100000D02*
X70110600Y-106275000D01*
X70150600Y-108355000D02*
X70150600Y-110526000D01*
X70150600Y-104104000D02*
X70150600Y-106275000D01*
X70190600Y-108355000D02*
X70190600Y-110521000D01*
X70190600Y-104109000D02*
X70190600Y-106275000D01*
X70230600Y-108355000D02*
X70230600Y-110516000D01*
X70230600Y-104114000D02*
X70230600Y-106275000D01*
X70270600Y-108355000D02*
X70270600Y-110510000D01*
X70270600Y-104120000D02*
X70270600Y-106275000D01*
X70310600Y-108355000D02*
X70310600Y-110504000D01*
X70310600Y-104126000D02*
X70310600Y-106275000D01*
X70350600Y-108355000D02*
X70350600Y-110497000D01*
X70350600Y-104133000D02*
X70350600Y-106275000D01*
X70390600Y-108355000D02*
X70390600Y-110490000D01*
X70390600Y-104140000D02*
X70390600Y-106275000D01*
X70430600Y-108355000D02*
X70430600Y-110482000D01*
X70430600Y-104148000D02*
X70430600Y-106275000D01*
X70470600Y-108355000D02*
X70470600Y-110474000D01*
X70470600Y-104156000D02*
X70470600Y-106275000D01*
X70511600Y-108355000D02*
X70511600Y-110465000D01*
X70511600Y-104165000D02*
X70511600Y-106275000D01*
X70551600Y-108355000D02*
X70551600Y-110456000D01*
X70551600Y-104174000D02*
X70551600Y-106275000D01*
X70591600Y-108355000D02*
X70591600Y-110446000D01*
X70591600Y-104184000D02*
X70591600Y-106275000D01*
X70631600Y-108355000D02*
X70631600Y-110436000D01*
X70631600Y-104194000D02*
X70631600Y-106275000D01*
X70671600Y-108355000D02*
X70671600Y-110425000D01*
X70671600Y-104205000D02*
X70671600Y-106275000D01*
X70711600Y-108355000D02*
X70711600Y-110413000D01*
X70711600Y-104217000D02*
X70711600Y-106275000D01*
X70751600Y-108355000D02*
X70751600Y-110401000D01*
X70751600Y-104229000D02*
X70751600Y-106275000D01*
X70791600Y-108355000D02*
X70791600Y-110389000D01*
X70791600Y-104241000D02*
X70791600Y-106275000D01*
X70831600Y-108355000D02*
X70831600Y-110376000D01*
X70831600Y-104254000D02*
X70831600Y-106275000D01*
X70871600Y-108355000D02*
X70871600Y-110362000D01*
X70871600Y-104268000D02*
X70871600Y-106275000D01*
X70911600Y-108355000D02*
X70911600Y-110348000D01*
X70911600Y-104282000D02*
X70911600Y-106275000D01*
X70951600Y-108355000D02*
X70951600Y-110333000D01*
X70951600Y-104297000D02*
X70951600Y-106275000D01*
X70991600Y-108355000D02*
X70991600Y-110317000D01*
X70991600Y-104313000D02*
X70991600Y-106275000D01*
X71031600Y-108355000D02*
X71031600Y-110301000D01*
X71031600Y-104329000D02*
X71031600Y-106275000D01*
X71071600Y-108355000D02*
X71071600Y-110285000D01*
X71071600Y-104345000D02*
X71071600Y-106275000D01*
X71111600Y-108355000D02*
X71111600Y-110267000D01*
X71111600Y-104363000D02*
X71111600Y-106275000D01*
X71151600Y-108355000D02*
X71151600Y-110249000D01*
X71151600Y-104381000D02*
X71151600Y-106275000D01*
X71191600Y-108355000D02*
X71191600Y-110231000D01*
X71191600Y-104399000D02*
X71191600Y-106275000D01*
X71231600Y-108355000D02*
X71231600Y-110211000D01*
X71231600Y-104419000D02*
X71231600Y-106275000D01*
X71271600Y-108355000D02*
X71271600Y-110191000D01*
X71271600Y-104439000D02*
X71271600Y-106275000D01*
X71311600Y-108355000D02*
X71311600Y-110171000D01*
X71311600Y-104459000D02*
X71311600Y-106275000D01*
X71351600Y-108355000D02*
X71351600Y-110149000D01*
X71351600Y-104481000D02*
X71351600Y-106275000D01*
X71391600Y-108355000D02*
X71391600Y-110127000D01*
X71391600Y-104503000D02*
X71391600Y-106275000D01*
X71431600Y-108355000D02*
X71431600Y-110105000D01*
X71431600Y-104525000D02*
X71431600Y-106275000D01*
X71471600Y-108355000D02*
X71471600Y-110081000D01*
X71471600Y-104549000D02*
X71471600Y-106275000D01*
X71511600Y-108355000D02*
X71511600Y-110057000D01*
X71511600Y-104573000D02*
X71511600Y-106275000D01*
X71551600Y-108355000D02*
X71551600Y-110031000D01*
X71551600Y-104599000D02*
X71551600Y-106275000D01*
X71591600Y-108355000D02*
X71591600Y-110005000D01*
X71591600Y-104625000D02*
X71591600Y-106275000D01*
X71631600Y-108355000D02*
X71631600Y-109979000D01*
X71631600Y-104651000D02*
X71631600Y-106275000D01*
X71671600Y-108355000D02*
X71671600Y-109951000D01*
X71671600Y-104679000D02*
X71671600Y-106275000D01*
X71711600Y-108355000D02*
X71711600Y-109922000D01*
X71711600Y-104708000D02*
X71711600Y-106275000D01*
X71751600Y-108355000D02*
X71751600Y-109893000D01*
X71751600Y-104737000D02*
X71751600Y-106275000D01*
X71791600Y-108355000D02*
X71791600Y-109863000D01*
X71791600Y-104767000D02*
X71791600Y-106275000D01*
X71831600Y-108355000D02*
X71831600Y-109831000D01*
X71831600Y-104799000D02*
X71831600Y-106275000D01*
X71871600Y-108355000D02*
X71871600Y-109799000D01*
X71871600Y-104831000D02*
X71871600Y-106275000D01*
X71911600Y-108355000D02*
X71911600Y-109765000D01*
X71911600Y-104865000D02*
X71911600Y-106275000D01*
X71951600Y-108355000D02*
X71951600Y-109731000D01*
X71951600Y-104899000D02*
X71951600Y-106275000D01*
X71991600Y-108355000D02*
X71991600Y-109695000D01*
X71991600Y-104935000D02*
X71991600Y-106275000D01*
X72031600Y-108355000D02*
X72031600Y-109658000D01*
X72031600Y-104972000D02*
X72031600Y-106275000D01*
X72071600Y-108355000D02*
X72071600Y-109620000D01*
X72071600Y-105010000D02*
X72071600Y-106275000D01*
X72111600Y-105050000D02*
X72111600Y-109580000D01*
X72151600Y-105091000D02*
X72151600Y-109539000D01*
X72191600Y-105133000D02*
X72191600Y-109497000D01*
X72231600Y-105178000D02*
X72231600Y-109452000D01*
X72271600Y-105223000D02*
X72271600Y-109407000D01*
X72311600Y-105271000D02*
X72311600Y-109359000D01*
X72351600Y-105320000D02*
X72351600Y-109310000D01*
X72391600Y-105371000D02*
X72391600Y-109259000D01*
X72431600Y-105425000D02*
X72431600Y-109205000D01*
X72471600Y-105481000D02*
X72471600Y-109149000D01*
X72511600Y-105539000D02*
X72511600Y-109091000D01*
X72551600Y-105601000D02*
X72551600Y-109029000D01*
X72591600Y-105665000D02*
X72591600Y-108965000D01*
X72631600Y-105734000D02*
X72631600Y-108896000D01*
X72671600Y-105806000D02*
X72671600Y-108824000D01*
X72711600Y-105883000D02*
X72711600Y-108747000D01*
X72751600Y-105965000D02*
X72751600Y-108665000D01*
X72791600Y-106053000D02*
X72791600Y-108577000D01*
X72831600Y-106150000D02*
X72831600Y-108480000D01*
X72871600Y-106256000D02*
X72871600Y-108374000D01*
X72911600Y-106375000D02*
X72911600Y-108255000D01*
X72951600Y-106513000D02*
X72951600Y-108117000D01*
X72991600Y-106682000D02*
X72991600Y-107948000D01*
X73031600Y-106913000D02*
X73031600Y-107717000D01*
X73060600Y-107315000D02*
G75*
G02*
X66520600Y-107315000I-3270000J0D01*
G01*
X66520600Y-107315000D02*
G75*
G02*
X73060600Y-107315000I3270000J0D01*
G01*
X62731000Y-74195000D02*
X62731000Y-74510000D01*
X62731000Y-76620000D02*
X62731000Y-76935000D01*
X62731000Y-74195000D02*
X57491000Y-74195000D01*
X57491000Y-74195000D02*
X57491000Y-74510000D01*
X62731000Y-76935000D02*
X57491000Y-76935000D01*
X57491000Y-76620000D02*
X57491000Y-76935000D01*
X59300359Y-109154000D02*
X58670359Y-109154000D01*
X58985359Y-108839000D02*
X58985359Y-109469000D01*
X62170600Y-104085000D02*
X62170600Y-110545000D01*
X62210600Y-104085000D02*
X62210600Y-110545000D01*
X62250600Y-104085000D02*
X62250600Y-110545000D01*
X62290600Y-104087000D02*
X62290600Y-110543000D01*
X62330600Y-104088000D02*
X62330600Y-110542000D01*
X62370600Y-104091000D02*
X62370600Y-110539000D01*
X62410600Y-108355000D02*
X62410600Y-110537000D01*
X62410600Y-104093000D02*
X62410600Y-106275000D01*
X62450600Y-108355000D02*
X62450600Y-110533000D01*
X62450600Y-104097000D02*
X62450600Y-106275000D01*
X62490600Y-108355000D02*
X62490600Y-110530000D01*
X62490600Y-104100000D02*
X62490600Y-106275000D01*
X62530600Y-108355000D02*
X62530600Y-110526000D01*
X62530600Y-104104000D02*
X62530600Y-106275000D01*
X62570600Y-108355000D02*
X62570600Y-110521000D01*
X62570600Y-104109000D02*
X62570600Y-106275000D01*
X62610600Y-108355000D02*
X62610600Y-110516000D01*
X62610600Y-104114000D02*
X62610600Y-106275000D01*
X62650600Y-108355000D02*
X62650600Y-110510000D01*
X62650600Y-104120000D02*
X62650600Y-106275000D01*
X62690600Y-108355000D02*
X62690600Y-110504000D01*
X62690600Y-104126000D02*
X62690600Y-106275000D01*
X62730600Y-108355000D02*
X62730600Y-110497000D01*
X62730600Y-104133000D02*
X62730600Y-106275000D01*
X62770600Y-108355000D02*
X62770600Y-110490000D01*
X62770600Y-104140000D02*
X62770600Y-106275000D01*
X62810600Y-108355000D02*
X62810600Y-110482000D01*
X62810600Y-104148000D02*
X62810600Y-106275000D01*
X62850600Y-108355000D02*
X62850600Y-110474000D01*
X62850600Y-104156000D02*
X62850600Y-106275000D01*
X62891600Y-108355000D02*
X62891600Y-110465000D01*
X62891600Y-104165000D02*
X62891600Y-106275000D01*
X62931600Y-108355000D02*
X62931600Y-110456000D01*
X62931600Y-104174000D02*
X62931600Y-106275000D01*
X62971600Y-108355000D02*
X62971600Y-110446000D01*
X62971600Y-104184000D02*
X62971600Y-106275000D01*
X63011600Y-108355000D02*
X63011600Y-110436000D01*
X63011600Y-104194000D02*
X63011600Y-106275000D01*
X63051600Y-108355000D02*
X63051600Y-110425000D01*
X63051600Y-104205000D02*
X63051600Y-106275000D01*
X63091600Y-108355000D02*
X63091600Y-110413000D01*
X63091600Y-104217000D02*
X63091600Y-106275000D01*
X63131600Y-108355000D02*
X63131600Y-110401000D01*
X63131600Y-104229000D02*
X63131600Y-106275000D01*
X63171600Y-108355000D02*
X63171600Y-110389000D01*
X63171600Y-104241000D02*
X63171600Y-106275000D01*
X63211600Y-108355000D02*
X63211600Y-110376000D01*
X63211600Y-104254000D02*
X63211600Y-106275000D01*
X63251600Y-108355000D02*
X63251600Y-110362000D01*
X63251600Y-104268000D02*
X63251600Y-106275000D01*
X63291600Y-108355000D02*
X63291600Y-110348000D01*
X63291600Y-104282000D02*
X63291600Y-106275000D01*
X63331600Y-108355000D02*
X63331600Y-110333000D01*
X63331600Y-104297000D02*
X63331600Y-106275000D01*
X63371600Y-108355000D02*
X63371600Y-110317000D01*
X63371600Y-104313000D02*
X63371600Y-106275000D01*
X63411600Y-108355000D02*
X63411600Y-110301000D01*
X63411600Y-104329000D02*
X63411600Y-106275000D01*
X63451600Y-108355000D02*
X63451600Y-110285000D01*
X63451600Y-104345000D02*
X63451600Y-106275000D01*
X63491600Y-108355000D02*
X63491600Y-110267000D01*
X63491600Y-104363000D02*
X63491600Y-106275000D01*
X63531600Y-108355000D02*
X63531600Y-110249000D01*
X63531600Y-104381000D02*
X63531600Y-106275000D01*
X63571600Y-108355000D02*
X63571600Y-110231000D01*
X63571600Y-104399000D02*
X63571600Y-106275000D01*
X63611600Y-108355000D02*
X63611600Y-110211000D01*
X63611600Y-104419000D02*
X63611600Y-106275000D01*
X63651600Y-108355000D02*
X63651600Y-110191000D01*
X63651600Y-104439000D02*
X63651600Y-106275000D01*
X63691600Y-108355000D02*
X63691600Y-110171000D01*
X63691600Y-104459000D02*
X63691600Y-106275000D01*
X63731600Y-108355000D02*
X63731600Y-110149000D01*
X63731600Y-104481000D02*
X63731600Y-106275000D01*
X63771600Y-108355000D02*
X63771600Y-110127000D01*
X63771600Y-104503000D02*
X63771600Y-106275000D01*
X63811600Y-108355000D02*
X63811600Y-110105000D01*
X63811600Y-104525000D02*
X63811600Y-106275000D01*
X63851600Y-108355000D02*
X63851600Y-110081000D01*
X63851600Y-104549000D02*
X63851600Y-106275000D01*
X63891600Y-108355000D02*
X63891600Y-110057000D01*
X63891600Y-104573000D02*
X63891600Y-106275000D01*
X63931600Y-108355000D02*
X63931600Y-110031000D01*
X63931600Y-104599000D02*
X63931600Y-106275000D01*
X63971600Y-108355000D02*
X63971600Y-110005000D01*
X63971600Y-104625000D02*
X63971600Y-106275000D01*
X64011600Y-108355000D02*
X64011600Y-109979000D01*
X64011600Y-104651000D02*
X64011600Y-106275000D01*
X64051600Y-108355000D02*
X64051600Y-109951000D01*
X64051600Y-104679000D02*
X64051600Y-106275000D01*
X64091600Y-108355000D02*
X64091600Y-109922000D01*
X64091600Y-104708000D02*
X64091600Y-106275000D01*
X64131600Y-108355000D02*
X64131600Y-109893000D01*
X64131600Y-104737000D02*
X64131600Y-106275000D01*
X64171600Y-108355000D02*
X64171600Y-109863000D01*
X64171600Y-104767000D02*
X64171600Y-106275000D01*
X64211600Y-108355000D02*
X64211600Y-109831000D01*
X64211600Y-104799000D02*
X64211600Y-106275000D01*
X64251600Y-108355000D02*
X64251600Y-109799000D01*
X64251600Y-104831000D02*
X64251600Y-106275000D01*
X64291600Y-108355000D02*
X64291600Y-109765000D01*
X64291600Y-104865000D02*
X64291600Y-106275000D01*
X64331600Y-108355000D02*
X64331600Y-109731000D01*
X64331600Y-104899000D02*
X64331600Y-106275000D01*
X64371600Y-108355000D02*
X64371600Y-109695000D01*
X64371600Y-104935000D02*
X64371600Y-106275000D01*
X64411600Y-108355000D02*
X64411600Y-109658000D01*
X64411600Y-104972000D02*
X64411600Y-106275000D01*
X64451600Y-108355000D02*
X64451600Y-109620000D01*
X64451600Y-105010000D02*
X64451600Y-106275000D01*
X64491600Y-105050000D02*
X64491600Y-109580000D01*
X64531600Y-105091000D02*
X64531600Y-109539000D01*
X64571600Y-105133000D02*
X64571600Y-109497000D01*
X64611600Y-105178000D02*
X64611600Y-109452000D01*
X64651600Y-105223000D02*
X64651600Y-109407000D01*
X64691600Y-105271000D02*
X64691600Y-109359000D01*
X64731600Y-105320000D02*
X64731600Y-109310000D01*
X64771600Y-105371000D02*
X64771600Y-109259000D01*
X64811600Y-105425000D02*
X64811600Y-109205000D01*
X64851600Y-105481000D02*
X64851600Y-109149000D01*
X64891600Y-105539000D02*
X64891600Y-109091000D01*
X64931600Y-105601000D02*
X64931600Y-109029000D01*
X64971600Y-105665000D02*
X64971600Y-108965000D01*
X65011600Y-105734000D02*
X65011600Y-108896000D01*
X65051600Y-105806000D02*
X65051600Y-108824000D01*
X65091600Y-105883000D02*
X65091600Y-108747000D01*
X65131600Y-105965000D02*
X65131600Y-108665000D01*
X65171600Y-106053000D02*
X65171600Y-108577000D01*
X65211600Y-106150000D02*
X65211600Y-108480000D01*
X65251600Y-106256000D02*
X65251600Y-108374000D01*
X65291600Y-106375000D02*
X65291600Y-108255000D01*
X65331600Y-106513000D02*
X65331600Y-108117000D01*
X65371600Y-106682000D02*
X65371600Y-107948000D01*
X65411600Y-106913000D02*
X65411600Y-107717000D01*
X65440600Y-107315000D02*
G75*
G02*
X58900600Y-107315000I-3270000J0D01*
G01*
X58900600Y-107315000D02*
G75*
G02*
X65440600Y-107315000I3270000J0D01*
G01*
X97095000Y-81668000D02*
X97095000Y-99688000D01*
X97095000Y-99688000D02*
X107375000Y-99688000D01*
X99585000Y-81728000D02*
X99585000Y-99628000D01*
X99585000Y-99628000D02*
X104885000Y-99628000D01*
X101235000Y-81728000D02*
X99585000Y-81728000D01*
X104885000Y-81728000D02*
X103235000Y-81728000D01*
X104885000Y-99628000D02*
X104885000Y-81728000D01*
X107375000Y-81668000D02*
X97095000Y-81668000D01*
X107375000Y-99688000D02*
X107375000Y-81668000D01*
X103235000Y-81728000D02*
G75*
G02*
X101235000Y-81728000I-1000000J0D01*
G01*
X99527000Y-75773000D02*
X99527000Y-76088000D01*
X99527000Y-78198000D02*
X99527000Y-78513000D01*
X104767000Y-75773000D02*
X99527000Y-75773000D01*
X104767000Y-75773000D02*
X104767000Y-76088000D01*
X104767000Y-78198000D02*
X104767000Y-78513000D01*
X104767000Y-78513000D02*
X99527000Y-78513000D01*
X80565000Y-73415000D02*
X85805000Y-73415000D01*
X80565000Y-73730000D02*
X80565000Y-73415000D01*
X80565000Y-76155000D02*
X80565000Y-75840000D01*
X80565000Y-76155000D02*
X85805000Y-76155000D01*
X85805000Y-73730000D02*
X85805000Y-73415000D01*
X85805000Y-76155000D02*
X85805000Y-75840000D01*
X99087000Y-58833000D02*
X99087000Y-65373000D01*
X99087000Y-65373000D02*
X99417000Y-65373000D01*
X99417000Y-58833000D02*
X99087000Y-58833000D01*
X101497000Y-58833000D02*
X101827000Y-58833000D01*
X101827000Y-58833000D02*
X101827000Y-65373000D01*
X101827000Y-65373000D02*
X101497000Y-65373000D01*
X94896000Y-58833000D02*
X94896000Y-65373000D01*
X94896000Y-65373000D02*
X95226000Y-65373000D01*
X95226000Y-58833000D02*
X94896000Y-58833000D01*
X97306000Y-58833000D02*
X97636000Y-58833000D01*
X97636000Y-58833000D02*
X97636000Y-65373000D01*
X97636000Y-65373000D02*
X97306000Y-65373000D01*
X103278000Y-58833000D02*
X103278000Y-65373000D01*
X103278000Y-65373000D02*
X103608000Y-65373000D01*
X103608000Y-58833000D02*
X103278000Y-58833000D01*
X105688000Y-58833000D02*
X106018000Y-58833000D01*
X106018000Y-58833000D02*
X106018000Y-65373000D01*
X106018000Y-65373000D02*
X105688000Y-65373000D01*
X74060000Y-78754000D02*
X74060000Y-99554000D01*
X74060000Y-99554000D02*
X92310000Y-99554000D01*
X82185000Y-78754000D02*
X74060000Y-78754000D01*
X91310000Y-78754000D02*
X84185000Y-78754000D01*
X92310000Y-79754000D02*
X91310000Y-78754000D01*
X92310000Y-99554000D02*
X92310000Y-79754000D01*
%LPC*%
D14*
X42037000Y-134747000D02*
X124587000Y-134747000D01*
X124587000Y-145415000D01*
X42037000Y-145415000D01*
X42037000Y-134747000D01*
G36*
X42037000Y-134747000D02*
G01*
X124587000Y-134747000D01*
X124587000Y-145415000D01*
X42037000Y-145415000D01*
X42037000Y-134747000D01*
G37*
D15*
X109347000Y-56134000D03*
D16*
X111887000Y-56134000D03*
X114427000Y-56134000D03*
X116967000Y-56134000D03*
X116967000Y-48514000D03*
X114427000Y-48514000D03*
X111887000Y-48514000D03*
X109347000Y-48514000D03*
D17*
X92202000Y-65913000D03*
D16*
X92202000Y-58293000D03*
X56301000Y-80645000D03*
X56301000Y-83185000D03*
X56301000Y-85725000D03*
X56301000Y-88265000D03*
X56301000Y-90805000D03*
X56301000Y-93345000D03*
X56301000Y-95885000D03*
X56301000Y-98425000D03*
X63921000Y-98425000D03*
X63921000Y-95885000D03*
X63921000Y-93345000D03*
X63921000Y-90805000D03*
X63921000Y-88265000D03*
X63921000Y-85725000D03*
X63921000Y-83185000D03*
D15*
X63921000Y-80645000D03*
D18*
X89027000Y-42545000D03*
X78867000Y-42545000D03*
D19*
X52141000Y-44192000D03*
X45141000Y-44192000D03*
D20*
X50891000Y-41692000D03*
X46391000Y-41692000D03*
D16*
X69469000Y-90805000D03*
D17*
X69469000Y-98425000D03*
D16*
X50927000Y-88265000D03*
D17*
X50927000Y-80645000D03*
D16*
X69469000Y-80645000D03*
D17*
X69469000Y-88265000D03*
D15*
X68540600Y-107315000D03*
D17*
X71040600Y-107315000D03*
X62611000Y-75565000D03*
X57611000Y-75565000D03*
D15*
X60920600Y-107315000D03*
D17*
X63420600Y-107315000D03*
D15*
X106045000Y-83058000D03*
D16*
X106045000Y-85598000D03*
X106045000Y-88138000D03*
X106045000Y-90678000D03*
X106045000Y-93218000D03*
X106045000Y-95758000D03*
X106045000Y-98298000D03*
X98425000Y-98298000D03*
X98425000Y-95758000D03*
X98425000Y-93218000D03*
X98425000Y-90678000D03*
X98425000Y-88138000D03*
X98425000Y-85598000D03*
X98425000Y-83058000D03*
D17*
X99647000Y-77143000D03*
X104647000Y-77143000D03*
X85685000Y-74785000D03*
X80685000Y-74785000D03*
D21*
X55465000Y-139192000D03*
X59425000Y-139192000D03*
X63385000Y-139192000D03*
X67345000Y-139192000D03*
X71305000Y-139192000D03*
X75265000Y-139192000D03*
X79225000Y-139192000D03*
X83185000Y-139192000D03*
X87145000Y-139192000D03*
X91105000Y-139192000D03*
X95065000Y-139192000D03*
X99025000Y-139192000D03*
X102985000Y-139192000D03*
X110905000Y-139192000D03*
D17*
X100457000Y-65913000D03*
D16*
X100457000Y-58293000D03*
D17*
X96266000Y-65913000D03*
D16*
X96266000Y-58293000D03*
D17*
X104648000Y-65913000D03*
D16*
X104648000Y-58293000D03*
D22*
X81915000Y-84074000D03*
D23*
X84455000Y-81534000D03*
X84455000Y-84074000D03*
X86995000Y-81534000D03*
X89535000Y-84074000D03*
X86995000Y-84074000D03*
X89535000Y-86614000D03*
X86995000Y-86614000D03*
X89535000Y-89154000D03*
X86995000Y-89154000D03*
X89535000Y-91694000D03*
X86995000Y-91694000D03*
X89535000Y-94234000D03*
X86995000Y-96774000D03*
X86995000Y-94234000D03*
X84455000Y-96774000D03*
X84455000Y-94234000D03*
X81915000Y-96774000D03*
X81915000Y-94234000D03*
X79375000Y-96774000D03*
X76835000Y-94234000D03*
X79375000Y-94234000D03*
X76835000Y-91694000D03*
X79375000Y-91694000D03*
X76835000Y-89154000D03*
X79375000Y-89154000D03*
X76835000Y-86614000D03*
X79375000Y-86614000D03*
X76835000Y-84074000D03*
X79375000Y-81534000D03*
X79375000Y-84074000D03*
X81915000Y-81534000D03*
%LPD*%
M02*
