G04 #@! TF.GenerationSoftware,KiCad,Pcbnew,8.0.2*
G04 #@! TF.CreationDate,2025-01-06T09:06:17+01:00*
G04 #@! TF.ProjectId,multicartridge-sst39sf010,6d756c74-6963-4617-9274-72696467652d,rev?*
G04 #@! TF.SameCoordinates,Original*
G04 #@! TF.FileFunction,Copper,L2,Bot*
G04 #@! TF.FilePolarity,Positive*
%FSLAX46Y46*%
G04 Gerber Fmt 4.6, Leading zero omitted, Abs format (unit mm)*
G04 Created by KiCad (PCBNEW 8.0.2) date 2025-01-06 09:06:17*
%MOMM*%
%LPD*%
G01*
G04 APERTURE LIST*
G04 #@! TA.AperFunction,ComponentPad*
%ADD10R,1.600000X1.600000*%
G04 #@! TD*
G04 #@! TA.AperFunction,ComponentPad*
%ADD11O,1.600000X1.600000*%
G04 #@! TD*
G04 #@! TA.AperFunction,ComponentPad*
%ADD12C,1.600000*%
G04 #@! TD*
G04 #@! TA.AperFunction,ComponentPad*
%ADD13R,1.422400X1.422400*%
G04 #@! TD*
G04 #@! TA.AperFunction,ComponentPad*
%ADD14C,1.422400*%
G04 #@! TD*
G04 #@! TA.AperFunction,SMDPad,CuDef*
%ADD15R,2.000000X10.000000*%
G04 #@! TD*
G04 #@! TA.AperFunction,ViaPad*
%ADD16C,0.800000*%
G04 #@! TD*
G04 #@! TA.AperFunction,Conductor*
%ADD17C,0.250000*%
G04 #@! TD*
G04 APERTURE END LIST*
D10*
X112014000Y-56134000D03*
D11*
X114554000Y-56134000D03*
X117094000Y-56134000D03*
X117094000Y-48514000D03*
X114554000Y-48514000D03*
X112014000Y-48514000D03*
D10*
X106045000Y-83058000D03*
D11*
X106045000Y-85598000D03*
X106045000Y-88138000D03*
X106045000Y-90678000D03*
X106045000Y-93218000D03*
X106045000Y-95758000D03*
X106045000Y-98298000D03*
X98425000Y-98298000D03*
X98425000Y-95758000D03*
X98425000Y-93218000D03*
X98425000Y-90678000D03*
X98425000Y-88138000D03*
X98425000Y-85598000D03*
X98425000Y-83058000D03*
D12*
X99647000Y-77143000D03*
X104647000Y-77143000D03*
X85685000Y-74785000D03*
X80685000Y-74785000D03*
X100457000Y-65913000D03*
D11*
X100457000Y-58293000D03*
D12*
X96266000Y-65913000D03*
D11*
X96266000Y-58293000D03*
D12*
X104648000Y-65913000D03*
D11*
X104648000Y-58293000D03*
D13*
X81915000Y-84074000D03*
D14*
X84455000Y-81534000D03*
X84455000Y-84074000D03*
X86995000Y-81534000D03*
X89535000Y-84074000D03*
X86995000Y-84074000D03*
X89535000Y-86614000D03*
X86995000Y-86614000D03*
X89535000Y-89154000D03*
X86995000Y-89154000D03*
X89535000Y-91694000D03*
X86995000Y-91694000D03*
X89535000Y-94234000D03*
X86995000Y-96774000D03*
X86995000Y-94234000D03*
X84455000Y-96774000D03*
X84455000Y-94234000D03*
X81915000Y-96774000D03*
X81915000Y-94234000D03*
X79375000Y-96774000D03*
X76835000Y-94234000D03*
X79375000Y-94234000D03*
X76835000Y-91694000D03*
X79375000Y-91694000D03*
X76835000Y-89154000D03*
X79375000Y-89154000D03*
X76835000Y-86614000D03*
X79375000Y-86614000D03*
X76835000Y-84074000D03*
X79375000Y-81534000D03*
X79375000Y-84074000D03*
X81915000Y-81534000D03*
D15*
X55465000Y-139192000D03*
X59425000Y-139192000D03*
X63385000Y-139192000D03*
X67345000Y-139192000D03*
X71305000Y-139192000D03*
X75265000Y-139192000D03*
X79225000Y-139192000D03*
X83185000Y-139192000D03*
X87145000Y-139192000D03*
X91105000Y-139192000D03*
X95065000Y-139192000D03*
X99025000Y-139192000D03*
X102985000Y-139192000D03*
X110905000Y-139192000D03*
D16*
X108077000Y-117881400D03*
X105029000Y-118643400D03*
X101422200Y-118592600D03*
X98374200Y-112039400D03*
X85115400Y-110921800D03*
X82778600Y-110921800D03*
X73685400Y-119913400D03*
X76733400Y-118948200D03*
X67109600Y-121640600D03*
X55465000Y-123113800D03*
X67104500Y-116664500D03*
X67834600Y-106822800D03*
X91972000Y-99597000D03*
X92433700Y-88562400D03*
X87963600Y-121520500D03*
X87760700Y-120518200D03*
X86263800Y-121315900D03*
X74525100Y-122473700D03*
X100741200Y-124513000D03*
X85538700Y-101825300D03*
X60731400Y-121539000D03*
X62458600Y-123317000D03*
D17*
X101422200Y-118592600D02*
X104978200Y-118592600D01*
X104978200Y-118592600D02*
X105029000Y-118643400D01*
X111785400Y-114173000D02*
X108077000Y-117881400D01*
X111785400Y-77800200D02*
X111785400Y-107721400D01*
X111785400Y-107721400D02*
X111785400Y-114173000D01*
X111480600Y-77495400D02*
X111785400Y-77800200D01*
X111480600Y-77292200D02*
X111480600Y-77495400D01*
X107670600Y-73482200D02*
X111480600Y-77292200D01*
X107670600Y-71653400D02*
X107061000Y-72263000D01*
X107670600Y-71653400D02*
X107670600Y-73482200D01*
X112014000Y-67310000D02*
X107670600Y-71653400D01*
X97256600Y-110921800D02*
X98374200Y-112039400D01*
X82778600Y-114122200D02*
X82778600Y-110921800D01*
X77952600Y-118948200D02*
X82778600Y-114122200D01*
X85115400Y-110921800D02*
X97256600Y-110921800D01*
X91105000Y-120186500D02*
X91105000Y-139192000D01*
X84800300Y-113881800D02*
X91105000Y-120186500D01*
X84800300Y-113502300D02*
X84800300Y-113881800D01*
X84099400Y-101868800D02*
X84099400Y-112801400D01*
X91064100Y-94904100D02*
X84099400Y-101868800D01*
X89982300Y-90640600D02*
X91064100Y-91722400D01*
X86174600Y-90640600D02*
X89982300Y-90640600D01*
X84075200Y-92740000D02*
X86174600Y-90640600D01*
X76404900Y-92740000D02*
X84075200Y-92740000D01*
X75763600Y-92098700D02*
X76404900Y-92740000D01*
X91064100Y-91722400D02*
X91064100Y-94904100D01*
X84099400Y-112801400D02*
X84800300Y-113502300D01*
X75763600Y-87685400D02*
X75763600Y-92098700D01*
X76835000Y-86614000D02*
X75763600Y-87685400D01*
X76733400Y-118948200D02*
X77952600Y-118948200D01*
X71958200Y-121640600D02*
X73685400Y-119913400D01*
X67109600Y-121640600D02*
X71958200Y-121640600D01*
X96266000Y-65913000D02*
X89557000Y-65913000D01*
X89557000Y-65913000D02*
X80685000Y-74785000D01*
X110905000Y-139192000D02*
X110905000Y-133866900D01*
X106045000Y-98298000D02*
X106045000Y-129006900D01*
X106045000Y-129006900D02*
X110905000Y-133866900D01*
X81915000Y-81534000D02*
X81915000Y-80837600D01*
X93526000Y-77143000D02*
X99647000Y-77143000D01*
X112014000Y-56134000D02*
X112014000Y-67310000D01*
X85685000Y-74785000D02*
X91168000Y-74785000D01*
X101473000Y-72263000D02*
X101473000Y-72390000D01*
X101473000Y-72390000D02*
X99647000Y-74216000D01*
X79375000Y-83377600D02*
X79375000Y-84074000D01*
X81915000Y-80837600D02*
X81915000Y-80010000D01*
X81915000Y-80837600D02*
X79375000Y-83377600D01*
X82804000Y-79121000D02*
X84582000Y-79121000D01*
X98425000Y-83058000D02*
X98425000Y-81026000D01*
X117094000Y-56134000D02*
X114554000Y-56134000D01*
X81915000Y-80010000D02*
X82804000Y-79121000D01*
X114554000Y-56134000D02*
X112014000Y-56134000D01*
X84582000Y-79121000D02*
X85685000Y-78018000D01*
X99647000Y-79804000D02*
X99647000Y-77143000D01*
X91168000Y-74785000D02*
X93526000Y-77143000D01*
X98425000Y-81026000D02*
X99647000Y-79804000D01*
X85685000Y-78018000D02*
X85685000Y-74785000D01*
X107061000Y-72263000D02*
X101473000Y-72263000D01*
X99647000Y-74216000D02*
X99647000Y-77143000D01*
X86995000Y-96774000D02*
X67104500Y-116664500D01*
X79387000Y-95270400D02*
X67834600Y-106822800D01*
X84455000Y-94234000D02*
X83418600Y-95270400D01*
X83418600Y-95270400D02*
X79387000Y-95270400D01*
X91972000Y-91993700D02*
X90168800Y-90190500D01*
X90168800Y-90190500D02*
X80411500Y-90190500D01*
X80411500Y-90190500D02*
X79375000Y-89154000D01*
X91972000Y-99597000D02*
X91972000Y-91993700D01*
X89932600Y-85542200D02*
X92433700Y-88043300D01*
X92433700Y-88043300D02*
X92433700Y-88562400D01*
X78338600Y-86136800D02*
X78933200Y-85542200D01*
X76835000Y-89154000D02*
X78338600Y-87650400D01*
X78933200Y-85542200D02*
X89932600Y-85542200D01*
X78338600Y-87650400D02*
X78338600Y-86136800D01*
X100965100Y-84183200D02*
X104919900Y-88138000D01*
X96761200Y-84183200D02*
X100965100Y-84183200D01*
X106045000Y-88138000D02*
X104919900Y-88138000D01*
X86995000Y-81534000D02*
X94112000Y-81534000D01*
X94112000Y-81534000D02*
X96761200Y-84183200D01*
X78882000Y-88100600D02*
X90011700Y-88100600D01*
X95065000Y-117055500D02*
X95065000Y-139192000D01*
X99550900Y-112569600D02*
X95065000Y-117055500D01*
X93700100Y-91789000D02*
X93700100Y-92630500D01*
X78105000Y-88877600D02*
X78882000Y-88100600D01*
X78105000Y-90424000D02*
X78105000Y-88877600D01*
X98097600Y-97028000D02*
X98746700Y-97028000D01*
X98746700Y-97028000D02*
X99550900Y-97832200D01*
X93700100Y-92630500D02*
X98097600Y-97028000D01*
X99550900Y-97832200D02*
X99550900Y-112569600D01*
X90011700Y-88100600D02*
X93700100Y-91789000D01*
X76835000Y-91694000D02*
X78105000Y-90424000D01*
X87145000Y-133866900D02*
X87963600Y-133048300D01*
X87145000Y-139192000D02*
X87145000Y-133866900D01*
X87963600Y-133048300D02*
X87963600Y-121520500D01*
X87039400Y-121689600D02*
X87039400Y-121239500D01*
X83185000Y-139192000D02*
X83185000Y-125544000D01*
X83185000Y-125544000D02*
X87039400Y-121689600D01*
X87039400Y-121239500D02*
X87760700Y-120518200D01*
X79225000Y-128354700D02*
X86263800Y-121315900D01*
X79225000Y-139192000D02*
X79225000Y-128354700D01*
X75265000Y-110066500D02*
X75265000Y-139192000D01*
X89512900Y-92734600D02*
X90604100Y-93825800D01*
X90604100Y-93825800D02*
X90604100Y-94727400D01*
X86995000Y-91694000D02*
X88035600Y-92734600D01*
X90604100Y-94727400D02*
X75265000Y-110066500D01*
X88035600Y-92734600D02*
X89512900Y-92734600D01*
X71305000Y-125693800D02*
X74525100Y-122473700D01*
X71305000Y-139192000D02*
X71305000Y-125693800D01*
X81915000Y-97410600D02*
X81915000Y-96774000D01*
X67345000Y-133866900D02*
X66374400Y-132896300D01*
X66374400Y-112951200D02*
X81915000Y-97410600D01*
X66374400Y-132896300D02*
X66374400Y-112951200D01*
X67345000Y-139192000D02*
X67345000Y-133866900D01*
X80878700Y-96335200D02*
X81493300Y-95720600D01*
X63385000Y-133866900D02*
X63385000Y-115249200D01*
X63385000Y-115249200D02*
X80878700Y-97755500D01*
X85508400Y-95720600D02*
X86995000Y-94234000D01*
X63385000Y-139192000D02*
X63385000Y-133866900D01*
X80878700Y-97755500D02*
X80878700Y-96335200D01*
X81493300Y-95720600D02*
X85508400Y-95720600D01*
X78105000Y-94022700D02*
X78105000Y-94442700D01*
X59425000Y-113122700D02*
X59425000Y-139192000D01*
X78105000Y-94442700D02*
X59425000Y-113122700D01*
X88491200Y-93190200D02*
X78937500Y-93190200D01*
X78937500Y-93190200D02*
X78105000Y-94022700D01*
X89535000Y-94234000D02*
X88491200Y-93190200D01*
X102985000Y-133866900D02*
X100741200Y-131623100D01*
X100741200Y-131623100D02*
X100741200Y-124513000D01*
X102985000Y-139192000D02*
X102985000Y-133866900D01*
X104630100Y-90678000D02*
X99550100Y-85598000D01*
X98425000Y-85598000D02*
X99550100Y-85598000D01*
X106045000Y-90678000D02*
X104630100Y-90678000D01*
X99025000Y-139192000D02*
X99025000Y-133866900D01*
X100001100Y-102715700D02*
X105688800Y-97028000D01*
X107202200Y-96255400D02*
X107202200Y-87647200D01*
X106045000Y-85598000D02*
X106045000Y-86723100D01*
X100001100Y-132890800D02*
X100001100Y-102715700D01*
X99025000Y-133866900D02*
X100001100Y-132890800D01*
X106429600Y-97028000D02*
X107202200Y-96255400D01*
X106278100Y-86723100D02*
X106045000Y-86723100D01*
X105688800Y-97028000D02*
X106429600Y-97028000D01*
X107202200Y-87647200D02*
X106278100Y-86723100D01*
X104648000Y-58293000D02*
X104648000Y-59418100D01*
X76835000Y-81967900D02*
X76835000Y-84074000D01*
X104648000Y-59418100D02*
X91358400Y-72707700D01*
X91358400Y-72707700D02*
X86095200Y-72707700D01*
X86095200Y-72707700D02*
X76835000Y-81967900D01*
X79375000Y-86614000D02*
X80411400Y-87650400D01*
X80411400Y-87650400D02*
X90496300Y-87650400D01*
X106045000Y-95758000D02*
X104919900Y-95758000D01*
X94793900Y-91948000D02*
X101109900Y-91948000D01*
X90496300Y-87650400D02*
X94793900Y-91948000D01*
X101109900Y-91948000D02*
X104919900Y-95758000D01*
X98425000Y-98298000D02*
X97299900Y-98298000D01*
X93772600Y-101825300D02*
X97299900Y-98298000D01*
X85538700Y-101825300D02*
X93772600Y-101825300D01*
X60731400Y-121539000D02*
X60731400Y-121589800D01*
X60731400Y-121589800D02*
X62458600Y-123317000D01*
G04 #@! TA.AperFunction,Conductor*
G36*
X114233920Y-55888394D02*
G01*
X114181259Y-55979606D01*
X114154000Y-56081339D01*
X114154000Y-56186661D01*
X114181259Y-56288394D01*
X114233920Y-56379606D01*
X114238314Y-56384000D01*
X112329686Y-56384000D01*
X112334080Y-56379606D01*
X112386741Y-56288394D01*
X112414000Y-56186661D01*
X112414000Y-56081339D01*
X112386741Y-55979606D01*
X112334080Y-55888394D01*
X112329686Y-55884000D01*
X114238314Y-55884000D01*
X114233920Y-55888394D01*
G37*
G04 #@! TD.AperFunction*
G04 #@! TA.AperFunction,Conductor*
G36*
X116773920Y-55888394D02*
G01*
X116721259Y-55979606D01*
X116694000Y-56081339D01*
X116694000Y-56186661D01*
X116721259Y-56288394D01*
X116773920Y-56379606D01*
X116778314Y-56384000D01*
X114869686Y-56384000D01*
X114874080Y-56379606D01*
X114926741Y-56288394D01*
X114954000Y-56186661D01*
X114954000Y-56081339D01*
X114926741Y-55979606D01*
X114874080Y-55888394D01*
X114869686Y-55884000D01*
X116778314Y-55884000D01*
X116773920Y-55888394D01*
G37*
G04 #@! TD.AperFunction*
G04 #@! TA.AperFunction,Conductor*
G36*
X123064539Y-44190286D02*
G01*
X123110294Y-44243090D01*
X123121500Y-44294601D01*
X123121500Y-65495500D01*
X123101815Y-65562539D01*
X123049011Y-65608294D01*
X122997500Y-65619500D01*
X122937774Y-65619500D01*
X122863905Y-65626345D01*
X122521114Y-65658108D01*
X122521113Y-65658109D01*
X122521109Y-65658109D01*
X122521106Y-65658110D01*
X122377738Y-65684910D01*
X122109770Y-65735001D01*
X121707301Y-65849515D01*
X121317102Y-66000678D01*
X120942519Y-66187199D01*
X120586741Y-66407487D01*
X120252816Y-66659655D01*
X120252807Y-66659662D01*
X119943570Y-66941570D01*
X119661662Y-67250807D01*
X119661655Y-67250816D01*
X119409487Y-67584741D01*
X119189199Y-67940519D01*
X119002678Y-68315102D01*
X118851515Y-68705301D01*
X118737001Y-69107770D01*
X118660109Y-69519113D01*
X118660108Y-69519114D01*
X118621500Y-69935776D01*
X118621500Y-70354223D01*
X118660108Y-70770885D01*
X118660109Y-70770886D01*
X118660110Y-70770894D01*
X118737000Y-71182222D01*
X118737002Y-71182229D01*
X118737001Y-71182229D01*
X118851515Y-71584698D01*
X118851514Y-71584698D01*
X119002678Y-71974897D01*
X119189199Y-72349481D01*
X119282719Y-72500521D01*
X119409487Y-72705258D01*
X119661655Y-73039183D01*
X119661662Y-73039192D01*
X119771293Y-73159451D01*
X119943570Y-73348430D01*
X120119442Y-73508758D01*
X120252807Y-73630337D01*
X120252816Y-73630344D01*
X120275504Y-73647477D01*
X120586743Y-73882514D01*
X120942519Y-74102801D01*
X121317103Y-74289322D01*
X121707299Y-74440484D01*
X121978252Y-74517577D01*
X122109770Y-74554998D01*
X122109772Y-74554998D01*
X122109778Y-74555000D01*
X122521106Y-74631890D01*
X122521113Y-74631890D01*
X122521114Y-74631891D01*
X122662585Y-74645000D01*
X122937774Y-74670500D01*
X122997500Y-74670500D01*
X123064539Y-74690185D01*
X123110294Y-74742989D01*
X123121500Y-74794500D01*
X123121500Y-77834438D01*
X123121501Y-83434439D01*
X123121501Y-94834438D01*
X123121500Y-100446437D01*
X123121500Y-115495500D01*
X123101815Y-115562539D01*
X123049011Y-115608294D01*
X122997500Y-115619500D01*
X122937774Y-115619500D01*
X122862401Y-115626484D01*
X122521114Y-115658108D01*
X122521113Y-115658109D01*
X122521109Y-115658109D01*
X122521106Y-115658110D01*
X122393225Y-115682015D01*
X122109770Y-115735001D01*
X121707301Y-115849515D01*
X121317102Y-116000678D01*
X120942519Y-116187199D01*
X120586741Y-116407487D01*
X120252816Y-116659655D01*
X120252807Y-116659662D01*
X119943570Y-116941570D01*
X119661662Y-117250807D01*
X119661655Y-117250816D01*
X119409487Y-117584741D01*
X119189199Y-117940519D01*
X119002678Y-118315102D01*
X118851515Y-118705301D01*
X118737001Y-119107770D01*
X118660109Y-119519113D01*
X118660108Y-119519114D01*
X118621500Y-119935776D01*
X118621500Y-120354223D01*
X118660108Y-120770885D01*
X118660109Y-120770886D01*
X118660110Y-120770894D01*
X118737000Y-121182222D01*
X118737002Y-121182229D01*
X118737001Y-121182229D01*
X118851515Y-121584698D01*
X118851514Y-121584698D01*
X119002678Y-121974897D01*
X119189199Y-122349481D01*
X119409486Y-122705257D01*
X119409487Y-122705258D01*
X119661655Y-123039183D01*
X119661662Y-123039192D01*
X119771293Y-123159451D01*
X119943570Y-123348430D01*
X120082285Y-123474885D01*
X120252807Y-123630337D01*
X120252816Y-123630344D01*
X120357680Y-123709533D01*
X120586743Y-123882514D01*
X120942519Y-124102801D01*
X121317103Y-124289322D01*
X121707299Y-124440484D01*
X121978252Y-124517577D01*
X122109770Y-124554998D01*
X122109772Y-124554998D01*
X122109778Y-124555000D01*
X122521106Y-124631890D01*
X122521113Y-124631890D01*
X122521114Y-124631891D01*
X122662585Y-124645000D01*
X122937774Y-124670500D01*
X122997500Y-124670500D01*
X123064539Y-124690185D01*
X123110294Y-124742989D01*
X123121500Y-124794500D01*
X123121500Y-125021001D01*
X123101815Y-125088040D01*
X123049011Y-125133795D01*
X122997500Y-125145001D01*
X106802500Y-125145001D01*
X106735461Y-125125316D01*
X106689706Y-125072512D01*
X106678500Y-125021001D01*
X106678500Y-99516352D01*
X106698185Y-99449313D01*
X106731373Y-99414779D01*
X106889300Y-99304198D01*
X107051198Y-99142300D01*
X107182523Y-98954749D01*
X107279284Y-98747243D01*
X107338543Y-98526087D01*
X107358498Y-98298000D01*
X107338543Y-98069913D01*
X107279284Y-97848757D01*
X107182523Y-97641251D01*
X107051198Y-97453700D01*
X107051194Y-97453696D01*
X107048527Y-97449887D01*
X107026200Y-97383681D01*
X107043210Y-97315913D01*
X107062417Y-97291086D01*
X107694271Y-96659233D01*
X107763600Y-96555475D01*
X107811355Y-96440185D01*
X107835700Y-96317794D01*
X107835700Y-96193007D01*
X107835700Y-87584806D01*
X107811355Y-87462415D01*
X107789561Y-87409800D01*
X107789561Y-87409799D01*
X107763604Y-87347131D01*
X107763602Y-87347127D01*
X107763601Y-87347125D01*
X107754351Y-87333281D01*
X107694272Y-87243366D01*
X107694269Y-87243363D01*
X107059457Y-86608552D01*
X107025972Y-86547229D01*
X107030956Y-86477538D01*
X107048672Y-86447141D01*
X107048092Y-86446735D01*
X107051196Y-86442301D01*
X107051198Y-86442300D01*
X107182523Y-86254749D01*
X107279284Y-86047243D01*
X107338543Y-85826087D01*
X107358498Y-85598000D01*
X107338543Y-85369913D01*
X107279284Y-85148757D01*
X107261904Y-85111486D01*
X107215473Y-85011913D01*
X107182523Y-84941251D01*
X107051198Y-84753700D01*
X106889300Y-84591802D01*
X106881627Y-84586429D01*
X106838006Y-84531853D01*
X106830814Y-84462355D01*
X106862338Y-84400001D01*
X106922568Y-84364588D01*
X106939489Y-84361570D01*
X106954201Y-84359989D01*
X107091204Y-84308889D01*
X107208261Y-84221261D01*
X107295889Y-84104204D01*
X107346989Y-83967201D01*
X107352106Y-83919606D01*
X107353499Y-83906654D01*
X107353500Y-83906637D01*
X107353500Y-82209362D01*
X107353499Y-82209345D01*
X107349994Y-82176752D01*
X107346989Y-82148799D01*
X107346012Y-82146180D01*
X107313250Y-82058342D01*
X107295889Y-82011796D01*
X107208261Y-81894739D01*
X107091204Y-81807111D01*
X106954203Y-81756011D01*
X106893654Y-81749500D01*
X106893638Y-81749500D01*
X105196362Y-81749500D01*
X105196345Y-81749500D01*
X105135797Y-81756011D01*
X105135795Y-81756011D01*
X104998795Y-81807111D01*
X104881739Y-81894739D01*
X104794111Y-82011795D01*
X104743011Y-82148795D01*
X104743011Y-82148797D01*
X104736500Y-82209345D01*
X104736500Y-83906654D01*
X104743011Y-83967202D01*
X104743011Y-83967204D01*
X104782845Y-84073999D01*
X104794111Y-84104204D01*
X104881739Y-84221261D01*
X104998796Y-84308889D01*
X105098110Y-84345931D01*
X105135793Y-84359987D01*
X105135799Y-84359989D01*
X105150499Y-84361569D01*
X105215048Y-84388305D01*
X105254897Y-84445696D01*
X105257393Y-84515521D01*
X105221742Y-84575611D01*
X105208377Y-84586425D01*
X105208371Y-84586431D01*
X105200696Y-84591805D01*
X105038806Y-84753695D01*
X105038803Y-84753698D01*
X105038802Y-84753700D01*
X104994689Y-84816700D01*
X104907476Y-84941252D01*
X104907475Y-84941254D01*
X104810718Y-85148750D01*
X104810714Y-85148761D01*
X104751457Y-85369910D01*
X104751456Y-85369918D01*
X104731502Y-85597998D01*
X104731502Y-85598001D01*
X104751456Y-85826081D01*
X104751457Y-85826089D01*
X104810714Y-86047238D01*
X104810718Y-86047249D01*
X104870616Y-86175700D01*
X104907477Y-86254749D01*
X105038802Y-86442300D01*
X105200700Y-86604198D01*
X105362932Y-86717794D01*
X105406557Y-86772372D01*
X105413425Y-86795177D01*
X105430407Y-86880548D01*
X105424180Y-86950140D01*
X105381318Y-87005317D01*
X105379947Y-87006291D01*
X105364797Y-87016900D01*
X105200699Y-87131803D01*
X105092834Y-87239668D01*
X105031511Y-87273152D01*
X104961819Y-87268168D01*
X104917472Y-87239667D01*
X101368936Y-83691131D01*
X101368932Y-83691128D01*
X101265181Y-83621803D01*
X101265172Y-83621798D01*
X101149885Y-83574045D01*
X101149877Y-83574043D01*
X101027498Y-83549700D01*
X101027494Y-83549700D01*
X99800709Y-83549700D01*
X99733670Y-83530015D01*
X99687915Y-83477211D01*
X99677971Y-83408053D01*
X99680934Y-83393606D01*
X99703872Y-83308000D01*
X98740686Y-83308000D01*
X98745080Y-83303606D01*
X98797741Y-83212394D01*
X98825000Y-83110661D01*
X98825000Y-83005339D01*
X98797741Y-82903606D01*
X98745080Y-82812394D01*
X98740686Y-82808000D01*
X99703872Y-82808000D01*
X99703872Y-82807999D01*
X99651269Y-82611682D01*
X99651265Y-82611673D01*
X99555134Y-82405517D01*
X99424657Y-82219179D01*
X99263820Y-82058342D01*
X99077482Y-81927865D01*
X98871328Y-81831734D01*
X98675000Y-81779127D01*
X98675000Y-82742314D01*
X98670606Y-82737920D01*
X98579394Y-82685259D01*
X98477661Y-82658000D01*
X98372339Y-82658000D01*
X98270606Y-82685259D01*
X98179394Y-82737920D01*
X98175000Y-82742314D01*
X98175000Y-81779127D01*
X97978671Y-81831734D01*
X97772517Y-81927865D01*
X97586179Y-82058342D01*
X97425342Y-82219179D01*
X97294865Y-82405517D01*
X97198734Y-82611673D01*
X97198730Y-82611682D01*
X97146127Y-82807999D01*
X97146128Y-82808000D01*
X98109314Y-82808000D01*
X98104920Y-82812394D01*
X98052259Y-82903606D01*
X98025000Y-83005339D01*
X98025000Y-83110661D01*
X98052259Y-83212394D01*
X98104920Y-83303606D01*
X98109314Y-83308000D01*
X97146128Y-83308000D01*
X97146127Y-83308001D01*
X97159667Y-83358532D01*
X97158004Y-83428382D01*
X97118841Y-83486244D01*
X97054612Y-83513748D01*
X96985710Y-83502161D01*
X96952211Y-83478306D01*
X94515836Y-81041931D01*
X94515832Y-81041928D01*
X94412081Y-80972603D01*
X94412072Y-80972598D01*
X94296785Y-80924845D01*
X94296777Y-80924843D01*
X94174398Y-80900500D01*
X94174394Y-80900500D01*
X88104947Y-80900500D01*
X88037908Y-80880815D01*
X88003372Y-80847623D01*
X87932916Y-80747001D01*
X87932911Y-80746995D01*
X87782003Y-80596087D01*
X87671532Y-80518734D01*
X87607180Y-80473674D01*
X87607176Y-80473672D01*
X87413761Y-80383481D01*
X87413747Y-80383476D01*
X87207613Y-80328243D01*
X87207603Y-80328241D01*
X86995001Y-80309641D01*
X86994999Y-80309641D01*
X86782396Y-80328241D01*
X86782386Y-80328243D01*
X86576252Y-80383476D01*
X86576243Y-80383480D01*
X86382820Y-80473674D01*
X86382816Y-80473676D01*
X86208001Y-80596083D01*
X86207995Y-80596088D01*
X86057088Y-80746995D01*
X86057083Y-80747001D01*
X85934676Y-80921816D01*
X85934674Y-80921820D01*
X85844480Y-81115243D01*
X85842625Y-81120339D01*
X85841292Y-81119854D01*
X85808405Y-81173804D01*
X85745556Y-81204329D01*
X85676181Y-81196031D01*
X85622306Y-81151542D01*
X85607958Y-81120126D01*
X85607375Y-81120339D01*
X85605524Y-81115256D01*
X85605521Y-81115245D01*
X85515326Y-80921821D01*
X85515324Y-80921818D01*
X85515323Y-80921816D01*
X85392916Y-80747001D01*
X85392911Y-80746995D01*
X85242003Y-80596087D01*
X85131532Y-80518734D01*
X85067180Y-80473674D01*
X85067176Y-80473672D01*
X84873761Y-80383481D01*
X84873747Y-80383476D01*
X84667613Y-80328243D01*
X84667603Y-80328241D01*
X84455001Y-80309641D01*
X84454999Y-80309641D01*
X84242396Y-80328241D01*
X84242386Y-80328243D01*
X84036252Y-80383476D01*
X84036243Y-80383480D01*
X83842820Y-80473674D01*
X83842816Y-80473676D01*
X83668001Y-80596083D01*
X83667995Y-80596088D01*
X83517088Y-80746995D01*
X83517083Y-80747001D01*
X83394676Y-80921816D01*
X83394674Y-80921820D01*
X83304480Y-81115243D01*
X83304475Y-81115256D01*
X83300374Y-81130561D01*
X83264008Y-81190221D01*
X83201160Y-81220749D01*
X83131785Y-81212452D01*
X83077908Y-81167966D01*
X83060824Y-81130555D01*
X83057505Y-81118166D01*
X83057502Y-81118161D01*
X82967934Y-80926083D01*
X82930266Y-80872286D01*
X82930265Y-80872285D01*
X82315000Y-81487551D01*
X82315000Y-81481339D01*
X82287741Y-81379606D01*
X82235080Y-81288394D01*
X82160606Y-81213920D01*
X82069394Y-81161259D01*
X81967661Y-81134000D01*
X81961448Y-81134000D01*
X82576713Y-80518734D01*
X82576712Y-80518733D01*
X82522914Y-80481063D01*
X82522912Y-80481062D01*
X82330838Y-80391497D01*
X82330829Y-80391493D01*
X82126131Y-80336645D01*
X82126120Y-80336643D01*
X81915002Y-80318173D01*
X81914998Y-80318173D01*
X81703879Y-80336643D01*
X81703868Y-80336645D01*
X81499170Y-80391493D01*
X81499161Y-80391497D01*
X81307088Y-80481062D01*
X81253286Y-80518733D01*
X81868553Y-81134000D01*
X81862339Y-81134000D01*
X81760606Y-81161259D01*
X81669394Y-81213920D01*
X81594920Y-81288394D01*
X81542259Y-81379606D01*
X81515000Y-81481339D01*
X81515000Y-81487553D01*
X80899733Y-80872286D01*
X80862062Y-80926088D01*
X80772497Y-81118161D01*
X80772492Y-81118173D01*
X80769173Y-81130561D01*
X80732807Y-81190221D01*
X80669959Y-81220749D01*
X80600584Y-81212452D01*
X80546707Y-81167966D01*
X80529624Y-81130559D01*
X80525521Y-81115245D01*
X80435326Y-80921821D01*
X80435324Y-80921818D01*
X80435323Y-80921816D01*
X80312916Y-80747001D01*
X80312911Y-80746995D01*
X80162003Y-80596087D01*
X80051532Y-80518734D01*
X79987180Y-80473674D01*
X79987176Y-80473672D01*
X79793761Y-80383481D01*
X79793747Y-80383476D01*
X79623884Y-80337962D01*
X79564223Y-80301597D01*
X79533694Y-80238750D01*
X79541989Y-80169374D01*
X79568293Y-80130509D01*
X82555805Y-77142997D01*
X98342034Y-77142997D01*
X98342034Y-77143002D01*
X98361858Y-77369599D01*
X98361860Y-77369610D01*
X98420730Y-77589317D01*
X98420735Y-77589331D01*
X98516863Y-77795478D01*
X98567974Y-77868472D01*
X99247000Y-77189446D01*
X99247000Y-77195661D01*
X99274259Y-77297394D01*
X99326920Y-77388606D01*
X99401394Y-77463080D01*
X99492606Y-77515741D01*
X99594339Y-77543000D01*
X99600553Y-77543000D01*
X98921526Y-78222025D01*
X98994513Y-78273132D01*
X98994521Y-78273136D01*
X99200668Y-78369264D01*
X99200682Y-78369269D01*
X99420389Y-78428139D01*
X99420400Y-78428141D01*
X99646998Y-78447966D01*
X99647002Y-78447966D01*
X99873599Y-78428141D01*
X99873610Y-78428139D01*
X100093317Y-78369269D01*
X100093331Y-78369264D01*
X100299478Y-78273136D01*
X100372471Y-78222024D01*
X99693447Y-77543000D01*
X99699661Y-77543000D01*
X99801394Y-77515741D01*
X99892606Y-77463080D01*
X99967080Y-77388606D01*
X100019741Y-77297394D01*
X100047000Y-77195661D01*
X100047000Y-77189447D01*
X100726024Y-77868471D01*
X100777136Y-77795478D01*
X100873264Y-77589331D01*
X100873269Y-77589317D01*
X100932139Y-77369610D01*
X100932141Y-77369599D01*
X100951966Y-77143002D01*
X100951966Y-77142998D01*
X103333502Y-77142998D01*
X103333502Y-77143001D01*
X103353456Y-77371081D01*
X103353457Y-77371089D01*
X103412714Y-77592238D01*
X103412718Y-77592249D01*
X103507485Y-77795478D01*
X103509477Y-77799749D01*
X103640802Y-77987300D01*
X103802700Y-78149198D01*
X103990251Y-78280523D01*
X104115091Y-78338736D01*
X104197750Y-78377281D01*
X104197752Y-78377281D01*
X104197757Y-78377284D01*
X104418913Y-78436543D01*
X104581832Y-78450796D01*
X104646998Y-78456498D01*
X104647000Y-78456498D01*
X104647002Y-78456498D01*
X104704021Y-78451509D01*
X104875087Y-78436543D01*
X105096243Y-78377284D01*
X105303749Y-78280523D01*
X105491300Y-78149198D01*
X105653198Y-77987300D01*
X105784523Y-77799749D01*
X105881284Y-77592243D01*
X105940543Y-77371087D01*
X105960498Y-77143000D01*
X105940543Y-76914913D01*
X105881284Y-76693757D01*
X105784523Y-76486251D01*
X105653198Y-76298700D01*
X105491300Y-76136802D01*
X105303749Y-76005477D01*
X105303745Y-76005475D01*
X105096249Y-75908718D01*
X105096238Y-75908714D01*
X104875089Y-75849457D01*
X104875081Y-75849456D01*
X104647002Y-75829502D01*
X104646998Y-75829502D01*
X104418918Y-75849456D01*
X104418910Y-75849457D01*
X104197761Y-75908714D01*
X104197750Y-75908718D01*
X103990254Y-76005475D01*
X103990252Y-76005476D01*
X103970531Y-76019285D01*
X103802700Y-76136802D01*
X103802698Y-76136803D01*
X103802695Y-76136806D01*
X103640806Y-76298695D01*
X103509476Y-76486252D01*
X103509475Y-76486254D01*
X103412718Y-76693750D01*
X103412714Y-76693761D01*
X103353457Y-76914910D01*
X103353456Y-76914918D01*
X103333502Y-77142998D01*
X100951966Y-77142998D01*
X100951966Y-77142997D01*
X100932141Y-76916400D01*
X100932139Y-76916389D01*
X100873269Y-76696682D01*
X100873264Y-76696668D01*
X100777136Y-76490521D01*
X100777132Y-76490513D01*
X100726025Y-76417526D01*
X100047000Y-77096551D01*
X100047000Y-77090339D01*
X100019741Y-76988606D01*
X99967080Y-76897394D01*
X99892606Y-76822920D01*
X99801394Y-76770259D01*
X99699661Y-76743000D01*
X99693448Y-76743000D01*
X100372472Y-76063974D01*
X100299478Y-76012863D01*
X100093331Y-75916735D01*
X100093317Y-75916730D01*
X99873610Y-75857860D01*
X99873599Y-75857858D01*
X99647002Y-75838034D01*
X99646998Y-75838034D01*
X99420400Y-75857858D01*
X99420389Y-75857860D01*
X99200682Y-75916730D01*
X99200673Y-75916734D01*
X98994516Y-76012866D01*
X98994512Y-76012868D01*
X98921526Y-76063973D01*
X98921526Y-76063974D01*
X99600553Y-76743000D01*
X99594339Y-76743000D01*
X99492606Y-76770259D01*
X99401394Y-76822920D01*
X99326920Y-76897394D01*
X99274259Y-76988606D01*
X99247000Y-77090339D01*
X99247000Y-77096552D01*
X98567974Y-76417526D01*
X98567973Y-76417526D01*
X98516868Y-76490512D01*
X98516866Y-76490516D01*
X98420734Y-76696673D01*
X98420730Y-76696682D01*
X98361860Y-76916389D01*
X98361858Y-76916400D01*
X98342034Y-77142997D01*
X82555805Y-77142997D01*
X84336295Y-75362507D01*
X84397615Y-75329025D01*
X84467307Y-75334009D01*
X84523240Y-75375881D01*
X84536355Y-75397787D01*
X84554863Y-75437478D01*
X84605974Y-75510472D01*
X85285000Y-74831446D01*
X85285000Y-74837661D01*
X85312259Y-74939394D01*
X85364920Y-75030606D01*
X85439394Y-75105080D01*
X85530606Y-75157741D01*
X85632339Y-75185000D01*
X85638553Y-75185000D01*
X84959526Y-75864025D01*
X85032513Y-75915132D01*
X85032521Y-75915136D01*
X85238668Y-76011264D01*
X85238682Y-76011269D01*
X85458389Y-76070139D01*
X85458400Y-76070141D01*
X85684998Y-76089966D01*
X85685002Y-76089966D01*
X85911599Y-76070141D01*
X85911610Y-76070139D01*
X86131317Y-76011269D01*
X86131331Y-76011264D01*
X86337478Y-75915136D01*
X86410471Y-75864024D01*
X85731447Y-75185000D01*
X85737661Y-75185000D01*
X85839394Y-75157741D01*
X85930606Y-75105080D01*
X86005080Y-75030606D01*
X86057741Y-74939394D01*
X86085000Y-74837661D01*
X86085000Y-74831447D01*
X86764024Y-75510471D01*
X86815136Y-75437478D01*
X86911264Y-75231331D01*
X86911269Y-75231317D01*
X86970139Y-75011610D01*
X86970141Y-75011599D01*
X86989966Y-74785002D01*
X86989966Y-74784997D01*
X86970141Y-74558400D01*
X86970139Y-74558389D01*
X86911269Y-74338682D01*
X86911264Y-74338668D01*
X86815136Y-74132521D01*
X86815132Y-74132513D01*
X86764025Y-74059526D01*
X86085000Y-74738551D01*
X86085000Y-74732339D01*
X86057741Y-74630606D01*
X86005080Y-74539394D01*
X85930606Y-74464920D01*
X85839394Y-74412259D01*
X85737661Y-74385000D01*
X85731446Y-74385000D01*
X86410472Y-73705974D01*
X86337480Y-73654864D01*
X86297787Y-73636355D01*
X86245348Y-73590182D01*
X86226196Y-73522989D01*
X86246412Y-73456108D01*
X86262507Y-73436296D01*
X86321286Y-73377518D01*
X86382609Y-73344034D01*
X86408966Y-73341200D01*
X91420795Y-73341200D01*
X91420796Y-73341199D01*
X91543185Y-73316855D01*
X91658475Y-73269100D01*
X91762233Y-73199771D01*
X98947868Y-66014135D01*
X99009189Y-65980652D01*
X99078881Y-65985636D01*
X99134814Y-66027508D01*
X99159075Y-66091008D01*
X99163456Y-66141083D01*
X99163457Y-66141089D01*
X99222714Y-66362238D01*
X99222718Y-66362249D01*
X99243813Y-66407487D01*
X99319477Y-66569749D01*
X99450802Y-66757300D01*
X99612700Y-66919198D01*
X99800251Y-67050523D01*
X99925091Y-67108736D01*
X100007750Y-67147281D01*
X100007752Y-67147281D01*
X100007757Y-67147284D01*
X100228913Y-67206543D01*
X100391832Y-67220796D01*
X100456998Y-67226498D01*
X100457000Y-67226498D01*
X100457002Y-67226498D01*
X100514021Y-67221509D01*
X100685087Y-67206543D01*
X100906243Y-67147284D01*
X101113749Y-67050523D01*
X101301300Y-66919198D01*
X101463198Y-66757300D01*
X101594523Y-66569749D01*
X101691284Y-66362243D01*
X101750543Y-66141087D01*
X101770498Y-65913000D01*
X101770498Y-65912998D01*
X103334502Y-65912998D01*
X103334502Y-65913001D01*
X103354456Y-66141081D01*
X103354457Y-66141089D01*
X103413714Y-66362238D01*
X103413718Y-66362249D01*
X103434813Y-66407487D01*
X103510477Y-66569749D01*
X103641802Y-66757300D01*
X103803700Y-66919198D01*
X103991251Y-67050523D01*
X104116091Y-67108736D01*
X104198750Y-67147281D01*
X104198752Y-67147281D01*
X104198757Y-67147284D01*
X104419913Y-67206543D01*
X104582832Y-67220796D01*
X104647998Y-67226498D01*
X104648000Y-67226498D01*
X104648002Y-67226498D01*
X104705021Y-67221509D01*
X104876087Y-67206543D01*
X105097243Y-67147284D01*
X105304749Y-67050523D01*
X105492300Y-66919198D01*
X105654198Y-66757300D01*
X105785523Y-66569749D01*
X105882284Y-66362243D01*
X105941543Y-66141087D01*
X105961498Y-65913000D01*
X105941543Y-65684913D01*
X105882284Y-65463757D01*
X105785523Y-65256251D01*
X105654198Y-65068700D01*
X105492300Y-64906802D01*
X105304749Y-64775477D01*
X105304745Y-64775475D01*
X105097249Y-64678718D01*
X105097238Y-64678714D01*
X104876089Y-64619457D01*
X104876081Y-64619456D01*
X104648002Y-64599502D01*
X104647998Y-64599502D01*
X104419918Y-64619456D01*
X104419910Y-64619457D01*
X104198761Y-64678714D01*
X104198750Y-64678718D01*
X103991254Y-64775475D01*
X103991252Y-64775476D01*
X103991251Y-64775477D01*
X103803700Y-64906802D01*
X103803698Y-64906803D01*
X103803695Y-64906806D01*
X103641806Y-65068695D01*
X103510476Y-65256252D01*
X103510475Y-65256254D01*
X103413718Y-65463750D01*
X103413714Y-65463761D01*
X103354457Y-65684910D01*
X103354456Y-65684918D01*
X103334502Y-65912998D01*
X101770498Y-65912998D01*
X101750543Y-65684913D01*
X101691284Y-65463757D01*
X101594523Y-65256251D01*
X101463198Y-65068700D01*
X101301300Y-64906802D01*
X101113749Y-64775477D01*
X101113745Y-64775475D01*
X100906249Y-64678718D01*
X100906238Y-64678714D01*
X100685089Y-64619457D01*
X100685083Y-64619456D01*
X100635008Y-64615075D01*
X100569940Y-64589621D01*
X100528963Y-64533030D01*
X100525086Y-64463268D01*
X100558135Y-64403868D01*
X105140072Y-59821933D01*
X105209401Y-59718175D01*
X105257155Y-59602884D01*
X105260406Y-59586543D01*
X105279573Y-59490177D01*
X105311958Y-59428267D01*
X105330059Y-59412800D01*
X105492300Y-59299198D01*
X105654198Y-59137300D01*
X105785523Y-58949749D01*
X105882284Y-58742243D01*
X105941543Y-58521087D01*
X105961498Y-58293000D01*
X105941543Y-58064913D01*
X105882284Y-57843757D01*
X105785523Y-57636251D01*
X105654198Y-57448700D01*
X105492300Y-57286802D01*
X105304749Y-57155477D01*
X105257956Y-57133657D01*
X105097249Y-57058718D01*
X105097238Y-57058714D01*
X104876089Y-56999457D01*
X104876081Y-56999456D01*
X104648002Y-56979502D01*
X104647998Y-56979502D01*
X104419918Y-56999456D01*
X104419910Y-56999457D01*
X104198761Y-57058714D01*
X104198750Y-57058718D01*
X103991254Y-57155475D01*
X103991252Y-57155476D01*
X103991251Y-57155477D01*
X103803700Y-57286802D01*
X103803698Y-57286803D01*
X103803695Y-57286806D01*
X103641806Y-57448695D01*
X103510476Y-57636252D01*
X103510475Y-57636254D01*
X103413718Y-57843750D01*
X103413714Y-57843761D01*
X103354457Y-58064910D01*
X103354456Y-58064918D01*
X103334502Y-58292998D01*
X103334502Y-58293001D01*
X103354456Y-58521081D01*
X103354457Y-58521089D01*
X103413714Y-58742238D01*
X103413718Y-58742249D01*
X103510475Y-58949745D01*
X103510477Y-58949749D01*
X103641802Y-59137300D01*
X103641806Y-59137304D01*
X103749667Y-59245165D01*
X103783152Y-59306488D01*
X103778168Y-59376180D01*
X103749667Y-59420527D01*
X97691065Y-65479128D01*
X97629742Y-65512613D01*
X97560050Y-65507629D01*
X97504117Y-65465757D01*
X97491002Y-65443851D01*
X97432238Y-65317831D01*
X97403523Y-65256251D01*
X97272198Y-65068700D01*
X97110300Y-64906802D01*
X96922749Y-64775477D01*
X96922745Y-64775475D01*
X96715249Y-64678718D01*
X96715238Y-64678714D01*
X96494089Y-64619457D01*
X96494081Y-64619456D01*
X96266002Y-64599502D01*
X96265998Y-64599502D01*
X96037918Y-64619456D01*
X96037910Y-64619457D01*
X95816761Y-64678714D01*
X95816750Y-64678718D01*
X95609254Y-64775475D01*
X95609252Y-64775476D01*
X95609251Y-64775477D01*
X95421700Y-64906802D01*
X95421698Y-64906803D01*
X95421695Y-64906806D01*
X95259806Y-65068695D01*
X95259803Y-65068698D01*
X95259802Y-65068700D01*
X95149220Y-65226625D01*
X95094646Y-65270249D01*
X95047648Y-65279500D01*
X89494602Y-65279500D01*
X89372219Y-65303843D01*
X89372214Y-65303845D01*
X89338448Y-65317829D01*
X89338449Y-65317830D01*
X89256926Y-65351598D01*
X89256922Y-65351600D01*
X89153171Y-65420924D01*
X89153163Y-65420930D01*
X81097430Y-73476664D01*
X81036107Y-73510149D01*
X80977656Y-73508758D01*
X80913092Y-73491458D01*
X80913088Y-73491457D01*
X80913087Y-73491457D01*
X80913086Y-73491456D01*
X80913081Y-73491456D01*
X80685002Y-73471502D01*
X80684998Y-73471502D01*
X80456918Y-73491456D01*
X80456910Y-73491457D01*
X80235761Y-73550714D01*
X80235750Y-73550718D01*
X80028254Y-73647475D01*
X80028252Y-73647476D01*
X80028251Y-73647477D01*
X79840700Y-73778802D01*
X79840698Y-73778803D01*
X79840695Y-73778806D01*
X79678806Y-73940695D01*
X79678803Y-73940698D01*
X79678802Y-73940700D01*
X79596767Y-74057856D01*
X79547476Y-74128252D01*
X79547475Y-74128254D01*
X79450718Y-74335750D01*
X79450714Y-74335761D01*
X79391457Y-74556910D01*
X79391456Y-74556918D01*
X79371502Y-74784998D01*
X79371502Y-74785001D01*
X79391456Y-75013081D01*
X79391457Y-75013089D01*
X79450714Y-75234238D01*
X79450718Y-75234249D01*
X79494913Y-75329025D01*
X79547477Y-75441749D01*
X79678802Y-75629300D01*
X79840700Y-75791198D01*
X80028251Y-75922523D01*
X80153091Y-75980736D01*
X80235750Y-76019281D01*
X80235752Y-76019281D01*
X80235757Y-76019284D01*
X80456913Y-76078543D01*
X80619832Y-76092796D01*
X80684998Y-76098498D01*
X80685000Y-76098498D01*
X80685002Y-76098498D01*
X80742021Y-76093509D01*
X80913087Y-76078543D01*
X81134243Y-76019284D01*
X81341749Y-75922523D01*
X81529300Y-75791198D01*
X81691198Y-75629300D01*
X81822523Y-75441749D01*
X81919284Y-75234243D01*
X81978543Y-75013087D01*
X81998498Y-74785000D01*
X81978543Y-74556913D01*
X81961241Y-74492341D01*
X81962904Y-74422491D01*
X81993333Y-74372569D01*
X89783086Y-66582819D01*
X89844409Y-66549334D01*
X89870767Y-66546500D01*
X95047648Y-66546500D01*
X95114687Y-66566185D01*
X95149220Y-66599373D01*
X95259802Y-66757300D01*
X95421700Y-66919198D01*
X95609251Y-67050523D01*
X95722975Y-67103553D01*
X95796851Y-67138002D01*
X95849291Y-67184174D01*
X95868443Y-67251367D01*
X95848227Y-67318249D01*
X95832128Y-67338065D01*
X91132315Y-72037881D01*
X91070992Y-72071366D01*
X91044634Y-72074200D01*
X86032801Y-72074200D01*
X85910422Y-72098543D01*
X85910414Y-72098545D01*
X85795127Y-72146298D01*
X85795118Y-72146303D01*
X85691367Y-72215628D01*
X85691363Y-72215631D01*
X77776490Y-80130506D01*
X76431167Y-81475829D01*
X76387047Y-81519949D01*
X76342927Y-81564068D01*
X76273603Y-81667818D01*
X76273598Y-81667827D01*
X76225845Y-81783114D01*
X76225843Y-81783122D01*
X76201500Y-81905501D01*
X76201500Y-82964052D01*
X76181815Y-83031091D01*
X76148624Y-83065627D01*
X76047997Y-83136087D01*
X76047995Y-83136088D01*
X75897088Y-83286995D01*
X75897083Y-83287001D01*
X75774676Y-83461816D01*
X75774674Y-83461820D01*
X75684480Y-83655243D01*
X75684476Y-83655252D01*
X75629243Y-83861386D01*
X75629241Y-83861396D01*
X75610641Y-84073999D01*
X75610641Y-84074000D01*
X75629241Y-84286603D01*
X75629243Y-84286613D01*
X75684476Y-84492747D01*
X75684481Y-84492761D01*
X75772684Y-84681912D01*
X75774674Y-84686180D01*
X75897087Y-84861003D01*
X76047997Y-85011913D01*
X76222820Y-85134326D01*
X76339188Y-85188589D01*
X76416238Y-85224518D01*
X76416240Y-85224518D01*
X76416245Y-85224521D01*
X76416249Y-85224522D01*
X76421339Y-85226375D01*
X76420854Y-85227707D01*
X76474804Y-85260595D01*
X76505329Y-85323444D01*
X76497031Y-85392819D01*
X76452542Y-85446694D01*
X76421126Y-85461041D01*
X76421339Y-85461625D01*
X76416247Y-85463478D01*
X76416245Y-85463479D01*
X76416243Y-85463480D01*
X76222820Y-85553674D01*
X76222816Y-85553676D01*
X76048001Y-85676083D01*
X76047995Y-85676088D01*
X75897088Y-85826995D01*
X75897083Y-85827001D01*
X75774676Y-86001816D01*
X75774674Y-86001820D01*
X75684480Y-86195243D01*
X75684476Y-86195252D01*
X75629243Y-86401386D01*
X75629241Y-86401396D01*
X75610641Y-86613999D01*
X75610641Y-86614000D01*
X75629241Y-86826603D01*
X75629244Y-86826619D01*
X75631263Y-86834153D01*
X75629599Y-86904002D01*
X75599169Y-86953925D01*
X75359767Y-87193329D01*
X75315647Y-87237449D01*
X75271527Y-87281568D01*
X75202203Y-87385318D01*
X75202198Y-87385327D01*
X75154445Y-87500614D01*
X75154443Y-87500622D01*
X75130100Y-87623001D01*
X75130100Y-92161098D01*
X75154443Y-92283477D01*
X75154445Y-92283485D01*
X75202198Y-92398772D01*
X75202203Y-92398781D01*
X75271528Y-92502532D01*
X75271531Y-92502536D01*
X75968858Y-93199863D01*
X76002343Y-93261186D01*
X75997359Y-93330878D01*
X75968859Y-93375225D01*
X75897083Y-93447001D01*
X75774676Y-93621816D01*
X75774674Y-93621820D01*
X75684480Y-93815243D01*
X75684476Y-93815252D01*
X75629243Y-94021386D01*
X75629241Y-94021396D01*
X75610641Y-94233999D01*
X75610641Y-94234000D01*
X75629241Y-94446603D01*
X75629243Y-94446613D01*
X75684476Y-94652747D01*
X75684481Y-94652761D01*
X75774672Y-94846176D01*
X75774674Y-94846180D01*
X75897087Y-95021003D01*
X76047997Y-95171913D01*
X76180965Y-95265019D01*
X76224588Y-95319594D01*
X76231781Y-95389093D01*
X76200259Y-95451447D01*
X76197521Y-95454273D01*
X62517358Y-109134438D01*
X59021167Y-112630629D01*
X58977047Y-112674749D01*
X58932927Y-112718868D01*
X58863603Y-112822618D01*
X58863598Y-112822627D01*
X58815845Y-112937914D01*
X58815843Y-112937922D01*
X58791500Y-113060301D01*
X58791500Y-125021001D01*
X58771815Y-125088040D01*
X58719011Y-125133795D01*
X58667500Y-125145001D01*
X43296500Y-125145001D01*
X43229461Y-125125316D01*
X43183706Y-125072512D01*
X43172500Y-125021001D01*
X43172500Y-124794500D01*
X43192185Y-124727461D01*
X43244989Y-124681706D01*
X43296500Y-124670500D01*
X43356223Y-124670500D01*
X43356226Y-124670500D01*
X43674992Y-124640962D01*
X43772885Y-124631891D01*
X43772885Y-124631890D01*
X43772894Y-124631890D01*
X44184222Y-124555000D01*
X44586701Y-124440484D01*
X44976897Y-124289322D01*
X45351481Y-124102801D01*
X45707257Y-123882514D01*
X46041189Y-123630340D01*
X46350430Y-123348430D01*
X46632340Y-123039189D01*
X46884514Y-122705257D01*
X47104801Y-122349481D01*
X47291322Y-121974897D01*
X47442484Y-121584701D01*
X47557000Y-121182222D01*
X47633890Y-120770894D01*
X47672500Y-120354226D01*
X47672500Y-119935774D01*
X47633890Y-119519106D01*
X47557000Y-119107778D01*
X47442484Y-118705299D01*
X47291322Y-118315103D01*
X47104801Y-117940519D01*
X46884514Y-117584743D01*
X46671168Y-117302227D01*
X46632344Y-117250816D01*
X46632337Y-117250807D01*
X46436565Y-117036056D01*
X46350430Y-116941570D01*
X46146241Y-116755427D01*
X46041192Y-116659662D01*
X46041183Y-116659655D01*
X45707258Y-116407487D01*
X45707257Y-116407486D01*
X45351481Y-116187199D01*
X44976897Y-116000678D01*
X44586701Y-115849516D01*
X44586699Y-115849515D01*
X44586698Y-115849515D01*
X44184229Y-115735001D01*
X44026378Y-115705494D01*
X43772894Y-115658110D01*
X43772888Y-115658109D01*
X43772886Y-115658109D01*
X43772885Y-115658108D01*
X43436435Y-115626932D01*
X43356226Y-115619500D01*
X43356223Y-115619500D01*
X43296500Y-115619500D01*
X43229461Y-115599815D01*
X43183706Y-115547011D01*
X43172500Y-115495500D01*
X43172500Y-74794500D01*
X43192185Y-74727461D01*
X43244989Y-74681706D01*
X43296500Y-74670500D01*
X43356223Y-74670500D01*
X43356226Y-74670500D01*
X43674992Y-74640962D01*
X43772885Y-74631891D01*
X43772885Y-74631890D01*
X43772894Y-74631890D01*
X44184222Y-74555000D01*
X44586701Y-74440484D01*
X44976897Y-74289322D01*
X45351481Y-74102801D01*
X45707257Y-73882514D01*
X46041189Y-73630340D01*
X46350430Y-73348430D01*
X46632340Y-73039189D01*
X46884514Y-72705257D01*
X47104801Y-72349481D01*
X47291322Y-71974897D01*
X47442484Y-71584701D01*
X47557000Y-71182222D01*
X47633890Y-70770894D01*
X47672500Y-70354226D01*
X47672500Y-69935774D01*
X47633890Y-69519106D01*
X47557000Y-69107778D01*
X47442484Y-68705299D01*
X47291322Y-68315103D01*
X47104801Y-67940519D01*
X46884514Y-67584743D01*
X46632340Y-67250811D01*
X46632337Y-67250807D01*
X46521647Y-67129387D01*
X46350430Y-66941570D01*
X46148295Y-66757300D01*
X46041192Y-66659662D01*
X46041183Y-66659655D01*
X45707258Y-66407487D01*
X45707257Y-66407486D01*
X45351481Y-66187199D01*
X44976897Y-66000678D01*
X44586701Y-65849516D01*
X44586699Y-65849515D01*
X44586698Y-65849515D01*
X44184229Y-65735001D01*
X44026378Y-65705494D01*
X43772894Y-65658110D01*
X43772888Y-65658109D01*
X43772886Y-65658109D01*
X43772885Y-65658108D01*
X43430095Y-65626345D01*
X43356226Y-65619500D01*
X43356223Y-65619500D01*
X43296500Y-65619500D01*
X43229461Y-65599815D01*
X43183706Y-65547011D01*
X43172500Y-65495500D01*
X43172500Y-58292998D01*
X94952502Y-58292998D01*
X94952502Y-58293001D01*
X94972456Y-58521081D01*
X94972457Y-58521089D01*
X95031714Y-58742238D01*
X95031718Y-58742249D01*
X95128475Y-58949745D01*
X95128477Y-58949749D01*
X95259802Y-59137300D01*
X95421700Y-59299198D01*
X95609251Y-59430523D01*
X95632500Y-59441364D01*
X95816750Y-59527281D01*
X95816752Y-59527281D01*
X95816757Y-59527284D01*
X96037913Y-59586543D01*
X96200832Y-59600796D01*
X96265998Y-59606498D01*
X96266000Y-59606498D01*
X96266002Y-59606498D01*
X96323021Y-59601509D01*
X96494087Y-59586543D01*
X96715243Y-59527284D01*
X96922749Y-59430523D01*
X97110300Y-59299198D01*
X97272198Y-59137300D01*
X97403523Y-58949749D01*
X97500284Y-58742243D01*
X97559543Y-58521087D01*
X97579498Y-58293000D01*
X97579498Y-58292998D01*
X99143502Y-58292998D01*
X99143502Y-58293001D01*
X99163456Y-58521081D01*
X99163457Y-58521089D01*
X99222714Y-58742238D01*
X99222718Y-58742249D01*
X99319475Y-58949745D01*
X99319477Y-58949749D01*
X99450802Y-59137300D01*
X99612700Y-59299198D01*
X99800251Y-59430523D01*
X99823500Y-59441364D01*
X100007750Y-59527281D01*
X100007752Y-59527281D01*
X100007757Y-59527284D01*
X100228913Y-59586543D01*
X100391832Y-59600796D01*
X100456998Y-59606498D01*
X100457000Y-59606498D01*
X100457002Y-59606498D01*
X100514021Y-59601509D01*
X100685087Y-59586543D01*
X100906243Y-59527284D01*
X101113749Y-59430523D01*
X101301300Y-59299198D01*
X101463198Y-59137300D01*
X101594523Y-58949749D01*
X101691284Y-58742243D01*
X101750543Y-58521087D01*
X101770498Y-58293000D01*
X101750543Y-58064913D01*
X101691284Y-57843757D01*
X101594523Y-57636251D01*
X101463198Y-57448700D01*
X101301300Y-57286802D01*
X101113749Y-57155477D01*
X101066956Y-57133657D01*
X100906249Y-57058718D01*
X100906238Y-57058714D01*
X100685089Y-56999457D01*
X100685081Y-56999456D01*
X100457002Y-56979502D01*
X100456998Y-56979502D01*
X100228918Y-56999456D01*
X100228910Y-56999457D01*
X100007761Y-57058714D01*
X100007750Y-57058718D01*
X99800254Y-57155475D01*
X99800252Y-57155476D01*
X99800251Y-57155477D01*
X99612700Y-57286802D01*
X99612698Y-57286803D01*
X99612695Y-57286806D01*
X99450806Y-57448695D01*
X99319476Y-57636252D01*
X99319475Y-57636254D01*
X99222718Y-57843750D01*
X99222714Y-57843761D01*
X99163457Y-58064910D01*
X99163456Y-58064918D01*
X99143502Y-58292998D01*
X97579498Y-58292998D01*
X97559543Y-58064913D01*
X97500284Y-57843757D01*
X97403523Y-57636251D01*
X97272198Y-57448700D01*
X97110300Y-57286802D01*
X96922749Y-57155477D01*
X96875956Y-57133657D01*
X96715249Y-57058718D01*
X96715238Y-57058714D01*
X96494089Y-56999457D01*
X96494081Y-56999456D01*
X96266002Y-56979502D01*
X96265998Y-56979502D01*
X96037918Y-56999456D01*
X96037910Y-56999457D01*
X95816761Y-57058714D01*
X95816750Y-57058718D01*
X95609254Y-57155475D01*
X95609252Y-57155476D01*
X95609251Y-57155477D01*
X95421700Y-57286802D01*
X95421698Y-57286803D01*
X95421695Y-57286806D01*
X95259806Y-57448695D01*
X95128476Y-57636252D01*
X95128475Y-57636254D01*
X95031718Y-57843750D01*
X95031714Y-57843761D01*
X94972457Y-58064910D01*
X94972456Y-58064918D01*
X94952502Y-58292998D01*
X43172500Y-58292998D01*
X43172500Y-55286155D01*
X110714000Y-55286155D01*
X110714000Y-55884000D01*
X111698314Y-55884000D01*
X111693920Y-55888394D01*
X111641259Y-55979606D01*
X111614000Y-56081339D01*
X111614000Y-56186661D01*
X111641259Y-56288394D01*
X111693920Y-56379606D01*
X111698314Y-56384000D01*
X110714000Y-56384000D01*
X110714000Y-56981844D01*
X110720401Y-57041372D01*
X110720403Y-57041379D01*
X110770645Y-57176086D01*
X110770649Y-57176093D01*
X110856809Y-57291187D01*
X110856812Y-57291190D01*
X110971906Y-57377350D01*
X110971913Y-57377354D01*
X111106620Y-57427596D01*
X111106627Y-57427598D01*
X111166155Y-57433999D01*
X111166172Y-57434000D01*
X111764000Y-57434000D01*
X111764000Y-56449686D01*
X111768394Y-56454080D01*
X111859606Y-56506741D01*
X111961339Y-56534000D01*
X112066661Y-56534000D01*
X112168394Y-56506741D01*
X112259606Y-56454080D01*
X112264000Y-56449686D01*
X112264000Y-57434000D01*
X112861828Y-57434000D01*
X112861844Y-57433999D01*
X112921372Y-57427598D01*
X112921379Y-57427596D01*
X113056086Y-57377354D01*
X113056093Y-57377350D01*
X113171187Y-57291190D01*
X113171190Y-57291187D01*
X113257350Y-57176093D01*
X113257354Y-57176086D01*
X113307596Y-57041379D01*
X113311505Y-57005024D01*
X113338243Y-56940473D01*
X113395635Y-56900624D01*
X113465460Y-56898129D01*
X113525549Y-56933781D01*
X113536369Y-56947153D01*
X113554340Y-56972818D01*
X113715179Y-57133657D01*
X113901517Y-57264134D01*
X114107673Y-57360265D01*
X114107682Y-57360269D01*
X114303999Y-57412872D01*
X114304000Y-57412871D01*
X114304000Y-56449686D01*
X114308394Y-56454080D01*
X114399606Y-56506741D01*
X114501339Y-56534000D01*
X114606661Y-56534000D01*
X114708394Y-56506741D01*
X114799606Y-56454080D01*
X114804000Y-56449686D01*
X114804000Y-57412872D01*
X115000317Y-57360269D01*
X115000326Y-57360265D01*
X115206482Y-57264134D01*
X115392820Y-57133657D01*
X115553657Y-56972820D01*
X115684134Y-56786481D01*
X115684135Y-56786479D01*
X115711618Y-56727543D01*
X115757790Y-56675103D01*
X115824983Y-56655951D01*
X115891864Y-56676166D01*
X115936382Y-56727543D01*
X115963864Y-56786479D01*
X115963865Y-56786481D01*
X116094342Y-56972820D01*
X116255179Y-57133657D01*
X116441517Y-57264134D01*
X116647673Y-57360265D01*
X116647682Y-57360269D01*
X116843999Y-57412872D01*
X116844000Y-57412871D01*
X116844000Y-56449686D01*
X116848394Y-56454080D01*
X116939606Y-56506741D01*
X117041339Y-56534000D01*
X117146661Y-56534000D01*
X117248394Y-56506741D01*
X117339606Y-56454080D01*
X117344000Y-56449686D01*
X117344000Y-57412872D01*
X117540317Y-57360269D01*
X117540326Y-57360265D01*
X117746482Y-57264134D01*
X117932820Y-57133657D01*
X118093657Y-56972820D01*
X118224134Y-56786482D01*
X118320265Y-56580326D01*
X118320269Y-56580317D01*
X118372872Y-56384000D01*
X117409686Y-56384000D01*
X117414080Y-56379606D01*
X117466741Y-56288394D01*
X117494000Y-56186661D01*
X117494000Y-56081339D01*
X117466741Y-55979606D01*
X117414080Y-55888394D01*
X117409686Y-55884000D01*
X118372872Y-55884000D01*
X118372872Y-55883999D01*
X118320269Y-55687682D01*
X118320265Y-55687673D01*
X118224134Y-55481517D01*
X118093657Y-55295179D01*
X117932820Y-55134342D01*
X117746482Y-55003865D01*
X117540328Y-54907734D01*
X117344000Y-54855127D01*
X117344000Y-55818314D01*
X117339606Y-55813920D01*
X117248394Y-55761259D01*
X117146661Y-55734000D01*
X117041339Y-55734000D01*
X116939606Y-55761259D01*
X116848394Y-55813920D01*
X116844000Y-55818314D01*
X116844000Y-54855127D01*
X116647671Y-54907734D01*
X116441517Y-55003865D01*
X116255179Y-55134342D01*
X116094342Y-55295179D01*
X115963865Y-55481517D01*
X115936382Y-55540457D01*
X115890210Y-55592896D01*
X115823016Y-55612048D01*
X115756135Y-55591832D01*
X115711618Y-55540457D01*
X115684134Y-55481517D01*
X115553657Y-55295179D01*
X115392820Y-55134342D01*
X115206482Y-55003865D01*
X115000328Y-54907734D01*
X114804000Y-54855127D01*
X114804000Y-55818314D01*
X114799606Y-55813920D01*
X114708394Y-55761259D01*
X114606661Y-55734000D01*
X114501339Y-55734000D01*
X114399606Y-55761259D01*
X114308394Y-55813920D01*
X114304000Y-55818314D01*
X114304000Y-54855127D01*
X114107671Y-54907734D01*
X113901517Y-55003865D01*
X113715179Y-55134342D01*
X113554339Y-55295182D01*
X113536368Y-55320847D01*
X113481790Y-55364471D01*
X113412291Y-55371662D01*
X113349937Y-55340138D01*
X113314525Y-55279907D01*
X113311505Y-55262975D01*
X113307596Y-55226620D01*
X113257354Y-55091913D01*
X113257350Y-55091906D01*
X113171190Y-54976812D01*
X113171187Y-54976809D01*
X113056093Y-54890649D01*
X113056086Y-54890645D01*
X112921379Y-54840403D01*
X112921372Y-54840401D01*
X112861844Y-54834000D01*
X112264000Y-54834000D01*
X112264000Y-55818314D01*
X112259606Y-55813920D01*
X112168394Y-55761259D01*
X112066661Y-55734000D01*
X111961339Y-55734000D01*
X111859606Y-55761259D01*
X111768394Y-55813920D01*
X111764000Y-55818314D01*
X111764000Y-54834000D01*
X111166155Y-54834000D01*
X111106627Y-54840401D01*
X111106620Y-54840403D01*
X110971913Y-54890645D01*
X110971906Y-54890649D01*
X110856812Y-54976809D01*
X110856809Y-54976812D01*
X110770649Y-55091906D01*
X110770645Y-55091913D01*
X110720403Y-55226620D01*
X110720401Y-55226627D01*
X110714000Y-55286155D01*
X43172500Y-55286155D01*
X43172500Y-48513998D01*
X110700502Y-48513998D01*
X110700502Y-48514001D01*
X110720456Y-48742081D01*
X110720457Y-48742089D01*
X110779714Y-48963238D01*
X110779718Y-48963249D01*
X110856382Y-49127655D01*
X110876477Y-49170749D01*
X111007802Y-49358300D01*
X111169700Y-49520198D01*
X111357251Y-49651523D01*
X111482091Y-49709736D01*
X111564750Y-49748281D01*
X111564752Y-49748281D01*
X111564757Y-49748284D01*
X111785913Y-49807543D01*
X111948832Y-49821796D01*
X112013998Y-49827498D01*
X112014000Y-49827498D01*
X112014002Y-49827498D01*
X112071021Y-49822509D01*
X112242087Y-49807543D01*
X112463243Y-49748284D01*
X112670749Y-49651523D01*
X112858300Y-49520198D01*
X113020198Y-49358300D01*
X113151523Y-49170749D01*
X113171618Y-49127655D01*
X113217790Y-49075215D01*
X113284983Y-49056063D01*
X113351864Y-49076278D01*
X113396382Y-49127655D01*
X113416477Y-49170749D01*
X113547802Y-49358300D01*
X113709700Y-49520198D01*
X113897251Y-49651523D01*
X114022091Y-49709736D01*
X114104750Y-49748281D01*
X114104752Y-49748281D01*
X114104757Y-49748284D01*
X114325913Y-49807543D01*
X114488832Y-49821796D01*
X114553998Y-49827498D01*
X114554000Y-49827498D01*
X114554002Y-49827498D01*
X114611021Y-49822509D01*
X114782087Y-49807543D01*
X115003243Y-49748284D01*
X115210749Y-49651523D01*
X115398300Y-49520198D01*
X115560198Y-49358300D01*
X115691523Y-49170749D01*
X115711618Y-49127655D01*
X115757790Y-49075215D01*
X115824983Y-49056063D01*
X115891864Y-49076278D01*
X115936382Y-49127655D01*
X115956477Y-49170749D01*
X116087802Y-49358300D01*
X116249700Y-49520198D01*
X116437251Y-49651523D01*
X116562091Y-49709736D01*
X116644750Y-49748281D01*
X116644752Y-49748281D01*
X116644757Y-49748284D01*
X116865913Y-49807543D01*
X117028832Y-49821796D01*
X117093998Y-49827498D01*
X117094000Y-49827498D01*
X117094002Y-49827498D01*
X117151021Y-49822509D01*
X117322087Y-49807543D01*
X117543243Y-49748284D01*
X117750749Y-49651523D01*
X117938300Y-49520198D01*
X118100198Y-49358300D01*
X118231523Y-49170749D01*
X118328284Y-48963243D01*
X118387543Y-48742087D01*
X118407498Y-48514000D01*
X118387543Y-48285913D01*
X118328284Y-48064757D01*
X118231523Y-47857251D01*
X118100198Y-47669700D01*
X117938300Y-47507802D01*
X117750749Y-47376477D01*
X117750745Y-47376475D01*
X117543249Y-47279718D01*
X117543238Y-47279714D01*
X117322089Y-47220457D01*
X117322081Y-47220456D01*
X117094002Y-47200502D01*
X117093998Y-47200502D01*
X116865918Y-47220456D01*
X116865910Y-47220457D01*
X116644761Y-47279714D01*
X116644750Y-47279718D01*
X116437254Y-47376475D01*
X116437252Y-47376476D01*
X116437251Y-47376477D01*
X116249700Y-47507802D01*
X116249698Y-47507803D01*
X116249695Y-47507806D01*
X116087806Y-47669695D01*
X115956476Y-47857251D01*
X115936382Y-47900345D01*
X115890209Y-47952784D01*
X115823016Y-47971936D01*
X115756135Y-47951720D01*
X115711618Y-47900345D01*
X115691523Y-47857251D01*
X115560198Y-47669700D01*
X115398300Y-47507802D01*
X115210749Y-47376477D01*
X115210745Y-47376475D01*
X115003249Y-47279718D01*
X115003238Y-47279714D01*
X114782089Y-47220457D01*
X114782081Y-47220456D01*
X114554002Y-47200502D01*
X114553998Y-47200502D01*
X114325918Y-47220456D01*
X114325910Y-47220457D01*
X114104761Y-47279714D01*
X114104750Y-47279718D01*
X113897254Y-47376475D01*
X113897252Y-47376476D01*
X113897251Y-47376477D01*
X113709700Y-47507802D01*
X113709698Y-47507803D01*
X113709695Y-47507806D01*
X113547806Y-47669695D01*
X113416476Y-47857251D01*
X113396382Y-47900345D01*
X113350209Y-47952784D01*
X113283016Y-47971936D01*
X113216135Y-47951720D01*
X113171618Y-47900345D01*
X113151523Y-47857251D01*
X113020198Y-47669700D01*
X112858300Y-47507802D01*
X112670749Y-47376477D01*
X112670745Y-47376475D01*
X112463249Y-47279718D01*
X112463238Y-47279714D01*
X112242089Y-47220457D01*
X112242081Y-47220456D01*
X112014002Y-47200502D01*
X112013998Y-47200502D01*
X111785918Y-47220456D01*
X111785910Y-47220457D01*
X111564761Y-47279714D01*
X111564750Y-47279718D01*
X111357254Y-47376475D01*
X111357252Y-47376476D01*
X111357251Y-47376477D01*
X111169700Y-47507802D01*
X111169698Y-47507803D01*
X111169695Y-47507806D01*
X111007806Y-47669695D01*
X110876476Y-47857252D01*
X110876475Y-47857254D01*
X110779718Y-48064750D01*
X110779714Y-48064761D01*
X110720457Y-48285910D01*
X110720456Y-48285918D01*
X110700502Y-48513998D01*
X43172500Y-48513998D01*
X43172500Y-44294601D01*
X43192185Y-44227562D01*
X43244989Y-44181807D01*
X43296500Y-44170601D01*
X122997500Y-44170601D01*
X123064539Y-44190286D01*
G37*
G04 #@! TD.AperFunction*
G04 #@! TA.AperFunction,Conductor*
G36*
X78280428Y-97375389D02*
G01*
X78336361Y-97417261D01*
X78338643Y-97420411D01*
X78437087Y-97561003D01*
X78587997Y-97711913D01*
X78762820Y-97834326D01*
X78879188Y-97888589D01*
X78956238Y-97924518D01*
X78956240Y-97924518D01*
X78956245Y-97924521D01*
X79162392Y-97979758D01*
X79375000Y-97998359D01*
X79435535Y-97993062D01*
X79504032Y-98006828D01*
X79554216Y-98055442D01*
X79570150Y-98123470D01*
X79546776Y-98189314D01*
X79534022Y-98204271D01*
X71105423Y-106632872D01*
X62981167Y-114757129D01*
X62937047Y-114801249D01*
X62892927Y-114845368D01*
X62823603Y-114949118D01*
X62823598Y-114949127D01*
X62775845Y-115064414D01*
X62775843Y-115064422D01*
X62751500Y-115186801D01*
X62751500Y-125021001D01*
X62731815Y-125088040D01*
X62679011Y-125133795D01*
X62627500Y-125145001D01*
X60182500Y-125145001D01*
X60115461Y-125125316D01*
X60069706Y-125072512D01*
X60058500Y-125021001D01*
X60058500Y-113436465D01*
X60078185Y-113369426D01*
X60094814Y-113348789D01*
X66709415Y-106734187D01*
X66770738Y-106700703D01*
X66840430Y-106705687D01*
X66896363Y-106747559D01*
X66920780Y-106813023D01*
X66921096Y-106821869D01*
X66921096Y-106822796D01*
X66921096Y-106822800D01*
X66941058Y-107012728D01*
X66941059Y-107012731D01*
X67000070Y-107194349D01*
X67000073Y-107194356D01*
X67095560Y-107359744D01*
X67223347Y-107501666D01*
X67377848Y-107613918D01*
X67552312Y-107691594D01*
X67739113Y-107731300D01*
X67930087Y-107731300D01*
X68116888Y-107691594D01*
X68291352Y-107613918D01*
X68445853Y-107501666D01*
X68573640Y-107359744D01*
X68669127Y-107194356D01*
X68728142Y-107012728D01*
X68745581Y-106846797D01*
X68772164Y-106782187D01*
X68781211Y-106772091D01*
X78149415Y-97403888D01*
X78210736Y-97370405D01*
X78280428Y-97375389D01*
G37*
G04 #@! TD.AperFunction*
G04 #@! TA.AperFunction,Conductor*
G36*
X74550834Y-110216583D02*
G01*
X74606767Y-110258455D01*
X74631184Y-110323919D01*
X74631500Y-110332765D01*
X74631500Y-121441200D01*
X74611815Y-121508239D01*
X74559011Y-121553994D01*
X74507500Y-121565200D01*
X74429613Y-121565200D01*
X74242814Y-121604905D01*
X74068346Y-121682583D01*
X73913845Y-121794835D01*
X73786059Y-121936757D01*
X73690573Y-122102143D01*
X73690570Y-122102150D01*
X73631559Y-122283768D01*
X73631558Y-122283772D01*
X73630399Y-122294804D01*
X73614119Y-122449696D01*
X73587534Y-122514310D01*
X73578479Y-122524415D01*
X70994214Y-125108682D01*
X70932891Y-125142167D01*
X70906533Y-125145001D01*
X67131900Y-125145001D01*
X67064861Y-125125316D01*
X67019106Y-125072512D01*
X67007900Y-125021001D01*
X67007900Y-117697000D01*
X67027585Y-117629961D01*
X67080389Y-117584206D01*
X67131900Y-117573000D01*
X67199987Y-117573000D01*
X67386788Y-117533294D01*
X67561252Y-117455618D01*
X67715753Y-117343366D01*
X67843540Y-117201444D01*
X67939027Y-117036056D01*
X67998042Y-116854428D01*
X68015481Y-116688497D01*
X68042064Y-116623887D01*
X68051111Y-116613791D01*
X74419821Y-110245082D01*
X74481142Y-110211599D01*
X74550834Y-110216583D01*
G37*
G04 #@! TD.AperFunction*
G04 #@! TA.AperFunction,Conductor*
G36*
X83385234Y-102944684D02*
G01*
X83441167Y-102986556D01*
X83465584Y-103052020D01*
X83465900Y-103060866D01*
X83465900Y-112863798D01*
X83490243Y-112986177D01*
X83490245Y-112986185D01*
X83537998Y-113101472D01*
X83538003Y-113101481D01*
X83607328Y-113205232D01*
X83607331Y-113205236D01*
X84130481Y-113728385D01*
X84163966Y-113789708D01*
X84166800Y-113816066D01*
X84166800Y-113944198D01*
X84191143Y-114066577D01*
X84191145Y-114066585D01*
X84238898Y-114181872D01*
X84238903Y-114181881D01*
X84308228Y-114285632D01*
X84308231Y-114285636D01*
X90435181Y-120412585D01*
X90468666Y-120473908D01*
X90471500Y-120500266D01*
X90471500Y-125021001D01*
X90451815Y-125088040D01*
X90399011Y-125133795D01*
X90347500Y-125145001D01*
X88721100Y-125145001D01*
X88654061Y-125125316D01*
X88608306Y-125072512D01*
X88597100Y-125021001D01*
X88597100Y-122222256D01*
X88616785Y-122155217D01*
X88628946Y-122139288D01*
X88702640Y-122057444D01*
X88798127Y-121892056D01*
X88857142Y-121710428D01*
X88877104Y-121520500D01*
X88857142Y-121330572D01*
X88798127Y-121148944D01*
X88702640Y-120983556D01*
X88649216Y-120924223D01*
X88618988Y-120861232D01*
X88623436Y-120802935D01*
X88654242Y-120708128D01*
X88674204Y-120518200D01*
X88654242Y-120328272D01*
X88595227Y-120146644D01*
X88499740Y-119981256D01*
X88371953Y-119839334D01*
X88217452Y-119727082D01*
X88042988Y-119649406D01*
X88042986Y-119649405D01*
X87856187Y-119609700D01*
X87665213Y-119609700D01*
X87478414Y-119649405D01*
X87303946Y-119727083D01*
X87149445Y-119839335D01*
X87021659Y-119981257D01*
X86926173Y-120146643D01*
X86926170Y-120146650D01*
X86867159Y-120328268D01*
X86867158Y-120328272D01*
X86858714Y-120408617D01*
X86832129Y-120473231D01*
X86774832Y-120513216D01*
X86705013Y-120515876D01*
X86684961Y-120508936D01*
X86546088Y-120447106D01*
X86546086Y-120447105D01*
X86359287Y-120407400D01*
X86168313Y-120407400D01*
X85981514Y-120447105D01*
X85922834Y-120473231D01*
X85821832Y-120518200D01*
X85807046Y-120524783D01*
X85652545Y-120637035D01*
X85524759Y-120778957D01*
X85429273Y-120944343D01*
X85429270Y-120944350D01*
X85370259Y-121125968D01*
X85370258Y-121125972D01*
X85352819Y-121291896D01*
X85326234Y-121356510D01*
X85317179Y-121366615D01*
X84334315Y-122349480D01*
X82042834Y-124640962D01*
X81575114Y-125108682D01*
X81513791Y-125142167D01*
X81487433Y-125145001D01*
X76022500Y-125145001D01*
X75955461Y-125125316D01*
X75909706Y-125072512D01*
X75898500Y-125021001D01*
X75898500Y-110380266D01*
X75918185Y-110313227D01*
X75934819Y-110292585D01*
X83254219Y-102973185D01*
X83315542Y-102939700D01*
X83385234Y-102944684D01*
G37*
G04 #@! TD.AperFunction*
G04 #@! TA.AperFunction,Conductor*
G36*
X97428486Y-99167830D02*
G01*
X97472833Y-99196331D01*
X97580700Y-99304198D01*
X97768251Y-99435523D01*
X97893091Y-99493736D01*
X97975750Y-99532281D01*
X97975752Y-99532281D01*
X97975757Y-99532284D01*
X98196913Y-99591543D01*
X98359832Y-99605796D01*
X98424998Y-99611498D01*
X98425000Y-99611498D01*
X98425002Y-99611498D01*
X98482021Y-99606509D01*
X98653087Y-99591543D01*
X98761308Y-99562545D01*
X98831156Y-99564208D01*
X98889019Y-99603370D01*
X98916523Y-99667598D01*
X98917400Y-99682320D01*
X98917400Y-112255833D01*
X98897715Y-112322872D01*
X98881080Y-112343514D01*
X94661167Y-116563429D01*
X94617047Y-116607549D01*
X94572927Y-116651668D01*
X94503603Y-116755418D01*
X94503598Y-116755427D01*
X94455845Y-116870714D01*
X94455843Y-116870722D01*
X94431500Y-116993101D01*
X94431500Y-125021001D01*
X94411815Y-125088040D01*
X94359011Y-125133795D01*
X94307500Y-125145001D01*
X91862500Y-125145001D01*
X91795461Y-125125316D01*
X91749706Y-125072512D01*
X91738500Y-125021001D01*
X91738500Y-120124105D01*
X91738499Y-120124101D01*
X91714156Y-120001722D01*
X91714155Y-120001715D01*
X91666400Y-119886425D01*
X91666399Y-119886424D01*
X91666396Y-119886418D01*
X91597072Y-119782668D01*
X91597071Y-119782667D01*
X91508833Y-119694429D01*
X85470119Y-113655715D01*
X85436634Y-113594392D01*
X85433800Y-113568034D01*
X85433800Y-113439905D01*
X85433799Y-113439901D01*
X85422899Y-113385104D01*
X85409455Y-113317515D01*
X85361700Y-113202225D01*
X85361699Y-113202224D01*
X85361696Y-113202218D01*
X85292372Y-113098468D01*
X85254205Y-113060301D01*
X85204133Y-113010229D01*
X84769219Y-112575315D01*
X84735734Y-112513992D01*
X84732900Y-112487634D01*
X84732900Y-102606182D01*
X84752585Y-102539143D01*
X84805389Y-102493388D01*
X84874547Y-102483444D01*
X84929781Y-102505862D01*
X85081948Y-102616418D01*
X85256412Y-102694094D01*
X85443213Y-102733800D01*
X85634187Y-102733800D01*
X85820988Y-102694094D01*
X85995452Y-102616418D01*
X86149953Y-102504166D01*
X86153860Y-102499827D01*
X86213346Y-102463179D01*
X86246009Y-102458800D01*
X93834995Y-102458800D01*
X93834996Y-102458799D01*
X93957385Y-102434455D01*
X94072675Y-102386700D01*
X94176433Y-102317371D01*
X97297473Y-99196329D01*
X97358794Y-99162846D01*
X97428486Y-99167830D01*
G37*
G04 #@! TD.AperFunction*
G04 #@! TA.AperFunction,Conductor*
G36*
X104833918Y-98881298D02*
G01*
X104889851Y-98923170D01*
X104902965Y-98945074D01*
X104907477Y-98954749D01*
X105038802Y-99142300D01*
X105200700Y-99304198D01*
X105358625Y-99414779D01*
X105402249Y-99469354D01*
X105411500Y-99516352D01*
X105411500Y-125021001D01*
X105391815Y-125088040D01*
X105339011Y-125133795D01*
X105287500Y-125145001D01*
X101640133Y-125145001D01*
X101573094Y-125125316D01*
X101527339Y-125072512D01*
X101517395Y-125003354D01*
X101532746Y-124959001D01*
X101547573Y-124933320D01*
X101575727Y-124884556D01*
X101634742Y-124702928D01*
X101654704Y-124513000D01*
X101634742Y-124323072D01*
X101575727Y-124141444D01*
X101480240Y-123976056D01*
X101352453Y-123834134D01*
X101197952Y-123721882D01*
X101023488Y-123644206D01*
X101023486Y-123644205D01*
X100836687Y-123604500D01*
X100758600Y-123604500D01*
X100691561Y-123584815D01*
X100645806Y-123532011D01*
X100634600Y-123480500D01*
X100634600Y-103029465D01*
X100654285Y-102962426D01*
X100670914Y-102941789D01*
X104702905Y-98909797D01*
X104764226Y-98876314D01*
X104833918Y-98881298D01*
G37*
G04 #@! TD.AperFunction*
G04 #@! TA.AperFunction,Conductor*
G36*
X78975000Y-84126661D02*
G01*
X79002259Y-84228394D01*
X79054920Y-84319606D01*
X79129394Y-84394080D01*
X79220606Y-84446741D01*
X79322339Y-84474000D01*
X79328553Y-84474000D01*
X78926173Y-84876379D01*
X78864850Y-84909864D01*
X78862683Y-84910315D01*
X78748422Y-84933043D01*
X78748414Y-84933045D01*
X78633127Y-84980798D01*
X78633118Y-84980803D01*
X78529367Y-85050128D01*
X78529363Y-85050131D01*
X77934767Y-85644729D01*
X77934766Y-85644730D01*
X77850385Y-85729109D01*
X77789062Y-85762594D01*
X77719370Y-85757608D01*
X77675024Y-85729108D01*
X77622003Y-85676087D01*
X77510485Y-85598001D01*
X77447180Y-85553674D01*
X77447176Y-85553672D01*
X77253761Y-85463481D01*
X77248661Y-85461625D01*
X77249146Y-85460291D01*
X77195200Y-85427410D01*
X77164671Y-85364564D01*
X77172965Y-85295188D01*
X77217451Y-85241310D01*
X77248873Y-85226959D01*
X77248661Y-85226375D01*
X77253746Y-85224523D01*
X77253755Y-85224521D01*
X77447180Y-85134326D01*
X77622003Y-85011913D01*
X77772913Y-84861003D01*
X77895326Y-84686180D01*
X77985521Y-84492755D01*
X77989623Y-84477444D01*
X78025986Y-84417783D01*
X78088832Y-84387252D01*
X78158208Y-84395544D01*
X78212087Y-84440028D01*
X78229174Y-84477440D01*
X78232494Y-84489831D01*
X78232497Y-84489838D01*
X78322062Y-84681912D01*
X78322063Y-84681914D01*
X78359733Y-84735712D01*
X78359734Y-84735713D01*
X78975000Y-84120447D01*
X78975000Y-84126661D01*
G37*
G04 #@! TD.AperFunction*
G04 #@! TA.AperFunction,Conductor*
G36*
X78102520Y-81698795D02*
G01*
X78158454Y-81740666D01*
X78178962Y-81782884D01*
X78224476Y-81952747D01*
X78224481Y-81952761D01*
X78312684Y-82141912D01*
X78314674Y-82146180D01*
X78437087Y-82321003D01*
X78587997Y-82471913D01*
X78762820Y-82594326D01*
X78813414Y-82617918D01*
X78956238Y-82684518D01*
X78956240Y-82684519D01*
X78956245Y-82684521D01*
X78971557Y-82688624D01*
X79031217Y-82724987D01*
X79061748Y-82787833D01*
X79053454Y-82857209D01*
X79008970Y-82911088D01*
X78971561Y-82928173D01*
X78959173Y-82931492D01*
X78959161Y-82931497D01*
X78767088Y-83021062D01*
X78713286Y-83058733D01*
X79328553Y-83674000D01*
X79322339Y-83674000D01*
X79220606Y-83701259D01*
X79129394Y-83753920D01*
X79054920Y-83828394D01*
X79002259Y-83919606D01*
X78975000Y-84021339D01*
X78975000Y-84027553D01*
X78359733Y-83412286D01*
X78322062Y-83466088D01*
X78232497Y-83658161D01*
X78232492Y-83658173D01*
X78229173Y-83670561D01*
X78192807Y-83730221D01*
X78129959Y-83760749D01*
X78060584Y-83752452D01*
X78006707Y-83707966D01*
X77989624Y-83670559D01*
X77985521Y-83655245D01*
X77895326Y-83461821D01*
X77895324Y-83461818D01*
X77895323Y-83461816D01*
X77772916Y-83287001D01*
X77772911Y-83286995D01*
X77622006Y-83136090D01*
X77622004Y-83136088D01*
X77622003Y-83136087D01*
X77594166Y-83116595D01*
X77521375Y-83065625D01*
X77477751Y-83011048D01*
X77468500Y-82964051D01*
X77468500Y-82281665D01*
X77488185Y-82214626D01*
X77504815Y-82193988D01*
X77971508Y-81727294D01*
X78032829Y-81693811D01*
X78102520Y-81698795D01*
G37*
G04 #@! TD.AperFunction*
G04 #@! TA.AperFunction,Conductor*
G36*
X81515000Y-81586661D02*
G01*
X81542259Y-81688394D01*
X81594920Y-81779606D01*
X81669394Y-81854080D01*
X81760606Y-81906741D01*
X81862339Y-81934000D01*
X81868553Y-81934000D01*
X81253285Y-82549265D01*
X81307087Y-82586937D01*
X81373525Y-82617918D01*
X81425964Y-82664091D01*
X81445116Y-82731284D01*
X81424900Y-82798165D01*
X81371735Y-82843500D01*
X81321120Y-82854300D01*
X81155145Y-82854300D01*
X81094597Y-82860811D01*
X81094595Y-82860811D01*
X80957595Y-82911911D01*
X80840539Y-82999539D01*
X80752911Y-83116595D01*
X80701811Y-83253595D01*
X80701811Y-83253597D01*
X80695300Y-83314145D01*
X80695300Y-83480121D01*
X80675615Y-83547160D01*
X80622811Y-83592915D01*
X80553653Y-83602859D01*
X80490097Y-83573834D01*
X80458918Y-83532526D01*
X80427934Y-83466083D01*
X80390266Y-83412286D01*
X80390265Y-83412285D01*
X79775000Y-84027551D01*
X79775000Y-84021339D01*
X79747741Y-83919606D01*
X79695080Y-83828394D01*
X79620606Y-83753920D01*
X79529394Y-83701259D01*
X79427661Y-83674000D01*
X79421448Y-83674000D01*
X80036713Y-83058734D01*
X80036712Y-83058733D01*
X79982914Y-83021063D01*
X79982912Y-83021062D01*
X79790838Y-82931497D01*
X79790831Y-82931494D01*
X79778440Y-82928174D01*
X79718779Y-82891808D01*
X79688251Y-82828961D01*
X79696546Y-82759586D01*
X79741032Y-82705708D01*
X79778443Y-82688623D01*
X79793755Y-82684521D01*
X79987180Y-82594326D01*
X80162003Y-82471913D01*
X80312913Y-82321003D01*
X80435326Y-82146180D01*
X80525521Y-81952755D01*
X80529623Y-81937444D01*
X80565986Y-81877783D01*
X80628832Y-81847252D01*
X80698208Y-81855544D01*
X80752087Y-81900028D01*
X80769174Y-81937440D01*
X80772494Y-81949831D01*
X80772497Y-81949838D01*
X80862062Y-82141912D01*
X80862063Y-82141914D01*
X80899733Y-82195712D01*
X80899734Y-82195713D01*
X81515000Y-81580447D01*
X81515000Y-81586661D01*
G37*
G04 #@! TD.AperFunction*
G04 #@! TA.AperFunction,Conductor*
G36*
X82930266Y-82195713D02*
G01*
X82967935Y-82141917D01*
X82967937Y-82141913D01*
X83057502Y-81949838D01*
X83057506Y-81949828D01*
X83060824Y-81937446D01*
X83097186Y-81877784D01*
X83160031Y-81847252D01*
X83229407Y-81855543D01*
X83283287Y-81900026D01*
X83300374Y-81937439D01*
X83304474Y-81952741D01*
X83304481Y-81952761D01*
X83392684Y-82141912D01*
X83394674Y-82146180D01*
X83517087Y-82321003D01*
X83667997Y-82471913D01*
X83842820Y-82594326D01*
X83893414Y-82617918D01*
X84036238Y-82684518D01*
X84036240Y-82684518D01*
X84036245Y-82684521D01*
X84036249Y-82684522D01*
X84041339Y-82686375D01*
X84040854Y-82687707D01*
X84094804Y-82720595D01*
X84125329Y-82783444D01*
X84117031Y-82852819D01*
X84072542Y-82906694D01*
X84041126Y-82921041D01*
X84041339Y-82921625D01*
X84036247Y-82923478D01*
X84036245Y-82923479D01*
X84036243Y-82923480D01*
X83842820Y-83013674D01*
X83842816Y-83013676D01*
X83668001Y-83136083D01*
X83667995Y-83136088D01*
X83517088Y-83286995D01*
X83517083Y-83287001D01*
X83394676Y-83461816D01*
X83394674Y-83461821D01*
X83371082Y-83512414D01*
X83324909Y-83564853D01*
X83257716Y-83584005D01*
X83190834Y-83563789D01*
X83145500Y-83510623D01*
X83134700Y-83460009D01*
X83134700Y-83314162D01*
X83134699Y-83314145D01*
X83131357Y-83283070D01*
X83128189Y-83253599D01*
X83077089Y-83116596D01*
X82989461Y-82999539D01*
X82872404Y-82911911D01*
X82735403Y-82860811D01*
X82674854Y-82854300D01*
X82674838Y-82854300D01*
X82508880Y-82854300D01*
X82441841Y-82834615D01*
X82396086Y-82781811D01*
X82386142Y-82712653D01*
X82415167Y-82649097D01*
X82456476Y-82617918D01*
X82522909Y-82586939D01*
X82522917Y-82586935D01*
X82576713Y-82549266D01*
X81961448Y-81934000D01*
X81967661Y-81934000D01*
X82069394Y-81906741D01*
X82160606Y-81854080D01*
X82235080Y-81779606D01*
X82287741Y-81688394D01*
X82315000Y-81586661D01*
X82315000Y-81580447D01*
X82930266Y-82195713D01*
G37*
G04 #@! TD.AperFunction*
M02*
