%TF.GenerationSoftware,KiCad,Pcbnew,(6.0.9)*%
%TF.CreationDate,2023-08-06T15:37:21+02:00*%
%TF.ProjectId,dipswitch-plate,64697073-7769-4746-9368-2d706c617465,rev?*%
%TF.SameCoordinates,Original*%
%TF.FileFunction,Copper,L1,Top*%
%TF.FilePolarity,Positive*%
%FSLAX46Y46*%
G04 Gerber Fmt 4.6, Leading zero omitted, Abs format (unit mm)*
G04 Created by KiCad (PCBNEW (6.0.9)) date 2023-08-06 15:37:21*
%MOMM*%
%LPD*%
G01*
G04 APERTURE LIST*
%TA.AperFunction,ComponentPad*%
%ADD10O,1.600000X1.600000*%
%TD*%
%TA.AperFunction,ComponentPad*%
%ADD11R,1.600000X1.600000*%
%TD*%
%TA.AperFunction,ComponentPad*%
%ADD12O,1.700000X1.700000*%
%TD*%
%TA.AperFunction,ComponentPad*%
%ADD13R,1.700000X1.700000*%
%TD*%
%TA.AperFunction,Conductor*%
%ADD14C,0.250000*%
%TD*%
G04 APERTURE END LIST*
D10*
%TO.P,SW1,10*%
%TO.N,VCC*%
X24026000Y-19874350D03*
%TO.P,SW1,5*%
%TO.N,Net-(J1-Pad2)*%
X34186000Y-27494350D03*
%TO.P,SW1,9*%
%TO.N,VCC*%
X26566000Y-19874350D03*
%TO.P,SW1,4*%
%TO.N,Net-(J1-Pad3)*%
X31646000Y-27494350D03*
%TO.P,SW1,8*%
%TO.N,VCC*%
X29106000Y-19874350D03*
%TO.P,SW1,3*%
%TO.N,Net-(J1-Pad4)*%
X29106000Y-27494350D03*
%TO.P,SW1,7*%
%TO.N,VCC*%
X31646000Y-19874350D03*
%TO.P,SW1,2*%
%TO.N,Net-(J1-Pad5)*%
X26566000Y-27494350D03*
%TO.P,SW1,6*%
%TO.N,VCC*%
X34186000Y-19874350D03*
D11*
%TO.P,SW1,1*%
%TO.N,Net-(J1-Pad6)*%
X24026000Y-27494350D03*
%TD*%
D12*
%TO.P,J1,6*%
%TO.N,Net-(J1-Pad6)*%
X22676000Y-30994350D03*
%TO.P,J1,5*%
%TO.N,Net-(J1-Pad5)*%
X25216000Y-30994350D03*
%TO.P,J1,4*%
%TO.N,Net-(J1-Pad4)*%
X27756000Y-30994350D03*
%TO.P,J1,3*%
%TO.N,Net-(J1-Pad3)*%
X30296000Y-30994350D03*
%TO.P,J1,2*%
%TO.N,Net-(J1-Pad2)*%
X32836000Y-30994350D03*
D13*
%TO.P,J1,1*%
%TO.N,VCC*%
X35376000Y-30994350D03*
%TD*%
D14*
%TO.N,VCC*%
X26566000Y-19874350D02*
X24026000Y-19874350D01*
X29106000Y-19874350D02*
X26566000Y-19874350D01*
X31646000Y-19874350D02*
X29106000Y-19874350D01*
X34186000Y-19874350D02*
X31646000Y-19874350D01*
%TD*%
%TA.AperFunction,NonConductor*%
G36*
X25913352Y-18522852D02*
G01*
X25959845Y-18576508D01*
X25969949Y-18646782D01*
X25940455Y-18711362D01*
X25910089Y-18736436D01*
X25909251Y-18736827D01*
X25904744Y-18739983D01*
X25904742Y-18739984D01*
X25726211Y-18864993D01*
X25726208Y-18864995D01*
X25721700Y-18868152D01*
X25559802Y-19030050D01*
X25556645Y-19034558D01*
X25556643Y-19034561D01*
X25449819Y-19187121D01*
X25394362Y-19231449D01*
X25346606Y-19240850D01*
X25245394Y-19240850D01*
X25177273Y-19220848D01*
X25142181Y-19187121D01*
X25035357Y-19034561D01*
X25035355Y-19034558D01*
X25032198Y-19030050D01*
X24870300Y-18868152D01*
X24865792Y-18864995D01*
X24865789Y-18864993D01*
X24687258Y-18739984D01*
X24687256Y-18739983D01*
X24682749Y-18736827D01*
X24682621Y-18736767D01*
X24634774Y-18686584D01*
X24621340Y-18616870D01*
X24647728Y-18550959D01*
X24705561Y-18509779D01*
X24746769Y-18502850D01*
X25845231Y-18502850D01*
X25913352Y-18522852D01*
G37*
%TD.AperFunction*%
%TA.AperFunction,NonConductor*%
G36*
X28453352Y-18522852D02*
G01*
X28499845Y-18576508D01*
X28509949Y-18646782D01*
X28480455Y-18711362D01*
X28450089Y-18736436D01*
X28449251Y-18736827D01*
X28444744Y-18739983D01*
X28444742Y-18739984D01*
X28266211Y-18864993D01*
X28266208Y-18864995D01*
X28261700Y-18868152D01*
X28099802Y-19030050D01*
X28096645Y-19034558D01*
X28096643Y-19034561D01*
X27989819Y-19187121D01*
X27934362Y-19231449D01*
X27886606Y-19240850D01*
X27785394Y-19240850D01*
X27717273Y-19220848D01*
X27682181Y-19187121D01*
X27575357Y-19034561D01*
X27575355Y-19034558D01*
X27572198Y-19030050D01*
X27410300Y-18868152D01*
X27405792Y-18864995D01*
X27405789Y-18864993D01*
X27227258Y-18739984D01*
X27227256Y-18739983D01*
X27222749Y-18736827D01*
X27222621Y-18736767D01*
X27174774Y-18686584D01*
X27161340Y-18616870D01*
X27187728Y-18550959D01*
X27245561Y-18509779D01*
X27286769Y-18502850D01*
X28385231Y-18502850D01*
X28453352Y-18522852D01*
G37*
%TD.AperFunction*%
%TA.AperFunction,NonConductor*%
G36*
X30993352Y-18522852D02*
G01*
X31039845Y-18576508D01*
X31049949Y-18646782D01*
X31020455Y-18711362D01*
X30990089Y-18736436D01*
X30989251Y-18736827D01*
X30984744Y-18739983D01*
X30984742Y-18739984D01*
X30806211Y-18864993D01*
X30806208Y-18864995D01*
X30801700Y-18868152D01*
X30639802Y-19030050D01*
X30636645Y-19034558D01*
X30636643Y-19034561D01*
X30529819Y-19187121D01*
X30474362Y-19231449D01*
X30426606Y-19240850D01*
X30325394Y-19240850D01*
X30257273Y-19220848D01*
X30222181Y-19187121D01*
X30115357Y-19034561D01*
X30115355Y-19034558D01*
X30112198Y-19030050D01*
X29950300Y-18868152D01*
X29945792Y-18864995D01*
X29945789Y-18864993D01*
X29767258Y-18739984D01*
X29767256Y-18739983D01*
X29762749Y-18736827D01*
X29762621Y-18736767D01*
X29714774Y-18686584D01*
X29701340Y-18616870D01*
X29727728Y-18550959D01*
X29785561Y-18509779D01*
X29826769Y-18502850D01*
X30925231Y-18502850D01*
X30993352Y-18522852D01*
G37*
%TD.AperFunction*%
%TA.AperFunction,NonConductor*%
G36*
X33533352Y-18522852D02*
G01*
X33579845Y-18576508D01*
X33589949Y-18646782D01*
X33560455Y-18711362D01*
X33530089Y-18736436D01*
X33529251Y-18736827D01*
X33524744Y-18739983D01*
X33524742Y-18739984D01*
X33346211Y-18864993D01*
X33346208Y-18864995D01*
X33341700Y-18868152D01*
X33179802Y-19030050D01*
X33176645Y-19034558D01*
X33176643Y-19034561D01*
X33069819Y-19187121D01*
X33014362Y-19231449D01*
X32966606Y-19240850D01*
X32865394Y-19240850D01*
X32797273Y-19220848D01*
X32762181Y-19187121D01*
X32655357Y-19034561D01*
X32655355Y-19034558D01*
X32652198Y-19030050D01*
X32490300Y-18868152D01*
X32485792Y-18864995D01*
X32485789Y-18864993D01*
X32307258Y-18739984D01*
X32307256Y-18739983D01*
X32302749Y-18736827D01*
X32302621Y-18736767D01*
X32254774Y-18686584D01*
X32241340Y-18616870D01*
X32267728Y-18550959D01*
X32325561Y-18509779D01*
X32366769Y-18502850D01*
X33465231Y-18502850D01*
X33533352Y-18522852D01*
G37*
%TD.AperFunction*%
%TA.AperFunction,NonConductor*%
G36*
X33957268Y-31898942D02*
G01*
X34014030Y-31941588D01*
X34031012Y-31972691D01*
X34053201Y-32031879D01*
X34075385Y-32091055D01*
X34162739Y-32207611D01*
X34169919Y-32212992D01*
X34169920Y-32212993D01*
X34231339Y-32259024D01*
X34273854Y-32315883D01*
X34278880Y-32386702D01*
X34244820Y-32448995D01*
X34182489Y-32482985D01*
X34155774Y-32485850D01*
X33423160Y-32485850D01*
X33355039Y-32465848D01*
X33308546Y-32412192D01*
X33298442Y-32341918D01*
X33327936Y-32277338D01*
X33367728Y-32246699D01*
X33529346Y-32167523D01*
X33533994Y-32165246D01*
X33715860Y-32035523D01*
X33824091Y-31927669D01*
X33886462Y-31893754D01*
X33957268Y-31898942D01*
G37*
%TD.AperFunction*%
%TA.AperFunction,NonConductor*%
G36*
X31648026Y-31669494D02*
G01*
X31675875Y-31701344D01*
X31735987Y-31799438D01*
X31882250Y-31968288D01*
X32054126Y-32110982D01*
X32247000Y-32223688D01*
X32251825Y-32225530D01*
X32251826Y-32225531D01*
X32295321Y-32242140D01*
X32351824Y-32285128D01*
X32376117Y-32351839D01*
X32360487Y-32421093D01*
X32309896Y-32470904D01*
X32250372Y-32485850D01*
X30883160Y-32485850D01*
X30815039Y-32465848D01*
X30768546Y-32412192D01*
X30758442Y-32341918D01*
X30787936Y-32277338D01*
X30827728Y-32246699D01*
X30989346Y-32167523D01*
X30993994Y-32165246D01*
X31175860Y-32035523D01*
X31214400Y-31997118D01*
X31270124Y-31941588D01*
X31334096Y-31877839D01*
X31393594Y-31795039D01*
X31464453Y-31696427D01*
X31465776Y-31697378D01*
X31512645Y-31654207D01*
X31582580Y-31641975D01*
X31648026Y-31669494D01*
G37*
%TD.AperFunction*%
%TA.AperFunction,NonConductor*%
G36*
X29108026Y-31669494D02*
G01*
X29135875Y-31701344D01*
X29195987Y-31799438D01*
X29342250Y-31968288D01*
X29514126Y-32110982D01*
X29707000Y-32223688D01*
X29711825Y-32225530D01*
X29711826Y-32225531D01*
X29755321Y-32242140D01*
X29811824Y-32285128D01*
X29836117Y-32351839D01*
X29820487Y-32421093D01*
X29769896Y-32470904D01*
X29710372Y-32485850D01*
X28343160Y-32485850D01*
X28275039Y-32465848D01*
X28228546Y-32412192D01*
X28218442Y-32341918D01*
X28247936Y-32277338D01*
X28287728Y-32246699D01*
X28449346Y-32167523D01*
X28453994Y-32165246D01*
X28635860Y-32035523D01*
X28674400Y-31997118D01*
X28730124Y-31941588D01*
X28794096Y-31877839D01*
X28853594Y-31795039D01*
X28924453Y-31696427D01*
X28925776Y-31697378D01*
X28972645Y-31654207D01*
X29042580Y-31641975D01*
X29108026Y-31669494D01*
G37*
%TD.AperFunction*%
%TA.AperFunction,NonConductor*%
G36*
X26568026Y-31669494D02*
G01*
X26595875Y-31701344D01*
X26655987Y-31799438D01*
X26802250Y-31968288D01*
X26974126Y-32110982D01*
X27167000Y-32223688D01*
X27171825Y-32225530D01*
X27171826Y-32225531D01*
X27215321Y-32242140D01*
X27271824Y-32285128D01*
X27296117Y-32351839D01*
X27280487Y-32421093D01*
X27229896Y-32470904D01*
X27170372Y-32485850D01*
X25803160Y-32485850D01*
X25735039Y-32465848D01*
X25688546Y-32412192D01*
X25678442Y-32341918D01*
X25707936Y-32277338D01*
X25747728Y-32246699D01*
X25909346Y-32167523D01*
X25913994Y-32165246D01*
X26095860Y-32035523D01*
X26134400Y-31997118D01*
X26190124Y-31941588D01*
X26254096Y-31877839D01*
X26313594Y-31795039D01*
X26384453Y-31696427D01*
X26385776Y-31697378D01*
X26432645Y-31654207D01*
X26502580Y-31641975D01*
X26568026Y-31669494D01*
G37*
%TD.AperFunction*%
%TA.AperFunction,NonConductor*%
G36*
X24028026Y-31669494D02*
G01*
X24055875Y-31701344D01*
X24115987Y-31799438D01*
X24262250Y-31968288D01*
X24434126Y-32110982D01*
X24627000Y-32223688D01*
X24631825Y-32225530D01*
X24631826Y-32225531D01*
X24675321Y-32242140D01*
X24731824Y-32285128D01*
X24756117Y-32351839D01*
X24740487Y-32421093D01*
X24689896Y-32470904D01*
X24630372Y-32485850D01*
X23263160Y-32485850D01*
X23195039Y-32465848D01*
X23148546Y-32412192D01*
X23138442Y-32341918D01*
X23167936Y-32277338D01*
X23207728Y-32246699D01*
X23369346Y-32167523D01*
X23373994Y-32165246D01*
X23555860Y-32035523D01*
X23594400Y-31997118D01*
X23650124Y-31941588D01*
X23714096Y-31877839D01*
X23773594Y-31795039D01*
X23844453Y-31696427D01*
X23845776Y-31697378D01*
X23892645Y-31654207D01*
X23962580Y-31641975D01*
X24028026Y-31669494D01*
G37*
%TD.AperFunction*%
%TA.AperFunction,NonConductor*%
G36*
X23373352Y-18522852D02*
G01*
X23419845Y-18576508D01*
X23429949Y-18646782D01*
X23400455Y-18711362D01*
X23370089Y-18736436D01*
X23369251Y-18736827D01*
X23364744Y-18739983D01*
X23364742Y-18739984D01*
X23186211Y-18864993D01*
X23186208Y-18864995D01*
X23181700Y-18868152D01*
X23019802Y-19030050D01*
X23016645Y-19034558D01*
X23016643Y-19034561D01*
X23007513Y-19047600D01*
X22888477Y-19217601D01*
X22886154Y-19222583D01*
X22886151Y-19222588D01*
X22794039Y-19420125D01*
X22791716Y-19425107D01*
X22732457Y-19646263D01*
X22712502Y-19874350D01*
X22732457Y-20102437D01*
X22791716Y-20323593D01*
X22794039Y-20328574D01*
X22794039Y-20328575D01*
X22886151Y-20526112D01*
X22886154Y-20526117D01*
X22888477Y-20531099D01*
X23019802Y-20718650D01*
X23181700Y-20880548D01*
X23186208Y-20883705D01*
X23186211Y-20883707D01*
X23264389Y-20938448D01*
X23369251Y-21011873D01*
X23374233Y-21014196D01*
X23374238Y-21014199D01*
X23571775Y-21106311D01*
X23576757Y-21108634D01*
X23582065Y-21110056D01*
X23582067Y-21110057D01*
X23792598Y-21166469D01*
X23792600Y-21166469D01*
X23797913Y-21167893D01*
X24026000Y-21187848D01*
X24254087Y-21167893D01*
X24259400Y-21166469D01*
X24259402Y-21166469D01*
X24469933Y-21110057D01*
X24469935Y-21110056D01*
X24475243Y-21108634D01*
X24480225Y-21106311D01*
X24677762Y-21014199D01*
X24677767Y-21014196D01*
X24682749Y-21011873D01*
X24787611Y-20938448D01*
X24865789Y-20883707D01*
X24865792Y-20883705D01*
X24870300Y-20880548D01*
X25032198Y-20718650D01*
X25142181Y-20561579D01*
X25197638Y-20517251D01*
X25245394Y-20507850D01*
X25346606Y-20507850D01*
X25414727Y-20527852D01*
X25449819Y-20561579D01*
X25559802Y-20718650D01*
X25721700Y-20880548D01*
X25726208Y-20883705D01*
X25726211Y-20883707D01*
X25804389Y-20938448D01*
X25909251Y-21011873D01*
X25914233Y-21014196D01*
X25914238Y-21014199D01*
X26111775Y-21106311D01*
X26116757Y-21108634D01*
X26122065Y-21110056D01*
X26122067Y-21110057D01*
X26332598Y-21166469D01*
X26332600Y-21166469D01*
X26337913Y-21167893D01*
X26566000Y-21187848D01*
X26794087Y-21167893D01*
X26799400Y-21166469D01*
X26799402Y-21166469D01*
X27009933Y-21110057D01*
X27009935Y-21110056D01*
X27015243Y-21108634D01*
X27020225Y-21106311D01*
X27217762Y-21014199D01*
X27217767Y-21014196D01*
X27222749Y-21011873D01*
X27327611Y-20938448D01*
X27405789Y-20883707D01*
X27405792Y-20883705D01*
X27410300Y-20880548D01*
X27572198Y-20718650D01*
X27682181Y-20561579D01*
X27737638Y-20517251D01*
X27785394Y-20507850D01*
X27886606Y-20507850D01*
X27954727Y-20527852D01*
X27989819Y-20561579D01*
X28099802Y-20718650D01*
X28261700Y-20880548D01*
X28266208Y-20883705D01*
X28266211Y-20883707D01*
X28344389Y-20938448D01*
X28449251Y-21011873D01*
X28454233Y-21014196D01*
X28454238Y-21014199D01*
X28651775Y-21106311D01*
X28656757Y-21108634D01*
X28662065Y-21110056D01*
X28662067Y-21110057D01*
X28872598Y-21166469D01*
X28872600Y-21166469D01*
X28877913Y-21167893D01*
X29106000Y-21187848D01*
X29334087Y-21167893D01*
X29339400Y-21166469D01*
X29339402Y-21166469D01*
X29549933Y-21110057D01*
X29549935Y-21110056D01*
X29555243Y-21108634D01*
X29560225Y-21106311D01*
X29757762Y-21014199D01*
X29757767Y-21014196D01*
X29762749Y-21011873D01*
X29867611Y-20938448D01*
X29945789Y-20883707D01*
X29945792Y-20883705D01*
X29950300Y-20880548D01*
X30112198Y-20718650D01*
X30222181Y-20561579D01*
X30277638Y-20517251D01*
X30325394Y-20507850D01*
X30426606Y-20507850D01*
X30494727Y-20527852D01*
X30529819Y-20561579D01*
X30639802Y-20718650D01*
X30801700Y-20880548D01*
X30806208Y-20883705D01*
X30806211Y-20883707D01*
X30884389Y-20938448D01*
X30989251Y-21011873D01*
X30994233Y-21014196D01*
X30994238Y-21014199D01*
X31191775Y-21106311D01*
X31196757Y-21108634D01*
X31202065Y-21110056D01*
X31202067Y-21110057D01*
X31412598Y-21166469D01*
X31412600Y-21166469D01*
X31417913Y-21167893D01*
X31646000Y-21187848D01*
X31874087Y-21167893D01*
X31879400Y-21166469D01*
X31879402Y-21166469D01*
X32089933Y-21110057D01*
X32089935Y-21110056D01*
X32095243Y-21108634D01*
X32100225Y-21106311D01*
X32297762Y-21014199D01*
X32297767Y-21014196D01*
X32302749Y-21011873D01*
X32407611Y-20938448D01*
X32485789Y-20883707D01*
X32485792Y-20883705D01*
X32490300Y-20880548D01*
X32652198Y-20718650D01*
X32762181Y-20561579D01*
X32817638Y-20517251D01*
X32865394Y-20507850D01*
X32966606Y-20507850D01*
X33034727Y-20527852D01*
X33069819Y-20561579D01*
X33179802Y-20718650D01*
X33341700Y-20880548D01*
X33346208Y-20883705D01*
X33346211Y-20883707D01*
X33424389Y-20938448D01*
X33529251Y-21011873D01*
X33534233Y-21014196D01*
X33534238Y-21014199D01*
X33731775Y-21106311D01*
X33736757Y-21108634D01*
X33742065Y-21110056D01*
X33742067Y-21110057D01*
X33952598Y-21166469D01*
X33952600Y-21166469D01*
X33957913Y-21167893D01*
X34186000Y-21187848D01*
X34414087Y-21167893D01*
X34419400Y-21166469D01*
X34419402Y-21166469D01*
X34629933Y-21110057D01*
X34629935Y-21110056D01*
X34635243Y-21108634D01*
X34640225Y-21106311D01*
X34837762Y-21014199D01*
X34837767Y-21014196D01*
X34842749Y-21011873D01*
X34947611Y-20938448D01*
X35025789Y-20883707D01*
X35025792Y-20883705D01*
X35030300Y-20880548D01*
X35192198Y-20718650D01*
X35323523Y-20531099D01*
X35325846Y-20526117D01*
X35325849Y-20526112D01*
X35417961Y-20328575D01*
X35417961Y-20328574D01*
X35420284Y-20323593D01*
X35479543Y-20102437D01*
X35499498Y-19874350D01*
X35479543Y-19646263D01*
X35420284Y-19425107D01*
X35417961Y-19420125D01*
X35325849Y-19222588D01*
X35325846Y-19222583D01*
X35323523Y-19217601D01*
X35204487Y-19047600D01*
X35195357Y-19034561D01*
X35195355Y-19034558D01*
X35192198Y-19030050D01*
X35030300Y-18868152D01*
X35025792Y-18864995D01*
X35025789Y-18864993D01*
X34847258Y-18739984D01*
X34847256Y-18739983D01*
X34842749Y-18736827D01*
X34842621Y-18736767D01*
X34794774Y-18686584D01*
X34781340Y-18616870D01*
X34807728Y-18550959D01*
X34865561Y-18509779D01*
X34906769Y-18502850D01*
X37976633Y-18502850D01*
X37996018Y-18504350D01*
X38010852Y-18506660D01*
X38010855Y-18506660D01*
X38019724Y-18508041D01*
X38028626Y-18506877D01*
X38028750Y-18506861D01*
X38059192Y-18506590D01*
X38121253Y-18513582D01*
X38148760Y-18519861D01*
X38225844Y-18546835D01*
X38251256Y-18559074D01*
X38320399Y-18602520D01*
X38342459Y-18620113D01*
X38400202Y-18677859D01*
X38417793Y-18699919D01*
X38461236Y-18769062D01*
X38473478Y-18794485D01*
X38500445Y-18871564D01*
X38506721Y-18899065D01*
X38513014Y-18954945D01*
X38513796Y-18970580D01*
X38513691Y-18979176D01*
X38512309Y-18988048D01*
X38513473Y-18996952D01*
X38516437Y-19019628D01*
X38517500Y-19035959D01*
X38517500Y-31945001D01*
X38516001Y-31964379D01*
X38512309Y-31988100D01*
X38513473Y-31996998D01*
X38513489Y-31997118D01*
X38513762Y-32027564D01*
X38507559Y-32082647D01*
X38506771Y-32089639D01*
X38500494Y-32117146D01*
X38473522Y-32194238D01*
X38461280Y-32219661D01*
X38417832Y-32288812D01*
X38400242Y-32310871D01*
X38383396Y-32327718D01*
X38342490Y-32368626D01*
X38320436Y-32386215D01*
X38266023Y-32420406D01*
X38251280Y-32429670D01*
X38225859Y-32441912D01*
X38148774Y-32468886D01*
X38121267Y-32475165D01*
X38065961Y-32481397D01*
X38050134Y-32481064D01*
X38050121Y-32482150D01*
X38041148Y-32482040D01*
X38032276Y-32480659D01*
X38023374Y-32481823D01*
X38023372Y-32481823D01*
X38008323Y-32483791D01*
X38000714Y-32484786D01*
X37984379Y-32485850D01*
X36596226Y-32485850D01*
X36528105Y-32465848D01*
X36481612Y-32412192D01*
X36471508Y-32341918D01*
X36501002Y-32277338D01*
X36520661Y-32259024D01*
X36582080Y-32212993D01*
X36582081Y-32212992D01*
X36589261Y-32207611D01*
X36676615Y-32091055D01*
X36727745Y-31954666D01*
X36734500Y-31892484D01*
X36734500Y-30096216D01*
X36727745Y-30034034D01*
X36676615Y-29897645D01*
X36589261Y-29781089D01*
X36472705Y-29693735D01*
X36336316Y-29642605D01*
X36274134Y-29635850D01*
X34477866Y-29635850D01*
X34415684Y-29642605D01*
X34279295Y-29693735D01*
X34162739Y-29781089D01*
X34075385Y-29897645D01*
X34072233Y-29906053D01*
X34030919Y-30016257D01*
X33988277Y-30073021D01*
X33921716Y-30097721D01*
X33852367Y-30082513D01*
X33819743Y-30056826D01*
X33769151Y-30001225D01*
X33769142Y-30001216D01*
X33765670Y-29997401D01*
X33761619Y-29994202D01*
X33761615Y-29994198D01*
X33594414Y-29862150D01*
X33594410Y-29862148D01*
X33590359Y-29858948D01*
X33394789Y-29750988D01*
X33389920Y-29749264D01*
X33389916Y-29749262D01*
X33189087Y-29678145D01*
X33189083Y-29678144D01*
X33184212Y-29676419D01*
X33179119Y-29675512D01*
X33179116Y-29675511D01*
X32969373Y-29638150D01*
X32969367Y-29638149D01*
X32964284Y-29637244D01*
X32890452Y-29636342D01*
X32746081Y-29634578D01*
X32746079Y-29634578D01*
X32740911Y-29634515D01*
X32520091Y-29668305D01*
X32307756Y-29737707D01*
X32109607Y-29840857D01*
X32105474Y-29843960D01*
X32105471Y-29843962D01*
X31935100Y-29971880D01*
X31930965Y-29974985D01*
X31891525Y-30016257D01*
X31837280Y-30073021D01*
X31776629Y-30136488D01*
X31669201Y-30293971D01*
X31614293Y-30338971D01*
X31543768Y-30347142D01*
X31480021Y-30315888D01*
X31459324Y-30291404D01*
X31378822Y-30166967D01*
X31378820Y-30166964D01*
X31376014Y-30162627D01*
X31225670Y-29997401D01*
X31221619Y-29994202D01*
X31221615Y-29994198D01*
X31054414Y-29862150D01*
X31054410Y-29862148D01*
X31050359Y-29858948D01*
X30854789Y-29750988D01*
X30849920Y-29749264D01*
X30849916Y-29749262D01*
X30649087Y-29678145D01*
X30649083Y-29678144D01*
X30644212Y-29676419D01*
X30639119Y-29675512D01*
X30639116Y-29675511D01*
X30429373Y-29638150D01*
X30429367Y-29638149D01*
X30424284Y-29637244D01*
X30350452Y-29636342D01*
X30206081Y-29634578D01*
X30206079Y-29634578D01*
X30200911Y-29634515D01*
X29980091Y-29668305D01*
X29767756Y-29737707D01*
X29569607Y-29840857D01*
X29565474Y-29843960D01*
X29565471Y-29843962D01*
X29395100Y-29971880D01*
X29390965Y-29974985D01*
X29351525Y-30016257D01*
X29297280Y-30073021D01*
X29236629Y-30136488D01*
X29129201Y-30293971D01*
X29074293Y-30338971D01*
X29003768Y-30347142D01*
X28940021Y-30315888D01*
X28919324Y-30291404D01*
X28838822Y-30166967D01*
X28838820Y-30166964D01*
X28836014Y-30162627D01*
X28685670Y-29997401D01*
X28681619Y-29994202D01*
X28681615Y-29994198D01*
X28514414Y-29862150D01*
X28514410Y-29862148D01*
X28510359Y-29858948D01*
X28314789Y-29750988D01*
X28309920Y-29749264D01*
X28309916Y-29749262D01*
X28109087Y-29678145D01*
X28109083Y-29678144D01*
X28104212Y-29676419D01*
X28099119Y-29675512D01*
X28099116Y-29675511D01*
X27889373Y-29638150D01*
X27889367Y-29638149D01*
X27884284Y-29637244D01*
X27810452Y-29636342D01*
X27666081Y-29634578D01*
X27666079Y-29634578D01*
X27660911Y-29634515D01*
X27440091Y-29668305D01*
X27227756Y-29737707D01*
X27029607Y-29840857D01*
X27025474Y-29843960D01*
X27025471Y-29843962D01*
X26855100Y-29971880D01*
X26850965Y-29974985D01*
X26811525Y-30016257D01*
X26757280Y-30073021D01*
X26696629Y-30136488D01*
X26589201Y-30293971D01*
X26534293Y-30338971D01*
X26463768Y-30347142D01*
X26400021Y-30315888D01*
X26379324Y-30291404D01*
X26298822Y-30166967D01*
X26298820Y-30166964D01*
X26296014Y-30162627D01*
X26145670Y-29997401D01*
X26141619Y-29994202D01*
X26141615Y-29994198D01*
X25974414Y-29862150D01*
X25974410Y-29862148D01*
X25970359Y-29858948D01*
X25774789Y-29750988D01*
X25769920Y-29749264D01*
X25769916Y-29749262D01*
X25569087Y-29678145D01*
X25569083Y-29678144D01*
X25564212Y-29676419D01*
X25559119Y-29675512D01*
X25559116Y-29675511D01*
X25349373Y-29638150D01*
X25349367Y-29638149D01*
X25344284Y-29637244D01*
X25270452Y-29636342D01*
X25126081Y-29634578D01*
X25126079Y-29634578D01*
X25120911Y-29634515D01*
X24900091Y-29668305D01*
X24687756Y-29737707D01*
X24489607Y-29840857D01*
X24485474Y-29843960D01*
X24485471Y-29843962D01*
X24315100Y-29971880D01*
X24310965Y-29974985D01*
X24271525Y-30016257D01*
X24217280Y-30073021D01*
X24156629Y-30136488D01*
X24049201Y-30293971D01*
X23994293Y-30338971D01*
X23923768Y-30347142D01*
X23860021Y-30315888D01*
X23839324Y-30291404D01*
X23758822Y-30166967D01*
X23758820Y-30166964D01*
X23756014Y-30162627D01*
X23605670Y-29997401D01*
X23601619Y-29994202D01*
X23601615Y-29994198D01*
X23434414Y-29862150D01*
X23434410Y-29862148D01*
X23430359Y-29858948D01*
X23234789Y-29750988D01*
X23229920Y-29749264D01*
X23229916Y-29749262D01*
X23029087Y-29678145D01*
X23029083Y-29678144D01*
X23024212Y-29676419D01*
X23019119Y-29675512D01*
X23019116Y-29675511D01*
X22809373Y-29638150D01*
X22809367Y-29638149D01*
X22804284Y-29637244D01*
X22730452Y-29636342D01*
X22586081Y-29634578D01*
X22586079Y-29634578D01*
X22580911Y-29634515D01*
X22360091Y-29668305D01*
X22147756Y-29737707D01*
X21949607Y-29840857D01*
X21945474Y-29843960D01*
X21945471Y-29843962D01*
X21775100Y-29971880D01*
X21770965Y-29974985D01*
X21731525Y-30016257D01*
X21677280Y-30073021D01*
X21616629Y-30136488D01*
X21490743Y-30321030D01*
X21396688Y-30523655D01*
X21336989Y-30738920D01*
X21313251Y-30961045D01*
X21326110Y-31184065D01*
X21327247Y-31189111D01*
X21327248Y-31189117D01*
X21351304Y-31295858D01*
X21375222Y-31401989D01*
X21459266Y-31608966D01*
X21496685Y-31670028D01*
X21573291Y-31795038D01*
X21575987Y-31799438D01*
X21722250Y-31968288D01*
X21894126Y-32110982D01*
X22087000Y-32223688D01*
X22091825Y-32225530D01*
X22091826Y-32225531D01*
X22135321Y-32242140D01*
X22191824Y-32285128D01*
X22216117Y-32351839D01*
X22200487Y-32421093D01*
X22149896Y-32470904D01*
X22090372Y-32485850D01*
X20075367Y-32485850D01*
X20055982Y-32484350D01*
X20041148Y-32482040D01*
X20041145Y-32482040D01*
X20032276Y-32480659D01*
X20023374Y-32481823D01*
X20023250Y-32481839D01*
X19992808Y-32482110D01*
X19930747Y-32475118D01*
X19903239Y-32468839D01*
X19846531Y-32448995D01*
X19826156Y-32441865D01*
X19800744Y-32429626D01*
X19731600Y-32386179D01*
X19709541Y-32368587D01*
X19651798Y-32310841D01*
X19634207Y-32288781D01*
X19591671Y-32221081D01*
X19590763Y-32219635D01*
X19578522Y-32194215D01*
X19569184Y-32167523D01*
X19551555Y-32117136D01*
X19545279Y-32089635D01*
X19538986Y-32033755D01*
X19538204Y-32018120D01*
X19538309Y-32009524D01*
X19539691Y-32000652D01*
X19535563Y-31969072D01*
X19534500Y-31952741D01*
X19534500Y-28342484D01*
X22717500Y-28342484D01*
X22724255Y-28404666D01*
X22775385Y-28541055D01*
X22862739Y-28657611D01*
X22979295Y-28744965D01*
X23115684Y-28796095D01*
X23177866Y-28802850D01*
X24874134Y-28802850D01*
X24936316Y-28796095D01*
X25072705Y-28744965D01*
X25189261Y-28657611D01*
X25276615Y-28541055D01*
X25327745Y-28404666D01*
X25328917Y-28393876D01*
X25329803Y-28391744D01*
X25330425Y-28389128D01*
X25330848Y-28389229D01*
X25356155Y-28328315D01*
X25414517Y-28287887D01*
X25485471Y-28285428D01*
X25546490Y-28321721D01*
X25553489Y-28330381D01*
X25556643Y-28334139D01*
X25559802Y-28338650D01*
X25721700Y-28500548D01*
X25726208Y-28503705D01*
X25726211Y-28503707D01*
X25767542Y-28532647D01*
X25909251Y-28631873D01*
X25914233Y-28634196D01*
X25914238Y-28634199D01*
X26111775Y-28726311D01*
X26116757Y-28728634D01*
X26122065Y-28730056D01*
X26122067Y-28730057D01*
X26332598Y-28786469D01*
X26332600Y-28786469D01*
X26337913Y-28787893D01*
X26566000Y-28807848D01*
X26794087Y-28787893D01*
X26799400Y-28786469D01*
X26799402Y-28786469D01*
X27009933Y-28730057D01*
X27009935Y-28730056D01*
X27015243Y-28728634D01*
X27020225Y-28726311D01*
X27217762Y-28634199D01*
X27217767Y-28634196D01*
X27222749Y-28631873D01*
X27364458Y-28532647D01*
X27405789Y-28503707D01*
X27405792Y-28503705D01*
X27410300Y-28500548D01*
X27572198Y-28338650D01*
X27703523Y-28151099D01*
X27705846Y-28146117D01*
X27705849Y-28146112D01*
X27721805Y-28111893D01*
X27768722Y-28058608D01*
X27836999Y-28039147D01*
X27904959Y-28059689D01*
X27950195Y-28111893D01*
X27966151Y-28146112D01*
X27966154Y-28146117D01*
X27968477Y-28151099D01*
X28099802Y-28338650D01*
X28261700Y-28500548D01*
X28266208Y-28503705D01*
X28266211Y-28503707D01*
X28307542Y-28532647D01*
X28449251Y-28631873D01*
X28454233Y-28634196D01*
X28454238Y-28634199D01*
X28651775Y-28726311D01*
X28656757Y-28728634D01*
X28662065Y-28730056D01*
X28662067Y-28730057D01*
X28872598Y-28786469D01*
X28872600Y-28786469D01*
X28877913Y-28787893D01*
X29106000Y-28807848D01*
X29334087Y-28787893D01*
X29339400Y-28786469D01*
X29339402Y-28786469D01*
X29549933Y-28730057D01*
X29549935Y-28730056D01*
X29555243Y-28728634D01*
X29560225Y-28726311D01*
X29757762Y-28634199D01*
X29757767Y-28634196D01*
X29762749Y-28631873D01*
X29904458Y-28532647D01*
X29945789Y-28503707D01*
X29945792Y-28503705D01*
X29950300Y-28500548D01*
X30112198Y-28338650D01*
X30243523Y-28151099D01*
X30245846Y-28146117D01*
X30245849Y-28146112D01*
X30261805Y-28111893D01*
X30308722Y-28058608D01*
X30376999Y-28039147D01*
X30444959Y-28059689D01*
X30490195Y-28111893D01*
X30506151Y-28146112D01*
X30506154Y-28146117D01*
X30508477Y-28151099D01*
X30639802Y-28338650D01*
X30801700Y-28500548D01*
X30806208Y-28503705D01*
X30806211Y-28503707D01*
X30847542Y-28532647D01*
X30989251Y-28631873D01*
X30994233Y-28634196D01*
X30994238Y-28634199D01*
X31191775Y-28726311D01*
X31196757Y-28728634D01*
X31202065Y-28730056D01*
X31202067Y-28730057D01*
X31412598Y-28786469D01*
X31412600Y-28786469D01*
X31417913Y-28787893D01*
X31646000Y-28807848D01*
X31874087Y-28787893D01*
X31879400Y-28786469D01*
X31879402Y-28786469D01*
X32089933Y-28730057D01*
X32089935Y-28730056D01*
X32095243Y-28728634D01*
X32100225Y-28726311D01*
X32297762Y-28634199D01*
X32297767Y-28634196D01*
X32302749Y-28631873D01*
X32444458Y-28532647D01*
X32485789Y-28503707D01*
X32485792Y-28503705D01*
X32490300Y-28500548D01*
X32652198Y-28338650D01*
X32783523Y-28151099D01*
X32785846Y-28146117D01*
X32785849Y-28146112D01*
X32801805Y-28111893D01*
X32848722Y-28058608D01*
X32916999Y-28039147D01*
X32984959Y-28059689D01*
X33030195Y-28111893D01*
X33046151Y-28146112D01*
X33046154Y-28146117D01*
X33048477Y-28151099D01*
X33179802Y-28338650D01*
X33341700Y-28500548D01*
X33346208Y-28503705D01*
X33346211Y-28503707D01*
X33387542Y-28532647D01*
X33529251Y-28631873D01*
X33534233Y-28634196D01*
X33534238Y-28634199D01*
X33731775Y-28726311D01*
X33736757Y-28728634D01*
X33742065Y-28730056D01*
X33742067Y-28730057D01*
X33952598Y-28786469D01*
X33952600Y-28786469D01*
X33957913Y-28787893D01*
X34186000Y-28807848D01*
X34414087Y-28787893D01*
X34419400Y-28786469D01*
X34419402Y-28786469D01*
X34629933Y-28730057D01*
X34629935Y-28730056D01*
X34635243Y-28728634D01*
X34640225Y-28726311D01*
X34837762Y-28634199D01*
X34837767Y-28634196D01*
X34842749Y-28631873D01*
X34984458Y-28532647D01*
X35025789Y-28503707D01*
X35025792Y-28503705D01*
X35030300Y-28500548D01*
X35192198Y-28338650D01*
X35323523Y-28151099D01*
X35325846Y-28146117D01*
X35325849Y-28146112D01*
X35417961Y-27948575D01*
X35417961Y-27948574D01*
X35420284Y-27943593D01*
X35479543Y-27722437D01*
X35499498Y-27494350D01*
X35479543Y-27266263D01*
X35420284Y-27045107D01*
X35341805Y-26876807D01*
X35325849Y-26842588D01*
X35325846Y-26842583D01*
X35323523Y-26837601D01*
X35192198Y-26650050D01*
X35030300Y-26488152D01*
X35025792Y-26484995D01*
X35025789Y-26484993D01*
X34947611Y-26430252D01*
X34842749Y-26356827D01*
X34837767Y-26354504D01*
X34837762Y-26354501D01*
X34640225Y-26262389D01*
X34640224Y-26262389D01*
X34635243Y-26260066D01*
X34629935Y-26258644D01*
X34629933Y-26258643D01*
X34419402Y-26202231D01*
X34419400Y-26202231D01*
X34414087Y-26200807D01*
X34186000Y-26180852D01*
X33957913Y-26200807D01*
X33952600Y-26202231D01*
X33952598Y-26202231D01*
X33742067Y-26258643D01*
X33742065Y-26258644D01*
X33736757Y-26260066D01*
X33731776Y-26262389D01*
X33731775Y-26262389D01*
X33534238Y-26354501D01*
X33534233Y-26354504D01*
X33529251Y-26356827D01*
X33424389Y-26430252D01*
X33346211Y-26484993D01*
X33346208Y-26484995D01*
X33341700Y-26488152D01*
X33179802Y-26650050D01*
X33048477Y-26837601D01*
X33046154Y-26842583D01*
X33046151Y-26842588D01*
X33030195Y-26876807D01*
X32983278Y-26930092D01*
X32915001Y-26949553D01*
X32847041Y-26929011D01*
X32801805Y-26876807D01*
X32785849Y-26842588D01*
X32785846Y-26842583D01*
X32783523Y-26837601D01*
X32652198Y-26650050D01*
X32490300Y-26488152D01*
X32485792Y-26484995D01*
X32485789Y-26484993D01*
X32407611Y-26430252D01*
X32302749Y-26356827D01*
X32297767Y-26354504D01*
X32297762Y-26354501D01*
X32100225Y-26262389D01*
X32100224Y-26262389D01*
X32095243Y-26260066D01*
X32089935Y-26258644D01*
X32089933Y-26258643D01*
X31879402Y-26202231D01*
X31879400Y-26202231D01*
X31874087Y-26200807D01*
X31646000Y-26180852D01*
X31417913Y-26200807D01*
X31412600Y-26202231D01*
X31412598Y-26202231D01*
X31202067Y-26258643D01*
X31202065Y-26258644D01*
X31196757Y-26260066D01*
X31191776Y-26262389D01*
X31191775Y-26262389D01*
X30994238Y-26354501D01*
X30994233Y-26354504D01*
X30989251Y-26356827D01*
X30884389Y-26430252D01*
X30806211Y-26484993D01*
X30806208Y-26484995D01*
X30801700Y-26488152D01*
X30639802Y-26650050D01*
X30508477Y-26837601D01*
X30506154Y-26842583D01*
X30506151Y-26842588D01*
X30490195Y-26876807D01*
X30443278Y-26930092D01*
X30375001Y-26949553D01*
X30307041Y-26929011D01*
X30261805Y-26876807D01*
X30245849Y-26842588D01*
X30245846Y-26842583D01*
X30243523Y-26837601D01*
X30112198Y-26650050D01*
X29950300Y-26488152D01*
X29945792Y-26484995D01*
X29945789Y-26484993D01*
X29867611Y-26430252D01*
X29762749Y-26356827D01*
X29757767Y-26354504D01*
X29757762Y-26354501D01*
X29560225Y-26262389D01*
X29560224Y-26262389D01*
X29555243Y-26260066D01*
X29549935Y-26258644D01*
X29549933Y-26258643D01*
X29339402Y-26202231D01*
X29339400Y-26202231D01*
X29334087Y-26200807D01*
X29106000Y-26180852D01*
X28877913Y-26200807D01*
X28872600Y-26202231D01*
X28872598Y-26202231D01*
X28662067Y-26258643D01*
X28662065Y-26258644D01*
X28656757Y-26260066D01*
X28651776Y-26262389D01*
X28651775Y-26262389D01*
X28454238Y-26354501D01*
X28454233Y-26354504D01*
X28449251Y-26356827D01*
X28344389Y-26430252D01*
X28266211Y-26484993D01*
X28266208Y-26484995D01*
X28261700Y-26488152D01*
X28099802Y-26650050D01*
X27968477Y-26837601D01*
X27966154Y-26842583D01*
X27966151Y-26842588D01*
X27950195Y-26876807D01*
X27903278Y-26930092D01*
X27835001Y-26949553D01*
X27767041Y-26929011D01*
X27721805Y-26876807D01*
X27705849Y-26842588D01*
X27705846Y-26842583D01*
X27703523Y-26837601D01*
X27572198Y-26650050D01*
X27410300Y-26488152D01*
X27405792Y-26484995D01*
X27405789Y-26484993D01*
X27327611Y-26430252D01*
X27222749Y-26356827D01*
X27217767Y-26354504D01*
X27217762Y-26354501D01*
X27020225Y-26262389D01*
X27020224Y-26262389D01*
X27015243Y-26260066D01*
X27009935Y-26258644D01*
X27009933Y-26258643D01*
X26799402Y-26202231D01*
X26799400Y-26202231D01*
X26794087Y-26200807D01*
X26566000Y-26180852D01*
X26337913Y-26200807D01*
X26332600Y-26202231D01*
X26332598Y-26202231D01*
X26122067Y-26258643D01*
X26122065Y-26258644D01*
X26116757Y-26260066D01*
X26111776Y-26262389D01*
X26111775Y-26262389D01*
X25914238Y-26354501D01*
X25914233Y-26354504D01*
X25909251Y-26356827D01*
X25804389Y-26430252D01*
X25726211Y-26484993D01*
X25726208Y-26484995D01*
X25721700Y-26488152D01*
X25559802Y-26650050D01*
X25556643Y-26654561D01*
X25553108Y-26658774D01*
X25551974Y-26657823D01*
X25501929Y-26697821D01*
X25431310Y-26705126D01*
X25367951Y-26673092D01*
X25331970Y-26611888D01*
X25328918Y-26594833D01*
X25327745Y-26584034D01*
X25276615Y-26447645D01*
X25189261Y-26331089D01*
X25072705Y-26243735D01*
X24936316Y-26192605D01*
X24874134Y-26185850D01*
X23177866Y-26185850D01*
X23115684Y-26192605D01*
X22979295Y-26243735D01*
X22862739Y-26331089D01*
X22775385Y-26447645D01*
X22724255Y-26584034D01*
X22717500Y-26646216D01*
X22717500Y-28342484D01*
X19534500Y-28342484D01*
X19534500Y-19047600D01*
X19536246Y-19026695D01*
X19538770Y-19011694D01*
X19538770Y-19011691D01*
X19539576Y-19006902D01*
X19539729Y-18994350D01*
X19539040Y-18989538D01*
X19538723Y-18984677D01*
X19539008Y-18984658D01*
X19538607Y-18957899D01*
X19545234Y-18899086D01*
X19551513Y-18871579D01*
X19578485Y-18794497D01*
X19590727Y-18769076D01*
X19634178Y-18699924D01*
X19651770Y-18677865D01*
X19709515Y-18620120D01*
X19731574Y-18602528D01*
X19800726Y-18559077D01*
X19826147Y-18546835D01*
X19903228Y-18519863D01*
X19930736Y-18513584D01*
X19986226Y-18507332D01*
X20001868Y-18507427D01*
X20001879Y-18506550D01*
X20010851Y-18506660D01*
X20019724Y-18508041D01*
X20028626Y-18506877D01*
X20028628Y-18506877D01*
X20043951Y-18504873D01*
X20051286Y-18503914D01*
X20067621Y-18502850D01*
X23305231Y-18502850D01*
X23373352Y-18522852D01*
G37*
%TD.AperFunction*%
M02*
