%TF.GenerationSoftware,KiCad,Pcbnew,(6.0.9)*%
%TF.CreationDate,2023-08-06T15:37:21+02:00*%
%TF.ProjectId,dipswitch-plate,64697073-7769-4746-9368-2d706c617465,rev?*%
%TF.SameCoordinates,Original*%
%TF.FileFunction,Legend,Top*%
%TF.FilePolarity,Positive*%
%FSLAX46Y46*%
G04 Gerber Fmt 4.6, Leading zero omitted, Abs format (unit mm)*
G04 Created by KiCad (PCBNEW (6.0.9)) date 2023-08-06 15:37:21*
%MOMM*%
%LPD*%
G01*
G04 APERTURE LIST*
%ADD10C,0.100000*%
%ADD11C,0.150000*%
%ADD12C,0.120000*%
%ADD13O,1.600000X1.600000*%
%ADD14R,1.600000X1.600000*%
%ADD15O,1.700000X1.700000*%
%ADD16R,1.700000X1.700000*%
G04 APERTURE END LIST*
D10*
X26986166Y-29294016D02*
X27319500Y-29294016D01*
X26919500Y-29494016D02*
X27152833Y-28794016D01*
X27386166Y-29494016D01*
X27986166Y-29494016D02*
X27586166Y-29494016D01*
X27786166Y-29494016D02*
X27786166Y-28794016D01*
X27719500Y-28894016D01*
X27652833Y-28960683D01*
X27586166Y-28994016D01*
X28586166Y-28794016D02*
X28452833Y-28794016D01*
X28386166Y-28827350D01*
X28352833Y-28860683D01*
X28286166Y-28960683D01*
X28252833Y-29094016D01*
X28252833Y-29360683D01*
X28286166Y-29427350D01*
X28319500Y-29460683D01*
X28386166Y-29494016D01*
X28519500Y-29494016D01*
X28586166Y-29460683D01*
X28619500Y-29427350D01*
X28652833Y-29360683D01*
X28652833Y-29194016D01*
X28619500Y-29127350D01*
X28586166Y-29094016D01*
X28519500Y-29060683D01*
X28386166Y-29060683D01*
X28319500Y-29094016D01*
X28286166Y-29127350D01*
X28252833Y-29194016D01*
X29462666Y-29294016D02*
X29796000Y-29294016D01*
X29396000Y-29494016D02*
X29629333Y-28794016D01*
X29862666Y-29494016D01*
X30462666Y-29494016D02*
X30062666Y-29494016D01*
X30262666Y-29494016D02*
X30262666Y-28794016D01*
X30196000Y-28894016D01*
X30129333Y-28960683D01*
X30062666Y-28994016D01*
X31096000Y-28794016D02*
X30762666Y-28794016D01*
X30729333Y-29127350D01*
X30762666Y-29094016D01*
X30829333Y-29060683D01*
X30996000Y-29060683D01*
X31062666Y-29094016D01*
X31096000Y-29127350D01*
X31129333Y-29194016D01*
X31129333Y-29360683D01*
X31096000Y-29427350D01*
X31062666Y-29460683D01*
X30996000Y-29494016D01*
X30829333Y-29494016D01*
X30762666Y-29460683D01*
X30729333Y-29427350D01*
X21842666Y-29357516D02*
X22176000Y-29357516D01*
X21776000Y-29557516D02*
X22009333Y-28857516D01*
X22242666Y-29557516D01*
X22842666Y-29557516D02*
X22442666Y-29557516D01*
X22642666Y-29557516D02*
X22642666Y-28857516D01*
X22576000Y-28957516D01*
X22509333Y-29024183D01*
X22442666Y-29057516D01*
X23242666Y-29157516D02*
X23176000Y-29124183D01*
X23142666Y-29090850D01*
X23109333Y-29024183D01*
X23109333Y-28990850D01*
X23142666Y-28924183D01*
X23176000Y-28890850D01*
X23242666Y-28857516D01*
X23376000Y-28857516D01*
X23442666Y-28890850D01*
X23476000Y-28924183D01*
X23509333Y-28990850D01*
X23509333Y-29024183D01*
X23476000Y-29090850D01*
X23442666Y-29124183D01*
X23376000Y-29157516D01*
X23242666Y-29157516D01*
X23176000Y-29190850D01*
X23142666Y-29224183D01*
X23109333Y-29290850D01*
X23109333Y-29424183D01*
X23142666Y-29490850D01*
X23176000Y-29524183D01*
X23242666Y-29557516D01*
X23376000Y-29557516D01*
X23442666Y-29524183D01*
X23476000Y-29490850D01*
X23509333Y-29424183D01*
X23509333Y-29290850D01*
X23476000Y-29224183D01*
X23442666Y-29190850D01*
X23376000Y-29157516D01*
X35179166Y-28857516D02*
X34845833Y-28857516D01*
X34812500Y-29190850D01*
X34845833Y-29157516D01*
X34912500Y-29124183D01*
X35079166Y-29124183D01*
X35145833Y-29157516D01*
X35179166Y-29190850D01*
X35212500Y-29257516D01*
X35212500Y-29424183D01*
X35179166Y-29490850D01*
X35145833Y-29524183D01*
X35079166Y-29557516D01*
X34912500Y-29557516D01*
X34845833Y-29524183D01*
X34812500Y-29490850D01*
X35412500Y-28857516D02*
X35645833Y-29557516D01*
X35879166Y-28857516D01*
X32002666Y-29294016D02*
X32336000Y-29294016D01*
X31936000Y-29494016D02*
X32169333Y-28794016D01*
X32402666Y-29494016D01*
X33002666Y-29494016D02*
X32602666Y-29494016D01*
X32802666Y-29494016D02*
X32802666Y-28794016D01*
X32736000Y-28894016D01*
X32669333Y-28960683D01*
X32602666Y-28994016D01*
X33602666Y-29027350D02*
X33602666Y-29494016D01*
X33436000Y-28760683D02*
X33269333Y-29260683D01*
X33702666Y-29260683D01*
X24382666Y-29357516D02*
X24716000Y-29357516D01*
X24316000Y-29557516D02*
X24549333Y-28857516D01*
X24782666Y-29557516D01*
X25382666Y-29557516D02*
X24982666Y-29557516D01*
X25182666Y-29557516D02*
X25182666Y-28857516D01*
X25116000Y-28957516D01*
X25049333Y-29024183D01*
X24982666Y-29057516D01*
X25616000Y-28857516D02*
X26082666Y-28857516D01*
X25782666Y-29557516D01*
D11*
%TO.C,SW1*%
X21010761Y-25017683D02*
X21058380Y-24874826D01*
X21058380Y-24636730D01*
X21010761Y-24541492D01*
X20963142Y-24493873D01*
X20867904Y-24446254D01*
X20772666Y-24446254D01*
X20677428Y-24493873D01*
X20629809Y-24541492D01*
X20582190Y-24636730D01*
X20534571Y-24827207D01*
X20486952Y-24922445D01*
X20439333Y-24970064D01*
X20344095Y-25017683D01*
X20248857Y-25017683D01*
X20153619Y-24970064D01*
X20106000Y-24922445D01*
X20058380Y-24827207D01*
X20058380Y-24589111D01*
X20106000Y-24446254D01*
X20058380Y-24112921D02*
X21058380Y-23874826D01*
X20344095Y-23684350D01*
X21058380Y-23493873D01*
X20058380Y-23255778D01*
X21058380Y-22351016D02*
X21058380Y-22922445D01*
X21058380Y-22636730D02*
X20058380Y-22636730D01*
X20201238Y-22731969D01*
X20296476Y-22827207D01*
X20344095Y-22922445D01*
%TO.C,J1*%
X37158380Y-31327683D02*
X37872666Y-31327683D01*
X38015523Y-31375302D01*
X38110761Y-31470540D01*
X38158380Y-31613397D01*
X38158380Y-31708635D01*
X38158380Y-30327683D02*
X38158380Y-30899111D01*
X38158380Y-30613397D02*
X37158380Y-30613397D01*
X37301238Y-30708635D01*
X37396476Y-30803873D01*
X37444095Y-30899111D01*
D12*
%TO.C,SW1*%
X21606000Y-28634350D02*
X21606000Y-18734350D01*
X36606000Y-28634350D02*
X36606000Y-18734350D01*
X21606000Y-28634350D02*
X36606000Y-28634350D01*
X21606000Y-18734350D02*
X36606000Y-18734350D01*
X21366000Y-28874350D02*
X21366000Y-27490350D01*
X21366000Y-28874350D02*
X22749000Y-28874350D01*
X23391000Y-25714350D02*
X24661000Y-25714350D01*
X24661000Y-25714350D02*
X24661000Y-21654350D01*
X24661000Y-21654350D02*
X23391000Y-21654350D01*
X23391000Y-21654350D02*
X23391000Y-25714350D01*
X23511000Y-25714350D02*
X23511000Y-24361017D01*
X23631000Y-25714350D02*
X23631000Y-24361017D01*
X23751000Y-25714350D02*
X23751000Y-24361017D01*
X23871000Y-25714350D02*
X23871000Y-24361017D01*
X23991000Y-25714350D02*
X23991000Y-24361017D01*
X24111000Y-25714350D02*
X24111000Y-24361017D01*
X24231000Y-25714350D02*
X24231000Y-24361017D01*
X24351000Y-25714350D02*
X24351000Y-24361017D01*
X24471000Y-25714350D02*
X24471000Y-24361017D01*
X24591000Y-25714350D02*
X24591000Y-24361017D01*
X23391000Y-24361017D02*
X24661000Y-24361017D01*
X25931000Y-25714350D02*
X27201000Y-25714350D01*
X27201000Y-25714350D02*
X27201000Y-21654350D01*
X27201000Y-21654350D02*
X25931000Y-21654350D01*
X25931000Y-21654350D02*
X25931000Y-25714350D01*
X26051000Y-25714350D02*
X26051000Y-24361017D01*
X26171000Y-25714350D02*
X26171000Y-24361017D01*
X26291000Y-25714350D02*
X26291000Y-24361017D01*
X26411000Y-25714350D02*
X26411000Y-24361017D01*
X26531000Y-25714350D02*
X26531000Y-24361017D01*
X26651000Y-25714350D02*
X26651000Y-24361017D01*
X26771000Y-25714350D02*
X26771000Y-24361017D01*
X26891000Y-25714350D02*
X26891000Y-24361017D01*
X27011000Y-25714350D02*
X27011000Y-24361017D01*
X27131000Y-25714350D02*
X27131000Y-24361017D01*
X25931000Y-24361017D02*
X27201000Y-24361017D01*
X28471000Y-25714350D02*
X29741000Y-25714350D01*
X29741000Y-25714350D02*
X29741000Y-21654350D01*
X29741000Y-21654350D02*
X28471000Y-21654350D01*
X28471000Y-21654350D02*
X28471000Y-25714350D01*
X28591000Y-25714350D02*
X28591000Y-24361017D01*
X28711000Y-25714350D02*
X28711000Y-24361017D01*
X28831000Y-25714350D02*
X28831000Y-24361017D01*
X28951000Y-25714350D02*
X28951000Y-24361017D01*
X29071000Y-25714350D02*
X29071000Y-24361017D01*
X29191000Y-25714350D02*
X29191000Y-24361017D01*
X29311000Y-25714350D02*
X29311000Y-24361017D01*
X29431000Y-25714350D02*
X29431000Y-24361017D01*
X29551000Y-25714350D02*
X29551000Y-24361017D01*
X29671000Y-25714350D02*
X29671000Y-24361017D01*
X28471000Y-24361017D02*
X29741000Y-24361017D01*
X31011000Y-25714350D02*
X32281000Y-25714350D01*
X32281000Y-25714350D02*
X32281000Y-21654350D01*
X32281000Y-21654350D02*
X31011000Y-21654350D01*
X31011000Y-21654350D02*
X31011000Y-25714350D01*
X31131000Y-25714350D02*
X31131000Y-24361017D01*
X31251000Y-25714350D02*
X31251000Y-24361017D01*
X31371000Y-25714350D02*
X31371000Y-24361017D01*
X31491000Y-25714350D02*
X31491000Y-24361017D01*
X31611000Y-25714350D02*
X31611000Y-24361017D01*
X31731000Y-25714350D02*
X31731000Y-24361017D01*
X31851000Y-25714350D02*
X31851000Y-24361017D01*
X31971000Y-25714350D02*
X31971000Y-24361017D01*
X32091000Y-25714350D02*
X32091000Y-24361017D01*
X32211000Y-25714350D02*
X32211000Y-24361017D01*
X31011000Y-24361017D02*
X32281000Y-24361017D01*
X33551000Y-25714350D02*
X34821000Y-25714350D01*
X34821000Y-25714350D02*
X34821000Y-21654350D01*
X34821000Y-21654350D02*
X33551000Y-21654350D01*
X33551000Y-21654350D02*
X33551000Y-25714350D01*
X33671000Y-25714350D02*
X33671000Y-24361017D01*
X33791000Y-25714350D02*
X33791000Y-24361017D01*
X33911000Y-25714350D02*
X33911000Y-24361017D01*
X34031000Y-25714350D02*
X34031000Y-24361017D01*
X34151000Y-25714350D02*
X34151000Y-24361017D01*
X34271000Y-25714350D02*
X34271000Y-24361017D01*
X34391000Y-25714350D02*
X34391000Y-24361017D01*
X34511000Y-25714350D02*
X34511000Y-24361017D01*
X34631000Y-25714350D02*
X34631000Y-24361017D01*
X34751000Y-25714350D02*
X34751000Y-24361017D01*
X33551000Y-24361017D02*
X34821000Y-24361017D01*
%TO.C,J1*%
X21346000Y-29664350D02*
X21346000Y-32324350D01*
X34106000Y-29664350D02*
X21346000Y-29664350D01*
X34106000Y-32324350D02*
X21346000Y-32324350D01*
X34106000Y-29664350D02*
X34106000Y-32324350D01*
X35376000Y-29664350D02*
X36706000Y-29664350D01*
X36706000Y-29664350D02*
X36706000Y-30994350D01*
%TD*%
%LPC*%
D13*
%TO.C,SW1*%
X24026000Y-19874350D03*
X34186000Y-27494350D03*
X26566000Y-19874350D03*
X31646000Y-27494350D03*
X29106000Y-19874350D03*
X29106000Y-27494350D03*
X31646000Y-19874350D03*
X26566000Y-27494350D03*
X34186000Y-19874350D03*
D14*
X24026000Y-27494350D03*
%TD*%
D15*
%TO.C,J1*%
X22676000Y-30994350D03*
X25216000Y-30994350D03*
X27756000Y-30994350D03*
X30296000Y-30994350D03*
X32836000Y-30994350D03*
D16*
X35376000Y-30994350D03*
%TD*%
M02*
