%TF.GenerationSoftware,KiCad,Pcbnew,8.0.2*%
%TF.CreationDate,2025-01-06T21:13:01+01:00*%
%TF.ProjectId,flexconnector,666c6578-636f-46e6-9e65-63746f722e6b,rev?*%
%TF.SameCoordinates,Original*%
%TF.FileFunction,Copper,L1,Top*%
%TF.FilePolarity,Positive*%
%FSLAX46Y46*%
G04 Gerber Fmt 4.6, Leading zero omitted, Abs format (unit mm)*
G04 Created by KiCad (PCBNEW 8.0.2) date 2025-01-06 21:13:01*
%MOMM*%
%LPD*%
G01*
G04 APERTURE LIST*
%TA.AperFunction,ComponentPad*%
%ADD10R,1.700000X1.700000*%
%TD*%
%TA.AperFunction,ComponentPad*%
%ADD11O,1.700000X1.700000*%
%TD*%
%TA.AperFunction,Conductor*%
%ADD12C,0.500000*%
%TD*%
G04 APERTURE END LIST*
D10*
%TO.P,J2,1,Pin_1*%
%TO.N,Net-(J1-Pin_1)*%
X38354000Y-25400000D03*
D11*
%TO.P,J2,2,Pin_2*%
%TO.N,Net-(J1-Pin_2)*%
X35814000Y-25400000D03*
%TO.P,J2,3,Pin_3*%
%TO.N,Net-(J1-Pin_3)*%
X33274000Y-25400000D03*
%TO.P,J2,4,Pin_4*%
%TO.N,Net-(J1-Pin_4)*%
X30734000Y-25400000D03*
%TO.P,J2,5,Pin_5*%
%TO.N,Net-(J1-Pin_5)*%
X28194000Y-25400000D03*
%TO.P,J2,6,Pin_6*%
%TO.N,Net-(J1-Pin_6)*%
X25654000Y-25400000D03*
%TD*%
D10*
%TO.P,J1,1,Pin_1*%
%TO.N,Net-(J1-Pin_1)*%
X43434000Y-55372000D03*
D11*
%TO.P,J1,2,Pin_2*%
%TO.N,Net-(J1-Pin_2)*%
X40894000Y-55372000D03*
%TO.P,J1,3,Pin_3*%
%TO.N,Net-(J1-Pin_3)*%
X38354000Y-55372000D03*
%TO.P,J1,4,Pin_4*%
%TO.N,Net-(J1-Pin_4)*%
X35814000Y-55372000D03*
%TO.P,J1,5,Pin_5*%
%TO.N,Net-(J1-Pin_5)*%
X33274000Y-55372000D03*
%TO.P,J1,6,Pin_6*%
%TO.N,Net-(J1-Pin_6)*%
X30734000Y-55372000D03*
%TD*%
D12*
%TO.N,Net-(J1-Pin_3)*%
X33274000Y-35000000D02*
X38354000Y-45000000D01*
X38354000Y-45000000D02*
X38354000Y-55372000D01*
X33274000Y-25400000D02*
X33274000Y-35000000D01*
%TO.N,Net-(J1-Pin_5)*%
X28194000Y-35306000D02*
X28194000Y-25400000D01*
X33274000Y-55372000D02*
X33274000Y-45000000D01*
X33274000Y-45000000D02*
X28194000Y-35306000D01*
%TO.N,Net-(J1-Pin_2)*%
X35814000Y-25400000D02*
X35814000Y-35306000D01*
X35814000Y-35306000D02*
X40894000Y-45000000D01*
X40894000Y-45000000D02*
X40894000Y-55372000D01*
%TO.N,Net-(J1-Pin_4)*%
X35814000Y-45000000D02*
X30734000Y-35306000D01*
X35814000Y-55372000D02*
X35814000Y-45000000D01*
X30734000Y-35306000D02*
X30734000Y-25400000D01*
%TO.N,Net-(J1-Pin_6)*%
X25654000Y-25400000D02*
X25654000Y-35000000D01*
X25654000Y-35000000D02*
X30734000Y-45000000D01*
X30734000Y-45000000D02*
X30734000Y-55372000D01*
%TO.N,Net-(J1-Pin_1)*%
X39865000Y-38000000D02*
X38698221Y-36000000D01*
X38698221Y-36000000D02*
X38354000Y-35306000D01*
X38354000Y-35306000D02*
X38354000Y-25400000D01*
X43434000Y-55372000D02*
X43434000Y-44704000D01*
X43434000Y-44704000D02*
X39865000Y-38000000D01*
%TD*%
M02*
