%TF.GenerationSoftware,KiCad,Pcbnew,8.0.2*%
%TF.CreationDate,2025-01-06T21:13:01+01:00*%
%TF.ProjectId,flexconnector,666c6578-636f-46e6-9e65-63746f722e6b,rev?*%
%TF.SameCoordinates,Original*%
%TF.FileFunction,Legend,Top*%
%TF.FilePolarity,Positive*%
%FSLAX46Y46*%
G04 Gerber Fmt 4.6, Leading zero omitted, Abs format (unit mm)*
G04 Created by KiCad (PCBNEW 8.0.2) date 2025-01-06 21:13:01*
%MOMM*%
%LPD*%
G01*
G04 APERTURE LIST*
%ADD10C,0.200000*%
%ADD11C,0.150000*%
%ADD12C,0.120000*%
G04 APERTURE END LIST*
D10*
X31230673Y-38938331D02*
X31230673Y-37938331D01*
X31230673Y-37938331D02*
X31611625Y-37938331D01*
X31611625Y-37938331D02*
X31706863Y-37985950D01*
X31706863Y-37985950D02*
X31754482Y-38033569D01*
X31754482Y-38033569D02*
X31802101Y-38128807D01*
X31802101Y-38128807D02*
X31802101Y-38271664D01*
X31802101Y-38271664D02*
X31754482Y-38366902D01*
X31754482Y-38366902D02*
X31706863Y-38414521D01*
X31706863Y-38414521D02*
X31611625Y-38462140D01*
X31611625Y-38462140D02*
X31230673Y-38462140D01*
X32183054Y-38033569D02*
X32230673Y-37985950D01*
X32230673Y-37985950D02*
X32325911Y-37938331D01*
X32325911Y-37938331D02*
X32564006Y-37938331D01*
X32564006Y-37938331D02*
X32659244Y-37985950D01*
X32659244Y-37985950D02*
X32706863Y-38033569D01*
X32706863Y-38033569D02*
X32754482Y-38128807D01*
X32754482Y-38128807D02*
X32754482Y-38224045D01*
X32754482Y-38224045D02*
X32706863Y-38366902D01*
X32706863Y-38366902D02*
X32135435Y-38938331D01*
X32135435Y-38938331D02*
X32754482Y-38938331D01*
X33373530Y-37938331D02*
X33468768Y-37938331D01*
X33468768Y-37938331D02*
X33564006Y-37985950D01*
X33564006Y-37985950D02*
X33611625Y-38033569D01*
X33611625Y-38033569D02*
X33659244Y-38128807D01*
X33659244Y-38128807D02*
X33706863Y-38319283D01*
X33706863Y-38319283D02*
X33706863Y-38557378D01*
X33706863Y-38557378D02*
X33659244Y-38747854D01*
X33659244Y-38747854D02*
X33611625Y-38843092D01*
X33611625Y-38843092D02*
X33564006Y-38890712D01*
X33564006Y-38890712D02*
X33468768Y-38938331D01*
X33468768Y-38938331D02*
X33373530Y-38938331D01*
X33373530Y-38938331D02*
X33278292Y-38890712D01*
X33278292Y-38890712D02*
X33230673Y-38843092D01*
X33230673Y-38843092D02*
X33183054Y-38747854D01*
X33183054Y-38747854D02*
X33135435Y-38557378D01*
X33135435Y-38557378D02*
X33135435Y-38319283D01*
X33135435Y-38319283D02*
X33183054Y-38128807D01*
X33183054Y-38128807D02*
X33230673Y-38033569D01*
X33230673Y-38033569D02*
X33278292Y-37985950D01*
X33278292Y-37985950D02*
X33373530Y-37938331D01*
X34325911Y-37938331D02*
X34421149Y-37938331D01*
X34421149Y-37938331D02*
X34516387Y-37985950D01*
X34516387Y-37985950D02*
X34564006Y-38033569D01*
X34564006Y-38033569D02*
X34611625Y-38128807D01*
X34611625Y-38128807D02*
X34659244Y-38319283D01*
X34659244Y-38319283D02*
X34659244Y-38557378D01*
X34659244Y-38557378D02*
X34611625Y-38747854D01*
X34611625Y-38747854D02*
X34564006Y-38843092D01*
X34564006Y-38843092D02*
X34516387Y-38890712D01*
X34516387Y-38890712D02*
X34421149Y-38938331D01*
X34421149Y-38938331D02*
X34325911Y-38938331D01*
X34325911Y-38938331D02*
X34230673Y-38890712D01*
X34230673Y-38890712D02*
X34183054Y-38843092D01*
X34183054Y-38843092D02*
X34135435Y-38747854D01*
X34135435Y-38747854D02*
X34087816Y-38557378D01*
X34087816Y-38557378D02*
X34087816Y-38319283D01*
X34087816Y-38319283D02*
X34135435Y-38128807D01*
X34135435Y-38128807D02*
X34183054Y-38033569D01*
X34183054Y-38033569D02*
X34230673Y-37985950D01*
X34230673Y-37985950D02*
X34325911Y-37938331D01*
X35278292Y-37938331D02*
X35373530Y-37938331D01*
X35373530Y-37938331D02*
X35468768Y-37985950D01*
X35468768Y-37985950D02*
X35516387Y-38033569D01*
X35516387Y-38033569D02*
X35564006Y-38128807D01*
X35564006Y-38128807D02*
X35611625Y-38319283D01*
X35611625Y-38319283D02*
X35611625Y-38557378D01*
X35611625Y-38557378D02*
X35564006Y-38747854D01*
X35564006Y-38747854D02*
X35516387Y-38843092D01*
X35516387Y-38843092D02*
X35468768Y-38890712D01*
X35468768Y-38890712D02*
X35373530Y-38938331D01*
X35373530Y-38938331D02*
X35278292Y-38938331D01*
X35278292Y-38938331D02*
X35183054Y-38890712D01*
X35183054Y-38890712D02*
X35135435Y-38843092D01*
X35135435Y-38843092D02*
X35087816Y-38747854D01*
X35087816Y-38747854D02*
X35040197Y-38557378D01*
X35040197Y-38557378D02*
X35040197Y-38319283D01*
X35040197Y-38319283D02*
X35087816Y-38128807D01*
X35087816Y-38128807D02*
X35135435Y-38033569D01*
X35135435Y-38033569D02*
X35183054Y-37985950D01*
X35183054Y-37985950D02*
X35278292Y-37938331D01*
X35897340Y-37938331D02*
X36468768Y-37938331D01*
X36183054Y-38938331D02*
X36183054Y-37938331D01*
X31230673Y-40548275D02*
X31230673Y-39548275D01*
X31230673Y-39548275D02*
X31564006Y-40262560D01*
X31564006Y-40262560D02*
X31897339Y-39548275D01*
X31897339Y-39548275D02*
X31897339Y-40548275D01*
X32373530Y-39548275D02*
X32373530Y-40357798D01*
X32373530Y-40357798D02*
X32421149Y-40453036D01*
X32421149Y-40453036D02*
X32468768Y-40500656D01*
X32468768Y-40500656D02*
X32564006Y-40548275D01*
X32564006Y-40548275D02*
X32754482Y-40548275D01*
X32754482Y-40548275D02*
X32849720Y-40500656D01*
X32849720Y-40500656D02*
X32897339Y-40453036D01*
X32897339Y-40453036D02*
X32944958Y-40357798D01*
X32944958Y-40357798D02*
X32944958Y-39548275D01*
X33897339Y-40548275D02*
X33421149Y-40548275D01*
X33421149Y-40548275D02*
X33421149Y-39548275D01*
X34087816Y-39548275D02*
X34659244Y-39548275D01*
X34373530Y-40548275D02*
X34373530Y-39548275D01*
X34992578Y-40548275D02*
X34992578Y-39548275D01*
X36040196Y-40453036D02*
X35992577Y-40500656D01*
X35992577Y-40500656D02*
X35849720Y-40548275D01*
X35849720Y-40548275D02*
X35754482Y-40548275D01*
X35754482Y-40548275D02*
X35611625Y-40500656D01*
X35611625Y-40500656D02*
X35516387Y-40405417D01*
X35516387Y-40405417D02*
X35468768Y-40310179D01*
X35468768Y-40310179D02*
X35421149Y-40119703D01*
X35421149Y-40119703D02*
X35421149Y-39976846D01*
X35421149Y-39976846D02*
X35468768Y-39786370D01*
X35468768Y-39786370D02*
X35516387Y-39691132D01*
X35516387Y-39691132D02*
X35611625Y-39595894D01*
X35611625Y-39595894D02*
X35754482Y-39548275D01*
X35754482Y-39548275D02*
X35849720Y-39548275D01*
X35849720Y-39548275D02*
X35992577Y-39595894D01*
X35992577Y-39595894D02*
X36040196Y-39643513D01*
X36421149Y-40262560D02*
X36897339Y-40262560D01*
X36325911Y-40548275D02*
X36659244Y-39548275D01*
X36659244Y-39548275D02*
X36992577Y-40548275D01*
X37897339Y-40548275D02*
X37564006Y-40072084D01*
X37325911Y-40548275D02*
X37325911Y-39548275D01*
X37325911Y-39548275D02*
X37706863Y-39548275D01*
X37706863Y-39548275D02*
X37802101Y-39595894D01*
X37802101Y-39595894D02*
X37849720Y-39643513D01*
X37849720Y-39643513D02*
X37897339Y-39738751D01*
X37897339Y-39738751D02*
X37897339Y-39881608D01*
X37897339Y-39881608D02*
X37849720Y-39976846D01*
X37849720Y-39976846D02*
X37802101Y-40024465D01*
X37802101Y-40024465D02*
X37706863Y-40072084D01*
X37706863Y-40072084D02*
X37325911Y-40072084D01*
X38183054Y-39548275D02*
X38754482Y-39548275D01*
X38468768Y-40548275D02*
X38468768Y-39548275D01*
X31564006Y-41634409D02*
X31230673Y-41634409D01*
X31230673Y-42158219D02*
X31230673Y-41158219D01*
X31230673Y-41158219D02*
X31706863Y-41158219D01*
X32564006Y-42158219D02*
X32087816Y-42158219D01*
X32087816Y-42158219D02*
X32087816Y-41158219D01*
X32897340Y-41634409D02*
X33230673Y-41634409D01*
X33373530Y-42158219D02*
X32897340Y-42158219D01*
X32897340Y-42158219D02*
X32897340Y-41158219D01*
X32897340Y-41158219D02*
X33373530Y-41158219D01*
X33706864Y-41158219D02*
X34373530Y-42158219D01*
X34373530Y-41158219D02*
X33706864Y-42158219D01*
X35325911Y-42062980D02*
X35278292Y-42110600D01*
X35278292Y-42110600D02*
X35135435Y-42158219D01*
X35135435Y-42158219D02*
X35040197Y-42158219D01*
X35040197Y-42158219D02*
X34897340Y-42110600D01*
X34897340Y-42110600D02*
X34802102Y-42015361D01*
X34802102Y-42015361D02*
X34754483Y-41920123D01*
X34754483Y-41920123D02*
X34706864Y-41729647D01*
X34706864Y-41729647D02*
X34706864Y-41586790D01*
X34706864Y-41586790D02*
X34754483Y-41396314D01*
X34754483Y-41396314D02*
X34802102Y-41301076D01*
X34802102Y-41301076D02*
X34897340Y-41205838D01*
X34897340Y-41205838D02*
X35040197Y-41158219D01*
X35040197Y-41158219D02*
X35135435Y-41158219D01*
X35135435Y-41158219D02*
X35278292Y-41205838D01*
X35278292Y-41205838D02*
X35325911Y-41253457D01*
X35944959Y-41158219D02*
X36135435Y-41158219D01*
X36135435Y-41158219D02*
X36230673Y-41205838D01*
X36230673Y-41205838D02*
X36325911Y-41301076D01*
X36325911Y-41301076D02*
X36373530Y-41491552D01*
X36373530Y-41491552D02*
X36373530Y-41824885D01*
X36373530Y-41824885D02*
X36325911Y-42015361D01*
X36325911Y-42015361D02*
X36230673Y-42110600D01*
X36230673Y-42110600D02*
X36135435Y-42158219D01*
X36135435Y-42158219D02*
X35944959Y-42158219D01*
X35944959Y-42158219D02*
X35849721Y-42110600D01*
X35849721Y-42110600D02*
X35754483Y-42015361D01*
X35754483Y-42015361D02*
X35706864Y-41824885D01*
X35706864Y-41824885D02*
X35706864Y-41491552D01*
X35706864Y-41491552D02*
X35754483Y-41301076D01*
X35754483Y-41301076D02*
X35849721Y-41205838D01*
X35849721Y-41205838D02*
X35944959Y-41158219D01*
X36802102Y-42158219D02*
X36802102Y-41158219D01*
X36802102Y-41158219D02*
X37373530Y-42158219D01*
X37373530Y-42158219D02*
X37373530Y-41158219D01*
X37849721Y-42158219D02*
X37849721Y-41158219D01*
X37849721Y-41158219D02*
X38421149Y-42158219D01*
X38421149Y-42158219D02*
X38421149Y-41158219D01*
D11*
X37666666Y-27775819D02*
X37666666Y-28490104D01*
X37666666Y-28490104D02*
X37619047Y-28632961D01*
X37619047Y-28632961D02*
X37523809Y-28728200D01*
X37523809Y-28728200D02*
X37380952Y-28775819D01*
X37380952Y-28775819D02*
X37285714Y-28775819D01*
X38095238Y-27871057D02*
X38142857Y-27823438D01*
X38142857Y-27823438D02*
X38238095Y-27775819D01*
X38238095Y-27775819D02*
X38476190Y-27775819D01*
X38476190Y-27775819D02*
X38571428Y-27823438D01*
X38571428Y-27823438D02*
X38619047Y-27871057D01*
X38619047Y-27871057D02*
X38666666Y-27966295D01*
X38666666Y-27966295D02*
X38666666Y-28061533D01*
X38666666Y-28061533D02*
X38619047Y-28204390D01*
X38619047Y-28204390D02*
X38047619Y-28775819D01*
X38047619Y-28775819D02*
X38666666Y-28775819D01*
X25500000Y-27704819D02*
X25690476Y-27704819D01*
X25690476Y-27704819D02*
X25785714Y-27752438D01*
X25785714Y-27752438D02*
X25880952Y-27847676D01*
X25880952Y-27847676D02*
X25928571Y-28038152D01*
X25928571Y-28038152D02*
X25928571Y-28371485D01*
X25928571Y-28371485D02*
X25880952Y-28561961D01*
X25880952Y-28561961D02*
X25785714Y-28657200D01*
X25785714Y-28657200D02*
X25690476Y-28704819D01*
X25690476Y-28704819D02*
X25500000Y-28704819D01*
X25500000Y-28704819D02*
X25404762Y-28657200D01*
X25404762Y-28657200D02*
X25309524Y-28561961D01*
X25309524Y-28561961D02*
X25261905Y-28371485D01*
X25261905Y-28371485D02*
X25261905Y-28038152D01*
X25261905Y-28038152D02*
X25309524Y-27847676D01*
X25309524Y-27847676D02*
X25404762Y-27752438D01*
X25404762Y-27752438D02*
X25500000Y-27704819D01*
X26357143Y-27704819D02*
X26357143Y-28514342D01*
X26357143Y-28514342D02*
X26404762Y-28609580D01*
X26404762Y-28609580D02*
X26452381Y-28657200D01*
X26452381Y-28657200D02*
X26547619Y-28704819D01*
X26547619Y-28704819D02*
X26738095Y-28704819D01*
X26738095Y-28704819D02*
X26833333Y-28657200D01*
X26833333Y-28657200D02*
X26880952Y-28609580D01*
X26880952Y-28609580D02*
X26928571Y-28514342D01*
X26928571Y-28514342D02*
X26928571Y-27704819D01*
X27261905Y-27704819D02*
X27833333Y-27704819D01*
X27547619Y-28704819D02*
X27547619Y-27704819D01*
X43100666Y-52032819D02*
X43100666Y-52747104D01*
X43100666Y-52747104D02*
X43053047Y-52889961D01*
X43053047Y-52889961D02*
X42957809Y-52985200D01*
X42957809Y-52985200D02*
X42814952Y-53032819D01*
X42814952Y-53032819D02*
X42719714Y-53032819D01*
X44100666Y-53032819D02*
X43529238Y-53032819D01*
X43814952Y-53032819D02*
X43814952Y-52032819D01*
X43814952Y-52032819D02*
X43719714Y-52175676D01*
X43719714Y-52175676D02*
X43624476Y-52270914D01*
X43624476Y-52270914D02*
X43529238Y-52318533D01*
X30210191Y-53159819D02*
X30210191Y-52159819D01*
X30686381Y-53159819D02*
X30686381Y-52159819D01*
X30686381Y-52159819D02*
X31257809Y-53159819D01*
X31257809Y-53159819D02*
X31257809Y-52159819D01*
D12*
%TO.C,J2*%
X24324000Y-24070000D02*
X24324000Y-26730000D01*
X37084000Y-24070000D02*
X24324000Y-24070000D01*
X37084000Y-24070000D02*
X37084000Y-26730000D01*
X37084000Y-26730000D02*
X24324000Y-26730000D01*
X38354000Y-24070000D02*
X39684000Y-24070000D01*
X39684000Y-24070000D02*
X39684000Y-25400000D01*
%TO.C,J1*%
X29404000Y-54042000D02*
X29404000Y-56702000D01*
X42164000Y-54042000D02*
X29404000Y-54042000D01*
X42164000Y-54042000D02*
X42164000Y-56702000D01*
X42164000Y-56702000D02*
X29404000Y-56702000D01*
X43434000Y-54042000D02*
X44764000Y-54042000D01*
X44764000Y-54042000D02*
X44764000Y-55372000D01*
%TD*%
M02*
